<svg width="34" height="24" viewBox="0 0 34 24" fill="none" xmlns="http://www.w3.org/2000/svg">
<rect x="0.5" y="0.5" width="33" height="23" rx="3.5" fill="#F884A1"/>
<path fill-rule="evenodd" clip-rule="evenodd" d="M19.7839 9.43558L20.7237 4.6181C20.8368 4.07764 20.5258 3.53303 20.0048 3.37505C19.4233 3.22539 18.8377 3.57461 18.6883 4.16495L17.8367 7.16623L17.1654 4.21068C17.1129 3.93629 16.9514 3.69101 16.7212 3.53303C16.491 3.37505 16.2043 3.32101 15.9337 3.37921C15.4006 3.49562 15.0533 4.13585 15.1865 4.71787L15.5826 8.06573C15.2385 7.71266 14.8367 7.6039 14.371 7.88161L14.3104 7.92318C13.8861 8.22069 13.7997 8.82863 14.0724 9.38237C13.8467 9.39544 13.626 9.49233 13.4582 9.66926L13.4179 9.71499C13.0261 10.1307 13.1028 10.8333 13.5915 11.3363L13.9885 11.7436C14.0331 13.6263 15.5208 14.9449 17.2748 14.9449C17.2956 14.9449 17.3156 14.942 17.3346 14.9365C19.7105 14.912 20.7547 13.4553 20.9337 11.2449C20.9902 10.5464 20.865 10.0684 20.6025 9.7815C20.4571 9.62352 20.3037 9.54869 20.1866 9.53206L19.7839 9.43558ZM19.3586 9.33369L20.2956 4.52663C20.3602 4.21068 20.1785 3.89888 19.8877 3.80742C19.5485 3.72011 19.2012 3.93214 19.1083 4.28551L18.0219 8.11857C17.9896 8.23913 17.8684 8.30565 17.7513 8.27239C17.6583 8.24598 17.5984 8.16192 17.5939 8.06806L16.7373 4.30214C16.705 4.14 16.6121 3.99865 16.4789 3.90719C16.3456 3.81573 16.18 3.78663 16.0225 3.81989C15.7398 3.88225 15.5298 4.27304 15.6146 4.62225L15.6187 4.6472L16.1082 8.8012L16.4161 9.27424C16.5505 9.08209 16.7444 8.96236 16.9759 8.90846C17.1698 8.86689 17.3676 8.87104 17.5575 8.9043C17.6048 8.91126 17.6408 8.92114 17.6607 8.92661C17.6646 8.92767 17.6679 8.92857 17.6705 8.92925L19.3586 9.33369ZM16.2225 9.7847L15.7404 9.04409C15.724 9.0262 15.7104 9.00552 15.7005 8.98283L15.4735 8.63408C15.1949 8.21419 14.9243 8.06869 14.6012 8.25992L14.5568 8.29318C14.3064 8.47195 14.2741 8.896 14.5326 9.30341L15.4857 10.7626C15.6553 11.0204 15.9945 11.0869 16.2449 10.9123L16.2934 10.8832C16.3603 10.8381 16.4158 10.7761 16.4556 10.7048C16.2162 10.4525 16.157 10.1405 16.2225 9.7847ZM16.8964 10.5116C16.8715 10.4724 16.8343 10.4411 16.7885 10.4237C16.6064 10.2434 16.5992 10.0182 16.6851 9.7233C16.7497 9.50712 16.8749 9.39487 17.0728 9.34914C17.2021 9.32004 17.3434 9.32419 17.4807 9.34914C17.4962 9.35231 17.5098 9.35488 17.5215 9.35708C17.5404 9.36063 17.554 9.3632 17.5615 9.36577L20.1058 9.97689L20.1542 9.99352C20.1946 10.0102 20.2391 10.0434 20.2835 10.0891C20.4531 10.2762 20.55 10.6296 20.5016 11.2116C20.336 13.2487 19.4152 14.5125 17.2263 14.4918C17.214 14.4918 17.202 14.4928 17.1903 14.4948C15.8636 14.4583 14.7413 13.5666 14.4807 12.2486L14.8071 12.5835C15.1989 12.9702 15.8168 12.9619 16.1964 12.5628L16.2408 12.517C16.5421 12.1934 16.5938 11.7167 16.3979 11.3396C16.4269 11.3235 16.4553 11.3058 16.4832 11.2865L16.5316 11.2532C16.6414 11.1763 16.7336 11.0771 16.8044 10.9629C16.9518 11.042 17.1291 11.1114 17.3394 11.17L17.9492 11.3156C17.4969 11.5775 17.2142 12.0639 17.1819 12.808C17.1738 12.9328 17.2667 13.0367 17.3878 13.045C17.509 13.0492 17.61 12.9577 17.618 12.833C17.6503 12.1595 17.9048 11.7978 18.3127 11.6398C18.5307 11.5567 18.769 11.5401 18.979 11.5608L19.0315 11.5692C19.3102 11.6232 19.399 11.195 19.1204 11.1285L17.4444 10.7418C17.2025 10.6738 17.0237 10.5983 16.8964 10.5116ZM13.7732 9.98522C13.9409 9.80464 14.2138 9.78287 14.4106 9.92365L15.1222 11.0162C15.3174 11.3097 15.6335 11.4653 15.953 11.4595C16.1273 11.6772 16.118 11.9993 15.9218 12.2052L15.8814 12.251C15.6714 12.4713 15.3281 12.4755 15.114 12.2593L13.9025 11.0245C13.5673 10.6795 13.5229 10.2554 13.7329 10.0309L13.7732 9.98522ZM12.1578 19.1646C12.1578 19.8589 11.6328 20.3328 10.9463 20.3328C10.4657 20.3328 10.0537 20.1083 9.79932 19.7508L10.2718 19.2644C10.4132 19.4515 10.6474 19.6552 10.9543 19.6552C11.2411 19.6552 11.439 19.4806 11.439 19.1979C11.439 18.8985 11.2047 18.8237 10.8372 18.7156C10.1628 18.5119 9.88816 18.1502 9.88816 17.6804C9.88816 17.0901 10.3243 16.5829 11.0109 16.5829C11.443 16.5829 11.8428 16.7908 12.0205 17.194L11.4511 17.564C11.342 17.3811 11.1926 17.2605 10.9907 17.2605C10.7524 17.2605 10.603 17.4268 10.603 17.6389C10.603 17.8925 10.8211 17.9714 11.1684 18.0754C11.7136 18.2417 12.1578 18.5202 12.1578 19.1646ZM12.4041 19.0066C12.4041 19.7342 12.9937 20.3328 13.7206 20.3328C14.4476 20.3328 15.0372 19.7342 15.0372 19.0066C15.0372 18.2791 14.4476 17.6804 13.7206 17.6804C12.9937 17.6804 12.4041 18.2791 12.4041 19.0066ZM13.7205 19.6676C14.0718 19.6676 14.3505 19.3808 14.3505 19.0066C14.3505 18.6325 14.0718 18.3456 13.7205 18.3456C13.3651 18.3456 13.0904 18.6325 13.0904 19.0066C13.0904 19.3849 13.3691 19.6676 13.7205 19.6676ZM16.7374 16.6286V17.2938C16.3537 17.2772 16.0751 17.4767 16.0751 17.9174V18.1876C16.2285 18.0213 16.4466 17.9382 16.7172 17.9382V18.6117C16.3376 18.62 16.0751 18.8694 16.0751 19.2187V20.2663H15.3885V17.8758C15.3885 17.2024 15.8005 16.6286 16.6364 16.6286H16.7374ZM18.2357 20.3328C17.5088 20.3328 16.9191 19.7342 16.9191 19.0066C16.9191 18.2791 17.5088 17.6804 18.2357 17.6804C18.9627 17.6804 19.5523 18.2791 19.5523 19.0066C19.5523 19.7342 18.9627 20.3328 18.2357 20.3328ZM18.8657 19.0066C18.8657 19.3808 18.5911 19.6676 18.2357 19.6676C17.8843 19.6676 17.6057 19.3849 17.6057 19.0066C17.6057 18.6325 17.8843 18.3456 18.2357 18.3456C18.587 18.3456 18.8657 18.6325 18.8657 19.0066ZM20.5902 18.038V17.7511H19.9238V20.2663H20.6104V19.1189C20.6104 18.7031 20.8486 18.4703 21.2606 18.4703V17.7137C20.9496 17.7012 20.7275 17.8093 20.5902 18.038ZM22.3429 18.3664V18.9817C22.3429 19.4224 22.6216 19.6178 23.0053 19.6053V20.2705H22.9043C22.0643 20.2705 21.6564 19.6968 21.6564 19.0233V16.9446H22.3429V17.3395C22.3429 17.6804 22.6135 17.9382 22.9851 17.9465V18.6158C22.7105 18.6158 22.4964 18.5327 22.3429 18.3664ZM23.8251 20.3079C24.0755 20.3079 24.2855 20.0959 24.2855 19.834C24.2855 19.5762 24.0795 19.36 23.8251 19.36C23.5707 19.36 23.3647 19.572 23.3647 19.834C23.3647 20.0959 23.5707 20.3079 23.8251 20.3079Z" fill="white"/>
<rect x="0.5" y="0.5" width="33" height="23" rx="3.5" stroke="#F2F4F7"/>
</svg>
