<svg width="34" height="24" viewBox="0 0 34 24" fill="none" xmlns="http://www.w3.org/2000/svg">
<rect x="0.5" y="0.5" width="33" height="23" rx="3.5" fill="white"/>
<path fill-rule="evenodd" clip-rule="evenodd" d="M18.2679 8.14192L16.5408 8.52349V7.08202L18.2679 6.70752V8.14192ZM21.8597 8.94038C21.1853 8.94038 20.7518 9.26542 20.511 9.49153L20.4216 9.05344H18.9077V17.2924L20.628 16.9179L20.6349 14.9183C20.8826 15.102 21.2473 15.3634 21.8528 15.3634C23.0845 15.3634 24.2061 14.3459 24.2061 12.106C24.1992 10.0568 23.0639 8.94038 21.8597 8.94038ZM21.4468 13.8089C21.0408 13.8089 20.8 13.6605 20.6349 13.4768L20.628 10.8553C20.8069 10.6504 21.0546 10.509 21.4468 10.509C22.073 10.509 22.5065 11.2298 22.5065 12.1554C22.5065 13.1023 22.0799 13.8089 21.4468 13.8089ZM29.6284 12.1766C29.6284 10.3677 28.7751 8.94038 27.1443 8.94038C25.5067 8.94038 24.5158 10.3677 24.5158 12.1625C24.5158 14.2894 25.6856 15.3634 27.3645 15.3634C28.1834 15.3634 28.8027 15.1726 29.2706 14.9041V13.4909C28.8027 13.7312 28.2659 13.8795 27.5847 13.8795C26.9173 13.8795 26.3255 13.6393 26.2498 12.8055H29.6146C29.6146 12.7666 29.6171 12.6782 29.6199 12.5763L29.6199 12.5761C29.6238 12.4377 29.6284 12.2743 29.6284 12.1766ZM26.2291 11.5054C26.2291 10.7069 26.7039 10.3748 27.1374 10.3748C27.5572 10.3748 28.0044 10.7069 28.0044 11.5054H26.2291ZM16.5407 9.06052H18.2678V15.2433H16.5407V9.06052ZM14.5798 9.06051L14.6899 9.5834C15.0959 8.82026 15.9009 8.97572 16.1211 9.06051V10.6857C15.9078 10.608 15.2197 10.509 14.8137 11.0531V15.2433H13.0935V9.06051H14.5798ZM11.2493 7.52717L9.57032 7.8946L9.56344 13.5545C9.56344 14.6003 10.3272 15.3705 11.3456 15.3705C11.9099 15.3705 12.3227 15.2645 12.5498 15.1373V13.7029C12.3296 13.7947 11.2424 14.1198 11.2424 13.074V10.5656H12.5498V9.0605H11.2424L11.2493 7.52717ZM7.18271 10.4737C6.81801 10.4737 6.59782 10.5797 6.59782 10.8553C6.59782 11.1562 6.97678 11.2885 7.44691 11.4527C8.21334 11.7204 9.2221 12.0728 9.22636 13.3779C9.22636 14.6427 8.24238 15.3705 6.81113 15.3705C6.21937 15.3705 5.57256 15.2504 4.93262 14.9677V13.286C5.51063 13.611 6.24001 13.8513 6.81113 13.8513C7.19647 13.8513 7.47171 13.7453 7.47171 13.4203C7.47171 13.087 7.06092 12.9346 6.56498 12.7507C5.8097 12.4706 4.85693 12.1173 4.85693 10.9401C4.85693 9.6894 5.78587 8.9404 7.18271 8.9404C7.75383 8.9404 8.31807 9.03225 8.88919 9.26543V10.926C8.36624 10.6362 7.70566 10.4737 7.18271 10.4737Z" fill="#6461FC"/>
<rect x="0.5" y="0.5" width="33" height="23" rx="3.5" stroke="#F2F4F7"/>
</svg>
