<svg width="50" height="50" viewBox="0 0 50 50" fill="none" xmlns="http://www.w3.org/2000/svg">
<path d="M37.5 20.834L36.5625 29.3757C36.2156 32.5007 35.0292 35.4735 33.1292 37.9787C31.2292 40.4839 28.6865 42.428 25.7708 43.6048V43.6048C25.2758 43.802 24.7241 43.802 24.2292 43.6048V43.6048C21.3135 42.428 18.7708 40.4839 16.8708 37.9787C14.9708 35.4735 13.7844 32.5007 13.4375 29.3757L12.5 20.834H37.5Z" stroke="#306CFE" stroke-width="2" stroke-linecap="round" stroke-linejoin="round"/>
<path d="M27.0836 6.25C25.7175 8.04584 24.9849 10.2437 25.0002 12.5" stroke="#306CFE" stroke-width="2" stroke-linecap="round" stroke-linejoin="round"/>
<path d="M16.667 12.5H33.3337C34.9913 12.5 36.581 13.1585 37.7531 14.3306C38.9252 15.5027 39.5837 17.0924 39.5837 18.75C39.5837 19.3025 39.3642 19.8324 38.9735 20.2231C38.5828 20.6138 38.0529 20.8333 37.5003 20.8333H12.5003C11.9478 20.8333 11.4179 20.6138 11.0272 20.2231C10.6365 19.8324 10.417 19.3025 10.417 18.75C10.417 17.0924 11.0755 15.5027 12.2476 14.3306C13.4197 13.1585 15.0094 12.5 16.667 12.5V12.5Z" stroke="#344054" stroke-width="2" stroke-linecap="round" stroke-linejoin="round"/>
</svg>
