<svg width="50" height="50" viewBox="0 0 50 50" fill="none" xmlns="http://www.w3.org/2000/svg">
<path d="M22.5 6.25L36.1458 11.3542C36.4755 11.4747 36.7693 11.6765 37.0001 11.941C37.2308 12.2054 37.3911 12.5238 37.4659 12.8667C37.5407 13.2096 37.5277 13.5659 37.428 13.9024C37.3284 14.2389 37.1453 14.5448 36.8958 14.7917L32.9167 18.75L27.0833 16.7708C26.8406 16.6959 26.5873 16.6607 26.3333 16.6667H17.875C17.3587 16.668 16.8612 16.861 16.4792 17.2083L12.5 20.8333" stroke="#306CFE" stroke-width="2" stroke-linecap="round" stroke-linejoin="round"/>
<path d="M33.1253 19.459L33.5003 20.834C34.1202 23.052 33.8427 25.4249 32.7279 27.4401C31.6131 29.4554 29.7504 30.9513 27.542 31.6048V31.6048" stroke="#344054" stroke-width="3" stroke-linecap="round" stroke-linejoin="round"/>
<path d="M22.917 43.7493H25.0003C25.5529 43.7493 26.0828 43.5299 26.4735 43.1392C26.8642 42.7485 27.0837 42.2185 27.0837 41.666V29.166" stroke="#306CFE" stroke-width="2" stroke-linecap="round" stroke-linejoin="round"/>
<path d="M22.9167 33.3333C25.2179 33.3333 27.0833 31.4679 27.0833 29.1667C27.0833 26.8655 25.2179 25 22.9167 25C20.6155 25 18.75 26.8655 18.75 29.1667C18.75 31.4679 20.6155 33.3333 22.9167 33.3333Z" stroke="#306CFE" stroke-width="2" stroke-linecap="round" stroke-linejoin="round"/>
</svg>
