<svg width="50" height="50" viewBox="0 0 50 50" fill="none" xmlns="http://www.w3.org/2000/svg">
<path d="M34.2705 14.584H34.4788" stroke="#344054" stroke-width="3" stroke-linecap="round" stroke-linejoin="round"/>
<path d="M14.583 16.666H16.6663" stroke="#344054" stroke-width="2" stroke-linecap="round" stroke-linejoin="round"/>
<path d="M29.1663 31.25H20.833V43.75H29.1663V31.25Z" stroke="#306CFE" stroke-width="2" stroke-linecap="round" stroke-linejoin="round"/>
<path d="M41.6667 22.9173V29.1673C41.6667 29.7199 41.4472 30.2498 41.0565 30.6405C40.6658 31.0312 40.1359 31.2507 39.5833 31.2507H8.33333C7.7808 31.2507 7.25089 31.0312 6.86019 30.6405C6.46949 30.2498 6.25 29.7199 6.25 29.1673V10.4173C6.25 9.86478 6.46949 9.33488 6.86019 8.94418C7.25089 8.55348 7.7808 8.33398 8.33333 8.33398H25" stroke="#306CFE" stroke-width="2" stroke-linecap="round" stroke-linejoin="round"/>
<path d="M43.75 20.8333V8.33333C43.75 7.18274 42.8173 6.25 41.6667 6.25L27.0833 6.25C25.9327 6.25 25 7.18274 25 8.33333V20.8333C25 21.9839 25.9327 22.9167 27.0833 22.9167H41.6667C42.8173 22.9167 43.75 21.9839 43.75 20.8333Z" stroke="#344054" stroke-width="2" stroke-linecap="round" stroke-linejoin="round"/>
</svg>
