<svg width="50" height="50" viewBox="0 0 50 50" fill="none" xmlns="http://www.w3.org/2000/svg">
<path d="M41.6667 33.3327V39.5827C41.6667 40.1352 41.4472 40.6651 41.0565 41.0558C40.6658 41.4465 40.1359 41.666 39.5833 41.666H8.33333C7.7808 41.666 7.25089 41.4465 6.86019 41.0558C6.46949 40.6651 6.25 40.1352 6.25 39.5827V12.4993C6.25 11.9468 6.46949 11.4169 6.86019 11.0262C7.25089 10.6355 7.7808 10.416 8.33333 10.416H18.75" stroke="#306CFE" stroke-width="2" stroke-linecap="round" stroke-linejoin="round"/>
<path d="M43.75 31.2507V10.4173C43.75 9.86478 43.5305 9.33488 43.1398 8.94418C42.7491 8.55348 42.2192 8.33398 41.6667 8.33398H20.8333C20.2808 8.33398 19.7509 8.55348 19.3602 8.94418C18.9695 9.33488 18.75 9.86478 18.75 10.4173V31.2507C18.75 31.8032 18.9695 32.3331 19.3602 32.7238C19.7509 33.1145 20.2808 33.334 20.8333 33.334H41.6667C42.2192 33.334 42.7491 33.1145 43.1398 32.7238C43.5305 32.3331 43.75 31.8032 43.75 31.2507ZM31.25 16.6673C30.4259 16.6673 29.6203 16.9117 28.9351 17.3695C28.2499 17.8274 27.7159 18.4781 27.4005 19.2395C27.0851 20.0008 27.0026 20.8386 27.1634 21.6469C27.3242 22.4551 27.721 23.1975 28.3037 23.7803C28.8864 24.363 29.6289 24.7598 30.4371 24.9206C31.2454 25.0814 32.0832 24.9988 32.8445 24.6835C33.6059 24.3681 34.2566 23.8341 34.7145 23.1489C35.1723 22.4637 35.4167 21.6581 35.4167 20.834C35.4167 19.7289 34.9777 18.6691 34.1963 17.8877C33.4149 17.1063 32.3551 16.6673 31.25 16.6673V16.6673Z" stroke="#344054" stroke-width="2" stroke-linecap="round" stroke-linejoin="round"/>
</svg>
