<svg width="50" height="50" viewBox="0 0 50 50" fill="none" xmlns="http://www.w3.org/2000/svg">
<path d="M18.75 31.2493V43.7493M31.25 10.416H37.5H31.25ZM31.25 18.7493H37.5H31.25Z" stroke="#344054" stroke-width="2" stroke-linecap="round" stroke-linejoin="round"/>
<path d="M16.6667 6.25H29.1667C29.7192 6.25 30.2491 6.46949 30.6398 6.86019C31.0305 7.25089 31.25 7.7808 31.25 8.33333V29.1667C31.25 29.7192 31.0305 30.2491 30.6398 30.6398C30.2491 31.0305 29.7192 31.25 29.1667 31.25H14.5833C14.0308 31.25 13.5009 31.0305 13.1102 30.6398C12.7195 30.2491 12.5 29.7192 12.5 29.1667V10.4167C12.5 9.3116 12.939 8.25179 13.7204 7.47039C14.5018 6.68899 15.5616 6.25 16.6667 6.25V6.25Z" stroke="#306CFE" stroke-width="2" stroke-linecap="round" stroke-linejoin="round"/>
</svg>
