<svg width="50" height="50" viewBox="0 0 50 50" fill="none" xmlns="http://www.w3.org/2000/svg">
<path d="M29.167 39.5833H43.7503M29.167 31.25H43.7503H29.167ZM35.417 10.4167H43.7503H35.417ZM39.5837 6.25V14.5833V6.25Z" stroke="#344054" stroke-width="2" stroke-linecap="round" stroke-linejoin="round"/>
<path d="M13.5417 43.7493C17.5687 43.7493 20.8333 40.4848 20.8333 36.4577C20.8333 32.4306 17.5687 29.166 13.5417 29.166C9.51459 29.166 6.25 32.4306 6.25 36.4577C6.25 40.4848 9.51459 43.7493 13.5417 43.7493Z" stroke="#306CFE" stroke-width="2" stroke-linecap="round" stroke-linejoin="round"/>
<path d="M29.1663 20.8333C29.5924 20.1537 29.8769 19.3951 30.0027 18.603C30.1285 17.8108 30.0931 17.0014 29.8986 16.2232C29.704 15.445 29.3544 14.7142 28.8706 14.0744C28.3868 13.4346 27.7788 12.8991 27.083 12.5C24.8131 10.612 22.721 8.51993 20.833 6.25V36.4583" stroke="#306CFE" stroke-width="2" stroke-linecap="round" stroke-linejoin="round"/>
</svg>
