<svg width="50" height="50" viewBox="0 0 50 50" fill="none" xmlns="http://www.w3.org/2000/svg">
<path d="M14.5833 24.9993V39.5827L10.4167 43.7494L6.25 39.5827V24.9993C6.25 24.4468 6.46949 23.9169 6.86019 23.5262C7.25089 23.1355 7.7808 22.916 8.33333 22.916H12.5C13.0525 22.916 13.5824 23.1355 13.9731 23.5262C14.3638 23.9169 14.5833 24.4468 14.5833 24.9993Z" stroke="#344054" stroke-width="2" stroke-linecap="round" stroke-linejoin="round"/>
<path d="M43.7497 33.3327H39.583M43.7497 16.666H39.583H43.7497ZM43.7497 24.9993H39.583H43.7497Z" stroke="#306CFE" stroke-width="2" stroke-linecap="round" stroke-linejoin="round"/>
<path d="M22.9163 43.75H39.583C40.1355 43.75 40.6654 43.5305 41.0562 43.1398C41.4469 42.7491 41.6663 42.2192 41.6663 41.6667V8.33333C41.6663 7.7808 41.4469 7.25089 41.0562 6.86019C40.6654 6.46949 40.1355 6.25 39.583 6.25H16.6663C16.1138 6.25 15.5839 6.46949 15.1932 6.86019C14.8025 7.25089 14.583 7.7808 14.583 8.33333V14.5833" stroke="#306CFE" stroke-width="2" stroke-linecap="round" stroke-linejoin="round"/>
</svg>
