<svg width="50" height="50" viewBox="0 0 50 50" fill="none" xmlns="http://www.w3.org/2000/svg">
<path d="M25.0003 8.33333V6.25V8.33333ZM20.8337 33.3333V43.75V33.3333ZM29.167 33.3333V43.75V33.3333ZM16.667 43.75H33.3337H16.667ZM29.167 20.8333C29.167 20.0092 28.9226 19.2037 28.4648 18.5185C28.0069 17.8333 27.3562 17.2992 26.5948 16.9838C25.8335 16.6685 24.9957 16.586 24.1874 16.7467C23.3792 16.9075 22.6368 17.3043 22.054 17.8871C21.4713 18.4698 21.0745 19.2122 20.9137 20.0205C20.7529 20.8287 20.8355 21.6665 21.1508 22.4278C21.4662 23.1892 22.0002 23.8399 22.6854 24.2978C23.3707 24.7556 24.1762 25 25.0003 25C26.1054 25 27.1652 24.561 27.9466 23.7796C28.728 22.9982 29.167 21.9384 29.167 20.8333Z" stroke="#306CFE" stroke-width="2" stroke-linecap="round" stroke-linejoin="round"/>
<path d="M25 33.334C31.9036 33.334 37.5 27.7375 37.5 20.834C37.5 13.9304 31.9036 8.33398 25 8.33398C18.0964 8.33398 12.5 13.9304 12.5 20.834C12.5 27.7375 18.0964 33.334 25 33.334Z" stroke="#344054" stroke-width="2" stroke-linecap="round" stroke-linejoin="round"/>
</svg>
