<svg width="50" height="50" viewBox="0 0 50 50" fill="none" xmlns="http://www.w3.org/2000/svg">
<path d="M35.4163 43.75L31.7913 31.25L35.4163 43.75ZM14.583 43.75L18.208 31.25L14.583 43.75ZM24.9997 8.33333V6.25V8.33333ZM29.1663 20.8333C29.1663 20.0092 28.922 19.2037 28.4641 18.5185C28.0063 17.8333 27.3555 17.2992 26.5942 16.9838C25.8328 16.6685 24.9951 16.586 24.1868 16.7467C23.3785 16.9075 22.6361 17.3043 22.0534 17.8871C21.4707 18.4698 21.0738 19.2122 20.9131 20.0205C20.7523 20.8287 20.8348 21.6665 21.1502 22.4278C21.4655 23.1892 21.9996 23.8399 22.6848 24.2978C23.37 24.7556 24.1756 25 24.9997 25C26.1047 25 27.1646 24.561 27.946 23.7796C28.7274 22.9982 29.1663 21.9384 29.1663 20.8333Z" stroke="#306CFE" stroke-width="2" stroke-linecap="round" stroke-linejoin="round"/>
<path d="M25 33.334C31.9036 33.334 37.5 27.7375 37.5 20.834C37.5 13.9304 31.9036 8.33398 25 8.33398C18.0964 8.33398 12.5 13.9304 12.5 20.834C12.5 27.7375 18.0964 33.334 25 33.334Z" stroke="#344054" stroke-width="2" stroke-linecap="round" stroke-linejoin="round"/>
</svg>
