<svg width="50" height="50" viewBox="0 0 50 50" fill="none" xmlns="http://www.w3.org/2000/svg">
<path d="M10.0833 35.416H8.33333C7.7808 35.416 7.25089 35.1965 6.86019 34.8058C6.46949 34.4151 6.25 33.8852 6.25 33.3327V12.4993C6.25 11.9468 6.46949 11.4169 6.86019 11.0262C7.25089 10.6355 7.7808 10.416 8.33333 10.416H34.4167C34.7296 10.4175 35.0382 10.4894 35.3195 10.6264C35.6008 10.7635 35.8477 10.9622 36.0417 11.2077L43.2917 20.2702C43.5858 20.6367 43.7473 21.0919 43.75 21.5618V33.3327C43.75 33.8852 43.5305 34.4151 43.1398 34.8058C42.7491 35.1965 42.2192 35.416 41.6667 35.416H39.9375" stroke="#306CFE" stroke-width="2" stroke-linecap="round" stroke-linejoin="round"/>
<path d="M31.0208 35.416H19" stroke="#306CFE" stroke-width="2" stroke-linecap="round" stroke-linejoin="round"/>
<path d="M25.0003 18.75V27.0833M18.7503 35.4167C18.7503 36.2408 18.506 37.0463 18.0481 37.7315C17.5903 38.4168 16.9395 38.9508 16.1782 39.2662C15.4168 39.5815 14.579 39.664 13.7708 39.5033C12.9625 39.3425 12.2201 38.9457 11.6374 38.3629C11.0547 37.7802 10.6578 37.0378 10.4971 36.2295C10.3363 35.4213 10.4188 34.5835 10.7342 33.8222C11.0495 33.0608 11.5836 32.4101 12.2688 31.9522C12.954 31.4944 13.7596 31.25 14.5837 31.25C15.6887 31.25 16.7485 31.689 17.5299 32.4704C18.3113 33.2518 18.7503 34.3116 18.7503 35.4167ZM39.5837 35.4167C39.5837 36.2408 39.3393 37.0463 38.8814 37.7315C38.4236 38.4168 37.7729 38.9508 37.0115 39.2662C36.2502 39.5815 35.4124 39.664 34.6041 39.5033C33.7959 39.3425 33.0534 38.9457 32.4707 38.3629C31.888 37.7802 31.4912 37.0378 31.3304 36.2295C31.1696 35.4213 31.2521 34.5835 31.5675 33.8222C31.8829 33.0608 32.4169 32.4101 33.1021 31.9522C33.7873 31.4944 34.5929 31.25 35.417 31.25C36.5221 31.25 37.5819 31.689 38.3633 32.4704C39.1447 33.2518 39.5837 34.3116 39.5837 35.4167ZM20.8337 22.9167H29.167H20.8337Z" stroke="#344054" stroke-width="2" stroke-linecap="round" stroke-linejoin="round"/>
</svg>
