<svg width="50" height="50" viewBox="0 0 50 50" fill="none" xmlns="http://www.w3.org/2000/svg">
<path d="M14.583 22.9173H22.9163M22.9163 43.7506V31.2507H14.583V43.7506H22.9163ZM14.583 14.584H22.9163H14.583Z" stroke="#344054" stroke-width="2" stroke-linecap="round" stroke-linejoin="round"/>
<path d="M31.25 43.75H6.25V8.33333C6.25 7.7808 6.46949 7.25089 6.86019 6.86019C7.25089 6.46949 7.7808 6.25 8.33333 6.25H29.1667C29.7192 6.25 30.2491 6.46949 30.6398 6.86019C31.0305 7.25089 31.25 7.7808 31.25 8.33333V43.75ZM31.25 43.75H43.75V18.1667C43.7737 17.7124 43.6481 17.2628 43.3923 16.8866C43.1365 16.5104 42.7645 16.2283 42.3333 16.0833L31.25 12.5V43.75Z" stroke="#306CFE" stroke-width="2" stroke-linecap="round" stroke-linejoin="round"/>
</svg>
