<svg width="50" height="50" viewBox="0 0 50 50" fill="none" xmlns="http://www.w3.org/2000/svg">
<path d="M25 14.5833C25.0173 12.9693 25.4014 11.3804 26.1233 9.93665C26.8452 8.49294 27.8858 7.23228 29.1667 6.25" stroke="#344054" stroke-width="2" stroke-linecap="round" stroke-linejoin="round"/>
<path d="M41.5 25.7925C40.4584 35.2717 36.0834 43.7509 31.6459 43.7509C28.75 43.7509 28.0834 41.6675 25 41.6675C21.9167 41.6675 21.2292 43.7509 18.3542 43.7509C13.9167 43.7509 9.5417 35.2717 8.50004 25.7925C7.77087 19.0634 9.45837 14.8759 13.5417 13.1675C18.75 10.98 21.6875 14.5842 25 14.5842C28.3125 14.5842 31.25 10.98 36.4375 13.1675C40.5209 14.8759 42.25 19.0634 41.5 25.7925Z" stroke="#306CFE" stroke-width="2" stroke-linecap="round" stroke-linejoin="round"/>
</svg>
