<svg width="50" height="50" viewBox="0 0 50 50" fill="none" xmlns="http://www.w3.org/2000/svg">
<path d="M12.5 18.75V14.5833C12.5 12.3732 13.378 10.2536 14.9408 8.69078C16.5036 7.12797 18.6232 6.25 20.8333 6.25H29.1667C31.3768 6.25 33.4964 7.12797 35.0592 8.69078C36.622 10.2536 37.5 12.3732 37.5 14.5833V18.75" stroke="#344054" stroke-width="2" stroke-linecap="round" stroke-linejoin="round"/>
<path d="M35.4163 43.7507V39.584M14.583 43.7507V39.584V43.7507Z" stroke="#344054" stroke-width="2" stroke-linecap="round" stroke-linejoin="round"/>
<path d="M37.1666 18.7496C35.5295 18.9017 34.0102 19.6667 32.913 20.8913C31.8159 22.1159 31.2219 23.7098 31.2499 25.3538V31.2496H18.7499V25.3538C18.778 23.7098 18.184 22.1159 17.0869 20.8913C15.9897 19.6667 14.4704 18.9017 12.8333 18.7496C11.3371 18.6765 9.86439 19.1433 8.6834 20.0648C7.50242 20.9864 6.6917 22.3014 6.3989 23.7705C6.10609 25.2396 6.35066 26.765 7.08809 28.0689C7.82551 29.3728 9.00672 30.3685 10.4166 30.8746V37.4996C10.4166 38.0522 10.6361 38.5821 11.0268 38.9728C11.4175 39.3635 11.9474 39.583 12.4999 39.583H37.4999C38.0525 39.583 38.5824 39.3635 38.9731 38.9728C39.3638 38.5821 39.5833 38.0522 39.5833 37.4996V30.8746C40.9932 30.3685 42.1744 29.3728 42.9118 28.0689C43.6492 26.765 43.8938 25.2396 43.601 23.7705C43.3082 22.3014 42.4975 20.9864 41.3165 20.0648C40.1355 19.1433 38.6628 18.6765 37.1666 18.7496Z" stroke="#306CFE" stroke-width="2" stroke-linecap="round" stroke-linejoin="round"/>
</svg>
