<svg width="50" height="50" viewBox="0 0 50 50" fill="none" xmlns="http://www.w3.org/2000/svg">
<path d="M6.25 43.75H43.75" stroke="#344054" stroke-width="2" stroke-linecap="round" stroke-linejoin="round"/>
<path d="M41.1456 28.7708L40.6456 30.0417C40.5559 30.277 40.4201 30.4921 40.2463 30.6744C40.0725 30.8567 39.8641 31.0026 39.6333 31.1034C39.4025 31.2043 39.1539 31.2582 38.902 31.2619C38.6502 31.2656 38.4001 31.219 38.1664 31.125L27.7498 27.25C27.5046 27.1376 27.2382 27.0795 26.9685 27.0795C26.6989 27.0795 26.4324 27.1376 26.1873 27.25L19.7081 30.2917C19.3064 30.4838 18.8537 30.5422 18.4164 30.4583L11.4998 29L17.9998 23.6042L9.87477 20.5625C9.40774 20.3751 9.00948 20.0488 8.73378 19.6278C8.45808 19.2068 8.31822 18.7114 8.33311 18.2083L8.85394 6.25L13.3331 7.33333C13.7847 7.44503 14.1926 7.68917 14.5045 8.03441C14.8163 8.37965 15.0178 8.81022 15.0831 9.27083L15.6873 12.7917L34.9789 17.4583C36.1734 17.7209 37.2982 18.2352 38.2783 18.9667C39.2584 19.6983 40.0712 20.6304 40.6626 21.7009C41.2541 22.7714 41.6105 23.9557 41.7082 25.1748C41.8058 26.3939 41.6424 27.6198 41.2289 28.7708H41.1456Z" stroke="#306CFE" stroke-width="2" stroke-linecap="round" stroke-linejoin="round"/>
</svg>
