<svg width="50" height="50" viewBox="0 0 50 50" fill="none" xmlns="http://www.w3.org/2000/svg">
<path d="M24.8955 25H25.1038" stroke="#344054" stroke-width="3" stroke-linecap="round" stroke-linejoin="round"/>
<path d="M33.3329 25C33.3329 35.4167 29.6037 43.75 24.9995 43.75C20.3954 43.75 16.6662 35.4167 16.6662 25C16.6662 14.5833 20.3954 6.25 24.9995 6.25C29.6037 6.25 33.3329 14.5833 33.3329 25ZM8.85371 34.8958C11.1454 39.0625 20.2287 38.1042 29.1454 32.625C38.062 27.1458 43.4162 19.3125 41.1454 15.1042C38.8745 10.8958 29.7704 11.8958 20.8329 17.375C11.8954 22.8542 6.58287 30.6875 8.85371 34.8958ZM41.1454 34.8958C43.4162 30.7292 38.062 22.8542 29.1454 17.375C20.2287 11.8958 11.1454 10.875 8.85371 15.1042C6.56204 19.3333 11.937 27.0833 20.8329 32.625C29.7287 38.1667 38.8537 39.125 41.1454 34.8958Z" stroke="#306CFE" stroke-width="2" stroke-linecap="round" stroke-linejoin="round"/>
</svg>
