<svg width="50" height="50" viewBox="0 0 50 50" fill="none" xmlns="http://www.w3.org/2000/svg">
<path d="M37.5 20.8333V31.25C37.5 34.5652 36.183 37.7446 33.8388 40.0888C31.4946 42.433 28.3152 43.75 25 43.75C21.6848 43.75 18.5054 42.433 16.1612 40.0888C13.817 37.7446 12.5 34.5652 12.5 31.25V14.5833C12.5 12.3732 13.378 10.2536 14.9408 8.69078C16.5036 7.12797 18.6232 6.25 20.8333 6.25V6.25C23.0435 6.25 25.1631 7.12797 26.7259 8.69078C28.2887 10.2536 29.1667 12.3732 29.1667 14.5833V31.25C29.1667 32.3551 28.7277 33.4149 27.9463 34.1963C27.1649 34.9777 26.1051 35.4167 25 35.4167C23.8949 35.4167 22.8351 34.9777 22.0537 34.1963C21.2723 33.4149 20.8333 32.3551 20.8333 31.25V14.5833" stroke="#306CFE" stroke-width="2" stroke-linecap="round" stroke-linejoin="round"/>
</svg>
