<svg width="50" height="50" viewBox="0 0 50 50" fill="none" xmlns="http://www.w3.org/2000/svg">
<path d="M24.9997 35.4173C23.5386 35.326 22.1724 34.6624 21.1974 33.5704C20.2224 32.4784 19.7172 31.046 19.7913 29.584C19.7913 26.3757 22.1247 20.834 24.9997 20.834C27.8747 20.834 30.208 26.3757 30.208 29.584C30.2821 31.046 29.7769 32.4784 28.8019 33.5704C27.8269 34.6624 26.4607 35.326 24.9997 35.4173Z" stroke="#344054" stroke-width="2" stroke-linecap="round" stroke-linejoin="round"/>
<path d="M35.167 15.625C32.7295 10.5208 29.9378 6.25 25.0003 6.25C20.0628 6.25 17.2712 10.5208 14.8337 15.625C12.3962 20.7292 10.417 25 10.417 31.25C10.417 38.1458 16.9587 43.75 25.0003 43.75C33.042 43.75 39.5837 38.1458 39.5837 31.25C39.5837 25 37.5003 20.5833 35.167 15.625Z" stroke="#306CFE" stroke-width="2" stroke-linecap="round" stroke-linejoin="round"/>
</svg>
