<svg width="50" height="50" viewBox="0 0 50 50" fill="none" xmlns="http://www.w3.org/2000/svg">
<path d="M27.0836 6.25C25.7175 8.04584 24.9849 10.2437 25.0002 12.5" stroke="#344054" stroke-width="2" stroke-linecap="round" stroke-linejoin="round"/>
<path d="M34.3955 28.126C33.0437 25.5164 32.1355 22.7002 31.708 19.7926C31.6999 18.5724 31.4054 17.3711 30.8482 16.2855C30.2909 15.1999 29.4865 14.2604 28.4996 13.5426C27.4591 12.8623 26.2428 12.5 24.9996 12.5C23.7564 12.5 22.5402 12.8623 21.4996 13.5426C20.5128 14.2604 19.7083 15.1999 19.1511 16.2855C18.5938 17.3711 18.2993 18.5724 18.2913 19.7926C17.8637 22.7002 16.9555 25.5164 15.6038 28.126C14.8344 30.1597 14.4871 32.3287 14.583 34.501C14.7493 37.1046 15.9371 39.5371 17.8879 41.2694C19.8387 43.0017 22.3946 43.8936 24.9996 43.751C27.6046 43.8936 30.1606 43.0017 32.1114 41.2694C34.0621 39.5371 35.2499 37.1046 35.4163 34.501C35.5122 32.3287 35.1648 30.1597 34.3955 28.126Z" stroke="#306CFE" stroke-width="2" stroke-linecap="round" stroke-linejoin="round"/>
</svg>
