<svg width="50" height="50" viewBox="0 0 50 50" fill="none" xmlns="http://www.w3.org/2000/svg">
<path d="M20.833 25C25.5488 25.731 29.9187 27.916 33.333 31.25C36.1148 27.6848 37.586 23.2713 37.4997 18.75C37.586 14.2287 36.1148 9.81525 33.333 6.25C29.9187 9.584 25.5488 11.769 20.833 12.5V25Z" stroke="#344054" stroke-width="2" stroke-linecap="round" stroke-linejoin="round"/>
<path d="M18.7497 43.75H14.583C14.0305 43.75 13.5006 43.5305 13.1099 43.1398C12.7192 42.7491 12.4997 42.2192 12.4997 41.6667L12.4997 10.4167C12.4997 9.3116 12.9387 8.25179 13.7201 7.47039C14.5015 6.68899 15.5613 6.25 16.6663 6.25C17.7714 6.25 18.8312 6.68899 19.6126 7.47039C20.394 8.25179 20.833 9.3116 20.833 10.4167L20.833 41.6667C20.833 42.2192 20.6135 42.7491 20.2228 43.1398C19.8321 43.5305 19.3022 43.75 18.7497 43.75Z" stroke="#306CFE" stroke-width="2" stroke-linecap="round" stroke-linejoin="round"/>
</svg>
