<svg width="50" height="50" viewBox="0 0 50 50" fill="none" xmlns="http://www.w3.org/2000/svg">
<path d="M18.75 20.8333H31.25H18.75ZM31.25 33.3333C31.25 32.7808 31.0305 32.2509 30.6398 31.8602C30.2491 31.4695 29.7192 31.25 29.1667 31.25H20.8333C20.2808 31.25 19.7509 31.4695 19.3602 31.8602C18.9695 32.2509 18.75 32.7808 18.75 33.3333V43.75H31.25V33.3333ZM29.1667 8.33333C29.1667 7.7808 28.9472 7.25089 28.5565 6.86019C28.1658 6.46949 27.6359 6.25 27.0833 6.25H22.9167C22.3641 6.25 21.8342 6.46949 21.4435 6.86019C21.0528 7.25089 20.8333 7.7808 20.8333 8.33333V10.4167H29.1667V8.33333ZM39.5833 39.5833H41.6667C42.2192 39.5833 42.7491 39.3638 43.1398 38.9731C43.5305 38.5824 43.75 38.0525 43.75 37.5V31.25H39.5833V39.5833ZM10.4167 31.25H6.25V37.5C6.25 38.0525 6.46949 38.5824 6.86019 38.9731C7.25089 39.3638 7.7808 39.5833 8.33333 39.5833H10.4167V31.25Z" stroke="#344054" stroke-width="2" stroke-linecap="round" stroke-linejoin="round"/>
<path d="M18.7503 10.416H31.2503C33.4605 10.416 35.5801 11.294 37.1429 12.8568C38.7057 14.4196 39.5837 16.5392 39.5837 18.7493V41.666C39.5837 42.2185 39.3642 42.7485 38.9735 43.1392C38.5828 43.5299 38.0529 43.7493 37.5003 43.7493H12.5003C11.9478 43.7493 11.4179 43.5299 11.0272 43.1392C10.6365 42.7485 10.417 42.2185 10.417 41.666V18.7493C10.417 16.5392 11.295 14.4196 12.8578 12.8568C14.4206 11.294 16.5402 10.416 18.7503 10.416V10.416Z" stroke="#306CFE" stroke-width="2" stroke-linecap="round" stroke-linejoin="round"/>
</svg>
