<svg width="50" height="50" viewBox="0 0 50 50" fill="none" xmlns="http://www.w3.org/2000/svg">
<path d="M18.75 14.584V18.7507C18.75 20.4083 19.4085 21.998 20.5806 23.1701C21.7527 24.3422 23.3424 25.0007 25 25.0007C26.6576 25.0007 28.2473 24.3422 29.4194 23.1701C30.5915 21.998 31.25 20.4083 31.25 18.7507V14.584" stroke="#344054" stroke-width="2" stroke-linecap="round" stroke-linejoin="round"/>
<path d="M41.4166 43.75H8.58328C8.2893 43.7518 7.99826 43.6914 7.72931 43.5726C7.46036 43.4539 7.21958 43.2796 7.0228 43.0612C6.82602 42.8428 6.6777 42.5852 6.58759 42.3053C6.49747 42.0255 6.46761 41.7297 6.49995 41.4375L10.2083 8.10421C10.2649 7.59229 10.5092 7.1195 10.8939 6.77709C11.2787 6.43468 11.7766 6.24691 12.2916 6.25004H37.7083C38.2233 6.24691 38.7212 6.43468 39.106 6.77709C39.4907 7.1195 39.735 7.59229 39.7916 8.10421L43.4999 41.4375C43.5323 41.7297 43.5024 42.0255 43.4123 42.3053C43.3222 42.5852 43.1739 42.8428 42.9771 43.0612C42.7803 43.2796 42.5395 43.4539 42.2706 43.5726C42.0016 43.6914 41.7106 43.7518 41.4166 43.75Z" stroke="#306CFE" stroke-width="2" stroke-linecap="round" stroke-linejoin="round"/>
</svg>
