<svg width="50" height="50" viewBox="0 0 50 50" fill="none" xmlns="http://www.w3.org/2000/svg">
<path d="M37.3328 43.7494H12.6662C12.378 43.7503 12.0927 43.6914 11.8285 43.5764C11.5642 43.4615 11.3266 43.2929 11.1308 43.0815C10.935 42.87 10.7852 42.6202 10.6909 42.3479C10.5966 42.0756 10.5598 41.7866 10.5829 41.4994L12.3537 18.5827C12.3957 18.0595 12.6336 17.5715 13.0198 17.2162C13.4061 16.8608 13.9122 16.6643 14.437 16.666H35.562C36.0868 16.6643 36.593 16.8608 36.9792 17.2162C37.3655 17.5715 37.6034 18.0595 37.6453 18.5827L39.4162 41.4994C39.4392 41.7866 39.4024 42.0756 39.3081 42.3479C39.2138 42.6202 39.064 42.87 38.8682 43.0815C38.6724 43.2929 38.4348 43.4615 38.1706 43.5764C37.9063 43.6914 37.621 43.7503 37.3328 43.7494V43.7494Z" stroke="#306CFE" stroke-width="2" stroke-linecap="round" stroke-linejoin="round"/>
<path d="M18.75 22.9167V12.5C18.75 10.8424 19.4085 9.25269 20.5806 8.08058C21.7527 6.90848 23.3424 6.25 25 6.25V6.25C26.6576 6.25 28.2473 6.90848 29.4194 8.08058C30.5915 9.25269 31.25 10.8424 31.25 12.5V22.9167" stroke="#344054" stroke-width="2" stroke-linecap="round" stroke-linejoin="round"/>
</svg>
