<svg width="50" height="50" viewBox="0 0 50 50" fill="none" xmlns="http://www.w3.org/2000/svg">
<path d="M8.33377 12.5V8.33333C8.33377 7.7808 8.55327 7.25089 8.94397 6.86019C9.33467 6.46949 9.86457 6.25 10.4171 6.25H14.5838C15.1363 6.25 15.6662 6.46949 16.0569 6.86019C16.4476 7.25089 16.6671 7.7808 16.6671 8.33333C16.6671 9.58333 16.6671 11.2083 16.6671 12.5C16.4721 15.7883 17.1383 19.0705 18.5997 22.0226C20.0612 24.9747 22.2674 27.4946 25.0004 29.3333C29.1671 32.0625 35.4171 32.6042 39.5838 32.6458C40.6888 32.6458 41.7486 33.0848 42.53 33.8662C43.3114 34.6476 43.7504 35.7074 43.7504 36.8125C43.7484 37.6059 43.5199 38.3822 43.0918 39.0502C42.6637 39.7182 42.0538 40.2501 41.3338 40.5833C35.7296 43.0833 21.6254 47.75 11.4379 37.125C2.08377 27.25 8.33377 12.5 8.33377 12.5Z" stroke="#306CFE" stroke-width="2" stroke-linecap="round" stroke-linejoin="round"/>
</svg>
