<svg width="50" height="50" viewBox="0 0 50 50" fill="none" xmlns="http://www.w3.org/2000/svg">
<path d="M8.33301 43.75H16.6663M12.4997 10.4167V6.25V10.4167ZM12.4997 35.4167V43.75V35.4167ZM37.4997 10.4167V6.25V10.4167ZM12.4997 27.0833V18.75V27.0833ZM37.4997 27.0833V18.75V27.0833ZM37.4997 35.4167V43.75V35.4167ZM33.333 43.75H41.6663H33.333Z" stroke="#344054" stroke-width="2" stroke-linecap="round" stroke-linejoin="round"/>
<path d="M41.6667 18.7493H8.33333C7.7808 18.7493 7.25089 18.5299 6.86019 18.1392C6.46949 17.7485 6.25 17.2185 6.25 16.666V12.4993C6.25 11.9468 6.46949 11.4169 6.86019 11.0262C7.25089 10.6355 7.7808 10.416 8.33333 10.416H41.6667C42.2192 10.416 42.7491 10.6355 43.1398 11.0262C43.5305 11.4169 43.75 11.9468 43.75 12.4993V16.666C43.75 17.2185 43.5305 17.7485 43.1398 18.1392C42.7491 18.5299 42.2192 18.7493 41.6667 18.7493ZM41.6667 35.416H8.33333C7.7808 35.416 7.25089 35.1965 6.86019 34.8058C6.46949 34.4151 6.25 33.8852 6.25 33.3327V29.166C6.25 28.6135 6.46949 28.0836 6.86019 27.6929C7.25089 27.3022 7.7808 27.0827 8.33333 27.0827H41.6667C42.2192 27.0827 42.7491 27.3022 43.1398 27.6929C43.5305 28.0836 43.75 28.6135 43.75 29.166V33.3327C43.75 33.8852 43.5305 34.4151 43.1398 34.8058C42.7491 35.1965 42.2192 35.416 41.6667 35.416Z" stroke="#306CFE" stroke-width="2" stroke-linecap="round" stroke-linejoin="round"/>
</svg>
