<svg width="50" height="50" viewBox="0 0 50 50" fill="none" xmlns="http://www.w3.org/2000/svg">
<path d="M10.417 16.666L12.5003 41.666M12.5003 24.9993H37.5003H12.5003ZM37.5003 33.3327H12.5003H37.5003ZM39.5837 16.666L37.5003 41.666L39.5837 16.666ZM29.8545 16.666L29.167 41.666L29.8545 16.666ZM20.1462 16.666L20.8337 41.666L20.1462 16.666Z" stroke="#306CFE" stroke-width="2" stroke-linecap="round" stroke-linejoin="round"/>
<path d="M39.5833 8.33398H10.4167C8.11548 8.33398 6.25 10.1995 6.25 12.5007C6.25 14.8018 8.11548 16.6673 10.4167 16.6673H39.5833C41.8845 16.6673 43.75 14.8018 43.75 12.5007C43.75 10.1995 41.8845 8.33398 39.5833 8.33398Z" stroke="#344054" stroke-width="2" stroke-linecap="round" stroke-linejoin="round"/>
</svg>
