<svg width="50" height="50" viewBox="0 0 50 50" fill="none" xmlns="http://www.w3.org/2000/svg">
<path d="M39.5833 20.834V12.5007C39.5833 11.3956 39.1443 10.3358 38.3629 9.55437C37.5815 8.77297 36.5217 8.33398 35.4167 8.33398C34.3116 8.33398 33.2518 8.77297 32.4704 9.55437C31.689 10.3358 31.25 11.3956 31.25 12.5007" stroke="#344054" stroke-width="2" stroke-linecap="round" stroke-linejoin="round"/>
<path d="M36.4583 37.5L37.5 41.6667M13.5417 37.5L12.5 41.6667L13.5417 37.5Z" stroke="#344054" stroke-width="2" stroke-linecap="round" stroke-linejoin="round"/>
<path d="M43.75 20.834H6.25H43.75ZM16.6667 37.5007H33.3333C35.5435 37.5007 37.6631 36.6227 39.2259 35.0599C40.7887 33.4971 41.6667 31.3775 41.6667 29.1673V20.834H8.33333V29.1673C8.33333 31.3775 9.21131 33.4971 10.7741 35.0599C12.3369 36.6227 14.4565 37.5007 16.6667 37.5007Z" stroke="#306CFE" stroke-width="2" stroke-linecap="round" stroke-linejoin="round"/>
</svg>
