<svg width="50" height="50" viewBox="0 0 50 50" fill="none" xmlns="http://www.w3.org/2000/svg">
<path d="M33.333 12.5V10.4167C33.333 9.3116 32.894 8.25179 32.1126 7.47039C31.3312 6.68899 30.2714 6.25 29.1663 6.25H18.7497C17.6446 6.25 16.5848 6.68899 15.8034 7.47039C15.022 8.25179 14.583 9.3116 14.583 10.4167V43.75" stroke="#306CFE" stroke-width="2" stroke-linecap="round" stroke-linejoin="round"/>
<path d="M39.583 20.8333H27.083V18.75C27.083 17.0924 27.7415 15.5027 28.9136 14.3306C30.0857 13.1585 31.6754 12.5 33.333 12.5V12.5C34.9906 12.5 36.5803 13.1585 37.7524 14.3306C38.9245 15.5027 39.583 17.0924 39.583 18.75V20.8333Z" stroke="#306CFE" stroke-width="2" stroke-linecap="round" stroke-linejoin="round"/>
<path d="M29.167 33.3327V29.166M10.417 43.7493H18.7503H10.417ZM37.5003 33.3327V29.166V33.3327Z" stroke="#344054" stroke-width="2" stroke-linecap="round" stroke-linejoin="round"/>
</svg>
