<svg width="50" height="50" viewBox="0 0 50 50" fill="none" xmlns="http://www.w3.org/2000/svg">
<path d="M18.7503 14.5827C18.7503 13.4776 18.3113 12.4178 17.5299 11.6364C16.7485 10.855 15.6887 10.416 14.5837 10.416V10.416C13.4786 10.416 12.4188 10.855 11.6374 11.6364C10.856 12.4178 10.417 13.4776 10.417 14.5827V22.916" stroke="#344054" stroke-width="2" stroke-linecap="round" stroke-linejoin="round"/>
<path d="M6.25 22.916H43.75H6.25ZM41.6667 31.2493V22.916H8.33333V31.2493C8.33333 33.4595 9.21131 35.5791 10.7741 37.1419C12.3369 38.7047 14.4565 39.5827 16.6667 39.5827H33.3333C35.5435 39.5827 37.6631 38.7047 39.2259 37.1419C40.7887 35.5791 41.6667 33.4595 41.6667 31.2493Z" stroke="#306CFE" stroke-width="2" stroke-linecap="round" stroke-linejoin="round"/>
</svg>
