<svg width="50" height="50" viewBox="0 0 50 50" fill="none" xmlns="http://www.w3.org/2000/svg">
<path d="M27.0837 18.75H22.917V35.4167H27.0837V18.75Z" stroke="#344054" stroke-width="2" stroke-linecap="round" stroke-linejoin="round"/>
<path d="M35.4163 41.6667V12.5C35.4163 11.9475 35.1969 11.4176 34.8062 11.0269C34.4154 10.6362 33.8855 10.4167 33.333 10.4167H16.6663C16.1138 10.4167 15.5839 10.6362 15.1932 11.0269C14.8025 11.4176 14.583 11.9475 14.583 12.5V41.6667C14.583 42.2192 14.8025 42.7491 15.1932 43.1398C15.5839 43.5305 16.1138 43.75 16.6663 43.75H33.333C33.8855 43.75 34.4154 43.5305 34.8062 43.1398C35.1969 42.7491 35.4163 42.2192 35.4163 41.6667ZM29.1663 10.4167H20.833V6.25H29.1663V10.4167Z" stroke="#306CFE" stroke-width="2" stroke-linecap="round" stroke-linejoin="round"/>
</svg>
