<svg width="50" height="50" viewBox="0 0 50 50" fill="none" xmlns="http://www.w3.org/2000/svg">
<path d="M39.5837 35.416V39.5827M10.417 35.416V39.5827V35.416Z" stroke="#344054" stroke-width="2" stroke-linecap="round" stroke-linejoin="round"/>
<path d="M10.417 14.5827V10.416M31.2503 14.5827C31.2503 13.4776 30.8113 12.4178 30.0299 11.6364C29.2485 10.855 28.1887 10.416 27.0837 10.416H22.917C21.8119 10.416 20.7521 10.855 19.9707 11.6364C19.1893 12.4178 18.7503 13.4776 18.7503 14.5827H10.417V27.0827H39.5837V14.5827H31.2503ZM39.5837 14.5827V10.416V14.5827Z" stroke="#344054" stroke-width="2" stroke-linecap="round" stroke-linejoin="round"/>
<path d="M10.4167 27.084H39.5833C40.6884 27.084 41.7482 27.523 42.5296 28.3044C43.311 29.0858 43.75 30.1456 43.75 31.2507V35.4173H6.25V31.2507C6.25 30.1456 6.68899 29.0858 7.47039 28.3044C8.25179 27.523 9.3116 27.084 10.4167 27.084V27.084Z" stroke="#306CFE" stroke-width="2" stroke-linecap="round" stroke-linejoin="round"/>
</svg>
