<svg width="50" height="50" viewBox="0 0 50 50" fill="none" xmlns="http://www.w3.org/2000/svg">
<path d="M35.417 16.666H31.7712C26.8635 16.6673 22.097 18.308 18.2282 21.3275C14.3595 24.347 11.6102 28.5723 10.417 33.3327V33.3327" stroke="#306CFE" stroke-width="2" stroke-linecap="round" stroke-linejoin="round"/>
<path d="M6.25 37.5C6.25 38.3241 6.49437 39.1297 6.95221 39.8149C7.41005 40.5001 8.06079 41.0341 8.82215 41.3495C9.58351 41.6649 10.4213 41.7474 11.2295 41.5866C12.0378 41.4258 12.7802 41.029 13.3629 40.4463C13.9457 39.8636 14.3425 39.1211 14.5033 38.3129C14.664 37.5046 14.5815 36.6668 14.2662 35.9055C13.9508 35.1441 13.4167 34.4934 12.7315 34.0355C12.0463 33.5777 11.2408 33.3333 10.4167 33.3333C9.3116 33.3333 8.25179 33.7723 7.47039 34.5537C6.68899 35.3351 6.25 36.3949 6.25 37.5V37.5ZM27.0833 33.3333C27.0833 34.9815 27.5721 36.5927 28.4878 37.9631C29.4034 39.3335 30.7049 40.4016 32.2276 41.0323C33.7504 41.6631 35.4259 41.8281 37.0424 41.5065C38.6589 41.185 40.1438 40.3913 41.3092 39.2259C42.4747 38.0605 43.2683 36.5756 43.5899 34.9591C43.9114 33.3426 43.7464 31.667 43.1157 30.1443C42.4849 28.6216 41.4168 27.3201 40.0464 26.4044C38.676 25.4887 37.0648 25 35.4167 25C33.2065 25 31.0869 25.878 29.5241 27.4408C27.9613 29.0036 27.0833 31.1232 27.0833 33.3333V33.3333Z" stroke="#344054" stroke-width="2" stroke-linecap="round" stroke-linejoin="round"/>
<path d="M18.7497 20.834V16.6673C18.7497 16.1148 18.5302 15.5849 18.1395 15.1942C17.7488 14.8035 17.2189 14.584 16.6663 14.584H14.583" stroke="#306CFE" stroke-width="2" stroke-linecap="round" stroke-linejoin="round"/>
<path d="M35.417 33.334V10.4173C35.417 9.86478 35.1975 9.33488 34.8068 8.94418C34.4161 8.55348 33.8862 8.33398 33.3337 8.33398H29.167" stroke="#306CFE" stroke-width="2" stroke-linecap="round" stroke-linejoin="round"/>
</svg>
