<svg width="50" height="50" viewBox="0 0 50 50" fill="none" xmlns="http://www.w3.org/2000/svg">
<path d="M43.75 33.334C43.75 34.5701 43.3834 35.7785 42.6967 36.8063C42.0099 37.8341 41.0338 38.6352 39.8918 39.1082C38.7497 39.5813 37.4931 39.7051 36.2807 39.4639C35.0683 39.2227 33.9547 38.6275 33.0806 37.7534C32.2065 36.8793 31.6113 35.7657 31.3701 34.5533C31.1289 33.3409 31.2527 32.0843 31.7258 30.9422C32.1988 29.8002 32.9999 28.8241 34.0277 28.1373C35.0555 27.4505 36.2639 27.084 37.5 27.084C39.1576 27.084 40.7473 27.7425 41.9194 28.9146C43.0915 30.0867 43.75 31.6764 43.75 33.334ZM12.5 27.084C11.2639 27.084 10.0555 27.4505 9.02769 28.1373C7.99988 28.8241 7.1988 29.8002 6.72576 30.9422C6.25271 32.0843 6.12894 33.3409 6.37009 34.5533C6.61125 35.7657 7.20651 36.8793 8.08059 37.7534C8.95466 38.6275 10.0683 39.2227 11.2807 39.4639C12.4931 39.7051 13.7497 39.5813 14.8918 39.1082C16.0338 38.6352 17.0099 37.8341 17.6967 36.8063C18.3834 35.7785 18.75 34.5701 18.75 33.334C18.75 31.6764 18.0915 30.0867 16.9194 28.9146C15.7473 27.7425 14.1576 27.084 12.5 27.084Z" stroke="#344054" stroke-width="2" stroke-linecap="round" stroke-linejoin="round"/>
<path d="M29.167 10.4163H31.5837C32.077 10.4082 32.5571 10.5755 32.9386 10.8884C33.3201 11.2012 33.5782 11.6393 33.667 12.1246L37.5003 33.333" stroke="#306CFE" stroke-width="2" stroke-linecap="round" stroke-linejoin="round"/>
<path d="M12.5 33.3327H18.75L34.4792 16.666" stroke="#306CFE" stroke-width="2" stroke-linecap="round" stroke-linejoin="round"/>
<path d="M16.667 16.6664H19.9587C20.446 16.6566 20.9214 16.818 21.3021 17.1225C21.6828 17.4271 21.9446 17.8554 22.042 18.3331L23.8545 27.4373" stroke="#306CFE" stroke-width="2" stroke-linecap="round" stroke-linejoin="round"/>
</svg>
