<svg width="50" height="50" viewBox="0 0 50 50" fill="none" xmlns="http://www.w3.org/2000/svg">
<path d="M25 22.9173C23.7639 22.9173 22.5555 23.2839 21.5277 23.9706C20.4999 24.6574 19.6988 25.6335 19.2258 26.7755C18.7527 27.9176 18.6289 29.1743 18.8701 30.3866C19.1113 31.599 19.7065 32.7127 20.5806 33.5867C21.4547 34.4608 22.5683 35.0561 23.7807 35.2972C24.9931 35.5384 26.2497 35.4146 27.3918 34.9416C28.5338 34.4685 29.5099 33.6674 30.1967 32.6396C30.8834 31.6118 31.25 30.4035 31.25 29.1673C31.25 27.5097 30.5915 25.92 29.4194 24.7479C28.2473 23.5758 26.6576 22.9173 25 22.9173V22.9173ZM25 14.584C24.1759 14.584 23.3703 14.8284 22.6851 15.2862C21.9999 15.744 21.4659 16.3948 21.1505 17.1561C20.8351 17.9175 20.7526 18.7553 20.9134 19.5635C21.0742 20.3718 21.471 21.1142 22.0537 21.6969C22.6364 22.2796 23.3789 22.6765 24.1871 22.8373C24.9954 22.998 25.8332 22.9155 26.5945 22.6002C27.3559 22.2848 28.0066 21.7507 28.4645 21.0655C28.9223 20.3803 29.1667 19.5747 29.1667 18.7507C29.1667 17.6456 28.7277 16.5858 27.9463 15.8044C27.1649 15.023 26.1051 14.584 25 14.584V14.584Z" stroke="#344054" stroke-width="2" stroke-linecap="round" stroke-linejoin="round"/>
<path d="M25 43.75C35.3553 43.75 43.75 35.3553 43.75 25C43.75 14.6447 35.3553 6.25 25 6.25C14.6447 6.25 6.25 14.6447 6.25 25C6.25 35.3553 14.6447 43.75 25 43.75Z" stroke="#306CFE" stroke-width="2" stroke-linecap="round" stroke-linejoin="round"/>
</svg>
