<svg width="50" height="50" viewBox="0 0 50 50" fill="none" xmlns="http://www.w3.org/2000/svg">
<path d="M33.333 27.084H38.5413C39.3701 27.084 40.165 26.7547 40.751 26.1687C41.3371 25.5826 41.6663 24.7878 41.6663 23.959C41.6663 23.1302 41.3371 22.3353 40.751 21.7493C40.165 21.1632 39.3701 20.834 38.5413 20.834H36.458C35.6292 20.834 34.8344 20.5047 34.2483 19.9187C33.6622 19.3326 33.333 18.5378 33.333 17.709C33.333 16.8802 33.6622 16.0853 34.2483 15.4993C34.8344 14.9132 35.6292 14.584 36.458 14.584H41.6663" stroke="#344054" stroke-width="2" stroke-linecap="round" stroke-linejoin="round"/>
<path d="M25.0003 22.9167H16.667M37.5003 14.5833V12.5V14.5833ZM37.5003 29.1667V27.0833V29.1667ZM25.0003 31.25H16.667H25.0003Z" stroke="#344054" stroke-width="2" stroke-linecap="round" stroke-linejoin="round"/>
<path d="M29.1663 6.25H10.4163C9.86381 6.25 9.3339 6.46949 8.9432 6.86019C8.5525 7.25089 8.33301 7.7808 8.33301 8.33333V43.75L13.208 41.6667L18.0622 43.75L22.9163 41.6667L27.7705 43.75L32.6247 41.6667L37.4997 43.75V37.5" stroke="#306CFE" stroke-width="2" stroke-linecap="round" stroke-linejoin="round"/>
</svg>
