<svg width="50" height="50" viewBox="0 0 50 50" fill="none" xmlns="http://www.w3.org/2000/svg">
<path d="M24.9997 18.75V27.0833M24.9997 6.25C24.9997 6.25 20.833 11.125 20.833 14.5833C20.833 15.6884 21.272 16.7482 22.0534 17.5296C22.8348 18.311 23.8946 18.75 24.9997 18.75C26.1047 18.75 27.1646 18.311 27.946 17.5296C28.7274 16.7482 29.1663 15.6884 29.1663 14.5833C29.1663 11.125 24.9997 6.25 24.9997 6.25Z" stroke="#344054" stroke-width="2" stroke-linecap="round" stroke-linejoin="round"/>
<path d="M6.25 43.7507H43.75M41.6667 43.7507H8.33333V29.1673C8.33333 28.6148 8.55283 28.0849 8.94353 27.6942C9.33423 27.3035 9.86413 27.084 10.4167 27.084H39.5833C40.1359 27.084 40.6658 27.3035 41.0565 27.6942C41.4472 28.0849 41.6667 28.6148 41.6667 29.1673V43.7507Z" stroke="#306CFE" stroke-width="2" stroke-linecap="round" stroke-linejoin="round"/>
</svg>
