<svg width="50" height="50" viewBox="0 0 50 50" fill="none" xmlns="http://www.w3.org/2000/svg">
<path d="M25 35.4167V41.6667M37.5 43.75L36.1042 35.4167L35.75 33.3333L37.5 43.75ZM31.5833 8.33333L31.25 6.25L31.5833 8.33333ZM14.25 33.3333L13.8958 35.4167L12.5 43.75L14.25 33.3333ZM18.75 6.25L18.3958 8.33333L18.75 6.25Z" stroke="#344054" stroke-width="2" stroke-linecap="round" stroke-linejoin="round"/>
<path d="M41.6667 8.33398H8.33333C7.18274 8.33398 6.25 9.26672 6.25 10.4173V31.2507C6.25 32.4012 7.18274 33.334 8.33333 33.334H41.6667C42.8173 33.334 43.75 32.4012 43.75 31.2507V10.4173C43.75 9.26672 42.8173 8.33398 41.6667 8.33398Z" stroke="#306CFE" stroke-width="2" stroke-linecap="round" stroke-linejoin="round"/>
</svg>
