<svg width="50" height="50" viewBox="0 0 50 50" fill="none" xmlns="http://www.w3.org/2000/svg">
<path d="M41.6667 18.75H37.0833L32.9167 22.9167H27.0833V18.75H14.5833V35.4167H10.4167C9.3116 35.4167 8.25179 35.8557 7.47039 36.6371C6.68899 37.4185 6.25 38.4783 6.25 39.5833C6.25 40.6884 6.68899 41.7482 7.47039 42.5296C8.25179 43.311 9.3116 43.75 10.4167 43.75H41.6667C42.2192 43.75 42.7491 43.5305 43.1398 43.1398C43.5305 42.7491 43.75 42.2192 43.75 41.6667V20.8333C43.75 20.2808 43.5305 19.7509 43.1398 19.3602C42.7491 18.9695 42.2192 18.75 41.6667 18.75ZM14.5833 12.5V35.4167H10.4167C9.3116 35.4167 8.25179 35.8557 7.47039 36.6371C6.68899 37.4185 6.25 38.4783 6.25 39.5833V16.6667C6.25 15.5616 6.68899 14.5018 7.47039 13.7204C8.25179 12.939 9.3116 12.5 10.4167 12.5H14.5833Z" stroke="#306CFE" stroke-width="2" stroke-linecap="round" stroke-linejoin="round"/>
<path d="M43.1455 9.77002L40.2288 6.85335C39.8394 6.47163 39.3158 6.25781 38.7705 6.25781C38.2252 6.25781 37.7016 6.47163 37.3122 6.85335L27.083 17.0825V22.9158H32.9163L43.1455 12.6867C43.5272 12.2972 43.741 11.7737 43.741 11.2283C43.741 10.683 43.5272 10.1595 43.1455 9.77002V9.77002Z" stroke="#344054" stroke-width="2" stroke-linecap="round" stroke-linejoin="round"/>
</svg>
