<svg width="50" height="50" viewBox="0 0 50 50" fill="none" xmlns="http://www.w3.org/2000/svg">
<path d="M24.9997 43.75C34.2044 43.75 41.6663 40.9518 41.6663 37.5C41.6663 34.0482 34.2044 31.25 24.9997 31.25C15.7949 31.25 8.33301 34.0482 8.33301 37.5C8.33301 40.9518 15.7949 43.75 24.9997 43.75Z" stroke="#344054" stroke-width="2" stroke-linecap="round" stroke-linejoin="round"/>
<path d="M41.6663 36.9792L35.4163 10C34.8955 7.91667 30.458 6.25 24.9997 6.25C19.5413 6.25 15.1663 7.89583 14.583 10L8.333 37.0833C8.31999 37.2219 8.31999 37.3614 8.333 37.5C8.333 40.9583 15.7913 43.75 24.9997 43.75C34.208 43.75 41.6663 40.9583 41.6663 37.5C41.6867 37.327 41.6867 37.1522 41.6663 36.9792Z" stroke="#306CFE" stroke-width="2" stroke-linecap="round" stroke-linejoin="round"/>
<path d="M24.9997 14.5833C30.7526 14.5833 35.4163 12.7179 35.4163 10.4167C35.4163 8.11548 30.7526 6.25 24.9997 6.25C19.2467 6.25 14.583 8.11548 14.583 10.4167C14.583 12.7179 19.2467 14.5833 24.9997 14.5833Z" stroke="#344054" stroke-width="2" stroke-linecap="round" stroke-linejoin="round"/>
</svg>
