<svg width="50" height="50" viewBox="0 0 50 50" fill="none" xmlns="http://www.w3.org/2000/svg">
<path d="M33.8538 16.6674C36.2341 16.6531 38.5557 15.9276 40.5205 14.5841V14.5841C40.8383 14.3746 41.2073 14.2562 41.5877 14.2417C41.968 14.2273 42.345 14.3172 42.6778 14.5019C43.0105 14.6865 43.2864 14.9588 43.4754 15.2891C43.6643 15.6195 43.7592 15.9953 43.7497 16.3757V18.8757C43.7174 21.0427 42.8422 23.1118 41.3098 24.6442C39.7774 26.1766 37.7083 27.0518 35.5413 27.0841H14.458C12.2911 27.0518 10.222 26.1766 8.68953 24.6442C7.15711 23.1118 6.28194 21.0427 6.24968 18.8757V16.3757C6.24015 15.9953 6.33502 15.6195 6.52399 15.2891C6.71296 14.9588 6.98881 14.6865 7.3216 14.5019C7.65439 14.3172 8.0314 14.2273 8.4117 14.2417C8.79201 14.2562 9.16108 14.3746 9.47884 14.5841V14.5841C11.4437 15.9276 13.7653 16.6531 16.1455 16.6674H33.8538Z" stroke="#306CFE" stroke-width="2" stroke-linecap="round" stroke-linejoin="round"/>
<path d="M33.7917 10.416L16.6667 34.9785L33.7917 10.416ZM15.9167 39.5827L17.1042 37.8743C17.4269 37.4312 17.562 36.8787 17.4801 36.3366C17.3982 35.7945 17.1059 35.3065 16.6667 34.9785C16.4427 34.8187 16.1894 34.7047 15.9212 34.6433C15.653 34.5819 15.3753 34.5742 15.1041 34.6207C14.833 34.6672 14.5737 34.7669 14.3413 34.9142C14.1088 35.0614 13.9079 35.2532 13.75 35.4785L12.5 37.1868L15.9167 39.5827Z" stroke="#344054" stroke-width="2" stroke-linecap="round" stroke-linejoin="round"/>
</svg>
