<svg width="50" height="50" viewBox="0 0 50 50" fill="none" xmlns="http://www.w3.org/2000/svg">
<path d="M29.167 35.4173H31.2503C31.8029 35.4173 32.3328 35.1978 32.7235 34.8071C33.1142 34.4164 33.3337 33.8865 33.3337 33.334V27.084C33.3337 26.5315 33.5532 26.0015 33.9439 25.6108C34.3346 25.2201 34.8645 25.0007 35.417 25.0007C34.8645 25.0007 34.3346 24.7812 33.9439 24.3905C33.5532 23.9998 33.3337 23.4699 33.3337 22.9173V16.6673C33.3337 16.1148 33.1142 15.5849 32.7235 15.1942C32.3328 14.8035 31.8029 14.584 31.2503 14.584H29.167" stroke="#344054" stroke-width="2" stroke-linecap="round" stroke-linejoin="round"/>
<path d="M20.833 14.584H18.7497C18.1971 14.584 17.6672 14.8035 17.2765 15.1942C16.8858 15.5849 16.6663 16.1148 16.6663 16.6673V22.9173C16.6663 23.4699 16.4468 23.9998 16.0561 24.3905C15.6654 24.7812 15.1355 25.0007 14.583 25.0007C15.1355 25.0007 15.6654 25.2201 16.0561 25.6108C16.4468 26.0015 16.6663 26.5315 16.6663 27.084V33.334C16.6663 33.8865 16.8858 34.4164 17.2765 34.8071C17.6672 35.1978 18.1971 35.4173 18.7497 35.4173H20.833" stroke="#344054" stroke-width="2" stroke-linecap="round" stroke-linejoin="round"/>
<path d="M41.6667 6.25H8.33333C7.18274 6.25 6.25 7.18274 6.25 8.33333V41.6667C6.25 42.8173 7.18274 43.75 8.33333 43.75H41.6667C42.8173 43.75 43.75 42.8173 43.75 41.6667V8.33333C43.75 7.18274 42.8173 6.25 41.6667 6.25Z" stroke="#306CFE" stroke-width="2" stroke-linecap="round" stroke-linejoin="round"/>
</svg>
