<svg width="50" height="50" viewBox="0 0 50 50" fill="none" xmlns="http://www.w3.org/2000/svg">
<path d="M31.25 6.25H35.4167C35.9692 6.25 36.4991 6.46949 36.8898 6.86019C37.2805 7.25089 37.5 7.7808 37.5 8.33333V20.8333C37.5 21.9384 37.939 22.9982 38.7204 23.7796C39.5018 24.561 40.5616 25 41.6667 25C40.5616 25 39.5018 25.439 38.7204 26.2204C37.939 27.0018 37.5 28.0616 37.5 29.1667V41.6667C37.5 42.2192 37.2805 42.7491 36.8898 43.1398C36.4991 43.5305 35.9692 43.75 35.4167 43.75H31.25" stroke="#344054" stroke-width="2" stroke-linecap="round" stroke-linejoin="round"/>
<path d="M18.7497 6.25H14.583C14.0305 6.25 13.5006 6.46949 13.1099 6.86019C12.7192 7.25089 12.4997 7.7808 12.4997 8.33333V20.8333C12.4997 21.9384 12.0607 22.9982 11.2793 23.7796C10.4979 24.561 9.43808 25 8.33301 25C9.43808 25 10.4979 25.439 11.2793 26.2204C12.0607 27.0018 12.4997 28.0616 12.4997 29.1667V41.6667C12.4997 42.2192 12.7192 42.7491 13.1099 43.1398C13.5006 43.5305 14.0305 43.75 14.583 43.75H18.7497" stroke="#306CFE" stroke-width="2" stroke-linecap="round" stroke-linejoin="round"/>
</svg>
