<svg width="50" height="50" viewBox="0 0 50 50" fill="none" xmlns="http://www.w3.org/2000/svg">
<path d="M29.1663 21.749C24.3746 20.6865 22.9163 14.5824 18.2704 17.4365C13.1871 20.8324 16.6663 24.999 18.3954 27.7282C20.1246 30.4574 22.0413 35.4574 27.6454 32.3115C31.3121 30.2282 33.3121 31.1032 34.2079 27.5824C35.1038 24.0615 31.8121 22.3532 29.1663 21.749Z" stroke="#344054" stroke-width="2" stroke-linecap="round" stroke-linejoin="round"/>
<path d="M25 43.75C35.3553 43.75 43.75 35.3553 43.75 25C43.75 14.6447 35.3553 6.25 25 6.25C14.6447 6.25 6.25 14.6447 6.25 25C6.25 35.3553 14.6447 43.75 25 43.75Z" stroke="#306CFE" stroke-width="2" stroke-linecap="round" stroke-linejoin="round"/>
</svg>
