<svg width="50" height="50" viewBox="0 0 50 50" fill="none" xmlns="http://www.w3.org/2000/svg">
<path d="M11.75 11.75L13.2083 13.2083M25 6.25V8.33333V6.25ZM38.25 11.75L36.7917 13.2083L38.25 11.75ZM43.75 25H41.6667H43.75ZM38.25 38.25L36.7917 36.7917L38.25 38.25ZM25 43.75V41.6667V43.75ZM11.75 38.25L13.2083 36.7917L11.75 38.25ZM6.25 25H8.33333H6.25Z" stroke="#344054" stroke-width="2" stroke-linecap="round" stroke-linejoin="round"/>
<path d="M25.0003 33.3327C29.6027 33.3327 33.3337 29.6017 33.3337 24.9993C33.3337 20.397 29.6027 16.666 25.0003 16.666C20.398 16.666 16.667 20.397 16.667 24.9993C16.667 29.6017 20.398 33.3327 25.0003 33.3327Z" stroke="#306CFE" stroke-width="2" stroke-linecap="round" stroke-linejoin="round"/>
</svg>
