<svg width="50" height="50" viewBox="0 0 50 50" fill="none" xmlns="http://www.w3.org/2000/svg">
<path d="M33.333 37.5C34.6612 38.089 35.8515 38.9493 36.8274 40.0257C37.8033 41.102 38.5432 42.3706 38.9997 43.75" stroke="#344054" stroke-width="2" stroke-linecap="round" stroke-linejoin="round"/>
<path d="M16.6667 37.5C15.3385 38.089 14.1482 38.9493 13.1723 40.0257C12.1964 41.102 11.4564 42.3706 11 43.75" stroke="#344054" stroke-width="2" stroke-linecap="round" stroke-linejoin="round"/>
<path d="M35.8753 6.25C35.6587 7.2256 35.1968 8.12982 34.5334 8.87715C33.8699 9.62448 33.0267 10.1902 32.0837 10.5208L30.2295 11.1667" stroke="#344054" stroke-width="2" stroke-linecap="round" stroke-linejoin="round"/>
<path d="M19.7708 11.1667L17.9167 10.5208C16.9736 10.1902 16.1304 9.62448 15.467 8.87715C14.8035 8.12982 14.3416 7.2256 14.125 6.25" stroke="#344054" stroke-width="2" stroke-linecap="round" stroke-linejoin="round"/>
<path d="M43.7503 14.791L42.6462 16.666C41.8511 17.9675 40.8007 19.0944 39.5582 19.9788C38.3158 20.8632 36.907 21.4868 35.417 21.8118V21.8118" stroke="#344054" stroke-width="2" stroke-linecap="round" stroke-linejoin="round"/>
<path d="M35.417 28.125C36.9611 28.3163 38.4437 28.847 39.7584 29.6791C41.0731 30.5111 42.1874 31.6239 43.0212 32.9375L43.7503 34.0833" stroke="#344054" stroke-width="2" stroke-linecap="round" stroke-linejoin="round"/>
<path d="M14.5833 21.8118C13.0933 21.4868 11.6846 20.8632 10.4421 19.9788C9.19962 19.0944 8.14919 17.9675 7.35417 16.666L6.25 14.791" stroke="#344054" stroke-width="2" stroke-linecap="round" stroke-linejoin="round"/>
<path d="M6.25 34.0833L6.97917 32.9375C7.81296 31.6239 8.9272 30.5111 10.2419 29.6791C11.5566 28.847 13.0392 28.3163 14.5833 28.125V28.125" stroke="#344054" stroke-width="2" stroke-linecap="round" stroke-linejoin="round"/>
<path d="M35.4163 31.2507V20.834C35.4163 20.2814 35.1969 19.7515 34.8062 19.3608C34.4154 18.9701 33.8855 18.7507 33.333 18.7507H16.6663C16.1138 18.7507 15.5839 18.9701 15.1932 19.3608C14.8025 19.7515 14.583 20.2814 14.583 20.834V31.2507C14.583 34.0133 15.6805 36.6628 17.634 38.6163C19.5875 40.5698 22.237 41.6673 24.9997 41.6673V41.6673C27.7623 41.6673 30.4119 40.5698 32.3654 38.6163C34.3189 36.6628 35.4163 34.0133 35.4163 31.2507ZM31.2497 18.7507H18.7497V14.584C18.7497 12.9264 19.4082 11.3367 20.5803 10.1646C21.7524 8.99246 23.3421 8.33398 24.9997 8.33398V8.33398C26.6573 8.33398 28.247 8.99246 29.4191 10.1646C30.5912 11.3367 31.2497 12.9264 31.2497 14.584V18.7507Z" stroke="#306CFE" stroke-width="2" stroke-linecap="round" stroke-linejoin="round"/>
</svg>
