<svg width="50" height="50" viewBox="0 0 50 50" fill="none" xmlns="http://www.w3.org/2000/svg">
<path d="M10.2292 35.416H8.33333C7.7808 35.416 7.25089 35.1965 6.86019 34.8058C6.46949 34.4151 6.25 33.8852 6.25 33.3327V12.4994C6.25 11.9468 6.46949 11.4169 6.86019 11.0262C7.25089 10.6355 7.7808 10.416 8.33333 10.416H38.0833C38.5201 10.4149 38.9462 10.5511 39.3013 10.8053C39.6565 11.0595 39.9227 11.4189 40.0625 11.8327L43.75 22.6035L43.8542 23.2494V33.3327C43.8542 33.8852 43.6347 34.4151 43.244 34.8058C42.8533 35.1965 42.3234 35.416 41.7708 35.416H39.875" stroke="#306CFE" stroke-width="2" stroke-linecap="round" stroke-linejoin="round"/>
<path d="M6.25 22.916H43.75H6.25ZM31.25 35.416H18.9167H31.25ZM18.75 22.916H31.25V10.416H18.75V22.916Z" stroke="#306CFE" stroke-width="2" stroke-linecap="round" stroke-linejoin="round"/>
<path d="M14.5837 31.25C13.7596 31.25 12.954 31.4944 12.2688 31.9522C11.5836 32.41 11.0495 33.0608 10.7342 33.8222C10.4188 34.5835 10.3363 35.4213 10.4971 36.2295C10.6578 37.0378 11.0547 37.7802 11.6374 38.3629C12.2201 38.9457 12.9625 39.3425 13.7708 39.5033C14.579 39.664 15.4168 39.5815 16.1782 39.2662C16.9395 38.9508 17.5903 38.4167 18.0481 37.7315C18.506 37.0463 18.7503 36.2408 18.7503 35.4167C18.7503 34.3116 18.3113 33.2518 17.5299 32.4704C16.7485 31.689 15.6887 31.25 14.5837 31.25ZM35.417 31.25C34.5929 31.25 33.7873 31.4944 33.1021 31.9522C32.4169 32.41 31.8829 33.0608 31.5675 33.8222C31.2521 34.5835 31.1696 35.4213 31.3304 36.2295C31.4912 37.0378 31.888 37.7802 32.4707 38.3629C33.0534 38.9457 33.7959 39.3425 34.6041 39.5033C35.4124 39.664 36.2502 39.5815 37.0115 39.2662C37.7729 38.9508 38.4236 38.4167 38.8814 37.7315C39.3393 37.0463 39.5837 36.2408 39.5837 35.4167C39.5837 34.3116 39.1447 33.2518 38.3633 32.4704C37.5819 31.689 36.5221 31.25 35.417 31.25Z" stroke="#344054" stroke-width="2" stroke-linecap="round" stroke-linejoin="round"/>
</svg>
