<svg width="50" height="50" viewBox="0 0 50 50" fill="none" xmlns="http://www.w3.org/2000/svg">
<path d="M20.833 16.6673V14.584H29.1663V16.6673" stroke="#344054" stroke-width="2" stroke-linecap="round" stroke-linejoin="round"/>
<path d="M20.833 35.4173V33.334H29.1663V35.4173" stroke="#344054" stroke-width="2" stroke-linecap="round" stroke-linejoin="round"/>
<path d="M8.33301 25H41.6663M41.6663 8.33333V41.6667C41.6663 42.2192 41.4468 42.7491 41.0561 43.1398C40.6654 43.5305 40.1355 43.75 39.583 43.75H10.4163C9.86381 43.75 9.3339 43.5305 8.9432 43.1398C8.5525 42.7491 8.33301 42.2192 8.33301 41.6667V8.33333C8.33301 7.7808 8.5525 7.25089 8.9432 6.86019C9.3339 6.46949 9.86381 6.25 10.4163 6.25H39.583C40.1355 6.25 40.6654 6.46949 41.0561 6.86019C41.4468 7.25089 41.6663 7.7808 41.6663 8.33333Z" stroke="#306CFE" stroke-width="2" stroke-linecap="round" stroke-linejoin="round"/>
</svg>
