<svg width="50" height="50" viewBox="0 0 50 50" fill="none" xmlns="http://www.w3.org/2000/svg">
<path d="M16.667 25.0007V20.834M10.417 39.584V43.7507V39.584ZM39.5837 39.584V43.7507V39.584ZM33.3337 20.834V25.0007V20.834Z" stroke="#344054" stroke-width="2" stroke-linecap="round" stroke-linejoin="round"/>
<path d="M10.4163 39.5833H39.583C40.1355 39.5833 40.6654 39.3638 41.0561 38.9731C41.4468 38.5824 41.6663 38.0525 41.6663 37.5V8.33333C41.6663 7.7808 41.4468 7.25089 41.0561 6.86019C40.6654 6.46949 40.1355 6.25 39.583 6.25H10.4163C9.86381 6.25 9.3339 6.46949 8.9432 6.86019C8.5525 7.25089 8.33301 7.7808 8.33301 8.33333V37.5C8.33301 38.0525 8.5525 38.5824 8.9432 38.9731C9.3339 39.3638 9.86381 39.5833 10.4163 39.5833ZM10.4163 39.5833H24.9997V6.25H10.4163C9.86381 6.25 9.3339 6.46949 8.9432 6.86019C8.5525 7.25089 8.33301 7.7808 8.33301 8.33333V37.5C8.33301 38.0525 8.5525 38.5824 8.9432 38.9731C9.3339 39.3638 9.86381 39.5833 10.4163 39.5833Z" stroke="#306CFE" stroke-width="2" stroke-linecap="round" stroke-linejoin="round"/>
</svg>
