<svg width="50" height="50" viewBox="0 0 50 50" fill="none" xmlns="http://www.w3.org/2000/svg">
<path d="M37.5 39.584V43.7506M22.9167 14.584H27.0833H22.9167ZM22.9167 31.2507H27.0833H22.9167ZM12.5 39.584V43.7506V39.584Z" stroke="#344054" stroke-width="2" stroke-linecap="round" stroke-linejoin="round"/>
<path d="M10.417 22.9167H39.5837V8.33333C39.5837 7.7808 39.3642 7.25089 38.9735 6.86019C38.5828 6.46949 38.0529 6.25 37.5003 6.25H12.5003C11.9478 6.25 11.4179 6.46949 11.0272 6.86019C10.6365 7.25089 10.417 7.7808 10.417 8.33333V22.9167ZM12.5003 39.5833H37.5003C38.0529 39.5833 38.5828 39.3638 38.9735 38.9731C39.3642 38.5824 39.5837 38.0525 39.5837 37.5V22.9167H10.417V37.5C10.417 38.0525 10.6365 38.5824 11.0272 38.9731C11.4179 39.3638 11.9478 39.5833 12.5003 39.5833Z" stroke="#306CFE" stroke-width="2" stroke-linecap="round" stroke-linejoin="round"/>
</svg>
