<svg width="50" height="50" viewBox="0 0 50 50" fill="none" xmlns="http://www.w3.org/2000/svg">
<path d="M18.75 43.7494V24.9993C18.75 24.4468 18.9695 23.9169 19.3602 23.5262C19.7509 23.1355 20.2808 22.916 20.8333 22.916H29.1667C29.7192 22.916 30.2491 23.1355 30.6398 23.5262C31.0305 23.9169 31.25 24.4468 31.25 24.9993V43.7494" stroke="#344054" stroke-width="2" stroke-linecap="round" stroke-linejoin="round"/>
<path d="M24.9999 6.25V14.5833M41.6666 29.7292L38.1041 42.2292C37.978 42.6798 37.704 43.0749 37.3261 43.3508C36.9481 43.6267 36.4883 43.7673 36.0207 43.75H13.9791C13.5115 43.7673 13.0517 43.6267 12.6737 43.3508C12.2958 43.0749 12.0218 42.6798 11.8957 42.2292L8.33323 29.7292C8.23007 29.3613 8.23007 28.9721 8.33323 28.6042L11.8957 16.1042C12.0218 15.6535 12.2958 15.2585 12.6737 14.9826C13.0517 14.7067 13.5115 14.566 13.9791 14.5833H36.0207C36.4883 14.566 36.9481 14.7067 37.3261 14.9826C37.704 15.2585 37.978 15.6535 38.1041 16.1042L41.6666 28.6042C41.7697 28.9721 41.7697 29.3613 41.6666 29.7292ZM14.5832 6.25H35.4166H14.5832Z" stroke="#306CFE" stroke-width="2" stroke-linecap="round" stroke-linejoin="round"/>
</svg>
