<svg width="50" height="50" viewBox="0 0 50 50" fill="none" xmlns="http://www.w3.org/2000/svg">
<path d="M25 14.584C27.7627 14.584 30.4122 15.6815 32.3657 17.635C34.3192 19.5885 35.4167 22.238 35.4167 25.0007" stroke="#344054" stroke-width="2" stroke-linecap="round" stroke-linejoin="round"/>
<path d="M22.917 6.375C23.6083 6.29123 24.304 6.24948 25.0003 6.25C29.9731 6.25 34.7423 8.22545 38.2586 11.7418C41.7749 15.2581 43.7503 20.0272 43.7503 25C43.7508 25.6963 43.7091 26.3921 43.6253 27.0833" stroke="#344054" stroke-width="2" stroke-linecap="round" stroke-linejoin="round"/>
<path d="M31.2499 43.7496C28.0207 42.9795 24.9575 41.6314 22.2083 39.7705L25.9999 34.333C26.6232 33.482 27.5461 32.8992 28.5823 32.702C29.6185 32.5048 30.691 32.708 31.5833 33.2705C32.2708 33.708 32.9791 34.1038 33.6666 34.4996C34.1841 34.7527 34.6435 35.1102 35.0159 35.5498C35.3882 35.9893 35.6654 36.5013 35.8298 37.0534C35.9943 37.6055 36.0424 38.1857 35.9713 38.7573C35.9002 39.329 35.7113 39.8797 35.4166 40.3746L34.1249 42.3538C33.8942 42.8937 33.4763 43.3322 32.9481 43.5887C32.4199 43.8451 31.8169 43.9023 31.2499 43.7496V43.7496ZM7.64575 15.9788L9.72909 14.6871C10.2122 14.3736 10.7551 14.1636 11.3234 14.0705C11.8918 13.9773 12.4733 14.003 13.0312 14.1459C13.5892 14.2888 14.1114 14.5459 14.565 14.9008C15.0186 15.2557 15.3937 15.7008 15.6666 16.208C16.0624 16.958 16.4583 17.6663 16.8958 18.2913C17.4583 19.1836 17.6614 20.256 17.4642 21.2923C17.267 22.3285 16.6842 23.2513 15.8333 23.8746L10.2916 27.7288C8.41551 25.0031 7.04638 21.9613 6.24992 18.7496C6.12461 18.1976 6.19537 17.6191 6.45007 17.1135C6.70477 16.6079 7.12752 16.2067 7.64575 15.9788V15.9788Z" stroke="#306CFE" stroke-width="2" stroke-linecap="round" stroke-linejoin="round"/>
<path d="M10.292 27.7285C11.8229 30.1299 13.6266 32.346 15.667 34.3327C17.6537 36.3731 19.8698 38.1767 22.2712 39.7077" stroke="#306CFE" stroke-width="2" stroke-linecap="round" stroke-linejoin="round"/>
</svg>
