<svg width="50" height="50" viewBox="0 0 50 50" fill="none" xmlns="http://www.w3.org/2000/svg">
<path d="M29.167 31.2507V27.084" stroke="#344054" stroke-width="2" stroke-linecap="round" stroke-linejoin="round"/>
<path d="M20.833 27.084V31.2507" stroke="#344054" stroke-width="2" stroke-linecap="round" stroke-linejoin="round"/>
<path d="M14.5833 31.25H35.4167C35.9692 31.25 36.4991 31.4695 36.8898 31.8602C37.2805 32.2509 37.5 32.7808 37.5 33.3333V43.75H12.5V33.3333C12.5 32.7808 12.7195 32.2509 13.1102 31.8602C13.5009 31.4695 14.0308 31.25 14.5833 31.25Z" stroke="#306CFE" stroke-width="2" stroke-linecap="round" stroke-linejoin="round"/>
<path d="M20.8334 14.5833C20.7931 15.1409 20.8732 15.7005 21.0683 16.2243C21.2635 16.7481 21.569 17.2238 21.9643 17.6191C22.3596 18.0143 22.8352 18.3199 23.3591 18.515C23.8829 18.7102 24.4425 18.7903 25.0001 18.75C25.5551 18.7801 26.1103 18.6929 26.6295 18.4941C27.1486 18.2954 27.6201 17.9895 28.0131 17.5964C28.4062 17.2034 28.7121 16.7319 28.9109 16.2127C29.1096 15.6936 29.1968 15.1384 29.1667 14.5833C29.1667 11.7917 27.0834 11.4583 27.0834 6.25C22.9167 8.33333 20.8334 11.6458 20.8334 14.5833Z" stroke="#306CFE" stroke-width="2" stroke-linecap="round" stroke-linejoin="round"/>
<path d="M8.33301 43.75H41.6663" stroke="#344054" stroke-width="2" stroke-linecap="round" stroke-linejoin="round"/>
</svg>
