<svg width="50" height="50" viewBox="0 0 50 50" fill="none" xmlns="http://www.w3.org/2000/svg">
<path d="M23.2712 33.8549L16.667 43.7508H33.3337L26.7295 33.8549C26.5389 33.5713 26.2815 33.339 25.98 33.1783C25.6784 33.0176 25.342 32.9336 25.0003 32.9336C24.6586 32.9336 24.3222 33.0176 24.0207 33.1783C23.7191 33.339 23.4617 33.5713 23.2712 33.8549V33.8549Z" stroke="#344054" stroke-width="2" stroke-linecap="round" stroke-linejoin="round"/>
<path d="M20.8335 6.25L41.8126 40.5833C42.0045 40.8986 42.1093 41.2592 42.1161 41.6282C42.1229 41.9972 42.0316 42.3614 41.8514 42.6835C41.6713 43.0056 41.4088 43.2741 41.0909 43.4615C40.7729 43.6489 40.4109 43.7485 40.0418 43.75H9.95845C9.58938 43.7485 9.22734 43.6489 8.90937 43.4615C8.59141 43.2741 8.32893 43.0056 8.14879 42.6835C7.96865 42.3614 7.87732 41.9972 7.88415 41.6282C7.89097 41.2592 7.9957 40.8986 8.18762 40.5833L29.1668 6.25" stroke="#306CFE" stroke-width="2" stroke-linecap="round" stroke-linejoin="round"/>
</svg>
