<svg width="50" height="50" viewBox="0 0 50 50" fill="none" xmlns="http://www.w3.org/2000/svg">
<path d="M36.3955 27.0834C37.7088 25.0375 38.4471 22.6758 38.5329 20.2462C38.6187 17.8166 38.0489 15.4087 36.8832 13.2753C35.7175 11.1418 33.999 9.36155 31.908 8.12129C29.8171 6.88104 27.4308 6.22656 24.9997 6.22656C22.5686 6.22656 20.1823 6.88104 18.0913 8.12129C16.0003 9.36155 14.2818 11.1418 13.1162 13.2753C11.9505 15.4087 11.3806 17.8166 11.4664 20.2462C11.5523 22.6758 12.2906 25.0375 13.6038 27.0834H36.3955Z" stroke="#344054" stroke-width="2" stroke-linecap="round" stroke-linejoin="round"/>
<path d="M39.583 27.084H10.4163C9.26575 27.084 8.33301 28.0167 8.33301 29.1673V41.6673C8.33301 42.8179 9.26575 43.7507 10.4163 43.7507H39.583C40.7336 43.7507 41.6663 42.8179 41.6663 41.6673V29.1673C41.6663 28.0167 40.7336 27.084 39.583 27.084Z" stroke="#306CFE" stroke-width="2" stroke-linecap="round" stroke-linejoin="round"/>
</svg>
