<svg width="50" height="50" viewBox="0 0 50 50" fill="none" xmlns="http://www.w3.org/2000/svg">
<path d="M31.25 12.4993V35.416H20.8333C20.8333 34.3109 20.3943 33.2511 19.6129 32.4697C18.8315 31.6883 17.7717 31.2493 16.6667 31.2493C15.5616 31.2493 14.5018 31.6883 13.7204 32.4697C12.939 33.2511 12.5 34.3109 12.5 35.416H8.33333C7.7808 35.416 7.25089 35.1965 6.86019 34.8058C6.46949 34.4151 6.25 33.8852 6.25 33.3327V12.4993C6.25 11.9468 6.46949 11.4169 6.86019 11.0262C7.25089 10.6355 7.7808 10.416 8.33333 10.416H29.1667C29.7192 10.416 30.2491 10.6355 30.6398 11.0262C31.0305 11.4169 31.25 11.9468 31.25 12.4993ZM43.3958 22.3952L40.2083 17.6035C40.0177 17.314 39.7578 17.0766 39.4522 16.9129C39.1466 16.7492 38.805 16.6643 38.4583 16.666H31.25V35.416H33.3333C33.3333 34.3109 33.7723 33.2511 34.5537 32.4697C35.3351 31.6883 36.3949 31.2493 37.5 31.2493C38.6051 31.2493 39.6649 31.6883 40.4463 32.4697C41.2277 33.2511 41.6667 34.3109 41.6667 35.416H43.75V23.541C43.7468 23.1326 43.6236 22.7342 43.3958 22.3952Z" stroke="#306CFE" stroke-width="2" stroke-linecap="round" stroke-linejoin="round"/>
<path d="M20.8333 35.4167C20.8333 36.2408 20.589 37.0463 20.1311 37.7315C19.6733 38.4167 19.0225 38.9508 18.2612 39.2662C17.4998 39.5815 16.662 39.664 15.8538 39.5033C15.0455 39.3425 14.3031 38.9457 13.7204 38.3629C13.1377 37.7802 12.7408 37.0378 12.5801 36.2295C12.4193 35.4213 12.5018 34.5835 12.8172 33.8222C13.1325 33.0608 13.6666 32.41 14.3518 31.9522C15.037 31.4944 15.8426 31.25 16.6667 31.25C17.7717 31.25 18.8315 31.689 19.6129 32.4704C20.3943 33.2518 20.8333 34.3116 20.8333 35.4167ZM37.5 31.25C36.6759 31.25 35.8703 31.4944 35.1851 31.9522C34.4999 32.41 33.9659 33.0608 33.6505 33.8222C33.3351 34.5835 33.2526 35.4213 33.4134 36.2295C33.5742 37.0378 33.971 37.7802 34.5537 38.3629C35.1364 38.9457 35.8789 39.3425 36.6871 39.5033C37.4954 39.664 38.3332 39.5815 39.0945 39.2662C39.8559 38.9508 40.5066 38.4167 40.9645 37.7315C41.4223 37.0463 41.6667 36.2408 41.6667 35.4167C41.6667 34.3116 41.2277 33.2518 40.4463 32.4704C39.6649 31.689 38.6051 31.25 37.5 31.25Z" stroke="#344054" stroke-width="2" stroke-linecap="round" stroke-linejoin="round"/>
</svg>
