<svg width="50" height="50" viewBox="0 0 50 50" fill="none" xmlns="http://www.w3.org/2000/svg">
<path d="M29.0625 23.959H29.2708" stroke="#344054" stroke-width="3" stroke-linecap="round" stroke-linejoin="round"/>
<path d="M39.583 37.4993H41.6663C42.2189 37.4993 42.7488 37.2799 43.1395 36.8892C43.5302 36.4985 43.7497 35.9685 43.7497 35.416V28.7077C43.7635 28.2318 43.614 27.7655 43.3259 27.3864C43.0378 27.0074 42.6286 26.7384 42.1663 26.6243L39.583 26.041" stroke="#306CFE" stroke-width="2" stroke-linecap="round" stroke-linejoin="round"/>
<path d="M20.8334 16.6661H15.8751C15.4868 16.6634 15.1055 16.7692 14.7742 16.9717C14.4429 17.1741 14.1748 17.4652 14 17.8119L10.4167 24.9994L7.39588 26.4994C7.04914 26.6741 6.75813 26.9422 6.55566 27.2735C6.3532 27.6049 6.24735 27.9861 6.25005 28.3744V35.4161C6.25005 35.9686 6.46954 36.4985 6.86024 36.8892C7.25095 37.2799 7.78085 37.4994 8.33338 37.4994H10.4167" stroke="#306CFE" stroke-width="2" stroke-linecap="round" stroke-linejoin="round"/>
<path d="M18.75 37.5H31.25" stroke="#306CFE" stroke-width="2" stroke-linecap="round" stroke-linejoin="round"/>
<path d="M29.167 8.33398V14.584M18.7503 37.5006C18.7503 36.6766 18.506 35.871 18.0481 35.1858C17.5903 34.5006 16.9395 33.9665 16.1782 33.6512C15.4168 33.3358 14.579 33.2533 13.7708 33.414C12.9625 33.5748 12.2201 33.9717 11.6374 34.5544C11.0547 35.1371 10.6578 35.8795 10.4971 36.6878C10.3363 37.496 10.4188 38.3338 10.7342 39.0952C11.0495 39.8565 11.5836 40.5073 12.2688 40.9651C12.954 41.4229 13.7596 41.6673 14.5837 41.6673C15.6887 41.6673 16.7485 41.2283 17.5299 40.4469C18.3113 39.6655 18.7503 38.6057 18.7503 37.5006ZM39.5837 37.5006C39.5837 36.6766 39.3393 35.871 38.8814 35.1858C38.4236 34.5006 37.7729 33.9665 37.0115 33.6512C36.2502 33.3358 35.4124 33.2533 34.6041 33.414C33.7959 33.5748 33.0534 33.9717 32.4707 34.5544C31.888 35.1371 31.4912 35.8795 31.3304 36.6878C31.1696 37.496 31.2521 38.3338 31.5675 39.0952C31.8829 39.8565 32.4169 40.5073 33.1021 40.9651C33.7873 41.4229 34.5929 41.6673 35.417 41.6673C36.5221 41.6673 37.5819 41.2283 38.3633 40.4469C39.1447 39.6655 39.5837 38.6057 39.5837 37.5006Z" stroke="#344054" stroke-width="2" stroke-linecap="round" stroke-linejoin="round"/>
</svg>
