<svg width="50" height="50" viewBox="0 0 50 50" fill="none" xmlns="http://www.w3.org/2000/svg">
<path d="M14.583 43.7506L35.4163 29.1673L14.583 14.584" stroke="#344054" stroke-width="2" stroke-linecap="round" stroke-linejoin="round"/>
<path d="M35.4163 14.584L14.583 29.1673L35.4163 43.7506" stroke="#344054" stroke-width="2" stroke-linecap="round" stroke-linejoin="round"/>
<path d="M6.25 43.75H43.75M41.6667 14.5833H8.33333C7.7808 14.5833 7.25089 14.3638 6.86019 13.9731C6.46949 13.5824 6.25 13.0525 6.25 12.5V8.33333C6.25 7.7808 6.46949 7.25089 6.86019 6.86019C7.25089 6.46949 7.7808 6.25 8.33333 6.25H41.6667C42.2192 6.25 42.7491 6.46949 43.1398 6.86019C43.5305 7.25089 43.75 7.7808 43.75 8.33333V12.5C43.75 13.0525 43.5305 13.5824 43.1398 13.9731C42.7491 14.3638 42.2192 14.5833 41.6667 14.5833Z" stroke="#306CFE" stroke-width="2" stroke-linecap="round" stroke-linejoin="round"/>
</svg>
