<svg width="50" height="50" viewBox="0 0 50 50" fill="none" xmlns="http://www.w3.org/2000/svg">
<path d="M38.5413 33.3333H44.7913M36.2705 18.2083C35.7197 16.5488 34.6608 15.1045 33.2437 14.08C31.8267 13.0555 30.1233 12.5028 28.3747 12.5H7.29134C6.73881 12.5 6.2089 12.7195 5.8182 13.1102C5.4275 13.5009 5.20801 14.0308 5.20801 14.5833V31.25C5.20801 31.8025 5.4275 32.3324 5.8182 32.7231C6.2089 33.1138 6.73881 33.3333 7.29134 33.3333H11.458C11.458 32.2283 11.897 31.1685 12.6784 30.3871C13.4598 29.6057 14.5196 29.1667 15.6247 29.1667C16.7297 29.1667 17.7895 29.6057 18.571 30.3871C19.3524 31.1685 19.7913 32.2283 19.7913 33.3333H38.5413V25L36.2705 18.2083Z" stroke="#306CFE" stroke-width="2" stroke-linecap="round" stroke-linejoin="round"/>
<path d="M28.1247 20.834H23.958M19.7913 33.334C19.7913 34.1581 19.547 34.9637 19.0891 35.6489C18.6313 36.3341 17.9805 36.8681 17.2192 37.1835C16.4578 37.4988 15.6201 37.5814 14.8118 37.4206C14.0035 37.2598 13.2611 36.863 12.6784 36.2803C12.0957 35.6975 11.6988 34.9551 11.5381 34.1469C11.3773 33.3386 11.4598 32.5008 11.7752 31.7395C12.0905 30.9781 12.6246 30.3274 13.3098 29.8695C13.995 29.4117 14.8006 29.1673 15.6247 29.1673C16.7297 29.1673 17.7896 29.6063 18.571 30.3877C19.3524 31.1691 19.7913 32.2289 19.7913 33.334Z" stroke="#344054" stroke-width="2" stroke-linecap="round" stroke-linejoin="round"/>
</svg>
