<svg width="50" height="50" viewBox="0 0 50 50" fill="none" xmlns="http://www.w3.org/2000/svg">
<path d="M33.3333 31.2494H29.1667M12.5 10.416V14.5827V10.416Z" stroke="#344054" stroke-width="2" stroke-linecap="round" stroke-linejoin="round"/>
<path d="M6.25 22.9162H41.6667C42.0037 22.9152 42.3359 22.9958 42.6348 23.1513C42.9338 23.3068 43.1906 23.5326 43.3831 23.8091C43.5757 24.0857 43.6983 24.4048 43.7404 24.7392C43.7826 25.0735 43.7429 25.4131 43.625 25.7287L38.9375 38.2287C38.7885 38.6275 38.521 38.971 38.1708 39.2131C37.8207 39.4553 37.4048 39.5843 36.9792 39.5829H11.9792C11.5033 39.5968 11.037 39.4472 10.6579 39.1591C10.2788 38.8711 10.0099 38.4618 9.89583 37.9996L6.25 22.9162ZM22.9167 22.9162L21.2292 16.1662C21.1151 15.704 20.8462 15.2948 20.4671 15.0067C20.088 14.7186 19.6217 14.5691 19.1458 14.5829H8.33333C7.7808 14.5829 7.25089 14.8024 6.86019 15.1931C6.46949 15.5838 6.25 16.1137 6.25 16.6662V22.9162H22.9167Z" stroke="#306CFE" stroke-width="2" stroke-linecap="round" stroke-linejoin="round"/>
</svg>
