<svg width="50" height="50" viewBox="0 0 50 50" fill="none" xmlns="http://www.w3.org/2000/svg">
<path d="M14.5833 33.334H31.25V20.834H14.5833V33.334Z" stroke="#344054" stroke-width="2" stroke-linecap="round" stroke-linejoin="round"/>
<path d="M10.417 41.6667H37.5003C38.0529 41.6667 38.5828 41.4472 38.9735 41.0565C39.3642 40.6658 39.5837 40.1359 39.5837 39.5833V14.5833C39.5837 14.0308 39.3642 13.5009 38.9735 13.1102C38.5828 12.7195 38.0529 12.5 37.5003 12.5H14.5837" stroke="#306CFE" stroke-width="2" stroke-linecap="round" stroke-linejoin="round"/>
<path d="M43.75 35.4173H39.5833M14.5833 12.5007V37.5006C14.5833 38.6057 14.1443 39.6655 13.3629 40.4469C12.5815 41.2283 11.5217 41.6673 10.4167 41.6673C9.3116 41.6673 8.25179 41.2283 7.47039 40.4469C6.68899 39.6655 6.25 38.6057 6.25 37.5006V12.5007C6.25 11.3956 6.68899 10.3358 7.47039 9.55437C8.25179 8.77297 9.3116 8.33398 10.4167 8.33398C11.5217 8.33398 12.5815 8.77297 13.3629 9.55437C14.1443 10.3358 14.5833 11.3956 14.5833 12.5007V12.5007ZM10.4167 33.334C9.59258 33.334 8.787 33.5784 8.10179 34.0362C7.41659 34.494 6.88254 35.1448 6.56717 35.9061C6.25181 36.6675 6.16929 37.5053 6.33006 38.3135C6.49083 39.1218 6.88767 39.8642 7.47039 40.4469C8.05311 41.0296 8.79554 41.4265 9.60379 41.5873C10.412 41.748 11.2498 41.6655 12.0112 41.3501C12.7725 41.0348 13.4233 40.5007 13.8811 39.8155C14.339 39.1303 14.5833 38.3247 14.5833 37.5006C14.5833 36.3956 14.1443 35.3358 13.3629 34.5544C12.5815 33.773 11.5217 33.334 10.4167 33.334ZM43.75 18.7507H39.5833H43.75ZM43.75 27.084H39.5833H43.75Z" stroke="#306CFE" stroke-width="2" stroke-linecap="round" stroke-linejoin="round"/>
</svg>
