<svg width="50" height="50" viewBox="0 0 50 50" fill="none" xmlns="http://www.w3.org/2000/svg">
<path d="M35.417 42.709H35.6253M22.917 42.709H23.1253H22.917Z" stroke="#344054" stroke-width="3" stroke-linecap="round" stroke-linejoin="round"/>
<path d="M6.25 6.25H11.0833C11.5006 6.2496 11.9083 6.37449 12.2538 6.6085C12.5992 6.84252 12.8665 7.17486 13.0208 7.5625L20.8333 27.0833L18.1667 32.3958C18.0061 32.7146 17.93 33.0692 17.9458 33.4258C17.9617 33.7823 18.0688 34.1288 18.257 34.4321C18.4453 34.7353 18.7082 34.9851 19.0207 35.1575C19.3332 35.3299 19.6848 35.4192 20.0417 35.4167H39.5833" stroke="#306CFE" stroke-width="2" stroke-linecap="round" stroke-linejoin="round"/>
<path d="M15 12.5H43.3333H43.75L37.9167 27.0833H20.8333" stroke="#306CFE" stroke-width="2" stroke-linecap="round" stroke-linejoin="round"/>
</svg>
