<svg width="50" height="50" viewBox="0 0 50 50" fill="none" xmlns="http://www.w3.org/2000/svg">
<path d="M18.7503 22.9167V14.5833M27.0837 8.33333V12.5C27.0837 13.0525 26.8642 13.5824 26.4735 13.9731C26.0828 14.3638 25.5529 14.5833 25.0003 14.5833H12.5003C11.9478 14.5833 11.4179 14.3638 11.0272 13.9731C10.6365 13.5824 10.417 13.0525 10.417 12.5V8.33333C10.417 7.7808 10.6365 7.25089 11.0272 6.86019C11.4179 6.46949 11.9478 6.25 12.5003 6.25H25.0003C25.5529 6.25 26.0828 6.46949 26.4735 6.86019C26.8642 7.25089 27.0837 7.7808 27.0837 8.33333Z" stroke="#344054" stroke-width="2" stroke-linecap="round" stroke-linejoin="round"/>
<path d="M6.25 35.4169V41.6669C6.25 42.2194 6.46949 42.7493 6.86019 43.14C7.25089 43.5307 7.7808 43.7502 8.33333 43.7502H41.6667C42.2192 43.7502 42.7491 43.5307 43.1398 43.14C43.5305 42.7493 43.75 42.2194 43.75 41.6669V35.4169L40.0625 24.3336C39.9227 23.9198 39.6565 23.5604 39.3013 23.3061C38.9462 23.0519 38.5201 22.9158 38.0833 22.9169H11.9167C11.4624 22.8932 11.0128 23.0188 10.6366 23.2746C10.2604 23.5304 9.97829 23.9024 9.83333 24.3336L6.25 35.4169ZM6.25 35.4169V41.6669C6.25 42.2194 6.46949 42.7493 6.86019 43.14C7.25089 43.5307 7.7808 43.7502 8.33333 43.7502H41.6667C42.2192 43.7502 42.7491 43.5307 43.1398 43.14C43.5305 42.7493 43.75 42.2194 43.75 41.6669V35.4169H6.25Z" stroke="#306CFE" stroke-width="2" stroke-linecap="round" stroke-linejoin="round"/>
</svg>
