<svg width="50" height="50" viewBox="0 0 50 50" fill="none" xmlns="http://www.w3.org/2000/svg">
<path d="M27.4997 27.0834H22.4997C21.9814 27.086 21.4808 26.8953 21.0956 26.5486C20.7104 26.2019 20.4682 25.724 20.4164 25.2084L18.7497 8.54169C18.7205 8.25112 18.7527 7.95765 18.8442 7.68033C18.9358 7.403 19.0846 7.14802 19.281 6.93193C19.4775 6.71584 19.7172 6.54346 19.9846 6.42599C20.2519 6.30851 20.541 6.24856 20.833 6.25003H29.1664C29.4584 6.24856 29.7475 6.30851 30.0149 6.42599C30.2822 6.54346 30.5219 6.71584 30.7184 6.93193C30.9148 7.14802 31.0636 7.403 31.1552 7.68033C31.2467 7.95765 31.2789 8.25112 31.2497 8.54169L29.583 25.2084C29.5312 25.724 29.289 26.2019 28.9038 26.5486C28.5186 26.8953 28.018 27.086 27.4997 27.0834V27.0834Z" stroke="#306CFE" stroke-width="2" stroke-linecap="round" stroke-linejoin="round"/>
<path d="M24.9997 43.7493C27.3009 43.7493 29.1663 41.8839 29.1663 39.5827C29.1663 37.2815 27.3009 35.416 24.9997 35.416C22.6985 35.416 20.833 37.2815 20.833 39.5827C20.833 41.8839 22.6985 43.7493 24.9997 43.7493Z" stroke="#344054" stroke-width="2" stroke-linecap="round" stroke-linejoin="round"/>
</svg>
