<svg width="50" height="50" viewBox="0 0 50 50" fill="none" xmlns="http://www.w3.org/2000/svg">
<path d="M35.4163 35.416V43.7493M14.583 35.416V43.7493V35.416Z" stroke="#344054" stroke-width="2" stroke-linecap="round" stroke-linejoin="round"/>
<path d="M35.4167 27.0833H14.5833V8.33333C14.5833 7.7808 14.8028 7.25089 15.1935 6.86019C15.5842 6.46949 16.1141 6.25 16.6667 6.25H33.3333C33.8859 6.25 34.4158 6.46949 34.8065 6.86019C35.1972 7.25089 35.4167 7.7808 35.4167 8.33333V27.0833ZM37.5 35.4167H12.5V29.1667C12.5 28.6141 12.7195 28.0842 13.1102 27.6935C13.5009 27.3028 14.0308 27.0833 14.5833 27.0833H35.4167C35.9692 27.0833 36.4991 27.3028 36.8898 27.6935C37.2805 28.0842 37.5 28.6141 37.5 29.1667V35.4167Z" stroke="#306CFE" stroke-width="2" stroke-linecap="round" stroke-linejoin="round"/>
</svg>
