<svg width="50" height="50" viewBox="0 0 50 50" fill="none" xmlns="http://www.w3.org/2000/svg">
<path d="M39.5837 27.0827C39.5837 24.8725 38.7057 22.7529 37.1429 21.1901C35.5801 19.6273 33.4605 18.7493 31.2503 18.7493H25.0003V17.7077C25.0003 15.7738 24.2321 13.9191 22.8646 12.5517C21.4972 11.1842 19.6425 10.416 17.7087 10.416C15.7748 10.416 13.9201 11.1842 12.5527 12.5517C11.1852 13.9191 10.417 15.7738 10.417 17.7077V18.2702" stroke="#344054" stroke-width="2" stroke-linecap="round" stroke-linejoin="round"/>
<path d="M39.5837 39.5827V35.416M10.417 39.5827V35.416V39.5827Z" stroke="#344054" stroke-width="2" stroke-linecap="round" stroke-linejoin="round"/>
<path d="M14.5838 27.0835V23.146C14.6237 22.1219 14.2976 21.1169 13.6639 20.3114C13.0301 19.5059 12.1302 18.9524 11.1254 18.7502C10.5221 18.646 9.90317 18.6761 9.31276 18.8383C8.72235 19.0006 8.17494 19.2909 7.7095 19.6887C7.24405 20.0865 6.872 20.5821 6.61982 21.14C6.36764 21.698 6.24152 22.3046 6.25044 22.9168V35.4168H43.7504V29.1668C43.7504 28.6143 43.531 28.0844 43.1403 27.6937C42.7496 27.303 42.2196 27.0835 41.6671 27.0835H14.5838Z" stroke="#306CFE" stroke-width="2" stroke-linecap="round" stroke-linejoin="round"/>
</svg>
