<svg width="50" height="50" viewBox="0 0 50 50" fill="none" xmlns="http://www.w3.org/2000/svg">
<path d="M32.3546 38.7923C30.6926 40.63 28.6008 42.0267 26.2664 42.8574C23.932 43.688 21.4281 43.9266 18.9788 43.5518C16.5296 43.177 14.2116 42.2005 12.2325 40.7097C10.2534 39.219 8.67499 37.2606 7.63869 35.0099C6.60239 32.7593 6.14057 30.2868 6.2946 27.8138C6.44863 25.3409 7.2137 22.9448 8.52126 20.8401C9.82883 18.7355 11.6381 16.9881 13.7869 15.7544C15.9357 14.5208 18.3569 13.8395 20.8337 13.7715" stroke="#344054" stroke-width="2" stroke-linecap="round" stroke-linejoin="round"/>
<path d="M20.833 29.1667V6.25C26.9008 6.28283 32.7107 8.7078 37.0013 12.9984C41.2919 17.289 43.7168 23.0989 43.7497 29.1667C43.7475 34.5361 41.8599 39.7343 38.4163 43.8542L20.833 29.1667Z" stroke="#306CFE" stroke-width="2" stroke-linecap="round" stroke-linejoin="round"/>
</svg>
