<svg width="50" height="50" viewBox="0 0 50 50" fill="none" xmlns="http://www.w3.org/2000/svg">
<path d="M25.0003 12.5V37.5M16.667 12.5H33.3337H16.667ZM16.667 37.5H33.3337H16.667Z" stroke="#344054" stroke-width="2" stroke-linecap="round" stroke-linejoin="round"/>
<path d="M37.4997 18.75C36.3946 18.75 35.3348 18.311 34.5534 17.5296C33.772 16.7482 33.333 15.6884 33.333 14.5833V10.4167C33.333 9.3116 33.772 8.25179 34.5534 7.47039C35.3348 6.68899 36.3946 6.25 37.4997 6.25V6.25C38.6047 6.25 39.6645 6.68899 40.446 7.47039C41.2274 8.25179 41.6663 9.3116 41.6663 10.4167V14.5833C41.6663 15.6884 41.2274 16.7482 40.446 17.5296C39.6645 18.311 38.6047 18.75 37.4997 18.75ZM16.6663 14.5833V10.4167C16.6663 9.3116 16.2274 8.25179 15.446 7.47039C14.6646 6.68899 13.6047 6.25 12.4997 6.25C11.3946 6.25 10.3348 6.68899 9.5534 7.47039C8.77199 8.25179 8.33301 9.3116 8.33301 10.4167V14.5833C8.33301 15.6884 8.77199 16.7482 9.5534 17.5296C10.3348 18.311 11.3946 18.75 12.4997 18.75C13.6047 18.75 14.6646 18.311 15.446 17.5296C16.2274 16.7482 16.6663 15.6884 16.6663 14.5833ZM41.6663 39.5833V35.4167C41.6663 34.3116 41.2274 33.2518 40.446 32.4704C39.6645 31.689 38.6047 31.25 37.4997 31.25C36.3946 31.25 35.3348 31.689 34.5534 32.4704C33.772 33.2518 33.333 34.3116 33.333 35.4167V39.5833C33.333 40.6884 33.772 41.7482 34.5534 42.5296C35.3348 43.311 36.3946 43.75 37.4997 43.75C38.6047 43.75 39.6645 43.311 40.446 42.5296C41.2274 41.7482 41.6663 40.6884 41.6663 39.5833ZM16.6663 39.5833V35.4167C16.6663 34.3116 16.2274 33.2518 15.446 32.4704C14.6646 31.689 13.6047 31.25 12.4997 31.25C11.3946 31.25 10.3348 31.689 9.5534 32.4704C8.77199 33.2518 8.33301 34.3116 8.33301 35.4167V39.5833C8.33301 40.6884 8.77199 41.7482 9.5534 42.5296C10.3348 43.311 11.3946 43.75 12.4997 43.75C13.6047 43.75 14.6646 43.311 15.446 42.5296C16.2274 41.7482 16.6663 40.6884 16.6663 39.5833Z" stroke="#306CFE" stroke-width="2" stroke-linecap="round" stroke-linejoin="round"/>
</svg>
