<svg width="50" height="50" viewBox="0 0 50 50" fill="none" xmlns="http://www.w3.org/2000/svg">
<path d="M14.5833 41.666H8.33333C7.7808 41.666 7.25089 41.4465 6.86019 41.0558C6.46949 40.6651 6.25 40.1352 6.25 39.5827V16.666" stroke="#344054" stroke-width="2" stroke-linecap="round" stroke-linejoin="round"/>
<path d="M41.6663 8.33398H16.6663C16.1138 8.33398 15.5839 8.55348 15.1932 8.94418C14.8025 9.33488 14.583 9.86478 14.583 10.4173V31.2507C14.583 31.8032 14.8025 32.3331 15.1932 32.7238C15.5839 33.1145 16.1138 33.334 16.6663 33.334H22.9163V39.584L33.333 33.334H41.6663C42.2189 33.334 42.7488 33.1145 43.1395 32.7238C43.5302 32.3331 43.7497 31.8032 43.7497 31.2507V10.4173C43.7497 9.86478 43.5302 9.33488 43.1395 8.94418C42.7488 8.55348 42.2189 8.33398 41.6663 8.33398V8.33398Z" stroke="#306CFE" stroke-width="2" stroke-linecap="round" stroke-linejoin="round"/>
</svg>
