<svg width="50" height="50" viewBox="0 0 50 50" fill="none" xmlns="http://www.w3.org/2000/svg">
<path d="M43.75 8.33333V35.4167C43.75 35.9692 43.5305 36.4991 43.1398 36.8898C42.7491 37.2805 42.2192 37.5 41.6667 37.5H31.25L25 43.75L18.75 37.5H8.33333C7.7808 37.5 7.25089 37.2805 6.86019 36.8898C6.46949 36.4991 6.25 35.9692 6.25 35.4167V8.33333C6.25 7.7808 6.46949 7.25089 6.86019 6.86019C7.25089 6.46949 7.7808 6.25 8.33333 6.25H41.6667C42.2192 6.25 42.7491 6.46949 43.1398 6.86019C43.5305 7.25089 43.75 7.7808 43.75 8.33333Z" stroke="#306CFE" stroke-width="2" stroke-linecap="round" stroke-linejoin="round"/>
</svg>
