<svg width="50" height="50" viewBox="0 0 50 50" fill="none" xmlns="http://www.w3.org/2000/svg">
<path d="M25.1038 28.125H24.8955" stroke="#344054" stroke-width="3" stroke-linecap="round" stroke-linejoin="round"/>
<path d="M25 18.7507V14.584" stroke="#344054" stroke-width="2" stroke-linecap="round" stroke-linejoin="round"/>
<path d="M41.6667 6.25H8.33333C7.7808 6.25 7.25089 6.46949 6.86019 6.86019C6.46949 7.25089 6.25 7.7808 6.25 8.33333V35.4167C6.25 35.9692 6.46949 36.4991 6.86019 36.8898C7.25089 37.2805 7.7808 37.5 8.33333 37.5H16.6667V43.75L27.0833 37.5H41.6667C42.2192 37.5 42.7491 37.2805 43.1398 36.8898C43.5305 36.4991 43.75 35.9692 43.75 35.4167V8.33333C43.75 7.7808 43.5305 7.25089 43.1398 6.86019C42.7491 6.46949 42.2192 6.25 41.6667 6.25V6.25Z" stroke="#306CFE" stroke-width="2" stroke-linecap="round" stroke-linejoin="round"/>
</svg>
