<svg width="50" height="50" viewBox="0 0 50 50" fill="none" xmlns="http://www.w3.org/2000/svg">
<path d="M43.7503 43.75H12.5003C11.9478 43.75 11.4179 43.5305 11.0272 43.1398C10.6365 42.7491 10.417 42.2192 10.417 41.6667V6.25" stroke="#306CFE" stroke-width="2" stroke-linecap="round" stroke-linejoin="round"/>
<path d="M6.25 14.584H27.0833" stroke="#306CFE" stroke-width="2" stroke-linecap="round" stroke-linejoin="round"/>
<path d="M25 8.33398H37.5M41.4166 32.3548L35.4166 21.209V8.33398H27.0833V21.209L21.0833 32.3548C20.9145 32.6718 20.8305 33.0271 20.8395 33.3862C20.8485 33.7453 20.9502 34.0959 21.1347 34.4041C21.3192 34.7122 21.5802 34.9675 21.8924 35.145C22.2047 35.3226 22.5575 35.4164 22.9167 35.4173H39.5833C39.9425 35.4164 40.2953 35.3226 40.6075 35.145C40.9198 34.9675 41.1808 34.7122 41.3653 34.4041C41.5498 34.0959 41.6514 33.7453 41.6604 33.3862C41.6694 33.0271 41.5855 32.6718 41.4166 32.3548V32.3548Z" stroke="#344054" stroke-width="2" stroke-linecap="round" stroke-linejoin="round"/>
</svg>
