<svg width="50" height="50" viewBox="0 0 50 50" fill="none" xmlns="http://www.w3.org/2000/svg">
<path d="M12.5 33.3333H8.33333M25 12.5V6.25V12.5ZM33.3333 12.5V8.33333V12.5ZM16.6667 12.5V8.33333V12.5ZM37.5 25H43.75H37.5ZM37.5 33.3333H41.6667H37.5ZM37.5 16.6667H41.6667H37.5ZM25 37.5V43.75V37.5ZM16.6667 37.5V41.6667V37.5ZM33.3333 37.5V41.6667V37.5ZM12.5 25H6.25H12.5ZM12.5 16.6667H8.33333H12.5Z" stroke="#344054" stroke-width="2" stroke-linecap="round" stroke-linejoin="round"/>
<path d="M35.4167 12.5H14.5833C13.4327 12.5 12.5 13.4327 12.5 14.5833V35.4167C12.5 36.5673 13.4327 37.5 14.5833 37.5H35.4167C36.5673 37.5 37.5 36.5673 37.5 35.4167V14.5833C37.5 13.4327 36.5673 12.5 35.4167 12.5Z" stroke="#306CFE" stroke-width="2" stroke-linecap="round" stroke-linejoin="round"/>
</svg>
