<svg width="50" height="50" viewBox="0 0 50 50" fill="none" xmlns="http://www.w3.org/2000/svg">
<path d="M35.4167 33.3333V41.6667C35.4167 42.2192 35.1972 42.7491 34.8065 43.1398C34.4158 43.5305 33.8859 43.75 33.3333 43.75H8.33333C7.7808 43.75 7.25089 43.5305 6.86019 43.1398C6.46949 42.7491 6.25 42.2192 6.25 41.6667V14.5833C6.25 14.0308 6.46949 13.5009 6.86019 13.1102C7.25089 12.7195 7.7808 12.5 8.33333 12.5H14.5833" stroke="#306CFE" stroke-width="2" stroke-linecap="round" stroke-linejoin="round"/>
<path d="M27.083 12.5H33.333C33.8855 12.5 34.4154 12.7195 34.8061 13.1102C35.1968 13.5009 35.4163 14.0308 35.4163 14.5833V20.8333" stroke="#306CFE" stroke-width="2" stroke-linecap="round" stroke-linejoin="round"/>
<path d="M24.9997 10.4167C24.9997 9.3116 24.5607 8.25179 23.7793 7.47039C22.9979 6.68899 21.9381 6.25 20.833 6.25C19.7279 6.25 18.6681 6.68899 17.8867 7.47039C17.1053 8.25179 16.6663 9.3116 16.6663 10.4167V10.4167C16.1138 10.4167 15.5839 10.6362 15.1932 11.0269C14.8025 11.4176 14.583 11.9475 14.583 12.5V16.6667H27.083V12.5C27.083 11.9475 26.8635 11.4176 26.4728 11.0269C26.0821 10.6362 25.5522 10.4167 24.9997 10.4167ZM43.1455 22.2708L40.2288 19.3542C39.8394 18.9724 39.3158 18.7586 38.7705 18.7586C38.2252 18.7586 37.7016 18.9724 37.3122 19.3542L27.083 29.5833V35.4167H32.9163L43.1455 25.1875C43.5272 24.7981 43.741 24.2745 43.741 23.7292C43.741 23.1838 43.5272 22.6603 43.1455 22.2708V22.2708Z" stroke="#344054" stroke-width="2" stroke-linecap="round" stroke-linejoin="round"/>
</svg>
