<svg width="50" height="50" viewBox="0 0 50 50" fill="none" xmlns="http://www.w3.org/2000/svg">
<path d="M37.5003 6.25H12.5003C11.3497 6.25 10.417 7.18274 10.417 8.33333V41.6667C10.417 42.8173 11.3497 43.75 12.5003 43.75H37.5003C38.6509 43.75 39.5837 42.8173 39.5837 41.6667V8.33333C39.5837 7.18274 38.6509 6.25 37.5003 6.25Z" stroke="#306CFE" stroke-width="2" stroke-linecap="round" stroke-linejoin="round"/>
<path d="M18.75 29.1667L22.9167 33.3333L31.25 25M18.75 12.5C18.75 13.0525 18.9695 13.5824 19.3602 13.9731C19.7509 14.3638 20.2808 14.5833 20.8333 14.5833H29.1667C29.7192 14.5833 30.2491 14.3638 30.6398 13.9731C31.0305 13.5824 31.25 13.0525 31.25 12.5V6.25H18.75V12.5Z" stroke="#344054" stroke-width="2" stroke-linecap="round" stroke-linejoin="round"/>
</svg>
