<svg width="50" height="50" viewBox="0 0 50 50" fill="none" xmlns="http://www.w3.org/2000/svg">
<path d="M37.4997 31.25V8.33333C37.4997 7.7808 37.2802 7.25089 36.8895 6.86019C36.4988 6.46949 35.9689 6.25 35.4163 6.25H10.4163C9.86381 6.25 9.3339 6.46949 8.9432 6.86019C8.5525 7.25089 8.33301 7.7808 8.33301 8.33333V41.6667C8.33301 42.2192 8.5525 42.7491 8.9432 43.1398C9.3339 43.5305 9.86381 43.75 10.4163 43.75H24.9997" stroke="#306CFE" stroke-width="2" stroke-linecap="round" stroke-linejoin="round"/>
<path d="M33.3337 39.5833H41.667M16.667 6.25H29.167V12.5C29.167 13.0525 28.9475 13.5824 28.5568 13.9731C28.1661 14.3638 27.6362 14.5833 27.0837 14.5833H18.7503C18.1978 14.5833 17.6679 14.3638 17.2772 13.9731C16.8865 13.5824 16.667 13.0525 16.667 12.5V6.25ZM16.667 35.4167H25.0003H16.667ZM16.667 27.0833H29.167H16.667Z" stroke="#344054" stroke-width="2" stroke-linecap="round" stroke-linejoin="round"/>
</svg>
