<svg width="50" height="50" viewBox="0 0 50 50" fill="none" xmlns="http://www.w3.org/2000/svg">
<path d="M14.583 33.3333V41.6667C14.583 42.2192 14.8025 42.7491 15.1932 43.1398C15.5839 43.5305 16.1138 43.75 16.6663 43.75H41.6663C42.2189 43.75 42.7488 43.5305 43.1395 43.1398C43.5302 42.7491 43.7497 42.2192 43.7497 41.6667V8.33333C43.7497 7.7808 43.5302 7.25089 43.1395 6.86019C42.7488 6.46949 42.2189 6.25 41.6663 6.25H16.6663C16.1138 6.25 15.5839 6.46949 15.1932 6.86019C14.8025 7.25089 14.583 7.7808 14.583 8.33333V20.8333" stroke="#306CFE" stroke-width="2" stroke-linecap="round" stroke-linejoin="round"/>
<path d="M35.4168 12.5C35.4168 13.0525 35.1973 13.5824 34.8066 13.9731C34.4159 14.3638 33.886 14.5833 33.3335 14.5833H25.0002C24.4476 14.5833 23.9177 14.3638 23.527 13.9731C23.1363 13.5824 22.9168 13.0525 22.9168 12.5V6.25H35.4168V12.5ZM6.85432 22.2708L9.77099 19.3542C10.1604 18.9724 10.684 18.7586 11.2293 18.7586C11.7746 18.7586 12.2982 18.9724 12.6877 19.3542L22.9168 29.5833V35.4167H17.0835L6.85432 25.1875C6.4726 24.7981 6.25879 24.2745 6.25879 23.7292C6.25879 23.1838 6.4726 22.6603 6.85432 22.2708V22.2708Z" stroke="#344054" stroke-width="2" stroke-linecap="round" stroke-linejoin="round"/>
</svg>
