<svg width="50" height="50" viewBox="0 0 50 50" fill="none" xmlns="http://www.w3.org/2000/svg">
<path d="M25 16.666V24.9993L29.1667 29.166" stroke="#344054" stroke-width="2" stroke-linecap="round" stroke-linejoin="round"/>
<path d="M33.3329 39.5834L37.4995 43.7501M12.4995 6.25006C11.088 6.25833 9.7208 6.74418 8.62057 7.62852C7.52035 8.51286 6.75188 9.74361 6.4403 11.1204C6.12872 12.4971 6.29237 13.9388 6.9046 15.2107C7.51684 16.4826 8.5416 17.5098 9.81205 18.1251C11.4823 14.4251 14.4454 11.4619 18.1454 9.79173C17.6343 8.72885 16.833 7.83226 15.8339 7.20555C14.8349 6.57884 13.6789 6.24759 12.4995 6.25006ZM37.4995 6.25006C36.3215 6.2534 35.1684 6.5896 34.1732 7.21992C33.1779 7.85023 32.3811 8.74899 31.8745 9.81256C35.5745 11.4828 38.5377 14.4459 40.2079 18.1459C41.4917 17.5363 42.5295 16.5074 43.15 15.2288C43.7705 13.9502 43.9367 12.4983 43.6212 11.1126C43.3057 9.72682 42.5273 8.48998 41.4145 7.60602C40.3016 6.72207 38.9207 6.24379 37.4995 6.25006V6.25006ZM16.6662 39.5834L12.4995 43.7501L16.6662 39.5834Z" stroke="#344054" stroke-width="2" stroke-linecap="round" stroke-linejoin="round"/>
<path d="M41.6664 25.001C41.6664 29.4212 39.9105 33.6605 36.7849 36.7861C33.6593 39.9117 29.42 41.6676 24.9998 41.6676C20.5795 41.6676 16.3402 39.9117 13.2146 36.7861C10.089 33.6605 8.33309 29.4212 8.33309 25.001C8.32573 22.6296 8.83027 20.2845 9.81225 18.126C11.4825 14.426 14.4456 11.4628 18.1456 9.79263C20.3056 8.81454 22.6494 8.30859 25.0206 8.30859C27.3917 8.30859 29.7356 8.81454 31.8956 9.79263C35.5955 11.4628 38.5587 14.426 40.2289 18.126C41.1966 20.2877 41.6869 22.6326 41.6664 25.001V25.001Z" stroke="#306CFE" stroke-width="2" stroke-linecap="round" stroke-linejoin="round"/>
</svg>
