<svg width="50" height="50" viewBox="0 0 50 50" fill="none" xmlns="http://www.w3.org/2000/svg">
<path d="M12.4996 31.4789C10.6529 30.2519 9.13086 28.5959 8.06357 26.6526C6.99628 24.7093 6.41551 22.5363 6.37094 20.3196C6.32637 18.1029 6.81931 15.9084 7.80761 13.9238C8.79591 11.9391 10.2502 10.2233 12.046 8.92306C13.8419 7.62285 15.926 6.77692 18.12 6.4576C20.314 6.13827 22.5527 6.35506 24.6447 7.08942C26.7367 7.82379 28.6197 9.05387 30.1327 10.6745C31.6458 12.2951 32.7438 14.2581 33.3329 16.3955C33.9031 16.2875 34.4818 16.2317 35.0621 16.2289C37.1598 16.2345 39.1853 16.9954 40.7679 18.3722C42.3505 19.7491 43.3844 21.6497 43.6803 23.7265C43.9763 25.8032 43.5145 27.917 42.3795 29.6811C41.2445 31.4452 39.5122 32.7416 37.4996 33.333" stroke="#306CFE" stroke-width="2" stroke-linecap="round" stroke-linejoin="round"/>
<path d="M33.0556 31.6111H32.4983C32.3031 31.6103 32.1129 31.5491 31.9539 31.4358C31.7949 31.3224 31.675 31.1626 31.6106 30.9783C31.5265 30.8014 31.4996 30.6028 31.5334 30.4099C31.5672 30.217 31.6602 30.0394 31.7994 29.9017L32.1867 29.5144C32.2752 29.4266 32.3454 29.3222 32.3934 29.2071C32.4413 29.092 32.466 28.9686 32.466 28.8439C32.466 28.7192 32.4413 28.5958 32.3934 28.4807C32.3454 28.3656 32.2752 28.2611 32.1867 28.1733L30.8456 26.8228C30.7578 26.7343 30.6533 26.664 30.5382 26.616C30.4231 26.5681 30.2997 26.5434 30.175 26.5434C30.0503 26.5434 29.9269 26.5681 29.8118 26.616C29.6967 26.664 29.5922 26.7343 29.5044 26.8228L29.1172 27.21C28.9795 27.3492 28.8019 27.4422 28.609 27.476C28.4161 27.5099 28.2175 27.4829 28.0406 27.3989C27.8512 27.3371 27.6862 27.2171 27.5692 27.056C27.4521 26.8948 27.389 26.7008 27.3889 26.5017V25.9444C27.3889 25.694 27.2894 25.4537 27.1123 25.2766C26.9351 25.0995 26.6949 25 26.4444 25H24.5556C24.3051 25 24.0648 25.0995 23.8877 25.2766C23.7106 25.4537 23.6111 25.694 23.6111 25.9444V26.5017C23.6103 26.6969 23.5491 26.8871 23.4358 27.0461C23.3224 27.2051 23.1626 27.325 22.9783 27.3894V27.3894C22.8014 27.4735 22.6028 27.5004 22.4099 27.4666C22.217 27.4328 22.0394 27.3398 21.9017 27.2006L21.5144 26.8133C21.4266 26.7248 21.3222 26.6546 21.2071 26.6066C21.092 26.5587 20.9686 26.534 20.8439 26.534C20.7192 26.534 20.5958 26.5587 20.4807 26.6066C20.3656 26.6546 20.2611 26.7248 20.1733 26.8133L18.8228 28.1544C18.7343 28.2422 18.664 28.3467 18.616 28.4618C18.5681 28.5769 18.5434 28.7003 18.5434 28.825C18.5434 28.9497 18.5681 29.0731 18.616 29.1882C18.664 29.3033 18.7343 29.4078 18.8228 29.4956L19.21 29.8828C19.3492 30.0205 19.4422 30.1981 19.476 30.391C19.5099 30.5839 19.4829 30.7825 19.3989 30.9594C19.3345 31.1437 19.2145 31.3035 19.0555 31.4169C18.8965 31.5302 18.7063 31.5914 18.5111 31.5922H17.9444C17.694 31.5922 17.4537 31.6917 17.2766 31.8688C17.0995 32.046 17 32.2862 17 32.5367V34.4256C17 34.676 17.0995 34.9163 17.2766 35.0934C17.4537 35.2705 17.694 35.37 17.9444 35.37H18.5017C18.6969 35.3708 18.8871 35.432 19.0461 35.5454C19.2051 35.6587 19.325 35.8185 19.3894 36.0028V36.0028C19.4735 36.1797 19.5004 36.3783 19.4666 36.5712C19.4328 36.7641 19.3398 36.9417 19.2006 37.0794L18.8133 37.4667C18.7248 37.5545 18.6546 37.6589 18.6066 37.774C18.5587 37.8891 18.534 38.0125 18.534 38.1372C18.534 38.2619 18.5587 38.3853 18.6066 38.5004C18.6546 38.6155 18.7248 38.72 18.8133 38.8078L20.145 40.1394C20.2328 40.228 20.3373 40.2982 20.4523 40.3462C20.5674 40.3941 20.6909 40.4188 20.8156 40.4188C20.9402 40.4188 21.0637 40.3941 21.1788 40.3462C21.2939 40.2982 21.3983 40.228 21.4861 40.1394L21.8733 39.7522C22.0111 39.613 22.1887 39.52 22.3816 39.4862C22.5745 39.4523 22.7731 39.4793 22.95 39.5633C23.1343 39.6278 23.2941 39.7477 23.4074 39.9067C23.5207 40.0657 23.582 40.2559 23.5828 40.4511V41.0556C23.5828 41.306 23.6823 41.5463 23.8594 41.7234C24.0365 41.9005 24.2767 42 24.5272 42H26.4161C26.6666 42 26.9068 41.9005 27.0839 41.7234C27.2611 41.5463 27.3606 41.306 27.3606 41.0556V40.4983C27.3613 40.3031 27.4226 40.1129 27.5359 39.9539C27.6492 39.7949 27.809 39.675 27.9933 39.6106C28.1702 39.5265 28.3689 39.4996 28.5618 39.5334C28.7547 39.5672 28.9323 39.6602 29.07 39.7994L29.4572 40.1867C29.545 40.2752 29.6495 40.3454 29.7646 40.3934C29.8797 40.4413 30.0031 40.466 30.1278 40.466C30.2525 40.466 30.3759 40.4413 30.491 40.3934C30.6061 40.3454 30.7105 40.2752 30.7983 40.1867L32.13 38.855C32.2185 38.7672 32.2888 38.6627 32.3367 38.5477C32.3847 38.4326 32.4094 38.3091 32.4094 38.1844C32.4094 38.0598 32.3847 37.9363 32.3367 37.8212C32.2888 37.7061 32.2185 37.6017 32.13 37.5139L31.7428 37.1267C31.6036 36.9889 31.5106 36.8113 31.4767 36.6184C31.4429 36.4255 31.4699 36.2269 31.5539 36.05V36.05C31.6183 35.8657 31.7383 35.7059 31.8973 35.5926C32.0562 35.4793 32.2464 35.418 32.4417 35.4172H33.0556C33.306 35.4172 33.5463 35.3177 33.7234 35.1406C33.9005 34.9635 34 34.7233 34 34.4728V32.5556C34 32.3051 33.9005 32.0649 33.7234 31.8877C33.5463 31.7106 33.306 31.6111 33.0556 31.6111Z" stroke="#306CFE" stroke-width="2" stroke-linecap="round" stroke-linejoin="round"/>
<path d="M25.5 36C26.8807 36 28 34.8807 28 33.5C28 32.1193 26.8807 31 25.5 31C24.1193 31 23 32.1193 23 33.5C23 34.8807 24.1193 36 25.5 36Z" stroke="#344054" stroke-width="2" stroke-linecap="round" stroke-linejoin="round"/>
</svg>
