<svg width="50" height="50" viewBox="0 0 50 50" fill="none" xmlns="http://www.w3.org/2000/svg">
<path d="M33.3337 14.584V18.7507M37.5003 31.2507V27.084H29.167V31.2507C29.167 32.3557 29.606 33.4155 30.3874 34.1969C31.1688 34.9783 32.2286 35.4173 33.3337 35.4173C34.4387 35.4173 35.4985 34.9783 36.2799 34.1969C37.0613 33.4155 37.5003 32.3557 37.5003 31.2507Z" stroke="#344054" stroke-width="2" stroke-linecap="round" stroke-linejoin="round"/>
<path d="M41.6667 43.75H8.33333C7.7808 43.75 7.25089 43.5305 6.86019 43.1398C6.46949 42.7491 6.25 42.2192 6.25 41.6667V35.4167H43.75V41.6667C43.75 42.2192 43.5305 42.7491 43.1398 43.1398C42.7491 43.5305 42.2192 43.75 41.6667 43.75ZM39.5833 6.25H8.33333C7.7808 6.25 7.25089 6.46949 6.86019 6.86019C6.46949 7.25089 6.25 7.7808 6.25 8.33333V35.4167H20.8333V14.5833H37.5C38.0525 14.5833 38.5824 14.3638 38.9731 13.9731C39.3638 13.5824 39.5833 13.0525 39.5833 12.5V6.25Z" stroke="#306CFE" stroke-width="2" stroke-linecap="round" stroke-linejoin="round"/>
</svg>
