<svg width="50" height="50" viewBox="0 0 50 50" fill="none" xmlns="http://www.w3.org/2000/svg">
<path d="M38.2497 11.7493C36.2075 9.68096 33.7002 8.13091 30.9372 7.22852L25.208 20.8327C26.2381 20.8828 27.213 21.3131 27.9442 22.0404C28.6754 22.7677 29.1108 23.7404 29.1663 24.7702L42.7913 19.041C41.8799 16.2834 40.3228 13.7834 38.2497 11.7493V11.7493Z" stroke="#344054" stroke-width="2" stroke-linecap="round" stroke-linejoin="round"/>
<path d="M24.9997 29.1673C27.3009 29.1673 29.1663 27.3018 29.1663 25.0007C29.1663 22.6995 27.3009 20.834 24.9997 20.834C22.6985 20.834 20.833 22.6995 20.833 25.0007C20.833 27.3018 22.6985 29.1673 24.9997 29.1673Z" stroke="#344054" stroke-width="2" stroke-linecap="round" stroke-linejoin="round"/>
<path d="M19.0628 42.7702L24.792 29.166C23.7619 29.1159 22.787 28.6856 22.0558 27.9583C21.3246 27.231 20.8892 26.2583 20.8337 25.2285L7.22949 30.9369C8.15078 33.691 9.69922 36.1934 11.7527 38.2469C13.8063 40.3005 16.3087 41.8489 19.0628 42.7702V42.7702Z" stroke="#344054" stroke-width="2" stroke-linecap="round" stroke-linejoin="round"/>
<path d="M25 43.75C35.3553 43.75 43.75 35.3553 43.75 25C43.75 14.6447 35.3553 6.25 25 6.25C14.6447 6.25 6.25 14.6447 6.25 25C6.25 35.3553 14.6447 43.75 25 43.75Z" stroke="#306CFE" stroke-width="2" stroke-linecap="round" stroke-linejoin="round"/>
</svg>
