<svg width="50" height="50" viewBox="0 0 50 50" fill="none" xmlns="http://www.w3.org/2000/svg">
<path d="M25 43.75C35.3553 43.75 43.75 35.3553 43.75 25C43.75 14.6447 35.3553 6.25 25 6.25C14.6447 6.25 6.25 14.6447 6.25 25C6.25 35.3553 14.6447 43.75 25 43.75Z" stroke="#306CFE" stroke-width="2" stroke-linecap="round" stroke-linejoin="round"/>
<path d="M8.33301 8.33398L41.6663 41.6673M24.9997 20.834C24.1756 20.834 23.37 21.0784 22.6848 21.5362C21.9996 21.994 21.4655 22.6448 21.1502 23.4061C20.8348 24.1675 20.7523 25.0053 20.9131 25.8135C21.0738 26.6218 21.4707 27.3642 22.0534 27.9469C22.6361 28.5296 23.3785 28.9265 24.1868 29.0873C24.9951 29.248 25.8328 29.1655 26.5942 28.8501C27.3555 28.5348 28.0063 28.0007 28.4641 27.3155C28.922 26.6303 29.1663 25.8247 29.1663 25.0007C29.1663 23.8956 28.7274 22.8358 27.946 22.0544C27.1645 21.273 26.1047 20.834 24.9997 20.834Z" stroke="#344054" stroke-width="2" stroke-linecap="round" stroke-linejoin="round"/>
</svg>
