<svg width="50" height="50" viewBox="0 0 50 50" fill="none" xmlns="http://www.w3.org/2000/svg">
<path d="M35.4167 27.0833V41.6667C35.4167 42.2192 35.1972 42.7491 34.8065 43.1398C34.4158 43.5305 33.8859 43.75 33.3333 43.75H8.33333C7.7808 43.75 7.25089 43.5305 6.86019 43.1398C6.46949 42.7491 6.25 42.2192 6.25 41.6667V8.33333C6.25 7.7808 6.46949 7.25089 6.86019 6.86019C7.25089 6.46949 7.7808 6.25 8.33333 6.25H33.3333C33.8859 6.25 34.4158 6.46949 34.8065 6.86019C35.1972 7.25089 35.4167 7.7808 35.4167 8.33333V14.5833" stroke="#306CFE" stroke-width="2" stroke-linecap="round" stroke-linejoin="round"/>
<path d="M14.583 35.4158H20.833M43.1455 16.02L40.2288 13.1033C39.8394 12.7216 39.3158 12.5078 38.7705 12.5078C38.2252 12.5078 37.7016 12.7216 37.3122 13.1033L27.083 23.3325V29.1658H32.9163L43.1455 18.9367C43.5272 18.5472 43.741 18.0237 43.741 17.4783C43.741 16.933 43.5272 16.4095 43.1455 16.02V16.02Z" stroke="#344054" stroke-width="2" stroke-linecap="round" stroke-linejoin="round"/>
</svg>
