<svg width="50" height="50" viewBox="0 0 50 50" fill="none" xmlns="http://www.w3.org/2000/svg">
<path d="M33.3333 24.9993C33.3333 27.2095 32.4554 29.3291 30.8926 30.8919C29.3298 32.4547 27.2101 33.3327 25 33.3327V16.666C27.2101 16.666 29.3298 17.544 30.8926 19.1068C32.4554 20.6696 33.3333 22.7892 33.3333 24.9993Z" stroke="#344054" stroke-width="2" stroke-linecap="round" stroke-linejoin="round"/>
<path d="M44.1462 23.5212L39.5837 18.9587V12.5004C39.5837 11.9478 39.3642 11.4179 38.9735 11.0272C38.5828 10.6365 38.0529 10.417 37.5004 10.417H31.042L26.4795 5.85453C26.2859 5.65926 26.0554 5.50427 25.8016 5.3985C25.5477 5.29274 25.2754 5.23828 25.0004 5.23828C24.7253 5.23828 24.453 5.29274 24.1992 5.3985C23.9453 5.50427 23.7149 5.65926 23.5212 5.85453L18.9587 10.417H12.5004C11.9478 10.417 11.4179 10.6365 11.0272 11.0272C10.6365 11.4179 10.417 11.9478 10.417 12.5004V18.9587L5.85453 23.5212C5.65926 23.7149 5.50427 23.9453 5.3985 24.1992C5.29274 24.453 5.23828 24.7253 5.23828 25.0004C5.23828 25.2754 5.29274 25.5477 5.3985 25.8016C5.50427 26.0554 5.65926 26.2859 5.85453 26.4795L10.417 31.042V37.5004C10.417 38.0529 10.6365 38.5828 11.0272 38.9735C11.4179 39.3642 11.9478 39.5837 12.5004 39.5837H18.9587L23.5212 44.1462C23.7149 44.3415 23.9453 44.4964 24.1992 44.6022C24.453 44.708 24.7253 44.7624 25.0004 44.7624C25.2754 44.7624 25.5477 44.708 25.8016 44.6022C26.0554 44.4964 26.2859 44.3415 26.4795 44.1462L31.042 39.5837H37.5004C38.0529 39.5837 38.5828 39.3642 38.9735 38.9735C39.3642 38.5828 39.5837 38.0529 39.5837 37.5004V31.042L44.1462 26.4795C44.3415 26.2859 44.4964 26.0554 44.6022 25.8016C44.708 25.5477 44.7624 25.2754 44.7624 25.0004C44.7624 24.7253 44.708 24.453 44.6022 24.1992C44.4964 23.9453 44.3415 23.7149 44.1462 23.5212Z" stroke="#306CFE" stroke-width="2" stroke-linecap="round" stroke-linejoin="round"/>
</svg>
