<svg width="50" height="50" viewBox="0 0 50 50" fill="none" xmlns="http://www.w3.org/2000/svg">
<path d="M27.0837 6.25H22.917C19.6018 6.25 16.4224 7.56696 14.0782 9.91117C11.734 12.2554 10.417 15.4348 10.417 18.75H27.0837V6.25Z" stroke="#344054" stroke-width="2" stroke-linecap="round" stroke-linejoin="round"/>
<path d="M37.5 42.6035L35.3125 30.791" stroke="#306CFE" stroke-width="2" stroke-linecap="round" stroke-linejoin="round"/>
<path d="M12.5 42.6042L14.6875 30.8125" stroke="#306CFE" stroke-width="2" stroke-linecap="round" stroke-linejoin="round"/>
<path d="M41.6663 18.75H8.33301M39.583 22.9167V18.75H10.4163V22.9167C10.4163 25.1268 11.2943 27.2464 12.8571 28.8092C14.4199 30.372 16.5395 31.25 18.7497 31.25H31.2497C33.4598 31.25 35.5794 30.372 37.1422 28.8092C38.705 27.2464 39.583 25.1268 39.583 22.9167Z" stroke="#306CFE" stroke-width="2" stroke-linecap="round" stroke-linejoin="round"/>
<path d="M41.6663 41.666C30.728 44.4368 19.2714 44.4368 8.33301 41.666" stroke="#344054" stroke-width="2" stroke-linecap="round" stroke-linejoin="round"/>
</svg>
