<svg width="50" height="50" viewBox="0 0 50 50" fill="none" xmlns="http://www.w3.org/2000/svg">
<path d="M29.1667 20.8329C29.1667 20.8329 36.5208 21.6871 40.5 17.1246C44.5 12.4996 43.75 4.16627 43.75 4.16627C41.9842 4.0168 40.206 4.14332 38.4792 4.54127L37.5 8.33294L33.5208 6.85377C33.0924 7.17761 32.7011 7.54792 32.3542 7.95794C28.3542 12.4996 29.1667 20.8329 29.1667 20.8329ZM29.1667 20.8329L25 24.9996" stroke="#344054" stroke-width="2" stroke-linecap="round" stroke-linejoin="round"/>
<path d="M25 6.25H8.33333C7.7808 6.25 7.25089 6.46949 6.86019 6.86019C6.46949 7.25089 6.25 7.7808 6.25 8.33333V41.6667C6.25 42.2192 6.46949 42.7491 6.86019 43.1398C7.25089 43.5305 7.7808 43.75 8.33333 43.75H41.6667C42.2192 43.75 42.7491 43.5305 43.1398 43.1398C43.5305 42.7491 43.75 42.2192 43.75 41.6667V25" stroke="#306CFE" stroke-width="2" stroke-linecap="round" stroke-linejoin="round"/>
</svg>
