<svg width="50" height="50" viewBox="0 0 50 50" fill="none" xmlns="http://www.w3.org/2000/svg">
<path d="M41.6667 8.33305C40.8179 7.55242 39.6942 7.14033 38.5421 7.1872C37.3899 7.23406 36.3033 7.73606 35.5208 8.58305L21.1875 22.9164L18.75 31.2497L27.0833 28.8122L41.4167 14.5831C41.8516 14.1942 42.204 13.7218 42.4529 13.1941C42.7018 12.6664 42.842 12.094 42.8653 11.511C42.8887 10.928 42.7946 10.3463 42.5886 9.80033C42.3827 9.2544 42.0692 8.75543 41.6667 8.33305V8.33305Z" stroke="#344054" stroke-width="2" stroke-linecap="round" stroke-linejoin="round"/>
<path d="M25 6.25H8.33333C7.7808 6.25 7.25089 6.46949 6.86019 6.86019C6.46949 7.25089 6.25 7.7808 6.25 8.33333V41.6667C6.25 42.2192 6.46949 42.7491 6.86019 43.1398C7.25089 43.5305 7.7808 43.75 8.33333 43.75H41.6667C42.2192 43.75 42.7491 43.5305 43.1398 43.1398C43.5305 42.7491 43.75 42.2192 43.75 41.6667V25" stroke="#306CFE" stroke-width="2" stroke-linecap="round" stroke-linejoin="round"/>
</svg>
