<svg width="50" height="50" viewBox="0 0 50 50" fill="none" xmlns="http://www.w3.org/2000/svg">
<path d="M37.5 25L43.75 18.75L37.5 12.5" stroke="#344054" stroke-width="2" stroke-linecap="round" stroke-linejoin="round"/>
<path d="M43.7497 18.75H34.8122C30.6119 18.7483 26.4942 19.917 22.921 22.1249C19.3479 24.3329 16.4606 27.4927 14.583 31.25" stroke="#344054" stroke-width="2" stroke-linecap="round" stroke-linejoin="round"/>
<path d="M43.75 33.334V39.584C43.75 40.1365 43.5305 40.6664 43.1398 41.0571C42.7491 41.4478 42.2192 41.6673 41.6667 41.6673H8.33333C7.7808 41.6673 7.25089 41.4478 6.86019 41.0571C6.46949 40.6664 6.25 40.1365 6.25 39.584V10.4173C6.25 9.86478 6.46949 9.33488 6.86019 8.94418C7.25089 8.55348 7.7808 8.33398 8.33333 8.33398H25" stroke="#306CFE" stroke-width="2" stroke-linecap="round" stroke-linejoin="round"/>
</svg>
