<svg width="50" height="50" viewBox="0 0 50 50" fill="none" xmlns="http://www.w3.org/2000/svg">
<path d="M25 43.7493C31.9036 43.7493 37.5 41.8839 37.5 39.5827C37.5 37.2815 31.9036 35.416 25 35.416C18.0964 35.416 12.5 37.2815 12.5 39.5827C12.5 41.8839 18.0964 43.7493 25 43.7493Z" stroke="#344054" stroke-width="2" stroke-linecap="round" stroke-linejoin="round"/>
<path d="M37.5 10.4167V39.5833C37.5 41.875 31.8958 43.75 25 43.75C18.1042 43.75 12.5 41.875 12.5 39.5833V10.4167C12.5 8.125 18.1042 6.25 25 6.25C31.8958 6.25 37.5 8.125 37.5 10.4167Z" stroke="#306CFE" stroke-width="2" stroke-linecap="round" stroke-linejoin="round"/>
<path d="M25 14.5833C31.9036 14.5833 37.5 12.7179 37.5 10.4167C37.5 8.11548 31.9036 6.25 25 6.25C18.0964 6.25 12.5 8.11548 12.5 10.4167C12.5 12.7179 18.0964 14.5833 25 14.5833Z" stroke="#344054" stroke-width="2" stroke-linecap="round" stroke-linejoin="round"/>
</svg>
