<svg width="50" height="50" viewBox="0 0 50 50" fill="none" xmlns="http://www.w3.org/2000/svg">
<path d="M33.3333 18.75L25 31.25" stroke="#344054" stroke-width="2" stroke-linecap="round" stroke-linejoin="round"/>
<path d="M25 31.209V31.4173" stroke="#344054" stroke-width="3" stroke-linecap="round" stroke-linejoin="round"/>
<path d="M43.75 27.083C43.7458 29.8821 43.1148 32.6448 41.9036 35.1684C40.6923 37.6919 38.9313 39.9122 36.75 41.6663H13.25C10.7793 39.6795 8.85275 37.0986 7.65047 34.165C6.44819 31.2313 6.00943 28.0407 6.37521 24.8914C6.741 21.7422 7.89938 18.7371 9.74206 16.1571C11.5847 13.5771 14.0515 11.5065 16.9118 10.1389C19.7722 8.77126 22.9325 8.15126 26.0976 8.33684C29.2626 8.52243 32.3288 9.50754 35.0097 11.2001C37.6906 12.8926 39.8985 15.2373 41.427 18.015C42.9555 20.7926 43.7548 23.9125 43.75 27.083V27.083Z" stroke="#306CFE" stroke-width="2" stroke-linecap="round" stroke-linejoin="round"/>
</svg>
