<svg width="50" height="50" viewBox="0 0 50 50" fill="none" xmlns="http://www.w3.org/2000/svg">
<path d="M41.6667 18.75H8.33333C7.7808 18.75 7.25089 18.5305 6.86019 18.1398C6.46949 17.7491 6.25 17.2192 6.25 16.6667V8.33333C6.25 7.7808 6.46949 7.25089 6.86019 6.86019C7.25089 6.46949 7.7808 6.25 8.33333 6.25H41.6667C42.2192 6.25 42.7491 6.46949 43.1398 6.86019C43.5305 7.25089 43.75 7.7808 43.75 8.33333V16.6667C43.75 17.2192 43.5305 17.7491 43.1398 18.1398C42.7491 18.5305 42.2192 18.75 41.6667 18.75ZM41.6667 43.75H8.33333C7.7808 43.75 7.25089 43.5305 6.86019 43.1398C6.46949 42.7491 6.25 42.2192 6.25 41.6667V33.3333C6.25 32.7808 6.46949 32.2509 6.86019 31.8602C7.25089 31.4695 7.7808 31.25 8.33333 31.25H41.6667C42.2192 31.25 42.7491 31.4695 43.1398 31.8602C43.5305 32.2509 43.75 32.7808 43.75 33.3333V41.6667C43.75 42.2192 43.5305 42.7491 43.1398 43.1398C42.7491 43.5305 42.2192 43.75 41.6667 43.75Z" stroke="#306CFE" stroke-width="2" stroke-linecap="round" stroke-linejoin="round"/>
<path d="M41.6667 18.75H8.33333C7.18274 18.75 6.25 19.6827 6.25 20.8333V29.1667C6.25 30.3173 7.18274 31.25 8.33333 31.25H41.6667C42.8173 31.25 43.75 30.3173 43.75 29.1667V20.8333C43.75 19.6827 42.8173 18.75 41.6667 18.75Z" stroke="#344054" stroke-width="2" stroke-linecap="round" stroke-linejoin="round"/>
</svg>
