<svg width="50" height="50" viewBox="0 0 50 50" fill="none" xmlns="http://www.w3.org/2000/svg">
<path d="M15.7083 39.584H8.33333C7.7808 39.584 7.25089 39.3645 6.86019 38.9738C6.46949 38.5831 6.25 38.0532 6.25 37.5006V10.4173C6.25 9.86478 6.46949 9.33488 6.86019 8.94418C7.25089 8.55348 7.7808 8.33398 8.33333 8.33398H41.6667C42.2192 8.33398 42.7491 8.55348 43.1398 8.94418C43.5305 9.33488 43.75 9.86478 43.75 10.4173V37.5006C43.75 38.0532 43.5305 38.5831 43.1398 38.9738C42.7491 39.3645 42.2192 39.584 41.6667 39.584H34.2917" stroke="#306CFE" stroke-width="2" stroke-linecap="round" stroke-linejoin="round"/>
<path d="M6.25 18.75H43.75M25 18.75C22.5277 18.75 20.111 19.4831 18.0554 20.8566C15.9998 22.2301 14.3976 24.1824 13.4515 26.4665C12.5054 28.7505 12.2579 31.2639 12.7402 33.6886C13.2225 36.1134 14.413 38.3407 16.1612 40.0888C17.9093 41.837 20.1366 43.0275 22.5614 43.5098C24.9861 43.9921 27.4995 43.7446 29.7835 42.7985C32.0676 41.8524 34.0199 40.2502 35.3934 38.1946C36.7669 36.139 37.5 33.7223 37.5 31.25C37.5 27.9348 36.183 24.7554 33.8388 22.4112C31.4946 20.067 28.3152 18.75 25 18.75Z" stroke="#306CFE" stroke-width="2" stroke-linecap="round" stroke-linejoin="round"/>
<path d="M33.3337 6.25V12.5V6.25ZM16.667 6.25V12.5V6.25ZM25.0003 34L27.7087 35.4167L27.1878 32.3958L29.2712 30.3125L26.2503 29.875L25.0003 27.0833L23.6462 29.8333L20.6253 30.2708L22.7087 32.3542L22.292 35.4167L25.0003 34Z" stroke="#344054" stroke-width="2" stroke-linecap="round" stroke-linejoin="round"/>
</svg>
