<svg width="50" height="50" viewBox="0 0 50 50" fill="none" xmlns="http://www.w3.org/2000/svg">
<path d="M41.6667 43.7493H8.33333C7.7808 43.7493 7.25089 43.5299 6.86019 43.1392C6.46949 42.7485 6.25 42.2185 6.25 41.666V20.8327H43.75V41.666C43.75 42.2185 43.5305 42.7485 43.1398 43.1392C42.7491 43.5299 42.2192 43.7493 41.6667 43.7493ZM43.75 12.4993C43.75 11.9468 43.5305 11.4169 43.1398 11.0262C42.7491 10.6355 42.2192 10.416 41.6667 10.416H8.33333C7.7808 10.416 7.25089 10.6355 6.86019 11.0262C6.46949 11.4169 6.25 11.9468 6.25 12.4993V20.8327H43.75V12.4993Z" stroke="#306CFE" stroke-width="2" stroke-linecap="round" stroke-linejoin="round"/>
<path d="M33.333 6.25V14.5833" stroke="#344054" stroke-width="2" stroke-linecap="round" stroke-linejoin="round"/>
<path d="M16.667 6.25V14.5833" stroke="#344054" stroke-width="2" stroke-linecap="round" stroke-linejoin="round"/>
</svg>
