<svg width="50" height="50" viewBox="0 0 50 50" fill="none" xmlns="http://www.w3.org/2000/svg">
<path d="M33.3337 14.5833V8.33333C33.3337 7.7808 33.1142 7.25089 32.7235 6.86019C32.3328 6.46949 31.8029 6.25 31.2503 6.25H18.7503C18.1978 6.25 17.6679 6.46949 17.2772 6.86019C16.8865 7.25089 16.667 7.7808 16.667 8.33333V14.5833" stroke="#344054" stroke-width="2" stroke-linecap="round" stroke-linejoin="round"/>
<path d="M8.33301 14.584H41.6663M37.4997 41.6673V14.584H12.4997V41.6673C12.4997 42.2199 12.7192 42.7498 13.1099 43.1405C13.5006 43.5312 14.0305 43.7506 14.583 43.7506H35.4163C35.9689 43.7506 36.4988 43.5312 36.8895 43.1405C37.2802 42.7498 37.4997 42.2199 37.4997 41.6673Z" stroke="#306CFE" stroke-width="2" stroke-linecap="round" stroke-linejoin="round"/>
</svg>
