<svg width="50" height="50" viewBox="0 0 50 50" fill="none" xmlns="http://www.w3.org/2000/svg">
<path d="M25.0003 22.9167V35.4167M33.3337 14.5833V8.33333C33.3337 7.7808 33.1142 7.25089 32.7235 6.86019C32.3328 6.46949 31.8029 6.25 31.2503 6.25H18.7503C18.1978 6.25 17.6679 6.46949 17.2772 6.86019C16.8865 7.25089 16.667 7.7808 16.667 8.33333V14.5833H33.3337Z" stroke="#344054" stroke-width="2" stroke-linecap="round" stroke-linejoin="round"/>
<path d="M8.33301 14.584H41.6663H8.33301ZM35.5622 41.8131L37.4997 14.584H12.4997L14.4372 41.8131C14.4741 42.34 14.7099 42.8332 15.0966 43.1929C15.4834 43.5526 15.9923 43.7519 16.5205 43.7506H33.4788C34.007 43.7519 34.516 43.5526 34.9027 43.1929C35.2895 42.8332 35.5252 42.34 35.5622 41.8131V41.8131Z" stroke="#306CFE" stroke-width="2" stroke-linecap="round" stroke-linejoin="round"/>
</svg>
