<svg width="50" height="50" viewBox="0 0 50 50" fill="none" xmlns="http://www.w3.org/2000/svg">
<path d="M19.1045 35.416H27.0837V12.4993C27.0837 11.9468 26.8642 11.4169 26.4735 11.0262C26.0828 10.6355 25.5529 10.416 25.0003 10.416H10.417" stroke="#306CFE" stroke-width="2" stroke-linecap="round" stroke-linejoin="round"/>
<path d="M6.25 27.084V33.334C6.25 33.8865 6.46949 34.4164 6.86019 34.8071C7.25089 35.1978 7.7808 35.4173 8.33333 35.4173H10.1458" stroke="#306CFE" stroke-width="2" stroke-linecap="round" stroke-linejoin="round"/>
<path d="M30.9788 35.4168H27.083V14.5835H35.9372C36.4048 14.5662 36.8646 14.7068 37.2425 14.9827C37.6204 15.2586 37.8945 15.6537 38.0205 16.1043L39.583 21.8751L42.1663 22.521C42.6286 22.635 43.0378 22.904 43.3259 23.283C43.614 23.6621 43.7635 24.1284 43.7497 24.6043V33.3335C43.7497 33.886 43.5302 34.4159 43.1395 34.8066C42.7488 35.1973 42.2189 35.4168 41.6663 35.4168H39.8122" stroke="#306CFE" stroke-width="2" stroke-linecap="round" stroke-linejoin="round"/>
<path d="M6.25 18.75H18.75M14.5833 31.25C13.7592 31.25 12.9537 31.4944 12.2685 31.9522C11.5833 32.4101 11.0492 33.0608 10.7338 33.8222C10.4185 34.5835 10.336 35.4213 10.4967 36.2295C10.6575 37.0378 11.0543 37.7802 11.6371 38.3629C12.2198 38.9457 12.9622 39.3425 13.7705 39.5033C14.5787 39.664 15.4165 39.5815 16.1778 39.2662C16.9392 38.9508 17.59 38.4168 18.0478 37.7315C18.5056 37.0463 18.75 36.2408 18.75 35.4167C18.75 34.3116 18.311 33.2518 17.5296 32.4704C16.7482 31.689 15.6884 31.25 14.5833 31.25ZM35.4167 31.25C34.5926 31.25 33.787 31.4944 33.1018 31.9522C32.4166 32.4101 31.8825 33.0608 31.5672 33.8222C31.2518 34.5835 31.1693 35.4213 31.3301 36.2295C31.4908 37.0378 31.8877 37.7802 32.4704 38.3629C33.0531 38.9457 33.7955 39.3425 34.6038 39.5033C35.412 39.664 36.2498 39.5815 37.0112 39.2662C37.7725 38.9508 38.4233 38.4168 38.8811 37.7315C39.339 37.0463 39.5833 36.2408 39.5833 35.4167C39.5833 34.3116 39.1443 33.2518 38.3629 32.4704C37.5815 31.689 36.5217 31.25 35.4167 31.25Z" stroke="#344054" stroke-width="2" stroke-linecap="round" stroke-linejoin="round"/>
</svg>
