<svg width="50" height="50" viewBox="0 0 50 50" fill="none" xmlns="http://www.w3.org/2000/svg">
<path d="M12.5 43.7494V21.0827C12.4968 19.2327 13.1092 17.4343 14.2408 15.9707C15.3724 14.5072 16.9588 13.4618 18.75 12.9993L25 11.416" stroke="#306CFE" stroke-width="2" stroke-linecap="round" stroke-linejoin="round"/>
<path d="M6.25 43.75H27.0833" stroke="#306CFE" stroke-width="2" stroke-linecap="round" stroke-linejoin="round"/>
<path d="M35.0414 13.1872L32.9581 8.66641C32.4912 7.66356 31.645 6.88725 30.6058 6.50827C29.5665 6.12929 28.4193 6.17868 27.4164 6.64557C26.4136 7.11246 25.6373 7.95861 25.2583 8.99788C24.8793 10.0371 24.9287 11.1844 25.3956 12.1872L27.4789 16.6039" stroke="#306CFE" stroke-width="2" stroke-linecap="round" stroke-linejoin="round"/>
<path d="M30.9178 14.1872C32.9209 13.2531 35.2129 13.153 37.2898 13.909C39.3666 14.6649 41.0581 16.2148 41.9922 18.2179L43.7531 21.9942L28.648 29.0378L26.8871 25.2615C25.953 23.2585 25.8529 20.9664 26.6088 18.8896C27.3648 16.8127 28.9147 15.1212 30.9178 14.1872V14.1872Z" stroke="#344054" stroke-width="2" stroke-linecap="round" stroke-linejoin="round"/>
</svg>
