<svg width="50" height="50" viewBox="0 0 50 50" fill="none" xmlns="http://www.w3.org/2000/svg">
<path d="M14.583 43.75H31.2497H14.583ZM27.083 12.5V8.33333C27.083 7.7808 26.8635 7.25089 26.4728 6.86019C26.0821 6.46949 25.5522 6.25 24.9997 6.25H20.833C20.2805 6.25 19.7506 6.46949 19.3599 6.86019C18.9692 7.25089 18.7497 7.7808 18.7497 8.33333V12.5H27.083ZM18.7497 25V43.75H27.083V25H18.7497Z" stroke="#306CFE" stroke-width="2" stroke-linecap="round" stroke-linejoin="round"/>
<path d="M12.5003 12.5C11.9478 12.5 11.4179 12.7195 11.0272 13.1102C10.6365 13.5009 10.417 14.0308 10.417 14.5833V22.9167C10.417 23.4692 10.6365 23.9991 11.0272 24.3898C11.4179 24.7805 11.9478 25 12.5003 25H34.7295C35.0726 24.9982 35.41 24.9117 35.7117 24.7482C36.0133 24.5846 36.2699 24.3491 36.4587 24.0625L39.2295 19.8958C39.4535 19.5557 39.5729 19.1573 39.5729 18.75C39.5729 18.3427 39.4535 17.9443 39.2295 17.6042L36.4587 13.4375C36.2699 13.1509 36.0133 12.9154 35.7117 12.7518C35.41 12.5883 35.0726 12.5018 34.7295 12.5H12.5003Z" stroke="#344054" stroke-width="2" stroke-linecap="round" stroke-linejoin="round"/>
</svg>
