<svg width="50" height="50" viewBox="0 0 50 50" fill="none" xmlns="http://www.w3.org/2000/svg">
<path d="M43.2295 17.3548L41.3545 15.2715C41.1597 15.0557 40.9219 14.883 40.6564 14.7646C40.3909 14.6462 40.1035 14.5847 39.8128 14.584H29.167V22.9173H39.8128C40.1035 22.9166 40.3909 22.8551 40.6564 22.7367C40.9219 22.6183 41.1597 22.4456 41.3545 22.2298L43.2295 20.1465C43.575 19.7637 43.7662 19.2663 43.7662 18.7507C43.7662 18.235 43.575 17.7376 43.2295 17.3548ZM6.77112 24.3132L8.64612 26.3965C8.8409 26.6123 9.07869 26.785 9.34421 26.9034C9.60972 27.0218 9.89707 27.0833 10.1878 27.084H20.8336V18.7507H10.1878C9.89707 18.7513 9.60972 18.8129 9.34421 18.9313C9.07869 19.0497 8.8409 19.2223 8.64612 19.4382L6.77112 21.5215C6.42562 21.9043 6.23438 22.4016 6.23438 22.9173C6.23438 23.433 6.42562 23.9303 6.77112 24.3132V24.3132Z" stroke="#344054" stroke-width="2" stroke-linecap="round" stroke-linejoin="round"/>
<path d="M16.667 43.75H33.3337M29.167 43.75H20.8337V8.33333C20.8337 7.7808 21.0532 7.25089 21.4439 6.86019C21.8346 6.46949 22.3645 6.25 22.917 6.25H27.0837C27.6362 6.25 28.1661 6.46949 28.5568 6.86019C28.9475 7.25089 29.167 7.7808 29.167 8.33333V43.75Z" stroke="#306CFE" stroke-width="2" stroke-linecap="round" stroke-linejoin="round"/>
</svg>
