<svg width="50" height="50" viewBox="0 0 50 50" fill="none" xmlns="http://www.w3.org/2000/svg">
<path d="M30.1042 30.2077H30.3125M19.6875 19.791H19.8958H19.6875Z" stroke="#344054" stroke-width="3" stroke-linecap="round" stroke-linejoin="round"/>
<path d="M18.75 31.25L31.25 18.75" stroke="#344054" stroke-width="2" stroke-linecap="round" stroke-linejoin="round"/>
<path d="M42.125 19.4383C41.5 17.5425 41.9167 15.105 40.7708 13.5425C39.625 11.98 37.1667 11.5841 35.5833 10.4175C34 9.25079 32.9167 7.06329 31.0208 6.45913C29.125 5.85496 27.0833 7.00079 25 7.00079C22.9167 7.00079 20.8333 5.85496 18.9792 6.45913C17.125 7.06329 16 9.29246 14.4167 10.4175C12.8333 11.5425 10.4167 11.9383 9.22917 13.5425C8.04167 15.1466 8.5 17.5425 7.875 19.4383C7.25 21.3341 5.5 22.9175 5.5 25.0008C5.5 27.0841 7.29167 28.73 7.875 30.5633C8.45833 32.3966 8.08333 34.8966 9.22917 36.4591C10.375 38.0216 12.8333 38.4175 14.4167 39.5633C16 40.7091 17.0833 42.9383 18.9792 43.5425C20.875 44.1466 22.9167 43.0008 25 43.0008C27.0833 43.0008 29.1667 44.1466 31.0208 43.5425C32.875 42.9383 34 40.7091 35.5833 39.5633C37.1667 38.4175 39.625 38.0633 40.7708 36.4591C41.9167 34.855 41.5 32.4591 42.125 30.5633C42.75 28.6675 44.5 27.0841 44.5 25.0008C44.5 22.9175 42.7083 21.2716 42.125 19.4383Z" stroke="#306CFE" stroke-width="2" stroke-linecap="round" stroke-linejoin="round"/>
</svg>
