<svg width="50" height="50" viewBox="0 0 50 50" fill="none" xmlns="http://www.w3.org/2000/svg">
<path d="M24.9997 8.33398C24.1756 8.33398 23.37 8.57836 22.6848 9.03619C21.9996 9.49403 21.4655 10.1448 21.1502 10.9061C20.8348 11.6675 20.7523 12.5053 20.9131 13.3135C21.0738 14.1218 21.4707 14.8642 22.0534 15.4469C22.6361 16.0296 23.3785 16.4265 24.1868 16.5873C24.9951 16.748 25.8328 16.6655 26.5942 16.3501C27.3555 16.0348 28.0063 15.5007 28.4641 14.8155C28.922 14.1303 29.1663 13.3247 29.1663 12.5007C29.1663 11.3956 28.7274 10.3358 27.946 9.55437C27.1646 8.77297 26.1047 8.33398 24.9997 8.33398V8.33398ZM29.1663 37.5006C29.1663 36.6766 28.922 35.871 28.4641 35.1858C28.0063 34.5006 27.3555 33.9665 26.5942 33.6512C25.8328 33.3358 24.9951 33.2533 24.1868 33.414C23.3785 33.5748 22.6361 33.9717 22.0534 34.5544C21.4707 35.1371 21.0738 35.8795 20.9131 36.6878C20.7523 37.496 20.8348 38.3338 21.1502 39.0952C21.4655 39.8565 21.9996 40.5073 22.6848 40.9651C23.37 41.4229 24.1756 41.6673 24.9997 41.6673C26.1047 41.6673 27.1646 41.2283 27.946 40.4469C28.7274 39.6655 29.1663 38.6057 29.1663 37.5006Z" stroke="#344054" stroke-width="2" stroke-linecap="round" stroke-linejoin="round"/>
<path d="M6.25 25H43.75" stroke="#306CFE" stroke-width="2" stroke-linecap="round" stroke-linejoin="round"/>
</svg>
