<svg width="50" height="50" viewBox="0 0 50 50" fill="none" xmlns="http://www.w3.org/2000/svg">
<path d="M35.417 11.2923L38.1878 14.2298L43.7503 8.33398" stroke="#344054" stroke-width="2" stroke-linecap="round" stroke-linejoin="round"/>
<path d="M29.167 39.5833H43.7503M29.167 31.25H43.7503H29.167Z" stroke="#344054" stroke-width="2" stroke-linecap="round" stroke-linejoin="round"/>
<path d="M20.8333 36.4583V6.25V36.4583ZM13.5417 29.1667C12.0995 29.1667 10.6897 29.5943 9.49064 30.3955C8.29153 31.1968 7.35694 32.3356 6.80505 33.6679C6.25316 35.0003 6.10876 36.4664 6.39011 37.8809C6.67146 39.2953 7.36593 40.5946 8.38568 41.6143C9.40544 42.6341 10.7047 43.3285 12.1191 43.6099C13.5336 43.8912 14.9997 43.7468 16.3321 43.195C17.6644 42.6431 18.8033 41.7085 19.6045 40.5094C20.4057 39.3103 20.8333 37.9005 20.8333 36.4583C20.8333 34.5245 20.0651 32.6698 18.6977 31.3023C17.3302 29.9349 15.4755 29.1667 13.5417 29.1667V29.1667Z" stroke="#306CFE" stroke-width="2" stroke-linecap="round" stroke-linejoin="round"/>
</svg>
