<svg width="50" height="50" viewBox="0 0 50 50" fill="none" xmlns="http://www.w3.org/2000/svg">
<path d="M29.1663 22.9167V33.3333C29.1663 34.7013 28.8969 36.0558 28.3734 37.3196C27.8499 38.5834 27.0826 39.7318 26.1154 40.699C25.1481 41.6663 23.9998 42.4336 22.736 42.9571C21.4722 43.4806 20.1176 43.75 18.7497 43.75C15.987 43.75 13.3375 42.6525 11.384 40.699C9.43047 38.7455 8.33301 36.096 8.33301 33.3333V16.6667C8.33301 13.904 9.43047 11.2545 11.384 9.30097C13.3375 7.34747 15.987 6.25 18.7497 6.25V6.25C21.151 6.24951 23.4788 7.07872 25.3391 8.59728C27.1993 10.1158 28.4777 12.2305 28.958 14.5833" stroke="#306CFE" stroke-width="2" stroke-linecap="round" stroke-linejoin="round"/>
<path d="M37.5 22.9173H22.9167C21.8116 22.9173 20.7518 22.4783 19.9704 21.6969C19.189 20.9155 18.75 19.8557 18.75 18.7507C18.75 17.6456 19.189 16.5858 19.9704 15.8044C20.7518 15.023 21.8116 14.584 22.9167 14.584H37.5C38.6051 14.584 39.6649 15.023 40.4463 15.8044C41.2277 16.5858 41.6667 17.6456 41.6667 18.7507C41.6667 19.8557 41.2277 20.9155 40.4463 21.6969C39.6649 22.4783 38.6051 22.9173 37.5 22.9173Z" stroke="#344054" stroke-width="2" stroke-linecap="round" stroke-linejoin="round"/>
<path d="M18.6455 33.334H18.8538" stroke="#344054" stroke-width="3" stroke-linecap="round" stroke-linejoin="round"/>
</svg>
