<svg width="50" height="50" viewBox="0 0 50 50" fill="none" xmlns="http://www.w3.org/2000/svg">
<path d="M33.3337 20.834V25.0007M16.667 25.0007V20.834V25.0007Z" stroke="#344054" stroke-width="2" stroke-linecap="round" stroke-linejoin="round"/>
<path d="M43.75 6.25H6.25M10.4167 43.75H39.5833C40.1359 43.75 40.6658 43.5305 41.0565 43.1398C41.4472 42.7491 41.6667 42.2192 41.6667 41.6667V6.25H8.33333V41.6667C8.33333 42.2192 8.55283 42.7491 8.94353 43.1398C9.33423 43.5305 9.86413 43.75 10.4167 43.75ZM10.4167 43.75H25V6.25H8.33333V41.6667C8.33333 42.2192 8.55283 42.7491 8.94353 43.1398C9.33423 43.5305 9.86413 43.75 10.4167 43.75Z" stroke="#306CFE" stroke-width="2" stroke-linecap="round" stroke-linejoin="round"/>
</svg>
