<svg width="50" height="50" viewBox="0 0 50 50" fill="none" xmlns="http://www.w3.org/2000/svg">
<path d="M35.4167 16.666H41.6667C42.2192 16.666 42.7491 16.8855 43.1398 17.2762C43.5305 17.6669 43.75 18.1968 43.75 18.7493V41.666C43.75 42.2186 43.5305 42.7485 43.1398 43.1392C42.7491 43.5299 42.2192 43.7494 41.6667 43.7494H8.33333C7.7808 43.7494 7.25089 43.5299 6.86019 43.1392C6.46949 42.7485 6.25 42.2186 6.25 41.666V18.7493C6.25 18.1968 6.46949 17.6669 6.86019 17.2762C7.25089 16.8855 7.7808 16.666 8.33333 16.666H22.9167" stroke="#344054" stroke-width="2" stroke-linecap="round" stroke-linejoin="round"/>
<path d="M8.33333 16.6658C7.7808 16.6658 7.25089 16.8853 6.86019 17.276C6.46949 17.6667 6.25 18.1966 6.25 18.7492V41.6659C6.25 42.2184 6.46949 42.7483 6.86019 43.139C7.25089 43.5297 7.7808 43.7492 8.33333 43.7492H14.5833V16.6658H8.33333ZM38.9792 9.77002L36.0625 6.85335C35.6731 6.47163 35.1495 6.25781 34.6042 6.25781C34.0589 6.25781 33.5353 6.47163 33.1458 6.85335L22.9167 17.0825V22.9158H28.75L38.9792 12.6867C39.3609 12.2972 39.5747 11.7737 39.5747 11.2283C39.5747 10.683 39.3609 10.1595 38.9792 9.77002V9.77002Z" stroke="#306CFE" stroke-width="2" stroke-linecap="round" stroke-linejoin="round"/>
</svg>
