<svg width="50" height="50" viewBox="0 0 50 50" fill="none" xmlns="http://www.w3.org/2000/svg">
<path d="M39.5837 37.5V41.6667M10.417 37.5V41.6667V37.5Z" stroke="#344054" stroke-width="2" stroke-linecap="round" stroke-linejoin="round"/>
<path d="M6.25 8.33398H43.75M10.4167 37.5006H39.5833C40.1359 37.5006 40.6658 37.2812 41.0565 36.8905C41.4472 36.4998 41.6667 35.9699 41.6667 35.4173V16.6673H8.33333V35.4173C8.33333 35.9699 8.55283 36.4998 8.94353 36.8905C9.33423 37.2812 9.86413 37.5006 10.4167 37.5006ZM10.4167 37.5006H25V16.6673H8.33333V35.4173C8.33333 35.9699 8.55283 36.4998 8.94353 36.8905C9.33423 37.2812 9.86413 37.5006 10.4167 37.5006ZM8.33333 16.6673H41.6667V8.33398H8.33333V16.6673Z" stroke="#306CFE" stroke-width="2" stroke-linecap="round" stroke-linejoin="round"/>
</svg>
