<svg width="50" height="50" viewBox="0 0 50 50" fill="none" xmlns="http://www.w3.org/2000/svg">
<path d="M14.5834 20.02L12.6043 11.3117C12.4704 10.7036 12.4745 10.0732 12.6163 9.46686C12.7582 8.86054 13.0341 8.29372 13.4238 7.80807C13.8135 7.32242 14.3071 6.93029 14.8683 6.66052C15.4296 6.39075 16.0441 6.2502 16.6668 6.24919H33.3334C33.9649 6.23438 34.5914 6.36331 35.1657 6.62624C35.7399 6.88916 36.2469 7.2792 36.6483 7.76686C37.0496 8.25453 37.3349 8.82705 37.4825 9.44117C37.63 10.0553 37.6361 10.6949 37.5001 11.3117L35.4168 20.0617" stroke="#344054" stroke-width="2" stroke-linecap="round" stroke-linejoin="round"/>
<path d="M18.75 35.416H31.25" stroke="#344054" stroke-width="2" stroke-linecap="round" stroke-linejoin="round"/>
<path d="M35.792 43.749H14.2087C13.497 43.754 12.796 43.5766 12.1724 43.2338C11.5487 42.891 11.0233 42.3942 10.6462 41.7907C9.14862 39.2598 8.34738 36.3778 8.32378 33.4372C8.30018 30.4965 9.05505 27.602 10.5118 25.0474C11.9685 22.4928 14.0752 20.3692 16.618 18.892C19.1608 17.4148 22.0492 16.6367 24.9899 16.6367C27.9306 16.6367 30.819 17.4148 33.3618 18.892C35.9046 20.3692 38.0113 22.4928 39.4681 25.0474C40.9248 27.602 41.6796 30.4965 41.656 33.4372C41.6324 36.3778 40.8312 39.2598 39.3337 41.7907C38.9584 42.3912 38.4362 42.8861 37.8166 43.2287C37.1969 43.5714 36.5001 43.7505 35.792 43.749V43.749Z" stroke="#306CFE" stroke-width="2" stroke-linecap="round" stroke-linejoin="round"/>
</svg>
