<svg width="50" height="50" viewBox="0 0 50 50" fill="none" xmlns="http://www.w3.org/2000/svg">
<path d="M37.5 18.75V43.75M12.5 43.75V18.75V43.75Z" stroke="#344054" stroke-width="2" stroke-linecap="round" stroke-linejoin="round"/>
<path d="M14.583 18.75H10.4163C9.86381 18.75 9.3339 18.5305 8.9432 18.1398C8.5525 17.7491 8.33301 17.2192 8.33301 16.6667V8.33333C8.33301 7.7808 8.5525 7.25089 8.9432 6.86019C9.3339 6.46949 9.86381 6.25 10.4163 6.25H14.583C16.2406 6.25 17.8303 6.90848 19.0024 8.08058C20.1745 9.25269 20.833 10.8424 20.833 12.5V12.5C20.833 14.1576 20.1745 15.7473 19.0024 16.9194C17.8303 18.0915 16.2406 18.75 14.583 18.75ZM35.4163 18.75H39.583C40.1355 18.75 40.6654 18.5305 41.0561 18.1398C41.4468 17.7491 41.6663 17.2192 41.6663 16.6667V8.33333C41.6663 7.7808 41.4468 7.25089 41.0561 6.86019C40.6654 6.46949 40.1355 6.25 39.583 6.25H35.4163C33.7587 6.25 32.169 6.90848 30.9969 8.08058C29.8248 9.25269 29.1663 10.8424 29.1663 12.5V12.5C29.1663 14.1576 29.8248 15.7473 30.9969 16.9194C32.169 18.0915 33.7587 18.75 35.4163 18.75Z" stroke="#306CFE" stroke-width="2" stroke-linecap="round" stroke-linejoin="round"/>
</svg>
