<svg width="50" height="50" viewBox="0 0 50 50" fill="none" xmlns="http://www.w3.org/2000/svg">
<path d="M13.6876 26.6042C12.8976 24.7832 12.4932 22.8183 12.5001 20.8333C12.5001 16.9656 14.0365 13.2563 16.7714 10.5214C19.5064 7.78645 23.2157 6.25 27.0834 6.25C30.9512 6.25 34.6605 7.78645 37.3954 10.5214C40.1303 13.2563 41.6668 16.9656 41.6668 20.8333" stroke="#344054" stroke-width="2" stroke-linecap="round" stroke-linejoin="round"/>
<path d="M18.7503 33.334L16.667 35.4173" stroke="#344054" stroke-width="2" stroke-linecap="round" stroke-linejoin="round"/>
<path d="M35.8198 28.0415L22.5616 41.2997C20.9988 42.8626 18.8792 43.7405 16.669 43.7405C14.4589 43.7405 12.3393 42.8626 10.7765 41.2998C10.0026 40.5259 9.38882 39.6073 8.97003 38.5962C8.55124 37.5852 8.33569 36.5015 8.33569 35.4072C8.33569 34.3128 8.55124 33.2292 8.97003 32.2182C9.38882 31.2071 10.0026 30.2885 10.7765 29.5146L24.0347 16.2564C24.4254 15.8657 24.9553 15.6462 25.5079 15.6462C26.0604 15.6462 26.5903 15.8657 26.981 16.2564L35.8198 25.0952C36.2105 25.4859 36.43 26.0158 36.43 26.5684C36.43 27.1209 36.2105 27.6508 35.8198 28.0415V28.0415Z" stroke="#306CFE" stroke-width="2" stroke-linecap="round" stroke-linejoin="round"/>
</svg>
