<svg width="50" height="50" viewBox="0 0 50 50" fill="none" xmlns="http://www.w3.org/2000/svg">
<path d="M43.1455 33.5207L32.9163 43.7498H27.083V37.9165L37.3122 27.6873C37.7016 27.3056 38.2252 27.0918 38.7705 27.0918C39.3158 27.0918 39.8394 27.3056 40.2288 27.6873L43.1455 30.604C43.5272 30.9934 43.741 31.517 43.741 32.0623C43.741 32.6077 43.5272 33.1312 43.1455 33.5207V33.5207Z" stroke="#344054" stroke-width="2" stroke-linecap="round" stroke-linejoin="round"/>
<path d="M35.4169 19.3121C35.4273 19.1247 35.4273 18.9369 35.4169 18.7495C35.4104 16.3178 34.6947 13.9407 33.3575 11.9096C32.0203 9.8785 30.1197 8.28154 27.8885 7.31437C25.6573 6.34721 23.1925 6.05185 20.796 6.46447C18.3995 6.8771 16.1753 7.9798 14.3961 9.63747C12.6169 11.2951 11.3598 13.4358 10.7789 15.7972C10.198 18.1585 10.3185 20.6381 11.1256 22.932C11.9327 25.2259 13.3914 27.2346 15.3229 28.712C17.2545 30.1893 19.5751 31.0712 22.0003 31.2495" stroke="#306CFE" stroke-width="2" stroke-linecap="round" stroke-linejoin="round"/>
<path d="M18.75 43.7494C9.47917 42.9785 6.25 39.5827 6.25 39.5827V37.4993C6.2573 35.2923 6.96541 33.1447 8.27218 31.3661C9.57895 29.5876 11.4169 28.27 13.5208 27.6035" stroke="#306CFE" stroke-width="2" stroke-linecap="round" stroke-linejoin="round"/>
</svg>
