<svg width="50" height="50" viewBox="0 0 50 50" fill="none" xmlns="http://www.w3.org/2000/svg">
<path d="M42.5208 13.3545L36.6458 7.47953C36.4522 7.28426 36.2217 7.12927 35.9679 7.0235C35.714 6.91774 35.4417 6.86328 35.1667 6.86328C34.8916 6.86328 34.6193 6.91774 34.3655 7.0235C34.1116 7.12927 33.8812 7.28426 33.6875 7.47953L27.6875 13.4795L36.5208 22.3129L42.5208 16.3129C42.7161 16.1192 42.8711 15.8888 42.9769 15.6349C43.0826 15.381 43.1371 15.1087 43.1371 14.8337C43.1371 14.5587 43.0826 14.2864 42.9769 14.0325C42.8711 13.7786 42.7161 13.5482 42.5208 13.3545Z" stroke="#344054" stroke-width="2" stroke-linecap="round" stroke-linejoin="round"/>
<path d="M21.8125 19.3535L30.6458 28.1868L15.0833 43.7494H6.25V34.916L21.8125 19.3535Z" stroke="#306CFE" stroke-width="2" stroke-linecap="round" stroke-linejoin="round"/>
</svg>
