<svg width="50" height="50" viewBox="0 0 50 50" fill="none" xmlns="http://www.w3.org/2000/svg">
<path d="M28.7087 27.1865L22.917 27.0824V21.2907L36.3128 7.89488C36.7032 7.50686 37.2312 7.28906 37.7816 7.28906C38.332 7.28906 38.86 7.50686 39.2503 7.89488L42.2087 10.8532C42.5967 11.2436 42.8145 11.7716 42.8145 12.322C42.8145 12.8724 42.5967 13.4004 42.2087 13.7907L28.7087 27.1865Z" stroke="#344054" stroke-width="2" stroke-linecap="round" stroke-linejoin="round"/>
<path d="M43.75 25C43.75 28.7084 42.6503 32.3335 40.5901 35.4169C38.5298 38.5004 35.6014 40.9036 32.1753 42.3227C28.7492 43.7419 24.9792 44.1132 21.3421 43.3897C17.7049 42.6663 14.364 40.8805 11.7418 38.2582C9.11952 35.636 7.33376 32.2951 6.61028 28.6579C5.88681 25.0208 6.25812 21.2508 7.67727 17.8247C9.09641 14.3986 11.4996 11.4702 14.5831 9.40995C17.6665 7.34967 21.2916 6.25 25 6.25" stroke="#306CFE" stroke-width="2" stroke-linecap="round" stroke-linejoin="round"/>
</svg>
