<svg width="50" height="50" viewBox="0 0 50 50" fill="none" xmlns="http://www.w3.org/2000/svg">
<path d="M33.3333 6.25V10.4167H37.5L33.3333 6.25ZM23.8542 30.4792C24.1943 30.7032 24.5927 30.8226 25 30.8226C25.4073 30.8226 25.8057 30.7032 26.1458 30.4792L37.5 22.9167V10.4167L33.3333 6.25H14.5833C14.0308 6.25 13.5009 6.46949 13.1102 6.86019C12.7195 7.25089 12.5 7.7808 12.5 8.33333V22.9167L23.8542 30.4792Z" stroke="#344054" stroke-width="2" stroke-linecap="round" stroke-linejoin="round"/>
<path d="M26.1462 30.4784L40.5212 20.8325C40.8345 20.6262 41.1977 20.5083 41.5725 20.4913C41.9473 20.4742 42.3197 20.5587 42.6505 20.7359C42.9812 20.913 43.258 21.1761 43.4516 21.4975C43.6452 21.8188 43.7484 22.1865 43.7503 22.5617V41.6659C43.7503 42.2184 43.5308 42.7483 43.1401 43.139C42.7494 43.5297 42.2195 43.7492 41.667 43.7492H8.33365C7.78112 43.7492 7.25121 43.5297 6.86051 43.139C6.46981 42.7483 6.25032 42.2184 6.25032 41.6659V22.645C6.23684 22.2628 6.32883 21.8843 6.51621 21.5509C6.7036 21.2175 6.97914 20.9421 7.31265 20.7549C7.64616 20.5677 8.02476 20.4759 8.40696 20.4896C8.78917 20.5033 9.16023 20.622 9.47949 20.8325L23.8545 30.395C24.1864 30.6316 24.5805 30.7656 24.9878 30.7804C25.3952 30.7952 25.7979 30.6902 26.1462 30.4784Z" stroke="#306CFE" stroke-width="2" stroke-linecap="round" stroke-linejoin="round"/>
</svg>
