<svg width="50" height="50" viewBox="0 0 50 50" fill="none" xmlns="http://www.w3.org/2000/svg">
<path d="M39.5837 24.9993C39.5837 24.9993 33.0628 33.3327 25.0003 33.3327C16.9378 33.3327 10.417 24.9993 10.417 24.9993C10.417 24.9993 16.9378 16.666 25.0003 16.666C33.0628 16.666 39.5837 24.9993 39.5837 24.9993ZM25.0003 20.8327C24.1762 20.8327 23.3707 21.0771 22.6854 21.5349C22.0002 21.9927 21.4662 22.6435 21.1508 23.4048C20.8355 24.1662 20.7529 25.004 20.9137 25.8122C21.0745 26.6205 21.4713 27.3629 22.054 27.9456C22.6368 28.5283 23.3792 28.9252 24.1874 29.086C24.9957 29.2467 25.8335 29.1642 26.5948 28.8488C27.3562 28.5335 28.0069 27.9994 28.4648 27.3142C28.9226 26.629 29.167 25.8234 29.167 24.9993C29.167 23.8943 28.728 22.8345 27.9466 22.0531C27.1652 21.2717 26.1054 20.8327 25.0003 20.8327Z" stroke="#344054" stroke-width="2" stroke-linecap="round" stroke-linejoin="round"/>
<path d="M6.25 14.5833V8.33333C6.25 7.7808 6.46949 7.25089 6.86019 6.86019C7.25089 6.46949 7.7808 6.25 8.33333 6.25H14.5833" stroke="#306CFE" stroke-width="2" stroke-linecap="round" stroke-linejoin="round"/>
<path d="M43.7503 14.5833V8.33333C43.7503 7.7808 43.5308 7.25089 43.1401 6.86019C42.7494 6.46949 42.2195 6.25 41.667 6.25H35.417" stroke="#306CFE" stroke-width="2" stroke-linecap="round" stroke-linejoin="round"/>
<path d="M6.25 35.416V41.666C6.25 42.2185 6.46949 42.7485 6.86019 43.1392C7.25089 43.5299 7.7808 43.7493 8.33333 43.7493H14.5833" stroke="#306CFE" stroke-width="2" stroke-linecap="round" stroke-linejoin="round"/>
<path d="M43.7503 35.416V41.666C43.7503 42.2185 43.5308 42.7485 43.1401 43.1392C42.7494 43.5299 42.2195 43.7493 41.667 43.7493H35.417" stroke="#306CFE" stroke-width="2" stroke-linecap="round" stroke-linejoin="round"/>
</svg>
