<svg width="50" height="50" viewBox="0 0 50 50" fill="none" xmlns="http://www.w3.org/2000/svg">
<path d="M40.7712 11.334C42.6808 13.2511 43.753 15.8468 43.753 18.5527C43.753 21.2586 42.6808 23.8543 40.7712 25.7715L25.0004 41.6673L9.22957 25.7715C7.81133 24.3437 6.84577 22.5292 6.45376 20.5553C6.06175 18.5814 6.2607 16.5357 7.02572 14.6742C7.79074 12.8128 9.08784 11.2185 10.7546 10.0907C12.4214 8.9629 14.3838 8.35184 16.3962 8.33398C19.0872 8.35031 21.6628 9.42849 23.5629 11.334C24.1171 11.8824 24.6001 12.4983 25.0004 13.1673C25.4008 12.4983 25.8837 11.8824 26.4379 11.334C27.3741 10.3841 28.4898 9.6298 29.7201 9.11495C30.9505 8.6001 32.2709 8.33497 33.6046 8.33497C34.9383 8.33497 36.2587 8.6001 37.489 9.11495C38.7193 9.6298 39.835 10.3841 40.7712 11.334V11.334Z" stroke="#306CFE" stroke-width="2" stroke-linecap="round" stroke-linejoin="round"/>
</svg>
