<svg width="50" height="50" viewBox="0 0 50 50" fill="none" xmlns="http://www.w3.org/2000/svg">
<path d="M43.7497 18.7507C43.7497 35.7923 24.9997 43.7507 24.9997 43.7507C24.9997 43.7507 6.24965 35.8757 6.24965 18.7507C6.13003 16.1308 7.04655 13.5691 8.80098 11.6198C10.5554 9.6704 13.0067 8.49003 15.6247 8.33398C18.2426 8.49003 20.6939 9.6704 22.4483 11.6198C24.2028 13.5691 25.1193 16.1308 24.9997 18.7507C24.88 16.1308 25.7965 13.5691 27.551 11.6198C29.3054 9.6704 31.7567 8.49003 34.3747 8.33398C36.9926 8.49003 39.4439 9.6704 41.1983 11.6198C42.9528 13.5691 43.8693 16.1308 43.7497 18.7507V18.7507Z" stroke="#306CFE" stroke-width="2" stroke-linecap="round" stroke-linejoin="round"/>
</svg>
