<svg width="50" height="50" viewBox="0 0 50 50" fill="none" xmlns="http://www.w3.org/2000/svg">
<path d="M31.25 39.5827L35.4167 43.7493L43.75 35.416" stroke="#344054" stroke-width="2" stroke-linecap="round" stroke-linejoin="round"/>
<path d="M35.417 6.25H12.5003C11.9478 6.25 11.4179 6.46949 11.0272 6.86019C10.6365 7.25089 10.417 7.7808 10.417 8.33333V18.75H18.7503L22.917 22.9167H39.5837V10.4167L35.417 6.25ZM35.417 6.25V10.4167H39.5837L35.417 6.25Z" stroke="#344054" stroke-width="2" stroke-linecap="round" stroke-linejoin="round"/>
<path d="M22.9167 43.75H8.33333C7.7808 43.75 7.25089 43.5305 6.86019 43.1398C6.46949 42.7491 6.25 42.2192 6.25 41.6667V20.8333C6.25 20.2808 6.46949 19.7509 6.86019 19.3602C7.25089 18.9695 7.7808 18.75 8.33333 18.75H18.75L22.9167 22.9167H41.6667C42.2192 22.9167 42.7491 23.1362 43.1398 23.5269C43.5305 23.9176 43.75 24.4475 43.75 25V27.0833" stroke="#306CFE" stroke-width="2" stroke-linecap="round" stroke-linejoin="round"/>
</svg>
