<svg width="50" height="50" viewBox="0 0 50 50" fill="none" xmlns="http://www.w3.org/2000/svg">
<path d="M14.583 18.75H27.083M35.4163 29.1667L32.833 33.9583L27.083 34.7292L31.2497 38.4792L30.2705 43.75L35.4163 41.25L40.5622 43.75L39.583 38.4792L43.7497 34.7292L37.9997 33.9583L35.4163 29.1667ZM14.583 27.0833H27.083H14.583Z" stroke="#344054" stroke-width="2" stroke-linecap="round" stroke-linejoin="round"/>
<path d="M20.8333 43.75H8.33333C7.7808 43.75 7.25089 43.5305 6.86019 43.1398C6.46949 42.7491 6.25 42.2192 6.25 41.6667V14.5833L14.5833 6.25H33.3333C33.8859 6.25 34.4158 6.46949 34.8065 6.86019C35.1972 7.25089 35.4167 7.7808 35.4167 8.33333V20.8333" stroke="#306CFE" stroke-width="2" stroke-linecap="round" stroke-linejoin="round"/>
</svg>
