<svg width="50" height="50" viewBox="0 0 50 50" fill="none" xmlns="http://www.w3.org/2000/svg">
<path d="M16.7708 35.416H16.5625" stroke="#344054" stroke-width="3" stroke-linecap="round" stroke-linejoin="round"/>
<path d="M33.4378 35.416H33.2295" stroke="#344054" stroke-width="3" stroke-linecap="round" stroke-linejoin="round"/>
<path d="M33.3337 12.5V20.8333M16.667 12.5V20.8333V12.5Z" stroke="#344054" stroke-width="2" stroke-linecap="round" stroke-linejoin="round"/>
<path d="M22.9163 45.8327H10.4163C9.86381 45.8327 9.3339 45.6132 8.9432 45.2225C8.5525 44.8318 8.33301 44.3019 8.33301 43.7494V6.24935C8.33301 5.69681 8.5525 5.16691 8.9432 4.77621C9.3339 4.38551 9.86381 4.16602 10.4163 4.16602H22.9163C23.4689 4.16602 23.9988 4.38551 24.3895 4.77621C24.7802 5.16691 24.9997 5.69681 24.9997 6.24935V43.7494C24.9997 44.3019 24.7802 44.8318 24.3895 45.2225C23.9988 45.6132 23.4689 45.8327 22.9163 45.8327ZM41.6663 43.7494V6.24935C41.6663 5.69681 41.4468 5.16691 41.0561 4.77621C40.6654 4.38551 40.1355 4.16602 39.583 4.16602H27.083C26.5305 4.16602 26.0006 4.38551 25.6099 4.77621C25.2192 5.16691 24.9997 5.69681 24.9997 6.24935V43.7494C24.9997 44.3019 25.2192 44.8318 25.6099 45.2225C26.0006 45.6132 26.5305 45.8327 27.083 45.8327H39.583C40.1355 45.8327 40.6654 45.6132 41.0561 45.2225C41.4468 44.8318 41.6663 44.3019 41.6663 43.7494Z" stroke="#306CFE" stroke-width="2" stroke-linecap="round" stroke-linejoin="round"/>
</svg>
