<svg width="50" height="50" viewBox="0 0 50 50" fill="none" xmlns="http://www.w3.org/2000/svg">
<path d="M18.75 22.9167H22.9167M20.8333 6.25V27.0833V6.25ZM18.75 14.5833H22.9167H18.75Z" stroke="#344054" stroke-width="2" stroke-linecap="round" stroke-linejoin="round"/>
<path d="M39.5837 10.4167V41.6667C39.5837 42.2192 39.3642 42.7491 38.9735 43.1398C38.5828 43.5305 38.0529 43.75 37.5003 43.75H12.5003C11.9478 43.75 11.4179 43.5305 11.0272 43.1398C10.6365 42.7491 10.417 42.2192 10.417 41.6667V8.33333C10.417 7.7808 10.6365 7.25089 11.0272 6.86019C11.4179 6.46949 11.9478 6.25 12.5003 6.25H35.417L39.5837 10.4167ZM35.417 6.25V10.4167H39.5837L35.417 6.25Z" stroke="#306CFE" stroke-width="2" stroke-linecap="round" stroke-linejoin="round"/>
</svg>
