<svg width="50" height="50" viewBox="0 0 50 50" fill="none" xmlns="http://www.w3.org/2000/svg">
<path d="M39.583 33.3338C39.6121 32.5052 39.4704 31.6795 39.1666 30.908C38.8628 30.1366 38.4034 29.4359 37.8172 28.8496C37.2309 28.2634 36.5302 27.804 35.7588 27.5003C34.9873 27.1965 34.1616 27.0547 33.333 27.0838V39.5838" stroke="#344054" stroke-width="2" stroke-linecap="round" stroke-linejoin="round"/>
<path d="M29.1667 43.7493C31.4679 43.7493 33.3333 41.8839 33.3333 39.5827C33.3333 37.2815 31.4679 35.416 29.1667 35.416C26.8655 35.416 25 37.2815 25 39.5827C25 41.8839 26.8655 43.7493 29.1667 43.7493Z" stroke="#344054" stroke-width="2" stroke-linecap="round" stroke-linejoin="round"/>
<path d="M39.5837 18.75V8.33333C39.5837 7.7808 39.3642 7.25089 38.9735 6.86019C38.5828 6.46949 38.0529 6.25 37.5003 6.25H14.5837L10.417 10.4167V41.6667C10.417 42.2192 10.6365 42.7491 11.0272 43.1398C11.4179 43.5305 11.9478 43.75 12.5003 43.75H16.667" stroke="#306CFE" stroke-width="2" stroke-linecap="round" stroke-linejoin="round"/>
<path d="M10.417 10.4167H14.5837V6.25L10.417 10.4167Z" stroke="#306CFE" stroke-width="2" stroke-linecap="round" stroke-linejoin="round"/>
</svg>
