<svg width="50" height="50" viewBox="0 0 50 50" fill="none" xmlns="http://www.w3.org/2000/svg">
<path d="M25 35.4167V43.75H37.5V35.4167H25ZM12.5 35.4167V43.75H25V35.4167H12.5ZM6.25 43.75H43.75H6.25ZM37.5 14.5833V6.25H25V14.5833H37.5ZM25 14.5833V6.25H12.5V14.5833H25ZM6.25 6.25H43.75H6.25ZM27.0833 25L22.9167 21.875V28.125L27.0833 25Z" stroke="#344054" stroke-width="2" stroke-linecap="round" stroke-linejoin="round"/>
<path d="M43.75 33.334V16.6673C43.75 15.5167 42.8173 14.584 41.6667 14.584L8.33334 14.584C7.18274 14.584 6.25 15.5167 6.25 16.6673V33.334C6.25 34.4846 7.18274 35.4173 8.33334 35.4173H41.6667C42.8173 35.4173 43.75 34.4846 43.75 33.334Z" stroke="#306CFE" stroke-width="2" stroke-linecap="round" stroke-linejoin="round"/>
</svg>
