<svg width="50" height="50" viewBox="0 0 50 50" fill="none" xmlns="http://www.w3.org/2000/svg">
<path d="M22.8125 17.709H23.0208" stroke="#344054" stroke-width="3" stroke-linecap="round" stroke-linejoin="round"/>
<path d="M15.5205 25H15.7288" stroke="#344054" stroke-width="3" stroke-linecap="round" stroke-linejoin="round"/>
<path d="M23.0208 32.291H22.8125" stroke="#344054" stroke-width="3" stroke-linecap="round" stroke-linejoin="round"/>
<path d="M30.1045 25H30.3128" stroke="#344054" stroke-width="3" stroke-linecap="round" stroke-linejoin="round"/>
<path d="M37.3333 33.334C35.872 35.8651 33.7707 37.9675 31.2403 39.4301C28.7099 40.8928 25.8394 41.6643 22.9167 41.6673H43.75C44.3025 41.6673 44.8324 41.4478 45.2231 41.0571C45.6138 40.6664 45.8333 40.1365 45.8333 39.584V35.4173C45.8333 34.8648 45.6138 34.3349 45.2231 33.9442C44.8324 33.5535 44.3025 33.334 43.75 33.334H37.3333ZM39.5833 25.0007C39.5833 28.297 38.6059 31.5193 36.7745 34.2602C34.9431 37.001 32.3402 39.1372 29.2947 40.3986C26.2493 41.6601 22.8982 41.9902 19.6652 41.3471C16.4322 40.704 13.4624 39.1166 11.1316 36.7858C8.80069 34.4549 7.21334 31.4852 6.57025 28.2522C5.92717 25.0191 6.25722 21.668 7.51868 18.6226C8.78014 15.5772 10.9164 12.9742 13.6572 11.1428C16.398 9.31147 19.6203 8.33398 22.9167 8.33398C27.3369 8.33398 31.5762 10.0899 34.7018 13.2155C37.8274 16.3411 39.5833 20.5804 39.5833 25.0007Z" stroke="#306CFE" stroke-width="2" stroke-linecap="round" stroke-linejoin="round"/>
</svg>
