<svg width="50" height="50" viewBox="0 0 50 50" fill="none" xmlns="http://www.w3.org/2000/svg">
<path d="M10.417 8.33333V13.8333C10.416 14.3201 10.5856 14.7918 10.8962 15.1667L20.3545 26.5C20.6651 26.8748 20.8346 27.3466 20.8337 27.8333V43.75L29.167 39.5833V27.8333C29.166 27.3466 29.3356 26.8748 29.6462 26.5L39.1045 15.1667C39.4151 14.7918 39.5846 14.3201 39.5837 13.8333V8.33333C39.5837 7.7808 39.3642 7.25089 38.9735 6.86019C38.5828 6.46949 38.0529 6.25 37.5003 6.25H12.5003C11.9478 6.25 11.4179 6.46949 11.0272 6.86019C10.6365 7.25089 10.417 7.7808 10.417 8.33333V8.33333Z" stroke="#306CFE" stroke-width="2" stroke-linecap="round" stroke-linejoin="round"/>
</svg>
