<svg width="50" height="50" viewBox="0 0 50 50" fill="none" xmlns="http://www.w3.org/2000/svg">
<path d="M39.5837 20.8333V6.25M10.417 6.25V35.4167V6.25ZM25.0003 14.5833V43.75V14.5833ZM39.5837 29.1667V43.75V29.1667Z" stroke="#306CFE" stroke-width="2" stroke-linecap="round" stroke-linejoin="round"/>
<path d="M10.4167 35.4167C9.59258 35.4167 8.787 35.661 8.10179 36.1189C7.41659 36.5767 6.88254 37.2275 6.56717 37.9888C6.25181 38.7502 6.16929 39.588 6.33006 40.3962C6.49083 41.2045 6.88767 41.9469 7.47039 42.5296C8.05311 43.1123 8.79554 43.5092 9.60379 43.6699C10.412 43.8307 11.2498 43.7482 12.0112 43.4328C12.7725 43.1175 13.4233 42.5834 13.8811 41.8982C14.339 41.213 14.5833 40.4074 14.5833 39.5833C14.5833 38.4783 14.1443 37.4185 13.3629 36.6371C12.5815 35.8557 11.5217 35.4167 10.4167 35.4167ZM25 6.25C24.1759 6.25 23.3703 6.49437 22.6851 6.95221C21.9999 7.41005 21.4659 8.06079 21.1505 8.82215C20.8351 9.58351 20.7526 10.4213 20.9134 11.2295C21.0742 12.0378 21.471 12.7802 22.0537 13.3629C22.6364 13.9457 23.3789 14.3425 24.1871 14.5033C24.9954 14.664 25.8332 14.5815 26.5945 14.2662C27.3559 13.9508 28.0066 13.4167 28.4645 12.7315C28.9223 12.0463 29.1667 11.2408 29.1667 10.4167C29.1667 9.3116 28.7277 8.25179 27.9463 7.47039C27.1649 6.68899 26.1051 6.25 25 6.25ZM39.5833 20.8333C38.7592 20.8333 37.9537 21.0777 37.2685 21.5355C36.5833 21.9934 36.0492 22.6441 35.7338 23.4055C35.4185 24.1668 35.336 25.0046 35.4967 25.8129C35.6575 26.6211 36.0543 27.3636 36.6371 27.9463C37.2198 28.529 37.9622 28.9258 38.7705 29.0866C39.5787 29.2474 40.4165 29.1649 41.1778 28.8495C41.9392 28.5341 42.5899 28.0001 43.0478 27.3149C43.5056 26.6297 43.75 25.8241 43.75 25C43.75 23.8949 43.311 22.8351 42.5296 22.0537C41.7482 21.2723 40.6884 20.8333 39.5833 20.8333Z" stroke="#344054" stroke-width="2" stroke-linecap="round" stroke-linejoin="round"/>
</svg>
