<svg width="50" height="50" viewBox="0 0 50 50" fill="none" xmlns="http://www.w3.org/2000/svg">
<path d="M9.27113 9.70833L20.8336 22.9167V43.75L29.167 39.5833V22.9167L40.7295 9.70833C40.9937 9.40755 41.1657 9.037 41.2248 8.64102C41.2839 8.24504 41.2277 7.84041 41.0629 7.47555C40.898 7.1107 40.6315 6.80106 40.2953 6.58372C39.9591 6.36637 39.5673 6.25051 39.167 6.25H10.8336C10.4333 6.25051 10.0415 6.36637 9.70528 6.58372C9.36905 6.80106 9.10256 7.1107 8.93771 7.47555C8.77287 7.84041 8.71665 8.24504 8.77578 8.64102C8.83491 9.037 9.00688 9.40755 9.27113 9.70833V9.70833Z" stroke="#306CFE" stroke-width="2" stroke-linecap="round" stroke-linejoin="round"/>
</svg>
