<svg width="50" height="50" viewBox="0 0 50 50" fill="none" xmlns="http://www.w3.org/2000/svg">
<path d="M16.667 14.584H33.3337H16.667ZM31.4795 37.2715C31.5424 35.3312 31.0819 33.4098 30.1462 31.709C29.9683 32.3149 29.6649 32.8766 29.2558 33.3576C28.8466 33.8385 28.3407 34.228 27.7712 34.5007C27.6442 32.9886 27.1607 31.5282 26.3604 30.239C25.5601 28.9498 24.4658 27.8686 23.167 27.084C23.167 32.6465 18.5212 32.6465 18.5212 37.2715C18.5042 38.127 18.6601 38.9772 18.9797 39.7709C19.2993 40.5647 19.7759 41.2857 20.381 41.8908C20.9861 42.4959 21.7071 42.9725 22.5009 43.2921C23.2947 43.6117 24.1448 43.7677 25.0003 43.7507C30.5628 43.7507 31.4795 40.1882 31.4795 37.2715Z" stroke="#344054" stroke-width="2" stroke-linecap="round" stroke-linejoin="round"/>
<path d="M6.25 6.25H43.75M41.6667 43.75H8.33333V6.25H41.6667V43.75ZM6.25 43.75H43.75H6.25Z" stroke="#306CFE" stroke-width="2" stroke-linecap="round" stroke-linejoin="round"/>
</svg>
