<svg width="50" height="50" viewBox="0 0 50 50" fill="none" xmlns="http://www.w3.org/2000/svg">
<path d="M31.25 33.334L35.4167 31.2507V35.4173C35.4167 37.6275 34.5387 39.7471 32.9759 41.3099C31.4131 42.8727 29.2935 43.7507 27.0833 43.7507C24.8732 43.7507 22.7536 42.8727 21.1908 41.3099C19.628 39.7471 18.75 37.6275 18.75 35.4173V20.834" stroke="#306CFE" stroke-width="2" stroke-linecap="round" stroke-linejoin="round"/>
<path d="M18.75 12.5V6.25" stroke="#306CFE" stroke-width="2" stroke-linecap="round" stroke-linejoin="round"/>
<path d="M18.7497 20.8333C21.0509 20.8333 22.9163 18.9679 22.9163 16.6667C22.9163 14.3655 21.0509 12.5 18.7497 12.5C16.4485 12.5 14.583 14.3655 14.583 16.6667C14.583 18.9679 16.4485 20.8333 18.7497 20.8333Z" stroke="#344054" stroke-width="2" stroke-linecap="round" stroke-linejoin="round"/>
</svg>
