<svg width="50" height="50" viewBox="0 0 50 50" fill="none" xmlns="http://www.w3.org/2000/svg">
<path d="M37.5 31.25C37.5026 33.5423 36.8749 35.7911 35.6854 37.7506C34.4959 39.7101 32.7906 41.3048 30.7558 42.3603C28.721 43.4158 26.4351 43.8914 24.1482 43.7352C21.8613 43.579 19.6613 42.797 17.789 41.4746C15.9166 40.1522 14.4439 38.3405 13.5319 36.2375C12.6199 34.1344 12.3038 31.8211 12.618 29.5505C12.9323 27.2799 13.8649 25.1394 15.3138 23.3632C16.7627 21.5869 18.6722 20.2433 20.8333 19.4792V6.25H29.1667V19.4792C31.6015 20.34 33.7099 21.9338 35.2021 24.0416C36.6943 26.1493 37.497 28.6675 37.5 31.25Z" stroke="#306CFE" stroke-width="2" stroke-linecap="round" stroke-linejoin="round"/>
<path d="M18.75 6.25H31.25" stroke="#344054" stroke-width="2" stroke-linecap="round" stroke-linejoin="round"/>
</svg>
