<svg width="50" height="50" viewBox="0 0 50 50" fill="none" xmlns="http://www.w3.org/2000/svg">
<path d="M37.4997 43.75H12.4997C12.1405 43.749 11.7877 43.6552 11.4754 43.4777C11.1632 43.3002 10.9022 43.0449 10.7177 42.7368C10.5332 42.4286 10.4315 42.0779 10.4225 41.7189C10.4135 41.3598 10.4975 41.0045 10.6663 40.6875L20.833 21.7917V6.25H29.1663V21.7917L39.333 40.6875C39.5018 41.0045 39.5858 41.3598 39.5768 41.7189C39.5678 42.0779 39.4661 42.4286 39.2816 42.7368C39.0971 43.0449 38.8361 43.3002 38.5239 43.4777C38.2117 43.6552 37.8588 43.749 37.4997 43.75V43.75Z" stroke="#306CFE" stroke-width="2" stroke-linecap="round" stroke-linejoin="round"/>
<path d="M18.75 6.25H31.25" stroke="#344054" stroke-width="2" stroke-linecap="round" stroke-linejoin="round"/>
</svg>
