<svg width="50" height="50" viewBox="0 0 50 50" fill="none" xmlns="http://www.w3.org/2000/svg">
<path d="M20.1455 6.89648L24.9997 10.4173L29.8538 6.89648" stroke="#344054" stroke-width="2" stroke-linecap="round" stroke-linejoin="round"/>
<path d="M6.29199 24.0202L11.1253 20.4993L9.29199 14.791" stroke="#344054" stroke-width="2" stroke-linecap="round" stroke-linejoin="round"/>
<path d="M37.5003 37.4994L33.5003 37.416L31.9795 42.3744" stroke="#344054" stroke-width="2" stroke-linecap="round" stroke-linejoin="round"/>
<path d="M12.5 37.4994L16.5 37.416L18.0208 42.3744" stroke="#344054" stroke-width="2" stroke-linecap="round" stroke-linejoin="round"/>
<path d="M40.7292 14.791L38.875 20.4993L43.7083 24.0202" stroke="#344054" stroke-width="2" stroke-linecap="round" stroke-linejoin="round"/>
<path d="M25 16.666V10.416V16.666ZM17.5208 22.1868L11.125 20.4994L17.5208 22.1868ZM20.5 31.2494L16.4375 37.4994L20.5 31.2494ZM29.5 31.2494L33.5625 37.4994L29.5 31.2494ZM32.2917 22.2285L38.875 20.4994L32.2917 22.2285ZM25 16.666L17.7083 22.2285L20.5 31.2494H29.5L32.2917 22.2285L25 16.666Z" stroke="#344054" stroke-width="2" stroke-linecap="round" stroke-linejoin="round"/>
<path d="M25 43.75C35.3553 43.75 43.75 35.3553 43.75 25C43.75 14.6447 35.3553 6.25 25 6.25C14.6447 6.25 6.25 14.6447 6.25 25C6.25 35.3553 14.6447 43.75 25 43.75Z" stroke="#306CFE" stroke-width="2" stroke-linecap="round" stroke-linejoin="round"/>
</svg>
