<svg width="50" height="50" viewBox="0 0 50 50" fill="none" xmlns="http://www.w3.org/2000/svg">
<path d="M27.0835 17.7078C27.0848 16.2935 26.6735 14.9096 25.9002 13.7254C25.1268 12.5413 24.0249 11.6085 22.7294 11.0411C22.3907 9.68972 21.6101 8.49021 20.5117 7.63313C19.4134 6.77605 18.0601 6.31055 16.6669 6.31055C15.2736 6.31055 13.9204 6.77605 12.822 7.63313C11.7236 8.49021 10.9431 9.68972 10.6044 11.0411C9.30607 11.6063 8.20104 12.5382 7.42492 13.7224C6.64879 14.9067 6.23535 16.2919 6.23535 17.7078C6.23535 19.1238 6.64879 20.5089 7.42492 21.6932C8.20104 22.8775 9.30607 23.8094 10.6044 24.3745C10.9431 25.7259 11.7236 26.9254 12.822 27.7825C13.9204 28.6396 15.2736 29.1051 16.6669 29.1051C18.0601 29.1051 19.4134 28.6396 20.5117 27.7825C21.6101 26.9254 22.3907 25.7259 22.7294 24.3745C24.0249 23.8071 25.1268 22.8743 25.9002 21.6902C26.6735 20.5061 27.0848 19.1221 27.0835 17.7078Z" stroke="#306CFE" stroke-width="2" stroke-linecap="round" stroke-linejoin="round"/>
<path d="M16.667 18.75V43.75" stroke="#344054" stroke-width="2" stroke-linecap="round" stroke-linejoin="round"/>
<path d="M39.583 31.25V43.75" stroke="#344054" stroke-width="2" stroke-linecap="round" stroke-linejoin="round"/>
<path d="M6.25 43.75H43.75" stroke="#306CFE" stroke-width="2" stroke-linecap="round" stroke-linejoin="round"/>
<path d="M43.75 27.0827V20.8327C43.75 18.5315 41.8845 16.666 39.5833 16.666C37.2821 16.666 35.4167 18.5315 35.4167 20.8327V27.0827C35.4167 29.3839 37.2821 31.2493 39.5833 31.2493C41.8845 31.2493 43.75 29.3839 43.75 27.0827Z" stroke="#306CFE" stroke-width="2" stroke-linecap="round" stroke-linejoin="round"/>
</svg>
