<svg width="50" height="50" viewBox="0 0 50 50" fill="none" xmlns="http://www.w3.org/2000/svg">
<path d="M43.7503 37.5H35.417V12.5" stroke="#306CFE" stroke-width="2" stroke-linecap="round" stroke-linejoin="round"/>
<path d="M10.4167 37.5007H8.33333C7.7808 37.5007 7.25089 37.2812 6.86019 36.8905C6.46949 36.4998 6.25 35.9699 6.25 35.4174V22.9174C6.25 22.3648 6.46949 21.8349 6.86019 21.4442C7.25089 21.0535 7.7808 20.834 8.33333 20.834H15.375C15.7633 20.8313 16.1445 20.9372 16.4759 21.1396C16.8072 21.3421 17.0753 21.6331 17.25 21.9799L18.75 25.0007H35.4167V37.5007" stroke="#306CFE" stroke-width="2" stroke-linecap="round" stroke-linejoin="round"/>
<path d="M27.0837 37.5H18.917" stroke="#306CFE" stroke-width="2" stroke-linecap="round" stroke-linejoin="round"/>
<path d="M10.417 20.5829V10.4162C10.417 9.86371 10.6365 9.33381 11.0272 8.94311C11.4179 8.55241 11.9478 8.33292 12.5003 8.33292H21.292C21.7679 8.31905 22.2342 8.46861 22.6133 8.75669C22.9923 9.04478 23.2613 9.45401 23.3753 9.91625L27.0837 24.7287" stroke="#306CFE" stroke-width="2" stroke-linecap="round" stroke-linejoin="round"/>
<path d="M31.2503 33.334C32.0744 33.334 32.88 33.5784 33.5652 34.0362C34.2504 34.494 34.7845 35.1448 35.0998 35.9061C35.4152 36.6675 35.4977 37.5053 35.3369 38.3135C35.1762 39.1218 34.7793 39.8642 34.1966 40.4469C33.6139 41.0296 32.8715 41.4265 32.0632 41.5873C31.2549 41.748 30.4172 41.6655 29.6558 41.3501C28.8945 41.0348 28.2437 40.5007 27.7859 39.8155C27.328 39.1303 27.0837 38.3247 27.0837 37.5007C27.0837 36.3956 27.5226 35.3358 28.304 34.5544C29.0854 33.773 30.1453 33.334 31.2503 33.334ZM10.417 37.5007C10.417 38.3247 10.6614 39.1303 11.1192 39.8155C11.577 40.5007 12.2278 41.0348 12.9891 41.3501C13.7505 41.6655 14.5883 41.748 15.3965 41.5873C16.2048 41.4265 16.9472 41.0296 17.5299 40.4469C18.1127 39.8642 18.5095 39.1218 18.6703 38.3135C18.831 37.5053 18.7485 36.6675 18.4332 35.9061C18.1178 35.1448 17.5837 34.494 16.8985 34.0362C16.2133 33.5784 15.4077 33.334 14.5837 33.334C13.4786 33.334 12.4188 33.773 11.6374 34.5544C10.856 35.3358 10.417 36.3956 10.417 37.5007V37.5007Z" stroke="#344054" stroke-width="2" stroke-linecap="round" stroke-linejoin="round"/>
</svg>
