<svg width="50" height="50" viewBox="0 0 50 50" fill="none" xmlns="http://www.w3.org/2000/svg">
<path d="M33.4587 28.6875L41.5003 34.25C42.1257 34.6851 42.6479 35.2521 43.0303 35.9111C43.4127 36.57 43.6458 37.3048 43.7134 38.0636C43.7809 38.8225 43.6811 39.5869 43.4211 40.3029C43.161 41.019 42.7471 41.6693 42.2084 42.208C41.6697 42.7467 41.0193 43.1607 40.3033 43.4207C39.5872 43.6808 38.8228 43.7805 38.0639 43.713C37.3051 43.6455 36.5703 43.4123 35.9114 43.03C35.2525 42.6476 34.6855 42.1253 34.2503 41.5L28.667 33.4375" stroke="#344054" stroke-width="2" stroke-linecap="round" stroke-linejoin="round"/>
<path d="M20.8333 35.4167C28.8875 35.4167 35.4167 28.8875 35.4167 20.8333C35.4167 12.7792 28.8875 6.25 20.8333 6.25C12.7792 6.25 6.25 12.7792 6.25 20.8333C6.25 28.8875 12.7792 35.4167 20.8333 35.4167Z" stroke="#306CFE" stroke-width="2" stroke-linecap="round" stroke-linejoin="round"/>
</svg>
