<svg width="50" height="50" viewBox="0 0 50 50" fill="none" xmlns="http://www.w3.org/2000/svg">
<path d="M10.417 41.666H41.667C42.2195 41.666 42.7494 41.4465 43.1401 41.0558C43.5308 40.6651 43.7503 40.1352 43.7503 39.5827V16.666" stroke="#344054" stroke-width="2" stroke-linecap="round" stroke-linejoin="round"/>
<path d="M23.4167 25.3548L15.4375 33.334H8.33333C7.7808 33.334 7.25089 33.1145 6.86019 32.7238C6.46949 32.3331 6.25 31.8032 6.25 31.2507V28.0006L16.1667 18.084L23.4167 25.3548ZM29.3333 19.4382L15.4375 33.334H33.3333C33.8859 33.334 34.4158 33.1145 34.8065 32.7238C35.1972 32.3331 35.4167 31.8032 35.4167 31.2507V25.5423L29.3333 19.4382ZM8.33333 8.33398H33.3333C33.8859 8.33398 34.4158 8.55348 34.8065 8.94418C35.1972 9.33488 35.4167 9.86478 35.4167 10.4173V31.2507C35.4167 31.8032 35.1972 32.3331 34.8065 32.7238C34.4158 33.1145 33.8859 33.334 33.3333 33.334H8.33333C7.7808 33.334 7.25089 33.1145 6.86019 32.7238C6.46949 32.3331 6.25 31.8032 6.25 31.2507V10.4173C6.25 9.86478 6.46949 9.33488 6.86019 8.94418C7.25089 8.55348 7.7808 8.33398 8.33333 8.33398V8.33398Z" stroke="#306CFE" stroke-width="2" stroke-linecap="round" stroke-linejoin="round"/>
</svg>
