<svg width="50" height="50" viewBox="0 0 50 50" fill="none" xmlns="http://www.w3.org/2000/svg">
<path d="M18.1458 20.834L6.25 32.7715V39.584C6.25 40.1365 6.46949 40.6664 6.86019 41.0571C7.25089 41.4478 7.7808 41.6673 8.33333 41.6673H17.2708L28.1042 30.834L18.1458 20.834ZM33.9375 25.0007L17.2708 41.6673H41.6667C42.2192 41.6673 42.7491 41.4478 43.1398 41.0571C43.5305 40.6664 43.75 40.1365 43.75 39.584V34.8132L33.9375 25.0007Z" stroke="#344054" stroke-width="2" stroke-linecap="round" stroke-linejoin="round"/>
<path d="M29.0003 17.2715H28.792" stroke="#344054" stroke-width="3" stroke-linecap="round" stroke-linejoin="round"/>
<path d="M41.6667 8.33398H8.33333C7.18274 8.33398 6.25 9.26672 6.25 10.4173V39.584C6.25 40.7346 7.18274 41.6673 8.33333 41.6673H41.6667C42.8173 41.6673 43.75 40.7346 43.75 39.584V10.4173C43.75 9.26672 42.8173 8.33398 41.6667 8.33398Z" stroke="#306CFE" stroke-width="2" stroke-linecap="round" stroke-linejoin="round"/>
</svg>
