<svg width="50" height="50" viewBox="0 0 50 50" fill="none" xmlns="http://www.w3.org/2000/svg">
<path d="M25 6.25V14.5833M31.25 14.5833H18.75L19.7917 18.75H30.2083L31.25 14.5833Z" stroke="#344054" stroke-width="2" stroke-linecap="round" stroke-linejoin="round"/>
<path d="M34.2294 14.584C36.3421 14.5788 38.3779 15.3763 39.925 16.8151C41.472 18.2538 42.4149 20.2265 42.5627 22.334L43.7502 39.0007C43.799 39.6297 43.7124 40.2619 43.4963 40.8547C43.2801 41.4475 42.9395 41.9871 42.4973 42.4372C42.0552 42.8872 41.5217 43.2373 40.9328 43.4639C40.344 43.6905 39.7134 43.7883 39.0836 43.7507C38.0708 43.659 37.1157 43.239 36.3635 42.5545C35.6114 41.8701 35.1034 40.9587 34.9169 39.959L33.3336 32.8965C33.2319 32.4227 32.9683 31.9991 32.588 31.6987C32.2078 31.3983 31.7347 31.2399 31.2502 31.2507H18.6252C18.1408 31.2399 17.6677 31.3983 17.2874 31.6987C16.9072 31.9991 16.6436 32.4227 16.5419 32.8965L15.0211 39.959C14.8346 40.9587 14.3266 41.8701 13.5744 42.5545C12.8223 43.239 11.8672 43.659 10.8544 43.7507C10.2297 43.7791 9.60606 43.6744 9.02479 43.4438C8.44352 43.2131 7.91787 42.8616 7.48261 42.4126C7.04736 41.9635 6.71242 41.4272 6.49997 40.839C6.28753 40.2508 6.20241 39.6242 6.25025 39.0007L7.43775 22.334C7.58563 20.2265 8.52847 18.2538 10.0755 16.8151C11.6226 15.3763 13.6584 14.5788 15.7711 14.584H34.2294Z" stroke="#306CFE" stroke-width="2" stroke-linecap="round" stroke-linejoin="round"/>
</svg>
