<svg width="50" height="50" viewBox="0 0 50 50" fill="none" xmlns="http://www.w3.org/2000/svg">
<path d="M32.7913 17.209L35.4163 14.584M32.3747 32.3757C30.9168 33.8298 29.0607 34.8193 27.0408 35.2191C25.0209 35.6189 22.9278 35.4111 21.0259 34.6219C19.1241 33.8327 17.4988 32.4975 16.3553 30.7851C15.2119 29.0727 14.6016 27.0598 14.6016 25.0007C14.6016 22.9416 15.2119 20.9286 16.3553 19.2162C17.4988 17.5038 19.1241 16.1686 21.0259 15.3794C22.9278 14.5902 25.0209 14.3824 27.0408 14.7822C29.0607 15.182 30.9168 16.1715 32.3747 17.6257C33.3447 18.5933 34.1144 19.7428 34.6395 21.0083C35.1647 22.2738 35.435 23.6305 35.435 25.0007C35.435 26.3708 35.1647 27.7275 34.6395 28.993C34.1144 30.2585 33.3447 31.408 32.3747 32.3757V32.3757ZM32.8122 32.8132L35.4163 35.4173L32.8122 32.8132ZM17.2705 32.7298L14.583 35.4173L17.2705 32.7298ZM17.208 17.209L14.583 14.584L17.208 17.209Z" stroke="#344054" stroke-width="2" stroke-linecap="round" stroke-linejoin="round"/>
<path d="M24.8955 25H25.1038" stroke="#344054" stroke-width="3" stroke-linecap="round" stroke-linejoin="round"/>
<path d="M43.75 41.6667V8.33333C43.75 7.18274 42.8173 6.25 41.6667 6.25L8.33334 6.25C7.18274 6.25 6.25 7.18274 6.25 8.33333V41.6667C6.25 42.8173 7.18274 43.75 8.33334 43.75H41.6667C42.8173 43.75 43.75 42.8173 43.75 41.6667Z" stroke="#306CFE" stroke-width="2" stroke-linecap="round" stroke-linejoin="round"/>
</svg>
