<svg width="50" height="50" viewBox="0 0 50 50" fill="none" xmlns="http://www.w3.org/2000/svg">
<path d="M31.2503 18.75L26.042 23.9583L31.2503 18.75ZM31.2503 12.5V18.75H37.5003L43.7503 12.5H37.5003V6.25L31.2503 12.5Z" stroke="#344054" stroke-width="2" stroke-linecap="round" stroke-linejoin="round"/>
<path d="M25.6875 6.25H25C21.2916 6.25 17.6665 7.34967 14.5831 9.40995C11.4996 11.4702 9.09641 14.3986 7.67727 17.8247C6.25812 21.2508 5.88681 25.0208 6.61028 28.6579C7.33376 32.2951 9.11952 35.636 11.7418 38.2582C14.364 40.8805 17.7049 42.6663 21.3421 43.3897C24.9792 44.1132 28.7492 43.7419 32.1753 42.3227C35.6014 40.9036 38.5298 38.5004 40.5901 35.4169C42.6503 32.3335 43.75 28.7084 43.75 25C43.75 24.7708 43.75 24.5417 43.75 24.3125" stroke="#306CFE" stroke-width="2" stroke-linecap="round" stroke-linejoin="round"/>
<path d="M35.2083 27.0827C34.8314 28.9262 33.9623 30.6333 32.6931 32.0225C31.424 33.4118 29.8022 34.4313 28.0001 34.9727C26.198 35.5142 24.2829 35.5574 22.4583 35.0978C20.6336 34.6382 18.9675 33.6929 17.6369 32.3624C16.3064 31.0318 15.3611 29.3657 14.9015 27.541C14.4418 25.7164 14.4851 23.8012 15.0265 21.9992C15.568 20.1971 16.5875 18.5753 17.9767 17.3061C19.366 16.037 21.073 15.1678 22.9166 14.791" stroke="#306CFE" stroke-width="2" stroke-linecap="round" stroke-linejoin="round"/>
</svg>
