<svg width="50" height="50" viewBox="0 0 50 50" fill="none" xmlns="http://www.w3.org/2000/svg">
<path d="M23.708 17.4993L20.833 17.8952L22.9163 19.7493L22.4163 22.3952L24.9997 21.1452L27.583 22.3952L27.083 19.7493L29.1663 17.8952L26.2913 17.4993L24.9997 15.1035L23.708 17.4993Z" stroke="#344054" stroke-width="2" stroke-linecap="round" stroke-linejoin="round"/>
<path d="M25 31.25C31.9036 31.25 37.5 25.6536 37.5 18.75C37.5 11.8464 31.9036 6.25 25 6.25C18.0964 6.25 12.5 11.8464 12.5 18.75C12.5 25.6536 18.0964 31.25 25 31.25Z" stroke="#306CFE" stroke-width="2" stroke-linecap="round" stroke-linejoin="round"/>
<path d="M33.9163 27.5C32.0734 29.3852 29.6817 30.6394 27.083 31.0833L31.2497 41.6667L34.3747 39.0625L38.7288 39.5L33.9163 27.5Z" stroke="#306CFE" stroke-width="2" stroke-linecap="round" stroke-linejoin="round"/>
<path d="M11.2705 39.5833L15.6247 39.1458L18.7497 41.6667L22.9163 31.0833C20.3177 30.6394 17.9259 29.3852 16.083 27.5L11.2705 39.5833Z" stroke="#306CFE" stroke-width="2" stroke-linecap="round" stroke-linejoin="round"/>
</svg>
