<svg width="50" height="50" viewBox="0 0 50 50" fill="none" xmlns="http://www.w3.org/2000/svg">
<path d="M25 27.084C28.4518 27.084 31.25 24.2858 31.25 20.834C31.25 17.3822 28.4518 14.584 25 14.584C21.5482 14.584 18.75 17.3822 18.75 20.834C18.75 24.2858 21.5482 27.084 25 27.084Z" stroke="#344054" stroke-width="2" stroke-linecap="round" stroke-linejoin="round"/>
<path d="M12.0625 28.2715L6.25 36.584L12.5625 38.459L16.4792 43.7507L22.3542 35.3757" stroke="#306CFE" stroke-width="2" stroke-linecap="round" stroke-linejoin="round"/>
<path d="M37.9372 28.2715L43.7497 36.584L37.4372 38.459L33.5205 43.7507L27.6455 35.3757" stroke="#306CFE" stroke-width="2" stroke-linecap="round" stroke-linejoin="round"/>
<path d="M40.1663 20.834C40.1663 22.4173 38.7705 23.7506 38.3122 25.1673C37.8538 26.584 38.1663 28.5215 37.2705 29.7506C36.3747 30.9798 34.458 31.2506 33.333 32.1673C32.208 33.084 31.2497 34.7923 29.7913 35.2715C28.333 35.7506 26.6872 34.834 25.1038 34.834C23.5205 34.834 21.833 35.7298 20.4163 35.2715C18.9997 34.8131 18.1038 33.0423 16.8747 32.1673C15.6455 31.2923 13.7288 30.9798 12.833 29.7506C11.9372 28.5215 12.2705 26.6256 11.7913 25.1673C11.3122 23.709 9.83301 22.4173 9.83301 20.834C9.83301 19.2506 11.2288 17.9173 11.6872 16.5006C12.1455 15.084 11.833 13.1465 12.7288 11.9173C13.6247 10.6881 15.5413 10.4173 16.7705 9.50062C17.9997 8.58396 18.7497 6.87562 20.3122 6.39646C21.8747 5.91729 23.4163 6.83396 24.9997 6.83396C26.583 6.83396 28.2705 5.93812 29.6872 6.39646C31.1038 6.85479 31.9997 8.62562 33.333 9.50062C34.6663 10.3756 36.4788 10.6881 37.3747 11.9173C38.2705 13.1465 37.9372 15.0423 38.4163 16.5006C38.8955 17.959 40.1663 19.2506 40.1663 20.834Z" stroke="#306CFE" stroke-width="2" stroke-linecap="round" stroke-linejoin="round"/>
</svg>
