<svg width="50" height="50" viewBox="0 0 50 50" fill="none" xmlns="http://www.w3.org/2000/svg">
<path d="M25 6.25V10.4167V6.25ZM43.75 25H39.5833H43.75ZM25 43.75V39.5833V43.75ZM6.25 25H10.4167H6.25ZM31.25 25C31.25 23.7639 30.8834 22.5555 30.1967 21.5277C29.5099 20.4999 28.5338 19.6988 27.3918 19.2258C26.2497 18.7527 24.9931 18.6289 23.7807 18.8701C22.5683 19.1112 21.4547 19.7065 20.5806 20.5806C19.7065 21.4547 19.1112 22.5683 18.8701 23.7807C18.6289 24.9931 18.7527 26.2497 19.2258 27.3918C19.6988 28.5338 20.4999 29.5099 21.5277 30.1967C22.5555 30.8834 23.7639 31.25 25 31.25C26.6576 31.25 28.2473 30.5915 29.4194 29.4194C30.5915 28.2473 31.25 26.6576 31.25 25Z" stroke="#344054" stroke-width="2" stroke-linecap="round" stroke-linejoin="round"/>
<path d="M25.0003 39.5827C33.0545 39.5827 39.5837 33.0535 39.5837 24.9993C39.5837 16.9452 33.0545 10.416 25.0003 10.416C16.9462 10.416 10.417 16.9452 10.417 24.9993C10.417 33.0535 16.9462 39.5827 25.0003 39.5827Z" stroke="#306CFE" stroke-width="2" stroke-linecap="round" stroke-linejoin="round"/>
</svg>
