<svg width="50" height="50" viewBox="0 0 50 50" fill="none" xmlns="http://www.w3.org/2000/svg">
<path d="M33.333 25L36.8747 35.4167" stroke="#344054" stroke-width="2" stroke-linecap="round" stroke-linejoin="round"/>
<path d="M10.417 43.7493L14.8753 23.666" stroke="#344054" stroke-width="2" stroke-linecap="round" stroke-linejoin="round"/>
<path d="M41.667 6.25V10.4167C41.667 14.8369 39.911 19.0762 36.7854 22.2018C33.6598 25.3274 29.4206 27.0833 25.0003 27.0833C20.5801 27.0833 16.3408 25.3274 13.2152 22.2018C10.0896 19.0762 8.33366 14.8369 8.33366 10.4167V6.25L41.667 6.25Z" stroke="#306CFE" stroke-width="2" stroke-linecap="round" stroke-linejoin="round"/>
<path d="M6.25 6.25H43.75" stroke="#344054" stroke-width="2" stroke-linecap="round" stroke-linejoin="round"/>
<path d="M37.4997 43.7493C39.8009 43.7493 41.6663 41.8839 41.6663 39.5827C41.6663 37.2815 39.8009 35.416 37.4997 35.416C35.1985 35.416 33.333 37.2815 33.333 39.5827C33.333 41.8839 35.1985 43.7493 37.4997 43.7493Z" stroke="#306CFE" stroke-width="2" stroke-linecap="round" stroke-linejoin="round"/>
</svg>
