<svg width="50" height="50" viewBox="0 0 50 50" fill="none" xmlns="http://www.w3.org/2000/svg">
<path d="M16.6663 10.416H8.33301M24.9997 31.2493V43.7493V31.2493ZM33.333 10.416H41.6663H33.333Z" stroke="#344054" stroke-width="2" stroke-linecap="round" stroke-linejoin="round"/>
<path d="M31.2503 22.9167H18.7503C18.1978 22.9167 17.6679 22.6972 17.2772 22.3065C16.8865 21.9158 16.667 21.3859 16.667 20.8333V8.33333C16.667 7.7808 16.8865 7.25089 17.2772 6.86019C17.6679 6.46949 18.1978 6.25 18.7503 6.25H31.2503C31.8029 6.25 32.3328 6.46949 32.7235 6.86019C33.1142 7.25089 33.3337 7.7808 33.3337 8.33333V20.8333C33.3337 21.3859 33.1142 21.9158 32.7235 22.3065C32.3328 22.6972 31.8029 22.9167 31.2503 22.9167ZM29.167 22.9167H20.8337V29.1667C20.8337 29.7192 21.0532 30.2491 21.4439 30.6398C21.8346 31.0305 22.3645 31.25 22.917 31.25H27.0837C27.6362 31.25 28.1661 31.0305 28.5568 30.6398C28.9475 30.2491 29.167 29.7192 29.167 29.1667V22.9167Z" stroke="#306CFE" stroke-width="2" stroke-linecap="round" stroke-linejoin="round"/>
</svg>
