<svg width="50" height="50" viewBox="0 0 50 50" fill="none" xmlns="http://www.w3.org/2000/svg">
<path d="M39.583 6.25H10.4163C9.86381 6.25 9.3339 6.46949 8.9432 6.86019C8.5525 7.25089 8.33301 7.7808 8.33301 8.33333V18.75H22.9163C23.4689 18.75 23.9988 18.9695 24.3895 19.3602C24.7802 19.7509 24.9997 20.2808 24.9997 20.8333V31.25H41.6663V8.33333C41.6663 7.7808 41.4469 7.25089 41.0562 6.86019C40.6655 6.46949 40.1355 6.25 39.583 6.25V6.25ZM24.9997 31.25V35.4167H41.6663C42.2189 35.4167 42.7488 35.1972 43.1395 34.8065C43.5302 34.4158 43.7497 33.8859 43.7497 33.3333V31.25H24.9997Z" stroke="#306CFE" stroke-width="2" stroke-linecap="round" stroke-linejoin="round"/>
<path d="M6.25 41.6667V20.8333C6.25 20.2808 6.46949 19.7509 6.86019 19.3602C7.25089 18.9695 7.7808 18.75 8.33333 18.75H22.9167C23.4692 18.75 23.9991 18.9695 24.3898 19.3602C24.7805 19.7509 25 20.2808 25 20.8333V41.6667C25 42.2192 24.7805 42.7491 24.3898 43.1398C23.9991 43.5305 23.4692 43.75 22.9167 43.75H8.33333C7.7808 43.75 7.25089 43.5305 6.86019 43.1398C6.46949 42.7491 6.25 42.2192 6.25 41.6667ZM13.5417 22.9167H17.7083L18.75 18.75H12.5L13.5417 22.9167Z" stroke="#344054" stroke-width="2" stroke-linecap="round" stroke-linejoin="round"/>
</svg>
