<svg width="50" height="50" viewBox="0 0 50 50" fill="none" xmlns="http://www.w3.org/2000/svg">
<path d="M27.0833 43.7494H39.5833C40.1359 43.7494 40.6658 43.5299 41.0565 43.1392C41.4472 42.7485 41.6667 42.2186 41.6667 41.666V33.3327C41.6667 32.7801 41.4472 32.2502 41.0565 31.8595C40.6658 31.4688 40.1359 31.2493 39.5833 31.2493H27.0833C26.5308 31.2493 26.0009 31.4688 25.6102 31.8595C25.2195 32.2502 25 32.7801 25 33.3327V41.666C25 42.2186 25.2195 42.7485 25.6102 43.1392C26.0009 43.5299 26.5308 43.7494 27.0833 43.7494ZM29.1667 27.0827V31.2493H37.5V27.0827C37.5 25.9776 37.061 24.9178 36.2796 24.1364C35.4982 23.355 34.4384 22.916 33.3333 22.916V22.916C32.2283 22.916 31.1685 23.355 30.3871 24.1364C29.6057 24.9178 29.1667 25.9776 29.1667 27.0827Z" stroke="#344054" stroke-width="2" stroke-linecap="round" stroke-linejoin="round"/>
<path d="M16.6663 43.75H10.4163C9.86381 43.75 9.3339 43.5305 8.9432 43.1398C8.5525 42.7491 8.33301 42.2192 8.33301 41.6667V8.33333C8.33301 7.7808 8.5525 7.25089 8.9432 6.86019C9.3339 6.46949 9.86381 6.25 10.4163 6.25H31.2497C31.8022 6.25 32.3321 6.46949 32.7228 6.86019C33.1135 7.25089 33.333 7.7808 33.333 8.33333V14.5833" stroke="#306CFE" stroke-width="2" stroke-linecap="round" stroke-linejoin="round"/>
<path d="M17.7087 10.4167H23.9587L25.0003 6.25H16.667L17.7087 10.4167Z" stroke="#306CFE" stroke-width="2" stroke-linecap="round" stroke-linejoin="round"/>
</svg>
