<svg width="50" height="50" viewBox="0 0 50 50" fill="none" xmlns="http://www.w3.org/2000/svg">
<path d="M23.4788 14.584L18.458 33.334M16.6663 20.834H35.4163H16.6663ZM14.583 29.1673H33.333H14.583ZM26.5205 35.4173L31.5413 16.6673L26.5205 35.4173Z" stroke="#344054" stroke-width="2" stroke-linecap="round" stroke-linejoin="round"/>
<path d="M6.25 25C6.25 20.0272 8.22544 15.2581 11.7417 11.7417C15.2581 8.22544 20.0272 6.25 25 6.25V6.25C29.9728 6.25 34.7419 8.22544 38.2582 11.7417C41.7746 15.2581 43.75 20.0272 43.75 25V25C43.75 29.9728 41.7746 34.7419 38.2582 38.2582C34.7419 41.7746 29.9728 43.75 25 43.75V43.75C20.0272 43.75 15.2581 41.7746 11.7417 38.2582C8.22544 34.7419 6.25 29.9728 6.25 25V25Z" stroke="#306CFE" stroke-width="2" stroke-linecap="round" stroke-linejoin="round"/>
</svg>
