<svg width="50" height="50" viewBox="0 0 50 50" fill="none" xmlns="http://www.w3.org/2000/svg">
<path d="M8.33335 29.1667L7.93751 25C7.71426 22.6243 7.98936 20.2281 8.7452 17.9648C9.50104 15.7015 10.721 13.6208 12.327 11.856C13.933 10.0911 15.8897 8.68096 18.0719 7.71564C20.2541 6.75032 22.6138 6.25113 25 6.25V6.25C27.3862 6.25113 29.7459 6.75032 31.9281 7.71564C34.1103 8.68096 36.067 10.0911 37.673 11.856C39.279 13.6208 40.499 15.7015 41.2548 17.9648C42.0107 20.2281 42.2858 22.6243 42.0625 25L41.6667 29.1667" stroke="#344054" stroke-width="2" stroke-linecap="round" stroke-linejoin="round"/>
<path d="M35.4167 35.416V37.4993C35.4797 38.5339 35.1323 39.5516 34.4497 40.3317C33.7672 41.1117 32.8046 41.5912 31.7708 41.666H25" stroke="#344054" stroke-width="2" stroke-linecap="round" stroke-linejoin="round"/>
<path d="M8.33301 29.1673V27.084C8.33301 25.4264 8.99149 23.8367 10.1636 22.6646C11.3357 21.4925 12.9254 20.834 14.583 20.834H16.6663C17.2189 20.834 17.7488 21.0535 18.1395 21.4442C18.5302 21.8349 18.7497 22.3648 18.7497 22.9173V33.334C18.7497 33.8865 18.5302 34.4164 18.1395 34.8071C17.7488 35.1978 17.2189 35.4173 16.6663 35.4173H14.583C12.9254 35.4173 11.3357 34.7588 10.1636 33.5867C8.99149 32.4146 8.33301 30.8249 8.33301 29.1673V29.1673ZM41.6663 29.1673V27.084C41.6663 25.4264 41.0079 23.8367 39.8358 22.6646C38.6637 21.4925 37.0739 20.834 35.4163 20.834H33.333C32.7805 20.834 32.2506 21.0535 31.8599 21.4442C31.4692 21.8349 31.2497 22.3648 31.2497 22.9173V33.334C31.2497 33.8865 31.4692 34.4164 31.8599 34.8071C32.2506 35.1978 32.7805 35.4173 33.333 35.4173H35.4163C37.0739 35.4173 38.6637 34.7588 39.8358 33.5867C41.0079 32.4146 41.6663 30.8249 41.6663 29.1673V29.1673Z" stroke="#306CFE" stroke-width="2" stroke-linecap="round" stroke-linejoin="round"/>
</svg>
