<svg width="50" height="50" viewBox="0 0 50 50" fill="none" xmlns="http://www.w3.org/2000/svg">
<path d="M12.5 6.25H37.5H12.5ZM14.5833 43.75H43.75H14.5833ZM25 6.25V14.5833V6.25ZM33.3333 35.4167H25V43.75H33.3333V35.4167Z" stroke="#344054" stroke-width="2" stroke-linecap="round" stroke-linejoin="round"/>
<path d="M25 14.584V25.0007C25 25.5532 25.2195 26.0831 25.6102 26.4738C26.0009 26.8645 26.5308 27.084 27.0833 27.084H43.6042" stroke="#306CFE" stroke-width="2" stroke-linecap="round" stroke-linejoin="round"/>
<path d="M6.25 16.6673V20.834C6.25 21.3865 6.46949 21.9164 6.86019 22.3071C7.25089 22.6978 7.7808 22.9173 8.33333 22.9173H13.0833C13.5376 22.8936 13.9872 23.0192 14.3634 23.2751C14.7396 23.5309 15.0217 23.9028 15.1667 24.334L16.9583 29.709C17.5034 31.3518 18.5465 32.7842 19.9428 33.8071C21.3391 34.8301 23.0193 35.3929 24.75 35.4173H41.6667C42.2192 35.4173 42.7491 35.1978 43.1398 34.8071C43.5305 34.4164 43.75 33.8865 43.75 33.334V27.084L39.8125 19.1882C39.1197 17.8037 38.0549 16.6395 36.7376 15.8263C35.4202 15.0131 33.9023 14.5829 32.3542 14.584H8.33333C7.7808 14.584 7.25089 14.8035 6.86019 15.1942C6.46949 15.5849 6.25 16.1148 6.25 16.6673V16.6673Z" stroke="#306CFE" stroke-width="2" stroke-linecap="round" stroke-linejoin="round"/>
</svg>
