<svg width="50" height="50" viewBox="0 0 50 50" fill="none" xmlns="http://www.w3.org/2000/svg">
<path d="M18.75 35.416V41.666C18.75 42.2185 18.9695 42.7485 19.3602 43.1392C19.7509 43.5299 20.2808 43.7493 20.8333 43.7493H35.4167C35.9692 43.7493 36.4991 43.5299 36.8898 43.1392C37.2805 42.7485 37.5 42.2185 37.5 41.666V37.4993" stroke="#344054" stroke-width="2" stroke-linecap="round" stroke-linejoin="round"/>
<path d="M22.9163 16.666H14.583" stroke="#344054" stroke-width="2" stroke-linecap="round" stroke-linejoin="round"/>
<path d="M6.25 33.3333V10.4167C6.25 9.86413 6.46949 9.33423 6.86019 8.94353C7.25089 8.55283 7.7808 8.33333 8.33333 8.33333H31.25V35.4167H8.33333C7.7808 35.4167 7.25089 35.1972 6.86019 34.8065C6.46949 34.4158 6.25 33.8859 6.25 33.3333ZM33.3333 37.5H41.6667C42.2192 37.5 42.7491 37.2805 43.1398 36.8898C43.5305 36.4991 43.75 35.9692 43.75 35.4167V8.33333C43.75 7.7808 43.5305 7.25089 43.1398 6.86019C42.7491 6.46949 42.2192 6.25 41.6667 6.25H33.3333C32.7808 6.25 32.2509 6.46949 31.8602 6.86019C31.4695 7.25089 31.25 7.7808 31.25 8.33333V35.4167C31.25 35.9692 31.4695 36.4991 31.8602 36.8898C32.2509 37.2805 32.7808 37.5 33.3333 37.5Z" stroke="#306CFE" stroke-width="2" stroke-linecap="round" stroke-linejoin="round"/>
</svg>
