<svg width="50" height="50" viewBox="0 0 50 50" fill="none" xmlns="http://www.w3.org/2000/svg">
<path d="M25 18.75C24.1759 18.75 23.3703 18.9944 22.6851 19.4522C21.9999 19.91 21.4659 20.5608 21.1505 21.3222C20.8351 22.0835 20.7526 22.9213 20.9134 23.7295C21.0742 24.5378 21.471 25.2802 22.0537 25.8629C22.6364 26.4457 23.3789 26.8425 24.1871 27.0033C24.9954 27.164 25.8332 27.0815 26.5945 26.7662C27.3559 26.4508 28.0066 25.9167 28.4645 25.2315C28.9223 24.5463 29.1667 23.7408 29.1667 22.9167C29.1667 21.8116 28.7277 20.7518 27.9463 19.9704C27.1649 19.189 26.1051 18.75 25 18.75ZM31.25 33.3333C31.25 31.6757 30.5915 30.086 29.4194 28.9139C28.2473 27.7418 26.6576 27.0833 25 27.0833C23.3424 27.0833 21.7527 27.7418 20.5806 28.9139C19.4085 30.086 18.75 31.6757 18.75 33.3333V35.4167H31.25V33.3333Z" stroke="#344054" stroke-width="2" stroke-linecap="round" stroke-linejoin="round"/>
<path d="M32.292 6.25H28.1253L26.042 10.4167H30.2087L32.292 6.25ZM19.792 10.4167H23.9587L21.8753 6.25H17.7087L19.792 10.4167ZM12.5003 10.4167H37.5003C38.0529 10.4167 38.5828 10.6362 38.9735 11.0269C39.3642 11.4176 39.5837 11.9475 39.5837 12.5V41.6667C39.5837 42.2192 39.3642 42.7491 38.9735 43.1398C38.5828 43.5305 38.0529 43.75 37.5003 43.75H12.5003C11.9478 43.75 11.4179 43.5305 11.0272 43.1398C10.6365 42.7491 10.417 42.2192 10.417 41.6667V12.5C10.417 11.9475 10.6365 11.4176 11.0272 11.0269C11.4179 10.6362 11.9478 10.4167 12.5003 10.4167V10.4167Z" stroke="#306CFE" stroke-width="2" stroke-linecap="round" stroke-linejoin="round"/>
</svg>
