<svg width="50" height="50" viewBox="0 0 50 50" fill="none" xmlns="http://www.w3.org/2000/svg">
<path d="M30.9167 30.8747C32.0616 31.8635 33.4703 32.4966 34.9699 32.6963C36.4695 32.896 37.9947 32.6537 39.3586 31.999C40.7224 31.3444 41.8655 30.3059 42.6476 29.0109C43.4297 27.7159 43.8168 26.2208 43.7615 24.709C43.7061 23.1972 43.2106 21.7345 42.3359 20.5002C41.4611 19.2659 40.2451 18.3138 38.837 17.7607C37.4289 17.2076 35.89 17.0775 34.4091 17.3864C32.9281 17.6953 31.5696 18.4298 30.5 19.4997L19.5 30.4997C18.4305 31.5696 17.0719 32.3041 15.591 32.613C14.11 32.9219 12.5711 32.7918 11.163 32.2387C9.75496 31.6855 8.53895 30.7334 7.6642 29.4992C6.78944 28.2649 6.29399 26.8021 6.23861 25.2903C6.18323 23.7785 6.57034 22.2834 7.35245 20.9884C8.13456 19.6935 9.27765 18.655 10.6415 18.0003C12.0053 17.3456 13.5306 17.1033 15.0302 17.303C16.5297 17.5028 17.9384 18.1359 19.0834 19.1247" stroke="#306CFE" stroke-width="2" stroke-linecap="round" stroke-linejoin="round"/>
</svg>
