<svg width="50" height="50" viewBox="0 0 50 50" fill="none" xmlns="http://www.w3.org/2000/svg">
<path d="M41.4789 30.5004C40.0193 31.9494 38.046 32.7626 35.9893 32.7626C33.9326 32.7626 31.9593 31.9494 30.4997 30.5004L24.9997 25.0004L30.4997 19.5004C31.9596 18.05 33.9351 17.238 35.9929 17.2423C38.0508 17.2466 40.0229 18.067 41.4766 19.5235C42.9303 20.98 43.747 22.9536 43.7474 25.0115C43.7478 27.0693 42.932 29.0433 41.4789 30.5004V30.5004ZM8.52058 30.5004C9.98015 31.9494 11.9534 32.7626 14.0102 32.7626C16.0669 32.7626 18.0402 31.9494 19.4997 30.5004L24.9997 25.0004L19.4997 19.5004C18.7781 18.7767 17.9208 18.2025 16.9769 17.8107C16.033 17.4188 15.021 17.217 13.9991 17.2168C12.9771 17.2166 11.965 17.418 11.021 17.8094C10.0769 18.2009 9.21936 18.7747 8.49738 19.498C7.7754 20.2214 7.2032 21.08 6.81355 22.0248C6.42389 22.9696 6.22442 23.982 6.22658 25.004C6.22873 26.026 6.43247 27.0375 6.82611 27.9807C7.21974 28.9238 7.79556 29.7801 8.52058 30.5004V30.5004Z" stroke="#306CFE" stroke-width="2" stroke-linecap="round" stroke-linejoin="round"/>
</svg>
