<svg width="50" height="50" viewBox="0 0 50 50" fill="none" xmlns="http://www.w3.org/2000/svg">
<path d="M25.1038 16.666H24.8955" stroke="#344054" stroke-width="3" stroke-linecap="round" stroke-linejoin="round"/>
<path d="M25 33.334V27.084" stroke="#344054" stroke-width="2" stroke-linecap="round" stroke-linejoin="round"/>
<path d="M6.4999 28.0629C6.98565 30.976 8.15264 33.7331 9.90583 36.1097C11.659 38.4863 13.9488 40.4152 16.5887 41.7392C19.2286 43.0632 22.1438 43.7449 25.0971 43.7287C28.0503 43.7126 30.958 42.9991 33.5832 41.6463L40.6457 43.1046C40.9832 43.1736 41.3325 43.1578 41.6624 43.0587C41.9923 42.9596 42.2925 42.7802 42.5361 42.5366C42.7797 42.293 42.959 41.9929 43.0582 41.663C43.1573 41.3331 43.1731 40.9838 43.1041 40.6463L41.6666 33.5629C43.025 30.9235 43.7374 27.9993 43.7451 25.0308C43.7527 22.0623 43.0554 19.1344 41.7106 16.488C40.3658 13.8417 38.4118 11.5524 36.0095 9.80859C33.6072 8.0648 30.8252 6.91631 27.8924 6.45762C24.9595 5.99893 21.9597 6.24314 19.1397 7.17018C16.3196 8.09721 13.76 9.68056 11.6714 11.79C9.58277 13.8994 8.02484 16.4745 7.12577 19.3036C6.22671 22.1327 6.0122 25.1348 6.4999 28.0629Z" stroke="#306CFE" stroke-width="2" stroke-linecap="round" stroke-linejoin="round"/>
</svg>
