<svg width="50" height="50" viewBox="0 0 50 50" fill="none" xmlns="http://www.w3.org/2000/svg">
<path d="M10.417 39.5833L11.2087 41.1667C11.5952 41.9414 12.1896 42.5933 12.9254 43.0496C13.6613 43.5058 14.5095 43.7483 15.3753 43.75C16.3561 43.7524 17.3127 43.4458 18.1093 42.8736C18.9059 42.3014 19.502 41.4927 19.8128 40.5625L25.0003 25L30.1878 9.43751C30.4987 8.50729 31.0948 7.69867 31.8913 7.12647C32.6879 6.55428 33.6445 6.24761 34.6253 6.25001V6.25001C35.4911 6.25171 36.3394 6.49424 37.0752 6.95046C37.8111 7.40668 38.4055 8.05861 38.792 8.83335L39.5837 10.4167" stroke="#306CFE" stroke-width="2" stroke-linecap="round" stroke-linejoin="round"/>
</svg>
