<svg width="50" height="50" viewBox="0 0 50 50" fill="none" xmlns="http://www.w3.org/2000/svg">
<path d="M33.333 21.875L29.3538 27.0833L27.083 24.4792" stroke="#344054" stroke-width="2" stroke-linecap="round" stroke-linejoin="round"/>
<path d="M16.6663 14.584H11.458C10.6292 14.584 9.83435 14.9132 9.2483 15.4993C8.66225 16.0853 8.33301 16.8802 8.33301 17.709C8.33301 18.5378 8.66225 19.3326 9.2483 19.9187C9.83435 20.5047 10.6292 20.834 11.458 20.834H13.5413C14.3701 20.834 15.165 21.1632 15.751 21.7493C16.3371 22.3353 16.6663 23.1302 16.6663 23.959C16.6663 24.7878 16.3371 25.5826 15.751 26.1687C15.165 26.7547 14.3701 27.084 13.5413 27.084H8.33301" stroke="#344054" stroke-width="2" stroke-linecap="round" stroke-linejoin="round"/>
<path d="M12.5 29.1667V27.0833M20.8333 35.4167H33.3333H20.8333ZM12.5 14.5833V12.5V14.5833Z" stroke="#344054" stroke-width="2" stroke-linecap="round" stroke-linejoin="round"/>
<path d="M12.5 37.5V41.6667C12.5 42.2192 12.7195 42.7491 13.1102 43.1398C13.5009 43.5305 14.0308 43.75 14.5833 43.75H39.5833C40.1359 43.75 40.6658 43.5305 41.0565 43.1398C41.4472 42.7491 41.6667 42.2192 41.6667 41.6667V8.33333C41.6667 7.7808 41.4472 7.25089 41.0565 6.86019C40.6658 6.46949 40.1359 6.25 39.5833 6.25H18.75" stroke="#306CFE" stroke-width="2" stroke-linecap="round" stroke-linejoin="round"/>
</svg>
