<svg width="50" height="50" viewBox="0 0 50 50" fill="none" xmlns="http://www.w3.org/2000/svg">
<path d="M35.417 35.416V41.666C35.417 42.2185 35.1975 42.7485 34.8068 43.1392C34.4161 43.5299 33.8862 43.7493 33.3337 43.7493H16.667C16.1145 43.7493 15.5846 43.5299 15.1938 43.1392C14.8031 42.7485 14.5837 42.2185 14.5837 41.666V35.416H35.417Z" stroke="#344054" stroke-width="2" stroke-linecap="round" stroke-linejoin="round"/>
<path d="M25 4.16602C28.844 6.73001 31.996 10.2029 34.1765 14.2767C36.357 18.3506 37.4985 22.8995 37.5 27.5202V35.416H12.5V27.5202C12.5015 22.8995 13.643 18.3506 15.8235 14.2767C18.004 10.2029 21.156 6.73001 25 4.16602Z" stroke="#306CFE" stroke-width="2" stroke-linecap="round" stroke-linejoin="round"/>
</svg>
