<svg width="50" height="50" viewBox="0 0 50 50" fill="none" xmlns="http://www.w3.org/2000/svg">
<path d="M24.333 35.2702L32.8122 43.7493L36.5413 40.0202C36.7584 39.8039 36.9251 39.5424 37.0295 39.2543C37.134 38.9662 37.1736 38.6587 37.1455 38.3535L35.7913 23.541" stroke="#344054" stroke-width="2" stroke-linecap="round" stroke-linejoin="round"/>
<path d="M19.5212 9.8125L16.667 12.7708M37.2295 33.3333L40.1878 30.3958L37.2295 33.3333Z" stroke="#344054" stroke-width="2" stroke-linecap="round" stroke-linejoin="round"/>
<path d="M26.5625 14.2086L11.6458 12.8545C11.3407 12.8264 11.0331 12.866 10.745 12.9704C10.4569 13.0749 10.1954 13.2415 9.97917 13.4586L6.25 17.1878L14.7708 25.7086" stroke="#344054" stroke-width="2" stroke-linecap="round" stroke-linejoin="round"/>
<path d="M19.5209 36.375C19.7145 36.5703 19.945 36.7253 20.1988 36.831C20.4527 36.9368 20.725 36.9912 21 36.9912C21.2751 36.9912 21.5474 36.9368 21.8012 36.831C22.0551 36.7253 22.2855 36.5703 22.4792 36.375L38.9584 19.8958C42.0236 16.8282 43.7469 12.6699 43.75 8.33333C43.75 7.7808 43.5305 7.25089 43.1398 6.86019C42.7491 6.46949 42.2192 6.25 41.6667 6.25C37.3301 6.25316 33.1718 7.9764 30.1042 11.0417L13.625 27.5208C13.4298 27.7145 13.2748 27.9449 13.169 28.1988C13.0632 28.4527 13.0088 28.725 13.0088 29C13.0088 29.275 13.0632 29.5473 13.169 29.8012C13.2748 30.0551 13.4298 30.2855 13.625 30.4792L19.5209 36.375Z" stroke="#306CFE" stroke-width="2" stroke-linecap="round" stroke-linejoin="round"/>
</svg>
