<svg width="50" height="50" viewBox="0 0 50 50" fill="none" xmlns="http://www.w3.org/2000/svg">
<path d="M18.75 10.416H21.5833C21.9841 10.4169 22.3761 10.5333 22.7124 10.7513C23.0486 10.9693 23.3149 11.2797 23.4792 11.6452L26.7083 18.7493" stroke="#344054" stroke-width="2" stroke-linecap="round" stroke-linejoin="round"/>
<path d="M27.0833 39.584H11.5833C10.6556 39.5844 9.75421 39.2752 9.02209 38.7054C8.28996 38.1355 7.76897 37.3376 7.54167 36.4381L6.25 31.2507H43.75C41.8094 33.8381 39.2931 35.9381 36.4003 37.3845C33.5075 38.831 30.3176 39.584 27.0833 39.584V39.584ZM31.25 14.584C29.3094 17.1714 26.7931 19.2715 23.9003 20.7179C21.0075 22.1643 17.8176 22.9173 14.5833 22.9173H8.33333C7.7808 22.9173 7.25089 23.1368 6.86019 23.5275C6.46949 23.9182 6.25 24.4481 6.25 25.0007V31.2507H43.75C43.75 18.7507 31.25 14.584 31.25 14.584Z" stroke="#306CFE" stroke-width="2" stroke-linecap="round" stroke-linejoin="round"/>
</svg>
