<svg width="50" height="50" viewBox="0 0 50 50" fill="none" xmlns="http://www.w3.org/2000/svg">
<path d="M32.3545 16.666C35.1214 18.2818 37.2791 20.7638 38.4942 23.7286C39.7094 26.6933 39.9143 29.9757 39.0774 33.0686C38.2404 36.1615 36.4082 38.8926 33.8638 40.84C31.3194 42.7874 28.2044 43.8426 25.0003 43.8426C21.7962 43.8426 18.6813 42.7874 16.1369 40.84C13.5925 38.8926 11.7603 36.1615 10.9233 33.0686C10.0864 29.9757 10.2913 26.6933 11.5064 23.7286C12.7216 20.7638 14.8793 18.2818 17.6462 16.666" stroke="#344054" stroke-width="2" stroke-linecap="round" stroke-linejoin="round"/>
<path d="M27.6038 22.9167H22.3955L14.583 12.5L19.7913 6.25H30.208L35.4163 12.5L27.6038 22.9167Z" stroke="#306CFE" stroke-width="2" stroke-linecap="round" stroke-linejoin="round"/>
</svg>
