<svg width="50" height="50" viewBox="0 0 50 50" fill="none" xmlns="http://www.w3.org/2000/svg">
<path d="M31.2497 22.9167V27.0833M33.333 14.5833H16.6663V8.33333C16.6663 7.7808 16.8858 7.25089 17.2765 6.86019C17.6672 6.46949 18.1971 6.25 18.7497 6.25H31.2497C31.8022 6.25 32.3321 6.46949 32.7228 6.86019C33.1135 7.25089 33.333 7.7808 33.333 8.33333V14.5833ZM35.4163 22.9167H14.583H35.4163Z" stroke="#344054" stroke-width="2" stroke-linecap="round" stroke-linejoin="round"/>
<path d="M43.75 41.6673V16.6673C43.75 15.5167 42.8173 14.584 41.6667 14.584L8.33334 14.584C7.18274 14.584 6.25 15.5167 6.25 16.6673V41.6673C6.25 42.8179 7.18274 43.7507 8.33334 43.7507H41.6667C42.8173 43.7507 43.75 42.8179 43.75 41.6673Z" stroke="#306CFE" stroke-width="2" stroke-linecap="round" stroke-linejoin="round"/>
</svg>
