<svg width="50" height="50" viewBox="0 0 50 50" fill="none" xmlns="http://www.w3.org/2000/svg">
<path d="M24.9997 14.584V31.2507V14.584ZM29.1663 33.334C29.1663 32.7815 28.9468 32.2515 28.5561 31.8608C28.1654 31.4701 27.6355 31.2507 27.083 31.2507H22.9163C22.3638 31.2507 21.8339 31.4701 21.4432 31.8608C21.0525 32.2515 20.833 32.7815 20.833 33.334V35.4173H29.1663V33.334Z" stroke="#344054" stroke-width="2" stroke-linecap="round" stroke-linejoin="round"/>
<path d="M39.5837 43.75H10.417V37.5C10.417 36.9475 10.6365 36.4176 11.0272 36.0269C11.4179 35.6362 11.9478 35.4167 12.5003 35.4167H37.5003C38.0529 35.4167 38.5828 35.6362 38.9735 36.0269C39.3642 36.4176 39.5837 36.9475 39.5837 37.5V43.75ZM25.0003 6.25C24.1762 6.25 23.3707 6.49437 22.6854 6.95221C22.0002 7.41005 21.4662 8.06079 21.1508 8.82215C20.8355 9.58351 20.7529 10.4213 20.9137 11.2295C21.0745 12.0378 21.4713 12.7802 22.054 13.3629C22.6368 13.9457 23.3792 14.3425 24.1874 14.5033C24.9957 14.664 25.8335 14.5815 26.5948 14.2662C27.3562 13.9508 28.0069 13.4167 28.4648 12.7315C28.9226 12.0463 29.167 11.2408 29.167 10.4167C29.167 9.3116 28.728 8.25179 27.9466 7.47039C27.1652 6.68899 26.1054 6.25 25.0003 6.25Z" stroke="#306CFE" stroke-width="2" stroke-linecap="round" stroke-linejoin="round"/>
</svg>
