<svg width="50" height="50" viewBox="0 0 50 50" fill="none" xmlns="http://www.w3.org/2000/svg">
<path d="M29.167 39.5827H43.7503M29.167 31.2493H43.7503H29.167ZM33.3337 22.916H43.7503H33.3337Z" stroke="#344054" stroke-width="2" stroke-linecap="round" stroke-linejoin="round"/>
<path d="M22.9167 20.8333H6.25M20.0833 20.8333L18.875 41.7917C18.8431 42.3223 18.6096 42.8206 18.2223 43.1846C17.835 43.5487 17.3232 43.751 16.7917 43.75H12.375C11.8435 43.751 11.3316 43.5487 10.9444 43.1846C10.5571 42.8206 10.3236 42.3223 10.2917 41.7917L9.08333 20.8333H20.0833ZM14.5833 6.25C12.8952 6.26083 11.2502 6.7841 9.86608 7.75053C8.48195 8.71697 7.42397 10.081 6.83221 11.662C6.24046 13.243 6.14283 14.9665 6.55226 16.6043C6.96169 18.242 7.85886 19.7168 9.125 20.8333H20.0417C21.3078 19.7168 22.205 18.242 22.6144 16.6043C23.0238 14.9665 22.9262 13.243 22.3345 11.662C21.7427 10.081 20.6847 8.71697 19.3006 7.75053C17.9165 6.7841 16.2714 6.26083 14.5833 6.25V6.25Z" stroke="#306CFE" stroke-width="2" stroke-linecap="round" stroke-linejoin="round"/>
</svg>
