<svg width="50" height="50" viewBox="0 0 50 50" fill="none" xmlns="http://www.w3.org/2000/svg">
<path d="M31.25 22.9164C31.2487 21.8216 30.9599 20.7464 30.4124 19.7984C29.865 18.8504 29.0781 18.0628 28.1306 17.5144C27.1831 16.9661 26.1082 16.6762 25.0134 16.6738C23.9187 16.6715 22.8425 16.9567 21.8927 17.501C20.9428 18.0453 20.1526 18.8295 19.6011 19.7752C19.0496 20.7208 18.7561 21.7948 18.7501 22.8895C18.7441 23.9842 19.0257 25.0614 19.5668 26.013C20.1079 26.9647 20.8895 27.7575 21.8333 28.3122L21.3333 30.833C21.2708 31.1392 21.2779 31.4556 21.3542 31.7587C21.4305 32.0617 21.5739 32.3438 21.774 32.5839C21.9741 32.8239 22.2256 33.0159 22.51 33.1456C22.7943 33.2753 23.1042 33.3394 23.4167 33.333H26.6667C26.9791 33.3394 27.289 33.2753 27.5734 33.1456C27.8577 33.0159 28.1092 32.8239 28.3093 32.5839C28.5094 32.3438 28.6529 32.0617 28.7292 31.7587C28.8054 31.4556 28.8126 31.1392 28.75 30.833L28.25 28.3122C29.1744 27.7495 29.9369 26.9564 30.4627 26.0106C30.9886 25.0647 31.2599 23.9985 31.25 22.9164Z" stroke="#344054" stroke-width="2" stroke-linecap="round" stroke-linejoin="round"/>
<path d="M25 43.75C35.3553 43.75 43.75 35.3553 43.75 25C43.75 14.6447 35.3553 6.25 25 6.25C14.6447 6.25 6.25 14.6447 6.25 25C6.25 35.3553 14.6447 43.75 25 43.75Z" stroke="#306CFE" stroke-width="2" stroke-linecap="round" stroke-linejoin="round"/>
</svg>
