<svg width="50" height="50" viewBox="0 0 50 50" fill="none" xmlns="http://www.w3.org/2000/svg">
<path d="M25 33.3333H29.1667M25 18.75V43.75V18.75ZM25 41.6667H29.1667H25Z" stroke="#344054" stroke-width="2" stroke-linecap="round" stroke-linejoin="round"/>
<path d="M25.0003 6.25C25.8244 6.25 26.63 6.49437 27.3152 6.95221C28.0004 7.41005 28.5345 8.06079 28.8498 8.82215C29.1652 9.58351 29.2477 10.4213 29.0869 11.2295C28.9262 12.0378 28.5293 12.7802 27.9466 13.3629C27.3639 13.9457 26.6215 14.3425 25.8132 14.5033C25.0049 14.664 24.1672 14.5815 23.4058 14.2662C22.6445 13.9508 21.9937 13.4167 21.5359 12.7315C21.078 12.0463 20.8337 11.2408 20.8337 10.4167C20.8337 9.3116 21.2726 8.25179 22.054 7.47039C22.8354 6.68899 23.8953 6.25 25.0003 6.25ZM16.667 18.75C16.667 19.5741 16.9114 20.3797 17.3692 21.0649C17.827 21.7501 18.4778 22.2841 19.2391 22.5995C20.0005 22.9149 20.8383 22.9974 21.6465 22.8366C22.4548 22.6758 23.1972 22.279 23.7799 21.6963C24.3627 21.1136 24.7595 20.3711 24.9203 19.5629C25.081 18.7546 24.9985 17.9168 24.6832 17.1555C24.3678 16.3941 23.8337 15.7434 23.1485 15.2855C22.4633 14.8277 21.6577 14.5833 20.8337 14.5833C19.7286 14.5833 18.6688 15.0223 17.8874 15.8037C17.106 16.5851 16.667 17.6449 16.667 18.75V18.75ZM29.167 14.5833C28.3429 14.5833 27.5373 14.8277 26.8521 15.2855C26.1669 15.7434 25.6329 16.3941 25.3175 17.1555C25.0021 17.9168 24.9196 18.7546 25.0804 19.5629C25.2412 20.3711 25.638 21.1136 26.2207 21.6963C26.8034 22.279 27.5459 22.6758 28.3541 22.8366C29.1624 22.9974 30.0001 22.9149 30.7615 22.5995C31.5229 22.2841 32.1736 21.7501 32.6314 21.0649C33.0893 20.3797 33.3337 19.5741 33.3337 18.75C33.3337 17.6449 32.8947 16.5851 32.1133 15.8037C31.3319 15.0223 30.2721 14.5833 29.167 14.5833V14.5833Z" stroke="#306CFE" stroke-width="2" stroke-linecap="round" stroke-linejoin="round"/>
</svg>
