<svg width="50" height="50" viewBox="0 0 50 50" fill="none" xmlns="http://www.w3.org/2000/svg">
<path d="M10.4163 6.25H39.583C40.1355 6.25 40.6654 6.46949 41.0561 6.86019C41.4468 7.25089 41.6663 7.7808 41.6663 8.33333V27.0833H8.33301V8.33333C8.33301 7.7808 8.5525 7.25089 8.9432 6.86019C9.3339 6.46949 9.86381 6.25 10.4163 6.25Z" stroke="#306CFE" stroke-width="2" stroke-linecap="round" stroke-linejoin="round"/>
<path d="M6.25 35.416H43.75V41.666C43.75 42.2185 43.5305 42.7485 43.1398 43.1392C42.7491 43.5299 42.2192 43.7493 41.6667 43.7493H8.33333C7.7808 43.7493 7.25089 43.5299 6.86019 43.1392C6.46949 42.7485 6.25 42.2185 6.25 41.666V35.416Z" stroke="#306CFE" stroke-width="2" stroke-linecap="round" stroke-linejoin="round"/>
<path d="M41.6667 27.084H8.33333L6.25 35.4173H43.75L41.6667 27.084Z" stroke="#344054" stroke-width="2" stroke-linecap="round" stroke-linejoin="round"/>
</svg>
