<svg width="50" height="50" viewBox="0 0 50 50" fill="none" xmlns="http://www.w3.org/2000/svg">
<path d="M25.0003 14.5833C27.3015 14.5833 29.167 12.7179 29.167 10.4167C29.167 8.11548 27.3015 6.25 25.0003 6.25C22.6991 6.25 20.8337 8.11548 20.8337 10.4167C20.8337 12.7179 22.6991 14.5833 25.0003 14.5833Z" stroke="#344054" stroke-width="2" stroke-linecap="round" stroke-linejoin="round"/>
<path d="M16.6667 14.584H33.3333C34.4384 14.584 35.4982 15.023 36.2796 15.8044C37.061 16.5858 37.5 17.6456 37.5 18.7507V43.7506H12.5V18.7507C12.5 17.6456 12.939 16.5858 13.7204 15.8044C14.5018 15.023 15.5616 14.584 16.6667 14.584V14.584Z" stroke="#306CFE" stroke-width="2" stroke-linecap="round" stroke-linejoin="round"/>
<path d="M25 43.7493V35.416" stroke="#306CFE" stroke-width="2" stroke-linecap="round" stroke-linejoin="round"/>
<path d="M8.33301 43.75H41.6663" stroke="#344054" stroke-width="2" stroke-linecap="round" stroke-linejoin="round"/>
<path d="M20.8334 31.2493C20.7931 31.8069 20.8732 32.3665 21.0683 32.8903C21.2635 33.4142 21.569 33.8898 21.9643 34.2851C22.3596 34.6804 22.8352 34.9859 23.3591 35.1811C23.8829 35.3762 24.4425 35.4563 25.0001 35.416C25.5551 35.4461 26.1103 35.3589 26.6295 35.1601C27.1486 34.9614 27.6201 34.6555 28.0131 34.2624C28.4062 33.8694 28.7121 33.3979 28.9109 32.8788C29.1096 32.3596 29.1968 31.8044 29.1667 31.2493C29.1667 28.4577 27.0834 28.1243 27.0834 22.916C22.9167 24.9993 20.8334 28.3118 20.8334 31.2493Z" stroke="#344054" stroke-width="2" stroke-linecap="round" stroke-linejoin="round"/>
</svg>
