<svg width="50" height="50" viewBox="0 0 50 50" fill="none" xmlns="http://www.w3.org/2000/svg">
<path d="M18.7503 43.75H10.417L12.1045 36.9792C12.355 35.9731 12.9715 35.0966 13.8337 34.5208L17.0003 32.4375" stroke="#344054" stroke-width="2" stroke-linecap="round" stroke-linejoin="round"/>
<path d="M33 32.416L36.1667 34.4993C37.0288 35.0751 37.6454 35.9516 37.8958 36.9577L39.5833 43.7493H31.25" stroke="#344054" stroke-width="2" stroke-linecap="round" stroke-linejoin="round"/>
<path d="M25 20.834V27.084" stroke="#344054" stroke-width="2" stroke-linecap="round" stroke-linejoin="round"/>
<path d="M31.2504 43.7497H18.7504L16.1879 27.083C15.6902 23.8499 15.9608 20.5451 16.9778 17.436C17.9949 14.327 19.7298 11.5011 22.042 9.18721L23.5212 7.70804C23.7149 7.51278 23.9453 7.35779 24.1992 7.25202C24.453 7.14625 24.7253 7.0918 25.0004 7.0918C25.2754 7.0918 25.5477 7.14625 25.8016 7.25202C26.0554 7.35779 26.2858 7.51278 26.4795 7.70804L27.9587 9.18721C30.2709 11.5011 32.0058 14.327 33.0229 17.436C34.0399 20.5451 34.3105 23.8499 33.8129 27.083L31.2504 43.7497Z" stroke="#306CFE" stroke-width="2" stroke-linecap="round" stroke-linejoin="round"/>
</svg>
