<svg width="50" height="50" viewBox="0 0 50 50" fill="none" xmlns="http://www.w3.org/2000/svg">
<path d="M31.25 16.666V10.416H18.75V16.666C18.75 17.2185 18.9695 17.7485 19.3602 18.1392C19.7509 18.5299 20.2808 18.7493 20.8333 18.7493H29.1667C29.7192 18.7493 30.2491 18.5299 30.6398 18.1392C31.0305 17.7485 31.25 17.2185 31.25 16.666V16.666Z" stroke="#344054" stroke-width="2" stroke-linecap="round" stroke-linejoin="round"/>
<path d="M6.25 10.416H43.75H6.25ZM39.7292 37.6452L41.6667 10.416H8.33333L10.2708 37.6452C10.3078 38.1721 10.5435 38.6652 10.9303 39.0249C11.317 39.3846 11.826 39.584 12.3542 39.5827H37.6458C38.174 39.584 38.683 39.3846 39.0697 39.0249C39.4565 38.6652 39.6922 38.1721 39.7292 37.6452V37.6452Z" stroke="#306CFE" stroke-width="2" stroke-linecap="round" stroke-linejoin="round"/>
</svg>
