<svg width="50" height="50" viewBox="0 0 50 50" fill="none" xmlns="http://www.w3.org/2000/svg">
<path d="M12.5 22.9161H23.7083C24.0966 22.9134 24.4779 23.0192 24.8092 23.2217C25.1405 23.4241 25.4086 23.7152 25.5833 24.0619L27.0833 27.0827H37.5C38.0525 27.0827 38.5824 27.3022 38.9731 27.6929C39.3638 28.0836 39.5833 28.6135 39.5833 29.1661V33.3327" stroke="#306CFE" stroke-width="2" stroke-linecap="round" stroke-linejoin="round"/>
<path d="M6.25 8.33409H8.60417C9.10969 8.32911 9.59978 8.50813 9.98309 8.83777C10.3664 9.16741 10.6167 9.62518 10.6875 10.1258L14 33.3341" stroke="#306CFE" stroke-width="2" stroke-linecap="round" stroke-linejoin="round"/>
<path d="M35.4167 37.5H18.75" stroke="#306CFE" stroke-width="2" stroke-linecap="round" stroke-linejoin="round"/>
<path d="M14.5837 33.334C13.7596 33.334 12.954 33.5784 12.2688 34.0362C11.5836 34.494 11.0495 35.1448 10.7342 35.9061C10.4188 36.6675 10.3363 37.5053 10.4971 38.3135C10.6578 39.1218 11.0547 39.8642 11.6374 40.4469C12.2201 41.0296 12.9625 41.4265 13.7708 41.5873C14.579 41.748 15.4168 41.6655 16.1782 41.3501C16.9395 41.0348 17.5903 40.5007 18.0481 39.8155C18.506 39.1303 18.7503 38.3247 18.7503 37.5007C18.7503 36.3956 18.3113 35.3358 17.5299 34.5544C16.7485 33.773 15.6887 33.334 14.5837 33.334ZM39.5837 33.334C38.7596 33.334 37.954 33.5784 37.2688 34.0362C36.5836 34.494 36.0495 35.1448 35.7342 35.9061C35.4188 36.6675 35.3363 37.5053 35.4971 38.3135C35.6578 39.1218 36.0547 39.8642 36.6374 40.4469C37.2201 41.0296 37.9625 41.4265 38.7708 41.5873C39.579 41.748 40.4168 41.6655 41.1782 41.3501C41.9395 41.0348 42.5903 40.5007 43.0481 39.8155C43.506 39.1303 43.7503 38.3247 43.7503 37.5007C43.7503 36.3956 43.3113 35.3358 42.5299 34.5544C41.7485 33.773 40.6887 33.334 39.5837 33.334Z" stroke="#344054" stroke-width="2" stroke-linecap="round" stroke-linejoin="round"/>
</svg>
