<svg width="50" height="50" viewBox="0 0 50 50" fill="none" xmlns="http://www.w3.org/2000/svg">
<path d="M25 19.6039V20.8331H33.3334C33.8859 20.8331 34.4158 21.0526 34.8065 21.4433C35.1972 21.834 35.4167 22.3639 35.4167 22.9164V27.0831C35.4167 27.6356 35.1972 28.1655 34.8065 28.5562C34.4158 28.9469 33.8859 29.1664 33.3334 29.1664H25V30.3956C24.9983 30.8076 24.8744 31.2099 24.6441 31.5515C24.4138 31.8931 24.0873 32.1588 23.706 32.3149C23.3247 32.471 22.9056 32.5105 22.5018 32.4284C22.0981 32.3464 21.7277 32.1464 21.4375 31.8539L16.0625 26.4789C15.8673 26.2852 15.7123 26.0548 15.6065 25.8009C15.5007 25.5471 15.4463 25.2748 15.4463 24.9997C15.4463 24.7247 15.5007 24.4524 15.6065 24.1985C15.7123 23.9447 15.8673 23.7142 16.0625 23.5206L21.4375 18.1456C21.7277 17.853 22.0981 17.6531 22.5018 17.571C22.9056 17.489 23.3247 17.5285 23.706 17.6846C24.0873 17.8407 24.4138 18.1063 24.6441 18.448C24.8744 18.7896 24.9983 19.1919 25 19.6039Z" stroke="#344054" stroke-width="2" stroke-linecap="round" stroke-linejoin="round"/>
<path d="M25 43.75C35.3553 43.75 43.75 35.3553 43.75 25C43.75 14.6447 35.3553 6.25 25 6.25C14.6447 6.25 6.25 14.6447 6.25 25C6.25 35.3553 14.6447 43.75 25 43.75Z" stroke="#306CFE" stroke-width="2" stroke-linecap="round" stroke-linejoin="round"/>
</svg>
