<svg width="50" height="50" viewBox="0 0 50 50" fill="none" xmlns="http://www.w3.org/2000/svg">
<path d="M25 20.8327H35.4166V29.166H25V33.3327L15.3958 26.7077C15.1207 26.5157 14.8961 26.2601 14.741 25.9627C14.5859 25.6653 14.5049 25.3348 14.5049 24.9993C14.5049 24.6639 14.5859 24.3334 14.741 24.036C14.8961 23.7386 15.1207 23.483 15.3958 23.291L25 16.666V20.8327Z" stroke="#344054" stroke-width="2" stroke-linecap="round" stroke-linejoin="round"/>
<path d="M41.6667 6.25H8.33333C7.18274 6.25 6.25 7.18274 6.25 8.33333V41.6667C6.25 42.8173 7.18274 43.75 8.33333 43.75H41.6667C42.8173 43.75 43.75 42.8173 43.75 41.6667V8.33333C43.75 7.18274 42.8173 6.25 41.6667 6.25Z" stroke="#306CFE" stroke-width="2" stroke-linecap="round" stroke-linejoin="round"/>
</svg>
