<svg width="50" height="50" viewBox="0 0 50 50" fill="none" xmlns="http://www.w3.org/2000/svg">
<path d="M30.2085 19.791C31.5876 21.1736 32.362 23.0466 32.362 24.9993C32.362 26.9521 31.5876 28.8251 30.2085 30.2077L19.7919 40.6243C18.4093 42.0034 16.5363 42.7779 14.5835 42.7779C12.6308 42.7779 10.7577 42.0034 9.3752 40.6243C7.99614 39.2418 7.22168 37.3688 7.22168 35.416C7.22168 33.4633 7.99614 31.5902 9.3752 30.2077" stroke="#344054" stroke-width="2" stroke-linecap="round" stroke-linejoin="round"/>
<path d="M40.6245 19.7909C42.0036 18.4083 42.7781 16.5353 42.7781 14.5826C42.7781 12.6298 42.0036 10.7568 40.6245 9.37422C39.242 7.99516 37.369 7.2207 35.4162 7.2207C33.4635 7.2207 31.5904 7.99516 30.2079 9.37422L19.7912 19.7909C18.4122 21.1734 17.6377 23.0465 17.6377 24.9992C17.6377 26.952 18.4122 28.825 19.7912 30.2076V30.2076" stroke="#306CFE" stroke-width="2" stroke-linecap="round" stroke-linejoin="round"/>
</svg>
