<svg width="50" height="50" viewBox="0 0 50 50" fill="none" xmlns="http://www.w3.org/2000/svg">
<path d="M9.3752 40.6249C7.99614 39.2423 7.22168 37.3693 7.22168 35.4165C7.22168 33.4638 7.99614 31.5907 9.3752 30.2082L14.5835 24.9999C15.9661 23.6208 17.8391 22.8464 19.7919 22.8464C21.7446 22.8464 23.6177 23.6208 25.0002 24.9999C26.3793 26.3824 27.1537 28.2555 27.1537 30.2082C27.1537 32.161 26.3793 34.034 25.0002 35.4165L19.7919 40.6249C18.4093 42.0039 16.5363 42.7784 14.5835 42.7784C12.6308 42.7784 10.7577 42.0039 9.3752 40.6249ZM36.4585 23.9582L41.6669 18.7499C43.0459 17.3673 43.8204 15.4943 43.8204 13.5415C43.8204 11.5888 43.0459 9.71575 41.6669 8.3332V8.3332C40.2843 6.95414 38.4113 6.17969 36.4585 6.17969C34.5058 6.17969 32.6327 6.95414 31.2502 8.3332L26.0419 13.5415C24.6628 14.9241 23.8883 16.7971 23.8883 18.7499C23.8883 20.7026 24.6628 22.5757 26.0419 23.9582V23.9582C27.4244 25.3373 29.2974 26.1117 31.2502 26.1117C33.2029 26.1117 35.076 25.3373 36.4585 23.9582Z" stroke="#306CFE" stroke-width="2" stroke-linecap="round" stroke-linejoin="round"/>
<path d="M20.833 29.1673L29.1663 20.834" stroke="#344054" stroke-width="2" stroke-linecap="round" stroke-linejoin="round"/>
</svg>
