<svg width="50" height="50" viewBox="0 0 50 50" fill="none" xmlns="http://www.w3.org/2000/svg">
<path d="M33.3337 18.75V14.5833C33.3337 12.3732 32.4557 10.2536 30.8929 8.69078C29.3301 7.12797 27.2105 6.25 25.0003 6.25C22.7902 6.25 20.6706 7.12797 19.1078 8.69078C17.545 10.2536 16.667 12.3732 16.667 14.5833V18.75" stroke="#344054" stroke-width="2" stroke-linecap="round" stroke-linejoin="round"/>
<path d="M37.5003 18.75H12.5003C11.3497 18.75 10.417 19.6827 10.417 20.8333V41.6667C10.417 42.8173 11.3497 43.75 12.5003 43.75H37.5003C38.6509 43.75 39.5837 42.8173 39.5837 41.6667V20.8333C39.5837 19.6827 38.6509 18.75 37.5003 18.75Z" stroke="#306CFE" stroke-width="2" stroke-linecap="round" stroke-linejoin="round"/>
</svg>
