<svg width="50" height="50" viewBox="0 0 50 50" fill="none" xmlns="http://www.w3.org/2000/svg">
<path d="M25 35.4173V33.334M28.125 30.209C28.125 30.8271 27.9417 31.4312 27.5983 31.9451C27.255 32.459 26.7669 32.8596 26.1959 33.0961C25.6249 33.3326 24.9965 33.3945 24.3903 33.2739C23.7842 33.1534 23.2273 32.8557 22.7903 32.4187C22.3533 31.9817 22.0556 31.4248 21.935 30.8186C21.8145 30.2125 21.8764 29.5841 22.1129 29.0131C22.3494 28.4421 22.7499 27.954 23.2638 27.6106C23.7777 27.2673 24.3819 27.084 25 27.084C25.8288 27.084 26.6237 27.4132 27.2097 27.9993C27.7958 28.5853 28.125 29.3802 28.125 30.209Z" stroke="#344054" stroke-width="2" stroke-linecap="round" stroke-linejoin="round"/>
<path d="M39.583 41.6667V20.8333C39.583 19.6827 38.6503 18.75 37.4997 18.75H12.4997C11.3491 18.75 10.4163 19.6827 10.4163 20.8333V41.6667C10.4163 42.8173 11.3491 43.75 12.4997 43.75H37.4997C38.6503 43.75 39.583 42.8173 39.583 41.6667Z" stroke="#306CFE" stroke-width="2" stroke-linecap="round" stroke-linejoin="round"/>
<path d="M33.3337 18.75V14.5833C33.3337 12.3732 32.4557 10.2536 30.8929 8.69078C29.3301 7.12797 27.2105 6.25 25.0003 6.25C22.7902 6.25 20.6706 7.12797 19.1078 8.69078C17.545 10.2536 16.667 12.3732 16.667 14.5833V18.75" stroke="#306CFE" stroke-width="2" stroke-linecap="round" stroke-linejoin="round"/>
</svg>
