<svg width="50" height="50" viewBox="0 0 50 50" fill="none" xmlns="http://www.w3.org/2000/svg">
<path d="M35.417 8.33398H41.667C42.2195 8.33398 42.7494 8.55348 43.1401 8.94418C43.5308 9.33488 43.7503 9.86478 43.7503 10.4173V39.584C43.7503 40.1365 43.5308 40.6664 43.1401 41.0571C42.7494 41.4478 42.2195 41.6673 41.667 41.6673H35.417" stroke="#344054" stroke-width="2" stroke-linecap="round" stroke-linejoin="round"/>
<path d="M22 38.2282L18.75 35.5199C18.5421 35.3421 18.3712 35.125 18.2471 34.8812C18.1231 34.6373 18.0483 34.3714 18.027 34.0986C18.0057 33.8258 18.0384 33.5515 18.1231 33.2914C18.2078 33.0312 18.343 32.7903 18.5208 32.5824L21.5417 29.1657H6.25V20.8324H21.5417L18.6042 17.4157C18.2661 17.0124 18.0932 16.496 18.1203 15.9704C18.1473 15.4448 18.3723 14.9489 18.75 14.5824L21.9167 11.8741C22.1205 11.6669 22.3654 11.5047 22.6357 11.3979C22.906 11.291 23.1956 11.2419 23.486 11.2537C23.7764 11.2654 24.0611 11.3378 24.3219 11.4662C24.5826 11.5946 24.8136 11.7761 25 11.9991L34.9792 23.6449C35.3019 24.0223 35.4793 24.5025 35.4793 24.9991C35.4793 25.4956 35.3019 25.9759 34.9792 26.3532L25 37.9991C24.8216 38.2163 24.601 38.3951 24.3516 38.5248C24.1022 38.6546 23.8292 38.7325 23.5489 38.7539C23.2686 38.7753 22.9869 38.7398 22.7207 38.6494C22.4545 38.5591 22.2094 38.4158 22 38.2282Z" stroke="#306CFE" stroke-width="2" stroke-linecap="round" stroke-linejoin="round"/>
</svg>
