<svg width="50" height="50" viewBox="0 0 50 50" fill="none" xmlns="http://www.w3.org/2000/svg">
<path d="M29.167 31.2496H43.7503H29.167ZM29.167 39.5829H43.7503H29.167ZM39.8337 8.83293L39.5837 9.0621L39.3337 8.83293C39.1768 8.67483 38.9902 8.54934 38.7846 8.46371C38.579 8.37807 38.3585 8.33398 38.1357 8.33398C37.913 8.33398 37.6925 8.37807 37.4869 8.46371C37.2813 8.54934 37.0947 8.67483 36.9378 8.83293V8.83293C36.7791 8.99158 36.6532 9.17995 36.5672 9.38728C36.4813 9.59461 36.4371 9.81684 36.4371 10.0413C36.4371 10.2657 36.4813 10.4879 36.5672 10.6953C36.6532 10.9026 36.7791 11.091 36.9378 11.2496L37.6253 11.9579L39.5837 13.9163L41.5003 11.9788L42.1878 11.2913C42.5097 10.9673 42.6903 10.5292 42.6903 10.0725C42.6903 9.61585 42.5097 9.17772 42.1878 8.85377C41.8755 8.54427 41.4547 8.3689 41.015 8.36501C40.5753 8.36112 40.1514 8.52901 39.8337 8.83293V8.83293Z" stroke="#344054" stroke-width="2" stroke-linecap="round" stroke-linejoin="round"/>
<path d="M20.8333 36.4583V6.25V36.4583ZM13.5417 29.1667C12.0995 29.1667 10.6897 29.5943 9.49064 30.3955C8.29153 31.1968 7.35694 32.3356 6.80505 33.6679C6.25316 35.0003 6.10876 36.4664 6.39011 37.8809C6.67146 39.2953 7.36593 40.5946 8.38568 41.6143C9.40544 42.6341 10.7047 43.3285 12.1191 43.6099C13.5336 43.8912 14.9997 43.7468 16.3321 43.195C17.6644 42.6431 18.8033 41.7085 19.6045 40.5094C20.4057 39.3103 20.8333 37.9005 20.8333 36.4583C20.8333 34.5245 20.0651 32.6698 18.6977 31.3023C17.3302 29.9349 15.4755 29.1667 13.5417 29.1667V29.1667Z" stroke="#306CFE" stroke-width="2" stroke-linecap="round" stroke-linejoin="round"/>
</svg>
