<svg width="50" height="50" viewBox="0 0 50 50" fill="none" xmlns="http://www.w3.org/2000/svg">
<path d="M33.1879 37.5C33.2871 37.8097 33.3363 38.1332 33.3338 38.4583C33.3338 41.375 29.6046 43.75 25.0004 43.75C20.3963 43.75 16.6671 41.375 16.6671 38.4583C16.6645 38.1332 16.7137 37.8097 16.8129 37.5" stroke="#344054" stroke-width="2" stroke-linecap="round" stroke-linejoin="round"/>
<path d="M25 18.75V35.4167M18.75 12.5C18.75 14.1576 19.4085 15.7473 20.5806 16.9194C21.7527 18.0915 23.3424 18.75 25 18.75C26.6576 18.75 28.2473 18.0915 29.4194 16.9194C30.5915 15.7473 31.25 14.1576 31.25 12.5C31.25 10.8424 30.5915 9.25269 29.4194 8.08058C28.2473 6.90848 26.6576 6.25 25 6.25C23.3424 6.25 21.7527 6.90848 20.5806 8.08058C19.4085 9.25269 18.75 10.8424 18.75 12.5V12.5Z" stroke="#306CFE" stroke-width="2" stroke-linecap="round" stroke-linejoin="round"/>
</svg>
