<svg width="50" height="50" viewBox="0 0 50 50" fill="none" xmlns="http://www.w3.org/2000/svg">
<path d="M33.3329 18.7502H38.187C38.6864 18.7437 39.1714 18.9169 39.5538 19.2381C39.9362 19.5593 40.1905 20.0072 40.2704 20.5002L43.7495 41.3335C43.7982 41.6336 43.7806 41.9408 43.6979 42.2334C43.6153 42.526 43.4695 42.797 43.271 43.0273C43.0725 43.2576 42.8259 43.4417 42.5487 43.5665C42.2714 43.6914 41.9702 43.7541 41.6662 43.7502H8.33286C8.02882 43.7541 7.7276 43.6914 7.45037 43.5665C7.17313 43.4417 6.92659 43.2576 6.72805 43.0273C6.52952 42.797 6.3838 42.526 6.30113 42.2334C6.21846 41.9408 6.20085 41.6336 6.24952 41.3335L9.72869 20.5002C9.80855 20.0072 10.0628 19.5593 10.4452 19.2381C10.8276 18.9169 11.3127 18.7437 11.812 18.7502H16.6662" stroke="#306CFE" stroke-width="2" stroke-linecap="round" stroke-linejoin="round"/>
<path d="M33.3337 14.5833C33.3337 12.3732 32.4557 10.2536 30.8929 8.69078C29.3301 7.12797 27.2105 6.25 25.0003 6.25C22.7902 6.25 20.6706 7.12797 19.1078 8.69078C17.545 10.2536 16.667 12.3732 16.667 14.5833C16.667 22.9167 25.0003 31.25 25.0003 31.25C25.0003 31.25 33.3337 22.9167 33.3337 14.5833Z" stroke="#344054" stroke-width="2" stroke-linecap="round" stroke-linejoin="round"/>
</svg>
