<svg width="50" height="50" viewBox="0 0 50 50" fill="none" xmlns="http://www.w3.org/2000/svg">
<path d="M18.75 43.75H31.25" stroke="#344054" stroke-width="2" stroke-linecap="round" stroke-linejoin="round"/>
<path d="M18.75 12.5C18.75 10.8424 19.4085 9.25269 20.5806 8.08058C21.7527 6.90848 23.3424 6.25 25 6.25V6.25C26.6576 6.25 28.2473 6.90848 29.4194 8.08058C30.5915 9.25269 31.25 10.8424 31.25 12.5C31.25 14.1576 30.5915 15.7473 29.4194 16.9194C28.2473 18.0915 26.6576 18.75 25 18.75C23.3424 18.75 21.7527 18.0915 20.5806 16.9194C19.4085 15.7473 18.75 14.1576 18.75 12.5V12.5ZM25 18.75V35.4167V18.75Z" stroke="#306CFE" stroke-width="2" stroke-linecap="round" stroke-linejoin="round"/>
</svg>
