<svg width="50" height="50" viewBox="0 0 50 50" fill="none" xmlns="http://www.w3.org/2000/svg">
<path d="M25 37.5L29.1667 35.4167M25 10.4167V6.25V10.4167ZM25 27.0833V43.75V27.0833Z" stroke="#344054" stroke-width="2" stroke-linecap="round" stroke-linejoin="round"/>
<path d="M20.8333 10.416H29.1667C29.7192 10.416 30.2491 10.6355 30.6398 11.0262C31.0305 11.4169 31.25 11.9468 31.25 12.4993V16.666C31.25 17.2185 31.0305 17.7485 30.6398 18.1392C30.2491 18.5299 29.7192 18.7493 29.1667 18.7493H20.8333C20.2808 18.7493 19.7509 18.5299 19.3602 18.1392C18.9695 17.7485 18.75 17.2185 18.75 16.666V12.4993C18.75 11.9468 18.9695 11.4169 19.3602 11.0262C19.7509 10.6355 20.2808 10.416 20.8333 10.416V10.416ZM20.8333 18.7493H29.1667C29.7192 18.7493 30.2491 18.9688 30.6398 19.3595C31.0305 19.7502 31.25 20.2801 31.25 20.8327V24.9993C31.25 25.5519 31.0305 26.0818 30.6398 26.4725C30.2491 26.8632 29.7192 27.0827 29.1667 27.0827H20.8333C20.2808 27.0827 19.7509 26.8632 19.3602 26.4725C18.9695 26.0818 18.75 25.5519 18.75 24.9993V20.8327C18.75 20.2801 18.9695 19.7502 19.3602 19.3595C19.7509 18.9688 20.2808 18.7493 20.8333 18.7493V18.7493Z" stroke="#306CFE" stroke-width="2" stroke-linecap="round" stroke-linejoin="round"/>
</svg>
