<svg width="50" height="50" viewBox="0 0 50 50" fill="none" xmlns="http://www.w3.org/2000/svg">
<path d="M15.3955 28.7083L16.8747 33.125M41.0622 8.9375L38.1038 11.8958L41.0622 8.9375ZM8.33301 41.6667L26.333 23.6667L8.33301 41.6667Z" stroke="#344054" stroke-width="2" stroke-linecap="round" stroke-linejoin="round"/>
<path d="M35.167 8.93656L41.0628 14.8324C41.2581 15.0261 41.4131 15.2565 41.5189 15.5104C41.6246 15.7642 41.6791 16.0365 41.6791 16.3116C41.6791 16.5866 41.6246 16.8589 41.5189 17.1128C41.4131 17.3666 41.2581 17.5971 41.0628 17.7907L38.1045 20.8324C37.7142 21.2204 37.1862 21.4382 36.6358 21.4382C36.0854 21.4382 35.5574 21.2204 35.167 20.8324L29.2712 14.8324C28.8832 14.4421 28.6654 13.914 28.6654 13.3636C28.6654 12.8133 28.8832 12.2852 29.2712 11.8949L32.2087 8.93656C32.4024 8.74129 32.6328 8.5863 32.8866 8.48054C33.1405 8.37477 33.4128 8.32031 33.6879 8.32031C33.9629 8.32031 34.2352 8.37477 34.4891 8.48054C34.7429 8.5863 34.9733 8.74129 35.167 8.93656V8.93656ZM29.2712 14.8324L35.167 20.8324C35.555 21.2227 35.7728 21.7508 35.7728 22.3011C35.7728 22.8515 35.555 23.3796 35.167 23.7699L32.2087 26.7282C31.8183 27.1162 31.2903 27.334 30.7399 27.334C30.1895 27.334 29.6615 27.1162 29.2712 26.7282L23.3754 20.8324C22.9873 20.4421 22.7695 19.914 22.7695 19.3636C22.7695 18.8133 22.9873 18.2852 23.3754 17.8949L26.3337 14.9366C26.7101 14.5344 27.2304 14.2976 27.7809 14.2781C28.3314 14.2586 28.8672 14.4579 29.2712 14.8324V14.8324Z" stroke="#306CFE" stroke-width="2" stroke-linecap="round" stroke-linejoin="round"/>
</svg>
