<svg width="50" height="50" viewBox="0 0 50 50" fill="none" xmlns="http://www.w3.org/2000/svg">
<path d="M41.6663 29.1667H35.4163V37.5H41.6663C42.2189 37.5 42.7488 37.2805 43.1395 36.8898C43.5302 36.4991 43.7497 35.9692 43.7497 35.4167V31.25C43.7497 30.6975 43.5302 30.1676 43.1395 29.7769C42.7488 29.3862 42.2189 29.1667 41.6663 29.1667ZM20.833 31.25C19.5969 31.25 18.3885 30.8834 17.3607 30.1967C16.3329 29.5099 15.5318 28.5338 15.0588 27.3918C14.5857 26.2497 14.4619 24.9931 14.7031 23.7807C14.9443 22.5683 15.5395 21.4547 16.4136 20.5806C17.2877 19.7065 18.4013 19.1113 19.6137 18.8701C20.8261 18.6289 22.0827 18.7527 23.2248 19.2258C24.3668 19.6988 25.3429 20.4999 26.0297 21.5277C26.7165 22.5555 27.083 23.7639 27.083 25C27.083 26.6576 26.4245 28.2473 25.2524 29.4194C24.0803 30.5915 22.4906 31.25 20.833 31.25Z" stroke="#344054" stroke-width="2" stroke-linecap="round" stroke-linejoin="round"/>
<path d="M20.8333 10.416C24.7011 10.416 28.4104 11.9525 31.1453 14.6874C33.8802 17.4223 35.4167 21.1316 35.4167 24.9993V37.4993C35.4167 38.0519 35.1972 38.5818 34.8065 38.9725C34.4158 39.3632 33.8859 39.5827 33.3333 39.5827H20.8333C16.9656 39.5827 13.2563 38.0462 10.5214 35.3113C7.78645 32.5764 6.25 28.8671 6.25 24.9993V24.9993C6.25 21.1316 7.78645 17.4223 10.5214 14.6874C13.2563 11.9525 16.9656 10.416 20.8333 10.416V10.416Z" stroke="#306CFE" stroke-width="2" stroke-linecap="round" stroke-linejoin="round"/>
</svg>
