<svg width="50" height="50" viewBox="0 0 50 50" fill="none" xmlns="http://www.w3.org/2000/svg">
<path d="M38 33.334C36.4383 35.2805 34.4594 36.8516 32.2094 37.9311C29.9593 39.0106 27.4956 39.571 25 39.571C22.5044 39.571 20.0407 39.0106 17.7906 37.9311C15.5406 36.8516 13.5617 35.2805 12 33.334" stroke="#344054" stroke-width="2" stroke-linecap="round" stroke-linejoin="round"/>
<path d="M25 39.584V43.7507" stroke="#344054" stroke-width="2" stroke-linecap="round" stroke-linejoin="round"/>
<path d="M25.0003 31.25C22.7902 31.25 20.6706 30.372 19.1078 28.8092C17.545 27.2464 16.667 25.1268 16.667 22.9167V14.5833C16.667 12.3732 17.545 10.2536 19.1078 8.69078C20.6706 7.12797 22.7902 6.25 25.0003 6.25V6.25C27.2105 6.25 29.3301 7.12797 30.8929 8.69078C32.4557 10.2536 33.3337 12.3732 33.3337 14.5833V22.9167C33.3337 25.1268 32.4557 27.2464 30.8929 28.8092C29.3301 30.372 27.2105 31.25 25.0003 31.25Z" stroke="#306CFE" stroke-width="2" stroke-linecap="round" stroke-linejoin="round"/>
</svg>
