<svg width="50" height="50" viewBox="0 0 50 50" fill="none" xmlns="http://www.w3.org/2000/svg">
<path d="M31.2503 43.75H18.7503M25.0003 35.4167C22.7902 35.4167 20.6706 34.5387 19.1078 32.9759C17.545 31.4131 16.667 29.2935 16.667 27.0833V14.5833C16.667 12.3732 17.545 10.2536 19.1078 8.69078C20.6706 7.12797 22.7902 6.25 25.0003 6.25V6.25C27.2105 6.25 29.3301 7.12797 30.8929 8.69078C32.4557 10.2536 33.3337 12.3732 33.3337 14.5833V27.0833C33.3337 29.2935 32.4557 31.4131 30.8929 32.9759C29.3301 34.5387 27.2105 35.4167 25.0003 35.4167ZM25.0003 35.4167V43.75V35.4167Z" stroke="#306CFE" stroke-width="2" stroke-linecap="round" stroke-linejoin="round"/>
<path d="M8.33301 8.33398L41.6663 41.6673" stroke="#344054" stroke-width="2" stroke-linecap="round" stroke-linejoin="round"/>
</svg>
