<svg width="50" height="50" viewBox="0 0 50 50" fill="none" xmlns="http://www.w3.org/2000/svg">
<path d="M30.4996 20.8333L29.2913 41.7917C29.2594 42.3223 29.0259 42.8206 28.6386 43.1846C28.2513 43.5487 27.7395 43.751 27.2079 43.75H22.7913C22.2597 43.751 21.7479 43.5487 21.3606 43.1846C20.9733 42.8206 20.7398 42.3223 20.7079 41.7917L19.4996 20.8333H30.4996ZM24.9996 6.25C23.3115 6.26083 21.6665 6.7841 20.2824 7.75053C18.8982 8.71697 17.8402 10.081 17.2485 11.662C16.6567 13.243 16.5591 14.9665 16.9685 16.6043C17.378 18.242 18.2751 19.7168 19.5413 20.8333H30.4579C31.7241 19.7168 32.6213 18.242 33.0307 16.6043C33.4401 14.9665 33.3425 13.243 32.7507 11.662C32.159 10.081 31.101 8.71697 29.7169 7.75053C28.3327 6.7841 26.6877 6.26083 24.9996 6.25V6.25Z" stroke="#306CFE" stroke-width="2" stroke-linecap="round" stroke-linejoin="round"/>
<path d="M33.3337 20.834H16.667" stroke="#344054" stroke-width="2" stroke-linecap="round" stroke-linejoin="round"/>
</svg>
