<svg width="50" height="50" viewBox="0 0 50 50" fill="none" xmlns="http://www.w3.org/2000/svg">
<path d="M29.1663 43.7507H20.833M24.9997 27.084V43.7507V27.084Z" stroke="#344054" stroke-width="2" stroke-linecap="round" stroke-linejoin="round"/>
<path d="M31.8333 22.1884L13.7917 32.8759C13.3345 33.1478 12.7906 33.2345 12.2716 33.1183C11.7525 33.0021 11.2976 32.6918 11 32.2509L8.52082 28.6051C8.22791 28.1633 8.1144 27.6265 8.20343 27.1039C8.29245 26.5814 8.57731 26.1125 8.99999 25.7926L25.6667 13.0426L31.8333 22.1884ZM40.3958 9.91759C39.1602 8.08681 37.2483 6.82146 35.0802 6.39956C32.9122 5.97767 30.6653 6.43375 28.8333 7.66759C27.112 8.84179 25.893 10.6182 25.4167 12.6468L32.25 22.7926C34.3076 23.1139 36.411 22.6531 38.1458 21.5009C39.0552 20.889 39.835 20.1037 40.4404 19.19C41.0458 18.2762 41.465 17.2521 41.674 16.1761C41.8831 15.1001 41.8777 13.9934 41.6584 12.9195C41.4391 11.8456 41.01 10.8255 40.3958 9.91759V9.91759Z" stroke="#306CFE" stroke-width="2" stroke-linecap="round" stroke-linejoin="round"/>
<path d="M24.1045 10.709L33.417 24.5215" stroke="#344054" stroke-width="2" stroke-linecap="round" stroke-linejoin="round"/>
</svg>
