<svg width="50" height="50" viewBox="0 0 50 50" fill="none" xmlns="http://www.w3.org/2000/svg">
<path d="M6.25 43.7507L14.7917 35.209" stroke="#344054" stroke-width="2" stroke-linecap="round" stroke-linejoin="round"/>
<path d="M34.8963 22.9161L19.2088 36.8744C18.8224 37.2377 18.312 37.4399 17.7817 37.4399C17.2513 37.4399 16.741 37.2377 16.3546 36.8744L13.2296 33.7494C12.8663 33.363 12.6641 32.8527 12.6641 32.3223C12.6641 31.792 12.8663 31.2816 13.2296 30.8952L27.0838 15.1036L34.8963 22.9161ZM41.3129 8.70773C40.539 7.93292 39.6199 7.31827 38.6083 6.8989C37.5966 6.47953 36.5122 6.26367 35.4171 6.26367C34.322 6.26367 33.2376 6.47953 32.2259 6.8989C31.2143 7.31827 30.2952 7.93292 29.5213 8.70773C28.6799 9.54522 28.0271 10.5528 27.6068 11.663C27.1864 12.7733 27.0081 13.9605 27.0838 15.1452L34.7921 22.8536C35.9756 22.9404 37.1641 22.7734 38.2779 22.3638C39.3916 21.9542 40.4051 21.3115 41.2504 20.4786C42.0293 19.7087 42.6489 18.7929 43.0736 17.7835C43.4984 16.7741 43.72 15.6908 43.7258 14.5957C43.7316 13.5005 43.5215 12.415 43.1075 11.4011C42.6934 10.3873 42.0836 9.46494 41.3129 8.68689V8.70773Z" stroke="#306CFE" stroke-width="2" stroke-linecap="round" stroke-linejoin="round"/>
<path d="M36.8962 24.8952L25.1045 13.1035" stroke="#344054" stroke-width="2" stroke-linecap="round" stroke-linejoin="round"/>
</svg>
