<svg width="50" height="50" viewBox="0 0 50 50" fill="none" xmlns="http://www.w3.org/2000/svg">
<path d="M29.1667 24.9993C31.4679 24.9993 33.3333 23.1339 33.3333 20.8327C33.3333 18.5315 31.4679 16.666 29.1667 16.666C26.8655 16.666 25 18.5315 25 20.8327C25 23.1339 26.8655 24.9993 29.1667 24.9993Z" stroke="#344054" stroke-width="2" stroke-linecap="round" stroke-linejoin="round"/>
<path d="M39.583 14.5838C39.6121 13.7552 39.4704 12.9295 39.1666 12.158C38.8628 11.3866 38.4034 10.6859 37.8172 10.0996C37.2309 9.51337 36.5302 9.05405 35.7588 8.75025C34.9873 8.44646 34.1616 8.3047 33.333 8.3338V20.8338" stroke="#344054" stroke-width="2" stroke-linecap="round" stroke-linejoin="round"/>
<path d="M26.3545 33.3341C25.3734 34.2005 24.202 34.8237 22.9352 35.1531C21.6684 35.4824 20.3418 35.5088 19.0629 35.2299C17.2092 34.7055 15.5721 33.6015 14.3912 32.0795C13.2104 30.5575 12.5477 28.6974 12.5004 26.7716V14.9382C12.4657 12.9781 13.1015 11.0648 14.3025 9.51528C15.5035 7.96574 17.1977 6.8728 19.1045 6.4174C21.1207 5.99733 23.221 6.33872 25.0004 7.37573" stroke="#306CFE" stroke-width="2" stroke-linecap="round" stroke-linejoin="round"/>
<path d="M29.1667 43.7493H12.5M20.8333 35.416V43.7493V35.416Z" stroke="#306CFE" stroke-width="2" stroke-linecap="round" stroke-linejoin="round"/>
</svg>
