<svg width="50" height="50" viewBox="0 0 50 50" fill="none" xmlns="http://www.w3.org/2000/svg">
<path d="M43.75 6.25L31.8542 18.1458M18.1458 31.8542L6.25 43.75L18.1458 31.8542ZM18.1458 18.1458L6.25 6.25L18.1458 18.1458ZM43.75 43.75L31.8542 31.8542L43.75 43.75Z" stroke="#344054" stroke-width="2" stroke-linecap="round" stroke-linejoin="round"/>
<path d="M8.33301 31.25H16.6663C17.2189 31.25 17.7488 31.4695 18.1395 31.8602C18.5302 32.2509 18.7497 32.7808 18.7497 33.3333V41.6667" stroke="#306CFE" stroke-width="2" stroke-linecap="round" stroke-linejoin="round"/>
<path d="M18.7497 8.33398V16.6673C18.7497 17.2199 18.5302 17.7498 18.1395 18.1405C17.7488 18.5312 17.2189 18.7507 16.6663 18.7507H8.33301" stroke="#306CFE" stroke-width="2" stroke-linecap="round" stroke-linejoin="round"/>
<path d="M31.25 41.6667V33.3333C31.25 32.7808 31.4695 32.2509 31.8602 31.8602C32.2509 31.4695 32.7808 31.25 33.3333 31.25H41.6667" stroke="#306CFE" stroke-width="2" stroke-linecap="round" stroke-linejoin="round"/>
<path d="M41.6667 18.7507H33.3333C32.7808 18.7507 32.2509 18.5312 31.8602 18.1405C31.4695 17.7498 31.25 17.2199 31.25 16.6673V8.33398" stroke="#306CFE" stroke-width="2" stroke-linecap="round" stroke-linejoin="round"/>
</svg>
