<svg width="50" height="50" viewBox="0 0 50 50" fill="none" xmlns="http://www.w3.org/2000/svg">
<path d="M18.75 43.7507H31.25M25 27.084V43.7507V27.084Z" stroke="#306CFE" stroke-width="2" stroke-linecap="round" stroke-linejoin="round"/>
<path d="M24.8955 25H25.1038" stroke="#344054" stroke-width="3" stroke-linecap="round" stroke-linejoin="round"/>
<path d="M11.75 38.2509C9.12544 35.6296 7.33736 32.2887 6.61199 28.6509C5.88663 25.0131 6.25658 21.2419 7.67504 17.8144C9.09349 14.387 11.4967 11.4572 14.5806 9.39594C17.6646 7.33463 21.2906 6.23437 25 6.23438C28.7094 6.23437 32.3354 7.33463 35.4194 9.39594C38.5033 11.4572 40.9065 14.387 42.325 17.8144C43.7434 21.2419 44.1134 25.0131 43.388 28.6509C42.6627 32.2887 40.8746 35.6296 38.25 38.2509" stroke="#344054" stroke-width="2" stroke-linecap="round" stroke-linejoin="round"/>
<path d="M32.3747 32.3746C33.8288 30.9168 34.8183 29.0607 35.2181 27.0407C35.6179 25.0208 35.4101 22.9277 34.6209 21.0259C33.8317 19.124 32.4966 17.4987 30.7841 16.3553C29.0717 15.2118 27.0588 14.6016 24.9997 14.6016C22.9406 14.6016 20.9277 15.2118 19.2152 16.3553C17.5028 17.4987 16.1676 19.124 15.3785 21.0259C14.5893 22.9277 14.3814 25.0208 14.7812 27.0407C15.181 29.0607 16.1705 30.9168 17.6247 32.3746" stroke="#344054" stroke-width="2" stroke-linecap="round" stroke-linejoin="round"/>
</svg>
