<svg width="50" height="50" viewBox="0 0 50 50" fill="none" xmlns="http://www.w3.org/2000/svg">
<path d="M39.5833 22.916H34.375C33.5462 22.916 32.7513 23.2453 32.1653 23.8313C31.5792 24.4174 31.25 25.2122 31.25 26.041V26.041C31.25 26.8698 31.5792 27.6647 32.1653 28.2507C32.7513 28.8368 33.5462 29.166 34.375 29.166H36.4583C37.2871 29.166 38.082 29.4953 38.668 30.0813C39.2541 30.6674 39.5833 31.4622 39.5833 32.291V32.291C39.5833 33.1198 39.2541 33.9147 38.668 34.5007C38.082 35.0868 37.2871 35.416 36.4583 35.416H31.25" stroke="#344054" stroke-width="2" stroke-linecap="round" stroke-linejoin="round"/>
<path d="M35.417 37.5007V35.4173M35.417 22.9173V20.834V22.9173Z" stroke="#344054" stroke-width="2" stroke-linecap="round" stroke-linejoin="round"/>
<path d="M29.167 43.75H12.5003C11.9478 43.75 11.4179 43.5305 11.0272 43.1398C10.6365 42.7491 10.417 42.2192 10.417 41.6667V8.33333C10.417 7.7808 10.6365 7.25089 11.0272 6.86019C11.4179 6.46949 11.9478 6.25 12.5003 6.25H33.3337C33.8862 6.25 34.4161 6.46949 34.8068 6.86019C35.1975 7.25089 35.417 7.7808 35.417 8.33333V12.5" stroke="#306CFE" stroke-width="2" stroke-linecap="round" stroke-linejoin="round"/>
<path d="M27.0833 6.25H18.75L19.7917 10.4167H26.0417L27.0833 6.25Z" stroke="#306CFE" stroke-width="2" stroke-linecap="round" stroke-linejoin="round"/>
</svg>
