<svg width="50" height="50" viewBox="0 0 50 50" fill="none" xmlns="http://www.w3.org/2000/svg">
<path d="M6.25 22.9173H18.75M8.33333 14.584H18.75V35.4173H8.33333C7.7808 35.4173 7.25089 35.1978 6.86019 34.8071C6.46949 34.4164 6.25 33.8865 6.25 33.334V16.6673C6.25 16.1148 6.46949 15.5849 6.86019 15.1942C7.25089 14.8035 7.7808 14.584 8.33333 14.584V14.584Z" stroke="#344054" stroke-width="2" stroke-linecap="round" stroke-linejoin="round"/>
<path d="M27.083 25.0007L29.3538 27.6048L33.333 22.3965" stroke="#344054" stroke-width="2" stroke-linecap="round" stroke-linejoin="round"/>
<path d="M43.75 41.6667V8.33333C43.75 7.7808 43.5305 7.25089 43.1398 6.86019C42.7491 6.46949 42.2192 6.25 41.6667 6.25H20.8333C20.2808 6.25 19.7509 6.46949 19.3602 6.86019C18.9695 7.25089 18.75 7.7808 18.75 8.33333V41.6667C18.75 42.2192 18.9695 42.7491 19.3602 43.1398C19.7509 43.5305 20.2808 43.75 20.8333 43.75H41.6667C42.2192 43.75 42.7491 43.5305 43.1398 43.1398C43.5305 42.7491 43.75 42.2192 43.75 41.6667ZM28.125 10.4167H34.375L35.4167 6.25H27.0833L28.125 10.4167Z" stroke="#306CFE" stroke-width="2" stroke-linecap="round" stroke-linejoin="round"/>
</svg>
