<svg width="50" height="50" viewBox="0 0 50 50" fill="none" xmlns="http://www.w3.org/2000/svg">
<path d="M20.7295 20.834H20.9378" stroke="#344054" stroke-width="3" stroke-linecap="round" stroke-linejoin="round"/>
<path d="M33.3333 10.416H8.33333C7.18274 10.416 6.25 11.3488 6.25 12.4993V29.166C6.25 30.3166 7.18274 31.2494 8.33333 31.2494H33.3333C34.4839 31.2494 35.4167 30.3166 35.4167 29.166V12.4993C35.4167 11.3488 34.4839 10.416 33.3333 10.416Z" stroke="#306CFE" stroke-width="2" stroke-linecap="round" stroke-linejoin="round"/>
<path d="M35.4163 18.75H41.6663C42.2189 18.75 42.7488 18.9695 43.1395 19.3602C43.5302 19.7509 43.7497 20.2808 43.7497 20.8333V37.5C43.7497 38.0525 43.5302 38.5824 43.1395 38.9731C42.7488 39.3638 42.2189 39.5833 41.6663 39.5833H16.6663C16.1138 39.5833 15.5839 39.3638 15.1932 38.9731C14.8025 38.5824 14.583 38.0525 14.583 37.5V31.25" stroke="#306CFE" stroke-width="2" stroke-linecap="round" stroke-linejoin="round"/>
</svg>
