<svg width="50" height="50" viewBox="0 0 50 50" fill="none" xmlns="http://www.w3.org/2000/svg">
<path d="M27.667 14.5834C27.667 14.5834 33.6462 14.1042 36.167 15.7709C37.8126 16.7773 39.7871 17.0989 41.667 16.6667" stroke="#344054" stroke-width="2" stroke-linecap="round" stroke-linejoin="round"/>
<path d="M27.6663 14.5836L28.7288 8.70861C28.784 8.40715 28.772 8.09723 28.6936 7.80095C28.6153 7.50467 28.4725 7.22932 28.2756 6.99454C28.0786 6.75976 27.8322 6.57133 27.5541 6.44268C27.2759 6.31403 26.9728 6.24834 26.6663 6.25028H19.1663C18.8581 6.24524 18.5526 6.30865 18.2719 6.43595C17.9912 6.56324 17.7422 6.75125 17.5429 6.98641C17.3436 7.22157 17.199 7.49803 17.1195 7.79584C17.0399 8.09366 17.0275 8.40541 17.083 8.70861L18.1663 14.5836H27.6663ZM22.9163 43.7503C25.8686 43.7852 28.8099 43.3851 31.6455 42.5628C33.3425 42.034 34.8259 40.9765 35.8791 39.5447C36.9323 38.1129 37.5002 36.3819 37.4997 34.6044C37.48 32.4343 36.9671 30.2971 35.9997 28.3544L29.7497 15.8544C29.575 15.5077 29.3068 15.2167 28.9755 15.0142C28.6442 14.8118 28.2629 14.7059 27.8747 14.7086H17.958C17.5697 14.7059 17.1885 14.8118 16.8572 15.0142C16.5259 15.2167 16.2577 15.5077 16.083 15.8544L9.83301 28.3544C8.86563 30.2971 8.3527 32.4343 8.33301 34.6044V34.6044C8.33251 36.3819 8.90035 38.1129 9.95357 39.5447C11.0068 40.9765 12.4902 42.034 14.1872 42.5628C17.0228 43.3851 19.9641 43.7852 22.9163 43.7503V43.7503Z" stroke="#306CFE" stroke-width="2" stroke-linecap="round" stroke-linejoin="round"/>
</svg>
