<svg width="50" height="50" viewBox="0 0 50 50" fill="none" xmlns="http://www.w3.org/2000/svg">
<path d="M29.1663 14.584H23.958C23.1292 14.584 22.3343 14.9132 21.7483 15.4993C21.1622 16.0853 20.833 16.8802 20.833 17.709V17.709C20.833 18.5378 21.1622 19.3326 21.7483 19.9187C22.3343 20.5047 23.1292 20.834 23.958 20.834H26.0413C26.8701 20.834 27.665 21.1632 28.251 21.7493C28.8371 22.3353 29.1663 23.1302 29.1663 23.959V23.959C29.1663 24.7878 28.8371 25.5826 28.251 26.1687C27.665 26.7547 26.8701 27.084 26.0413 27.084H20.833" stroke="#344054" stroke-width="2" stroke-linecap="round" stroke-linejoin="round"/>
<path d="M25 27.0833V29.1667M25 12.5V14.5833V12.5Z" stroke="#344054" stroke-width="2" stroke-linecap="round" stroke-linejoin="round"/>
<path d="M12.5 43.75H37.5" stroke="#306CFE" stroke-width="2" stroke-linecap="round" stroke-linejoin="round"/>
<path d="M41.6667 6.25H8.33333C7.18274 6.25 6.25 7.18274 6.25 8.33333V33.3333C6.25 34.4839 7.18274 35.4167 8.33333 35.4167H41.6667C42.8173 35.4167 43.75 34.4839 43.75 33.3333V8.33333C43.75 7.18274 42.8173 6.25 41.6667 6.25Z" stroke="#306CFE" stroke-width="2" stroke-linecap="round" stroke-linejoin="round"/>
</svg>
