<svg width="50" height="50" viewBox="0 0 50 50" fill="none" xmlns="http://www.w3.org/2000/svg">
<path d="M29.1663 18.75H23.958C23.1292 18.75 22.3343 19.0792 21.7483 19.6653C21.1622 20.2513 20.833 21.0462 20.833 21.875V21.875C20.833 22.7038 21.1622 23.4987 21.7483 24.0847C22.3343 24.6708 23.1292 25 23.958 25H26.0413C26.8701 25 27.665 25.3292 28.251 25.9153C28.8371 26.5013 29.1663 27.2962 29.1663 28.125V28.125C29.1663 28.9538 28.8371 29.7487 28.251 30.3347C27.665 30.9208 26.8701 31.25 26.0413 31.25H20.833" stroke="#344054" stroke-width="2" stroke-linecap="round" stroke-linejoin="round"/>
<path d="M25 33.3327V31.2493M43.75 12.4993C43.75 11.9468 43.5305 11.4169 43.1398 11.0262C42.7491 10.6355 42.2192 10.416 41.6667 10.416H35.4167C35.4167 12.6262 36.2946 14.7458 37.8574 16.3086C39.4202 17.8714 41.5399 18.7493 43.75 18.7493V12.4993ZM6.25 18.7493C8.46014 18.7493 10.5798 17.8714 12.1426 16.3086C13.7054 14.7458 14.5833 12.6262 14.5833 10.416H8.33333C7.7808 10.416 7.25089 10.6355 6.86019 11.0262C6.46949 11.4169 6.25 11.9468 6.25 12.4993V18.7493ZM43.75 31.2493C41.5399 31.2493 39.4202 32.1273 37.8574 33.6901C36.2946 35.2529 35.4167 37.3725 35.4167 39.5827H41.6667C42.2192 39.5827 42.7491 39.3632 43.1398 38.9725C43.5305 38.5818 43.75 38.0519 43.75 37.4993V31.2493ZM6.25 37.4993C6.25 38.0519 6.46949 38.5818 6.86019 38.9725C7.25089 39.3632 7.7808 39.5827 8.33333 39.5827H14.5833C14.5833 37.3725 13.7054 35.2529 12.1426 33.6901C10.5798 32.1273 8.46014 31.2493 6.25 31.2493V31.2493V37.4993ZM25 18.7493V16.666V18.7493Z" stroke="#344054" stroke-width="2" stroke-linecap="round" stroke-linejoin="round"/>
<path d="M41.6667 10.416H8.33333C7.18274 10.416 6.25 11.3488 6.25 12.4993V37.4993C6.25 38.6499 7.18274 39.5827 8.33333 39.5827H41.6667C42.8173 39.5827 43.75 38.6499 43.75 37.4993V12.4993C43.75 11.3488 42.8173 10.416 41.6667 10.416Z" stroke="#306CFE" stroke-width="2" stroke-linecap="round" stroke-linejoin="round"/>
</svg>
