<svg width="50" height="50" viewBox="0 0 50 50" fill="none" xmlns="http://www.w3.org/2000/svg">
<path d="M20.833 31.25H26.0413C26.8701 31.25 27.665 30.9208 28.251 30.3347C28.8371 29.7487 29.1663 28.9538 29.1663 28.125V28.125C29.1663 27.2962 28.8371 26.5013 28.251 25.9153C27.665 25.3292 26.8701 25 26.0413 25H23.958C23.1292 25 22.3343 24.6708 21.7483 24.0847C21.1622 23.4987 20.833 22.7038 20.833 21.875C20.833 21.0462 21.1622 20.2513 21.7483 19.6653C22.3343 19.0792 23.1292 18.75 23.958 18.75H29.1663" stroke="#344054" stroke-width="2" stroke-linecap="round" stroke-linejoin="round"/>
<path d="M25 33.3327V31.2493M25 18.7493V16.666V18.7493Z" stroke="#344054" stroke-width="2" stroke-linecap="round" stroke-linejoin="round"/>
<path d="M25 43.75C35.3553 43.75 43.75 35.3553 43.75 25C43.75 14.6447 35.3553 6.25 25 6.25C14.6447 6.25 6.25 14.6447 6.25 25C6.25 35.3553 14.6447 43.75 25 43.75Z" stroke="#306CFE" stroke-width="2" stroke-linecap="round" stroke-linejoin="round"/>
</svg>
