<svg width="50" height="50" viewBox="0 0 50 50" fill="none" xmlns="http://www.w3.org/2000/svg">
<path d="M33.3337 41.6673L31.2503 33.334H18.7503L16.667 41.6673H33.3337Z" stroke="#344054" stroke-width="2" stroke-linecap="round" stroke-linejoin="round"/>
<path d="M12.5 41.6673H37.5H12.5ZM41.6667 33.334H8.33333C7.7808 33.334 7.25089 33.1145 6.86019 32.7238C6.46949 32.3331 6.25 31.8032 6.25 31.2507V10.4173C6.25 9.86478 6.46949 9.33488 6.86019 8.94418C7.25089 8.55348 7.7808 8.33398 8.33333 8.33398H41.6667C42.2192 8.33398 42.7491 8.55348 43.1398 8.94418C43.5305 9.33488 43.75 9.86478 43.75 10.4173V31.2507C43.75 31.8032 43.5305 32.3331 43.1398 32.7238C42.7491 33.1145 42.2192 33.334 41.6667 33.334Z" stroke="#306CFE" stroke-width="2" stroke-linecap="round" stroke-linejoin="round"/>
</svg>
