<svg width="50" height="50" viewBox="0 0 50 50" fill="none" xmlns="http://www.w3.org/2000/svg">
<path d="M28.1254 11.4375C27.4375 12.1282 26.5034 12.5173 25.5286 12.5192C24.5538 12.5212 23.6181 12.1358 22.9274 11.4479C22.2368 10.76 21.8477 9.82591 21.8457 8.85112C21.8438 7.87632 22.2291 6.94067 22.917 6.25" stroke="#344054" stroke-width="2" stroke-linecap="round" stroke-linejoin="round"/>
<path d="M25 12.5V18.75" stroke="#344054" stroke-width="2" stroke-linecap="round" stroke-linejoin="round"/>
<path d="M39.583 43.75C40.8185 41.3806 41.5291 38.7728 41.6663 36.1042C41.6663 31.9375 39.7497 29.3333 34.9163 26.7083C31.1687 24.6591 27.8117 21.9651 24.9997 18.75C22.1876 21.9651 18.8307 24.6591 15.083 26.7083C10.2497 29.3333 8.33301 32.0208 8.33301 36.1042C8.47029 38.7728 9.18086 41.3806 10.4163 43.75H39.583Z" stroke="#306CFE" stroke-width="2" stroke-linecap="round" stroke-linejoin="round"/>
</svg>
