<svg width="50" height="50" viewBox="0 0 50 50" fill="none" xmlns="http://www.w3.org/2000/svg">
<path d="M37.5 18.75C40.9518 18.75 43.75 15.9518 43.75 12.5C43.75 9.04822 40.9518 6.25 37.5 6.25C34.0482 6.25 31.25 9.04822 31.25 12.5C31.25 15.9518 34.0482 18.75 37.5 18.75Z" stroke="#344054" stroke-width="2" stroke-linecap="round" stroke-linejoin="round"/>
<path d="M8.33301 43.7501H22.9163L27.8538 33.6251L22.6663 24.0001C22.4878 23.6693 22.2232 23.393 21.9004 23.2005C21.5777 23.0079 21.2088 22.9062 20.833 22.9062C20.4572 22.9062 20.0883 23.0079 19.7656 23.2005C19.4428 23.393 19.1782 23.6693 18.9997 24.0001L8.33301 43.7501ZM38.333 43.7501H22.9163L32.2913 24.5209L40.208 40.7501C40.3638 41.068 40.436 41.4204 40.4177 41.774C40.3995 42.1276 40.2915 42.4707 40.1038 42.7709C39.9162 43.0711 39.6551 43.3186 39.3453 43.4899C39.0354 43.6612 38.6871 43.7508 38.333 43.7501Z" stroke="#306CFE" stroke-width="2" stroke-linecap="round" stroke-linejoin="round"/>
<path d="M6.25 43.75H43.75" stroke="#344054" stroke-width="2" stroke-linecap="round" stroke-linejoin="round"/>
</svg>
