<svg width="50" height="50" viewBox="0 0 50 50" fill="none" xmlns="http://www.w3.org/2000/svg">
<path d="M25 14.584V16.6673" stroke="#344054" stroke-width="2" stroke-linecap="round" stroke-linejoin="round"/>
<path d="M24.9996 6.25C26.8776 6.24974 28.7359 6.63302 30.4605 7.37635C32.1851 8.11968 33.7397 9.2074 35.0291 10.5728C36.3184 11.9382 37.3153 13.5526 37.9587 15.317C38.602 17.0813 38.8783 18.9584 38.7705 20.8333L38.1871 31.25C38.0108 34.627 36.544 37.8073 34.0897 40.1336C31.6354 42.46 28.3813 43.7546 24.9996 43.75V43.75C21.618 43.7546 18.3638 42.46 15.9095 40.1336C13.4553 37.8073 11.9884 34.627 11.8121 31.25L11.2288 20.8333C11.121 18.9584 11.3972 17.0813 12.0406 15.317C12.6839 13.5526 13.6809 11.9382 14.9702 10.5728C16.2596 9.2074 17.8142 8.11968 19.5388 7.37635C21.2634 6.63302 23.1216 6.24974 24.9996 6.25V6.25Z" stroke="#306CFE" stroke-width="2" stroke-linecap="round" stroke-linejoin="round"/>
</svg>
