<svg width="50" height="50" viewBox="0 0 50 50" fill="none" xmlns="http://www.w3.org/2000/svg">
<path d="M35.4163 27.0827L43.7497 29.166V24.9993L35.4163 22.916V39.5827V27.0827ZM31.2497 35.416C30.4256 35.416 29.62 35.6604 28.9348 36.1182C28.2496 36.5761 27.7155 37.2268 27.4002 37.9882C27.0848 38.7495 27.0023 39.5873 27.1631 40.3956C27.3238 41.2038 27.7207 41.9462 28.3034 42.529C28.8861 43.1117 29.6285 43.5085 30.4368 43.6693C31.2451 43.8301 32.0828 43.7475 32.8442 43.4322C33.6055 43.1168 34.2563 42.5828 34.7141 41.8976C35.172 41.2124 35.4163 40.4068 35.4163 39.5827C35.4163 38.4776 34.9774 37.4178 34.196 36.6364C33.4146 35.855 32.3547 35.416 31.2497 35.416Z" stroke="#344054" stroke-width="2" stroke-linecap="round" stroke-linejoin="round"/>
<path d="M18.75 43.75H8.33333C7.7808 43.75 7.25089 43.5305 6.86019 43.1398C6.46949 42.7491 6.25 42.2192 6.25 41.6667V8.33333C6.25 7.7808 6.46949 7.25089 6.86019 6.86019C7.25089 6.46949 7.7808 6.25 8.33333 6.25H33.3333C33.8859 6.25 34.4158 6.46949 34.8065 6.86019C35.1972 7.25089 35.4167 7.7808 35.4167 8.33333V14.5833" stroke="#306CFE" stroke-width="2" stroke-linecap="round" stroke-linejoin="round"/>
<path d="M20.833 27.084C24.2848 27.084 27.083 24.2858 27.083 20.834C27.083 17.3822 24.2848 14.584 20.833 14.584C17.3812 14.584 14.583 17.3822 14.583 20.834C14.583 24.2858 17.3812 27.084 20.833 27.084Z" stroke="#306CFE" stroke-width="2" stroke-linecap="round" stroke-linejoin="round"/>
</svg>
