<svg width="50" height="50" viewBox="0 0 50 50" fill="none" xmlns="http://www.w3.org/2000/svg">
<path d="M14.5833 35.4167H8.33333C7.7808 35.4167 7.25089 35.1972 6.86019 34.8065C6.46949 34.4158 6.25 33.8859 6.25 33.3334V8.33337C6.25 7.78083 6.46949 7.25093 6.86019 6.86023C7.25089 6.46953 7.7808 6.25003 8.33333 6.25003H16.6667C16.9408 6.24845 17.2126 6.301 17.4665 6.40468C17.7203 6.50835 17.9512 6.66112 18.1458 6.8542L23.1667 11.8959C23.3613 12.089 23.5922 12.2417 23.846 12.3454C24.0999 12.4491 24.3717 12.5016 24.6458 12.5H35.4167C35.9692 12.5 36.4991 12.7195 36.8898 13.1102C37.2805 13.5009 37.5 14.0308 37.5 14.5834V20.8334" stroke="#306CFE" stroke-width="2" stroke-linecap="round" stroke-linejoin="round"/>
<path d="M41.6663 20.834H16.6663C15.5157 20.834 14.583 21.7667 14.583 22.9173V41.6673C14.583 42.8179 15.5157 43.7507 16.6663 43.7507H41.6663C42.8169 43.7507 43.7497 42.8179 43.7497 41.6673V22.9173C43.7497 21.7667 42.8169 20.834 41.6663 20.834Z" stroke="#344054" stroke-width="2" stroke-linecap="round" stroke-linejoin="round"/>
</svg>
