<svg width="50" height="50" viewBox="0 0 50 50" fill="none" xmlns="http://www.w3.org/2000/svg">
<path d="M31.2497 43.7493C33.5509 43.7493 35.4163 41.8839 35.4163 39.5827C35.4163 37.2815 33.5509 35.416 31.2497 35.416C28.9485 35.416 27.083 37.2815 27.083 39.5827C27.083 41.8839 28.9485 43.7493 31.2497 43.7493Z" stroke="#344054" stroke-width="2" stroke-linecap="round" stroke-linejoin="round"/>
<path d="M41.667 33.3338C41.6961 32.5052 41.5543 31.6795 41.2505 30.908C40.9467 30.1366 40.4874 29.4359 39.9012 28.8496C39.3149 28.2634 38.6142 27.804 37.8428 27.5003C37.0713 27.1965 36.2456 27.0547 35.417 27.0838V39.5838" stroke="#344054" stroke-width="2" stroke-linecap="round" stroke-linejoin="round"/>
<path d="M18.7497 39.5833H10.4163C9.86381 39.5833 9.3339 39.3638 8.9432 38.9731C8.5525 38.5824 8.33301 38.0525 8.33301 37.5V18.75L20.833 6.25H33.333C33.8855 6.25 34.4154 6.46949 34.8062 6.86019C35.1969 7.25089 35.4163 7.7808 35.4163 8.33333V18.75" stroke="#306CFE" stroke-width="2" stroke-linecap="round" stroke-linejoin="round"/>
<path d="M20.833 18.75V6.25L8.33301 18.75H20.833Z" stroke="#306CFE" stroke-width="2" stroke-linecap="round" stroke-linejoin="round"/>
</svg>
