<svg width="50" height="50" viewBox="0 0 50 50" fill="none" xmlns="http://www.w3.org/2000/svg">
<path d="M18.7497 33.3333C21.0509 33.3333 22.9163 31.4679 22.9163 29.1667C22.9163 26.8655 21.0509 25 18.7497 25C16.4485 25 14.583 26.8655 14.583 29.1667C14.583 31.4679 16.4485 33.3333 18.7497 33.3333Z" stroke="#344054" stroke-width="2" stroke-linecap="round" stroke-linejoin="round"/>
<path d="M22.917 29.1658V16.6658C23.7456 16.6367 24.5713 16.7785 25.3428 17.0823C26.1142 17.3861 26.8149 17.8454 27.4012 18.4317C27.9874 19.0179 28.4467 19.7186 28.7505 20.4901C29.0543 21.2615 29.1961 22.0872 29.167 22.9158" stroke="#344054" stroke-width="2" stroke-linecap="round" stroke-linejoin="round"/>
<path d="M37.5 41.6673H8.33333C7.7808 41.6673 7.25089 41.4478 6.86019 41.0571C6.46949 40.6664 6.25 40.1365 6.25 39.584V10.4173C6.25 9.86478 6.46949 9.33488 6.86019 8.94418C7.25089 8.55348 7.7808 8.33398 8.33333 8.33398H37.5C38.0525 8.33398 38.5824 8.55348 38.9731 8.94418C39.3638 9.33488 39.5833 9.86478 39.5833 10.4173V39.584C39.5833 40.1365 39.3638 40.6664 38.9731 41.0571C38.5824 41.4478 38.0525 41.6673 37.5 41.6673ZM39.5833 16.6673V33.334C40.877 32.3637 41.9271 31.1055 42.6503 29.6591C43.3735 28.2127 43.75 26.6178 43.75 25.0007C43.75 23.3835 43.3735 21.7886 42.6503 20.3422C41.9271 18.8958 40.877 17.6376 39.5833 16.6673V16.6673Z" stroke="#306CFE" stroke-width="2" stroke-linecap="round" stroke-linejoin="round"/>
</svg>
