<svg width="50" height="50" viewBox="0 0 50 50" fill="none" xmlns="http://www.w3.org/2000/svg">
<path d="M39.583 6.25H10.4163C9.26575 6.25 8.33301 7.18274 8.33301 8.33333V41.6667C8.33301 42.8173 9.26575 43.75 10.4163 43.75H39.583C40.7336 43.75 41.6663 42.8173 41.6663 41.6667V8.33333C41.6663 7.18274 40.7336 6.25 39.583 6.25Z" stroke="#306CFE" stroke-width="2" stroke-linecap="round" stroke-linejoin="round"/>
<path d="M10.4163 6.25H16.6663V43.75H10.4163C9.86381 43.75 9.3339 43.5305 8.9432 43.1398C8.5525 42.7491 8.33301 42.2192 8.33301 41.6667V8.33333C8.33301 7.7808 8.5525 7.25089 8.9432 6.86019C9.3339 6.46949 9.86381 6.25 10.4163 6.25Z" stroke="#344054" stroke-width="2" stroke-linecap="round" stroke-linejoin="round"/>
</svg>
