<svg width="50" height="50" viewBox="0 0 50 50" fill="none" xmlns="http://www.w3.org/2000/svg">
<path d="M18.75 31.25H31.25M29.1667 12.5H20.8333C20.2808 12.5 19.7509 12.2805 19.3602 11.8898C18.9695 11.4991 18.75 10.9692 18.75 10.4167V8.33333C18.75 7.7808 18.9695 7.25089 19.3602 6.86019C19.7509 6.46949 20.2808 6.25 20.8333 6.25H29.1667C29.7192 6.25 30.2491 6.46949 30.6398 6.86019C31.0305 7.25089 31.25 7.7808 31.25 8.33333V10.4167C31.25 10.9692 31.0305 11.4991 30.6398 11.8898C30.2491 12.2805 29.7192 12.5 29.1667 12.5ZM18.75 22.9167H31.25H18.75Z" stroke="#344054" stroke-width="2" stroke-linecap="round" stroke-linejoin="round"/>
<path d="M37.5003 8.33398C38.0529 8.33398 38.5828 8.55348 38.9735 8.94418C39.3642 9.33488 39.5837 9.86478 39.5837 10.4173V41.6673C39.5837 42.2199 39.3642 42.7498 38.9735 43.1405C38.5828 43.5312 38.0529 43.7507 37.5003 43.7507H12.5003C11.9478 43.7507 11.4179 43.5312 11.0272 43.1405C10.6365 42.7498 10.417 42.2199 10.417 41.6673V10.4173C10.417 9.86478 10.6365 9.33488 11.0272 8.94418C11.4179 8.55348 11.9478 8.33398 12.5003 8.33398" stroke="#306CFE" stroke-width="2" stroke-linecap="round" stroke-linejoin="round"/>
</svg>
