<svg width="50" height="50" viewBox="0 0 50 50" fill="none" xmlns="http://www.w3.org/2000/svg">
<path d="M38.5413 16.6667C41.4178 16.6667 43.7497 14.3348 43.7497 11.4583C43.7497 8.58185 41.4178 6.25 38.5413 6.25C35.6649 6.25 33.333 8.58185 33.333 11.4583C33.333 14.3348 35.6649 16.6667 38.5413 16.6667Z" stroke="#344054" stroke-width="2" stroke-linecap="round" stroke-linejoin="round"/>
<path d="M41.6663 25.0007V37.5006C41.6663 38.6057 41.2274 39.6655 40.446 40.4469C39.6645 41.2283 38.6047 41.6673 37.4997 41.6673H12.4997C11.3946 41.6673 10.3348 41.2283 9.5534 40.4469C8.77199 39.6655 8.33301 38.6057 8.33301 37.5006V12.5007C8.33301 11.3956 8.77199 10.3358 9.5534 9.55437C10.3348 8.77297 11.3946 8.33398 12.4997 8.33398H24.9997" stroke="#306CFE" stroke-width="2" stroke-linecap="round" stroke-linejoin="round"/>
</svg>
