<svg width="50" height="50" viewBox="0 0 50 50" fill="none" xmlns="http://www.w3.org/2000/svg">
<path d="M31.25 37.5H18.75C18.75 39.1576 19.4085 40.7473 20.5806 41.9194C21.7527 43.0915 23.3424 43.75 25 43.75C26.6576 43.75 28.2473 43.0915 29.4194 41.9194C30.5915 40.7473 31.25 39.1576 31.25 37.5Z" stroke="#344054" stroke-width="2" stroke-linecap="round" stroke-linejoin="round"/>
<path d="M40.3747 29.9583C40.7847 30.3688 41.1098 30.8561 41.3314 31.3923C41.553 31.9285 41.6669 32.5031 41.6663 33.0833V33.0833C41.6663 34.2547 41.201 35.3781 40.3727 36.2064C39.5444 37.0347 38.421 37.5 37.2497 37.5H12.7497C11.5783 37.5 10.4549 37.0347 9.62662 36.2064C8.79834 35.3781 8.33301 34.2547 8.33301 33.0833V33.0833C8.3325 32.5031 8.44631 31.9285 8.66794 31.3923C8.88957 30.8561 9.21467 30.3688 9.62468 29.9583L12.4997 27.0833V18.75C12.4997 15.4348 13.8166 12.2554 16.1608 9.91117C18.505 7.56696 21.6845 6.25 24.9997 6.25V6.25C28.3149 6.25 31.4943 7.56696 33.8385 9.91117C36.1827 12.2554 37.4997 15.4348 37.4997 18.75V27.0833L40.3747 29.9583Z" stroke="#306CFE" stroke-width="2" stroke-linecap="round" stroke-linejoin="round"/>
</svg>
