<svg width="50" height="50" viewBox="0 0 50 50" fill="none" xmlns="http://www.w3.org/2000/svg">
<path d="M31.25 37.5H18.75C18.75 39.1576 19.4085 40.7473 20.5806 41.9194C21.7527 43.0915 23.3424 43.75 25 43.75C26.6576 43.75 28.2473 43.0915 29.4194 41.9194C30.5915 40.7473 31.25 39.1576 31.25 37.5Z" stroke="#344054" stroke-width="2" stroke-linecap="round" stroke-linejoin="round"/>
<path d="M37.4997 18.75V27.0834L40.3747 29.9584C40.9931 30.5761 41.4144 31.3634 41.5851 32.2206C41.7559 33.0779 41.6684 33.9666 41.3338 34.7741C40.9992 35.5816 40.4325 36.2717 39.7055 36.7569C38.9784 37.2422 38.1238 37.5008 37.2497 37.5H12.7497C11.8756 37.5008 11.0209 37.2422 10.2939 36.7569C9.56682 36.2717 9.00013 35.5816 8.66552 34.7741C8.33091 33.9666 8.24344 33.0779 8.41418 32.2206C8.58492 31.3634 9.0062 30.5761 9.62466 29.9584L12.4997 27.0834V18.75C12.4997 15.4348 13.8166 12.2554 16.1608 9.91119C18.505 7.56698 21.6845 6.25002 24.9997 6.25002C27.0955 6.24594 29.1588 6.76892 30.9997 7.77086" stroke="#306CFE" stroke-width="2" stroke-linecap="round" stroke-linejoin="round"/>
<path d="M29.167 12.5C29.167 14.1576 29.8255 15.7473 30.9976 16.9194C32.1697 18.0915 33.7594 18.75 35.417 18.75C37.0746 18.75 38.6643 18.0915 39.8364 16.9194C41.0085 15.7473 41.667 14.1576 41.667 12.5C41.667 10.8424 41.0085 9.25269 39.8364 8.08058C38.6643 6.90848 37.0746 6.25 35.417 6.25C33.7594 6.25 32.1697 6.90848 30.9976 8.08058C29.8255 9.25269 29.167 10.8424 29.167 12.5V12.5Z" stroke="#344054" stroke-width="2" stroke-linecap="round" stroke-linejoin="round"/>
</svg>
