<svg width="50" height="50" viewBox="0 0 50 50" fill="none" xmlns="http://www.w3.org/2000/svg">
<path d="M12.5 10.416H8.33336C7.78083 10.416 7.25092 10.6355 6.86022 11.0262C6.46952 11.4169 6.25003 11.9468 6.25003 12.4993V18.9577C6.24743 19.4759 6.4381 19.9766 6.7848 20.3618C7.13151 20.747 7.60935 20.9892 8.12503 21.041L25.2084 22.7493C25.724 22.8012 26.2019 23.0433 26.5486 23.4286C26.8953 23.8138 27.086 24.3144 27.0834 24.8327V29.166" stroke="#344054" stroke-width="2" stroke-linecap="round" stroke-linejoin="round"/>
<path d="M12.5 12.5V8.33333C12.5 7.7808 12.7195 7.25089 13.1102 6.86019C13.5009 6.46949 14.0308 6.25 14.5833 6.25H39.5833C40.1359 6.25 40.6658 6.46949 41.0565 6.86019C41.4472 7.25089 41.6667 7.7808 41.6667 8.33333V12.5C41.6667 13.0525 41.4472 13.5824 41.0565 13.9731C40.6658 14.3638 40.1359 14.5833 39.5833 14.5833H14.5833C14.0308 14.5833 13.5009 14.3638 13.1102 13.9731C12.7195 13.5824 12.5 13.0525 12.5 12.5ZM27.0833 43.75C28.1884 43.75 29.2482 43.311 30.0296 42.5296C30.811 41.7482 31.25 40.6884 31.25 39.5833V31.25C31.25 30.6975 31.0305 30.1676 30.6398 29.7769C30.2491 29.3862 29.7192 29.1667 29.1667 29.1667H25C24.4475 29.1667 23.9176 29.3862 23.5269 29.7769C23.1362 30.1676 22.9167 30.6975 22.9167 31.25V39.5833C22.9167 40.6884 23.3557 41.7482 24.1371 42.5296C24.9185 43.311 25.9783 43.75 27.0833 43.75Z" stroke="#306CFE" stroke-width="2" stroke-linecap="round" stroke-linejoin="round"/>
</svg>
