<svg width="50" height="50" viewBox="0 0 50 50" fill="none" xmlns="http://www.w3.org/2000/svg">
<path d="M6.25 37.5V8.33333C6.25 7.7808 6.46949 7.25089 6.86019 6.86019C7.25089 6.46949 7.7808 6.25 8.33333 6.25H16.6667C17.2192 6.25 17.7491 6.46949 18.1398 6.86019C18.5305 7.25089 18.75 7.7808 18.75 8.33333V22.4167" stroke="#306CFE" stroke-width="2" stroke-linecap="round" stroke-linejoin="round"/>
<path d="M9.91699 31.2503L28.667 12.5003C29.0573 12.1123 29.5854 11.8945 30.1357 11.8945C30.6861 11.8945 31.2142 12.1123 31.6045 12.5003L37.5003 18.3545C37.8883 18.7449 38.1061 19.2729 38.1061 19.8233C38.1061 20.3737 37.8883 20.9017 37.5003 21.292L27.5837 31.2503" stroke="#344054" stroke-width="2" stroke-linecap="round" stroke-linejoin="round"/>
<path d="M6.25 37.5C6.25 35.8424 6.90848 34.2527 8.08058 33.0806C9.25269 31.9085 10.8424 31.25 12.5 31.25H41.6667C42.2192 31.25 42.7491 31.4695 43.1398 31.8602C43.5305 32.2509 43.75 32.7808 43.75 33.3333V41.6667C43.75 42.2192 43.5305 42.7491 43.1398 43.1398C42.7491 43.5305 42.2192 43.75 41.6667 43.75H12.5C10.8424 43.75 9.25269 43.0915 8.08058 41.9194C6.90848 40.7473 6.25 39.1576 6.25 37.5Z" stroke="#306CFE" stroke-width="2" stroke-linecap="round" stroke-linejoin="round"/>
</svg>
