<svg width="50" height="50" viewBox="0 0 50 50" fill="none" xmlns="http://www.w3.org/2000/svg">
<path d="M18.75 35.4173V14.584H25C26.6576 14.584 28.2473 15.2425 29.4194 16.4146C30.5915 17.5867 31.25 19.1764 31.25 20.834C31.25 22.4916 30.5915 24.0813 29.4194 25.2534C28.2473 26.4255 26.6576 27.084 25 27.084H18.75" stroke="#344054" stroke-width="2" stroke-linecap="round" stroke-linejoin="round"/>
<path d="M41.6667 6.25H8.33333C7.18274 6.25 6.25 7.18274 6.25 8.33333V41.6667C6.25 42.8173 7.18274 43.75 8.33333 43.75H41.6667C42.8173 43.75 43.75 42.8173 43.75 41.6667V8.33333C43.75 7.18274 42.8173 6.25 41.6667 6.25Z" stroke="#306CFE" stroke-width="2" stroke-linecap="round" stroke-linejoin="round"/>
</svg>
