<svg width="50" height="50" viewBox="0 0 50 50" fill="none" xmlns="http://www.w3.org/2000/svg">
<path d="M14.5833 6.25H18.75C19.3025 6.25 19.8324 6.46949 20.2231 6.86019C20.6138 7.25089 20.8333 7.7808 20.8333 8.33333V41.6667C20.8333 42.2192 20.6138 42.7491 20.2231 43.1398C19.8324 43.5305 19.3025 43.75 18.75 43.75H14.5833C14.0308 43.75 13.5009 43.5305 13.1102 43.1398C12.7195 42.7491 12.5 42.2192 12.5 41.6667V8.33333C12.5 7.7808 12.7195 7.25089 13.1102 6.86019C13.5009 6.46949 14.0308 6.25 14.5833 6.25ZM31.25 43.75H35.4167C35.9692 43.75 36.4991 43.5305 36.8898 43.1398C37.2805 42.7491 37.5 42.2192 37.5 41.6667V8.33333C37.5 7.7808 37.2805 7.25089 36.8898 6.86019C36.4991 6.46949 35.9692 6.25 35.4167 6.25H31.25C30.6975 6.25 30.1676 6.46949 29.7769 6.86019C29.3862 7.25089 29.1667 7.7808 29.1667 8.33333V41.6667C29.1667 42.2192 29.3862 42.7491 29.7769 43.1398C30.1676 43.5305 30.6975 43.75 31.25 43.75Z" stroke="#306CFE" stroke-width="2" stroke-linecap="round" stroke-linejoin="round"/>
</svg>
