<svg width="50" height="50" viewBox="0 0 50 50" fill="none" xmlns="http://www.w3.org/2000/svg">
<path d="M24.9997 6.25V35.4167M24.9997 43.75C24.1756 43.75 23.37 43.5056 22.6848 43.0478C21.9996 42.5899 21.4655 41.9392 21.1502 41.1778C20.8348 40.4165 20.7523 39.5787 20.9131 38.7705C21.0738 37.9622 21.4707 37.2198 22.0534 36.6371C22.6361 36.0543 23.3785 35.6575 24.1868 35.4967C24.9951 35.336 25.8328 35.4185 26.5942 35.7338C27.3555 36.0492 28.0063 36.5832 28.4641 37.2685C28.922 37.9537 29.1663 38.7592 29.1663 39.5833C29.1663 40.6884 28.7274 41.7482 27.946 42.5296C27.1646 43.311 26.1047 43.75 24.9997 43.75Z" stroke="#306CFE" stroke-width="2" stroke-linecap="round" stroke-linejoin="round"/>
<path d="M10.417 6.25H39.5837" stroke="#344054" stroke-width="2" stroke-linecap="round" stroke-linejoin="round"/>
</svg>
