<svg width="50" height="50" viewBox="0 0 50 50" fill="none" xmlns="http://www.w3.org/2000/svg">
<path d="M15.8337 35.6042L25.0003 6.25M35.417 39.5833C35.417 38.7592 35.1726 37.9537 34.7148 37.2685C34.2569 36.5832 33.6062 36.0492 32.8448 35.7338C32.0835 35.4185 31.2457 35.336 30.4374 35.4967C29.6292 35.6575 28.8868 36.0543 28.304 36.6371C27.7213 37.2198 27.3245 37.9622 27.1637 38.7705C27.0029 39.5787 27.0855 40.4165 27.4008 41.1778C27.7162 41.9392 28.2502 42.5899 28.9354 43.0478C29.6207 43.5056 30.4262 43.75 31.2503 43.75C32.3554 43.75 33.4152 43.311 34.1966 42.5296C34.978 41.7482 35.417 40.6884 35.417 39.5833ZM31.2503 6.25V35.4167V6.25ZM14.5837 43.75C15.4077 43.75 16.2133 43.5056 16.8985 43.0478C17.5837 42.5899 18.1178 41.9392 18.4332 41.1778C18.7485 40.4165 18.831 39.5787 18.6703 38.7705C18.5095 37.9622 18.1127 37.2198 17.5299 36.6371C16.9472 36.0543 16.2048 35.6575 15.3965 35.4967C14.5883 35.336 13.7505 35.4185 12.9891 35.7338C12.2278 36.0492 11.577 36.5832 11.1192 37.2685C10.6614 37.9537 10.417 38.7592 10.417 39.5833C10.417 40.6884 10.856 41.7482 11.6374 42.5296C12.4188 43.311 13.4786 43.75 14.5837 43.75Z" stroke="#306CFE" stroke-width="2" stroke-linecap="round" stroke-linejoin="round"/>
<path d="M10.417 6.25H39.5837" stroke="#344054" stroke-width="2" stroke-linecap="round" stroke-linejoin="round"/>
</svg>
