<svg width="50" height="50" viewBox="0 0 50 50" fill="none" xmlns="http://www.w3.org/2000/svg">
<path d="M43.7504 31.2501V39.4376C43.7568 40.0395 43.6327 40.6357 43.3866 41.185C43.1405 41.7344 42.7782 42.2239 42.3248 42.6199C41.8714 43.0159 41.3376 43.3089 40.7601 43.4789C40.1827 43.6488 39.5752 43.6916 38.9796 43.6042C30.7233 42.5436 23.0545 38.7661 17.1816 32.8668C11.3087 26.9676 7.56564 19.2819 6.54209 11.0209C6.45505 10.427 6.49734 9.82139 6.66606 9.2454C6.83478 8.6694 7.12595 8.13665 7.51964 7.68361C7.91333 7.23057 8.40025 6.86793 8.94708 6.62051C9.49391 6.37308 10.0877 6.24672 10.6879 6.25006H18.7504C19.2655 6.24694 19.7634 6.4347 20.1481 6.77712C20.5329 7.11953 20.7771 7.59232 20.8338 8.10423C21.0405 10.8346 21.7466 13.5038 22.9171 15.9792C23.1178 16.448 23.1396 16.9742 22.9783 17.458C22.817 17.9418 22.4839 18.3496 22.0421 18.6042L20.2504 19.6251C19.9922 19.7671 19.767 19.9623 19.5898 20.1978C19.4126 20.4333 19.2873 20.7037 19.2223 20.9912C19.1574 21.2787 19.1541 21.5767 19.2128 21.8655C19.2715 22.1544 19.3909 22.4274 19.5629 22.6667C21.624 25.6859 24.2313 28.2931 27.2504 30.3542C27.4897 30.5263 27.7628 30.6456 28.0516 30.7043C28.3405 30.763 28.6385 30.7598 28.9259 30.6948C29.2134 30.6298 29.4838 30.5046 29.7193 30.3274C29.9548 30.1502 30.1501 29.925 30.2921 29.6667L31.3129 27.8751C31.5828 27.4274 32.011 27.0976 32.5127 26.9509C33.0143 26.8043 33.5528 26.8516 34.0213 27.0834C36.4967 28.2539 39.1659 28.96 41.8963 29.1667C42.4082 29.2234 42.881 29.4676 43.2234 29.8524C43.5658 30.2371 43.7535 30.735 43.7504 31.2501Z" stroke="#306CFE" stroke-width="2" stroke-linecap="round" stroke-linejoin="round"/>
</svg>
