<svg width="50" height="50" viewBox="0 0 50 50" fill="none" xmlns="http://www.w3.org/2000/svg">
<path d="M34.042 34.4367L34.9378 33.0617C35.1623 32.7242 35.3135 32.3434 35.3815 31.9438C35.4496 31.5443 35.433 31.1349 35.3328 30.7421C35.2327 30.3494 35.0512 29.982 34.8001 29.6639C34.5491 29.3457 34.234 29.0837 33.8753 28.895C33.3545 28.6242 32.8545 28.3325 32.3753 28.0408C31.7493 27.6452 30.9962 27.5026 30.2688 27.6419C29.5414 27.7812 28.8943 28.1919 28.4587 28.7908L25.792 32.5825C27.6957 33.872 29.8112 34.8169 32.042 35.3742C32.4324 35.48 32.8477 35.4438 33.2139 35.2721C33.5801 35.1005 33.8736 34.8044 34.042 34.4367V34.4367Z" stroke="#344054" stroke-width="2" stroke-linecap="round" stroke-linejoin="round"/>
<path d="M14.5829 17.8533C15.1401 20.0841 16.0851 22.1996 17.3746 24.1033L21.1662 21.4366C21.7651 21.001 22.1759 20.3539 22.3152 19.6265C22.4545 18.8991 22.3118 18.146 21.9162 17.52C21.6246 17.0408 21.3329 16.5408 21.0621 16.02C20.8733 15.6613 20.6114 15.3462 20.2932 15.0951C19.975 14.8441 19.6077 14.6626 19.2149 14.5625C18.8222 14.4623 18.4128 14.4457 18.0132 14.5138C17.6137 14.5818 17.2329 14.733 16.8954 14.9575L15.5204 15.8533C15.1527 16.0217 14.8566 16.3152 14.6849 16.6814C14.5133 17.0476 14.4771 17.4629 14.5829 17.8533V17.8533Z" stroke="#344054" stroke-width="2" stroke-linecap="round" stroke-linejoin="round"/>
<path d="M25.792 32.584C24.1215 31.5018 22.5711 30.2447 21.167 28.834C19.7563 27.4299 18.4992 25.8795 17.417 24.209" stroke="#344054" stroke-width="2" stroke-linecap="round" stroke-linejoin="round"/>
<path d="M39.5833 6.25H10.4167C8.11548 6.25 6.25 8.11548 6.25 10.4167V39.5833C6.25 41.8845 8.11548 43.75 10.4167 43.75H39.5833C41.8845 43.75 43.75 41.8845 43.75 39.5833V10.4167C43.75 8.11548 41.8845 6.25 39.5833 6.25Z" stroke="#306CFE" stroke-width="2" stroke-linecap="round" stroke-linejoin="round"/>
</svg>
