<svg width="50" height="50" viewBox="0 0 50 50" fill="none" xmlns="http://www.w3.org/2000/svg">
<path d="M32.0413 43.75H17.958C15.885 43.7604 13.8825 42.9977 12.3415 41.6109C10.8006 40.2241 9.83196 38.3127 9.62467 36.25L8.33301 22.9167H41.6663L40.333 36.25C40.1264 38.3055 39.1637 40.211 37.6316 41.5969C36.0995 42.9827 34.1072 43.75 32.0413 43.75V43.75ZM24.9997 6.25C21.1319 6.25 17.4226 7.78645 14.6877 10.5214C11.9528 13.2563 10.4163 16.9656 10.4163 20.8333V22.9167H39.583V20.8333C39.583 16.9656 38.0466 13.2563 35.3116 10.5214C32.5767 7.78645 28.8674 6.25 24.9997 6.25ZM26.7288 32.8125L33.333 22.9167H16.6663L23.2705 32.8125C23.4611 33.0961 23.7185 33.3285 24.02 33.4891C24.3216 33.6498 24.658 33.7338 24.9997 33.7338C25.3413 33.7338 25.6778 33.6498 25.9793 33.4891C26.2809 33.3285 26.5383 33.0961 26.7288 32.8125V32.8125Z" stroke="#306CFE" stroke-width="2" stroke-linecap="round" stroke-linejoin="round"/>
<path d="M6.25 22.916H43.75" stroke="#344054" stroke-width="2" stroke-linecap="round" stroke-linejoin="round"/>
</svg>
