<svg width="50" height="50" viewBox="0 0 50 50" fill="none" xmlns="http://www.w3.org/2000/svg">
<path d="M24.9997 31.25C26.4344 31.2481 27.8536 31.5461 29.1663 32.125V10.4167C29.1663 9.3116 28.7274 8.25179 27.946 7.47039C27.1646 6.68899 26.1047 6.25 24.9997 6.25C23.8946 6.25 22.8348 6.68899 22.0534 7.47039C21.272 8.25179 20.833 9.3116 20.833 10.4167V32.125C22.1457 31.5461 23.565 31.2481 24.9997 31.25Z" stroke="#344054" stroke-width="2" stroke-linecap="round" stroke-linejoin="round"/>
<path d="M12.5 43.75H37.5M35.4167 43.75H14.5833V41.6667C14.5833 38.904 15.6808 36.2545 17.6343 34.301C19.5878 32.3475 22.2373 31.25 25 31.25C27.7627 31.25 30.4122 32.3475 32.3657 34.301C34.3192 36.2545 35.4167 38.904 35.4167 41.6667V43.75Z" stroke="#306CFE" stroke-width="2" stroke-linecap="round" stroke-linejoin="round"/>
</svg>
