<svg width="50" height="50" viewBox="0 0 50 50" fill="none" xmlns="http://www.w3.org/2000/svg">
<path d="M18.7503 24.9993L20.8337 20.8327H16.667L18.7503 16.666" stroke="#344054" stroke-width="2" stroke-linecap="round" stroke-linejoin="round"/>
<path d="M18.75 35.4167V41.6667C18.75 42.2192 18.9695 42.7491 19.3602 43.1398C19.7509 43.5305 20.2808 43.75 20.8333 43.75H37.5C38.0525 43.75 38.5824 43.5305 38.9731 43.1398C39.3638 42.7491 39.5833 42.2192 39.5833 41.6667V18.75" stroke="#344054" stroke-width="2" stroke-linecap="round" stroke-linejoin="round"/>
<path d="M29.1663 33.3333V8.33333C29.1663 7.7808 28.9468 7.25089 28.5561 6.86019C28.1654 6.46949 27.6355 6.25 27.083 6.25H10.4163C9.86381 6.25 9.3339 6.46949 8.9432 6.86019C8.5525 7.25089 8.33301 7.7808 8.33301 8.33333V33.3333C8.33301 33.8859 8.5525 34.4158 8.9432 34.8065C9.3339 35.1972 9.86381 35.4167 10.4163 35.4167H27.083C27.6355 35.4167 28.1654 35.1972 28.5561 34.8065C28.9468 34.4158 29.1663 33.8859 29.1663 33.3333ZM41.6663 10.4167H37.4997V16.6667H41.6663V10.4167Z" stroke="#306CFE" stroke-width="2" stroke-linecap="round" stroke-linejoin="round"/>
</svg>
