<svg width="50" height="50" viewBox="0 0 50 50" fill="none" xmlns="http://www.w3.org/2000/svg">
<path d="M25.0003 27.0827C27.8768 27.0827 30.2087 24.7508 30.2087 21.8743C30.2087 18.9979 27.8768 16.666 25.0003 16.666C22.1238 16.666 19.792 18.9979 19.792 21.8743C19.792 24.7508 22.1238 27.0827 25.0003 27.0827Z" stroke="#344054" stroke-width="2" stroke-linecap="round" stroke-linejoin="round"/>
<path d="M28.3333 35.4173L33.3333 41.6673M39.5833 35.4173H10.4167C9.86413 35.4173 9.33423 35.1978 8.94353 34.8071C8.55283 34.4164 8.33333 33.8865 8.33333 33.334V8.33398H41.6667V33.334C41.6667 33.8865 41.4472 34.4164 41.0565 34.8071C40.6658 35.1978 40.1359 35.4173 39.5833 35.4173ZM6.25 8.33398H43.75H6.25ZM21.6667 35.4173L16.6667 41.6673L21.6667 35.4173Z" stroke="#306CFE" stroke-width="2" stroke-linecap="round" stroke-linejoin="round"/>
</svg>
