<svg width="50" height="50" viewBox="0 0 50 50" fill="none" xmlns="http://www.w3.org/2000/svg">
<path d="M35.4167 31.25H41.6667C42.2192 31.25 42.7491 31.0305 43.1398 30.6398C43.5305 30.2491 43.75 29.7192 43.75 29.1667V8.33333C43.75 7.7808 43.5305 7.25089 43.1398 6.86019C42.7491 6.46949 42.2192 6.25 41.6667 6.25H8.33333C7.7808 6.25 7.25089 6.46949 6.86019 6.86019C6.46949 7.25089 6.25 7.7808 6.25 8.33333V29.1667C6.25 29.7192 6.46949 30.2491 6.86019 30.6398C7.25089 31.0305 7.7808 31.25 8.33333 31.25H14.5833" stroke="#306CFE" stroke-width="2" stroke-linecap="round" stroke-linejoin="round"/>
<path d="M35.4163 14.584H31.2497M33.333 43.7506H16.6663C16.1138 43.7506 15.5839 43.5312 15.1932 43.1405C14.8025 42.7498 14.583 42.2199 14.583 41.6673V22.9173H35.4163V41.6673C35.4163 42.2199 35.1969 42.7498 34.8062 43.1405C34.4154 43.5312 33.8855 43.7506 33.333 43.7506Z" stroke="#344054" stroke-width="2" stroke-linecap="round" stroke-linejoin="round"/>
</svg>
