<svg width="50" height="50" viewBox="0 0 50 50" fill="none" xmlns="http://www.w3.org/2000/svg">
<path d="M12.5 33.3333H8.33333C7.7808 33.3333 7.25089 33.1138 6.86019 32.7231C6.46949 32.3324 6.25 31.8025 6.25 31.25V14.5833C6.25 14.0308 6.46949 13.5009 6.86019 13.1102C7.25089 12.7195 7.7808 12.5 8.33333 12.5H41.6667C42.2192 12.5 42.7491 12.7195 43.1398 13.1102C43.5305 13.5009 43.75 14.0308 43.75 14.5833V31.25C43.75 31.8025 43.5305 32.3324 43.1398 32.7231C42.7491 33.1138 42.2192 33.3333 41.6667 33.3333H37.5" stroke="#306CFE" stroke-width="2" stroke-linecap="round" stroke-linejoin="round"/>
<path d="M16.667 6.25H33.3337" stroke="#306CFE" stroke-width="2" stroke-linecap="round" stroke-linejoin="round"/>
<path d="M37.5 20.834H12.5V43.7507H37.5V20.834Z" stroke="#344054" stroke-width="2" stroke-linecap="round" stroke-linejoin="round"/>
<path d="M20.833 33.3327L22.9163 35.416L29.1663 29.166" stroke="#344054" stroke-width="2" stroke-linecap="round" stroke-linejoin="round"/>
</svg>
