<svg width="50" height="50" viewBox="0 0 50 50" fill="none" xmlns="http://www.w3.org/2000/svg">
<path d="M35.6042 33.3333H41.6667C42.2192 33.3333 42.7491 33.1138 43.1398 32.7231C43.5305 32.3324 43.75 31.8025 43.75 31.25V14.5833C43.75 14.0308 43.5305 13.5009 43.1398 13.1102C42.7491 12.7195 42.2192 12.5 41.6667 12.5H8.33333C7.7808 12.5 7.25089 12.7195 6.86019 13.1102C6.46949 13.5009 6.25 14.0308 6.25 14.5833V31.25C6.25 31.8025 6.46949 32.3324 6.86019 32.7231C7.25089 33.1138 7.7808 33.3333 8.33333 33.3333H14.3958" stroke="#306CFE" stroke-width="2" stroke-linecap="round" stroke-linejoin="round"/>
<path d="M35.4163 6.25H14.583V12.5H35.4163V6.25Z" stroke="#306CFE" stroke-width="2" stroke-linecap="round" stroke-linejoin="round"/>
<path d="M37.5 43.7507H12.5L16.6667 20.834H33.3333L37.5 43.7507Z" stroke="#344054" stroke-width="2" stroke-linecap="round" stroke-linejoin="round"/>
</svg>
