<svg width="50" height="50" viewBox="0 0 50 50" fill="none" xmlns="http://www.w3.org/2000/svg">
<path d="M22.9163 22.9173H14.583V14.584H22.9163V22.9173ZM35.4163 14.584H31.2497V18.7507H35.4163V14.584ZM27.083 35.4173H35.4163V27.084H27.083V35.4173ZM14.583 35.4173H18.7497V31.2507H14.583V35.4173Z" stroke="#344054" stroke-width="2" stroke-linecap="round" stroke-linejoin="round"/>
<path d="M16.6667 6.25H8.33333C7.7808 6.25 7.25089 6.46949 6.86019 6.86019C6.46949 7.25089 6.25 7.7808 6.25 8.33333V16.6667" stroke="#306CFE" stroke-width="2" stroke-linecap="round" stroke-linejoin="round"/>
<path d="M43.7497 16.6667V8.33333C43.7497 7.7808 43.5302 7.25089 43.1395 6.86019C42.7488 6.46949 42.2189 6.25 41.6663 6.25H33.333" stroke="#306CFE" stroke-width="2" stroke-linecap="round" stroke-linejoin="round"/>
<path d="M6.25 33.334V41.6673C6.25 42.2199 6.46949 42.7498 6.86019 43.1405C7.25089 43.5312 7.7808 43.7507 8.33333 43.7507H16.6667" stroke="#306CFE" stroke-width="2" stroke-linecap="round" stroke-linejoin="round"/>
<path d="M33.333 43.7507H41.6663C42.2189 43.7507 42.7488 43.5312 43.1395 43.1405C43.5302 42.7498 43.7497 42.2199 43.7497 41.6673V33.334" stroke="#306CFE" stroke-width="2" stroke-linecap="round" stroke-linejoin="round"/>
</svg>
