<svg width="50" height="50" viewBox="0 0 50 50" fill="none" xmlns="http://www.w3.org/2000/svg">
<path d="M22.917 20.834L27.0837 25.0007L31.2503 20.834" stroke="#344054" stroke-width="2" stroke-linecap="round" stroke-linejoin="round"/>
<path d="M27.083 25.0007V14.584" stroke="#344054" stroke-width="2" stroke-linecap="round" stroke-linejoin="round"/>
<path d="M43.75 8.33333V38.5417C43.75 39.923 43.2013 41.2478 42.2245 42.2245C41.2478 43.2013 39.923 43.75 38.5417 43.75C37.1603 43.75 35.8356 43.2013 34.8588 42.2245C33.8821 41.2478 33.3333 39.923 33.3333 38.5417V33.3333H10.4167V8.33333C10.4167 7.7808 10.6362 7.25089 11.0269 6.86019C11.4176 6.46949 11.9475 6.25 12.5 6.25H41.6667C42.2192 6.25 42.7491 6.46949 43.1398 6.86019C43.5305 7.25089 43.75 7.7808 43.75 8.33333ZM33.3333 38.5417V33.3333H6.25V38.5417C6.25 39.923 6.79873 41.2478 7.77549 42.2245C8.75224 43.2013 10.077 43.75 11.4583 43.75H38.5417C37.1603 43.75 35.8356 43.2013 34.8588 42.2245C33.8821 41.2478 33.3333 39.923 33.3333 38.5417Z" stroke="#306CFE" stroke-width="2" stroke-linecap="round" stroke-linejoin="round"/>
</svg>
