<svg width="50" height="50" viewBox="0 0 50 50" fill="none" xmlns="http://www.w3.org/2000/svg">
<path d="M11.1664 28.4375L6.5622 36.2083C6.3643 36.5511 6.26032 36.94 6.26074 37.3358C6.26117 37.7316 6.36599 38.1202 6.56463 38.4626C6.76327 38.8049 7.04869 39.0888 7.3921 39.2856C7.73551 39.4823 8.12475 39.5851 8.52053 39.5833H22.9164" stroke="#306CFE" stroke-width="2" stroke-linecap="round" stroke-linejoin="round"/>
<path d="M33.333 39.584L41.5205 39.6881C41.9153 39.689 42.3032 39.5849 42.6445 39.3867C42.9859 39.1884 43.2685 38.9031 43.4634 38.5598C43.6584 38.2165 43.7587 37.8277 43.7541 37.4329C43.7494 37.0382 43.6401 36.6518 43.4372 36.3132L36.3955 24.084" stroke="#306CFE" stroke-width="2" stroke-linecap="round" stroke-linejoin="round"/>
<path d="M31.4378 15.2717L27.0837 7.37584C26.8861 7.0341 26.6021 6.75035 26.2602 6.55308C25.9183 6.3558 25.5305 6.25195 25.1357 6.25195C24.741 6.25195 24.3532 6.3558 24.0113 6.55308C23.6694 6.75035 23.3854 7.0341 23.1878 7.37584L15.9795 19.8758" stroke="#306CFE" stroke-width="2" stroke-linecap="round" stroke-linejoin="round"/>
<path d="M19.375 35.416L22.9167 39.5827L18.75 43.7493" stroke="#344054" stroke-width="2" stroke-linecap="round" stroke-linejoin="round"/>
<path d="M34.417 28.9993L36.2503 23.8535L41.9378 25.3743" stroke="#344054" stroke-width="2" stroke-linecap="round" stroke-linejoin="round"/>
<path d="M21.2913 18.8743L15.9163 19.8535L14.3955 14.166" stroke="#344054" stroke-width="2" stroke-linecap="round" stroke-linejoin="round"/>
</svg>
