<svg width="50" height="50" viewBox="0 0 50 50" fill="none" xmlns="http://www.w3.org/2000/svg">
<path d="M29.167 37.5H18.7503C16.1026 37.4926 13.5256 36.6447 11.3908 35.0784C9.25606 33.5122 7.67375 31.3085 6.872 28.7851C6.07026 26.2617 6.09049 23.5489 6.92978 21.0377C7.76907 18.5265 9.38406 16.3467 11.542 14.8125" stroke="#306CFE" stroke-width="2" stroke-linecap="round" stroke-linejoin="round"/>
<path d="M20.833 12.5H31.2497C33.8974 12.5074 36.4744 13.3553 38.6091 14.9216C40.7439 16.4878 42.3262 18.6915 43.128 21.2149C43.9297 23.7383 43.9095 26.4511 43.0702 28.9623C42.2309 31.4735 40.6159 33.6533 38.458 35.1875" stroke="#306CFE" stroke-width="2" stroke-linecap="round" stroke-linejoin="round"/>
<path d="M25 33.334L29.1667 37.5007L25 41.6673" stroke="#344054" stroke-width="2" stroke-linecap="round" stroke-linejoin="round"/>
<path d="M24.9997 16.6673L20.833 12.5007L24.9997 8.33398" stroke="#344054" stroke-width="2" stroke-linecap="round" stroke-linejoin="round"/>
</svg>
