<svg width="50" height="50" viewBox="0 0 50 50" fill="none" xmlns="http://www.w3.org/2000/svg">
<path d="M35.4167 25.0007V35.4173V25.0007ZM27.0833 35.4173V31.2507V35.4173ZM6.25 31.2507L12.1458 25.3548L6.25 31.2507ZM16.6667 14.584C15.4305 14.584 14.2222 14.9505 13.1944 15.6373C12.1665 16.3241 11.3655 17.3002 10.8924 18.4422C10.4194 19.5843 10.2956 20.8409 10.5368 22.0533C10.7779 23.2657 11.3732 24.3793 12.2472 25.2534C13.1213 26.1275 14.235 26.7227 15.4474 26.9639C16.6597 27.2051 17.9164 27.0813 19.0584 26.6082C20.2005 26.1352 21.1766 25.3341 21.8634 24.3063C22.5501 23.2785 22.9167 22.0701 22.9167 20.834C22.9167 19.1764 22.2582 17.5867 21.0861 16.4146C19.914 15.2425 18.3243 14.584 16.6667 14.584Z" stroke="#344054" stroke-width="2" stroke-linecap="round" stroke-linejoin="round"/>
<path d="M16.6663 6.25H41.6663C42.2189 6.25 42.7488 6.46949 43.1395 6.86019C43.5302 7.25089 43.7497 7.7808 43.7497 8.33333V41.6667C43.7497 42.2192 43.5302 42.7491 43.1395 43.1398C42.7488 43.5305 42.2189 43.75 41.6663 43.75H16.6663C16.1138 43.75 15.5839 43.5305 15.1932 43.1398C14.8025 42.7491 14.583 42.2192 14.583 41.6667V35.4167" stroke="#306CFE" stroke-width="2" stroke-linecap="round" stroke-linejoin="round"/>
</svg>
