<svg width="50" height="50" viewBox="0 0 50 50" fill="none" xmlns="http://www.w3.org/2000/svg">
<path d="M33.3337 16.666H16.667M31.6045 37.7494L37.5003 43.7494L31.6045 37.7494ZM27.0837 27.0827C28.3198 27.0827 29.5282 27.4492 30.556 28.136C31.5838 28.8228 32.3849 29.7989 32.8579 30.9409C33.331 32.083 33.4547 33.3396 33.2136 34.552C32.9724 35.7644 32.3772 36.878 31.5031 37.7521C30.629 38.6262 29.5154 39.2214 28.303 39.4626C27.0906 39.7038 25.8339 39.58 24.6919 39.1069C23.5498 38.6339 22.5737 37.8328 21.887 36.805C21.2002 35.7772 20.8337 34.5688 20.8337 33.3327C20.8337 31.6751 21.4921 30.0854 22.6642 28.9133C23.8363 27.7412 25.4261 27.0827 27.0837 27.0827V27.0827Z" stroke="#344054" stroke-width="2" stroke-linecap="round" stroke-linejoin="round"/>
<path d="M41.6663 31.25V6.25H8.33301V31.25C8.33301 31.8025 8.5525 32.3324 8.9432 32.7231C9.3339 33.1138 9.86381 33.3333 10.4163 33.3333H12.4997" stroke="#306CFE" stroke-width="2" stroke-linecap="round" stroke-linejoin="round"/>
<path d="M43.75 6.25H6.25" stroke="#306CFE" stroke-width="2" stroke-linecap="round" stroke-linejoin="round"/>
</svg>
