<svg width="50" height="50" viewBox="0 0 50 50" fill="none" xmlns="http://www.w3.org/2000/svg">
<path d="M29.2705 35.625L33.333 43.75L37.458 39.5208L43.7497 39.5833L37.8955 27.9583V27.9375" stroke="#344054" stroke-width="2" stroke-linecap="round" stroke-linejoin="round"/>
<path d="M20.7292 35.625L16.6667 43.75L12.5417 39.5208L6.25 39.5833L12.1042 27.9583V27.9375" stroke="#344054" stroke-width="2" stroke-linecap="round" stroke-linejoin="round"/>
<path d="M40.1663 20.834C40.1663 22.4173 38.7705 23.7506 38.3122 25.1673C37.8538 26.584 38.1663 28.5215 37.2705 29.7506C36.3747 30.9798 34.458 31.2506 33.333 32.1673C32.208 33.084 31.2497 34.7923 29.7913 35.2715C28.333 35.7506 26.6872 34.834 25.1038 34.834C23.5205 34.834 21.833 35.7298 20.4163 35.2715C18.9997 34.8131 18.1038 33.0423 16.8747 32.1673C15.6455 31.2923 13.7288 30.9798 12.833 29.7506C11.9372 28.5215 12.2705 26.6256 11.7913 25.1673C11.3122 23.709 9.83301 22.4173 9.83301 20.834C9.83301 19.2506 11.2288 17.9173 11.6872 16.5006C12.1455 15.084 11.833 13.1465 12.7288 11.9173C13.6247 10.6881 15.5413 10.4173 16.7705 9.50062C17.9997 8.58396 18.7497 6.87562 20.3122 6.39646C21.8747 5.91729 23.4163 6.83396 24.9997 6.83396C26.583 6.83396 28.2705 5.93812 29.6872 6.39646C31.1038 6.85479 31.9997 8.62562 33.333 9.50062C34.6663 10.3756 36.4788 10.6881 37.3747 11.9173C38.2705 13.1465 37.9372 15.0423 38.4163 16.5006C38.8955 17.959 40.1663 19.2506 40.1663 20.834ZM24.9997 14.584C23.7635 14.584 22.5552 14.9505 21.5274 15.6373C20.4996 16.324 19.6985 17.3001 19.2254 18.4422C18.7524 19.5842 18.6286 20.8409 18.8698 22.0533C19.1109 23.2657 19.7062 24.3793 20.5803 25.2534C21.4543 26.1275 22.568 26.7227 23.7804 26.9639C24.9927 27.205 26.2494 27.0813 27.3914 26.6082C28.5335 26.1352 29.5096 25.3341 30.1964 24.3063C30.8831 23.2785 31.2497 22.0701 31.2497 20.834C31.2497 19.1764 30.5912 17.5866 29.4191 16.4145C28.247 15.2424 26.6573 14.584 24.9997 14.584Z" stroke="#306CFE" stroke-width="2" stroke-linecap="round" stroke-linejoin="round"/>
</svg>
