<svg width="50" height="50" viewBox="0 0 50 50" fill="none" xmlns="http://www.w3.org/2000/svg">
<path d="M24.9997 29.166H14.583V20.8327H24.9997V16.666L34.6038 23.291C34.8789 23.483 35.1035 23.7386 35.2586 24.036C35.4138 24.3334 35.4947 24.6639 35.4947 24.9993C35.4947 25.3348 35.4138 25.6653 35.2586 25.9627C35.1035 26.2601 34.8789 26.5157 34.6038 26.7077L24.9997 33.3327V29.166Z" stroke="#344054" stroke-width="2" stroke-linecap="round" stroke-linejoin="round"/>
<path d="M8.33334 43.75L41.6667 43.75C42.8173 43.75 43.75 42.8173 43.75 41.6667L43.75 8.33334C43.75 7.18274 42.8173 6.25 41.6667 6.25L8.33334 6.25C7.18274 6.25 6.25 7.18274 6.25 8.33334L6.25 41.6667C6.25 42.8173 7.18274 43.75 8.33334 43.75Z" stroke="#306CFE" stroke-width="2" stroke-linecap="round" stroke-linejoin="round"/>
</svg>
