<svg width="50" height="50" viewBox="0 0 50 50" fill="none" xmlns="http://www.w3.org/2000/svg">
<path d="M24.9997 29.166H14.583V20.8327H24.9997V16.666L34.6038 23.291C34.8789 23.483 35.1035 23.7386 35.2586 24.036C35.4138 24.3334 35.4947 24.6639 35.4947 24.9993C35.4947 25.3348 35.4138 25.6653 35.2586 25.9627C35.1035 26.2601 34.8789 26.5157 34.6038 26.7077L24.9997 33.3327V29.166Z" stroke="#344054" stroke-width="2" stroke-linecap="round" stroke-linejoin="round"/>
<path d="M25 43.75C35.3553 43.75 43.75 35.3553 43.75 25C43.75 14.6447 35.3553 6.25 25 6.25C14.6447 6.25 6.25 14.6447 6.25 25C6.25 35.3553 14.6447 43.75 25 43.75Z" stroke="#306CFE" stroke-width="2" stroke-linecap="round" stroke-linejoin="round"/>
</svg>
