<svg width="50" height="50" viewBox="0 0 50 50" fill="none" xmlns="http://www.w3.org/2000/svg">
<path d="M29.1663 29.1673H41.6663C42.2189 29.1673 42.7488 28.9478 43.1395 28.5571C43.5302 28.1664 43.7497 27.6365 43.7497 27.084V18.7507C43.7497 18.1981 43.5302 17.6682 43.1395 17.2775C42.7488 16.8868 42.2189 16.6673 41.6663 16.6673H29.1663C28.6138 16.6673 28.0839 16.8868 27.6932 17.2775C27.3025 17.6682 27.083 18.1981 27.083 18.7507V27.084C27.083 27.6365 27.3025 28.1664 27.6932 28.5571C28.0839 28.9478 28.6138 29.1673 29.1663 29.1673ZM31.2497 12.5007V16.6673H39.583V12.5007C39.583 11.3956 39.144 10.3358 38.3626 9.55437C37.5812 8.77297 36.5214 8.33398 35.4163 8.33398V8.33398C34.3113 8.33398 33.2515 8.77297 32.4701 9.55437C31.6887 10.3358 31.2497 11.3956 31.2497 12.5007V12.5007Z" stroke="#344054" stroke-width="2" stroke-linecap="round" stroke-linejoin="round"/>
<path d="M43.75 37.4993V39.5827C43.75 40.1352 43.5305 40.6651 43.1398 41.0558C42.7491 41.4465 42.2192 41.666 41.6667 41.666H8.33333C7.7808 41.666 7.25089 41.4465 6.86019 41.0558C6.46949 40.6651 6.25 40.1352 6.25 39.5827V18.7493C6.25 18.1968 6.46949 17.6669 6.86019 17.2762C7.25089 16.8855 7.7808 16.666 8.33333 16.666H18.75" stroke="#306CFE" stroke-width="2" stroke-linecap="round" stroke-linejoin="round"/>
<path d="M6.25 25V33.3333L10.4167 32.2917V26.0417L6.25 25Z" stroke="#306CFE" stroke-width="2" stroke-linecap="round" stroke-linejoin="round"/>
</svg>
