<svg width="50" height="50" viewBox="0 0 50 50" fill="none" xmlns="http://www.w3.org/2000/svg">
<path d="M33.333 18.7507V8.33398M39.583 43.7507H10.4163C9.86381 43.7507 9.3339 43.5312 8.9432 43.1405C8.5525 42.7498 8.33301 42.2199 8.33301 41.6673V20.834C8.33301 20.2815 8.5525 19.7515 8.9432 19.3608C9.3339 18.9701 9.86381 18.7507 10.4163 18.7507H39.583C40.1355 18.7507 40.6654 18.9701 41.0561 19.3608C41.4468 19.7515 41.6663 20.2815 41.6663 20.834V41.6673C41.6663 42.2199 41.4468 42.7498 41.0561 43.1405C40.6654 43.5312 40.1355 43.7507 39.583 43.7507Z" stroke="#306CFE" stroke-width="2" stroke-linecap="round" stroke-linejoin="round"/>
<path d="M16.667 27.084H20.8337" stroke="#344054" stroke-width="2" stroke-linecap="round" stroke-linejoin="round"/>
<path d="M33.2295 7.29102H33.4378" stroke="#344054" stroke-width="3" stroke-linecap="round" stroke-linejoin="round"/>
</svg>
