<svg width="50" height="50" viewBox="0 0 50 50" fill="none" xmlns="http://www.w3.org/2000/svg">
<path d="M22.9163 22.9167H27.083M22.9163 22.9167C22.9163 22.0926 22.672 21.287 22.2141 20.6018C21.7563 19.9166 21.1055 19.3825 20.3442 19.0672C19.5828 18.7518 18.7451 18.6693 17.9368 18.8301C17.1285 18.9908 16.3861 19.3877 15.8034 19.9704C15.2207 20.5531 14.8238 21.2955 14.6631 22.1038C14.5023 22.912 14.5848 23.7498 14.9002 24.5112C15.2155 25.2725 15.7496 25.9233 16.4348 26.3811C17.12 26.839 17.9256 27.0833 18.7497 27.0833C19.8547 27.0833 20.9146 26.6443 21.696 25.8629C22.4774 25.0815 22.9163 24.0217 22.9163 22.9167Z" stroke="#344054" stroke-width="2" stroke-linecap="round" stroke-linejoin="round"/>
<path d="M41.6667 39.5833H8.33333C7.7808 39.5833 7.25089 39.3638 6.86019 38.9731C6.46949 38.5824 6.25 38.0525 6.25 37.5V8.33333C6.25 7.7808 6.46949 7.25089 6.86019 6.86019C7.25089 6.46949 7.7808 6.25 8.33333 6.25H41.6667C42.2192 6.25 42.7491 6.46949 43.1398 6.86019C43.5305 7.25089 43.75 7.7808 43.75 8.33333V37.5C43.75 38.0525 43.5305 38.5824 43.1398 38.9731C42.7491 39.3638 42.2192 39.5833 41.6667 39.5833ZM16.6667 39.5833H12.5V43.75H16.6667V39.5833ZM33.3333 43.75H37.5V39.5833H33.3333V43.75Z" stroke="#306CFE" stroke-width="2" stroke-linecap="round" stroke-linejoin="round"/>
</svg>
