<svg width="50" height="50" viewBox="0 0 50 50" fill="none" xmlns="http://www.w3.org/2000/svg">
<path d="M18.7503 22.9173H16.667M31.2503 22.9173C31.2503 21.6812 30.8838 20.4728 30.197 19.445C29.5103 18.4172 28.5341 17.6161 27.3921 17.1431C26.2501 16.67 24.9934 16.5463 23.781 16.7874C22.5686 17.0286 21.455 17.6238 20.5809 18.4979C19.7068 19.372 19.1116 20.4856 18.8704 21.698C18.6293 22.9104 18.753 24.1671 19.2261 25.3091C19.6991 26.4511 20.5002 27.4272 21.528 28.114C22.5558 28.8008 23.7642 29.1673 25.0003 29.1673C26.6579 29.1673 28.2476 28.5088 29.4197 27.3367C30.5918 26.1646 31.2503 24.5749 31.2503 22.9173ZM25.0003 16.6673V14.584V16.6673ZM31.2503 22.9173H33.3337H31.2503ZM25.0003 29.1673V31.2507V29.1673Z" stroke="#344054" stroke-width="2" stroke-linecap="round" stroke-linejoin="round"/>
<path d="M41.6667 39.5833H8.33333C7.7808 39.5833 7.25089 39.3638 6.86019 38.9731C6.46949 38.5824 6.25 38.0525 6.25 37.5V8.33333C6.25 7.7808 6.46949 7.25089 6.86019 6.86019C7.25089 6.46949 7.7808 6.25 8.33333 6.25H41.6667C42.2192 6.25 42.7491 6.46949 43.1398 6.86019C43.5305 7.25089 43.75 7.7808 43.75 8.33333V37.5C43.75 38.0525 43.5305 38.5824 43.1398 38.9731C42.7491 39.3638 42.2192 39.5833 41.6667 39.5833ZM16.6667 39.5833H12.5V43.75H16.6667V39.5833ZM33.3333 43.75H37.5V39.5833H33.3333V43.75Z" stroke="#306CFE" stroke-width="2" stroke-linecap="round" stroke-linejoin="round"/>
</svg>
