<svg width="50" height="50" viewBox="0 0 50 50" fill="none" xmlns="http://www.w3.org/2000/svg">
<path d="M12.583 32.1667L22.9163 12.5" stroke="#344054" stroke-width="2" stroke-linecap="round" stroke-linejoin="round"/>
<path d="M39.3753 29.1673C38.7896 24.5251 36.947 20.131 34.0464 16.4594C31.1459 12.7879 27.2976 9.97829 22.917 8.33398V30.834" stroke="#344054" stroke-width="2" stroke-linecap="round" stroke-linejoin="round"/>
<path d="M28.4792 41.6676H9.50008C9.02135 41.6804 8.55282 41.5279 8.17337 41.2357C7.79393 40.9435 7.52672 40.5295 7.41675 40.0634L6.25008 35.4176C6.1588 35.1205 6.13515 34.8067 6.18086 34.4993C6.22658 34.1919 6.34051 33.8985 6.5143 33.6409C6.68809 33.3832 6.91734 33.1676 7.18524 33.01C7.45314 32.8524 7.75291 32.7568 8.06258 32.7301L41.3959 29.1259C41.7876 29.068 42.1877 29.1229 42.5493 29.2842C42.9109 29.4454 43.2191 29.7064 43.4377 30.0365C43.6563 30.3667 43.7763 30.7522 43.7837 31.1481C43.791 31.544 43.6854 31.9337 43.4792 32.2718C42.0885 35.0688 39.9514 37.4267 37.3042 39.0849C34.657 40.7431 31.6028 41.6369 28.4792 41.6676V41.6676Z" stroke="#306CFE" stroke-width="2" stroke-linecap="round" stroke-linejoin="round"/>
</svg>
