<svg width="50" height="50" viewBox="0 0 50 50" fill="none" xmlns="http://www.w3.org/2000/svg">
<path d="M31.917 16.0007L39.5837 8.33398" stroke="#344054" stroke-width="2" stroke-linecap="round" stroke-linejoin="round"/>
<path d="M39.6878 8.33398H39.4795" stroke="#344054" stroke-width="3" stroke-linecap="round" stroke-linejoin="round"/>
<path d="M12.5 43.7507L19.5833 25.5215" stroke="#306CFE" stroke-width="2" stroke-linecap="round" stroke-linejoin="round"/>
<path d="M28.292 30.8125L33.3337 43.75" stroke="#306CFE" stroke-width="2" stroke-linecap="round" stroke-linejoin="round"/>
<path d="M8.33301 43.75H37.4997" stroke="#306CFE" stroke-width="2" stroke-linecap="round" stroke-linejoin="round"/>
<path d="M22.9165 6.89495C22.6934 6.67352 22.4256 6.50226 22.131 6.39262C21.8365 6.28297 21.5219 6.23748 21.2083 6.25917C20.8947 6.28087 20.5894 6.36925 20.3127 6.51841C20.0361 6.66757 19.7944 6.87408 19.604 7.12412C17.5705 10.0592 16.6299 13.6141 16.9456 17.1709C17.2613 20.7276 18.8134 24.0612 21.332 26.5922C23.8507 29.1233 27.1767 30.6917 30.7318 31.0249C34.2869 31.358 37.8464 30.4348 40.7915 28.4158C41.0415 28.2253 41.248 27.9837 41.3972 27.707C41.5463 27.4303 41.6347 27.125 41.6564 26.8115C41.6781 26.4979 41.6326 26.1833 41.523 25.8887C41.4133 25.5941 41.2421 25.3264 41.0206 25.1033L22.9165 6.89495Z" stroke="#306CFE" stroke-width="2" stroke-linecap="round" stroke-linejoin="round"/>
</svg>
