<svg width="50" height="50" viewBox="0 0 50 50" fill="none" xmlns="http://www.w3.org/2000/svg">
<path d="M33.3337 29.166V20.8327M25.0003 33.3327V16.666V33.3327ZM16.667 29.166V20.8327V29.166Z" stroke="#344054" stroke-width="2" stroke-linecap="round" stroke-linejoin="round"/>
<path d="M16.6667 43.7507H8.33333C7.7808 43.7507 7.25089 43.5312 6.86019 43.1405C6.46949 42.7498 6.25 42.2199 6.25 41.6673V33.334" stroke="#306CFE" stroke-width="2" stroke-linecap="round" stroke-linejoin="round"/>
<path d="M33.333 43.7507H41.6663C42.2189 43.7507 42.7488 43.5312 43.1395 43.1405C43.5302 42.7498 43.7497 42.2199 43.7497 41.6673V33.334" stroke="#306CFE" stroke-width="2" stroke-linecap="round" stroke-linejoin="round"/>
<path d="M6.25 33.334V41.6673C6.25 42.2199 6.46949 42.7498 6.86019 43.1405C7.25089 43.5312 7.7808 43.7507 8.33333 43.7507H16.6667" stroke="#306CFE" stroke-width="2" stroke-linecap="round" stroke-linejoin="round"/>
<path d="M6.25 16.6667V8.33333C6.25 7.7808 6.46949 7.25089 6.86019 6.86019C7.25089 6.46949 7.7808 6.25 8.33333 6.25H16.6667" stroke="#306CFE" stroke-width="2" stroke-linecap="round" stroke-linejoin="round"/>
<path d="M43.7497 16.6667V8.33333C43.7497 7.7808 43.5302 7.25089 43.1395 6.86019C42.7488 6.46949 42.2189 6.25 41.6663 6.25H33.333" stroke="#306CFE" stroke-width="2" stroke-linecap="round" stroke-linejoin="round"/>
</svg>
