<svg width="50" height="50" viewBox="0 0 50 50" fill="none" xmlns="http://www.w3.org/2000/svg">
<path d="M20.833 35.4167H29.1663H20.833ZM29.1663 8.33333C29.1663 7.7808 28.9468 7.25089 28.5561 6.86019C28.1654 6.46949 27.6355 6.25 27.083 6.25H22.9163C22.3638 6.25 21.8339 6.46949 21.4432 6.86019C21.0525 7.25089 20.833 7.7808 20.833 8.33333V10.4167H29.1663V8.33333ZM37.4997 39.5833H39.583C40.1355 39.5833 40.6654 39.3638 41.0561 38.9731C41.4468 38.5824 41.6663 38.0525 41.6663 37.5V31.25H37.4997V39.5833ZM12.4997 31.25H8.33301V37.5C8.33301 38.0525 8.5525 38.5824 8.9432 38.9731C9.3339 39.3638 9.86381 39.5833 10.4163 39.5833H12.4997V31.25Z" stroke="#344054" stroke-width="2" stroke-linecap="round" stroke-linejoin="round"/>
<path d="M39.5837 18.7493V12.4993C39.5837 11.9468 39.3642 11.4169 38.9735 11.0262C38.5828 10.6355 38.0529 10.416 37.5003 10.416H12.5003C11.9478 10.416 11.4179 10.6355 11.0272 11.0262C10.6365 11.4169 10.417 11.9468 10.417 12.4993V18.7493C10.417 19.8544 10.856 20.9142 11.6374 21.6956C12.4188 22.477 13.4786 22.916 14.5837 22.916H35.417C36.5221 22.916 37.5819 22.477 38.3633 21.6956C39.1447 20.9142 39.5837 19.8544 39.5837 18.7493ZM35.417 22.916H14.5837C13.85 22.9084 13.1313 22.7072 12.5003 22.3327V41.666C12.5003 42.2185 12.7198 42.7485 13.1105 43.1392C13.5012 43.5299 14.0311 43.7493 14.5837 43.7493H35.417C35.9695 43.7493 36.4994 43.5299 36.8901 43.1392C37.2808 42.7485 37.5003 42.2185 37.5003 41.666V22.3327C36.8694 22.7072 36.1507 22.9084 35.417 22.916V22.916Z" stroke="#306CFE" stroke-width="2" stroke-linecap="round" stroke-linejoin="round"/>
<path d="M25 20.834V25.0007" stroke="#344054" stroke-width="2" stroke-linecap="round" stroke-linejoin="round"/>
</svg>
