<svg width="50" height="50" viewBox="0 0 50 50" fill="none" xmlns="http://www.w3.org/2000/svg">
<path d="M29.1663 33.3327H20.833C20.849 31.8855 21.2417 30.4674 21.9723 29.2181C22.7029 27.9688 23.7462 26.9312 24.9997 26.2077L27.083 24.9993C27.7158 24.634 28.2414 24.1087 28.607 23.4761C28.9727 22.8435 29.1656 22.1259 29.1663 21.3952V20.8327C29.1663 19.7276 28.7274 18.6678 27.946 17.8864C27.1646 17.105 26.1047 16.666 24.9997 16.666V16.666C23.8946 16.666 22.8348 17.105 22.0534 17.8864C21.272 18.6678 20.833 19.7276 20.833 20.8327" stroke="#344054" stroke-width="2" stroke-linecap="round" stroke-linejoin="round"/>
<path d="M25 43.75C35.3553 43.75 43.75 35.3553 43.75 25C43.75 14.6447 35.3553 6.25 25 6.25C14.6447 6.25 6.25 14.6447 6.25 25C6.25 35.3553 14.6447 43.75 25 43.75Z" stroke="#306CFE" stroke-width="2" stroke-linecap="round" stroke-linejoin="round"/>
</svg>
