<svg width="50" height="50" viewBox="0 0 50 50" fill="none" xmlns="http://www.w3.org/2000/svg">
<path d="M18.75 22.9167L22.9167 27.0833L31.25 18.75" stroke="#344054" stroke-width="2" stroke-linecap="round" stroke-linejoin="round"/>
<path d="M24.9996 43.75L26.8329 42.9583C30.6764 41.3093 33.9954 38.6398 36.4302 35.2392C38.8649 31.8386 40.3227 27.8366 40.6454 23.6667L41.5412 12.1667C41.5551 11.6908 41.4056 11.2245 41.1175 10.8454C40.8294 10.4663 40.4202 10.1974 39.9579 10.0833L24.9996 6.25L10.0412 10C9.57901 10.1141 9.16978 10.383 8.88169 10.7621C8.59361 11.1411 8.44405 11.6074 8.45792 12.0833L9.35375 23.5833C9.67649 27.7532 11.1342 31.7553 13.569 35.1559C16.0038 38.5565 19.3227 41.2259 23.1662 42.875L24.9996 43.75Z" stroke="#306CFE" stroke-width="2" stroke-linecap="round" stroke-linejoin="round"/>
</svg>
