<svg width="50" height="50" viewBox="0 0 50 50" fill="none" xmlns="http://www.w3.org/2000/svg">
<path d="M37.5 29.166L43.75 31.2493C43.75 39.5827 42.4583 41.8743 37.5 43.7493C32.5417 41.8743 31.25 39.5827 31.25 31.2493L37.5 29.166Z" stroke="#344054" stroke-width="2" stroke-linecap="round" stroke-linejoin="round"/>
<path d="M37.5 20.8327V18.7493C37.5 18.1968 37.2805 17.6669 36.8898 17.2762C36.4991 16.8855 35.9692 16.666 35.4167 16.666H29.1667L25 20.8327H8.33333C7.7808 20.8327 7.25089 21.0522 6.86019 21.4429C6.46949 21.8336 6.25 22.3635 6.25 22.916V37.4993C6.25 38.0519 6.46949 38.5818 6.86019 38.9725C7.25089 39.3632 7.7808 39.5827 8.33333 39.5827H22.9167" stroke="#306CFE" stroke-width="2" stroke-linecap="round" stroke-linejoin="round"/>
<path d="M29.167 16.6667L25.0003 20.8333H10.417V8.33333C10.417 7.7808 10.6365 7.25089 11.0272 6.86019C11.4179 6.46949 11.9478 6.25 12.5003 6.25H31.2503C31.8029 6.25 32.3328 6.46949 32.7235 6.86019C33.1142 7.25089 33.3337 7.7808 33.3337 8.33333V16.6667H29.167Z" stroke="#306CFE" stroke-width="2" stroke-linecap="round" stroke-linejoin="round"/>
</svg>
