<svg width="50" height="50" viewBox="0 0 50 50" fill="none" xmlns="http://www.w3.org/2000/svg">
<path d="M33.333 21.5423V16.6673H28.458L24.9997 13.209L21.5413 16.6673H16.6663V21.5423L13.208 25.0007L16.6663 28.459V33.334H21.5413L24.9997 36.7923L28.458 33.334H33.333V28.459L36.7913 25.0007L33.333 21.5423Z" stroke="#344054" stroke-width="2" stroke-linecap="round" stroke-linejoin="round"/>
<path d="M25.1038 25H24.8955" stroke="#344054" stroke-width="3" stroke-linecap="round" stroke-linejoin="round"/>
<path d="M41.6667 6.25H8.33333C7.18274 6.25 6.25 7.18274 6.25 8.33333V41.6667C6.25 42.8173 7.18274 43.75 8.33333 43.75H41.6667C42.8173 43.75 43.75 42.8173 43.75 41.6667V8.33333C43.75 7.18274 42.8173 6.25 41.6667 6.25Z" stroke="#306CFE" stroke-width="2" stroke-linecap="round" stroke-linejoin="round"/>
</svg>
