<svg width="50" height="50" viewBox="0 0 50 50" fill="none" xmlns="http://www.w3.org/2000/svg">
<path d="M42.708 42.7083C42.321 43.0957 41.8615 43.4031 41.3557 43.6128C40.8498 43.8224 40.3076 43.9304 39.7601 43.9304C39.2125 43.9304 38.6703 43.8224 38.1645 43.6128C37.6587 43.4031 37.1991 43.0957 36.8122 42.7083L25.958 31.8542C23.0907 33.313 19.8021 33.7185 16.6663 33C13.8871 32.3525 11.3835 30.8435 9.51282 28.6885C7.64217 26.5335 6.50011 23.8427 6.24966 21C6.01661 18.5111 6.48574 16.0067 7.60383 13.7708L16.6663 22.9167L21.8747 21.875L22.9163 16.6667L13.7705 7.66668C16.0001 6.52707 18.5048 6.03623 20.9997 6.25001C23.8423 6.50046 26.5332 7.64252 28.6882 9.51317C30.8432 11.3838 32.3521 13.8875 32.9997 16.6667C33.698 19.7761 33.2929 23.0316 31.8538 25.875L42.708 36.7292C43.108 37.1176 43.4261 37.5823 43.6433 38.0958C43.8604 38.6093 43.9723 39.1612 43.9723 39.7188C43.9723 40.2763 43.8604 40.8282 43.6433 41.3417C43.4261 41.8553 43.108 42.32 42.708 42.7083V42.7083Z" stroke="#306CFE" stroke-width="2" stroke-linecap="round" stroke-linejoin="round"/>
</svg>
