<svg width="50" height="50" viewBox="0 0 50 50" fill="none" xmlns="http://www.w3.org/2000/svg">
<path d="M33.3333 6.25L43.75 14.5833L33.3333 22.9167V18.75C33.3333 18.75 22.9167 18.75 18.75 25C18.75 25 20.8333 12.5 33.3333 10.4167V6.25Z" stroke="#344054" stroke-width="2" stroke-linecap="round" stroke-linejoin="round"/>
<path d="M43.75 27.0827V39.5827C43.75 40.1352 43.5305 40.6651 43.1398 41.0558C42.7491 41.4465 42.2192 41.666 41.6667 41.666H8.33333C7.7808 41.666 7.25089 41.4465 6.86019 41.0558C6.46949 40.6651 6.25 40.1352 6.25 39.5827V12.4993C6.25 11.9468 6.46949 11.4169 6.86019 11.0262C7.25089 10.6355 7.7808 10.416 8.33333 10.416H16.6667" stroke="#306CFE" stroke-width="2" stroke-linecap="round" stroke-linejoin="round"/>
</svg>
