<svg width="50" height="50" viewBox="0 0 50 50" fill="none" xmlns="http://www.w3.org/2000/svg">
<path d="M18.083 22.1875L31.8747 15.3125M18.083 27.7917L31.8747 34.6875L18.083 27.7917Z" stroke="#344054" stroke-width="2" stroke-linecap="round" stroke-linejoin="round"/>
<path d="M12.5 18.75C13.7361 18.75 14.9445 19.1166 15.9723 19.8033C17.0001 20.4901 17.8012 21.4662 18.2742 22.6082C18.7473 23.7503 18.8711 25.0069 18.6299 26.2193C18.3888 27.4317 17.7935 28.5453 16.9194 29.4194C16.0453 30.2935 14.9317 30.8888 13.7193 31.1299C12.5069 31.3711 11.2503 31.2473 10.1082 30.7742C8.96619 30.3012 7.99007 29.5001 7.30331 28.4723C6.61656 27.4445 6.25 26.2361 6.25 25C6.25 23.3424 6.90848 21.7527 8.08058 20.5806C9.25269 19.4085 10.8424 18.75 12.5 18.75V18.75ZM31.25 37.5C31.25 38.7361 31.6166 39.9445 32.3033 40.9723C32.9901 42.0001 33.9662 42.8012 35.1082 43.2743C36.2503 43.7473 37.5069 43.8711 38.7193 43.6299C39.9317 43.3888 41.0453 42.7935 41.9194 41.9194C42.7935 41.0453 43.3887 39.9317 43.6299 38.7193C43.8711 37.5069 43.7473 36.2503 43.2742 35.1082C42.8012 33.9662 42.0001 32.9901 40.9723 32.3033C39.9445 31.6166 38.7361 31.25 37.5 31.25C35.8424 31.25 34.2527 31.9085 33.0806 33.0806C31.9085 34.2527 31.25 35.8424 31.25 37.5ZM37.5 18.75C38.7361 18.75 39.9445 18.3834 40.9723 17.6967C42.0001 17.0099 42.8012 16.0338 43.2742 14.8918C43.7473 13.7497 43.8711 12.4931 43.6299 11.2807C43.3887 10.0683 42.7935 8.95466 41.9194 8.08059C41.0453 7.20651 39.9317 6.61125 38.7193 6.37009C37.5069 6.12894 36.2503 6.25271 35.1082 6.72576C33.9662 7.1988 32.9901 7.99988 32.3033 9.02769C31.6166 10.0555 31.25 11.2639 31.25 12.5C31.25 14.1576 31.9085 15.7473 33.0806 16.9194C34.2527 18.0915 35.8424 18.75 37.5 18.75Z" stroke="#306CFE" stroke-width="2" stroke-linecap="round" stroke-linejoin="round"/>
</svg>
