<svg width="50" height="50" viewBox="0 0 50 50" fill="none" xmlns="http://www.w3.org/2000/svg">
<path d="M35.4167 35.416V37.4993C35.4167 38.0519 35.1972 38.5818 34.8065 38.9725C34.4158 39.3632 33.8859 39.5827 33.3333 39.5827H8.33333C7.7808 39.5827 7.25089 39.3632 6.86019 38.9725C6.46949 38.5818 6.25 38.0519 6.25 37.4993V12.4993C6.25 11.9468 6.46949 11.4169 6.86019 11.0262C7.25089 10.6355 7.7808 10.416 8.33333 10.416H33.3333" stroke="#306CFE" stroke-width="2" stroke-linecap="round" stroke-linejoin="round"/>
<path d="M33.3337 27.0827H43.7503M16.667 10.416V22.916L20.8337 20.8327L25.0003 22.916V10.416H16.667ZM43.7503 18.7493H35.417H43.7503Z" stroke="#344054" stroke-width="2" stroke-linecap="round" stroke-linejoin="round"/>
</svg>
