<svg width="50" height="50" viewBox="0 0 50 50" fill="none" xmlns="http://www.w3.org/2000/svg">
<path d="M35.417 8.33398H41.667C42.2195 8.33398 42.7494 8.55348 43.1401 8.94418C43.5308 9.33488 43.7503 9.86478 43.7503 10.4173V39.584C43.7503 40.1365 43.5308 40.6664 43.1401 41.0571C42.7494 41.4478 42.2195 41.6673 41.667 41.6673H35.417" stroke="#344054" stroke-width="2" stroke-linecap="round" stroke-linejoin="round"/>
<path d="M19.6668 11.77L22.9168 14.5825C23.1247 14.7603 23.2956 14.9774 23.4197 15.2212C23.5437 15.4651 23.6185 15.731 23.6398 16.0038C23.6611 16.2765 23.6284 16.5508 23.5437 16.811C23.459 17.0712 23.3238 17.3121 23.146 17.52L20.1251 20.8325H35.4168V29.1658H20.1251L23.0626 32.5825C23.4319 32.9918 23.6239 33.5308 23.5966 34.0814C23.5693 34.632 23.3248 35.1493 22.9168 35.52L19.7501 38.2283C19.5393 38.4295 19.2887 38.5841 19.0143 38.6824C18.74 38.7806 18.4481 38.8202 18.1576 38.7986C17.867 38.777 17.5842 38.6947 17.3274 38.557C17.0706 38.4193 16.8456 38.2292 16.6668 37.9992L6.75014 26.3533C6.42737 25.976 6.25 25.4957 6.25 24.9992C6.25 24.5026 6.42737 24.0223 6.75014 23.645L16.6668 11.9992C16.8452 11.7819 17.0658 11.6031 17.3152 11.4734C17.5646 11.3437 17.8376 11.2657 18.1179 11.2443C18.3982 11.2229 18.6799 11.2585 18.9461 11.3488C19.2123 11.4391 19.4574 11.5824 19.6668 11.77V11.77Z" stroke="#306CFE" stroke-width="2" stroke-linecap="round" stroke-linejoin="round"/>
</svg>
