<svg width="50" height="50" viewBox="0 0 50 50" fill="none" xmlns="http://www.w3.org/2000/svg">
<path d="M25 18.75V43.75" stroke="#306CFE" stroke-width="2" stroke-linecap="round" stroke-linejoin="round"/>
<path d="M32.375 12.1465C34.3278 14.0999 35.4249 16.7489 35.4249 19.5111C35.4249 22.2732 34.3278 24.9222 32.375 26.8756" stroke="#344054" stroke-width="2" stroke-linecap="round" stroke-linejoin="round"/>
<path d="M17.6251 26.8756C15.6722 24.9222 14.5752 22.2732 14.5752 19.5111C14.5752 16.7489 15.6722 14.0999 17.6251 12.1465" stroke="#344054" stroke-width="2" stroke-linecap="round" stroke-linejoin="round"/>
<path d="M38.25 6.25C39.9917 7.99118 41.3734 10.0584 42.3161 12.3337C43.2587 14.6089 43.7439 17.0476 43.7439 19.5104C43.7439 21.9732 43.2587 24.4119 42.3161 26.6871C41.3734 28.9624 39.9917 31.0297 38.25 32.7708" stroke="#344054" stroke-width="2" stroke-linecap="round" stroke-linejoin="round"/>
<path d="M11.7498 32.7708C10.008 31.0297 8.62636 28.9624 7.6837 26.6871C6.74105 24.4119 6.25586 21.9732 6.25586 19.5104C6.25586 17.0476 6.74105 14.6089 7.6837 12.3337C8.62636 10.0584 10.008 7.99118 11.7498 6.25" stroke="#344054" stroke-width="2" stroke-linecap="round" stroke-linejoin="round"/>
<path d="M24.8955 19.5H25.1038" stroke="#344054" stroke-width="3" stroke-linecap="round" stroke-linejoin="round"/>
</svg>
