<svg width="50" height="50" viewBox="0 0 50 50" fill="none" xmlns="http://www.w3.org/2000/svg">
<path d="M24.8955 25H25.1038" stroke="#344054" stroke-width="3" stroke-linecap="round" stroke-linejoin="round"/>
<path d="M11.7501 38.25C8.23884 34.7344 6.2666 29.9688 6.2666 25C6.2666 20.0312 8.23884 15.2656 11.7501 11.75" stroke="#306CFE" stroke-width="2" stroke-linecap="round" stroke-linejoin="round"/>
<path d="M17.6247 17.625C16.6547 18.5926 15.885 19.7421 15.3599 21.0076C14.8348 22.2732 14.5645 23.6298 14.5645 25C14.5645 26.3702 14.8348 27.7268 15.3599 28.9924C15.885 30.2579 16.6547 31.4074 17.6247 32.375" stroke="#306CFE" stroke-width="2" stroke-linecap="round" stroke-linejoin="round"/>
<path d="M38.25 38.25C41.7613 34.7344 43.7335 29.9688 43.7335 25C43.7335 20.0312 41.7613 15.2656 38.25 11.75" stroke="#306CFE" stroke-width="2" stroke-linecap="round" stroke-linejoin="round"/>
<path d="M32.375 32.375C33.3451 31.4074 34.1147 30.2579 34.6398 28.9924C35.165 27.7268 35.4353 26.3702 35.4353 25C35.4353 23.6298 35.165 22.2732 34.6398 21.0076C34.1147 19.7421 33.3451 18.5926 32.375 17.625" stroke="#306CFE" stroke-width="2" stroke-linecap="round" stroke-linejoin="round"/>
</svg>
