<svg width="50" height="50" viewBox="0 0 50 50" fill="none" xmlns="http://www.w3.org/2000/svg">
<path d="M22.9163 6.25H27.083C29.2931 6.25 31.4128 7.12797 32.9756 8.69078C34.5384 10.2536 35.4163 12.3732 35.4163 14.5833V41.6667C35.4163 42.2192 35.1969 42.7491 34.8062 43.1398C34.4154 43.5305 33.8855 43.75 33.333 43.75H16.6663C16.1138 43.75 15.5839 43.5305 15.1932 43.1398C14.8025 42.7491 14.583 42.2192 14.583 41.6667V14.5833C14.583 12.3732 15.461 10.2536 17.0238 8.69078C18.5866 7.12797 20.7062 6.25 22.9163 6.25V6.25Z" stroke="#344054" stroke-width="2" stroke-linecap="round" stroke-linejoin="round"/>
<path d="M25 43.75V22.9167C25 21.8116 25.439 20.7518 26.2204 19.9704C27.0018 19.189 28.0616 18.75 29.1667 18.75H35.4167V41.6667C35.4167 42.2192 35.1972 42.7491 34.8065 43.1398C34.4158 43.5305 33.8859 43.75 33.3333 43.75H25Z" stroke="#306CFE" stroke-width="2" stroke-linecap="round" stroke-linejoin="round"/>
<path d="M14.583 41.6667L14.583 18.75H20.833C21.9381 18.75 22.9979 19.189 23.7793 19.9704C24.5607 20.7518 24.9997 21.8116 24.9997 22.9167V43.75H16.6663C16.1138 43.75 15.5839 43.5305 15.1932 43.1398C14.8025 42.7491 14.583 42.2192 14.583 41.6667Z" stroke="#306CFE" stroke-width="2" stroke-linecap="round" stroke-linejoin="round"/>
</svg>
