<svg width="50" height="50" viewBox="0 0 50 50" fill="none" xmlns="http://www.w3.org/2000/svg">
<path d="M22.9163 35.4167H27.083M33.333 43.75H16.6663C16.1138 43.75 15.5839 43.5305 15.1932 43.1398C14.8025 42.7491 14.583 42.2192 14.583 41.6667V14.5833C14.583 12.3732 15.461 10.2536 17.0238 8.69078C18.5866 7.12797 20.7062 6.25 22.9163 6.25H27.083C29.2931 6.25 31.4128 7.12797 32.9756 8.69078C34.5384 10.2536 35.4163 12.3732 35.4163 14.5833V41.6667C35.4163 42.2192 35.1969 42.7491 34.8062 43.1398C34.4154 43.5305 33.8855 43.75 33.333 43.75ZM22.9163 27.0833H27.083H22.9163Z" stroke="#344054" stroke-width="2" stroke-linecap="round" stroke-linejoin="round"/>
<path d="M35.4163 18.75V41.6667C35.4163 42.2192 35.1969 42.7491 34.8062 43.1398C34.4154 43.5305 33.8855 43.75 33.333 43.75H16.6663C16.1138 43.75 15.5839 43.5305 15.1932 43.1398C14.8025 42.7491 14.583 42.2192 14.583 41.6667V18.75H35.4163Z" stroke="#306CFE" stroke-width="2" stroke-linecap="round" stroke-linejoin="round"/>
</svg>
