<svg width="50" height="50" viewBox="0 0 50 50" fill="none" xmlns="http://www.w3.org/2000/svg">
<path d="M10.417 18.7493V12.4993C10.417 11.9468 10.6365 11.4169 11.0272 11.0262C11.4179 10.6355 11.9478 10.416 12.5003 10.416H37.5003C38.0529 10.416 38.5828 10.6355 38.9735 11.0262C39.3642 11.4169 39.5837 11.9468 39.5837 12.4993V18.7493" stroke="#344054" stroke-width="2" stroke-linecap="round" stroke-linejoin="round"/>
<path d="M10.417 39.5827V35.416M39.5837 39.5827V35.416V39.5827Z" stroke="#344054" stroke-width="2" stroke-linecap="round" stroke-linejoin="round"/>
<path d="M43.7504 22.9168V31.2502C43.7504 32.3552 43.3115 33.4151 42.5301 34.1965C41.7486 34.9779 40.6888 35.4168 39.5838 35.4168H10.4171C9.31204 35.4168 8.25223 34.9779 7.47083 34.1965C6.68943 33.4151 6.25044 32.3552 6.25044 31.2502V22.9168C6.24152 22.3046 6.36764 21.698 6.61982 21.14C6.872 20.5821 7.24405 20.0865 7.7095 19.6887C8.17494 19.2909 8.72235 19.0006 9.31276 18.8383C9.90317 18.6761 10.5221 18.646 11.1254 18.7502C12.1302 18.9524 13.0301 19.5059 13.6639 20.3114C14.2976 21.1169 14.6237 22.1219 14.5838 23.146V27.0835H35.4171V23.146C35.3772 22.1219 35.7033 21.1169 36.337 20.3114C36.9707 19.5059 37.8707 18.9524 38.8754 18.7502C39.4788 18.646 40.0977 18.6761 40.6881 18.8383C41.2785 19.0006 41.8259 19.2909 42.2914 19.6887C42.7568 20.0865 43.1289 20.5821 43.3811 21.14C43.6332 21.698 43.7594 22.3046 43.7504 22.9168V22.9168Z" stroke="#306CFE" stroke-width="2" stroke-linecap="round" stroke-linejoin="round"/>
</svg>
