<svg width="50" height="50" viewBox="0 0 50 50" fill="none" xmlns="http://www.w3.org/2000/svg">
<path d="M38.25 11.75C41.7613 15.2656 43.7335 20.0312 43.7335 25C43.7335 29.9688 41.7613 34.7344 38.25 38.25" stroke="#344054" stroke-width="2" stroke-linecap="round" stroke-linejoin="round"/>
<path d="M32.375 17.625C33.3451 18.5926 34.1147 19.7421 34.6398 21.0076C35.165 22.2732 35.4353 23.6298 35.4353 25C35.4353 26.3702 35.165 27.7268 34.6398 28.9924C34.1147 30.2579 33.3451 31.4074 32.375 32.375" stroke="#344054" stroke-width="2" stroke-linecap="round" stroke-linejoin="round"/>
<path d="M22.9167 10.416V39.5827L14.5833 31.2493H8.33333C7.7808 31.2493 7.25089 31.0299 6.86019 30.6392C6.46949 30.2485 6.25 29.7185 6.25 29.166V20.8327C6.25 20.2801 6.46949 19.7502 6.86019 19.3595C7.25089 18.9688 7.7808 18.7493 8.33333 18.7493H14.5833L22.9167 10.416Z" stroke="#306CFE" stroke-width="2" stroke-linecap="round" stroke-linejoin="round"/>
</svg>
