<svg width="50" height="50" viewBox="0 0 50 50" fill="none" xmlns="http://www.w3.org/2000/svg">
<path d="M36.542 17.625C37.5121 18.5926 38.2817 19.7421 38.8068 21.0076C39.332 22.2732 39.6023 23.6298 39.6023 25C39.6023 26.3702 39.332 27.7268 38.8068 28.9924C38.2817 30.2579 37.5121 31.4074 36.542 32.375" stroke="#344054" stroke-width="2" stroke-linecap="round" stroke-linejoin="round"/>
<path d="M27.0837 10.416V39.5827L18.7503 31.2493H12.5003C11.9478 31.2493 11.4179 31.0299 11.0272 30.6392C10.6365 30.2485 10.417 29.7185 10.417 29.166V20.8327C10.417 20.2801 10.6365 19.7502 11.0272 19.3595C11.4179 18.9688 11.9478 18.7493 12.5003 18.7493H18.7503L27.0837 10.416Z" stroke="#306CFE" stroke-width="2" stroke-linecap="round" stroke-linejoin="round"/>
</svg>
