<svg width="50" height="50" viewBox="0 0 50 50" fill="none" xmlns="http://www.w3.org/2000/svg">
<path d="M33.3337 41.666H16.667V43.7493H33.3337V41.666Z" stroke="#344054" stroke-width="2" stroke-linecap="round" stroke-linejoin="round"/>
<path d="M20.8331 29.1667H29.1664C29.4388 25.379 30.5337 21.6963 32.3748 18.375C32.9289 17.3311 33.2546 16.1812 33.3303 15.0017C33.4059 13.8222 33.2299 12.6401 32.8137 11.5339C32.3975 10.4277 31.7508 9.42264 30.9165 8.5855C30.0822 7.74836 29.0794 7.09826 27.9745 6.67838C26.8697 6.25849 25.6883 6.07842 24.5085 6.15011C23.3288 6.22181 22.1778 6.54363 21.132 7.09422C20.0862 7.6448 19.1694 8.41156 18.4426 9.34357C17.7158 10.2756 17.1956 11.3516 16.9164 12.5C16.4089 14.4896 16.6537 16.5965 17.6039 18.4167C19.4244 21.733 20.5247 25.3961 20.8331 29.1667V29.1667ZM34.1039 30.8959C34.0196 30.4067 33.7634 29.9637 33.3814 29.6467C32.9995 29.3297 32.5169 29.1595 32.0206 29.1667H18.0623C17.5659 29.1595 17.0834 29.3297 16.7014 29.6467C16.3195 29.9637 16.0633 30.4067 15.9789 30.8959L14.5831 39.2292C14.531 39.5309 14.5461 39.8403 14.6272 40.1355C14.7083 40.4307 14.8535 40.7044 15.0524 40.9372C15.2513 41.1699 15.499 41.3559 15.778 41.482C16.057 41.6081 16.3603 41.6712 16.6664 41.6667H33.3331C33.6392 41.6712 33.9425 41.6081 34.2215 41.482C34.5005 41.3559 34.7482 41.1699 34.9472 40.9372C35.1461 40.7044 35.2912 40.4307 35.3723 40.1355C35.4535 39.8403 35.4685 39.5309 35.4164 39.2292L34.1039 30.8959Z" stroke="#306CFE" stroke-width="2" stroke-linecap="round" stroke-linejoin="round"/>
</svg>
