<svg width="50" height="50" viewBox="0 0 50 50" fill="none" xmlns="http://www.w3.org/2000/svg">
<path d="M29.1663 10.416H39.583C40.1355 10.416 40.6654 10.6355 41.0561 11.0262C41.4468 11.4169 41.6663 11.9468 41.6663 12.4993V31.2493L29.1663 43.7493H10.4163C9.86381 43.7493 9.3339 43.5299 8.9432 43.1392C8.5525 42.7485 8.33301 42.2185 8.33301 41.666V12.4993C8.33301 11.9468 8.5525 11.4169 8.9432 11.0262C9.3339 10.6355 9.86381 10.416 10.4163 10.416H20.833" stroke="#306CFE" stroke-width="2" stroke-linecap="round" stroke-linejoin="round"/>
<path d="M29.167 31.25V43.75L41.667 31.25H29.167Z" stroke="#306CFE" stroke-width="2" stroke-linecap="round" stroke-linejoin="round"/>
<path d="M29.167 16.6667V8.33333C29.167 7.18274 28.2343 6.25 27.0837 6.25H22.917C21.7664 6.25 20.8337 7.18274 20.8337 8.33333V16.6667C20.8337 17.8173 21.7664 18.75 22.917 18.75H27.0837C28.2343 18.75 29.167 17.8173 29.167 16.6667Z" stroke="#344054" stroke-width="2" stroke-linecap="round" stroke-linejoin="round"/>
</svg>
