<svg width="50" height="50" viewBox="0 0 50 50" fill="none" xmlns="http://www.w3.org/2000/svg">
<path d="M35.4167 14.5833V41.6667C35.4167 42.2192 35.1972 42.7491 34.8065 43.1398C34.4158 43.5305 33.8859 43.75 33.3333 43.75H18.75L6.25 31.25V14.5833C6.25 14.0308 6.46949 13.5009 6.86019 13.1102C7.25089 12.7195 7.7808 12.5 8.33333 12.5H33.3333" stroke="#306CFE" stroke-width="2" stroke-linecap="round" stroke-linejoin="round"/>
<path d="M6.25 31.25L18.75 43.75V31.25H6.25Z" stroke="#306CFE" stroke-width="2" stroke-linecap="round" stroke-linejoin="round"/>
<path d="M34.5628 13.3542L29.167 18.75M41.667 10.4167C41.667 9.3116 41.228 8.25179 40.4466 7.47039C39.6652 6.68899 38.6054 6.25 37.5003 6.25C36.3953 6.25 35.3354 6.68899 34.554 7.47039C33.7726 8.25179 33.3337 9.3116 33.3337 10.4167V10.4167C33.3337 11.5217 33.7726 12.5815 34.554 13.3629C35.3354 14.1443 36.3953 14.5833 37.5003 14.5833C38.6054 14.5833 39.6652 14.1443 40.4466 13.3629C41.228 12.5815 41.667 11.5217 41.667 10.4167Z" stroke="#344054" stroke-width="2" stroke-linecap="round" stroke-linejoin="round"/>
</svg>
