<svg width="50" height="50" viewBox="0 0 50 50" fill="none" xmlns="http://www.w3.org/2000/svg">
<path d="M31.2497 6.25H18.7497M13.958 17.0833L10.833 13.9583L13.958 17.0833ZM36.0413 17.0833L39.1663 13.9583L36.0413 17.0833ZM17.708 28.125C17.7078 29.2717 17.9796 30.4022 18.5011 31.4235C19.0226 32.4448 19.779 33.3278 20.708 34L24.9997 29.1667V20.8333C23.0658 20.8333 21.2111 21.6016 19.8437 22.969C18.4762 24.3365 17.708 26.1911 17.708 28.125V28.125ZM24.9997 12.5V6.25V12.5Z" stroke="#344054" stroke-width="2" stroke-linecap="round" stroke-linejoin="round"/>
<path d="M25 43.75C33.6294 43.75 40.625 36.7544 40.625 28.125C40.625 19.4956 33.6294 12.5 25 12.5C16.3706 12.5 9.375 19.4956 9.375 28.125C9.375 36.7544 16.3706 43.75 25 43.75Z" stroke="#306CFE" stroke-width="2" stroke-linecap="round" stroke-linejoin="round"/>
</svg>
