<svg width="50" height="50" viewBox="0 0 50 50" fill="none" xmlns="http://www.w3.org/2000/svg">
<path d="M18.7497 6.25H31.2497M36.0413 17.0833L39.1663 13.9583L36.0413 17.0833ZM13.958 17.0833L10.833 13.9583L13.958 17.0833ZM24.9997 20.8333V29.1667H32.208C32.2398 28.8202 32.2398 28.4715 32.208 28.125C32.2081 26.2055 31.4514 24.3633 30.1019 22.9983C28.7524 21.6332 26.9191 20.8553 24.9997 20.8333ZM24.9997 12.5V6.25V12.5Z" stroke="#344054" stroke-width="2" stroke-linecap="round" stroke-linejoin="round"/>
<path d="M25 43.75C33.6294 43.75 40.625 36.7544 40.625 28.125C40.625 19.4956 33.6294 12.5 25 12.5C16.3706 12.5 9.375 19.4956 9.375 28.125C9.375 36.7544 16.3706 43.75 25 43.75Z" stroke="#306CFE" stroke-width="2" stroke-linecap="round" stroke-linejoin="round"/>
</svg>
