<svg width="50" height="50" viewBox="0 0 50 50" fill="none" xmlns="http://www.w3.org/2000/svg">
<path d="M16.6663 39.5833H33.333M18.7497 31.25L14.583 43.75L18.7497 31.25ZM35.4163 43.75L31.2497 31.25L35.4163 43.75Z" stroke="#344054" stroke-width="2" stroke-linecap="round" stroke-linejoin="round"/>
<path d="M20.833 22.916H29.1663" stroke="#344054" stroke-width="2" stroke-linecap="round" stroke-linejoin="round"/>
<path d="M20.8333 6.25H29.1667C31.3768 6.25 33.4964 7.12797 35.0592 8.69078C36.622 10.2536 37.5 12.3732 37.5 14.5833V29.1667C37.5 29.7192 37.2805 30.2491 36.8898 30.6398C36.4991 31.0305 35.9692 31.25 35.4167 31.25H14.5833C14.0308 31.25 13.5009 31.0305 13.1102 30.6398C12.7195 30.2491 12.5 29.7192 12.5 29.1667V14.5833C12.5 12.3732 13.378 10.2536 14.9408 8.69078C16.5036 7.12797 18.6232 6.25 20.8333 6.25V6.25Z" stroke="#306CFE" stroke-width="2" stroke-linecap="round" stroke-linejoin="round"/>
</svg>
