<svg width="50" height="50" viewBox="0 0 50 50" fill="none" xmlns="http://www.w3.org/2000/svg">
<path d="M43.75 12.5V41.6667C43.75 42.2192 43.5305 42.7491 43.1398 43.1398C42.7491 43.5305 42.2192 43.75 41.6667 43.75H8.33333C7.7808 43.75 7.25089 43.5305 6.86019 43.1398C6.46949 42.7491 6.25 42.2192 6.25 41.6667V12.5C6.25 11.9475 6.46949 11.4176 6.86019 11.0269C7.25089 10.6362 7.7808 10.4167 8.33333 10.4167H12.5L16.6667 6.25H33.3333L37.5 10.4167H41.6667C42.2192 10.4167 42.7491 10.6362 43.1398 11.0269C43.5305 11.4176 43.75 11.9475 43.75 12.5Z" stroke="#306CFE" stroke-width="2" stroke-linecap="round" stroke-linejoin="round"/>
<path d="M16.6667 6.25L25 15.1875L33.3333 6.25H16.6667ZM33.3333 6.25L25 15.1875L33.3333 20.8333L37.5 10.4167L33.3333 6.25ZM12.5 10.4167L16.6667 20.8333L25 15.1875L16.6667 6.25L12.5 10.4167Z" stroke="#344054" stroke-width="2" stroke-linecap="round" stroke-linejoin="round"/>
</svg>
