<svg width="50" height="50" viewBox="0 0 50 50" fill="none" xmlns="http://www.w3.org/2000/svg">
<path d="M20.833 6.25H29.1663C30.8239 6.25 32.4137 6.90848 33.5858 8.08058C34.7579 9.25269 35.4163 10.8424 35.4163 12.5V14.5833H14.583V12.5C14.583 10.8424 15.2415 9.25269 16.4136 8.08058C17.5857 6.90848 19.1754 6.25 20.833 6.25V6.25Z" stroke="#344054" stroke-width="2" stroke-linecap="round" stroke-linejoin="round"/>
<path d="M22.917 25H27.0837" stroke="#344054" stroke-width="2" stroke-linecap="round" stroke-linejoin="round"/>
<path d="M41.3128 29.9785L39.8128 41.916C39.7514 42.4242 39.5051 42.8919 39.1208 43.2301C38.7366 43.5682 38.2413 43.753 37.7295 43.7493H12.2503C11.7385 43.753 11.2432 43.5682 10.859 43.2301C10.4747 42.8919 10.2284 42.4242 10.167 41.916L8.66699 29.9785" stroke="#306CFE" stroke-width="2" stroke-linecap="round" stroke-linejoin="round"/>
<path d="M42.3332 29.6465L32.8957 32.7923C27.7701 34.4985 22.2297 34.4985 17.1041 32.7923L7.66657 29.6465C7.23536 29.5015 6.86345 29.2194 6.60764 28.8432C6.35183 28.467 6.22619 28.0175 6.2499 27.5631V14.584H43.7499V27.6673C43.751 28.1041 43.6149 28.5301 43.3607 28.8853C43.1064 29.2404 42.747 29.5067 42.3332 29.6465Z" stroke="#306CFE" stroke-width="2" stroke-linecap="round" stroke-linejoin="round"/>
</svg>
