<svg width="50" height="50" viewBox="0 0 50 50" fill="none" xmlns="http://www.w3.org/2000/svg">
<path d="M20.833 39.5833C20.833 38.7592 21.0774 37.9537 21.5352 37.2685C21.9931 36.5832 22.6438 36.0492 23.4052 35.7338C24.1665 35.4185 25.0043 35.336 25.8126 35.4967C26.6208 35.6575 27.3632 36.0543 27.946 36.6371C28.5287 37.2198 28.9255 37.9622 29.0863 38.7705C29.2471 39.5787 29.1645 40.4165 28.8492 41.1778C28.5338 41.9392 27.9998 42.5899 27.3145 43.0478C26.6293 43.5056 25.8238 43.75 24.9997 43.75C23.8946 43.75 22.8348 43.311 22.0534 42.5296C21.272 41.7482 20.833 40.6884 20.833 39.5833ZM24.9997 10.4167V35.4167V10.4167ZM22.9163 10.4167H27.083V6.25H22.9163V10.4167Z" stroke="#306CFE" stroke-width="2" stroke-linecap="round" stroke-linejoin="round"/>
<path d="M20.833 15.625L29.1663 17.7083M20.833 21.875L29.1663 23.9583L20.833 21.875ZM20.833 28.125L29.1663 30.2083L20.833 28.125Z" stroke="#344054" stroke-width="2" stroke-linecap="round" stroke-linejoin="round"/>
</svg>
