<svg width="50" height="50" viewBox="0 0 50 50" fill="none" xmlns="http://www.w3.org/2000/svg">
<path d="M22.917 23.8958L27.792 28.7917C28.5659 29.5665 29.485 30.1811 30.4967 30.6005C31.5083 31.0199 32.5927 31.2357 33.6878 31.2357C34.783 31.2357 35.8673 31.0199 36.879 30.6005C37.8906 30.1811 38.8097 29.5665 39.5837 28.7917L22.917 12.125C22.9272 12.2498 22.9272 12.3752 22.917 12.5V23.8958Z" stroke="#344054" stroke-width="2" stroke-linecap="round" stroke-linejoin="round"/>
<path d="M22.917 12.5C22.917 9.04822 20.1188 6.25 16.667 6.25C13.2152 6.25 10.417 9.04822 10.417 12.5V37.5C10.417 40.9518 13.2152 43.75 16.667 43.75C20.1188 43.75 22.917 40.9518 22.917 37.5V12.5Z" stroke="#306CFE" stroke-width="2" stroke-linecap="round" stroke-linejoin="round"/>
</svg>
