<svg width="50" height="50" viewBox="0 0 50 50" fill="none" xmlns="http://www.w3.org/2000/svg">
<path d="M29.1667 13.5423C29.1621 14.5149 29.3555 15.4782 29.7352 16.3736C30.1148 17.269 30.6728 18.0778 31.375 18.7507H11.4583C10.077 18.7507 8.75224 18.2019 7.77549 17.2252C6.79873 16.2484 6.25 14.9237 6.25 13.5423C6.25 12.161 6.79873 10.8362 7.77549 9.85947C8.75224 8.88272 10.077 8.33398 11.4583 8.33398H31.375C30.6728 9.00686 30.1148 9.81562 29.7352 10.711C29.3555 11.6064 29.1621 12.5698 29.1667 13.5423V13.5423Z" stroke="#306CFE" stroke-width="2" stroke-linecap="round" stroke-linejoin="round"/>
<path d="M43.7501 12.9172C43.6409 11.534 43.1381 10.2109 42.3012 9.10415C41.4644 7.99743 40.3283 7.15328 39.0271 6.67137C37.726 6.18946 36.3141 6.08992 34.9582 6.38451C33.6023 6.67909 32.359 7.35549 31.3751 8.33385C30.3417 9.3464 29.6328 10.6435 29.3387 12.0601C29.0447 13.4767 29.1787 14.9488 29.7237 16.289C30.2687 17.6293 31.2001 18.7771 32.3994 19.5864C33.5987 20.3957 35.0116 20.8299 36.4584 20.8338C38.2901 20.8454 40.0587 20.1652 41.4105 18.9292C42.7624 17.6933 43.5979 15.9926 43.7501 14.1672C43.7709 13.9594 43.7709 13.75 43.7501 13.5422C43.7709 13.3344 43.7709 13.125 43.7501 12.9172V12.9172Z" stroke="#344054" stroke-width="2" stroke-linecap="round" stroke-linejoin="round"/>
<path d="M20.8333 36.4583C20.8379 35.4858 20.6445 34.5225 20.2648 33.627C19.8852 32.7316 19.3272 31.9229 18.625 31.25H38.5417C39.923 31.25 41.2478 31.7987 42.2245 32.7755C43.2013 33.7522 43.75 35.077 43.75 36.4583C43.75 37.8397 43.2013 39.1644 42.2245 40.1412C41.2478 41.1179 39.923 41.6667 38.5417 41.6667H18.625C19.3272 40.9938 19.8852 40.185 20.2648 39.2896C20.6445 38.3942 20.8379 37.4309 20.8333 36.4583Z" stroke="#306CFE" stroke-width="2" stroke-linecap="round" stroke-linejoin="round"/>
<path d="M6.24967 37.0828C6.35891 38.466 6.86165 39.7891 7.69854 40.8959C8.53543 42.0026 9.67153 42.8467 10.9727 43.3286C12.2738 43.8105 13.6857 43.9101 15.0416 43.6155C16.3975 43.3209 17.6408 42.6445 18.6247 41.6662C19.6581 40.6536 20.367 39.3565 20.6611 37.9399C20.9551 36.5233 20.8211 35.0512 20.2761 33.711C19.7311 32.3707 18.7997 31.2229 17.6004 30.4136C16.4011 29.6043 14.9882 29.1701 13.5413 29.1662C11.7097 29.1546 9.9411 29.8348 8.58924 31.0708C7.23738 32.3067 6.40184 34.0074 6.24967 35.8328C6.19412 36.2476 6.19412 36.668 6.24967 37.0828V37.0828Z" stroke="#344054" stroke-width="2" stroke-linecap="round" stroke-linejoin="round"/>
</svg>
