<svg width="50" height="50" viewBox="0 0 50 50" fill="none" xmlns="http://www.w3.org/2000/svg">
<path d="M18.75 31.25H6.25V33.3333C6.25 33.8859 6.46949 34.4158 6.86019 34.8065C7.25089 35.1972 7.7808 35.4167 8.33333 35.4167H18.75V31.25ZM18.75 16.6667C18.75 16.1141 18.9695 15.5842 19.3602 15.1935C19.7509 14.8028 20.2808 14.5833 20.8333 14.5833H41.6667V8.33333C41.6667 7.7808 41.4472 7.25089 41.0565 6.86019C40.6658 6.46949 40.1359 6.25 39.5833 6.25H10.4167C9.86413 6.25 9.33423 6.46949 8.94353 6.86019C8.55283 7.25089 8.33333 7.7808 8.33333 8.33333V31.25H18.75V16.6667Z" stroke="#306CFE" stroke-width="2" stroke-linecap="round" stroke-linejoin="round"/>
<path d="M41.6667 14.584H20.8333C19.6827 14.584 18.75 15.5167 18.75 16.6673V41.6673C18.75 42.8179 19.6827 43.7507 20.8333 43.7507H41.6667C42.8173 43.7507 43.75 42.8179 43.75 41.6673V16.6673C43.75 15.5167 42.8173 14.584 41.6667 14.584Z" stroke="#344054" stroke-width="2" stroke-linecap="round" stroke-linejoin="round"/>
</svg>
