<svg width="50" height="50" viewBox="0 0 50 50" fill="none" xmlns="http://www.w3.org/2000/svg">
<path d="M6.25 43.75H43.75" stroke="#344054" stroke-width="2" stroke-linecap="round" stroke-linejoin="round"/>
<path d="M42.6042 14.3338L32.9583 18.9379C32.4729 19.1626 32.0924 19.5654 31.8958 20.0629L29.3958 26.4796C29.2448 26.877 28.9758 27.2187 28.625 27.4588L22.9167 31.2504L23.8542 23.2713L16.2917 26.8754C15.8614 27.0748 15.3798 27.1358 14.9134 27.05C14.4469 26.9642 14.0186 26.7358 13.6875 26.3963L6.25 18.2088L10.0208 15.8546C10.3938 15.6183 10.8285 15.4981 11.2699 15.5093C11.7113 15.5204 12.1394 15.6623 12.5 15.9171L15.2083 17.7921L31.5 7.60459C32.8569 6.71928 34.4424 6.2487 36.0625 6.25042C37.5493 6.23487 39.0085 6.65198 40.2624 7.45095C41.5164 8.24993 42.5109 9.39629 43.125 10.7504L43.6042 11.9171C43.7851 12.3708 43.7819 12.8772 43.5951 13.3286C43.4083 13.7799 43.0528 14.1406 42.6042 14.3338V14.3338Z" stroke="#306CFE" stroke-width="2" stroke-linecap="round" stroke-linejoin="round"/>
</svg>
