<svg width="50" height="50" viewBox="0 0 50 50" fill="none" xmlns="http://www.w3.org/2000/svg">
<path d="M27.083 25L33.333 43.75M27.083 25L20.833 43.75L27.083 25Z" stroke="#344054" stroke-width="2" stroke-linecap="round" stroke-linejoin="round"/>
<path d="M43.75 22.3542L39.4375 6.25M43.2083 20.3333L21.0833 26.2708C20.8179 26.3432 20.5408 26.3623 20.268 26.3269C19.9952 26.2916 19.7321 26.2027 19.4939 26.0652C19.2557 25.9276 19.047 25.7443 18.88 25.5257C18.713 25.3071 18.5909 25.0577 18.5208 24.7917L16.375 16.6667C16.3023 16.4027 16.2823 16.1269 16.3163 15.8552C16.3503 15.5834 16.4375 15.3211 16.5729 15.0831C16.7084 14.8451 16.8894 14.6361 17.1057 14.4681C17.3219 14.3002 17.5692 14.1765 17.8333 14.1042L39.9792 8.33333L43.2083 20.3333ZM8.33333 27.5L18.4375 24.7917L16.375 16.6667L6.25 19.4583L8.33333 27.5Z" stroke="#306CFE" stroke-width="2" stroke-linecap="round" stroke-linejoin="round"/>
</svg>
