<svg width="50" height="50" viewBox="0 0 50 50" fill="none" xmlns="http://www.w3.org/2000/svg">
<path d="M26.9378 27.7492L33.3337 43.7492H16.667L23.0628 27.7492C23.2164 27.3606 23.4833 27.0272 23.8288 26.7922C24.1743 26.5573 24.5825 26.4316 25.0003 26.4316C25.4182 26.4316 25.8263 26.5573 26.1719 26.7922C26.5174 27.0272 26.7842 27.3606 26.9378 27.7492V27.7492Z" stroke="#344054" stroke-width="2" stroke-linecap="round" stroke-linejoin="round"/>
<path d="M24.9995 6.25C21.0262 11.0177 16.0457 14.8456 10.4162 17.4583L8.52035 41.5C8.49729 41.7873 8.53409 42.0762 8.62841 42.3485C8.72274 42.6209 8.87253 42.8706 9.06834 43.0821C9.26414 43.2936 9.50169 43.4621 9.76596 43.5771C10.0302 43.692 10.3155 43.7509 10.6037 43.75H39.4162C39.7044 43.7509 39.9896 43.692 40.2539 43.5771C40.5182 43.4621 40.7557 43.2936 40.9515 43.0821C41.1473 42.8706 41.2971 42.6209 41.3915 42.3485C41.4858 42.0762 41.5226 41.7873 41.4995 41.5L39.5828 17.4583C33.9533 14.8456 28.9728 11.0177 24.9995 6.25V6.25Z" stroke="#306CFE" stroke-width="2" stroke-linecap="round" stroke-linejoin="round"/>
<path d="M6.25 18.75C16.6667 16.6667 25 6.25 25 6.25C25 6.25 33.3333 16.6667 43.75 18.75" stroke="#344054" stroke-width="2" stroke-linecap="round" stroke-linejoin="round"/>
</svg>
