<svg width="50" height="50" viewBox="0 0 50 50" fill="none" xmlns="http://www.w3.org/2000/svg">
<path d="M20.833 16.666H27.9788C28.2921 16.6714 28.5911 16.7982 28.8126 17.0198C29.0342 17.2413 29.161 17.5402 29.1663 17.8535V32.1452C29.161 32.4585 29.0342 32.7574 28.8126 32.9789C28.5911 33.2005 28.2921 33.3273 27.9788 33.3327H20.833" stroke="#344054" stroke-width="2" stroke-linecap="round" stroke-linejoin="round"/>
<path d="M22.917 25H29.167" stroke="#344054" stroke-width="2" stroke-linecap="round" stroke-linejoin="round"/>
<path d="M25 43.75C35.3553 43.75 43.75 35.3553 43.75 25C43.75 14.6447 35.3553 6.25 25 6.25C14.6447 6.25 6.25 14.6447 6.25 25C6.25 35.3553 14.6447 43.75 25 43.75Z" stroke="#306CFE" stroke-width="2" stroke-linecap="round" stroke-linejoin="round"/>
</svg>
