<svg width="50" height="50" viewBox="0 0 50 50" fill="none" xmlns="http://www.w3.org/2000/svg">
<path d="M20.833 27.0827V22.916M20.833 10.416V14.5827V10.416ZM20.833 35.416V39.5827V35.416Z" stroke="#344054" stroke-width="2" stroke-linecap="round" stroke-linejoin="round"/>
<path d="M37.5 24.9993C37.5 26.657 38.1585 28.2467 39.3306 29.4188C40.5027 30.5909 42.0924 31.2493 43.75 31.2493V37.4993C43.75 38.0519 43.5305 38.5818 43.1398 38.9725C42.7491 39.3632 42.2192 39.5827 41.6667 39.5827H8.33333C7.7808 39.5827 7.25089 39.3632 6.86019 38.9725C6.46949 38.5818 6.25 38.0519 6.25 37.4993V31.2493C7.9076 31.2493 9.49731 30.5909 10.6694 29.4188C11.8415 28.2467 12.5 26.657 12.5 24.9993C12.5 23.3417 11.8415 21.752 10.6694 20.5799C9.49731 19.4078 7.9076 18.7493 6.25 18.7493V12.4993C6.25 11.9468 6.46949 11.4169 6.86019 11.0262C7.25089 10.6355 7.7808 10.416 8.33333 10.416H41.6667C42.2192 10.416 42.7491 10.6355 43.1398 11.0262C43.5305 11.4169 43.75 11.9468 43.75 12.4993V18.7493C42.0924 18.7493 40.5027 19.4078 39.3306 20.5799C38.1585 21.752 37.5 23.3417 37.5 24.9993V24.9993Z" stroke="#306CFE" stroke-width="2" stroke-linecap="round" stroke-linejoin="round"/>
</svg>
