<svg width="50" height="50" viewBox="0 0 50 50" fill="none" xmlns="http://www.w3.org/2000/svg">
<path d="M25.1038 34.375H24.8955" stroke="#344054" stroke-width="3" stroke-linecap="round" stroke-linejoin="round"/>
<path d="M18.75 6.25H31.25M25 25V20.8333V25ZM25 12.5V6.25V12.5Z" stroke="#344054" stroke-width="2" stroke-linecap="round" stroke-linejoin="round"/>
<path d="M36.0417 17.0833L39.1667 13.9583L36.0417 17.0833ZM13.9583 17.0833L10.8333 13.9583L13.9583 17.0833ZM9.375 28.125C9.375 31.2153 10.2914 34.2363 12.0083 36.8058C13.7252 39.3753 16.1655 41.378 19.0206 42.5606C21.8757 43.7432 25.0173 44.0527 28.0483 43.4498C31.0792 42.8469 33.8633 41.3587 36.0485 39.1735C38.2337 36.9883 39.7219 34.2042 40.3248 31.1733C40.9277 28.1423 40.6182 25.0007 39.4356 22.1456C38.253 19.2905 36.2503 16.8502 33.6808 15.1333C31.1113 13.4164 28.0903 12.5 25 12.5C20.856 12.5 16.8817 14.1462 13.9515 17.0765C11.0212 20.0067 9.375 23.981 9.375 28.125V28.125Z" stroke="#306CFE" stroke-width="2" stroke-linecap="round" stroke-linejoin="round"/>
</svg>
