<svg width="50" height="50" viewBox="0 0 50 50" fill="none" xmlns="http://www.w3.org/2000/svg">
<path d="M18.7497 35.4167H14.583M12.4997 6.25H33.333C34.4381 6.25 35.4979 6.68899 36.2793 7.47039C37.0607 8.25179 37.4997 9.3116 37.4997 10.4167C37.4997 11.5217 37.0607 12.5815 36.2793 13.3629C35.4979 14.1443 34.4381 14.5833 33.333 14.5833V22.9167H12.4997V14.5833C11.3946 14.5833 10.3348 14.1443 9.5534 13.3629C8.77199 12.5815 8.33301 11.5217 8.33301 10.4167C8.33301 9.3116 8.77199 8.25179 9.5534 7.47039C10.3348 6.68899 11.3946 6.25 12.4997 6.25Z" stroke="#344054" stroke-width="2" stroke-linecap="round" stroke-linejoin="round"/>
<path d="M39.5833 29.166H43.75H39.5833ZM39.5833 41.666V24.9993C39.5833 24.4468 39.3638 23.9169 38.9731 23.5262C38.5824 23.1355 38.0525 22.916 37.5 22.916H8.33333C7.7808 22.916 7.25089 23.1355 6.86019 23.5262C6.46949 23.9169 6.25 24.4468 6.25 24.9993V41.666C6.25 42.2186 6.46949 42.7485 6.86019 43.1392C7.25089 43.5299 7.7808 43.7494 8.33333 43.7494H37.5C38.0525 43.7494 38.5824 43.5299 38.9731 43.1392C39.3638 42.7485 39.5833 42.2186 39.5833 41.666Z" stroke="#306CFE" stroke-width="2" stroke-linecap="round" stroke-linejoin="round"/>
</svg>
