<svg width="50" height="50" viewBox="0 0 50 50" fill="none" xmlns="http://www.w3.org/2000/svg">
<path d="M31.25 35.4167H35.4167M41.6667 10.4167C41.6667 11.5217 41.2277 12.5815 40.4463 13.3629C39.6649 14.1443 38.6051 14.5833 37.5 14.5833V22.9167H16.6667V14.5833C15.5616 14.5833 14.5018 14.1443 13.7204 13.3629C12.939 12.5815 12.5 11.5217 12.5 10.4167C12.5 9.3116 12.939 8.25179 13.7204 7.47039C14.5018 6.68899 15.5616 6.25 16.6667 6.25H37.5C38.6051 6.25 39.6649 6.68899 40.4463 7.47039C41.2277 8.25179 41.6667 9.3116 41.6667 10.4167Z" stroke="#344054" stroke-width="2" stroke-linecap="round" stroke-linejoin="round"/>
<path d="M10.4167 29.166H6.25M12.5 43.7494H41.6667C42.2192 43.7494 42.7491 43.5299 43.1398 43.1392C43.5305 42.7485 43.75 42.2186 43.75 41.666V24.9993C43.75 24.4468 43.5305 23.9169 43.1398 23.5262C42.7491 23.1355 42.2192 22.916 41.6667 22.916H12.5C11.9475 22.916 11.4176 23.1355 11.0269 23.5262C10.6362 23.9169 10.4167 24.4468 10.4167 24.9993V41.666C10.4167 42.2186 10.6362 42.7485 11.0269 43.1392C11.4176 43.5299 11.9475 43.7494 12.5 43.7494Z" stroke="#306CFE" stroke-width="2" stroke-linecap="round" stroke-linejoin="round"/>
</svg>
