<svg width="50" height="50" viewBox="0 0 50 50" fill="none" xmlns="http://www.w3.org/2000/svg">
<path d="M20.833 22.9167L33.333 12.5" stroke="#344054" stroke-width="2" stroke-linecap="round" stroke-linejoin="round"/>
<path d="M33.3333 31.25H16.6667L14.5833 43.75H35.4167L33.3333 31.25ZM20.8333 22.9167H12.5V8.33333C12.5 7.7808 12.7195 7.25089 13.1102 6.86019C13.5009 6.46949 14.0308 6.25 14.5833 6.25H18.75C19.3025 6.25 19.8324 6.46949 20.2231 6.86019C20.6138 7.25089 20.8333 7.7808 20.8333 8.33333V22.9167ZM37.5 27.0833V22.9167H12.5V27.0833C12.5 28.1884 12.939 29.2482 13.7204 30.0296C14.5018 30.811 15.5616 31.25 16.6667 31.25H33.3333C34.4384 31.25 35.4982 30.811 36.2796 30.0296C37.061 29.2482 37.5 28.1884 37.5 27.0833Z" stroke="#306CFE" stroke-width="2" stroke-linecap="round" stroke-linejoin="round"/>
</svg>
