<svg width="50" height="50" viewBox="0 0 50 50" fill="none" xmlns="http://www.w3.org/2000/svg">
<path d="M33.333 22.916C33.6491 30.3654 31.4474 37.7041 27.083 43.7494" stroke="#344054" stroke-width="2" stroke-linecap="round" stroke-linejoin="round"/>
<path d="M12.8545 35.7716C14.5837 34.0008 16.667 26.48 16.667 22.9175C16.667 20.7073 17.545 18.5877 19.1078 17.0249C20.6706 15.4621 22.7902 14.5841 25.0003 14.5841C26.4654 14.5756 27.9053 14.9644 29.167 15.7091" stroke="#344054" stroke-width="2" stroke-linecap="round" stroke-linejoin="round"/>
<path d="M18.75 7.45833C20.7377 6.66221 22.8588 6.25212 25 6.25C29.4203 6.25 33.6595 8.00595 36.7851 11.1316C39.9107 14.2572 41.6667 18.4964 41.6667 22.9167C41.6667 25.25 41.6667 33.3333 37.5 39.5833" stroke="#306CFE" stroke-width="2" stroke-linecap="round" stroke-linejoin="round"/>
<path d="M6.95801 29.1673C7.75414 27.1729 8.2186 25.0617 8.33301 22.9173C8.33377 18.8589 9.81531 14.9403 12.4997 11.8965" stroke="#306CFE" stroke-width="2" stroke-linecap="round" stroke-linejoin="round"/>
<path d="M25.0003 22.916C25.0003 27.0827 22.917 39.5827 16.667 43.7494" stroke="#306CFE" stroke-width="2" stroke-linecap="round" stroke-linejoin="round"/>
</svg>
