<svg width="50" height="50" viewBox="0 0 50 50" fill="none" xmlns="http://www.w3.org/2000/svg">
<path d="M20.833 22.916C22.8863 25.822 25.8017 28.0085 29.1663 29.166" stroke="#344054" stroke-width="2" stroke-linecap="round" stroke-linejoin="round"/>
<path d="M20.833 29.166C29.1663 27.0827 29.1663 16.666 29.1663 16.666" stroke="#344054" stroke-width="2" stroke-linecap="round" stroke-linejoin="round"/>
<path d="M25.0003 14.584V16.6673M16.667 16.6673H33.3337H16.667Z" stroke="#344054" stroke-width="2" stroke-linecap="round" stroke-linejoin="round"/>
<path d="M43.75 8.33333V33.3333C43.75 33.8859 43.5305 34.4158 43.1398 34.8065C42.7491 35.1972 42.2192 35.4167 41.6667 35.4167H33.3333L25 43.75L16.6667 35.4167H8.33333C7.7808 35.4167 7.25089 35.1972 6.86019 34.8065C6.46949 34.4158 6.25 33.8859 6.25 33.3333V8.33333C6.25 7.7808 6.46949 7.25089 6.86019 6.86019C7.25089 6.46949 7.7808 6.25 8.33333 6.25H41.6667C42.2192 6.25 42.7491 6.46949 43.1398 6.86019C43.5305 7.25089 43.75 7.7808 43.75 8.33333Z" stroke="#306CFE" stroke-width="2" stroke-linecap="round" stroke-linejoin="round"/>
</svg>
