<svg width="50" height="50" viewBox="0 0 50 50" fill="none" xmlns="http://www.w3.org/2000/svg">
<path d="M34.8745 25.3547C35.226 26.2366 35.4097 27.1763 35.4162 28.1255C35.4162 30.0594 34.648 31.9141 33.2805 33.2815C31.9131 34.649 30.0584 35.4172 28.1245 35.4172C27.0412 35.4128 25.9729 35.1635 24.9995 34.688C24.0261 35.1635 22.9578 35.4128 21.8745 35.4172C19.9407 35.4172 18.086 34.649 16.7185 33.2815C15.3511 31.9141 14.5829 30.0594 14.5829 28.1255C14.5894 27.1763 14.7731 26.2366 15.1245 25.3547C14.1744 24.567 13.4411 23.5497 12.9942 22.3993C12.5472 21.2489 12.4012 20.0034 12.5702 18.7809C12.7392 17.5583 13.2175 16.3991 13.9598 15.4131C14.7021 14.427 15.6839 13.6469 16.812 13.1464C17.1735 11.2395 18.1893 9.51863 19.684 8.28065C21.1787 7.04267 23.0587 6.36523 24.9995 6.36523C26.9404 6.36523 28.8203 7.04267 30.3151 8.28065C31.8098 9.51863 32.8255 11.2395 33.187 13.1464C34.3152 13.6469 35.2969 14.427 36.0392 15.4131C36.7815 16.3991 37.2598 17.5583 37.4288 18.7809C37.5978 20.0034 37.4519 21.2489 37.0049 22.3993C36.5579 23.5497 35.8246 24.567 34.8745 25.3547V25.3547Z" stroke="#306CFE" stroke-width="2" stroke-linecap="round" stroke-linejoin="round"/>
<path d="M20.833 43.7494H29.1663M24.9997 43.7494V22.916V43.7494Z" stroke="#344054" stroke-width="2" stroke-linecap="round" stroke-linejoin="round"/>
</svg>
