<svg width="50" height="50" viewBox="0 0 50 50" fill="none" xmlns="http://www.w3.org/2000/svg">
<path d="M23.8128 26.1875L17.792 32.2292" stroke="#344054" stroke-width="2" stroke-linecap="round" stroke-linejoin="round"/>
<path d="M7.47921 42.5213C6.70317 41.7406 6.26758 40.6846 6.26758 39.5838C6.26758 38.483 6.70317 37.427 7.47921 36.6463L13.3542 30.7504C13.5479 30.5552 13.7783 30.4002 14.0322 30.2944C14.2861 30.1887 14.5584 30.1342 14.8334 30.1342C15.1084 30.1342 15.3807 30.1887 15.6346 30.2944C15.8885 30.4002 16.1189 30.5552 16.3125 30.7504L19.25 33.6879C19.4453 33.8816 19.6003 34.112 19.7061 34.3659C19.8118 34.6198 19.8663 34.8921 19.8663 35.1671C19.8663 35.4421 19.8118 35.7144 19.7061 35.9683C19.6003 36.2222 19.4453 36.4526 19.25 36.6463L13.3542 42.5213C12.5735 43.2973 11.5175 43.7329 10.4167 43.7329C9.31594 43.7329 8.25989 43.2973 7.47921 42.5213V42.5213ZM30.3959 32.8129C30.5899 33.0114 30.8216 33.169 31.0774 33.2767C31.3332 33.3843 31.6079 33.4398 31.8855 33.4398C32.163 33.4398 32.4377 33.3843 32.6935 33.2767C32.9493 33.169 33.181 33.0114 33.375 32.8129C37.0417 28.9796 45.8334 18.3546 43.3334 6.66711C31.6459 4.16711 21.0209 12.9588 17.2084 16.6671C17.01 16.8611 16.8523 17.0928 16.7446 17.3486C16.637 17.6044 16.5816 17.8792 16.5816 18.1567C16.5816 18.4342 16.637 18.7089 16.7446 18.9647C16.8523 19.2205 17.01 19.4523 17.2084 19.6463L30.3959 32.8129Z" stroke="#306CFE" stroke-width="2" stroke-linecap="round" stroke-linejoin="round"/>
</svg>
