<svg width="50" height="50" viewBox="0 0 50 50" fill="none" xmlns="http://www.w3.org/2000/svg">
<path d="M22.9167 37.5H15.625C14.3931 37.5028 13.1728 37.2622 12.0341 36.792C10.8955 36.3218 9.86087 35.6314 8.98977 34.7603C8.11868 33.8892 7.42822 32.8546 6.95806 31.7159C6.48789 30.5773 6.24728 29.3569 6.25002 28.125C6.24728 26.8931 6.48789 25.6728 6.95806 24.5341C7.42822 23.3955 8.11868 22.3609 8.98977 21.4898C9.86087 20.6187 10.8955 19.9282 12.0341 19.4581C13.1728 18.9879 14.3931 18.7473 15.625 18.75H43.75" stroke="#306CFE" stroke-width="2" stroke-linecap="round" stroke-linejoin="round"/>
<path d="M37.5 12.5L43.75 18.75L37.5 25" stroke="#344054" stroke-width="2" stroke-linecap="round" stroke-linejoin="round"/>
</svg>
