<svg width="50" height="50" viewBox="0 0 50 50" fill="none" xmlns="http://www.w3.org/2000/svg">
<path d="M12.5 41.6667V15.625C12.4973 14.3931 12.7379 13.1728 13.2081 12.0341C13.6782 10.8955 14.3687 9.86087 15.2398 8.98977C16.1109 8.11868 17.1455 7.42822 18.2841 6.95806C19.4228 6.48789 20.6431 6.24728 21.875 6.25002V6.25002C23.1069 6.24728 24.3273 6.48789 25.4659 6.95806C26.6046 7.42822 27.6392 8.11868 28.5103 8.98977C29.3814 9.86087 30.0718 10.8955 30.542 12.0341C31.0122 13.1728 31.2528 14.3931 31.25 15.625V43.75" stroke="#306CFE" stroke-width="2" stroke-linecap="round" stroke-linejoin="round"/>
<path d="M37.5 37.5L31.25 43.75L25 37.5" stroke="#344054" stroke-width="2" stroke-linecap="round" stroke-linejoin="round"/>
</svg>
