<svg width="50" height="50" viewBox="0 0 50 50" fill="none" xmlns="http://www.w3.org/2000/svg">
<path d="M6.25 18.75H34.375C35.6069 18.7473 36.8272 18.9879 37.9659 19.4581C39.1046 19.9282 40.1392 20.6187 41.0103 21.4898C41.8813 22.3609 42.5718 23.3955 43.042 24.5341C43.5121 25.6728 43.7527 26.8931 43.75 28.125V28.125C43.7527 29.3569 43.5121 30.5773 43.042 31.7159C42.5718 32.8546 41.8813 33.8892 41.0103 34.7603C40.1392 35.6314 39.1046 36.3218 37.9659 36.792C36.8272 37.2622 35.6069 37.5028 34.375 37.5H27.0833" stroke="#306CFE" stroke-width="2" stroke-linecap="round" stroke-linejoin="round"/>
<path d="M12.5 25L6.25 18.75L12.5 12.5" stroke="#344054" stroke-width="2" stroke-linecap="round" stroke-linejoin="round"/>
</svg>
