<svg width="50" height="50" viewBox="0 0 50 50" fill="none" xmlns="http://www.w3.org/2000/svg">
<path d="M18.75 20.8333H33.3333C33.8859 20.8333 34.4158 21.0528 34.8065 21.4435C35.1972 21.8342 35.4167 22.3641 35.4167 22.9167V41.6667C35.4167 42.2192 35.6362 42.7491 36.0269 43.1398C36.4176 43.5305 36.9475 43.75 37.5 43.75H41.6667C42.2192 43.75 42.7491 43.5305 43.1398 43.1398C43.5305 42.7491 43.75 42.2192 43.75 41.6667V20.8333C43.75 18.6232 42.872 16.5036 41.3092 14.9408C39.7464 13.378 37.6268 12.5 35.4167 12.5H18.75" stroke="#306CFE" stroke-width="2" stroke-linecap="round" stroke-linejoin="round"/>
<path d="M18.7495 12.5V6.25L8.16618 15.0625C7.93027 15.258 7.74037 15.5031 7.61003 15.7804C7.47969 16.0577 7.41211 16.3603 7.41211 16.6667C7.41211 16.9731 7.47969 17.2757 7.61003 17.5529C7.74037 17.8302 7.93027 18.0753 8.16618 18.2708L18.7495 27.0833V20.8333" stroke="#344054" stroke-width="2" stroke-linecap="round" stroke-linejoin="round"/>
</svg>
