<svg width="50" height="50" viewBox="0 0 50 50" fill="none" xmlns="http://www.w3.org/2000/svg">
<path d="M37.5 8.33333V34.375C37.5028 35.6069 37.2622 36.8272 36.792 37.9659C36.3218 39.1046 35.6314 40.1392 34.7603 41.0103C33.8892 41.8813 32.8546 42.5718 31.7159 43.042C30.5773 43.5121 29.3569 43.7527 28.125 43.75V43.75C26.8931 43.7527 25.6728 43.5121 24.5341 43.042C23.3955 42.5718 22.3609 41.8813 21.4898 41.0103C20.6187 40.1392 19.9282 39.1046 19.4581 37.9659C18.9879 36.8272 18.7473 35.6069 18.75 34.375V6.25" stroke="#306CFE" stroke-width="2" stroke-linecap="round" stroke-linejoin="round"/>
<path d="M12.5 12.5L18.75 6.25L25 12.5" stroke="#344054" stroke-width="2" stroke-linecap="round" stroke-linejoin="round"/>
</svg>
