<svg width="50" height="50" viewBox="0 0 50 50" fill="none" xmlns="http://www.w3.org/2000/svg">
<path d="M31.25 20.8333H16.6667C16.1141 20.8333 15.5842 21.0528 15.1935 21.4435C14.8028 21.8342 14.5833 22.3641 14.5833 22.9167V41.6667C14.5833 42.2192 14.3638 42.7491 13.9731 43.1398C13.5824 43.5305 13.0525 43.75 12.5 43.75H8.33333C7.7808 43.75 7.25089 43.5305 6.86019 43.1398C6.46949 42.7491 6.25 42.2192 6.25 41.6667V20.8333C6.25 18.6232 7.12797 16.5036 8.69078 14.9408C10.2536 13.378 12.3732 12.5 14.5833 12.5H31.25" stroke="#306CFE" stroke-width="2" stroke-linecap="round" stroke-linejoin="round"/>
<path d="M31.25 12.5V6.25L41.8333 15.0625C42.0693 15.258 42.2591 15.5031 42.3895 15.7804C42.5198 16.0577 42.5874 16.3603 42.5874 16.6667C42.5874 16.9731 42.5198 17.2757 42.3895 17.5529C42.2591 17.8302 42.0693 18.0753 41.8333 18.2708L31.25 27.0833V20.8333" stroke="#344054" stroke-width="2" stroke-linecap="round" stroke-linejoin="round"/>
</svg>
