<svg width="50" height="50" viewBox="0 0 50 50" fill="none" xmlns="http://www.w3.org/2000/svg">
<path d="M18.7497 35.4167L20.833 27.0833M39.583 27.0833H10.4163C9.86381 27.0833 9.3339 26.8638 8.9432 26.4731C8.5525 26.0824 8.33301 25.5525 8.33301 25V8.33333C8.33301 7.7808 8.5525 7.25089 8.9432 6.86019C9.3339 6.46949 9.86381 6.25 10.4163 6.25H39.583C40.1355 6.25 40.6654 6.46949 41.0561 6.86019C41.4468 7.25089 41.6663 7.7808 41.6663 8.33333V25C41.6663 25.5525 41.4468 26.0824 41.0561 26.4731C40.6654 26.8638 40.1355 27.0833 39.583 27.0833ZM29.1663 27.0833L31.2497 35.4167L29.1663 27.0833Z" stroke="#306CFE" stroke-width="2" stroke-linecap="round" stroke-linejoin="round"/>
<path d="M6.25 43.7493H43.75V35.416H6.25V43.7493ZM6.25 43.7493H25V35.416H6.25V43.7493Z" stroke="#344054" stroke-width="2" stroke-linecap="round" stroke-linejoin="round"/>
</svg>
