<svg width="50" height="50" viewBox="0 0 50 50" fill="none" xmlns="http://www.w3.org/2000/svg">
<path d="M29.167 22.9167L31.2503 31.25L29.167 22.9167ZM18.7503 31.25L20.8337 22.9167L18.7503 31.25ZM37.5003 22.9167H12.5003C11.9478 22.9167 11.4179 22.6972 11.0272 22.3065C10.6365 21.9158 10.417 21.3859 10.417 20.8333V8.33333C10.417 7.7808 10.6365 7.25089 11.0272 6.86019C11.4179 6.46949 11.9478 6.25 12.5003 6.25H37.5003C38.0529 6.25 38.5828 6.46949 38.9735 6.86019C39.3642 7.25089 39.5837 7.7808 39.5837 8.33333V20.8333C39.5837 21.3859 39.3642 21.9158 38.9735 22.3065C38.5828 22.6972 38.0529 22.9167 37.5003 22.9167Z" stroke="#306CFE" stroke-width="2" stroke-linecap="round" stroke-linejoin="round"/>
<path d="M39.5833 39.5833V43.75M6.25 39.5833H43.75V31.25H6.25V39.5833ZM6.25 39.5833H25V31.25H6.25V39.5833ZM10.4167 39.5833V43.75V39.5833Z" stroke="#344054" stroke-width="2" stroke-linecap="round" stroke-linejoin="round"/>
</svg>
