<svg width="50" height="50" viewBox="0 0 50 50" fill="none" xmlns="http://www.w3.org/2000/svg">
<path d="M33.7087 23.3118L43.7503 39.5827M29.167 10.416V39.5827V10.416ZM29.167 29.166L43.7503 10.416L29.167 29.166Z" stroke="#344054" stroke-width="2" stroke-linecap="round" stroke-linejoin="round"/>
<path d="M20.8334 39.5827H6.25005C6.24317 37.0462 6.90852 34.5532 8.17839 32.3575C9.44825 30.1617 11.2773 28.3417 13.4792 27.0827L17.1667 24.9993C18.2669 24.3643 19.1832 23.4545 19.8259 22.3589C20.4687 21.2633 20.8158 20.0195 20.8334 18.7493V17.7077C20.8334 15.7738 20.0652 13.9191 18.6977 12.5517C17.3303 11.1842 15.4756 10.416 13.5417 10.416V10.416C11.6079 10.416 9.75319 11.1842 8.38573 12.5517C7.01828 13.9191 6.25005 15.7738 6.25005 17.7077V18.7493" stroke="#306CFE" stroke-width="2" stroke-linecap="round" stroke-linejoin="round"/>
</svg>
