<svg width="50" height="50" viewBox="0 0 50 50" fill="none" xmlns="http://www.w3.org/2000/svg">
<path d="M16.667 6.25H17.8962C19.7798 6.25136 21.5858 7.00073 22.917 8.33333V8.33333C24.2482 9.66594 26.0542 10.4153 27.9378 10.4167H31.2503" stroke="#306CFE" stroke-width="2" stroke-linecap="round" stroke-linejoin="round"/>
<path d="M24.9997 43.7494C30.7526 43.7494 35.4163 39.0856 35.4163 33.3327C35.4163 27.5797 30.7526 22.916 24.9997 22.916C19.2467 22.916 14.583 27.5797 14.583 33.3327C14.583 39.0856 19.2467 43.7494 24.9997 43.7494Z" stroke="#344054" stroke-width="2" stroke-linecap="round" stroke-linejoin="round"/>
<path d="M25 33.3327V10.416" stroke="#306CFE" stroke-width="2" stroke-linecap="round" stroke-linejoin="round"/>
<path d="M6.25 39.584C11.7269 42.3288 17.7696 43.7557 23.8958 43.7507H26.1042C32.2304 43.7557 38.2731 42.3288 43.75 39.584" stroke="#306CFE" stroke-width="2" stroke-linecap="round" stroke-linejoin="round"/>
</svg>
