<svg width="50" height="50" viewBox="0 0 50 50" fill="none" xmlns="http://www.w3.org/2000/svg">
<path d="M16.667 18.75V14.5833C16.667 12.3732 17.545 10.2536 19.1078 8.69078C20.6706 7.12797 22.7902 6.25 25.0003 6.25V6.25C26.4617 6.2515 27.897 6.63726 29.1621 7.36859C30.4273 8.09992 31.478 9.15109 32.2087 10.4167" stroke="#344054" stroke-width="2" stroke-linecap="round" stroke-linejoin="round"/>
<path d="M37.5003 18.75H12.5003C11.3497 18.75 10.417 19.6827 10.417 20.8333V41.6667C10.417 42.8173 11.3497 43.75 12.5003 43.75H37.5003C38.6509 43.75 39.5837 42.8173 39.5837 41.6667V20.8333C39.5837 19.6827 38.6509 18.75 37.5003 18.75Z" stroke="#306CFE" stroke-width="2" stroke-linecap="round" stroke-linejoin="round"/>
</svg>
