<svg width="50" height="50" viewBox="0 0 50 50" fill="none" xmlns="http://www.w3.org/2000/svg">
<path d="M25 35.4173V33.334" stroke="#344054" stroke-width="2" stroke-linecap="round" stroke-linejoin="round"/>
<path d="M24.8955 31.25H25.1038" stroke="#344054" stroke-width="3" stroke-linecap="round" stroke-linejoin="round"/>
<path d="M35.4163 20.8333H14.583V16.6667C14.583 13.904 15.6805 11.2545 17.634 9.30098C19.5875 7.34747 22.237 6.25001 24.9997 6.25001V6.25001C26.8261 6.24794 28.621 6.72613 30.2043 7.63662C31.7876 8.54711 33.1036 9.85789 34.0205 11.4375" stroke="#306CFE" stroke-width="2" stroke-linecap="round" stroke-linejoin="round"/>
<path d="M39.5837 22.9173V28.5632C39.6434 32.4315 38.2042 36.1729 35.5674 39.0039C32.9305 41.8349 29.3006 43.5359 25.4378 43.7507C23.4862 43.8092 21.5427 43.4753 19.7226 42.7687C17.9024 42.0621 16.2427 40.9972 14.8419 39.6371C13.441 38.277 12.3275 36.6495 11.5674 34.8511C10.8073 33.0526 10.4161 31.1198 10.417 29.1673V22.9173C10.417 22.3648 10.6365 21.8349 11.0272 21.4442C11.4179 21.0535 11.9478 20.834 12.5003 20.834H37.5003C38.0529 20.834 38.5828 21.0535 38.9735 21.4442C39.3642 21.8349 39.5837 22.3648 39.5837 22.9173Z" stroke="#306CFE" stroke-width="2" stroke-linecap="round" stroke-linejoin="round"/>
</svg>
