<svg width="50" height="50" viewBox="0 0 50 50" fill="none" xmlns="http://www.w3.org/2000/svg">
<path d="M31.25 25V41.6667C31.25 42.2192 31.0305 42.7491 30.6398 43.1398C30.2491 43.5305 29.7192 43.75 29.1667 43.75H20.8333C20.2808 43.75 19.7509 43.5305 19.3602 43.1398C18.9695 42.7491 18.75 42.2192 18.75 41.6667V25" stroke="#344054" stroke-width="2" stroke-linecap="round" stroke-linejoin="round"/>
<path d="M18.7496 25.0009L14.1454 28.0842C13.6995 28.3812 13.1562 28.4949 12.6286 28.4018C12.1009 28.3087 11.6295 28.0159 11.3121 27.5842L7.47875 22.48C7.15151 22.042 7.0096 21.4928 7.08366 20.951C7.15771 20.4093 7.44178 19.9184 7.87459 19.5842L23.7288 7.25086C24.093 6.97042 24.5399 6.81836 24.9996 6.81836C25.4593 6.81836 25.9061 6.97042 26.2704 7.25086L42.1246 19.5842C42.5574 19.9184 42.8415 20.4093 42.9155 20.951C42.9896 21.4928 42.8477 22.042 42.5204 22.48L38.6871 27.5842C38.3697 28.0159 37.8982 28.3087 37.3706 28.4018C36.8429 28.4949 36.2997 28.3812 35.8537 28.0842L31.2496 25.0009" stroke="#306CFE" stroke-width="2" stroke-linecap="round" stroke-linejoin="round"/>
</svg>
