<svg width="50" height="50" viewBox="0 0 50 50" fill="none" xmlns="http://www.w3.org/2000/svg">
<path d="M8.33301 24.9993C8.33158 21.3292 9.5416 17.7613 11.7753 14.8492C14.009 11.9371 17.1414 9.84374 20.6865 8.89395C24.2316 7.94417 27.991 8.19108 31.3814 9.59638C34.7718 11.0017 37.6036 13.4868 39.4372 16.666" stroke="#306CFE" stroke-width="2" stroke-linecap="round" stroke-linejoin="round"/>
<path d="M41.6667 25C41.6681 28.6701 40.4581 32.2381 38.2244 35.1501C35.9907 38.0622 32.8582 40.1556 29.3132 41.1054C25.7681 42.0552 22.0086 41.8083 18.6183 40.403C15.2279 38.9977 12.3961 36.5126 10.5625 33.3333" stroke="#306CFE" stroke-width="2" stroke-linecap="round" stroke-linejoin="round"/>
<path d="M29.167 16.6667H39.5837V6.25" stroke="#344054" stroke-width="2" stroke-linecap="round" stroke-linejoin="round"/>
<path d="M20.8337 33.334H10.417V43.7507" stroke="#344054" stroke-width="2" stroke-linecap="round" stroke-linejoin="round"/>
</svg>
