<svg width="50" height="50" viewBox="0 0 50 50" fill="none" xmlns="http://www.w3.org/2000/svg">
<path d="M25 25V43.75" stroke="#344054" stroke-width="2" stroke-linecap="round" stroke-linejoin="round"/>
<path d="M31.4785 29.125L24.8535 22.5L18.5202 28.8333" stroke="#344054" stroke-width="2" stroke-linecap="round" stroke-linejoin="round"/>
<path d="M12.4996 31.4789C10.6529 30.2519 9.13086 28.5959 8.06357 26.6526C6.99628 24.7093 6.41551 22.5363 6.37094 20.3196C6.32637 18.1029 6.81931 15.9084 7.80761 13.9238C8.79591 11.9391 10.2502 10.2233 12.046 8.92306C13.8419 7.62285 15.926 6.77692 18.12 6.4576C20.314 6.13827 22.5527 6.35506 24.6447 7.08942C26.7367 7.82379 28.6197 9.05387 30.1327 10.6745C31.6458 12.2951 32.7438 14.2581 33.3329 16.3955C33.9031 16.2875 34.4818 16.2317 35.0621 16.2289C37.1598 16.2345 39.1853 16.9954 40.7679 18.3722C42.3505 19.7491 43.3844 21.6497 43.6803 23.7265C43.9763 25.8032 43.5145 27.917 42.3795 29.6811C41.2445 31.4452 39.5122 32.7416 37.4996 33.333" stroke="#306CFE" stroke-width="2" stroke-linecap="round" stroke-linejoin="round"/>
</svg>
