<svg width="50" height="50" viewBox="0 0 50 50" fill="none" xmlns="http://www.w3.org/2000/svg">
<path d="M37.6038 42.709H37.3955" stroke="#344054" stroke-width="3" stroke-linecap="round" stroke-linejoin="round"/>
<path d="M37.5 27.084V33.334" stroke="#344054" stroke-width="2" stroke-linecap="round" stroke-linejoin="round"/>
<path d="M27.0837 43.7507H12.5003C11.9478 43.7507 11.4179 43.5312 11.0272 43.1405C10.6365 42.7498 10.417 42.2199 10.417 41.6674C10.4224 39.2964 11.0058 36.9625 12.1166 34.8679C13.2275 32.7732 14.8323 30.981 16.792 29.6465L16.9587 29.5424C17.1775 29.3782 17.3619 29.1726 17.5013 28.9371C17.6407 28.7017 17.7324 28.4412 17.7711 28.1703C17.8097 27.8995 17.7947 27.6237 17.7268 27.3587C17.6589 27.0936 17.5395 26.8446 17.3753 26.6257C15.5584 24.4046 14.5714 21.6203 14.5837 18.7507C14.5712 15.6079 15.7431 12.5757 17.8659 10.2581C19.9888 7.94055 22.9067 6.50769 26.0386 6.24495C29.1704 5.98221 32.2863 6.90888 34.7656 8.84036C37.2449 10.7718 38.9056 13.5664 39.417 16.6674C39.5379 17.355 39.5937 18.0526 39.5837 18.7507" stroke="#306CFE" stroke-width="2" stroke-linecap="round" stroke-linejoin="round"/>
</svg>
