<svg width="50" height="50" viewBox="0 0 50 50" fill="none" xmlns="http://www.w3.org/2000/svg">
<path d="M22.9163 27.084H27.083C30.9507 27.084 34.6601 28.6204 37.395 31.3553C40.1299 34.0902 41.6663 37.7996 41.6663 41.6673C41.6663 42.2199 41.4468 42.7498 41.0561 43.1405C40.6654 43.5312 40.1355 43.7507 39.583 43.7507H10.4163C9.86381 43.7507 9.3339 43.5312 8.9432 43.1405C8.5525 42.7498 8.33301 42.2199 8.33301 41.6673C8.33301 37.7996 9.86946 34.0902 12.6044 31.3553C15.3393 28.6204 19.0486 27.084 22.9163 27.084V27.084Z" stroke="#344054" stroke-width="2" stroke-linecap="round" stroke-linejoin="round"/>
<path d="M24.9997 27.0833C30.7526 27.0833 35.4163 22.4196 35.4163 16.6667C35.4163 10.9137 30.7526 6.25 24.9997 6.25C19.2467 6.25 14.583 10.9137 14.583 16.6667C14.583 22.4196 19.2467 27.0833 24.9997 27.0833Z" stroke="#306CFE" stroke-width="2" stroke-linecap="round" stroke-linejoin="round"/>
</svg>
