<svg width="50" height="50" viewBox="0 0 50 50" fill="none" xmlns="http://www.w3.org/2000/svg">
<path d="M18.7497 31.25H31.2497C34.0123 31.25 36.6619 32.3475 38.6154 34.301C40.5689 36.2545 41.6663 38.904 41.6663 41.6667C41.6663 42.2192 41.4468 42.7491 41.0561 43.1398C40.6654 43.5305 40.1355 43.75 39.583 43.75H10.4163C9.86381 43.75 9.3339 43.5305 8.9432 43.1398C8.5525 42.7491 8.33301 42.2192 8.33301 41.6667C8.33301 38.904 9.43047 36.2545 11.384 34.301C13.3375 32.3475 15.987 31.25 18.7497 31.25V31.25Z" stroke="#344054" stroke-width="2" stroke-linecap="round" stroke-linejoin="round"/>
<path d="M25.0003 22.9167C29.6027 22.9167 33.3337 19.1857 33.3337 14.5833C33.3337 9.98096 29.6027 6.25 25.0003 6.25C20.398 6.25 16.667 9.98096 16.667 14.5833C16.667 19.1857 20.398 22.9167 25.0003 22.9167Z" stroke="#306CFE" stroke-width="2" stroke-linecap="round" stroke-linejoin="round"/>
</svg>
