<svg width="50" height="50" viewBox="0 0 50 50" fill="none" xmlns="http://www.w3.org/2000/svg">
<path d="M16.6663 28.541C14.1808 29.72 12.0794 31.578 10.6048 33.9004C9.13025 36.2229 8.34267 38.915 8.33301 41.666C8.33301 42.2185 8.5525 42.7485 8.9432 43.1392C9.3339 43.5299 9.86381 43.7493 10.4163 43.7493H39.583C40.1355 43.7493 40.6654 43.5299 41.0561 43.1392C41.4468 42.7485 41.6663 42.2185 41.6663 41.666C41.6685 38.9044 40.8865 36.1989 39.4112 33.8643C37.936 31.5298 35.8282 29.6621 33.333 28.4785" stroke="#344054" stroke-width="2" stroke-linecap="round" stroke-linejoin="round"/>
<path d="M25 31.25C31.9036 31.25 37.5 25.6536 37.5 18.75C37.5 11.8464 31.9036 6.25 25 6.25C18.0964 6.25 12.5 11.8464 12.5 18.75C12.5 25.6536 18.0964 31.25 25 31.25Z" stroke="#306CFE" stroke-width="2" stroke-linecap="round" stroke-linejoin="round"/>
</svg>
