<svg width="50" height="50" viewBox="0 0 50 50" fill="none" xmlns="http://www.w3.org/2000/svg">
<path d="M25.0003 31.2507C29.6027 31.2507 33.3337 27.5197 33.3337 22.9173C33.3337 18.3149 29.6027 14.584 25.0003 14.584C20.398 14.584 16.667 18.3149 16.667 22.9173C16.667 27.5197 20.398 31.2507 25.0003 31.2507Z" stroke="#344054" stroke-width="2" stroke-linecap="round" stroke-linejoin="round"/>
<path d="M29.5208 29.8965C28.1783 30.7792 26.6067 31.2495 25 31.2495C23.3933 31.2495 21.8217 30.7792 20.4792 29.8965C18.4953 30.5409 16.6728 31.6033 15.1346 33.0122C13.5964 34.421 12.3783 36.1434 11.5625 38.0632C13.2942 39.8423 15.362 41.2598 17.6459 42.2335C19.9298 43.2071 22.3843 43.7175 24.8671 43.7349C27.3498 43.7523 29.8112 43.2765 32.1086 42.3351C34.406 41.3936 36.4935 40.0053 38.25 38.2507L38.4375 38.0632C37.6217 36.1434 36.4036 34.421 34.8654 33.0122C33.3272 31.6033 31.5047 30.5409 29.5208 29.8965V29.8965Z" stroke="#344054" stroke-width="2" stroke-linecap="round" stroke-linejoin="round"/>
<path d="M43.75 25C43.75 14.6447 35.3553 6.25 25 6.25C14.6447 6.25 6.25 14.6447 6.25 25C6.25 35.3553 14.6447 43.75 25 43.75C35.3553 43.75 43.75 35.3553 43.75 25Z" stroke="#306CFE" stroke-width="2" stroke-linecap="round" stroke-linejoin="round"/>
</svg>
