<svg width="50" height="50" viewBox="0 0 50 50" fill="none" xmlns="http://www.w3.org/2000/svg">
<path d="M32.0622 21.5208C33.08 22.4417 33.9016 23.5584 34.4779 24.8041C35.0543 26.0498 35.3734 27.399 35.4164 28.7708C35.4938 33.2978 34.9398 37.8135 33.7706 42.1875C33.6525 42.6459 33.3818 43.0504 33.0031 43.3344C32.6245 43.6184 32.1604 43.765 31.6872 43.75H18.2706C17.7975 43.765 17.3334 43.6184 16.9547 43.3344C16.576 43.0504 16.3053 42.6459 16.1872 42.1875C15.0321 37.8115 14.4921 33.2959 14.5831 28.7708C14.6234 27.4005 14.9393 26.0523 15.512 24.8066C16.0847 23.561 16.9024 22.4435 17.9164 21.5208C18.8049 20.7615 19.5237 19.8238 20.0262 18.7686C20.5287 17.7133 20.8036 16.5642 20.8331 15.3958V6.25H29.1664V15.3958C29.1933 16.5626 29.4649 17.7108 29.9638 18.7659C30.4626 19.821 31.1776 20.7596 32.0622 21.5208Z" stroke="#306CFE" stroke-width="2" stroke-linecap="round" stroke-linejoin="round"/>
<path d="M31.25 6.25H18.75" stroke="#344054" stroke-width="2" stroke-linecap="round" stroke-linejoin="round"/>
</svg>
