<svg width="50" height="50" viewBox="0 0 50 50" fill="none" xmlns="http://www.w3.org/2000/svg">
<path d="M21.042 39.584H28.9587" stroke="#344054" stroke-width="2" stroke-linecap="round" stroke-linejoin="round"/>
<path d="M32.75 8.33398H17.25" stroke="#344054" stroke-width="2" stroke-linecap="round" stroke-linejoin="round"/>
<path d="M43.75 20.8338V41.6671C43.75 42.2196 43.5305 42.7495 43.1398 43.1402C42.7491 43.5309 42.2192 43.7504 41.6667 43.7504H29.1667V27.0838L33 7.91709C33.0974 7.43943 33.3592 7.01105 33.7399 6.70652C34.1205 6.40199 34.5959 6.24059 35.0833 6.25042H37.5C38.0525 6.25042 38.5824 6.46992 38.9731 6.86062C39.3638 7.25132 39.5833 7.78122 39.5833 8.33376V16.6671C39.5833 17.7722 40.0223 18.832 40.8037 19.6134C41.5851 20.3948 42.6449 20.8338 43.75 20.8338ZM10.4167 16.6671V8.33376C10.4167 7.78122 10.6362 7.25132 11.0269 6.86062C11.4176 6.46992 11.9475 6.25042 12.5 6.25042H14.9583C15.4457 6.24059 15.9211 6.40199 16.3018 6.70652C16.6824 7.01105 16.9443 7.43943 17.0417 7.91709L20.8333 27.0838V43.7504H8.33333C7.7808 43.7504 7.25089 43.5309 6.86019 43.1402C6.46949 42.7495 6.25 42.2196 6.25 41.6671V20.8338C7.35507 20.8338 8.41488 20.3948 9.19628 19.6134C9.97768 18.832 10.4167 17.7722 10.4167 16.6671Z" stroke="#306CFE" stroke-width="2" stroke-linecap="round" stroke-linejoin="round"/>
</svg>
