<svg width="50" height="50" viewBox="0 0 50 50" fill="none" xmlns="http://www.w3.org/2000/svg">
<path d="M6.25 16.666V33.3327M43.75 16.666V33.3327V16.666Z" stroke="#344054" stroke-width="2" stroke-linecap="round" stroke-linejoin="round"/>
<path d="M33.333 41.6673H16.6663C16.1138 41.6673 15.5839 41.4478 15.1932 41.0571C14.8025 40.6664 14.583 40.1365 14.583 39.584V10.4173C14.583 9.86478 14.8025 9.33488 15.1932 8.94418C15.5839 8.55348 16.1138 8.33398 16.6663 8.33398H33.333C33.8855 8.33398 34.4154 8.55348 34.8062 8.94418C35.1969 9.33488 35.4163 9.86478 35.4163 10.4173V39.584C35.4163 40.1365 35.1969 40.6664 34.8062 41.0571C34.4154 41.4478 33.8855 41.6673 33.333 41.6673ZM29.1663 8.33398H20.833L21.8747 12.5007H28.1247L29.1663 8.33398Z" stroke="#306CFE" stroke-width="2" stroke-linecap="round" stroke-linejoin="round"/>
</svg>
