<svg width="50" height="50" viewBox="0 0 50 50" fill="none" xmlns="http://www.w3.org/2000/svg">
<path d="M35.4167 30.4592L40.7292 33.105C41.0463 33.2648 41.399 33.3409 41.7539 33.3261C42.1087 33.3112 42.4538 33.2059 42.7565 33.0201C43.0592 32.8343 43.3093 32.5743 43.4832 32.2646C43.6571 31.955 43.7489 31.606 43.75 31.2509V18.7509C43.7489 18.3957 43.6571 18.0468 43.4832 17.7371C43.3093 17.4275 43.0592 17.1674 42.7565 16.9816C42.4538 16.7958 42.1087 16.6905 41.7539 16.6757C41.399 16.6608 41.0463 16.7369 40.7292 16.8967L35.4167 19.5425V30.4592ZM22.9167 25.0009L18.75 21.8759V28.1259L22.9167 25.0009Z" stroke="#344054" stroke-width="2" stroke-linecap="round" stroke-linejoin="round"/>
<path d="M33.3333 12.5H8.33333C7.18274 12.5 6.25 13.4327 6.25 14.5833V35.4167C6.25 36.5673 7.18274 37.5 8.33333 37.5H33.3333C34.4839 37.5 35.4167 36.5673 35.4167 35.4167V14.5833C35.4167 13.4327 34.4839 12.5 33.3333 12.5Z" stroke="#306CFE" stroke-width="2" stroke-linecap="round" stroke-linejoin="round"/>
</svg>
