<svg width="50" height="50" viewBox="0 0 50 50" fill="none" xmlns="http://www.w3.org/2000/svg">
<path d="M6.25 25.0007H8.33333C9.4384 25.0007 10.4982 25.4396 11.2796 26.221C12.061 27.0024 12.5 28.0622 12.5 29.1673V31.2507C12.5 32.3557 12.939 33.4155 13.7204 34.1969C14.5018 34.9783 15.5616 35.4173 16.6667 35.4173C17.7717 35.4173 18.8315 34.9783 19.6129 34.1969C20.3943 33.4155 20.8333 32.3557 20.8333 31.2507V18.7507C20.8333 17.6456 21.2723 16.5858 22.0537 15.8044C22.8351 15.023 23.8949 14.584 25 14.584C26.1051 14.584 27.1649 15.023 27.9463 15.8044C28.7277 16.5858 29.1667 17.6456 29.1667 18.7507V31.2507C29.1667 32.3557 29.6057 33.4155 30.3871 34.1969C31.1685 34.9783 32.2283 35.4173 33.3333 35.4173C34.4384 35.4173 35.4982 34.9783 36.2796 34.1969C37.061 33.4155 37.5 32.3557 37.5 31.2507V29.1673C37.5 28.0622 37.939 27.0024 38.7204 26.221C39.5018 25.4396 40.5616 25.0007 41.6667 25.0007H43.75" stroke="#306CFE" stroke-width="2" stroke-linecap="round" stroke-linejoin="round"/>
</svg>
