<svg width="50" height="50" viewBox="0 0 50 50" fill="none" xmlns="http://www.w3.org/2000/svg">
<path d="M41.6667 33.334V41.6673C41.6667 42.2199 41.4472 42.7498 41.0565 43.1405C40.6658 43.5312 40.1359 43.7507 39.5833 43.7507H10.4167C9.3116 43.7507 8.25179 43.3117 7.47039 42.5303C6.68899 41.7489 6.25 40.6891 6.25 39.584V11.209" stroke="#306CFE" stroke-width="2" stroke-linecap="round" stroke-linejoin="round"/>
<path d="M41.6668 24.9994V16.666C41.6668 16.1135 41.4474 15.5836 41.0567 15.1929C40.666 14.8022 40.136 14.5827 39.5835 14.5827H10.4168C9.80462 14.5916 9.19795 14.4655 8.64001 14.2133C8.08206 13.9612 7.58655 13.5891 7.18873 13.1237C6.79091 12.6582 6.50057 12.1108 6.33835 11.5204C6.17613 10.93 6.14603 10.3111 6.25018 9.70771C6.45241 8.70292 7.00589 7.803 7.81142 7.16927C8.61695 6.53554 9.62186 6.20942 10.646 6.24937H33.3335C33.886 6.24937 34.416 6.46887 34.8067 6.85957C35.1974 7.25027 35.4168 7.78017 35.4168 8.33271V14.5827" stroke="#306CFE" stroke-width="2" stroke-linecap="round" stroke-linejoin="round"/>
<path d="M41.6663 25H35.4163C34.2657 25 33.333 25.9327 33.333 27.0833V31.25C33.333 32.4006 34.2657 33.3333 35.4163 33.3333H41.6663C42.8169 33.3333 43.7497 32.4006 43.7497 31.25V27.0833C43.7497 25.9327 42.8169 25 41.6663 25Z" stroke="#344054" stroke-width="2" stroke-linecap="round" stroke-linejoin="round"/>
</svg>
