<svg width="50" height="50" viewBox="0 0 50 50" fill="none" xmlns="http://www.w3.org/2000/svg">
<path d="M12.5 14.5833L29.4375 7.06251C29.9257 6.84411 30.4791 6.82179 30.9833 7.00019C31.4874 7.17858 31.9037 7.54402 32.1458 8.02085L35.4167 14.5833" stroke="#344054" stroke-width="2" stroke-linecap="round" stroke-linejoin="round"/>
<path d="M41.6667 33.334V41.6673C41.6667 42.2199 41.4472 42.7498 41.0565 43.1405C40.6658 43.5312 40.1359 43.7506 39.5833 43.7506H8.33333C7.7808 43.7506 7.25089 43.5312 6.86019 43.1405C6.46949 42.7498 6.25 42.2199 6.25 41.6673V16.6673C6.25 16.1148 6.46949 15.5849 6.86019 15.1942C7.25089 14.8035 7.7808 14.584 8.33333 14.584H39.5833C40.1359 14.584 40.6658 14.8035 41.0565 15.1942C41.4472 15.5849 41.6667 16.1148 41.6667 16.6673V25.0007" stroke="#306CFE" stroke-width="2" stroke-linecap="round" stroke-linejoin="round"/>
<path d="M41.6663 25H35.4163C34.2657 25 33.333 25.9327 33.333 27.0833V31.25C33.333 32.4006 34.2657 33.3333 35.4163 33.3333H41.6663C42.8169 33.3333 43.7497 32.4006 43.7497 31.25V27.0833C43.7497 25.9327 42.8169 25 41.6663 25Z" stroke="#344054" stroke-width="2" stroke-linecap="round" stroke-linejoin="round"/>
</svg>
