<svg width="50" height="50" viewBox="0 0 50 50" fill="none" xmlns="http://www.w3.org/2000/svg">
<path d="M35.8542 18.75L39.5833 13.4167L29.3542 6.25L20.5833 18.75H35.8542ZM18.9375 8.33333L11.625 18.75H20.5833L25 12.5L18.9375 8.33333Z" stroke="#344054" stroke-width="2" stroke-linecap="round" stroke-linejoin="round"/>
<path d="M41.6667 18.75H8.33333C7.18274 18.75 6.25 19.6827 6.25 20.8333V41.6667C6.25 42.8173 7.18274 43.75 8.33333 43.75H41.6667C42.8173 43.75 43.75 42.8173 43.75 41.6667V20.8333C43.75 19.6827 42.8173 18.75 41.6667 18.75Z" stroke="#306CFE" stroke-width="2" stroke-linecap="round" stroke-linejoin="round"/>
<path d="M33.3333 27.084H43.75V35.4173H33.3333C32.7808 35.4173 32.2509 35.1978 31.8602 34.8071C31.4695 34.4164 31.25 33.8865 31.25 33.334V29.1673C31.25 28.6148 31.4695 28.0849 31.8602 27.6942C32.2509 27.3035 32.7808 27.084 33.3333 27.084V27.084Z" stroke="#344054" stroke-width="2" stroke-linecap="round" stroke-linejoin="round"/>
</svg>
