<svg width="50" height="50" viewBox="0 0 50 50" fill="none" xmlns="http://www.w3.org/2000/svg">
<path d="M39.5833 8.33398H10.4167C9.3116 8.33398 8.25179 8.77297 7.47039 9.55437C6.68899 10.3358 6.25 11.3956 6.25 12.5007V12.5007C6.25 13.6057 6.68899 14.6655 7.47039 15.4469C8.25179 16.2283 9.3116 16.6673 10.4167 16.6673H43.75" stroke="#306CFE" stroke-width="2" stroke-linecap="round" stroke-linejoin="round"/>
<path d="M43.75 16.6667V39.5833C43.75 40.1359 43.5305 40.6658 43.1398 41.0565C42.7491 41.4472 42.2192 41.6667 41.6667 41.6667H8.33333C7.7808 41.6667 7.25089 41.4472 6.86019 41.0565C6.46949 40.6658 6.25 40.1359 6.25 39.5833V12.5C6.25 13.6051 6.68899 14.6649 7.47039 15.4463C8.25179 16.2277 9.3116 16.6667 10.4167 16.6667H43.75Z" stroke="#306CFE" stroke-width="2" stroke-linecap="round" stroke-linejoin="round"/>
<path d="M33.3333 25H43.75V33.3333H33.3333C32.7808 33.3333 32.2509 33.1138 31.8602 32.7231C31.4695 32.3324 31.25 31.8025 31.25 31.25V27.0833C31.25 26.5308 31.4695 26.0009 31.8602 25.6102C32.2509 25.2195 32.7808 25 33.3333 25V25Z" stroke="#344054" stroke-width="2" stroke-linecap="round" stroke-linejoin="round"/>
</svg>
