<svg width="50" height="50" viewBox="0 0 50 50" fill="none" xmlns="http://www.w3.org/2000/svg">
<path d="M25 14.584V27.084" stroke="#344054" stroke-width="2" stroke-linecap="round" stroke-linejoin="round"/>
<path d="M25.1038 35.416H24.8955" stroke="#344054" stroke-width="3" stroke-linecap="round" stroke-linejoin="round"/>
<path d="M36.4171 7.29167L46.0421 23.9583C46.225 24.275 46.3212 24.6343 46.3212 25C46.3212 25.3657 46.225 25.725 46.0421 26.0417L36.4171 42.7083C36.2354 43.0232 35.9743 43.285 35.66 43.4678C35.3457 43.6505 34.989 43.7478 34.6255 43.75H15.3755C15.0119 43.7478 14.6552 43.6505 14.3409 43.4678C14.0266 43.285 13.7656 43.0232 13.5838 42.7083L3.9588 26.0417C3.77595 25.725 3.67969 25.3657 3.67969 25C3.67969 24.6343 3.77595 24.275 3.9588 23.9583L13.5838 7.29167C13.7656 6.9768 14.0266 6.71498 14.3409 6.53224C14.6552 6.3495 15.0119 6.25219 15.3755 6.25H34.6255C34.989 6.25219 35.3457 6.3495 35.66 6.53224C35.9743 6.71498 36.2354 6.9768 36.4171 7.29167V7.29167Z" stroke="#306CFE" stroke-width="2" stroke-linecap="round" stroke-linejoin="round"/>
</svg>
