<svg width="50" height="50" viewBox="0 0 50 50" fill="none" xmlns="http://www.w3.org/2000/svg">
<path d="M25 18.75V27.0833" stroke="#344054" stroke-width="2" stroke-linecap="round" stroke-linejoin="round"/>
<path d="M25.1038 35.416H24.8955" stroke="#344054" stroke-width="3" stroke-linecap="round" stroke-linejoin="round"/>
<path d="M21.3542 8.72957L5.47922 37.5004C5.11189 38.1366 4.91928 38.8585 4.92091 39.5931C4.92254 40.3277 5.11834 41.0488 5.48849 41.6834C5.85863 42.3179 6.38995 42.8433 7.02859 43.2063C7.66723 43.5693 8.39049 43.757 9.12506 43.7504H40.8751C41.6096 43.757 42.3329 43.5693 42.9715 43.2063C43.6102 42.8433 44.1415 42.3179 44.5116 41.6834C44.8818 41.0488 45.0776 40.3277 45.0792 39.5931C45.0808 38.8585 44.8882 38.1366 44.5209 37.5004L28.6459 8.72957C28.2856 8.07831 27.7574 7.53546 27.1162 7.15745C26.4751 6.77945 25.7443 6.58008 25.0001 6.58008C24.2558 6.58008 23.5251 6.77945 22.8839 7.15745C22.2427 7.53546 21.7146 8.07831 21.3542 8.72957Z" stroke="#306CFE" stroke-width="2" stroke-linecap="round" stroke-linejoin="round"/>
</svg>
