<svg width="50" height="50" viewBox="0 0 50 50" fill="none" xmlns="http://www.w3.org/2000/svg">
<path d="M22.917 10.416V18.416M16.667 10.416H29.167H16.667Z" stroke="#344054" stroke-width="2" stroke-linecap="round" stroke-linejoin="round"/>
<path d="M6.25 18.7501V35.4167M35.4167 22.9167H30.4583C30.0701 22.9194 29.6888 22.8136 29.3575 22.6111C29.0262 22.4086 28.758 22.1176 28.5833 21.7709L27.6667 19.8959C27.492 19.5491 27.2238 19.2581 26.8925 19.0557C26.5612 18.8532 26.1799 18.7473 25.7917 18.7501H20.0417C19.6534 18.7473 19.2721 18.8532 18.9408 19.0557C18.6095 19.2581 18.3414 19.5491 18.1667 19.8959L17.25 21.7709C17.0753 22.1176 16.8072 22.4086 16.4759 22.6111C16.1445 22.8136 15.7633 22.9194 15.375 22.9167H6.25V31.2501H33.3333C33.8859 31.2501 34.4158 31.4695 34.8065 31.8602C35.1972 32.2509 35.4167 32.7809 35.4167 33.3334V37.5001C35.4167 38.0526 35.6362 38.5825 36.0269 38.9732C36.4176 39.3639 36.9475 39.5834 37.5 39.5834H41.6667C42.2192 39.5834 42.7491 39.3639 43.1398 38.9732C43.5305 38.5825 43.75 38.0526 43.75 37.5001V31.2501C43.75 29.0399 42.872 26.9203 41.3092 25.3575C39.7464 23.7947 37.6268 22.9167 35.4167 22.9167V22.9167Z" stroke="#306CFE" stroke-width="2" stroke-linecap="round" stroke-linejoin="round"/>
</svg>
