<svg width="50" height="50" viewBox="0 0 50 50" fill="none" xmlns="http://www.w3.org/2000/svg">
<path d="M25 10.416H35.4167C36.5217 10.416 37.5815 10.855 38.3629 11.6364C39.1443 12.4178 39.5833 13.4776 39.5833 14.5827V24.9993C39.5833 26.1044 39.1443 27.1642 38.3629 27.9456C37.5815 28.727 36.5217 29.166 35.4167 29.166H31.25" stroke="#344054" stroke-width="2" stroke-linecap="round" stroke-linejoin="round"/>
<path d="M25.0003 8.33333C25.0003 7.7808 24.7808 7.25089 24.3901 6.86019C23.9994 6.46949 23.4695 6.25 22.917 6.25H18.7503C18.1978 6.25 17.6679 6.46949 17.2772 6.86019C16.8865 7.25089 16.667 7.7808 16.667 8.33333V14.5833H25.0003V8.33333ZM27.0837 14.5833H14.5837C13.4786 14.5833 12.4188 15.0223 11.6374 15.8037C10.856 16.5851 10.417 17.6449 10.417 18.75V41.6667C10.417 42.2192 10.6365 42.7491 11.0272 43.1398C11.4179 43.5305 11.9478 43.75 12.5003 43.75H29.167C29.7195 43.75 30.2494 43.5305 30.6401 43.1398C31.0308 42.7491 31.2503 42.2192 31.2503 41.6667V18.75C31.2503 17.6449 30.8113 16.5851 30.0299 15.8037C29.2485 15.0223 28.1887 14.5833 27.0837 14.5833V14.5833Z" stroke="#306CFE" stroke-width="2" stroke-linecap="round" stroke-linejoin="round"/>
</svg>
