<svg width="50" height="50" viewBox="0 0 50 50" fill="none" xmlns="http://www.w3.org/2000/svg">
<path d="M32.333 24.5007L39.9372 20.334L43.7497 24.1465L33.2497 34.6465" stroke="#344054" stroke-width="2" stroke-linecap="round" stroke-linejoin="round"/>
<path d="M13.2294 26.9586C11.7649 26.7178 10.3913 26.0903 9.25058 25.1409C8.10982 24.1915 7.24331 22.9547 6.74062 21.5582C6.23793 20.1618 6.11729 18.6565 6.39118 17.1978C6.66507 15.7392 7.32354 14.3801 8.29854 13.2612C9.27354 12.1422 10.5297 11.3039 11.9371 10.833C13.3446 10.3621 14.8523 10.2756 16.3044 10.5824C17.7564 10.8893 19.1002 11.5784 20.1968 12.5785C21.2934 13.5785 22.103 14.8534 22.5419 16.2711" stroke="#344054" stroke-width="2" stroke-linecap="round" stroke-linejoin="round"/>
<path d="M14.7705 39.5827H31.0622C31.3523 39.5839 31.6394 39.5244 31.9052 39.4082C32.171 39.292 32.4097 39.1216 32.6058 38.9078C32.8019 38.694 32.9512 38.4416 33.0442 38.1668C33.1371 37.892 33.1716 37.6008 33.1455 37.3119L31.4372 18.5619C31.3902 18.0424 31.1502 17.5595 30.7645 17.2085C30.3787 16.8575 29.8754 16.6639 29.3538 16.666H16.4788C15.9573 16.6639 15.4539 16.8575 15.0682 17.2085C14.6825 17.5595 14.4424 18.0424 14.3955 18.5619L12.6872 37.3119C12.6611 37.6008 12.6956 37.892 12.7885 38.1668C12.8815 38.4416 13.0308 38.694 13.2269 38.9078C13.423 39.1216 13.6616 39.292 13.9274 39.4082C14.1932 39.5244 14.4804 39.5839 14.7705 39.5827V39.5827Z" stroke="#306CFE" stroke-width="2" stroke-linecap="round" stroke-linejoin="round"/>
</svg>
