<svg width="50" height="50" viewBox="0 0 50 50" fill="none" xmlns="http://www.w3.org/2000/svg">
<path d="M20.833 37.5007C20.833 38.6057 21.272 39.6655 22.0534 40.4469C22.8348 41.2283 23.8946 41.6673 24.9997 41.6673C26.1047 41.6673 27.1646 41.2283 27.946 40.4469C28.7274 39.6655 29.1663 38.6057 29.1663 37.5007C29.1663 36.3956 28.7274 35.3358 27.946 34.5544C27.1646 33.773 26.1047 33.334 24.9997 33.334C23.8946 33.334 22.8348 33.773 22.0534 34.5544C21.272 35.3358 20.833 36.3956 20.833 37.5007Z" stroke="#344054" stroke-width="2" stroke-linecap="round" stroke-linejoin="round"/>
<path d="M6.25 15.2082C11.5032 10.7995 18.1419 8.38281 25 8.38281C31.8581 8.38281 38.4968 10.7995 43.75 15.2082" stroke="#306CFE" stroke-width="2" stroke-linecap="round" stroke-linejoin="round"/>
<path d="M38.4375 21.5828C34.6787 18.4102 29.9187 16.6699 25 16.6699C20.0813 16.6699 15.3213 18.4102 11.5625 21.5828" stroke="#306CFE" stroke-width="2" stroke-linecap="round" stroke-linejoin="round"/>
<path d="M33.0625 27.938C30.8072 26.0344 27.9512 24.9902 25 24.9902C22.0488 24.9902 19.1928 26.0344 16.9375 27.938" stroke="#306CFE" stroke-width="2" stroke-linecap="round" stroke-linejoin="round"/>
</svg>
