<svg width="50" height="50" viewBox="0 0 50 50" fill="none" xmlns="http://www.w3.org/2000/svg">
<path d="M33.3333 8.33333C33.3333 7.7808 33.1138 7.25089 32.7231 6.86019C32.3324 6.46949 31.8025 6.25 31.25 6.25H18.75C18.1975 6.25 17.6676 6.46949 17.2769 6.86019C16.8862 7.25089 16.6667 7.7808 16.6667 8.33333V14.5833H33.3333V8.33333ZM43.75 41.6667V16.6667C43.75 16.1141 43.5305 15.5842 43.1398 15.1935C42.7491 14.8028 42.2192 14.5833 41.6667 14.5833H8.33333C7.7808 14.5833 7.25089 14.8028 6.86019 15.1935C6.46949 15.5842 6.25 16.1141 6.25 16.6667V41.6667C6.25 42.2192 6.46949 42.7491 6.86019 43.1398C7.25089 43.5305 7.7808 43.75 8.33333 43.75H41.6667C42.2192 43.75 42.7491 43.5305 43.1398 43.1398C43.5305 42.7491 43.75 42.2192 43.75 41.6667Z" stroke="#306CFE" stroke-width="2" stroke-linecap="round" stroke-linejoin="round"/>
<path d="M22.9167 29.1673H18C16.3831 29.1533 14.8053 28.6691 13.4588 27.7739C12.1123 26.8787 11.0553 25.6111 10.4167 24.1257L6.625 15.4798C6.81645 15.2038 7.07178 14.9783 7.36924 14.8223C7.6667 14.6663 7.99746 14.5845 8.33333 14.584H41.6667C42.0025 14.5845 42.3333 14.6663 42.6308 14.8223C42.9282 14.9783 43.1836 15.2038 43.375 15.4798L39.5833 24.1257C38.9447 25.6111 37.8877 26.8787 36.5412 27.7739C35.1947 28.6691 33.6169 29.1533 32 29.1673H27.0833" stroke="#344054" stroke-width="2" stroke-linecap="round" stroke-linejoin="round"/>
<path d="M27.0837 27.084H22.917V31.2507H27.0837V27.084Z" stroke="#306CFE" stroke-width="2" stroke-linecap="round" stroke-linejoin="round"/>
</svg>
