<svg width="50" height="50" viewBox="0 0 50 50" fill="none" xmlns="http://www.w3.org/2000/svg">
<path d="M6.25 33.3333H10.4167M8.33333 41.6667V8.33333C8.33333 7.7808 8.55283 7.25089 8.94353 6.86019C9.33423 6.46949 9.86413 6.25 10.4167 6.25H41.6667C42.2192 6.25 42.7491 6.46949 43.1398 6.86019C43.5305 7.25089 43.75 7.7808 43.75 8.33333V41.6667C43.75 42.2192 43.5305 42.7491 43.1398 43.1398C42.7491 43.5305 42.2192 43.75 41.6667 43.75H10.4167C9.86413 43.75 9.33423 43.5305 8.94353 43.1398C8.55283 42.7491 8.33333 42.2192 8.33333 41.6667ZM6.25 16.6667H10.4167H6.25ZM6.25 25H10.4167H6.25Z" stroke="#306CFE" stroke-width="2" stroke-linecap="round" stroke-linejoin="round"/>
<path d="M41.6667 43.75H35.4167L35.4167 6.25H41.6667C42.2192 6.25 42.7491 6.46949 43.1398 6.86019C43.5305 7.25089 43.75 7.7808 43.75 8.33333L43.75 41.6667C43.75 42.2192 43.5305 42.7491 43.1398 43.1398C42.7491 43.5305 42.2192 43.75 41.6667 43.75Z" stroke="#344054" stroke-width="2" stroke-linecap="round" stroke-linejoin="round"/>
</svg>
