<svg width="50" height="50" viewBox="0 0 50 50" fill="none" xmlns="http://www.w3.org/2000/svg">
<path d="M35.417 6.25V37.5C35.417 39.1576 34.7585 40.7473 33.5864 41.9194C32.4143 43.0915 30.8246 43.75 29.167 43.75V43.75C27.5094 43.75 25.9197 43.0915 24.7476 41.9194C23.5755 40.7473 22.917 39.1576 22.917 37.5V18.75C22.917 17.0924 22.2585 15.5027 21.0864 14.3306C19.9143 13.1585 18.3246 12.5 16.667 12.5C15.0094 12.5 13.4197 13.1585 12.2476 14.3306C11.0755 15.5027 10.417 17.0924 10.417 18.75V43.75" stroke="#306CFE" stroke-width="2" stroke-linecap="round" stroke-linejoin="round"/>
<path d="M39.5833 10.4167L35.4167 6.25L31.25 10.4167" stroke="#344054" stroke-width="2" stroke-linecap="round" stroke-linejoin="round"/>
</svg>
