<svg width="50" height="50" viewBox="0 0 50 50" fill="none" xmlns="http://www.w3.org/2000/svg">
<path d="M39.583 43.75V18.75C39.583 17.0924 38.9245 15.5027 37.7524 14.3306C36.5803 13.1585 34.9906 12.5 33.333 12.5C31.6754 12.5 30.0857 13.1585 28.9136 14.3306C27.7415 15.5027 27.083 17.0924 27.083 18.75V37.5C27.083 39.1576 26.4245 40.7473 25.2524 41.9194C24.0803 43.0915 22.4906 43.75 20.833 43.75C19.1754 43.75 17.5857 43.0915 16.4136 41.9194C15.2415 40.7473 14.583 39.1576 14.583 37.5V6.25" stroke="#306CFE" stroke-width="2" stroke-linecap="round" stroke-linejoin="round"/>
<path d="M18.7503 10.4167L14.5837 6.25L10.417 10.4167" stroke="#344054" stroke-width="2" stroke-linecap="round" stroke-linejoin="round"/>
</svg>
