<svg width="50" height="50" viewBox="0 0 50 50" fill="none" xmlns="http://www.w3.org/2000/svg">
<path d="M43.75 37.5H18.75C17.0924 37.5 15.5027 36.8415 14.3306 35.6694C13.1585 34.4973 12.5 32.9076 12.5 31.25V31.25C12.5 29.5924 13.1585 28.0027 14.3306 26.8306C15.5027 25.6585 17.0924 25 18.75 25H31.25C32.9076 25 34.4973 24.3415 35.6694 23.1694C36.8415 21.9973 37.5 20.4076 37.5 18.75C37.5 17.0924 36.8415 15.5027 35.6694 14.3306C34.4973 13.1585 32.9076 12.5 31.25 12.5H6.25" stroke="#306CFE" stroke-width="2" stroke-linecap="round" stroke-linejoin="round"/>
<path d="M39.583 41.6673L43.7497 37.5007L39.583 33.334" stroke="#344054" stroke-width="2" stroke-linecap="round" stroke-linejoin="round"/>
<path d="M10.4167 8.33398L6.25 12.5007L10.4167 16.6673" stroke="#344054" stroke-width="2" stroke-linecap="round" stroke-linejoin="round"/>
</svg>
