<svg width="24" height="24" viewBox="0 0 24 24" fill="none" xmlns="http://www.w3.org/2000/svg">
<g clip-path="url(#clip0_1_14857)">
<path d="M17.2173 1.19072C15.6396 0.427875 13.8697 0 11.9999 0C10.13 0 8.36012 0.427875 6.7825 1.19072L5.73901 12L6.7825 22.8093C8.36012 23.5721 10.13 24 11.9999 24C13.8697 24 15.6396 23.5721 17.2173 22.8093L18.2607 12L17.2173 1.19072Z" fill="#D80027"/>
<path d="M6.78262 1.19128C2.76872 3.13224 0 7.24266 0 12.0001C0 16.7576 2.76872 20.868 6.78262 22.809V1.19128Z" fill="black"/>
<path d="M17.2175 1.19128V22.809C21.2314 20.868 24.0002 16.7576 24.0002 12.0001C24.0002 7.24266 21.2314 3.13224 17.2175 1.19128Z" fill="#496E2D"/>
<path d="M11.9996 7.82678C9.69436 7.82678 7.82568 9.6955 7.82568 12.0007C7.82568 14.3058 9.6944 16.1746 11.9996 16.1746C14.3047 16.1746 16.1735 14.3058 16.1735 12.0007C16.1735 9.6955 14.3048 7.82678 11.9996 7.82678ZM11.9996 14.6094C10.5588 14.6094 9.39089 13.4414 9.39089 12.0007C9.39089 10.56 10.5589 9.39199 11.9996 9.39199C13.4403 9.39199 14.6083 10.56 14.6083 12.0007C14.6083 13.4414 13.4403 14.6094 11.9996 14.6094Z" fill="#FFDA44"/>
<path d="M12 10.4363C11.4237 10.4363 10.9565 10.9034 10.9565 11.4798V13.045H13.0435V11.4798C13.0435 10.9034 12.5764 10.4363 12 10.4363Z" fill="#FFDA44"/>
</g>
<defs>
<clipPath id="clip0_1_14857">
<rect width="24" height="24" fill="white"/>
</clipPath>
</defs>
</svg>
