<svg width="24" height="24" viewBox="0 0 24 24" fill="none" xmlns="http://www.w3.org/2000/svg">
<g clip-path="url(#clip0_1_14881)">
<path d="M24 12C24 18.6274 18.6274 24 12 24C5.37262 24 0 18.6274 0 12C0 12.0028 12 0.00135937 12 0C18.6274 0 24 5.37262 24 12Z" fill="#0052B4"/>
<path d="M11.9678 12.0004H11.9999C11.9999 11.9895 11.9999 11.9791 11.9999 11.9683C11.9892 11.979 11.9785 11.9897 11.9678 12.0004Z" fill="#F0F0F0"/>
<path d="M11.9997 6.26165C11.9997 4.15017 11.9997 2.76656 11.9997 0.000793457H11.9977C5.37125 0.00187158 -0.000244141 5.37398 -0.000244141 12.0007H6.26061V8.47518L9.78617 12.0007H11.9677C11.9784 11.9901 11.9891 11.9794 11.9998 11.9686C11.9998 11.1602 11.9998 10.4388 11.9998 9.78726L8.47419 6.26165H11.9997Z" fill="#F0F0F0"/>
<path d="M6.07124 1.56573C4.19441 2.63444 2.63413 4.19472 1.56543 6.07155V12.0005H4.69588V4.69624V4.69619H12.0002C12.0002 3.70886 12.0002 2.76827 12.0002 1.56573H6.07124Z" fill="#D80027"/>
<path d="M12.0006 10.5249L7.73714 6.26156H6.26147C6.26147 6.26151 6.26147 6.26156 6.26147 6.26156L12.0005 12.0006H12.0006C12.0006 12.0006 12.0006 10.9832 12.0006 10.5249Z" fill="#D80027"/>
<path d="M7.23753 14.0864L7.89613 15.4635L9.38333 15.1198L8.71733 16.4933L9.9133 17.4417L8.42422 17.7774L8.42839 19.3038L7.23753 18.3488L6.04672 19.3038L6.05089 17.7774L4.56177 17.4417L5.75778 16.4933L5.09169 15.1198L6.57899 15.4635L7.23753 14.0864Z" fill="#F0F0F0"/>
<path d="M17.967 16.6953L18.2963 17.3839L19.0399 17.212L18.7069 17.8987L19.3049 18.373L18.5603 18.5408L18.5624 19.304L17.967 18.8265L17.3716 19.304L17.3737 18.5408L16.6292 18.373L17.2271 17.8987L16.8941 17.212L17.6377 17.3839L17.967 16.6953Z" fill="#F0F0F0"/>
<path d="M14.9033 9.39136L15.2326 10.08L15.9762 9.90801L15.6432 10.5948L16.2412 11.069L15.4967 11.2368L15.4987 12L14.9033 11.5225L14.3079 12L14.3099 11.2368L13.5654 11.069L14.1634 10.5948L13.8304 9.90801L14.574 10.08L14.9033 9.39136Z" fill="#F0F0F0"/>
<path d="M17.967 5.21759L18.2963 5.90618L19.0399 5.73429L18.7069 6.42106L19.3049 6.89525L18.5603 7.06311L18.5624 7.82633L17.967 7.34881L17.3716 7.82633L17.3737 7.06311L16.6292 6.89525L17.2271 6.42106L16.8941 5.73429L17.6377 5.90618L17.967 5.21759Z" fill="#F0F0F0"/>
<path d="M20.6421 8.34772L20.9714 9.03631L21.715 8.86437L21.382 9.55114L21.98 10.0254L21.2354 10.1932L21.2375 10.9564L20.6421 10.4789L20.0467 10.9564L20.0487 10.1932L19.3042 10.0254L19.9022 9.55114L19.5692 8.86437L20.3128 9.03631L20.6421 8.34772Z" fill="#F0F0F0"/>
<path d="M18.7293 12.0003L18.9883 12.7975H19.8265L19.1483 13.2902L19.4074 14.0873L18.7293 13.5946L18.0512 14.0873L18.3102 13.2902L17.6321 12.7975H18.4703L18.7293 12.0003Z" fill="#F0F0F0"/>
</g>
<defs>
<clipPath id="clip0_1_14881">
<rect width="24" height="24" fill="white"/>
</clipPath>
</defs>
</svg>
