<svg width="24" height="24" viewBox="0 0 24 24" fill="none" xmlns="http://www.w3.org/2000/svg">
<g clip-path="url(#clip0_1_14927)">
<path d="M12 24C18.6274 24 24 18.6274 24 12C24 5.37258 18.6274 0 12 0C5.37258 0 0 5.37258 0 12C0 18.6274 5.37258 24 12 24Z" fill="#F0F0F0"/>
<path d="M11.9994 -0.000732422C7.74456 -0.000732422 4.00721 2.21378 1.87646 5.55297L18.1495 22.3047C21.6531 20.2093 23.9994 16.3785 23.9994 11.9993C23.9994 5.37189 18.6268 -0.000732422 11.9994 -0.000732422Z" fill="#FFDA44"/>
<path d="M24.0001 11.9991C24.0001 8.88554 22.8142 6.04922 20.8696 3.9165V20.0817C22.8142 17.9489 24.0001 15.1126 24.0001 11.9991Z" fill="#0052B4"/>
<path d="M14.9904 22.5868L16.2473 22.586L16.6351 21.3903L17.0242 22.5856L17.6547 22.5852C18.0413 22.3782 18.4152 22.1508 18.775 21.9042L2.09504 5.22424C1.82017 5.62531 1.56948 6.04409 1.34406 6.47815L1.49228 6.9334L2.74923 6.9326L1.73279 7.67206L2.12195 8.86732L1.10457 8.12913L0.497775 8.57051C0.174291 9.65688 0.000244141 10.8076 0.000244141 11.999C0.000244141 18.6264 5.37287 23.999 12.0002 23.999C13.4014 23.999 14.7463 23.7585 15.9963 23.3169L14.9904 22.5868ZM2.67676 11.4773L3.06442 10.2816L2.04713 9.54335L3.30409 9.54256L3.69179 8.34682L4.08095 9.54209L5.3379 9.54129L4.32142 10.2807L4.71057 11.476L3.6932 10.7378L2.67676 11.4773ZM5.26543 14.086L5.65309 12.8903L4.63581 12.152L5.89276 12.1512L6.28046 10.9555L6.66962 12.1508L7.92657 12.15L6.91013 12.8894L7.29929 14.0847L6.28192 13.3465L5.26543 14.086ZM7.85406 16.6947L8.24171 15.499L7.22443 14.7607L8.48138 14.7599L8.86909 13.5642L9.25824 14.7595L10.5152 14.7587L9.49876 15.4981L9.88791 16.6934L8.87054 15.9551L7.85406 16.6947ZM11.4592 18.5639L10.4427 19.3034L10.8303 18.1077L9.81306 17.3694L11.07 17.3686L11.4578 16.1729L11.8469 17.3682L13.1039 17.3674L12.0874 18.1068L12.4766 19.3021L11.4592 18.5639ZM13.0314 21.9121L13.419 20.7164L12.4017 19.9781L13.6587 19.9773L14.0464 18.7816L14.4355 19.9768L15.6925 19.976L14.6761 20.7155L15.0652 21.9108L14.0478 21.1725L13.0314 21.9121Z" fill="#0052B4"/>
</g>
<defs>
<clipPath id="clip0_1_14927">
<rect width="24" height="24" fill="white"/>
</clipPath>
</defs>
</svg>
