<svg width="24" height="24" viewBox="0 0 24 24" fill="none" xmlns="http://www.w3.org/2000/svg">
<g clip-path="url(#clip0_1_14893)">
<path d="M17.2173 1.19087C15.6396 0.428028 13.8697 0.000152588 11.9999 0.000152588C10.13 0.000152588 8.36012 0.428028 6.7825 1.19087L5.73901 12.0002L6.7825 22.8094C8.36012 23.5723 10.13 24.0002 11.9999 24.0002C13.8697 24.0002 15.6396 23.5723 17.2173 22.8094L18.2607 12.0002L17.2173 1.19087Z" fill="#FFDA44"/>
<path d="M6.78262 1.19128C2.76872 3.13219 0 7.24261 0 12.0001C0 16.7577 2.76872 20.8681 6.78262 22.809V1.19128Z" fill="#0052B4"/>
<path d="M17.2175 1.19171V22.8094C21.2314 20.8685 24.0002 16.7581 24.0002 12.0006C24.0002 7.24309 21.2314 3.13262 17.2175 1.19171Z" fill="#0052B4"/>
<path d="M15.6523 7.30337L16.3523 7.65334L15.6523 7.30337L14.9522 6.9534C14.9101 7.03783 13.996 8.8975 13.8467 11.7382H12.7827V7.30337L12.0001 6.25989L11.2175 7.30337V11.7382H10.1535C10.0041 8.8975 9.09015 7.03783 9.04792 6.9534L7.64795 7.65339C7.65761 7.67261 8.60884 9.60878 8.60884 12.5208V13.3034H11.2175V17.7382H12.7827V13.3034H15.3914V12.5207C15.3914 11.0152 15.6519 9.77378 15.8705 8.99744C16.1087 8.15087 16.3508 7.65648 16.3532 7.65156L15.6523 7.30337Z" fill="black"/>
</g>
<defs>
<clipPath id="clip0_1_14893">
<rect width="24" height="24" fill="white"/>
</clipPath>
</defs>
</svg>
