<svg width="24" height="24" viewBox="0 0 24 24" fill="none" xmlns="http://www.w3.org/2000/svg">
<g clip-path="url(#clip0_1_14943)">
<path d="M12 24C18.6274 24 24 18.6274 24 12C24 5.37258 18.6274 0 12 0C5.37258 0 0 5.37258 0 12C0 18.6274 5.37258 24 12 24Z" fill="#F0F0F0"/>
<path d="M19.307 2.48005C15.0108 -0.82586 8.98979 -0.82586 4.6936 2.48L12.0003 9.78669L19.307 2.48005Z" fill="#D80027"/>
<path d="M12.0004 14.214L4.69385 21.5206C8.99004 24.8265 15.011 24.8265 19.3072 21.5206L12.0005 14.2139L12.0004 14.214Z" fill="#D80027"/>
<path d="M9.7868 12.0003L2.48016 4.6936C-0.825744 8.98979 -0.825744 15.0108 2.48016 19.307L9.7868 12.0003Z" fill="#6DA544"/>
<path d="M14.2144 12.0003L21.5209 19.307C24.8269 15.0108 24.8269 8.98979 21.5209 4.6936L14.2144 12.0003Z" fill="#6DA544"/>
<path d="M12.0003 17.2178C14.8818 17.2178 17.2177 14.8819 17.2177 12.0005C17.2177 9.11898 14.8818 6.78308 12.0003 6.78308C9.11886 6.78308 6.78296 9.11898 6.78296 12.0005C6.78296 14.8819 9.11886 17.2178 12.0003 17.2178Z" fill="#F0F0F0"/>
<path d="M11.9998 8.34827L12.4516 9.13089H13.3553L12.9034 9.91347L13.3553 10.6961H12.4516L11.9998 11.4787L11.5479 10.6961H10.6443L11.0961 9.91347L10.6443 9.13089H11.5479L11.9998 8.34827Z" fill="#D80027"/>
<path d="M9.70343 12.001L10.1553 12.7837H11.0589L10.6071 13.5662L11.0589 14.3489H10.1553L9.70343 15.1315L9.25156 14.3489H8.3479L8.79973 13.5662L8.3479 12.7837H9.25156L9.70343 12.001Z" fill="#D80027"/>
<path d="M14.2969 12.001L14.7488 12.7837H15.6524L15.2006 13.5662L15.6524 14.3489H14.7488L14.2969 15.1315L13.8451 14.3489H12.9414L13.3932 13.5662L12.9414 12.7837H13.8451L14.2969 12.001Z" fill="#D80027"/>
</g>
<defs>
<clipPath id="clip0_1_14943">
<rect width="24" height="24" fill="white"/>
</clipPath>
</defs>
</svg>
