<svg width="24" height="24" viewBox="0 0 24 24" fill="none" xmlns="http://www.w3.org/2000/svg">
<g clip-path="url(#clip0_1_14863)">
<path d="M12.0003 0C18.6276 0 24.0003 5.37262 24.0003 12C24.0003 18.6274 18.6276 24 12.0003 24C12.0003 23.4783 10.4351 12 10.4351 12L12.0003 0Z" fill="#F0F0F0"/>
<path d="M12 24C5.37262 24 0 18.6274 0 12C0 5.37262 5.37262 0 12 0" fill="#496E2D"/>
<path d="M14.5779 9.69873L13.5933 11.0555L11.9988 10.5384L12.9849 11.894L12.0005 13.2508L13.5944 12.7319L14.5806 14.0875L14.5795 12.4112L16.1735 11.8922L14.579 11.3751L14.5779 9.69873Z" fill="#D80027"/>
<path d="M12.9951 15.392C11.1221 15.392 9.60377 13.8737 9.60377 12.0007C9.60377 10.1278 11.1221 8.60941 12.9951 8.60941C13.5791 8.60941 14.1286 8.75706 14.6083 9.01703C13.8557 8.28105 12.8265 7.82678 11.6907 7.82678C9.38552 7.82678 7.51685 9.6955 7.51685 12.0007C7.51685 14.3058 9.38557 16.1746 11.6907 16.1746C12.8265 16.1746 13.8557 15.7203 14.6083 14.9843C14.1286 15.2444 13.5791 15.392 12.9951 15.392Z" fill="#D80027"/>
</g>
<defs>
<clipPath id="clip0_1_14863">
<rect width="24" height="24" fill="white"/>
</clipPath>
</defs>
</svg>
