<svg width="24" height="24" viewBox="0 0 24 24" fill="none" xmlns="http://www.w3.org/2000/svg">
<g clip-path="url(#clip0_1_15009)">
<path d="M24 12C24 18.6274 18.6274 24 12 24C5.37262 24 0 18.6274 0 12C0 12.0029 12 0.0013125 12 0C18.6274 0 24 5.37262 24 12Z" fill="#0052B4"/>
<path d="M11.9668 12.0003H11.999C11.999 11.9895 11.999 11.979 11.999 11.9681C11.9883 11.9789 11.9776 11.9896 11.9668 12.0003Z" fill="#F0F0F0"/>
<path d="M11.9995 6.26074C11.9995 4.14925 11.9995 2.76574 11.9995 -0.00012207H11.9975C5.37101 0.00100293 -0.000488281 5.37311 -0.000488281 11.9999H6.26037V8.47436L9.78593 11.9999H11.9674C11.9781 11.9892 11.9888 11.9785 11.9996 11.9678C11.9996 11.1593 11.9996 10.438 11.9996 9.78635L8.47394 6.26074H11.9995Z" fill="#F0F0F0"/>
<path d="M6.07075 1.56497C4.19393 2.63368 2.63364 4.19396 1.56494 6.07079V11.9998H4.69539V4.69552V4.69543H11.9997C11.9997 3.7081 11.9997 2.7675 11.9997 1.56497H6.07075Z" fill="#D80027"/>
<path d="M11.9998 10.5244L7.73641 6.26099H6.26074V6.26108L11.9997 12.0001H11.9998C11.9998 12.0001 11.9998 10.9826 11.9998 10.5244Z" fill="#D80027"/>
<path d="M19.3046 14.0863V14.6081H15.1307V14.0863H13.5654V16.1733H14.6089V16.695H19.8263V16.1733H20.8698V14.0863H19.3046Z" fill="#FFDA44"/>
<path d="M13.5654 6.26157V12.0007C13.5654 14.7963 17.2176 15.6529 17.2176 15.6529C17.2176 15.6529 20.8698 14.7963 20.8698 12.0007V6.26157H13.5654Z" fill="#338AF3"/>
<path d="M17.2179 10.5428C16.3049 10.5428 16.3049 11.3776 15.3919 11.3776C14.4789 11.3776 14.4789 10.5428 13.5659 10.5428V12.0037C14.4789 12.0037 14.4789 12.8385 15.3919 12.8385C16.3049 12.8385 16.3049 12.0037 17.2179 12.0037C18.1309 12.0037 18.1309 12.8385 19.0441 12.8385C19.9572 12.8385 19.9571 12.0037 20.8703 12.0037V10.5428C19.9572 10.5428 19.9572 11.3776 19.0441 11.3776C18.1309 11.3776 18.1309 10.5428 17.2179 10.5428Z" fill="#F3F3F3"/>
<path d="M17.2174 7.6181C16.3044 7.6181 16.3044 8.4529 15.3914 8.4529C14.4784 8.4529 14.4784 7.6181 13.5654 7.6181V9.07896C14.4784 9.07896 14.4784 9.91376 15.3914 9.91376C16.3044 9.91376 16.3044 9.07896 17.2174 9.07896C18.1304 9.07896 18.1304 9.91376 19.0436 9.91376C19.9567 9.91376 19.9566 9.07896 20.8698 9.07896V7.6181C19.9567 7.6181 19.9567 8.4529 19.0436 8.4529C18.1304 8.4529 18.1304 7.6181 17.2174 7.6181Z" fill="#F3F3F3"/>
</g>
<defs>
<clipPath id="clip0_1_15009">
<rect width="24" height="24" fill="white"/>
</clipPath>
</defs>
</svg>
