<svg width="24" height="24" viewBox="0 0 24 24" fill="none" xmlns="http://www.w3.org/2000/svg">
<g clip-path="url(#clip0_1_15021)">
<path d="M23.2531 16.1749C23.7355 14.875 23.9995 13.4689 23.9995 12.0011C23.9995 10.5332 23.7355 9.1272 23.2531 7.82717L11.9995 6.78368L0.745902 7.82717C0.263559 9.1272 -0.000488281 10.5332 -0.000488281 12.0011C-0.000488281 13.4689 0.263559 14.875 0.745902 16.1749L11.9995 17.2184L23.2531 16.1749Z" fill="#FFDA44"/>
<path d="M12.0002 23.9997C17.1598 23.9997 21.5583 20.7432 23.2538 16.1735H0.746582C2.44214 20.7432 6.84061 23.9997 12.0002 23.9997Z" fill="#0052B4"/>
<path d="M12.0002 0.000778198C6.84061 0.000778198 2.44214 3.25728 0.746582 7.82689H23.2538C21.5583 3.25728 17.1598 0.000778198 12.0002 0.000778198Z" fill="#6DA544"/>
</g>
<defs>
<clipPath id="clip0_1_15021">
<rect width="24" height="24" fill="white"/>
</clipPath>
</defs>
</svg>
