<svg width="24" height="24" viewBox="0 0 24 24" fill="none" xmlns="http://www.w3.org/2000/svg">
<g clip-path="url(#clip0_1_15081)">
<path d="M12 24C18.6274 24 24 18.6274 24 12C24 5.37258 18.6274 0 12 0C5.37258 0 0 5.37258 0 12C0 18.6274 5.37258 24 12 24Z" fill="#F0F0F0"/>
<path d="M21.5204 19.3072L14.2138 12.0006H14.2137L21.5204 4.69388C21.2053 4.28438 20.8606 3.89039 20.4855 3.51525C20.1104 3.14016 19.7164 2.79539 19.3069 2.48035L12.0002 9.78699L12.0002 9.78703L4.69356 2.48035C4.28411 2.79544 3.89007 3.14011 3.51493 3.51525C3.13979 3.89039 2.79507 4.28438 2.48003 4.69388L9.78667 12.0005L9.78672 12.0005L2.47998 19.3073C2.79512 19.7168 3.13984 20.1107 3.51489 20.4859C3.89003 20.861 4.28396 21.2057 4.69351 21.5208L12.0002 14.2141L12.0002 14.2141L19.3069 21.5207C19.7163 21.2056 20.1104 20.8609 20.4855 20.4858C20.8607 20.1107 21.2053 19.7167 21.5204 19.3072Z" fill="#D80027"/>
<path d="M9.9126 3.65288L11.9996 4.1746L14.0865 3.65288V1.87899L13.2517 2.29636L11.9996 1.04419L10.7474 2.29636L9.9126 1.87899V3.65288Z" fill="#FFDA44"/>
<path d="M9.9126 3.65283V4.95727C9.9126 6.55477 11.9996 7.04424 11.9996 7.04424C11.9996 7.04424 14.0865 6.55472 14.0865 4.95727V3.65283H9.9126Z" fill="#D80027"/>
</g>
<defs>
<clipPath id="clip0_1_15081">
<rect width="24" height="24" fill="white"/>
</clipPath>
</defs>
</svg>
