<svg width="24" height="24" viewBox="0 0 24 24" fill="none" xmlns="http://www.w3.org/2000/svg">
<g clip-path="url(#clip0_1_14945)">
<path d="M0.000244141 12.0008C0.000244141 14.0797 0.529135 16.0351 1.45932 17.74L12.0002 18.7835L22.5412 17.74C23.4714 16.0351 24.0002 14.0797 24.0002 12.0008C24.0002 9.92192 23.4714 7.96658 22.5412 6.26169L12.0002 5.2182L1.45932 6.26169C0.529135 7.96658 0.000244141 9.92192 0.000244141 12.0008Z" fill="#D80027"/>
<path d="M1.45898 6.26123H22.5408C20.5056 2.5311 16.5484 0.000366211 11.9999 0.000366211C7.45139 0.000366211 3.49425 2.5311 1.45898 6.26123Z" fill="#0052B4"/>
<path d="M11.9999 24.0008C16.5484 24.0008 20.5056 21.4701 22.5408 17.74H1.45898C3.49425 21.4701 7.45139 24.0008 11.9999 24.0008Z" fill="#0052B4"/>
<path d="M16.1742 14.3474V12.7822H15.1308V10.6952L14.0873 9.65173L13.0438 10.6952V8.60824L12.0003 7.56476L10.9569 8.60824V10.6952L9.91337 9.65173L8.86988 10.6952V12.7822H7.82644V14.3474H6.78296V15.9126H17.2177V14.3474H16.1742Z" fill="#F0F0F0"/>
</g>
<defs>
<clipPath id="clip0_1_14945">
<rect width="24" height="24" fill="white"/>
</clipPath>
</defs>
</svg>
