<svg width="24" height="24" viewBox="0 0 24 24" fill="none" xmlns="http://www.w3.org/2000/svg">
<g clip-path="url(#clip0_1_15159)">
<path d="M12 24C18.6274 24 24 18.6274 24 12C24 5.37258 18.6274 0 12 0C5.37258 0 0 5.37258 0 12C0 18.6274 5.37258 24 12 24Z" fill="#F0F0F0"/>
<path d="M23.93 13.3046L23.9297 13.3042L23.9297 13.3046H23.93Z" fill="#0052B4"/>
<path d="M23.9292 13.3041C23.9292 13.3041 23.9293 13.304 23.9293 13.3038L10.7693 0.0621948C10.1757 0.12271 9.59475 0.226492 9.02986 0.370351C3.83897 1.69199 0 11.9998 0 11.9998C0 11.9998 16.7999 23.2421 18.7165 21.945C19.1 21.6855 19.4677 21.4044 19.8177 21.1034L12.0185 13.3041H23.9292Z" fill="#0052B4"/>
<path d="M20.8695 11.9995L9.19899 0.328979C3.92288 1.59071 0 6.33662 0 11.9995C0 18.6269 5.37263 23.9995 12 23.9995C14.5139 23.9995 16.8467 23.226 18.7748 21.9047L8.86955 11.9995H20.8695Z" fill="#D80027"/>
<path d="M11.4126 17.7175L9.94704 17.0281L10.7275 15.6088L9.13605 15.9133L8.9344 14.3055L7.82595 15.488L6.71749 14.3055L6.51579 15.9133L4.92443 15.6088L5.70485 17.0281L4.23926 17.7175L5.70485 18.4068L4.92443 19.8262L6.51588 19.5217L6.71745 21.1294L7.82595 19.9469L8.9344 21.1294L9.13605 19.5217L10.7274 19.8262L9.94699 18.4069L11.4126 17.7175Z" fill="#F0F0F0"/>
<path d="M10.4342 6.65496L9.36828 6.15363L9.93589 5.12131L8.77841 5.34274L8.63174 4.1734L7.82553 5.03342L7.01933 4.1734L6.87261 5.34274L5.71512 5.12131L6.28278 6.15363L5.2168 6.65496L7.82553 7.17677L10.4342 6.65496Z" fill="#F0F0F0"/>
<path d="M10.9567 6.65533C10.9567 8.38422 9.55514 9.78578 7.82625 9.78578C6.09736 9.78578 4.6958 8.38422 4.6958 6.65533" fill="#F0F0F0"/>
</g>
<defs>
<clipPath id="clip0_1_15159">
<rect width="24" height="24" fill="white"/>
</clipPath>
</defs>
</svg>
