<svg width="24" height="24" viewBox="0 0 24 24" fill="none" xmlns="http://www.w3.org/2000/svg">
<g clip-path="url(#clip0_1_15183)">
<path d="M12 24C18.6274 24 24 18.6274 24 12C24 5.37258 18.6274 0 12 0C5.37258 0 0 5.37258 0 12C0 18.6274 5.37258 24 12 24Z" fill="#F0F0F0"/>
<path d="M0 12.0002C0 16.5487 2.53074 20.5058 6.26086 22.5411V1.45923C2.53074 3.49449 0 7.45163 0 12.0002Z" fill="#F0F0F0"/>
<path d="M11.9994 0.000854492C9.92049 0.000854492 7.96514 0.529745 6.26025 1.45993V22.5417C7.96514 23.472 9.92049 24.0009 11.9994 24.0009C18.6268 24.0009 23.9994 18.6282 23.9994 12.0009C23.9994 5.37348 18.6268 0.000854492 11.9994 0.000854492Z" fill="#496E2D"/>
<path d="M17.1307 13.9861C15.6126 15.083 13.4926 14.7415 12.3957 13.2234C11.2987 11.7053 11.6402 9.58533 13.1584 8.48846C13.6317 8.14646 14.1636 7.94428 14.7046 7.87402C13.6637 7.71835 12.5633 7.95291 11.6428 8.61802C9.77437 9.96811 9.35404 12.5772 10.7041 14.4458C12.0541 16.3142 14.6633 16.7345 16.5318 15.3843C17.4524 14.7192 18.0206 13.7483 18.1995 12.711C17.963 13.2025 17.6041 13.644 17.1307 13.9861Z" fill="#F0F0F0"/>
<path d="M17.0659 7.82727L17.9211 8.74888L19.0618 8.2205L18.4495 9.3185L19.3047 10.2402L18.0711 9.99716L17.4588 11.0953L17.3088 9.84697L16.0752 9.60392L17.216 9.07555L17.0659 7.82727Z" fill="#F0F0F0"/>
</g>
<defs>
<clipPath id="clip0_1_15183">
<rect width="24" height="24" fill="white"/>
</clipPath>
</defs>
</svg>
