<svg width="24" height="24" viewBox="0 0 24 24" fill="none" xmlns="http://www.w3.org/2000/svg">
<g clip-path="url(#clip0_1_15273)">
<path d="M12 24C18.6274 24 24 18.6274 24 12C24 5.37258 18.6274 0 12 0C5.37258 0 0 5.37258 0 12C0 18.6274 5.37258 24 12 24Z" fill="#F0F0F0"/>
<path d="M23.2531 7.82678H0.745855C0.263559 9.12681 -0.000488281 10.5328 -0.000488281 12.0007C-0.000488281 13.4685 0.263559 14.8746 0.745855 16.1746H23.2531C23.7355 14.8746 23.9995 13.4685 23.9995 12.0007C23.9995 10.5328 23.7355 9.12681 23.2531 7.82678Z" fill="#A2001D"/>
<path d="M12.0345 24.0012C16.1446 24.0012 19.7716 21.9344 21.9343 18.7838H2.13477C4.29748 21.9344 7.92439 24.0012 12.0345 24.0012Z" fill="#6DA544"/>
<path d="M12.034 0.000244141C16.1441 0.000244141 19.7711 2.06706 21.9339 5.21762H2.13428C4.297 2.06706 7.9239 0.000244141 12.034 0.000244141Z" fill="#6DA544"/>
<path d="M11.9996 7.82678L13.0355 11.0152H16.3883L13.6759 12.986L14.712 16.1746L11.9996 14.204L9.28714 16.1746L10.3233 12.986L7.61084 11.0152H10.9636L11.9996 7.82678Z" fill="#FFDA44"/>
</g>
<defs>
<clipPath id="clip0_1_15273">
<rect width="24" height="24" fill="white"/>
</clipPath>
</defs>
</svg>
