<svg width="24" height="24" viewBox="0 0 24 24" fill="none" xmlns="http://www.w3.org/2000/svg">
<g clip-path="url(#clip0_1_15275)">
<path d="M22.8088 17.2165C23.5716 15.639 23.9995 13.869 23.9995 11.9992C23.9995 10.1293 23.5716 8.35936 22.8088 6.78178L11.9995 6.26001L1.19023 6.78173C0.427387 8.35936 -0.000488281 10.1293 -0.000488281 11.9992C-0.000488281 13.869 0.427387 15.639 1.19023 17.2165L11.9995 17.7383L22.8088 17.2165Z" fill="#FFDA44"/>
<path d="M11.9997 0.000244141C7.24218 0.000244141 3.13143 2.76892 1.19043 6.78287H22.8089C20.868 2.76892 16.7572 0.000244141 11.9997 0.000244141Z" fill="black"/>
<path d="M11.9997 23.9993C7.24218 23.9993 3.13143 21.2306 1.19043 17.2167H22.8089C20.868 21.2306 16.7572 23.9993 11.9997 23.9993Z" fill="#0052B4"/>
<path d="M23.4328 8.3479H0.566184C0.19859 9.49957 -0.000488281 10.7265 -0.000488281 12.0001C-0.000488281 13.2736 0.19859 14.5006 0.566184 15.6522H23.4328C23.8004 14.5006 23.9995 13.2736 23.9995 12.0001C23.9995 10.7265 23.8004 9.49957 23.4328 8.3479Z" fill="#A2001D"/>
<path d="M19.826 11.4791H4.17383V12.5226H19.826V11.4791Z" fill="#FFDA44"/>
<path d="M17.739 9.39124H6.26074V10.4347H17.739V9.39124Z" fill="#FFDA44"/>
<path d="M17.8133 11.9996C17.8133 11.9996 15.13 15.13 11.9996 15.13C8.86919 15.13 8.86914 11.9996 8.86914 11.9996C8.86914 11.9996 8.86914 8.86914 11.9996 8.86914C15.1301 8.86914 17.8133 11.9996 17.8133 11.9996Z" fill="#F0F0F0"/>
<path d="M11.9997 15.13C8.86925 15.13 6.18604 11.9996 6.18604 11.9996C6.18604 11.9996 8.86925 8.86914 11.9997 8.86914" fill="black"/>
<path d="M10.9566 10.957H9.91309V13.044H10.9566V10.957Z" fill="#F0F0F0"/>
<path d="M14.0865 10.957H13.043V13.044H14.0865V10.957Z" fill="black"/>
<path d="M4.17386 13.0445C4.75016 13.0445 5.21734 12.5773 5.21734 12.001C5.21734 11.4247 4.75016 10.9575 4.17386 10.9575C3.59756 10.9575 3.13037 11.4247 3.13037 12.001C3.13037 12.5773 3.59756 13.0445 4.17386 13.0445Z" fill="#0052B4"/>
<path d="M19.8267 13.0441C20.403 13.0441 20.8702 12.5769 20.8702 12.0006C20.8702 11.4243 20.403 10.9572 19.8267 10.9572C19.2504 10.9572 18.7832 11.4243 18.7832 12.0006C18.7832 12.5769 19.2504 13.0441 19.8267 13.0441Z" fill="#0052B4"/>
</g>
<defs>
<clipPath id="clip0_1_15275">
<rect width="24" height="24" fill="white"/>
</clipPath>
</defs>
</svg>
