<svg width="24" height="24" viewBox="0 0 24 24" fill="none" xmlns="http://www.w3.org/2000/svg">
<g clip-path="url(#clip0_1_15321)">
<path d="M0.566625 8.34789C0.199031 9.49952 -4.68667e-05 10.7264 8.27601e-09 11.9999C-4.68667e-05 13.2735 0.199078 14.5005 0.566672 15.6521L12 16.1739L23.4333 15.6522C23.8009 14.5005 24.0001 13.2735 24.0001 12C24 10.7264 23.8009 9.49952 23.4333 8.34785L12 7.82613L0.566625 8.34789Z" fill="#F0F0F0"/>
<path d="M23.4332 8.34784L11.9999 7.82613L0.5665 8.34784C0.457563 8.68928 0.363766 9.03742 0.285156 9.39133H23.7144C23.6359 9.03738 23.5421 8.68919 23.4332 8.34784Z" fill="#D80027"/>
<path d="M0.285156 14.609C0.363672 14.9629 0.457469 15.311 0.566406 15.6525L0.567531 15.6525L11.9997 16.1742L23.433 15.6525C23.542 15.3111 23.6358 14.9629 23.7143 14.609H0.285156Z" fill="#D80027"/>
<path d="M12.0002 24.0007C17.3541 24.0007 21.8883 20.4943 23.4335 15.6529H0.566895C2.11213 20.4943 6.64644 24.0007 12.0002 24.0007Z" fill="#6DA544"/>
<path d="M12.0002 -0.000816345C6.64644 -0.00076947 2.11222 3.50562 0.566895 8.34701L23.4335 8.34706C21.8884 3.50557 17.3541 -0.00086322 12.0002 -0.000816345Z" fill="#338AF3"/>
<path d="M5.48327 4.95628C5.48327 3.83236 6.27316 2.89345 7.32798 2.66311C7.16589 2.62767 6.99766 2.6085 6.82488 2.6085C5.52822 2.6085 4.47705 3.65962 4.47705 4.95633C4.47705 6.25303 5.52813 7.30416 6.82488 7.30416C6.99766 7.30416 7.16584 7.28494 7.32798 7.24955C6.2732 7.01911 5.48327 6.0802 5.48327 4.95628Z" fill="#F0F0F0"/>
<path d="M8.71531 6.02245L8.87421 6.5116H9.38853L8.97246 6.81394L9.13137 7.30308L8.71531 7.00079L8.29915 7.30308L8.4581 6.81394L8.04199 6.5116H8.55631L8.71531 6.02245Z" fill="#F0F0F0"/>
<path d="M10.3573 6.02245L10.5163 6.5116H11.0306L10.6145 6.81394L10.7734 7.30308L10.3573 7.00079L9.94119 7.30308L10.1001 6.81394L9.68408 6.5116H10.1983L10.3573 6.02245Z" fill="#F0F0F0"/>
<path d="M11.9985 6.02245L12.1574 6.5116H12.6718L12.2557 6.81394L12.4146 7.30308L11.9985 7.00079L11.5824 7.30308L11.7414 6.81394L11.3252 6.5116H11.8396L11.9985 6.02245Z" fill="#F0F0F0"/>
<path d="M13.6406 6.02245L13.7995 6.5116H14.3138L13.8978 6.81394L14.0567 7.30308L13.6406 7.00079L13.2244 7.30308L13.3834 6.81394L12.9673 6.5116H13.4816L13.6406 6.02245Z" fill="#F0F0F0"/>
<path d="M15.2821 6.02245L15.4411 6.5116H15.9554L15.5393 6.81394L15.6983 7.30308L15.2821 7.00079L14.866 7.30308L15.0249 6.81394L14.6089 6.5116H15.1232L15.2821 6.02245Z" fill="#F0F0F0"/>
<path d="M10.3573 4.31517L10.5163 4.80426H11.0306L10.6145 5.10666L10.7734 5.59575L10.3573 5.29345L9.94119 5.59575L10.1001 5.10666L9.68408 4.80426H10.1983L10.3573 4.31517Z" fill="#F0F0F0"/>
<path d="M11.9985 4.31517L12.1574 4.80426H12.6718L12.2557 5.10666L12.4146 5.59575L11.9985 5.29345L11.5824 5.59575L11.7414 5.10666L11.3252 4.80426H11.8396L11.9985 4.31517Z" fill="#F0F0F0"/>
<path d="M13.6406 4.31517L13.7995 4.80426H14.3138L13.8978 5.10666L14.0567 5.59575L13.6406 5.29345L13.2244 5.59575L13.3834 5.10666L12.9673 4.80426H13.4816L13.6406 4.31517Z" fill="#F0F0F0"/>
<path d="M15.2821 4.31517L15.4411 4.80426H15.9554L15.5393 5.10666L15.6983 5.59575L15.2821 5.29345L14.866 5.59575L15.0249 5.10666L14.6089 4.80426H15.1232L15.2821 4.31517Z" fill="#F0F0F0"/>
<path d="M11.9985 2.60808L12.1574 3.09727H12.6718L12.2557 3.39956L12.4146 3.88875L11.9985 3.58645L11.5824 3.88875L11.7414 3.39956L11.3252 3.09727H11.8396L11.9985 2.60808Z" fill="#F0F0F0"/>
<path d="M13.6406 2.60808L13.7995 3.09727H14.3138L13.8978 3.39956L14.0567 3.88875L13.6406 3.58645L13.2244 3.88875L13.3834 3.39956L12.9673 3.09727H13.4816L13.6406 2.60808Z" fill="#F0F0F0"/>
<path d="M15.2821 2.60808L15.4411 3.09727H15.9554L15.5393 3.39956L15.6983 3.88875L15.2821 3.58645L14.866 3.88875L15.0249 3.39956L14.6089 3.09727H15.1232L15.2821 2.60808Z" fill="#F0F0F0"/>
</g>
<defs>
<clipPath id="clip0_1_15321">
<rect width="24" height="24" fill="white"/>
</clipPath>
</defs>
</svg>
