<svg width="24" height="24" viewBox="0 0 24 24" fill="none" xmlns="http://www.w3.org/2000/svg">
<g clip-path="url(#clip0_1_14909)">
<path d="M22.8088 17.2167C23.5717 15.6391 23.9995 13.8692 23.9995 11.9993C23.9995 10.1294 23.5717 8.35956 22.8088 6.78193L11.9995 5.73845L1.19023 6.78193C0.42734 8.35956 -0.000488281 10.1294 -0.000488281 11.9993C-0.000488281 13.8692 0.42734 15.6391 1.19023 17.2167L11.9995 18.2602L22.8088 17.2167Z" fill="#0052B4"/>
<path d="M11.9997 24.0004C16.7572 24.0004 20.868 21.2317 22.809 17.2177H1.19043C3.13143 21.2317 7.24218 24.0004 11.9997 24.0004Z" fill="#D80027"/>
<path d="M20.7819 14.356L20.1481 14.8513L20.4232 15.607L19.7563 15.1573L19.1224 15.6525L19.344 14.8793L18.6772 14.4295L19.4811 14.4015L19.7029 13.6283L19.9781 14.3841L20.7819 14.356Z" fill="#F0F0F0"/>
<path d="M19.159 11.5444L18.7329 12.2266L19.25 12.8426L18.4694 12.6482L18.0432 13.3302L17.987 12.5279L17.2065 12.3332L17.9524 12.0318L17.8964 11.2294L18.4133 11.8457L19.159 11.5444Z" fill="#F0F0F0"/>
<path d="M16.6724 9.45837L16.5052 10.2452L17.2018 10.6474L16.4019 10.7317L16.2346 11.5182L15.9074 10.7835L15.1074 10.8675L15.7053 10.3293L15.3781 9.59454L16.0747 9.99663L16.6724 9.45837Z" fill="#F0F0F0"/>
<path d="M13.6221 8.34801L13.7342 9.14455L14.5262 9.28415L13.8033 9.63693L13.9153 10.4334L13.3566 9.8548L12.6335 10.2074L13.0112 9.4971L12.4524 8.91857L13.2446 9.05821L13.6221 8.34801Z" fill="#F0F0F0"/>
<path d="M10.3765 8.34801L10.7542 9.05821L11.5462 8.91847L10.9876 9.49724L11.365 10.2075L10.6421 9.8548L10.0833 10.4333L10.1954 9.63693L9.47241 9.28433L10.2646 9.14455L10.3765 8.34801Z" fill="#F0F0F0"/>
<path d="M7.32614 9.45837L7.92399 9.99663L8.62041 9.59454L8.29336 10.3295L8.89106 10.8677L8.09114 10.7835L7.76386 11.5182L7.59684 10.7315L6.79688 10.6475L7.49344 10.2453L7.32614 9.45837Z" fill="#F0F0F0"/>
<path d="M4.83973 11.5444L5.58565 11.8458L6.10249 11.2296L6.04657 12.0322L6.79225 12.3335L6.01183 12.528L5.95563 13.3303L5.52954 12.6483L4.74902 12.8428L5.26605 12.2266L4.83973 11.5444Z" fill="#F0F0F0"/>
<path d="M3.2168 14.3561L4.0208 14.3842L4.29577 13.6285L4.51772 14.4017L5.32148 14.4298L4.65464 14.8796L4.87627 15.6528L4.24252 15.1576L3.57562 15.6072L3.85073 14.8514L3.2168 14.3561Z" fill="#F0F0F0"/>
<path d="M22.809 6.7822C20.868 2.76825 16.7572 -0.000425339 11.9997 -0.000425339C7.24218 -0.000425339 3.13143 2.76825 1.19043 6.7822H22.809Z" fill="#FFDA44"/>
</g>
<defs>
<clipPath id="clip0_1_14909">
<rect width="24" height="24" fill="white"/>
</clipPath>
</defs>
</svg>
