<svg width="24" height="24" viewBox="0 0 24 24" fill="none" xmlns="http://www.w3.org/2000/svg">
<g clip-path="url(#clip0_1_15225)">
<path d="M24 12C24 18.6274 18.6274 24 12 24C5.37262 24 0 18.6274 0 12C4.12172 7.87828 7.61737 4.38263 12 0C18.6274 0 24 5.37262 24 12Z" fill="#D80027"/>
<path d="M12 12C12 5.37262 12 4.59131 12 0C5.37262 0 0 5.37262 0 12H12Z" fill="#0052B4"/>
<path d="M9.61146 7.82629L9.80576 8.42418H10.4344L9.92576 8.7936L10.1201 9.39149L9.61146 9.02198L9.10287 9.39149L9.29717 8.7936L8.78857 8.42418H9.41717L9.61146 7.82629Z" fill="#F0F0F0"/>
<path d="M6.45448 3.13123L6.77824 4.12774H7.826L6.97831 4.74345L7.30217 5.73992L6.45448 5.12402L5.60684 5.73992L5.93065 4.74345L5.08301 4.12774H6.13067L6.45448 3.13123Z" fill="#F0F0F0"/>
<path d="M9.58534 4.17505L9.9091 5.17161H10.9568L10.1092 5.78732L10.4329 6.78379L9.58534 6.16789L8.7377 6.78379L9.06151 5.78732L8.21387 5.17161H9.26153L9.58534 4.17505Z" fill="#F0F0F0"/>
<path d="M7.11072 8.34912L7.43454 9.34564H8.48219L7.63455 9.96134L7.95836 10.9578L7.11072 10.342L6.26309 10.9578L6.5869 9.96134L5.73926 9.34564H6.78696L7.11072 8.34912Z" fill="#F0F0F0"/>
<path d="M4.36752 5.73999L4.69133 6.73651H5.73903L4.89135 7.35221L5.21516 8.34868L4.36752 7.73283L3.51992 8.34868L3.84369 7.35221L2.99609 6.73651H4.04375L4.36752 5.73999Z" fill="#F0F0F0"/>
</g>
<defs>
<clipPath id="clip0_1_15225">
<rect width="24" height="24" fill="white"/>
</clipPath>
</defs>
</svg>
