<svg width="24" height="24" viewBox="0 0 24 24" fill="none" xmlns="http://www.w3.org/2000/svg">
<path d="M1.74167 17.875C0.783333 17.875 0 18.6583 0 19.6167C0 20.575 0.783333 21.3583 1.74167 21.3583C2.7 21.3583 3.48333 20.575 3.48333 19.6167C3.48333 18.6583 2.70833 17.875 1.74167 17.875Z" fill="#6515DD"/>
<path d="M23.1833 2.66675L12.2166 6.16675V2.70841L0.391602 6.48342V16.5084L10.5916 13.2501V16.6917L23.9999 12.4167L20.3666 8.86675L23.1833 2.66675ZM10.5916 11.5334L2.02494 14.2667V7.67508L10.5916 4.94175V11.5334ZM20.9666 11.6751L12.2166 14.4667V7.88341L20.2749 5.30841L18.4249 9.20842L20.9666 11.6751Z" fill="#6515DD"/>
</svg>
