<svg width="32" height="32" viewBox="0 0 32 32" fill="none" xmlns="http://www.w3.org/2000/svg">
<g filter="url(#filter0_d_4782_3229)">
<path d="M8 21.5286V25.5224C8 26.3366 8.66692 26.9965 9.48832 26.9965H13.4555V21.5286H8Z" fill="#188038"/>
<path d="M18.5479 26.9978H22.5114C23.3328 26.9978 23.9997 26.3378 23.9997 25.5237V21.5286H18.5479V26.9978Z" fill="#1967D2"/>
<path d="M18.5465 21.5286H13.4551V26.9978H18.5465V21.5286Z" fill="#34A853"/>
<path d="M9.48832 5C8.66692 5 8 5.65992 8 6.47411V21.5286H13.4555V10.5095H18.5469V5H9.48832Z" fill="#FBBC05"/>
<path d="M23.9997 10.5095H18.5479V21.5286H23.9997V10.5095Z" fill="#4285F4"/>
<path d="M18.5479 10.5095H23.9985L18.5479 5V10.5095Z" fill="#EA4335"/>
</g>
<defs>
<filter id="filter0_d_4782_3229" x="-2" y="-1" width="36" height="36" filterUnits="userSpaceOnUse" color-interpolation-filters="sRGB">
<feFlood flood-opacity="0" result="BackgroundImageFix"/>
<feColorMatrix in="SourceAlpha" type="matrix" values="0 0 0 0 0 0 0 0 0 0 0 0 0 0 0 0 0 0 127 0" result="hardAlpha"/>
<feOffset dy="1"/>
<feGaussianBlur stdDeviation="1"/>
<feColorMatrix type="matrix" values="0 0 0 0 0.0627451 0 0 0 0 0.0941176 0 0 0 0 0.156863 0 0 0 0.05 0"/>
<feBlend mode="normal" in2="BackgroundImageFix" result="effect1_dropShadow_4782_3229"/>
<feBlend mode="normal" in="SourceGraphic" in2="effect1_dropShadow_4782_3229" result="shape"/>
</filter>
</defs>
</svg>
