<svg width="32" height="32" viewBox="0 0 32 32" fill="none" xmlns="http://www.w3.org/2000/svg">
<path d="M26.1825 10.2222L30.5441 19.9122L24.3773 30.4471L9.56445 18.3781L17.1398 11.0766L26.1825 10.2222Z" fill="url(#paint0_linear_1_17724)"/>
<path d="M19.8854 19.5415L24.3773 30.4476L10.6927 25.7436L9.56445 18.3785L19.8854 19.5415Z" fill="#BB4EFC"/>
<path d="M11.0999 4.31226L17.3975 7.53968L11.7298 24.7008L0.31543 24.582L2.76754 19.1443L0.31543 12.1952L11.0999 4.31226Z" fill="#078EFC"/>
<path d="M19.0002 0.218994L21.9785 10.3539L0.31543 12.1952L7.20503 0.218994H19.0002Z" fill="url(#paint1_linear_1_17724)"/>
<path d="M30.544 6.63721L17.8702 9.64521L0.31543 24.5819L11.6379 30.4475L21.4734 20.3076L30.544 6.63721Z" fill="url(#paint2_linear_1_17724)"/>
<path d="M5.35352 5.2572H25.5057V25.4094H5.35352V5.2572Z" fill="black"/>
<path d="M7.36816 22.0842H14.9252V23.2934H7.36816V22.0842Z" fill="white"/>
<path d="M6.67734 11.8309V11.8062C6.59505 9.38563 8.49082 7.35638 10.9114 7.27455C10.9525 7.27318 10.9932 7.27226 11.0344 7.27226C12.2412 7.21055 13.4207 7.64483 14.2993 8.47455L13.1473 9.94015C12.5754 9.35866 11.79 9.03729 10.9745 9.05101C9.56511 9.15432 8.50134 10.3717 8.58819 11.782V11.8067C8.47025 13.2197 9.52031 14.4604 10.9333 14.5783C10.9905 14.5829 11.0481 14.5861 11.1057 14.587C11.7215 14.6053 12.3263 14.4201 12.8268 14.0608V12.8083H10.9868V11.1429H14.596V14.95C13.63 15.8437 12.3624 16.3401 11.0463 16.3411C8.68648 16.3973 6.72808 14.5294 6.67185 12.1696C6.66957 12.0567 6.67139 11.9438 6.67734 11.8309Z" fill="white"/>
<path d="M15.3639 11.8309V11.8062C15.2994 9.36738 17.224 7.33812 19.6633 7.27367C22.1026 7.20921 24.1314 9.13378 24.1959 11.5731C24.1977 11.6426 24.1977 11.7125 24.1963 11.782V11.8067C24.2608 14.2456 22.3362 16.2748 19.8969 16.3393C17.4581 16.4037 15.4288 14.4792 15.3643 12.0398C15.3625 11.9704 15.3625 11.9009 15.3639 11.8309ZM22.2855 11.8309V11.8062C22.3705 10.3708 21.2757 9.13881 19.8402 9.05378C19.816 9.05241 19.7922 9.0515 19.768 9.05058C18.3527 9.08624 17.2345 10.262 17.2702 11.6773C17.2711 11.7121 17.2724 11.7468 17.2747 11.782V11.8067C17.1897 13.2421 18.2846 14.4741 19.72 14.5592C19.7442 14.5605 19.768 14.5614 19.7922 14.5624C21.2075 14.5267 22.3257 13.3509 22.2901 11.9356C22.2891 11.9009 22.2878 11.8657 22.2855 11.8309Z" fill="white"/>
<defs>
<linearGradient id="paint0_linear_1_17724" x1="24.7788" y1="12.508" x2="16.2259" y2="25.5487" gradientUnits="userSpaceOnUse">
<stop offset="0.174" stop-color="#078EFC"/>
<stop offset="0.204" stop-color="#118AFC"/>
<stop offset="0.435" stop-color="#5971FC"/>
<stop offset="0.627" stop-color="#8E5EFC"/>
<stop offset="0.77" stop-color="#AF52FC"/>
<stop offset="0.849" stop-color="#BB4EFC"/>
</linearGradient>
<linearGradient id="paint1_linear_1_17724" x1="3.30726" y1="13.7759" x2="20.6523" y2="0.726566" gradientUnits="userSpaceOnUse">
<stop offset="0.174" stop-color="#078EFC"/>
<stop offset="0.204" stop-color="#118AFC"/>
<stop offset="0.435" stop-color="#5971FC"/>
<stop offset="0.627" stop-color="#8E5EFC"/>
<stop offset="0.77" stop-color="#AF52FC"/>
<stop offset="0.849" stop-color="#BB4EFC"/>
</linearGradient>
<linearGradient id="paint2_linear_1_17724" x1="4.51512" y1="26.6258" x2="26.3208" y2="12.6136" gradientUnits="userSpaceOnUse">
<stop stop-color="#078EFC"/>
<stop offset="0.106" stop-color="#15A7D3"/>
<stop offset="0.228" stop-color="#23BFAA"/>
<stop offset="0.348" stop-color="#2DD28B"/>
<stop offset="0.463" stop-color="#35DF74"/>
<stop offset="0.573" stop-color="#39E767"/>
<stop offset="0.67" stop-color="#3BEA62"/>
</linearGradient>
</defs>
</svg>
