<svg width="32" height="32" viewBox="0 0 32 32" fill="none" xmlns="http://www.w3.org/2000/svg">
<g clip-path="url(#clip0_1_17827)">
<path d="M28.0227 0.411386C27.2455 0.0456717 26.3769 -0.0457568 25.5084 0.0456718C25.3712 0.0456718 4.7998 1.78281 4.7998 1.78281L19.3369 18.9257L21.9884 19.0628L30.3084 10.0571C33.097 7.26853 32.5027 2.28567 28.0227 0.411386Z" fill="url(#paint0_linear_1_17827)"/>
<path d="M24.5031 21.5771L23.9088 22.4914L16.5945 13.5771L9.50879 18.3314L21.2574 31.0857C21.4859 31.3143 21.8059 31.4972 22.1259 31.68C22.7659 32 23.4974 32.0914 24.2288 31.8629C24.9145 31.68 25.4174 31.3143 25.8288 30.9029C25.8745 30.8571 30.7659 26.0114 30.7659 26.0114L24.5031 21.5771Z" fill="url(#paint1_linear_1_17827)"/>
<path d="M20.8915 19.0172L8.96007 3.84004C8.45722 3.10861 7.68007 2.51432 6.67436 2.1029C5.89722 1.7829 4.98293 1.69147 4.16007 1.87432C-0.228498 2.83432 -1.23421 7.63432 1.60007 10.1943L9.87436 18.6972L20.8915 19.0172Z" fill="url(#paint2_linear_1_17827)"/>
<path d="M28.8913 18.5142C27.337 18.0571 26.4684 18.1942 24.4113 18.1485L7.03982 15.6799L2.05697 20.4342C-1.09732 23.5428 -0.594461 28.9828 4.0684 31.3142C5.25697 31.9085 6.58268 32.0914 7.81697 31.9085C16.6398 30.2628 27.7027 27.6114 27.7941 27.6114C27.977 27.5656 28.2055 27.5199 28.3884 27.4742C31.2684 26.6056 32.457 23.9085 31.7713 21.6228C31.4055 20.3428 30.3998 18.9714 28.8913 18.5142Z" fill="url(#paint3_linear_1_17827)"/>
<path d="M6.12598 6.12573H25.8745V25.8743H6.12598V6.12573Z" fill="black"/>
<path d="M7.9541 8.73145H9.78267V12.0229H13.1655V8.73145H14.9941V17.0057H13.1655V13.6686H9.78267V17.0057H7.9541V8.73145Z" fill="white"/>
<path d="M16.3201 8.73145H20.1601C21.1201 8.73145 21.8516 9.00573 22.3087 9.46287C22.6744 9.82859 22.8573 10.2857 22.8573 10.88V10.9257C22.8573 11.84 22.3544 12.3886 21.7601 12.7086C22.7201 13.0743 23.3144 13.6229 23.3144 14.7657V14.8114C23.3144 16.32 22.0801 17.0972 20.2058 17.0972H16.2744V8.73145H16.3201ZM21.1201 11.1543C21.1201 10.6057 20.7087 10.2857 19.9316 10.2857H18.1487V12.0229H19.8401C20.6173 12.0686 21.1201 11.7943 21.1201 11.1543ZM20.2058 13.5772H18.103V15.4057H20.2516C21.0744 15.4057 21.5316 15.1314 21.5316 14.4914V14.4457C21.5773 13.9429 21.1658 13.5772 20.2058 13.5772Z" fill="white"/>
<path d="M8 22.1714H15.4057V23.4057H8V22.1714Z" fill="white"/>
</g>
<defs>
<linearGradient id="paint0_linear_1_17827" x1="18.4752" y1="0.406357" x2="18.0958" y2="17.9766" gradientUnits="userSpaceOnUse">
<stop offset="0.328" stop-color="#00B8F1"/>
<stop offset="0.973" stop-color="#9758FB"/>
</linearGradient>
<linearGradient id="paint1_linear_1_17827" x1="26.6722" y1="29.2649" x2="5.45484" y2="6.23361" gradientUnits="userSpaceOnUse">
<stop stop-color="#FFEE45"/>
<stop offset="1" stop-color="#9758FB"/>
</linearGradient>
<linearGradient id="paint2_linear_1_17827" x1="14.1829" y1="4.33787" x2="9.77927" y2="13.7518" gradientUnits="userSpaceOnUse">
<stop offset="0.328" stop-color="#00B8F1"/>
<stop offset="0.79" stop-color="#9758FB"/>
</linearGradient>
<linearGradient id="paint3_linear_1_17827" x1="-1.49" y1="23.828" x2="31.4586" y2="23.828" gradientUnits="userSpaceOnUse">
<stop stop-color="#00B8F1"/>
<stop offset="0.306" stop-color="#9758FB"/>
<stop offset="0.989" stop-color="#FFEE45"/>
</linearGradient>
<clipPath id="clip0_1_17827">
<rect width="32" height="32" fill="white"/>
</clipPath>
</defs>
</svg>
