<svg width="32" height="32" viewBox="0 0 32 32" fill="none" xmlns="http://www.w3.org/2000/svg">
<g clip-path="url(#clip0_1_17699)">
<path d="M9.23429 6.94861L15.5429 16.7772L5.30286 32L0 10.56L9.23429 6.94861Z" fill="url(#paint0_linear_1_17699)"/>
<path d="M8.63988 7.17714L9.59988 0L23.4056 15.36L19.3827 19.3371L22.4913 32H5.30273L8.63988 7.17714Z" fill="url(#paint1_linear_1_17699)"/>
<path d="M16.1368 21.5314H31.9996L26.6968 0H9.59961L16.1368 21.5314Z" fill="url(#paint2_linear_1_17699)"/>
<path d="M6.12598 6.12573H25.8745V25.8743H6.12598V6.12573Z" fill="black"/>
<path d="M7.95489 8.68579H11.7035C12.7549 8.68579 13.532 8.96008 14.0806 9.50865C14.5378 9.96579 14.7663 10.6058 14.7663 11.3829V11.4286C14.7663 12.1144 14.5835 12.6172 14.2635 13.0286C13.9435 13.4401 13.532 13.7601 12.9835 13.9429L14.9949 16.8686H12.892L11.2006 14.3544H9.69204V16.8686H7.90918V8.68579H7.95489ZM11.612 12.6629C12.0692 12.6629 12.3892 12.5715 12.6178 12.3429C12.8463 12.1144 12.9835 11.8401 12.9835 11.5201V11.4744C12.9835 11.0629 12.8463 10.7886 12.6178 10.6058C12.3892 10.4229 12.0235 10.3315 11.5663 10.3315H9.78347V12.6629H11.612Z" fill="white"/>
<path d="M7.9541 22.1715H15.3598V23.4058H7.9541V22.1715Z" fill="white"/>
<path d="M19.977 11.1543H18.1484V9.50863H19.977V7.68005H21.6684V9.50863H23.497V11.1543H21.6684V12.9829H19.977V11.1543Z" fill="white"/>
<path d="M16.9604 15.8172H15.1318V14.1715H16.9604V12.3429H18.6518V14.1715H20.4804V15.8172H18.6518V17.6458H16.9604V15.8172Z" fill="white"/>
</g>
<defs>
<linearGradient id="paint0_linear_1_17699" x1="3.68594" y1="7.37878" x2="13.376" y2="31.889" gradientUnits="userSpaceOnUse">
<stop offset="0.22" stop-color="#C40B55"/>
<stop offset="0.683" stop-color="#E343E6"/>
<stop offset="0.925" stop-color="#F59252"/>
</linearGradient>
<linearGradient id="paint1_linear_1_17699" x1="23.8998" y1="33.5049" x2="0.202847" y2="8.29806" gradientUnits="userSpaceOnUse">
<stop offset="0.113" stop-color="#FFBD00"/>
<stop offset="0.586" stop-color="#E343E6"/>
<stop offset="0.817" stop-color="#EC841B"/>
<stop offset="0.935" stop-color="#FFBD00"/>
</linearGradient>
<linearGradient id="paint2_linear_1_17699" x1="11.6568" y1="-0.882286" x2="31.9813" y2="23.3911" gradientUnits="userSpaceOnUse">
<stop offset="0.129" stop-color="#FFBD00"/>
<stop offset="0.64" stop-color="#E343E6"/>
<stop offset="0.909" stop-color="#C40B55"/>
</linearGradient>
<clipPath id="clip0_1_17699">
<rect width="32" height="32" fill="white"/>
</clipPath>
</defs>
</svg>
