<svg width="32" height="32" viewBox="0 0 32 32" fill="none" xmlns="http://www.w3.org/2000/svg">
<g clip-path="url(#clip0_1_17757)">
<path d="M26.6057 0L17.4629 3.29143L10.24 0L3.1543 17.7829L11.2914 14.5371L11.1543 23.5429L28.5714 23.8629L32 6.26286L26.6057 0Z" fill="url(#paint0_linear_1_17757)"/>
<path d="M23.2229 10.3772L11.7029 2.83435L2.42285 8.54864L22.7657 16.4115L23.2229 10.3772Z" fill="url(#paint1_linear_1_17757)"/>
<path d="M13.3029 31.1771L25.28 29.5771L21.4857 22.2629L24 19.2L24.2743 17.3257L11.7029 2.78857L0 5.66857V22.4457L6.76572 32L13.3029 31.1771Z" fill="url(#paint2_linear_1_17757)"/>
<path d="M6.12598 6.12573H25.8745V25.8743H6.12598V6.12573Z" fill="black"/>
<path d="M8 22.1715H15.4057V23.4058H8V22.1715Z" fill="white"/>
<path d="M15.8174 8.68579H17.7831L19.9317 12.1601L22.0802 8.68579H24.046V16.8686H22.2174V11.5201L19.9317 15.0401H19.886L17.6002 11.5658V16.8686H15.8174V8.68579Z" fill="white"/>
<path d="M7.95489 8.68579H11.7035C12.7549 8.68579 13.532 8.96008 14.0806 9.50865C14.5378 9.96579 14.7663 10.6058 14.7663 11.3829V11.4286C14.7663 12.1144 14.5835 12.6172 14.2635 13.0286C13.9435 13.4401 13.532 13.7601 12.9835 13.9429L14.9949 16.8686H12.892L11.2006 14.3544H9.69204V16.8686H7.90918V8.68579H7.95489ZM11.612 12.6629C12.0692 12.6629 12.3892 12.5715 12.6178 12.3429C12.8463 12.1144 12.9835 11.8401 12.9835 11.5201V11.4744C12.9835 11.0629 12.8463 10.7886 12.6178 10.6058C12.3892 10.4229 12.0235 10.3315 11.5663 10.3315H9.78347V12.6629H11.612Z" fill="white"/>
</g>
<defs>
<linearGradient id="paint0_linear_1_17757" x1="22.6784" y1="24.0247" x2="13.8725" y2="3.27451" gradientUnits="userSpaceOnUse">
<stop offset="0.172" stop-color="#FF1F51"/>
<stop offset="0.28" stop-color="#FF3648"/>
<stop offset="0.468" stop-color="#FF593B"/>
<stop offset="0.646" stop-color="#FF7231"/>
<stop offset="0.809" stop-color="#FF812B"/>
<stop offset="0.941" stop-color="#FF8629"/>
</linearGradient>
<linearGradient id="paint1_linear_1_17757" x1="15.2041" y1="5.89126" x2="11.4766" y2="15.2851" gradientUnits="userSpaceOnUse">
<stop offset="0.022" stop-color="#9039D0"/>
<stop offset="0.629" stop-color="#FF1F51"/>
</linearGradient>
<linearGradient id="paint2_linear_1_17757" x1="0.132571" y1="5.13097" x2="20.7013" y2="31.2777" gradientUnits="userSpaceOnUse">
<stop offset="0.107" stop-color="#9039D0"/>
<stop offset="0.387" stop-color="#FF1F51"/>
<stop offset="0.629" stop-color="#FF1F51"/>
<stop offset="0.66" stop-color="#FF3648"/>
<stop offset="0.714" stop-color="#FF593B"/>
<stop offset="0.765" stop-color="#FF7231"/>
<stop offset="0.812" stop-color="#FF812B"/>
<stop offset="0.85" stop-color="#FF8629"/>
</linearGradient>
<clipPath id="clip0_1_17757">
<rect width="32" height="32" fill="white"/>
</clipPath>
</defs>
</svg>
