<svg width="32" height="32" viewBox="0 0 32 32" fill="none" xmlns="http://www.w3.org/2000/svg">
<g clip-path="url(#clip0_1_17866)">
<path d="M27.6567 10.9714L4.38812 12.2971L4.25098 3.38286L25.2338 0.0914307L27.6567 10.9714Z" fill="url(#paint0_linear_1_17866)"/>
<path d="M9.28039 19.7486L16.7775 10.24L8.64039 4.66285C7.22325 3.38285 5.07468 2.83428 2.88039 3.74857C1.78325 4.20571 0.914679 5.07428 0.457536 6.17142C-0.502464 8.45714 0.0918217 10.6971 1.55468 12.0686L9.28039 19.7486Z" fill="url(#paint1_linear_1_17866)"/>
<path d="M9.28027 19.7486L20.8003 31.1314L27.9774 17.7371L16.7774 10.24L9.28027 19.7486Z" fill="url(#paint2_linear_1_17866)"/>
<path d="M24.6398 16.7314L5.48549 15.8171C4.75406 15.6799 3.9312 15.7257 3.06263 16.0914C2.23977 16.4571 1.59977 17.0514 1.27977 17.8742C0.319774 20.1142 1.46263 22.2628 3.33692 22.9942L20.4798 31.0857C20.7083 31.2228 21.8512 31.5428 21.8512 31.5428C22.7655 31.8171 23.7712 31.9542 24.6855 31.9542C25.8283 31.9542 27.1083 31.6342 28.3883 30.9942C29.5769 30.3999 30.3083 29.4399 30.9483 28.2514C31.7255 26.8799 31.9541 25.5999 31.9541 24.3199C31.9083 20.3428 28.6169 17.0057 24.6398 16.7314Z" fill="url(#paint3_linear_1_17866)"/>
<path d="M23.8169 0.502901C23.4969 0.640043 23.1769 0.8229 22.9026 1.00576L12.2969 9.00576L17.554 16.6858L29.074 10.24C29.9426 9.82861 30.6283 9.09719 31.0397 8.27433C33.5997 3.33719 28.8454 -1.59996 23.8169 0.502901Z" fill="url(#paint4_linear_1_17866)"/>
<path d="M6.62881 22.7657L17.5545 16.6857L12.2974 9.00574L2.24023 16.5486L6.62881 22.7657Z" fill="#905CFB"/>
<path d="M9.32549 25.7828V15.9999L5.48549 15.8171C4.75406 15.6799 3.9312 15.7257 3.06263 16.0914C2.23977 16.4571 1.59977 17.0514 1.27977 17.8742C0.319774 20.1142 1.46263 22.2628 3.33692 22.9942H3.38263L9.32549 25.7828Z" fill="url(#paint5_linear_1_17866)"/>
<path d="M6.12598 6.12573H25.8745V25.8743H6.12598V6.12573Z" fill="black"/>
<path d="M8 13.4401V8.68579H9.82857V13.3944C9.82857 14.7658 10.5143 15.4515 11.6114 15.4515C12.7086 15.4515 13.3943 14.7658 13.3943 13.4401V8.68579H15.2229V13.3486C15.2229 15.8629 13.8057 17.0972 11.5657 17.0972C9.37143 17.1429 8 15.8629 8 13.4401Z" fill="white"/>
<path d="M16.1826 8.68579H19.5655C21.5312 8.68579 22.7198 9.87436 22.7198 11.5658V11.6115C22.7198 13.5315 21.2112 14.5372 19.3826 14.5372H18.0112V17.0058H16.1826V8.68579ZM19.474 12.8915C20.3883 12.8915 20.9369 12.3429 20.9369 11.6572V11.6115C20.9369 10.7886 20.3883 10.3772 19.474 10.3772H18.0569V12.8915H19.474Z" fill="white"/>
<path d="M8 22.1715H15.4057V23.4058H8V22.1715Z" fill="white"/>
</g>
<defs>
<linearGradient id="paint0_linear_1_17866" x1="29.6741" y1="5.03314" x2="8.00549" y2="8.28343" gradientUnits="userSpaceOnUse">
<stop stop-color="#FF8200"/>
<stop offset="0.973" stop-color="#905CFB"/>
</linearGradient>
<linearGradient id="paint1_linear_1_17866" x1="7.16611" y1="15.9095" x2="9.18576" y2="4.62628" gradientUnits="userSpaceOnUse">
<stop stop-color="#0CB0F2"/>
<stop offset="0.973" stop-color="#905CFB"/>
</linearGradient>
<linearGradient id="paint2_linear_1_17866" x1="26.6677" y1="24.533" x2="12.3331" y2="17.5323" gradientUnits="userSpaceOnUse">
<stop stop-color="#0CB0F2"/>
<stop offset="0.973" stop-color="#905CFB"/>
</linearGradient>
<linearGradient id="paint3_linear_1_17866" x1="27.7383" y1="25.6265" x2="3.36069" y2="16.8626" gradientUnits="userSpaceOnUse">
<stop stop-color="#0CB0F2"/>
<stop offset="0.973" stop-color="#905CFB"/>
</linearGradient>
<linearGradient id="paint4_linear_1_17866" x1="29.3456" y1="2.71319" x2="8.46785" y2="19.5402" gradientUnits="userSpaceOnUse">
<stop stop-color="#FF8200"/>
<stop offset="0.973" stop-color="#905CFB"/>
</linearGradient>
<linearGradient id="paint5_linear_1_17866" x1="13.9189" y1="22.511" x2="1.0352" y2="17.9323" gradientUnits="userSpaceOnUse">
<stop stop-color="#0CB0F2"/>
<stop offset="0.973" stop-color="#905CFB"/>
</linearGradient>
<clipPath id="clip0_1_17866">
<rect width="32" height="32" fill="white"/>
</clipPath>
</defs>
</svg>
