<svg width="32" height="32" viewBox="0 0 32 32" fill="none" xmlns="http://www.w3.org/2000/svg">
<g clip-path="url(#clip0_1_17880)">
<path d="M30.583 21.7144C30.4915 21.6229 24.5944 15.9544 24.5944 15.9544C24.5944 15.9544 29.0744 11.2001 30.263 10.0115C30.6287 9.64578 30.9487 9.28007 31.1773 8.82292C32.823 6.03435 31.863 2.46864 29.0744 0.822925C27.0173 -0.365646 24.4573 -0.182789 22.6287 1.18864C22.3087 1.41721 22.0344 1.64578 21.7601 1.92007C21.623 2.10293 15.4058 7.7715 10.0115 12.7086L20.1144 19.1086L9.50868 31.0401C8.86868 31.4972 8.22868 31.7715 7.54297 31.9086C7.68011 31.9086 7.77154 31.9086 7.90868 31.8629C10.0115 31.5429 27.9773 28.5258 28.8458 28.3429C29.8973 28.1601 30.8573 27.5201 31.4515 26.5601C32.4573 24.9144 32.0001 22.8572 30.583 21.7144Z" fill="url(#paint0_linear_1_17880)"/>
<path d="M20.9827 13.9428C20.7998 12.7085 20.1598 11.7028 19.2456 10.9714C18.2856 10.2399 10.8798 2.55995 10.057 1.69137C8.77699 0.457088 6.94842 -0.228626 5.07413 0.0913736C1.87413 0.548516 -0.365869 3.56566 0.136988 6.76566C0.365559 8.36566 1.27984 9.73709 2.46842 10.6057C3.65699 11.5199 12.9827 17.9199 13.577 18.3771C14.537 19.1085 15.817 19.5199 17.097 19.2914C19.6113 18.8342 21.3941 16.4571 20.9827 13.9428Z" fill="url(#paint1_linear_1_17880)"/>
<path d="M10.5141 30.9943C10.5598 30.9943 21.1655 19.0628 21.1655 19.0628L10.4683 12.2971C6.67405 15.7714 3.15405 18.9257 2.3312 19.7028C1.82834 20.16 1.32548 20.7543 0.959767 21.3943C-1.00595 24.7771 0.13691 29.0743 3.51977 31.04C4.8912 31.8171 7.99977 32.7771 10.5141 30.9943Z" fill="url(#paint2_linear_1_17880)"/>
<path d="M6.12598 6.12573H25.8745V25.8743H6.12598V6.12573Z" fill="black"/>
<path d="M7.9541 22.1715H15.3598V23.4058H7.9541V22.1715Z" fill="white"/>
<path d="M10.8801 13.6686L7.77148 8.73145H9.87434L11.7943 11.9772L13.8058 8.73145H15.8629L12.7086 13.6229V16.9143H10.8801V13.6686Z" fill="white"/>
<path d="M19.0172 10.3772H16.5029V8.73145H23.3144V10.3772H20.8001V16.9143H19.0172V10.3772Z" fill="white"/>
</g>
<defs>
<linearGradient id="paint0_linear_1_17880" x1="3.23805" y1="25.03" x2="29.3057" y2="13.147" gradientUnits="userSpaceOnUse">
<stop stop-color="#905CFB"/>
<stop offset="0.165" stop-color="#6677F8"/>
<stop offset="0.378" stop-color="#3596F5"/>
<stop offset="0.54" stop-color="#17A9F3"/>
<stop offset="0.632" stop-color="#0CB0F2"/>
</linearGradient>
<linearGradient id="paint1_linear_1_17880" x1="13.8558" y1="12.8598" x2="0.488072" y2="1.05275" gradientUnits="userSpaceOnUse">
<stop stop-color="#905CFB"/>
<stop offset="0.072" stop-color="#A554E6"/>
<stop offset="0.252" stop-color="#D641B5"/>
<stop offset="0.39" stop-color="#F43597"/>
<stop offset="0.468" stop-color="#FF318C"/>
</linearGradient>
<linearGradient id="paint2_linear_1_17880" x1="2.27771" y1="26.8274" x2="33.8389" y2="6.94078" gradientUnits="userSpaceOnUse">
<stop stop-color="#905CFB"/>
<stop offset="0.165" stop-color="#6677F8"/>
<stop offset="0.378" stop-color="#3596F5"/>
<stop offset="0.54" stop-color="#17A9F3"/>
<stop offset="0.632" stop-color="#0CB0F2"/>
</linearGradient>
<clipPath id="clip0_1_17880">
<rect width="32" height="32" fill="white"/>
</clipPath>
</defs>
</svg>
