<svg width="32" height="32" viewBox="0 0 32 32" fill="none" xmlns="http://www.w3.org/2000/svg">
<path d="M31 22.5651C31 25.0095 28.9095 27 26.3423 27H1V9.43492C1 6.99048 3.09046 5 5.6577 5H31V22.5651Z" fill="white"/>
<path d="M24.4534 6.48428C22.6197 6.48428 21.116 7.89857 21.116 9.66206V12.9621H25.8287C25.9387 12.9621 26.0671 12.9621 26.1588 12.9795C27.2224 13.0319 28.0109 13.5557 28.0109 14.4636C28.0109 15.1795 27.4791 15.7906 26.4889 15.9129V15.9478C27.5708 16.0176 28.3959 16.5938 28.3959 17.4843C28.3959 18.4446 27.4791 19.0732 26.2688 19.0732H21.0977V25.5335H25.9937C27.8275 25.5335 29.3312 24.1192 29.3312 22.3557V6.48428H24.4534Z" fill="url(#paint0_linear_1_18184)"/>
<path d="M22.748 18.0605H24.6735C24.701 18.0605 24.7468 18.0561 24.7927 18.0517C24.8385 18.0474 24.8844 18.043 24.9119 18.043C25.2786 17.9732 25.5903 17.6589 25.5903 17.2224C25.5903 16.8033 25.2786 16.489 24.9119 16.4017C24.8568 16.3843 24.7468 16.3843 24.6735 16.3843H22.748V18.0605Z" fill="url(#paint1_linear_1_18184)"/>
<path d="M24.6735 13.9223C25.0402 13.9747 25.352 14.254 25.352 14.6731C25.352 15.0921 25.0402 15.3715 24.6735 15.4239C24.6551 15.4413 24.5451 15.4413 24.4901 15.4413H22.748V13.9048H24.4901C24.5204 13.9048 24.5618 13.9101 24.599 13.9149C24.6294 13.9188 24.657 13.9223 24.6735 13.9223Z" fill="url(#paint2_linear_1_18184)"/>
<path d="M6.00614 6.48428C4.1724 6.48428 2.66873 7.89857 2.66873 9.66206V17.5017C3.60394 17.9383 4.57582 18.2176 5.5477 18.2176C6.70296 18.2176 7.32643 17.5541 7.32643 16.6462V12.9446H10.1871V16.6287C10.1871 18.0605 9.25186 19.2303 6.07949 19.2303C4.15406 19.2303 2.65039 18.8287 2.65039 18.8287V25.516H7.54648C9.38022 25.516 10.8839 24.1017 10.8839 22.3383V6.48428H6.00614Z" fill="url(#paint3_linear_1_18184)"/>
<path d="M15.23 6.48428C13.3962 6.48428 11.8926 7.89857 11.8926 9.66206V13.8176C12.7361 13.1367 14.2031 12.7002 16.5686 12.8049C17.8339 12.8573 19.1909 13.189 19.1909 13.189V14.5335C18.5124 14.2017 17.7055 13.9049 16.6603 13.8351C14.8632 13.7129 13.7813 14.551 13.7813 16.0176C13.7813 17.5017 14.8632 18.3398 16.6603 18.2002C17.7055 18.1303 18.5124 17.816 19.1909 17.5017V18.8462C19.1909 18.8462 17.8522 19.1779 16.5686 19.2303C14.2031 19.3351 12.7361 18.8986 11.8926 18.2176V25.5509H16.7887C18.6224 25.5509 20.1261 24.1367 20.1261 22.3732V6.48428H15.23Z" fill="url(#paint4_linear_1_18184)"/>
<defs>
<linearGradient id="paint0_linear_1_18184" x1="21.1124" y1="14.6704" x2="29.353" y2="14.6704" gradientUnits="userSpaceOnUse">
<stop stop-color="#007940"/>
<stop offset="0.2285" stop-color="#00873F"/>
<stop offset="0.7433" stop-color="#40A737"/>
<stop offset="1" stop-color="#5CB531"/>
</linearGradient>
<linearGradient id="paint1_linear_1_18184" x1="21.1124" y1="14.6704" x2="29.353" y2="14.6704" gradientUnits="userSpaceOnUse">
<stop stop-color="#007940"/>
<stop offset="0.2285" stop-color="#00873F"/>
<stop offset="0.7433" stop-color="#40A737"/>
<stop offset="1" stop-color="#5CB531"/>
</linearGradient>
<linearGradient id="paint2_linear_1_18184" x1="21.1124" y1="14.6704" x2="29.353" y2="14.6704" gradientUnits="userSpaceOnUse">
<stop stop-color="#007940"/>
<stop offset="0.2285" stop-color="#00873F"/>
<stop offset="0.7433" stop-color="#40A737"/>
<stop offset="1" stop-color="#5CB531"/>
</linearGradient>
<linearGradient id="paint3_linear_1_18184" x1="2.66456" y1="16.001" x2="11.0327" y2="16.001" gradientUnits="userSpaceOnUse">
<stop stop-color="#1F286F"/>
<stop offset="0.4751" stop-color="#004E94"/>
<stop offset="0.8261" stop-color="#0066B1"/>
<stop offset="1" stop-color="#006FBC"/>
</linearGradient>
<linearGradient id="paint4_linear_1_18184" x1="11.8449" y1="16.001" x2="19.972" y2="16.001" gradientUnits="userSpaceOnUse">
<stop stop-color="#6C2C2F"/>
<stop offset="0.1735" stop-color="#882730"/>
<stop offset="0.5731" stop-color="#BE1833"/>
<stop offset="0.8585" stop-color="#DC0436"/>
<stop offset="1" stop-color="#E60039"/>
</linearGradient>
</defs>
</svg>
