<svg width="32" height="32" viewBox="0 0 32 32" fill="none" xmlns="http://www.w3.org/2000/svg">
<path opacity="0.26" d="M5.3055 19.4874L5.30091 13.9286V12.264H2V2.99994L15.9198 3.06777L20.2742 3.07737C25.4853 3.07737 29.9988 7.15203 29.9988 12.5335V28.9434H15.0302C9.82371 28.9434 5.3055 24.8639 5.3055 19.4873V19.4874Z" fill="black"/>
<path d="M27.9993 24.652V12.7213C27.9993 8.73535 24.6174 5.50422 20.4447 5.50422H16.1136V5.49462L4.40039 5.44171V9.79479H6.19844C7.45357 9.79479 7.67527 10.6903 7.67527 11.9298L7.68456 19.6257C7.68456 23.6116 11.0665 26.8426 15.2346 26.8426H25.5257C26.8449 26.8426 27.9995 25.9791 27.9995 24.6519L27.9993 24.652Z" fill="url(#paint0_linear_1_17269)"/>
<path opacity="0.175" d="M26.9781 25.66C24.3463 23.7855 22.4824 21.6322 20.9123 18.7817C17.8172 12.8723 18.5409 9.93866 10.8765 9.24695C8.66466 9.24695 7.19243 8.74097 4.86426 8.74097V9.57896C4.86426 9.57896 5.78428 10.0617 6.59297 10.0617C7.79889 10.0617 8.00811 10.9262 8.00811 12.1171L8.01577 19.4932C8.01577 23.323 11.2701 26.4268 15.2748 26.4268H25.1575C25.883 26.4268 26.5346 26.1314 26.9781 25.66Z" fill="url(#paint1_linear_1_17269)"/>
<path d="M17.8188 9.97644C16.8797 9.97644 16.0453 10.3368 15.3748 11.0368C14.7047 11.7365 14.3529 12.6099 14.3529 13.5956V18.5784H16.5394V13.5955C16.5394 13.2177 16.6586 12.9223 16.9197 12.6498C17.1815 12.3765 17.4589 12.2527 17.8188 12.2527C18.1864 12.2527 18.4595 12.3759 18.722 12.6498C18.9829 12.9222 19.1023 13.2177 19.1023 13.5955V18.5783H21.2888V13.5955C21.2888 13.2177 21.408 12.9223 21.669 12.6498C21.9315 12.3758 22.2046 12.2527 22.5722 12.2527C22.9323 12.2527 23.2095 12.3765 23.4713 12.6498C23.7323 12.9222 23.8516 13.2177 23.8516 13.5955L23.8635 19.4175C23.8635 20.6595 22.7192 21.7062 21.2492 21.7062L14.1984 21.6776C13.064 21.6776 12.095 20.5362 12.095 19.0695V8.10602H10.0273V19.4913C10.0273 20.6993 10.455 21.7586 11.2869 22.6153C11.9981 23.3407 12.8532 23.77 13.8141 23.8761V23.9172H21.6651C22.8714 23.9172 23.9313 23.4535 24.7865 22.5538H24.7904C25.5176 21.7816 25.9427 20.8562 26.046 19.8147L26.0381 13.5956C26.0381 12.6099 25.6863 11.7365 25.0162 11.0368C24.3457 10.3368 23.5113 9.97644 22.5722 9.97644C21.6503 9.97644 20.8437 10.3307 20.1916 10.9795C19.5413 10.3317 18.7402 9.97644 17.8188 9.97644Z" fill="black" fill-opacity="0.08"/>
<path d="M17.6443 10.0359C16.7051 10.0359 15.8706 10.3963 15.2001 11.0962C14.53 11.796 14.1782 12.6693 14.1782 13.6551V18.6377H16.3647V13.6551C16.3647 13.2773 16.4839 12.9819 16.745 12.7094C17.0068 12.436 17.2842 12.3122 17.6443 12.3122C18.0117 12.3122 18.285 12.4355 18.5473 12.7094C18.8084 12.9818 18.9276 13.2773 18.9276 13.6551V18.6377H21.1142V13.6551C21.1142 13.2773 21.2334 12.9819 21.4945 12.7094C21.7569 12.4353 22.03 12.3122 22.3976 12.3122C22.7577 12.3122 23.0349 12.436 23.2968 12.7094C23.5579 12.9818 23.6771 13.2773 23.6771 13.6551L23.689 19.477C23.689 20.7191 22.5446 21.7657 21.0746 21.7657L14.0236 21.737C12.8892 21.737 11.9203 20.5957 11.9203 19.1291V8.16547H9.85254V19.5508C9.85254 20.7587 10.2802 21.8181 11.1122 22.6746C11.8233 23.4001 12.6786 23.8704 13.6394 23.9766H21.4905C22.6969 23.9766 23.7569 23.5129 24.612 22.6132H24.6159C25.3432 21.8409 25.7682 20.9156 25.8716 19.8742L25.8637 13.6551C25.8637 12.6693 25.5119 11.7959 24.8417 11.0962C24.1712 10.3963 23.3367 10.0359 22.3976 10.0359C21.4759 10.0359 20.6692 10.3902 20.017 11.0389C19.3666 10.3912 18.5656 10.0359 17.6443 10.0359Z" fill="white"/>
<path d="M15.1667 28.4949C10.1963 28.4949 5.8832 24.6005 5.8832 19.468L5.87883 13.2359V11.6467H2.72754V3.72858L20.1725 3.80239C25.1472 3.80239 29.4558 7.69222 29.4558 12.8294V28.4949H15.1667ZM27.4313 24.2927V12.8294C27.4313 8.99968 24.1819 5.89528 20.1726 5.89528L4.75691 5.83514V9.55405H6.01762C6.87355 9.55405 7.9035 10.3854 7.9035 11.6053L7.91246 19.4633C7.91246 23.2931 11.1619 26.3975 15.1666 26.3975H25.0544C26.322 26.3975 27.4313 25.5678 27.4313 24.2927Z" fill="white"/>
<defs>
<linearGradient id="paint0_linear_1_17269" x1="6.65269" y1="8.17247" x2="19.3466" y2="21.6397" gradientUnits="userSpaceOnUse">
<stop stop-color="#C7F994"/>
<stop offset="1" stop-color="#87CF3E"/>
</linearGradient>
<linearGradient id="paint1_linear_1_17269" x1="9.24523" y1="24.6119" x2="17.1539" y2="12.6143" gradientUnits="userSpaceOnUse">
<stop stop-color="#3D3D3D"/>
<stop offset="1" stop-opacity="0.114"/>
</linearGradient>
</defs>
</svg>
