<svg width="32" height="32" viewBox="0 0 32 32" fill="none" xmlns="http://www.w3.org/2000/svg">
<circle opacity="0.852" cx="16" cy="16" r="14" fill="url(#paint0_radial_1_18039)"/>
<path d="M6.75137 26.5333C6.73227 26.5194 6.7127 26.5016 6.69312 26.4801C6.33073 26.1505 5.74045 25.6304 5.12362 24.8445C4.5909 23.6889 4.89287 21.748 6.20386 19.0075C8.05357 15.141 11.0131 11.2151 12.2265 9.82253C11.8813 9.43735 10.8119 8.38256 9.29659 7.2448C7.7813 6.10705 6.67738 5.9905 6.29264 6.05964C6.64779 5.67446 7.47646 4.94855 8.17196 4.45967C10.3265 3.39302 14.3081 5.19546 16.0148 6.2226V13.2891C11.6642 16.6372 7.63924 21.8075 6.82536 23.8223C6.20418 25.36 6.44975 26.2129 6.69312 26.4801C6.71325 26.4984 6.73269 26.5162 6.75137 26.5333Z" fill="url(#paint1_linear_1_18039)"/>
<path d="M6.75137 26.533C6.73227 26.5191 6.7127 26.5013 6.69311 26.4798C6.33072 26.1502 5.74045 25.6301 5.12362 24.8442C4.5909 23.6886 4.89287 21.7477 6.20386 19.0072C8.35133 14.5182 12.2265 9.82224 12.2265 9.82224C12.2265 9.82224 12.9185 11.5404 14.4888 14.5182C10.4444 18.1034 7.63923 21.8072 6.82536 23.822C6.20418 25.3597 6.44974 26.2126 6.69311 26.4798C6.71325 26.4981 6.73268 26.5159 6.75137 26.533Z" fill="url(#paint2_linear_1_18039)"/>
<path d="M25.2779 26.5333C25.297 26.5194 25.3166 26.5016 25.3362 26.4801C25.6986 26.1505 26.2888 25.6304 26.9057 24.8445C27.4384 23.6889 27.1364 21.748 25.8254 19.0075C23.9757 15.141 21.0162 11.2151 19.8028 9.82253C20.148 9.43735 21.2174 8.38256 22.7327 7.2448C24.248 6.10705 25.3519 5.9905 25.7367 6.05964C25.3815 5.67446 24.5528 4.94855 23.8573 4.45967C21.7028 3.39302 17.7212 5.19546 16.0145 6.2226V13.2891C20.3651 16.6372 24.3901 21.8075 25.2039 23.8223C25.8251 25.36 25.5796 26.2129 25.3362 26.4801C25.316 26.4984 25.2966 26.5162 25.2779 26.5333Z" fill="url(#paint3_linear_1_18039)"/>
<path d="M25.2779 26.533C25.297 26.5191 25.3166 26.5013 25.3362 26.4798C25.6986 26.1502 26.2888 25.6301 26.9057 24.8442C27.4384 23.6886 27.1364 21.7477 25.8254 19.0072C23.678 14.5182 19.8028 9.82224 19.8028 9.82224C19.8028 9.82224 19.1108 11.5404 17.5405 14.5182C21.5849 18.1034 24.3901 21.8072 25.2039 23.822C25.8251 25.3597 25.5796 26.2126 25.3362 26.4798C25.3161 26.4981 25.2966 26.5159 25.2779 26.533Z" fill="url(#paint4_linear_1_18039)"/>
<defs>
<radialGradient id="paint0_radial_1_18039" cx="0" cy="0" r="1" gradientUnits="userSpaceOnUse" gradientTransform="translate(16 14.5) rotate(90.0548) scale(15.5)">
<stop stop-color="#FAFAFA"/>
<stop offset="0.499976" stop-color="#EFEFEF"/>
<stop offset="0.828794" stop-color="#C0BEC0"/>
<stop offset="1" stop-color="#879288"/>
</radialGradient>
<linearGradient id="paint1_linear_1_18039" x1="12.9925" y1="4.72592" x2="13.2296" y2="12.7852" gradientUnits="userSpaceOnUse">
<stop stop-color="#008B00"/>
<stop offset="1" stop-color="#6CC329"/>
</linearGradient>
<linearGradient id="paint2_linear_1_18039" x1="10.1481" y1="12.6667" x2="12.874" y2="16.4" gradientUnits="userSpaceOnUse">
<stop stop-color="#008C00"/>
<stop offset="1" stop-color="#48BF21"/>
</linearGradient>
<linearGradient id="paint3_linear_1_18039" x1="19.0368" y1="4.72592" x2="18.7997" y2="12.7852" gradientUnits="userSpaceOnUse">
<stop stop-color="#008B00"/>
<stop offset="1" stop-color="#6CC329"/>
</linearGradient>
<linearGradient id="paint4_linear_1_18039" x1="21.8812" y1="12.6667" x2="19.1553" y2="16.4" gradientUnits="userSpaceOnUse">
<stop stop-color="#008C00"/>
<stop offset="1" stop-color="#48BF21"/>
</linearGradient>
</defs>
</svg>
