<svg width="32" height="32" viewBox="0 0 32 32" fill="none" xmlns="http://www.w3.org/2000/svg">
<path d="M16 2C8.27812 2 2 8.27812 2 16C2 23.7219 8.27812 30 16 30C23.7219 30 30 23.7219 30 16C30 8.27812 23.7219 2 16 2Z" fill="white"/>
<path d="M16.3195 4.18742C16.1796 3.93753 15.8204 3.93753 15.6805 4.18742L11.9636 10.8234C11.9114 10.9165 11.8213 10.9822 11.7168 11.0035L4.2939 12.5106C4.0147 12.5673 3.90408 12.9075 4.09639 13.118L9.22323 18.7299C9.29486 18.8083 9.32904 18.914 9.31691 19.0196L8.44739 26.5905C8.41475 26.8747 8.70493 27.0854 8.96443 26.9658L15.8469 23.796C15.9441 23.7513 16.0559 23.7513 16.1531 23.796L23.0356 26.9658C23.2951 27.0854 23.5852 26.8747 23.5526 26.5905L22.9165 21.0518C22.9165 21.0518 22.8582 20.5443 22.6831 19.0196C22.671 18.914 22.7051 18.8083 22.7768 18.7299L27.9036 13.118C28.0959 12.9075 27.9853 12.5673 27.7061 12.5106L20.2832 11.0035C20.1787 10.9822 20.0886 10.9165 20.0364 10.8234L16.3195 4.18742Z" fill="#FECE48"/>
<path d="M15.3286 16.6132C14.8401 15.4634 11.2374 14.4013 9.49707 14.0139C10.8404 13.1088 15.8374 13.1679 18.168 13.3106C18.7671 13.3795 20.2856 13.5433 21.5984 14.0494C21.6714 14.0775 21.6984 14.1651 21.65 14.2266C20.931 15.1423 18.3732 17.5127 17.1299 18.6315L16.6109 19.2737C18.6361 19.3858 23.1018 19.5428 24.7627 19.2737C24.2132 19.977 23.3787 20.8026 22.9309 21.2002C22.9614 21.4448 22.9919 21.8423 23.0835 22.4845C14.4615 23.2429 10.9626 21.6283 10.2604 20.7415C10.3723 20.6294 11.5427 19.6467 15.3286 16.6132Z" fill="#F6AD46"/>
<path d="M15.6334 12.3015C13.3404 12.3015 10.723 13.2274 9.43508 13.8194C9.31833 13.8731 9.35941 14.0372 9.48785 14.0353C14.3872 13.9644 16.6961 14.4559 17.2467 14.8192C17.3047 14.8575 17.2988 14.9348 17.2436 14.9773C15.1006 16.6287 11.2335 19.8154 10.2575 20.6263C10.1758 20.6941 10.2161 20.8245 10.3214 20.8373C16.7001 21.6119 22.4594 20.4054 24.6847 19.3615C24.8042 19.3055 24.7493 19.1477 24.6181 19.1612C21.243 19.5068 17.4825 18.6429 15.9782 18.0933C15.8908 18.0613 15.8737 17.9484 15.9459 17.8895C17.1913 16.8729 19.7087 14.8211 21.1823 13.6297C21.2467 13.5776 21.2415 13.4781 21.1715 13.4339C20.048 12.724 18.7687 12.3015 15.6334 12.3015Z" fill="white"/>
</svg>
