<svg width="32" height="32" viewBox="0 0 32 32" fill="none" xmlns="http://www.w3.org/2000/svg">
<path d="M2 16C2 8.26801 8.26801 2 16 2C23.732 2 30 8.26801 30 16C30 23.732 23.732 30 16 30C8.26801 30 2 23.732 2 16Z" fill="#59316B"/>
<path d="M17.0341 5.64229L16.4629 7.96739C17.272 6.32521 18.5572 5.0895 20.0329 4C18.9539 5.28452 17.9703 6.56916 17.3673 7.85369C18.3828 6.39022 19.7473 5.57729 21.2863 5.04069C19.2395 6.91062 17.6148 8.91715 16.3772 10.9334L15.3936 10.4944C15.5679 8.88465 16.1614 7.23589 17.0341 5.64229Z" fill="#ABCD03"/>
<path d="M14.4073 10.067L16.2796 10.863C16.2796 11.3509 16.2409 12.8391 16.5386 13.278C19.6525 17.3878 19.1286 25.626 15.9079 25.8373C11.0033 25.8373 9.13281 22.4228 9.13281 19.2846C9.13281 16.4227 12.4805 14.5203 14.4798 12.8293C14.9875 12.374 14.8994 11.3679 14.4073 10.067Z" fill="#FFFCDB"/>
<path d="M16.2803 10.8344L16.955 11.1871C16.8916 11.6423 16.9867 12.6506 17.4309 12.9106C19.3984 14.1626 21.2547 15.5285 21.9846 16.8943C24.5868 21.7074 20.16 26.1625 16.3362 25.7397C18.4147 24.1625 19.0176 20.9268 18.2402 17.3983C17.9229 16.0161 17.4309 14.7641 16.5582 13.3494C16.1801 12.655 16.3121 11.7938 16.2803 10.8344Z" fill="white"/>
<path d="M15.9552 10.7156L17.3514 10.9107C16.9389 12.309 18.1607 13.2846 18.5573 13.5124C19.4458 14.0165 20.3026 14.5367 20.9849 15.1708C22.2702 16.3741 23 18.0652 23 19.8538C23 21.6261 22.2066 23.3334 20.8739 24.4716C19.6204 25.5448 17.891 26.0001 16.2091 26.0001C15.1619 26.0001 14.2258 25.9514 13.2104 25.6098C10.894 24.813 9.16445 22.7806 9.02167 20.3414C8.89469 18.439 9.30723 16.9918 10.7512 15.4797C11.4968 14.6829 13.0042 13.7724 14.0356 13.0407C14.5434 12.6829 15.0828 11.6747 14.0514 9.77238L14.2577 9.60974L15.7862 10.6589L14.4958 10.1138C14.6068 10.2765 14.9083 11.0082 14.9719 11.2195C15.1147 11.8211 15.0512 12.4067 14.9242 12.6667C14.2738 13.87 13.1631 14.1952 12.354 14.8781C10.9259 16.0813 9.37101 17.0407 9.54551 20.3414C9.62486 21.9674 10.8625 23.9512 12.7187 24.878C13.766 25.3985 14.9719 25.6098 16.1936 25.6748C17.2883 25.7236 19.3827 25.0569 20.5251 24.0813C21.7468 23.0407 22.4291 21.4634 22.4291 19.8538C22.4291 18.2277 21.7944 16.683 20.6044 15.5935C19.9221 14.9594 18.7957 14.1952 18.0976 13.7886C17.3995 13.3821 16.5268 12.2439 16.8123 11.1545L15.9552 10.7156Z" fill="black"/>
<path d="M15.5267 13.1219C15.3839 13.87 15.2252 15.2195 14.5906 15.7236C14.3208 15.9186 14.051 16.1139 13.7655 16.3089C12.6231 17.1058 11.4806 17.8536 10.9572 19.7723C10.8461 20.1789 10.9414 20.6179 11.0366 21.0243C11.3222 22.195 12.1313 23.4634 12.766 24.2114C12.766 24.2439 12.893 24.3252 12.893 24.3577C13.4166 24.992 13.5753 25.1708 15.5585 25.626L15.5109 25.8537C14.3209 25.5286 13.3373 25.2359 12.7184 24.5041C12.7184 24.4879 12.6073 24.3739 12.6073 24.3739C11.9409 23.5934 11.1316 22.2927 10.8303 21.0732C10.7192 20.5853 10.6241 20.2114 10.7509 19.7072C11.2903 17.7236 12.4645 16.943 13.6545 16.1138C13.9243 15.9349 14.2416 15.7722 14.4954 15.5609C14.9872 15.187 15.2568 14.0487 15.5267 13.1219Z" fill="black"/>
<path d="M16.0344 16.2113C16.0504 17.0569 15.9698 17.481 16.176 18.0828C16.3029 18.4404 16.7316 18.9282 16.8586 19.3998C17.0331 20.0341 17.2231 20.7332 17.2071 21.156C17.2071 21.6439 17.1773 22.554 16.9711 23.5297C16.8139 24.3358 16.4514 25.0276 15.842 25.4197C15.2178 25.288 14.4848 25.0631 14.0522 24.6831C13.2113 23.9351 12.4665 22.6845 12.3713 21.595C12.292 20.7007 13.1 19.3819 14.2265 18.7153C15.1784 18.1462 15.3998 17.4976 15.606 16.4569C15.3205 17.3674 15.0523 18.1307 14.1321 18.6185C12.7993 19.3339 12.1154 20.5349 12.1789 21.6731C12.274 23.1365 12.8459 24.128 13.9723 24.9249C14.4483 25.2664 15.3375 25.6272 15.8929 25.7248V25.6504C16.314 25.5696 16.8592 24.8607 17.1309 23.9017C17.3689 23.04 17.4627 21.937 17.4467 21.2378C17.4308 20.8313 17.2558 19.951 16.9384 19.1543C16.7639 18.7153 16.4959 18.2764 16.3213 17.9674C16.1311 17.6582 16.1297 16.9917 16.0344 16.2113Z" fill="black"/>
<path d="M15.9395 19.3998C15.9553 19.9689 16.1784 20.6981 16.2735 21.4461C16.353 21.999 16.3185 22.5543 16.3026 23.0422C16.2869 23.607 16.1033 24.6188 15.8524 25.1109C15.6158 24.9997 15.5233 24.8729 15.3695 24.6681C15.1792 24.3917 15.05 24.1152 14.923 23.7901C14.8278 23.5461 14.7166 23.2669 14.6689 22.9418C14.6054 22.454 14.6232 21.6909 15.1626 20.9103C15.5751 20.2924 15.6697 20.2454 15.8125 19.53C15.6219 20.1641 15.4799 20.2288 15.0355 20.7652C14.5438 21.3507 14.4619 22.2129 14.4619 22.912C14.4619 23.2048 14.5758 23.5296 14.687 23.8384C14.8139 24.1637 14.9228 24.4875 15.0973 24.7314C15.3596 25.1267 15.6953 25.3516 15.8597 25.3936C15.8607 25.3939 15.8622 25.3934 15.8633 25.3936C15.8668 25.3945 15.8708 25.3967 15.8742 25.3974V25.3788C16.182 25.027 16.3673 24.6776 16.4296 24.3258C16.509 23.9031 16.5272 23.4794 16.5749 22.9753C16.6224 22.5525 16.5879 21.983 16.4768 21.3977C16.3183 20.666 16.0506 19.9199 15.9395 19.3998L15.9395 19.3998Z" fill="black"/>
<path d="M15.9871 12.4391C16.003 13.2845 16.0664 14.8619 16.2886 15.4797C16.352 15.6911 16.939 16.6179 17.3515 17.7398C17.6371 18.5204 17.7006 19.2358 17.7482 19.4471C17.9386 20.374 17.7006 21.935 17.3832 23.4146C17.2246 24.2114 16.6851 25.2032 16.0663 25.5935L15.9395 25.8211C16.2886 25.8048 17.1452 24.9431 17.4467 23.8699C17.9545 22.0488 18.1607 21.2032 17.9228 19.187C17.8911 18.9917 17.8118 18.3252 17.5103 17.6097C17.066 16.5202 16.4313 15.4796 16.3521 15.2682C16.2092 14.9268 16.0188 13.4472 15.9871 12.4391Z" fill="black"/>
<path d="M16.2845 11.2827C16.2375 12.1516 16.2249 12.4716 16.3834 13.1057C16.5579 13.8049 17.4466 14.813 17.8115 15.9675C18.5096 18.1789 18.3351 21.0732 17.8273 23.3333C17.637 24.1299 16.7324 25.2846 15.8281 25.6584L16.4945 25.821C16.8594 25.8047 17.7955 24.9105 18.1605 23.8861C18.7474 22.2763 18.8586 20.3577 18.6205 18.3414C18.6046 18.1463 18.2872 16.4065 17.9859 15.6748C17.5574 14.5854 16.7958 13.6097 16.7165 13.3985C16.5739 13.0407 16.2604 12.2979 16.2845 11.2827Z" fill="black"/>
<rect x="15.7803" y="10.6713" width="0.492005" height="15.0036" fill="black"/>
</svg>
