<svg width="30" height="40" viewBox="0 0 30 40" fill="none" xmlns="http://www.w3.org/2000/svg">
<g clip-path="url(#clip0_1_62261)">
<mask id="mask0_1_62261" style="mask-type:alpha" maskUnits="userSpaceOnUse" x="0" y="0" width="30" height="40">
<path d="M18.4046 0.572266H3.18933C1.71255 0.572266 0.504272 1.76443 0.504272 3.22152V36.7787C0.504272 38.2358 1.71255 39.428 3.18933 39.428H26.4598C27.9366 39.428 29.1449 38.2358 29.1449 36.7787V11.1693L18.4046 0.572266Z" fill="white"/>
</mask>
<g mask="url(#mask0_1_62261)">
<path d="M18.4046 0.572266H3.18933C1.71255 0.572266 0.504272 1.76443 0.504272 3.22152V36.7787C0.504272 38.2358 1.71255 39.428 3.18933 39.428H26.4598C27.9366 39.428 29.1449 38.2358 29.1449 36.7787V11.1693L22.8797 6.75384L18.4046 0.572266Z" fill="#0F9D58"/>
</g>
<mask id="mask1_1_62261" style="mask-type:alpha" maskUnits="userSpaceOnUse" x="0" y="0" width="30" height="40">
<path d="M18.4046 0.572266H3.18933C1.71255 0.572266 0.504272 1.76443 0.504272 3.22152V36.7787C0.504272 38.2358 1.71255 39.428 3.18933 39.428H26.4598C27.9366 39.428 29.1449 38.2358 29.1449 36.7787V11.1693L18.4046 0.572266Z" fill="white"/>
</mask>
<g mask="url(#mask1_1_62261)">
<path d="M7.66443 19.5586V32.3633H21.9847V19.5586H7.66443ZM13.9296 30.5972H9.4545V28.3894H13.9296V30.5972ZM13.9296 27.0648H9.4545V24.8571H13.9296V27.0648ZM13.9296 23.5325H9.4545V21.3248H13.9296V23.5325ZM20.1947 30.5972H15.7196V28.3894H20.1947V30.5972ZM20.1947 27.0648H15.7196V24.8571H20.1947V27.0648ZM20.1947 23.5325H15.7196V21.3248H20.1947V23.5325Z" fill="#F1F1F1"/>
</g>
<mask id="mask2_1_62261" style="mask-type:alpha" maskUnits="userSpaceOnUse" x="0" y="0" width="30" height="40">
<path d="M18.4046 0.572266H3.18933C1.71255 0.572266 0.504272 1.76443 0.504272 3.22152V36.7787C0.504272 38.2358 1.71255 39.428 3.18933 39.428H26.4598C27.9366 39.428 29.1449 38.2358 29.1449 36.7787V11.1693L18.4046 0.572266Z" fill="white"/>
</mask>
<g mask="url(#mask2_1_62261)">
<path d="M19.1899 10.3943L29.1448 20.2142V11.1692L19.1899 10.3943Z" fill="url(#paint0_linear_1_62261)"/>
</g>
<mask id="mask3_1_62261" style="mask-type:alpha" maskUnits="userSpaceOnUse" x="0" y="0" width="30" height="40">
<path d="M18.4046 0.572266H3.18933C1.71255 0.572266 0.504272 1.76443 0.504272 3.22152V36.7787C0.504272 38.2358 1.71255 39.428 3.18933 39.428H26.4598C27.9366 39.428 29.1449 38.2358 29.1449 36.7787V11.1693L18.4046 0.572266Z" fill="white"/>
</mask>
<g mask="url(#mask3_1_62261)">
<path d="M18.4047 0.572266V8.52004C18.4047 9.98372 19.6062 11.1693 21.0897 11.1693H29.1449L18.4047 0.572266Z" fill="#87CEAC"/>
</g>
<mask id="mask4_1_62261" style="mask-type:alpha" maskUnits="userSpaceOnUse" x="0" y="0" width="30" height="40">
<path d="M18.4046 0.572266H3.18933C1.71255 0.572266 0.504272 1.76443 0.504272 3.22152V36.7787C0.504272 38.2358 1.71255 39.428 3.18933 39.428H26.4598C27.9366 39.428 29.1449 38.2358 29.1449 36.7787V11.1693L18.4046 0.572266Z" fill="white"/>
</mask>
<g mask="url(#mask4_1_62261)">
<path d="M3.18933 0.572266C1.71255 0.572266 0.504272 1.76443 0.504272 3.22152V3.44229C0.504272 1.9852 1.71255 0.793038 3.18933 0.793038H18.4046V0.572266H3.18933Z" fill="white" fill-opacity="0.2"/>
</g>
<mask id="mask5_1_62261" style="mask-type:alpha" maskUnits="userSpaceOnUse" x="0" y="0" width="30" height="40">
<path d="M18.4046 0.572266H3.18933C1.71255 0.572266 0.504272 1.76443 0.504272 3.22152V36.7787C0.504272 38.2358 1.71255 39.428 3.18933 39.428H26.4598C27.9366 39.428 29.1449 38.2358 29.1449 36.7787V11.1693L18.4046 0.572266Z" fill="white"/>
</mask>
<g mask="url(#mask5_1_62261)">
<path d="M26.4598 39.2071H3.18933C1.71255 39.2071 0.504272 38.0149 0.504272 36.5579V36.7786C0.504272 38.2357 1.71255 39.4279 3.18933 39.4279H26.4598C27.9366 39.4279 29.1449 38.2357 29.1449 36.7786V36.5579C29.1449 38.0149 27.9366 39.2071 26.4598 39.2071Z" fill="#263238" fill-opacity="0.2"/>
</g>
<mask id="mask6_1_62261" style="mask-type:alpha" maskUnits="userSpaceOnUse" x="0" y="0" width="30" height="40">
<path d="M18.4046 0.572266H3.18933C1.71255 0.572266 0.504272 1.76443 0.504272 3.22152V36.7787C0.504272 38.2358 1.71255 39.428 3.18933 39.428H26.4598C27.9366 39.428 29.1449 38.2358 29.1449 36.7787V11.1693L18.4046 0.572266Z" fill="white"/>
</mask>
<g mask="url(#mask6_1_62261)">
<path d="M21.0897 11.1693C19.6062 11.1693 18.4047 9.9837 18.4047 8.52002V8.74078C18.4047 10.2045 19.6062 11.39 21.0897 11.39H29.1449V11.1693H21.0897Z" fill="#263238" fill-opacity="0.1"/>
</g>
<path d="M18.4046 0.572266H3.18933C1.71255 0.572266 0.504272 1.76443 0.504272 3.22152V36.7787C0.504272 38.2358 1.71255 39.428 3.18933 39.428H26.4598C27.9366 39.428 29.1449 38.2358 29.1449 36.7787V11.1693L18.4046 0.572266Z" fill="url(#paint1_radial_1_62261)"/>
</g>
<defs>
<linearGradient id="paint0_linear_1_62261" x1="24.1679" y1="11.2374" x2="24.1679" y2="20.2156" gradientUnits="userSpaceOnUse">
<stop stop-color="#263238" stop-opacity="0.2"/>
<stop offset="1" stop-color="#263238" stop-opacity="0.02"/>
</linearGradient>
<radialGradient id="paint1_radial_1_62261" cx="0" cy="0" r="1" gradientUnits="userSpaceOnUse" gradientTransform="translate(1.41162 1.3446) scale(46.1826 45.5668)">
<stop stop-color="white" stop-opacity="0.1"/>
<stop offset="1" stop-color="white" stop-opacity="0"/>
</radialGradient>
<clipPath id="clip0_1_62261">
<rect width="30" height="40" fill="white"/>
</clipPath>
</defs>
</svg>
