<svg width="9" height="53" viewBox="0 0 9 53" fill="none" xmlns="http://www.w3.org/2000/svg">
<path fill-rule="evenodd" clip-rule="evenodd" d="M5.83565 38.868C5.6983 39.0736 5.62499 39.3153 5.62499 39.5625C5.62499 39.894 5.75669 40.212 5.99111 40.4464C6.22553 40.6808 6.54347 40.8125 6.87499 40.8125C7.12222 40.8125 7.36389 40.7392 7.56945 40.6018C7.77502 40.4645 7.93523 40.2693 8.02984 40.0409C8.12445 39.8124 8.1492 39.5611 8.10097 39.3186C8.05274 39.0762 7.93369 38.8534 7.75887 38.6786C7.58406 38.5038 7.36133 38.3847 7.11885 38.3365C6.87638 38.2883 6.62505 38.313 6.39664 38.4077C6.16823 38.5023 5.97301 38.6625 5.83565 38.868ZM0.555529 38.5232C0.76109 38.3858 1.00276 38.3125 1.24999 38.3125C1.58151 38.3125 1.89945 38.4442 2.13387 38.6786C2.36829 38.913 2.49999 39.231 2.49999 39.5625C2.49999 39.8097 2.42668 40.0514 2.28933 40.257C2.15198 40.4625 1.95675 40.6227 1.72835 40.7173C1.49994 40.812 1.2486 40.8367 1.00613 40.7885C0.763652 40.7403 0.540924 40.6212 0.366108 40.4464C0.191293 40.2716 0.0722417 40.0488 0.0240096 39.8064C-0.0242215 39.5639 0.000532973 39.3126 0.0951422 39.0841C0.189751 38.8557 0.349967 38.6605 0.555529 38.5232ZM7.56945 35.2893C7.36389 35.4267 7.12222 35.5 6.87499 35.5C6.54347 35.5 6.22553 35.3683 5.99111 35.1339C5.75669 34.8995 5.62499 34.5815 5.62499 34.25C5.62499 34.0028 5.6983 33.7611 5.83565 33.5555C5.97301 33.35 6.16823 33.1898 6.39664 33.0952C6.62505 33.0005 6.87638 32.9758 7.11885 33.024C7.36133 33.0722 7.58406 33.1913 7.75887 33.3661C7.93369 33.5409 8.05274 33.7637 8.10097 34.0061C8.1492 34.2486 8.12445 34.4999 8.02984 34.7284C7.93523 34.9568 7.77502 35.152 7.56945 35.2893ZM1.94445 35.2893C1.73889 35.4267 1.49722 35.5 1.24999 35.5C0.91847 35.5 0.600528 35.3683 0.366108 35.1339C0.131687 34.8995 -1.00815e-05 34.5815 -1.01105e-05 34.25C-1.01321e-05 34.0028 0.0733017 33.7611 0.210653 33.5555C0.348005 33.35 0.543229 33.1898 0.771637 33.0952C1.00004 33.0005 1.25138 32.9758 1.49385 33.024C1.73633 33.0723 1.95906 33.1913 2.13387 33.3661C2.30869 33.5409 2.42774 33.7637 2.47597 34.0061C2.5242 34.2486 2.49945 34.4999 2.40484 34.7284C2.31023 34.9568 2.15002 35.152 1.94445 35.2893ZM5.83566 27.868C5.69831 28.0736 5.625 28.3153 5.625 28.5625C5.625 28.894 5.75669 29.212 5.99111 29.4464C6.22553 29.6808 6.54348 29.8125 6.875 29.8125C7.12222 29.8125 7.3639 29.7392 7.56946 29.6018C7.77502 29.4645 7.93524 29.2693 8.02985 29.0409C8.12446 28.8124 8.14921 28.5611 8.10098 28.3186C8.05275 28.0762 7.9337 27.8534 7.75888 27.6786C7.58406 27.5038 7.36134 27.3847 7.11886 27.3365C6.87638 27.2883 6.62505 27.313 6.39664 27.4077C6.16824 27.5023 5.97301 27.6625 5.83566 27.868ZM0.555534 27.5232C0.761095 27.3858 1.00277 27.3125 1.25 27.3125C1.58152 27.3125 1.89946 27.4442 2.13388 27.6786C2.3683 27.913 2.5 28.231 2.5 28.5625C2.5 28.8097 2.42668 29.0514 2.28933 29.257C2.15198 29.4625 1.95676 29.6227 1.72835 29.7173C1.49994 29.812 1.24861 29.8367 1.00613 29.7885C0.763657 29.7403 0.540929 29.6212 0.366113 29.4464C0.191297 29.2716 0.0722465 29.0488 0.0240144 28.8064C-0.0242168 28.5639 0.000537733 28.3126 0.095147 28.0841C0.189756 27.8557 0.349972 27.6605 0.555534 27.5232ZM7.56946 24.2893C7.3639 24.4267 7.12222 24.5 6.875 24.5C6.54348 24.5 6.22553 24.3683 5.99111 24.1339C5.75669 23.8995 5.625 23.5815 5.625 23.25C5.625 23.0028 5.69831 22.7611 5.83566 22.5555C5.97301 22.35 6.16823 22.1898 6.39664 22.0952C6.62505 22.0005 6.87638 21.9758 7.11886 22.024C7.36134 22.0723 7.58406 22.1913 7.75888 22.3661C7.93369 22.5409 8.05275 22.7637 8.10098 23.0061C8.14921 23.2486 8.12446 23.4999 8.02985 23.7284C7.93524 23.9568 7.77502 24.152 7.56946 24.2893ZM1.94446 24.2893C1.7389 24.4267 1.49722 24.5 1.25 24.5C0.918475 24.5 0.600533 24.3683 0.366113 24.1339C0.131692 23.8995 -5.32108e-06 23.5815 -5.35006e-06 23.25C-5.37167e-06 23.0028 0.0733064 22.7611 0.210658 22.5555C0.348009 22.35 0.543234 22.1898 0.771642 22.0952C1.00005 22.0005 1.25138 21.9758 1.49386 22.024C1.73634 22.0723 1.95906 22.1913 2.13388 22.3661C2.30869 22.5409 2.42775 22.7637 2.47598 23.0061C2.52421 23.2486 2.49945 23.4999 2.40485 23.7284C2.31024 23.9568 2.15002 24.152 1.94446 24.2893ZM5.625 17.5625C5.625 17.3153 5.69831 17.0736 5.83566 16.868C5.97301 16.6625 6.16824 16.5023 6.39664 16.4077C6.62505 16.313 6.87638 16.2883 7.11886 16.3365C7.36134 16.3847 7.58406 16.5038 7.75888 16.6786C7.9337 16.8534 8.05275 17.0762 8.10098 17.3186C8.14921 17.5611 8.12446 17.8124 8.02985 18.0409C7.93524 18.2693 7.77502 18.4645 7.56946 18.6018C7.3639 18.7392 7.12222 18.8125 6.875 18.8125C6.54348 18.8125 6.22553 18.6808 5.99111 18.4464C5.75669 18.212 5.625 17.894 5.625 17.5625ZM1.25 16.3125C1.00277 16.3125 0.761096 16.3858 0.555535 16.5232C0.349973 16.6605 0.189757 16.8557 0.0951479 17.0841C0.000538679 17.3126 -0.0242158 17.5639 0.0240153 17.8064C0.0722474 18.0488 0.191298 18.2716 0.366114 18.4464C0.54093 18.6212 0.763658 18.7403 1.00613 18.7885C1.24861 18.8367 1.49994 18.812 1.72835 18.7173C1.95676 18.6227 2.15198 18.4625 2.28933 18.257C2.42669 18.0514 2.5 17.8097 2.5 17.5625C2.5 17.231 2.3683 16.913 2.13388 16.6786C1.89946 16.4442 1.58152 16.3125 1.25 16.3125ZM6.875 13.5C7.12222 13.5 7.3639 13.4267 7.56946 13.2893C7.77502 13.152 7.93524 12.9568 8.02985 12.7284C8.12446 12.4999 8.14921 12.2486 8.10098 12.0061C8.05275 11.7637 7.9337 11.5409 7.75888 11.3661C7.58406 11.1913 7.36134 11.0723 7.11886 11.024C6.87638 10.9758 6.62505 11.0005 6.39664 11.0952C6.16824 11.1898 5.97301 11.35 5.83566 11.5555C5.69831 11.7611 5.625 12.0028 5.625 12.25C5.625 12.5815 5.75669 12.8995 5.99111 13.1339C6.22553 13.3683 6.54348 13.5 6.875 13.5ZM1.25 13.5C1.49722 13.5 1.7389 13.4267 1.94446 13.2893C2.15002 13.152 2.31024 12.9568 2.40485 12.7284C2.49946 12.4999 2.52421 12.2486 2.47598 12.0061C2.42775 11.7637 2.3087 11.5409 2.13388 11.3661C1.95906 11.1913 1.73634 11.0723 1.49386 11.024C1.25138 10.9758 1.00005 11.0005 0.771642 11.0952C0.543235 11.1898 0.34801 11.35 0.210659 11.5555C0.0733074 11.7611 -4.42597e-06 12.0028 -4.40436e-06 12.25C-4.37538e-06 12.5815 0.131693 12.8995 0.366114 13.1339C0.600534 13.3683 0.918476 13.5 1.25 13.5ZM5.83566 5.86804C5.69831 6.0736 5.625 6.31527 5.625 6.5625C5.625 6.89402 5.75669 7.21196 5.99111 7.44638C6.22553 7.68081 6.54348 7.8125 6.875 7.8125C7.12222 7.8125 7.3639 7.73919 7.56946 7.60184C7.77502 7.46449 7.93524 7.26926 8.02985 7.04086C8.12446 6.81245 8.14921 6.56111 8.10098 6.31864C8.05275 6.07616 7.9337 5.85343 7.75888 5.67862C7.58406 5.5038 7.36134 5.38475 7.11886 5.33652C6.87638 5.28829 6.62505 5.31304 6.39664 5.40765C6.16824 5.50226 5.97301 5.66248 5.83566 5.86804ZM0.555534 5.52316C0.761095 5.38581 1.00277 5.3125 1.25 5.3125C1.58152 5.3125 1.89946 5.4442 2.13388 5.67862C2.3683 5.91304 2.5 6.23098 2.5 6.5625C2.5 6.80973 2.42668 7.0514 2.28933 7.25696C2.15198 7.46252 1.95676 7.62274 1.72835 7.71735C1.49994 7.81196 1.24861 7.83671 1.00613 7.78848C0.763657 7.74025 0.540929 7.6212 0.366113 7.44639C0.191297 7.27157 0.0722465 7.04884 0.0240144 6.80636C-0.0242168 6.56389 0.000537717 6.31255 0.095147 6.08415C0.189756 5.85574 0.349972 5.66052 0.555534 5.52316ZM7.56946 2.28934C7.3639 2.42669 7.12222 2.5 6.875 2.5C6.54348 2.5 6.22553 2.36831 5.99111 2.13388C5.75669 1.89946 5.625 1.58152 5.625 1.25C5.625 1.00277 5.69831 0.761097 5.83566 0.555538C5.97301 0.349976 6.16823 0.189758 6.39664 0.0951501C6.62505 0.000541818 6.87638 -0.0242118 7.11886 0.0240174C7.36134 0.0722504 7.58406 0.191299 7.75888 0.366116C7.93369 0.540932 8.05275 0.76366 8.10098 1.00614C8.14921 1.24861 8.12446 1.49995 8.02985 1.72836C7.93524 1.95676 7.77502 2.15199 7.56946 2.28934ZM1.94446 2.28934C1.7389 2.42669 1.49722 2.5 1.25 2.5C0.918475 2.5 0.600533 2.36831 0.366113 2.13389C0.131692 1.89946 -5.33703e-06 1.58152 -5.36601e-06 1.25C-5.38763e-06 1.00277 0.0733064 0.761098 0.210658 0.555539C0.348009 0.349976 0.543234 0.189759 0.771642 0.0951506C1.00005 0.00054231 1.25138 -0.0242113 1.49386 0.0240179C1.73634 0.0722509 1.95906 0.1913 2.13388 0.366116C2.30869 0.540932 2.42775 0.763661 2.47598 1.00614C2.52421 1.24861 2.49945 1.49995 2.40485 1.72836C2.31024 1.95676 2.15002 2.15199 1.94446 2.28934Z" fill="currentColor"/>
<path d="M5.625 51.375C5.625 51.1278 5.69831 50.8861 5.83566 50.6805C5.97301 50.475 6.16824 50.3148 6.39664 50.2201C6.62505 50.1255 6.87639 50.1008 7.11886 50.149C7.36134 50.1972 7.58407 50.3163 7.75888 50.4911C7.9337 50.6659 8.05275 50.8887 8.10098 51.1311C8.14921 51.3736 8.12446 51.6249 8.02985 51.8534C7.93524 52.0818 7.77502 52.277 7.56946 52.4143C7.3639 52.5517 7.12223 52.625 6.875 52.625C6.54348 52.625 6.22554 52.4933 5.99112 52.2589C5.75669 52.0245 5.625 51.7065 5.625 51.375ZM1.25 50.125C1.00277 50.125 0.761097 50.1983 0.555536 50.3357C0.349974 50.473 0.189759 50.6682 0.0951489 50.8966C0.000539649 51.1251 -0.0242149 51.3764 0.0240163 51.6189C0.0722484 51.8613 0.1913 52.0841 0.366116 52.2589C0.540931 52.4337 0.763659 52.5527 1.00614 52.601C1.24861 52.6492 1.49995 52.6245 1.72835 52.5298C1.95676 52.4352 2.15198 52.275 2.28934 52.0695C2.42669 51.8639 2.5 51.6222 2.5 51.375C2.5 51.0435 2.3683 50.7255 2.13388 50.4911C1.89946 50.2567 1.58152 50.125 1.25 50.125ZM6.875 47.3125C7.12222 47.3125 7.3639 47.2392 7.56946 47.1018C7.77502 46.9645 7.93524 46.7693 8.02985 46.5409C8.12446 46.3124 8.14921 46.0611 8.10098 45.8186C8.05275 45.5762 7.9337 45.3534 7.75888 45.1786C7.58407 45.0038 7.36134 44.8847 7.11886 44.8365C6.87638 44.7883 6.62505 44.813 6.39664 44.9077C6.16824 45.0023 5.97301 45.1625 5.83566 45.368C5.69831 45.5736 5.625 45.8153 5.625 46.0625C5.625 46.394 5.75669 46.712 5.99112 46.9464C6.22554 47.1808 6.54348 47.3125 6.875 47.3125ZM1.25 47.3125C1.49722 47.3125 1.7389 47.2392 1.94446 47.1018C2.15002 46.9645 2.31024 46.7693 2.40485 46.5409C2.49946 46.3124 2.52421 46.0611 2.47598 45.8186C2.42775 45.5762 2.3087 45.3534 2.13388 45.1786C1.95907 45.0038 1.73634 44.8847 1.49386 44.8365C1.25139 44.7883 1.00005 44.813 0.771644 44.9077C0.543236 45.0023 0.348012 45.1625 0.21066 45.368C0.0733083 45.5736 -3.45635e-06 45.8153 -3.43473e-06 46.0625C-3.40575e-06 46.394 0.131694 46.712 0.366115 46.9464C0.600535 47.1808 0.918477 47.3125 1.25 47.3125Z" fill="#98A2B3"/>
</svg>
