<svg width="19" height="19" viewBox="0 0 19 19" fill="none" xmlns="http://www.w3.org/2000/svg">
<g clip-path="url(#clip0_1_9087)">
<path d="M11.7554 9.60126H11.0054L9.88037 11.8513L8.38037 7.35126L7.25537 9.60126H6.50537M9.12524 4.82812C7.62572 3.07506 5.12518 2.60349 3.24639 4.20877C1.3676 5.81405 1.1031 8.49799 2.57852 10.3966C3.69294 11.8306 6.85884 14.7095 8.34138 16.0324C8.61391 16.2756 8.75018 16.3972 8.90974 16.4451C9.04827 16.4866 9.2022 16.4866 9.34073 16.4451C9.50029 16.3972 9.63656 16.2756 9.90909 16.0324C11.3916 14.7095 14.5575 11.8306 15.6719 10.3966C17.1474 8.49799 16.9152 5.79716 15.0041 4.20877C13.093 2.62038 10.6247 3.07506 9.12524 4.82812Z" stroke="#98A2B3" stroke-width="1.5" stroke-linecap="round" stroke-linejoin="round"/>
</g>
<defs>
<clipPath id="clip0_1_9087">
<rect width="18" height="18" fill="white" transform="translate(0.130859 0.976318)"/>
</clipPath>
</defs>
</svg>
