<svg width="19" height="19" viewBox="0 0 19 19" fill="none" xmlns="http://www.w3.org/2000/svg">
<g clip-path="url(#clip0_1_9649)">
<path d="M3.88477 14.4763C2.64213 14.4763 1.63477 13.4689 1.63477 12.2263V6.82626C1.63477 5.56614 1.63477 4.93608 1.88 4.45478C2.09572 4.03141 2.43992 3.68721 2.86329 3.47149C3.34459 3.22626 3.97465 3.22626 5.23477 3.22626H13.0348C14.2949 3.22626 14.9249 3.22626 15.4062 3.47149C15.8296 3.68721 16.1738 4.03141 16.3895 4.45478C16.6348 4.93608 16.6348 5.56614 16.6348 6.82626V12.2263C16.6348 13.4689 15.6274 14.4763 14.3848 14.4763M6.66579 16.7263H11.6037C12.0124 16.7263 12.2167 16.7263 12.3198 16.6429C12.4095 16.5705 12.4608 16.4608 12.4591 16.3456C12.4571 16.213 12.3263 16.0561 12.0647 15.7421L9.5957 12.7794C9.43741 12.5894 9.35826 12.4945 9.2635 12.4598C9.18037 12.4294 9.08916 12.4294 9.00603 12.4598C8.91127 12.4945 8.83213 12.5894 8.67383 12.7794L6.20486 15.7421C5.94325 16.0561 5.81245 16.213 5.81045 16.3456C5.80871 16.4608 5.86006 16.5705 5.94971 16.6429C6.05283 16.7263 6.25715 16.7263 6.66579 16.7263Z" stroke="#98A2B3" stroke-width="1.5" stroke-linecap="round" stroke-linejoin="round"/>
</g>
<defs>
<clipPath id="clip0_1_9649">
<rect width="18" height="18" fill="white" transform="translate(0.134277 0.976318)"/>
</clipPath>
</defs>
</svg>
