<svg width="19" height="19" viewBox="0 0 19 19" fill="none" xmlns="http://www.w3.org/2000/svg">
<path d="M4.38281 13.7263H3.63281C3.23499 13.7263 2.85346 13.5682 2.57215 13.2869C2.29085 13.0056 2.13281 12.6241 2.13281 12.2263V4.72626C2.13281 4.32843 2.29085 3.9469 2.57215 3.6656C2.85346 3.38429 3.23499 3.22626 3.63281 3.22626H15.6328C16.0306 3.22626 16.4122 3.38429 16.6935 3.6656C16.9748 3.9469 17.1328 4.32843 17.1328 4.72626V12.2263C17.1328 12.6241 16.9748 13.0056 16.6935 13.2869C16.4122 13.5682 16.0306 13.7263 15.6328 13.7263H14.8828M9.63281 12.2263L13.3828 16.7263H5.88281L9.63281 12.2263Z" stroke="#98A2B3" stroke-width="1.5" stroke-linecap="round" stroke-linejoin="round"/>
</svg>
