<svg width="19" height="19" viewBox="0 0 19 19" fill="none" xmlns="http://www.w3.org/2000/svg">
<path d="M2.13623 6.69513C2.13623 8.40376 3.52135 9.78888 5.22998 9.78888C5.4594 9.78888 5.5741 9.78888 5.63354 9.80939C5.75789 9.85229 5.82282 9.91722 5.86573 10.0416C5.88623 10.101 5.88623 10.1941 5.88623 10.3803V15.1326C5.88623 15.8057 6.43188 16.3514 7.10498 16.3514C7.77808 16.3514 8.32373 15.8057 8.32373 15.1326V6.69513C8.32373 4.9865 6.93861 3.60138 5.22998 3.60138C3.52135 3.60138 2.13623 4.9865 2.13623 6.69513Z" stroke="#98A2B3" stroke-width="1.5" stroke-linecap="round" stroke-linejoin="round"/>
<path d="M17.1362 6.69513C17.1362 8.40376 15.7511 9.78888 14.0425 9.78888C13.8131 9.78888 13.6984 9.78888 13.6389 9.80939C13.5146 9.85229 13.4496 9.91722 13.4067 10.0416C13.3862 10.101 13.3862 10.1941 13.3862 10.3803V15.1326C13.3862 15.8057 12.8406 16.3514 12.1675 16.3514C11.4944 16.3514 10.9487 15.8057 10.9487 15.1326V6.69513C10.9487 4.9865 12.3339 3.60138 14.0425 3.60138C15.7511 3.60138 17.1362 4.9865 17.1362 6.69513Z" stroke="#98A2B3" stroke-width="1.5" stroke-linecap="round" stroke-linejoin="round"/>
</svg>
