<svg width="19" height="19" viewBox="0 0 19 19" fill="none" xmlns="http://www.w3.org/2000/svg">
<path d="M8.51904 4.83264C8.88727 4.76235 9.2638 4.72626 9.64404 4.72626C11.2353 4.72626 12.7615 5.3584 13.8867 6.48362C15.0119 7.60884 15.644 9.13496 15.644 10.7263C15.644 11.1065 15.6079 11.483 15.5377 11.8513M14.2457 14.5766C14.1323 14.7121 14.0126 14.843 13.8867 14.9689C12.7615 16.0941 11.2353 16.7263 9.64404 16.7263C8.05274 16.7263 6.52662 16.0941 5.4014 14.9689C4.27618 13.8437 3.64404 12.3176 3.64404 10.7263C3.64404 9.13496 4.27618 7.60884 5.4014 6.48362C5.52615 6.35887 5.65582 6.24018 5.78997 6.12775M3.64404 3.97626L2.14404 5.47626M17.144 5.47626L14.894 3.22626M5.14404 15.2263L3.64404 16.7263M16.394 16.7263L2.89404 3.22626" stroke="#98A2B3" stroke-width="1.5" stroke-linecap="round" stroke-linejoin="round"/>
</svg>
