<svg width="19" height="19" viewBox="0 0 19 19" fill="none" xmlns="http://www.w3.org/2000/svg">
<path d="M4.39063 3.22626L2.14062 5.47626M17.1406 5.47626L14.8906 3.22626M5.14063 15.2263L3.64063 16.7263M14.1406 15.2263L15.6406 16.7263M7.39063 11.1013L8.89063 12.6013L12.2656 9.22626M9.64063 16.7263C11.2319 16.7263 12.758 16.0941 13.8833 14.9689C15.0085 13.8437 15.6406 12.3176 15.6406 10.7263C15.6406 9.13496 15.0085 7.60884 13.8833 6.48362C12.758 5.3584 11.2319 4.72626 9.64063 4.72626C8.04933 4.72626 6.5232 5.3584 5.39798 6.48362C4.27277 7.60884 3.64063 9.13496 3.64063 10.7263C3.64063 12.3176 4.27277 13.8437 5.39798 14.9689C6.5232 16.0941 8.04933 16.7263 9.64063 16.7263Z" stroke="#98A2B3" stroke-width="1.5" stroke-linecap="round" stroke-linejoin="round"/>
</svg>
