<svg width="19" height="19" viewBox="0 0 19 19" fill="none" xmlns="http://www.w3.org/2000/svg">
<g clip-path="url(#clip0_1_10241)">
<path d="M3.89209 3.22626L1.64209 5.47626M16.6421 5.47626L14.3921 3.22626M4.64209 15.2263L3.14209 16.7263M13.6421 15.2263L15.1421 16.7263M6.89209 10.7263H11.3921M9.14209 16.7263C10.7334 16.7263 12.2595 16.0941 13.3847 14.9689C14.51 13.8437 15.1421 12.3176 15.1421 10.7263C15.1421 9.13496 14.51 7.60884 13.3847 6.48362C12.2595 5.3584 10.7334 4.72626 9.14209 4.72626C7.55079 4.72626 6.02467 5.3584 4.89945 6.48362C3.77423 7.60884 3.14209 9.13496 3.14209 10.7263C3.14209 12.3176 3.77423 13.8437 4.89945 14.9689C6.02467 16.0941 7.55079 16.7263 9.14209 16.7263Z" stroke="#98A2B3" stroke-width="1.5" stroke-linecap="round" stroke-linejoin="round"/>
</g>
<defs>
<clipPath id="clip0_1_10241">
<rect width="18" height="18" fill="white" transform="translate(0.141602 0.976318)"/>
</clipPath>
</defs>
</svg>
