<svg width="19" height="19" viewBox="0 0 19 19" fill="none" xmlns="http://www.w3.org/2000/svg">
<g clip-path="url(#clip0_1_10237)">
<path d="M3.88818 3.22626L1.63818 5.47626M16.6382 5.47626L14.3882 3.22626M4.63818 15.2263L3.13818 16.7263M13.6382 15.2263L15.1382 16.7263M9.13818 7.72626V10.7263L10.6382 12.2263M9.13818 16.7263C10.7295 16.7263 12.2556 16.0941 13.3808 14.9689C14.506 13.8437 15.1382 12.3176 15.1382 10.7263C15.1382 9.13496 14.506 7.60884 13.3808 6.48362C12.2556 5.3584 10.7295 4.72626 9.13818 4.72626C7.54689 4.72626 6.02076 5.3584 4.89554 6.48362C3.77032 7.60884 3.13818 9.13496 3.13818 10.7263C3.13818 12.3176 3.77032 13.8437 4.89554 14.9689C6.02076 16.0941 7.54689 16.7263 9.13818 16.7263Z" stroke="#98A2B3" stroke-width="1.5" stroke-linecap="round" stroke-linejoin="round"/>
</g>
<defs>
<clipPath id="clip0_1_10237">
<rect width="18" height="18" fill="white" transform="translate(0.138672 0.976318)"/>
</clipPath>
</defs>
</svg>
