<svg width="19" height="19" viewBox="0 0 19 19" fill="none" xmlns="http://www.w3.org/2000/svg">
<g clip-path="url(#clip0_1_10245)">
<path d="M3.89648 3.22626L1.64648 5.47626M16.6465 5.47626L14.3965 3.22626M4.64648 15.2263L3.14648 16.7263M13.6465 15.2263L15.1465 16.7263M9.14648 12.9763V8.47626M6.89648 10.7263H11.3965M9.14648 16.7263C10.7378 16.7263 12.2639 16.0941 13.3891 14.9689C14.5143 13.8437 15.1465 12.3176 15.1465 10.7263C15.1465 9.13496 14.5143 7.60884 13.3891 6.48362C12.2639 5.3584 10.7378 4.72626 9.14648 4.72626C7.55519 4.72626 6.02906 5.3584 4.90384 6.48362C3.77863 7.60884 3.14648 9.13496 3.14648 10.7263C3.14648 12.3176 3.77863 13.8437 4.90384 14.9689C6.02906 16.0941 7.55519 16.7263 9.14648 16.7263Z" stroke="#98A2B3" stroke-width="1.5" stroke-linecap="round" stroke-linejoin="round"/>
</g>
<defs>
<clipPath id="clip0_1_10245">
<rect width="18" height="18" fill="white" transform="translate(0.146484 0.976318)"/>
</clipPath>
</defs>
</svg>
