<svg width="19" height="19" viewBox="0 0 19 19" fill="none" xmlns="http://www.w3.org/2000/svg">
<g clip-path="url(#clip0_1_9473)">
<path d="M9.65607 7.72637V10.7264M9.65607 13.7264H9.66357M8.61756 3.89516L2.44889 14.5501C2.10674 15.1411 1.93566 15.4366 1.96094 15.6791C1.983 15.8907 2.09383 16.0829 2.26584 16.208C2.46306 16.3514 2.80451 16.3514 3.4874 16.3514H15.8247C16.5076 16.3514 16.8491 16.3514 17.0463 16.208C17.2183 16.0829 17.3291 15.8907 17.3512 15.6791C17.3765 15.4366 17.2054 15.1411 16.8632 14.5501L10.6946 3.89516C10.3537 3.30629 10.1832 3.01185 9.96079 2.91296C9.7668 2.8267 9.54534 2.8267 9.35134 2.91296C9.12895 3.01185 8.95848 3.30629 8.61756 3.89516Z" stroke="#98A2B3" stroke-width="1.5" stroke-linecap="round" stroke-linejoin="round"/>
</g>
<defs>
<clipPath id="clip0_1_9473">
<rect width="18" height="18" fill="white" transform="translate(0.65625 0.976318)"/>
</clipPath>
</defs>
</svg>
