<svg width="19" height="19" viewBox="0 0 19 19" fill="none" xmlns="http://www.w3.org/2000/svg">
<g clip-path="url(#clip0_1_9469)">
<path d="M9.15039 6.9762V9.9762M9.15039 12.9762H9.15789M2.40039 6.93228V13.0201C2.40039 13.2771 2.40039 13.4056 2.43825 13.5202C2.47175 13.6216 2.52651 13.7146 2.59887 13.7931C2.68065 13.8819 2.79298 13.9443 3.01762 14.0691L8.56762 17.1524C8.78032 17.2706 8.88667 17.3297 8.9993 17.3529C9.09898 17.3734 9.2018 17.3734 9.30148 17.3529C9.41411 17.3297 9.52046 17.2706 9.73316 17.1524L15.2832 14.0691C15.5078 13.9443 15.6201 13.8819 15.7019 13.7931C15.7743 13.7146 15.829 13.6216 15.8625 13.5202C15.9004 13.4056 15.9004 13.2771 15.9004 13.0201V6.93228C15.9004 6.6753 15.9004 6.54681 15.8625 6.43221C15.829 6.33083 15.7743 6.23777 15.7019 6.15925C15.6201 6.0705 15.5078 6.0081 15.2832 5.88329L9.73316 2.79996C9.52046 2.68179 9.41411 2.62271 9.30148 2.59954C9.2018 2.57904 9.09898 2.57904 8.9993 2.59954C8.88667 2.62271 8.78032 2.68179 8.56762 2.79996L3.01762 5.88329C2.79298 6.0081 2.68065 6.0705 2.59887 6.15925C2.52651 6.23777 2.47175 6.33083 2.43825 6.43221C2.40039 6.54681 2.40039 6.6753 2.40039 6.93228Z" stroke="#98A2B3" stroke-width="1.5" stroke-linecap="round" stroke-linejoin="round"/>
</g>
<defs>
<clipPath id="clip0_1_9469">
<rect width="18" height="18" fill="white" transform="translate(0.150391 0.976318)"/>
</clipPath>
</defs>
</svg>
