<svg width="19" height="19" viewBox="0 0 19 19" fill="none" xmlns="http://www.w3.org/2000/svg">
<path d="M9.15479 6.97626V9.97626M9.15479 12.9763H9.16229M6.00479 16.7263H12.3048C13.5649 16.7263 14.195 16.7263 14.6763 16.481C15.0996 16.2653 15.4438 15.9211 15.6596 15.4977C15.9048 15.0164 15.9048 14.3864 15.9048 13.1263V6.82626C15.9048 5.56614 15.9048 4.93608 15.6596 4.45478C15.4438 4.03141 15.0996 3.68721 14.6763 3.47149C14.195 3.22626 13.5649 3.22626 12.3048 3.22626H6.00479C4.74467 3.22626 4.11461 3.22626 3.63331 3.47149C3.20994 3.68721 2.86574 4.03141 2.65002 4.45478C2.40479 4.93608 2.40479 5.56614 2.40479 6.82626V13.1263C2.40479 14.3864 2.40479 15.0164 2.65002 15.4977C2.86574 15.9211 3.20994 16.2653 3.63331 16.481C4.11461 16.7263 4.74467 16.7263 6.00479 16.7263Z" stroke="#98A2B3" stroke-width="1.5" stroke-linecap="round" stroke-linejoin="round"/>
</svg>
