<svg width="19" height="19" viewBox="0 0 19 19" fill="none" xmlns="http://www.w3.org/2000/svg">
<g clip-path="url(#clip0_1_10817)">
<path d="M9.15779 6.97635V9.97635M9.15779 12.9764H9.16529M7.87529 3.12135L1.52279 13.7264C1.39182 13.9532 1.32252 14.2103 1.32178 14.4722C1.32105 14.7342 1.38891 14.9917 1.51861 15.2192C1.64831 15.4468 1.83534 15.6364 2.06107 15.7692C2.28681 15.9021 2.54339 15.9735 2.80529 15.9764H15.5103C15.7722 15.9735 16.0288 15.9021 16.2545 15.7692C16.4802 15.6364 16.6673 15.4468 16.797 15.2192C16.9267 14.9917 16.9945 14.7342 16.9938 14.4722C16.9931 14.2103 16.9238 13.9532 16.7928 13.7264L10.4403 3.12135C10.3066 2.90093 10.1183 2.71869 9.89369 2.59221C9.66904 2.46574 9.41559 2.39929 9.15779 2.39929C8.89999 2.39929 8.64654 2.46574 8.4219 2.59221C8.19725 2.71869 8.009 2.90093 7.87529 3.12135Z" stroke="#98A2B3" stroke-width="1.5" stroke-linecap="round" stroke-linejoin="round"/>
</g>
<defs>
<clipPath id="clip0_1_10817">
<rect width="18" height="18" fill="white" transform="translate(0.158203 0.976318)"/>
</clipPath>
</defs>
</svg>
