<svg width="19" height="19" viewBox="0 0 19 19" fill="none" xmlns="http://www.w3.org/2000/svg">
<path d="M7.66211 14.4763V5.47626C7.66211 4.77735 7.66211 4.42789 7.54793 4.15223C7.39569 3.78469 7.10368 3.49268 6.73613 3.34044C6.46048 3.22626 6.11102 3.22626 5.41211 3.22626C4.7132 3.22626 4.36374 3.22626 4.08808 3.34044C3.72054 3.49268 3.42853 3.78469 3.27629 4.15223C3.16211 4.42789 3.16211 4.77735 3.16211 5.47626V14.4763C3.16211 15.1752 3.16211 15.5246 3.27629 15.8003C3.42853 16.1678 3.72054 16.4598 4.08808 16.6121C4.36374 16.7263 4.7132 16.7263 5.41211 16.7263C6.11102 16.7263 6.46048 16.7263 6.73613 16.6121C7.10368 16.4598 7.39569 16.1678 7.54793 15.8003C7.66211 15.5246 7.66211 15.1752 7.66211 14.4763Z" stroke="#98A2B3" stroke-width="1.5" stroke-linecap="round" stroke-linejoin="round"/>
<path d="M15.1621 14.4763V8.47626C15.1621 7.77735 15.1621 7.42789 15.0479 7.15223C14.8957 6.78469 14.6037 6.49268 14.2361 6.34044C13.9605 6.22626 13.611 6.22626 12.9121 6.22626C12.2132 6.22626 11.8637 6.22626 11.5881 6.34044C11.2205 6.49268 10.9285 6.78469 10.7763 7.15223C10.6621 7.42789 10.6621 7.77735 10.6621 8.47626V14.4763C10.6621 15.1752 10.6621 15.5246 10.7763 15.8003C10.9285 16.1678 11.2205 16.4598 11.5881 16.6121C11.8637 16.7263 12.2132 16.7263 12.9121 16.7263C13.611 16.7263 13.9605 16.7263 14.2361 16.6121C14.6037 16.4598 14.8957 16.1678 15.0479 15.8003C15.1621 15.5246 15.1621 15.1752 15.1621 14.4763Z" stroke="#98A2B3" stroke-width="1.5" stroke-linecap="round" stroke-linejoin="round"/>
</svg>
