<svg width="19" height="19" viewBox="0 0 19 19" fill="none" xmlns="http://www.w3.org/2000/svg">
<path d="M7.68555 14.4763V5.47626C7.68555 4.77735 7.68555 4.42789 7.57137 4.15223C7.41913 3.78469 7.12711 3.49268 6.75957 3.34044C6.48392 3.22626 6.13446 3.22626 5.43555 3.22626C4.73663 3.22626 4.38718 3.22626 4.11152 3.34044C3.74398 3.49268 3.45197 3.78469 3.29973 4.15223C3.18555 4.42789 3.18555 4.77735 3.18555 5.47626V14.4763C3.18555 15.1752 3.18555 15.5246 3.29973 15.8003C3.45197 16.1678 3.74398 16.4598 4.11152 16.6121C4.38718 16.7263 4.73663 16.7263 5.43555 16.7263C6.13446 16.7263 6.48392 16.7263 6.75957 16.6121C7.12711 16.4598 7.41913 16.1678 7.57137 15.8003C7.68555 15.5246 7.68555 15.1752 7.68555 14.4763Z" stroke="#98A2B3" stroke-width="1.5" stroke-linecap="round" stroke-linejoin="round"/>
<path d="M15.1855 11.4763V5.47626C15.1855 4.77735 15.1855 4.42789 15.0714 4.15223C14.9191 3.78469 14.6271 3.49268 14.2596 3.34044C13.9839 3.22626 13.6345 3.22626 12.9355 3.22626C12.2366 3.22626 11.8872 3.22626 11.6115 3.34044C11.244 3.49268 10.952 3.78469 10.7997 4.15223C10.6855 4.42789 10.6855 4.77735 10.6855 5.47626V11.4763C10.6855 12.1752 10.6855 12.5246 10.7997 12.8003C10.952 13.1678 11.244 13.4598 11.6115 13.6121C11.8872 13.7263 12.2366 13.7263 12.9355 13.7263C13.6345 13.7263 13.9839 13.7263 14.2596 13.6121C14.6271 13.4598 14.9191 13.1678 15.0714 12.8003C15.1855 12.5246 15.1855 12.1752 15.1855 11.4763Z" stroke="#98A2B3" stroke-width="1.5" stroke-linecap="round" stroke-linejoin="round"/>
</svg>
