<svg width="19" height="19" viewBox="0 0 19 19" fill="none" xmlns="http://www.w3.org/2000/svg">
<path d="M12.668 8.47626C13.3669 8.47626 13.7163 8.47626 13.992 8.36208C14.3595 8.20984 14.6515 7.91782 14.8038 7.55028C14.918 7.27463 14.918 6.92517 14.918 6.22626C14.918 5.52735 14.918 5.17789 14.8038 4.90223C14.6515 4.53469 14.3595 4.24268 13.992 4.09044C13.7163 3.97626 13.3669 3.97626 12.668 3.97626L6.66797 3.97626C5.96906 3.97626 5.6196 3.97626 5.34394 4.09044C4.9764 4.24268 4.68439 4.53469 4.53215 4.90223C4.41797 5.17789 4.41797 5.52734 4.41797 6.22626C4.41797 6.92517 4.41797 7.27463 4.53215 7.55028C4.68439 7.91782 4.9764 8.20984 5.34394 8.36208C5.6196 8.47626 5.96906 8.47626 6.66797 8.47626L12.668 8.47626Z" stroke="#98A2B3" stroke-width="1.5" stroke-linecap="round" stroke-linejoin="round"/>
<path d="M14.168 15.9763C14.8669 15.9763 15.2163 15.9763 15.492 15.8621C15.8595 15.7098 16.1515 15.4178 16.3038 15.0503C16.418 14.7746 16.418 14.4252 16.418 13.7263C16.418 13.0273 16.418 12.6779 16.3038 12.4022C16.1515 12.0347 15.8595 11.7427 15.492 11.5904C15.2163 11.4763 14.8669 11.4763 14.168 11.4763H5.16797C4.46906 11.4763 4.1196 11.4763 3.84394 11.5904C3.4764 11.7427 3.18439 12.0347 3.03215 12.4022C2.91797 12.6779 2.91797 13.0273 2.91797 13.7263C2.91797 14.4252 2.91797 14.7746 3.03215 15.0503C3.18439 15.4178 3.4764 15.7098 3.84394 15.8621C4.1196 15.9763 4.46906 15.9763 5.16797 15.9763L14.168 15.9763Z" stroke="#98A2B3" stroke-width="1.5" stroke-linecap="round" stroke-linejoin="round"/>
</svg>
