<svg width="19" height="19" viewBox="0 0 19 19" fill="none" xmlns="http://www.w3.org/2000/svg">
<path d="M7.68945 14.4763V5.47626C7.68945 4.77735 7.68945 4.42789 7.57527 4.15223C7.42303 3.78469 7.13102 3.49268 6.76348 3.34044C6.48782 3.22626 6.13837 3.22626 5.43945 3.22626C4.74054 3.22626 4.39108 3.22626 4.11543 3.34044C3.74789 3.49268 3.45587 3.78469 3.30363 4.15223C3.18945 4.42789 3.18945 4.77735 3.18945 5.47626V14.4763C3.18945 15.1752 3.18945 15.5246 3.30363 15.8003C3.45587 16.1678 3.74789 16.4598 4.11543 16.6121C4.39108 16.7263 4.74054 16.7263 5.43945 16.7263C6.13837 16.7263 6.48782 16.7263 6.76348 16.6121C7.13102 16.4598 7.42303 16.1678 7.57527 15.8003C7.68945 15.5246 7.68945 15.1752 7.68945 14.4763Z" stroke="#98A2B3" stroke-width="1.5" stroke-linecap="round" stroke-linejoin="round"/>
<path d="M15.1895 12.9763V6.97626C15.1895 6.27735 15.1895 5.92789 15.0753 5.65223C14.923 5.28469 14.631 4.99268 14.2635 4.84044C13.9878 4.72626 13.6384 4.72626 12.9395 4.72626C12.2405 4.72626 11.8911 4.72626 11.6154 4.84044C11.2479 4.99268 10.9559 5.28469 10.8036 5.65223C10.6895 5.92789 10.6895 6.27735 10.6895 6.97626V12.9763C10.6895 13.6752 10.6895 14.0246 10.8036 14.3003C10.9559 14.6678 11.2479 14.9598 11.6154 15.1121C11.8911 15.2263 12.2405 15.2263 12.9395 15.2263C13.6384 15.2263 13.9878 15.2263 14.2635 15.1121C14.631 14.9598 14.923 14.6678 15.0753 14.3003C15.1895 14.0246 15.1895 13.6752 15.1895 12.9763Z" stroke="#98A2B3" stroke-width="1.5" stroke-linecap="round" stroke-linejoin="round"/>
</svg>
