<svg width="19" height="19" viewBox="0 0 19 19" fill="none" xmlns="http://www.w3.org/2000/svg">
<path d="M13.6816 8.47626C14.3806 8.47626 14.73 8.47626 15.0057 8.36208C15.3732 8.20984 15.6652 7.91782 15.8175 7.55028C15.9316 7.27463 15.9316 6.92517 15.9316 6.22626C15.9316 5.52735 15.9316 5.17789 15.8175 4.90223C15.6652 4.53469 15.3732 4.24268 15.0057 4.09044C14.73 3.97626 14.3806 3.97626 13.6816 3.97626L7.68164 3.97626C6.98273 3.97626 6.63327 3.97626 6.35762 4.09044C5.99007 4.24268 5.69806 4.53469 5.54582 4.90223C5.43164 5.17789 5.43164 5.52734 5.43164 6.22626C5.43164 6.92517 5.43164 7.27463 5.54582 7.55028C5.69806 7.91782 5.99007 8.20984 6.35762 8.36208C6.63327 8.47626 6.98273 8.47626 7.68164 8.47626L13.6816 8.47626Z" stroke="#98A2B3" stroke-width="1.5" stroke-linecap="round" stroke-linejoin="round"/>
<path d="M13.6816 15.9763C14.3806 15.9763 14.73 15.9763 15.0057 15.8621C15.3732 15.7098 15.6652 15.4178 15.8175 15.0503C15.9316 14.7746 15.9316 14.4252 15.9316 13.7263C15.9316 13.0273 15.9316 12.6779 15.8175 12.4022C15.6652 12.0347 15.3732 11.7427 15.0057 11.5904C14.73 11.4763 14.3806 11.4763 13.6816 11.4763H4.68164C3.98273 11.4763 3.63327 11.4763 3.35762 11.5904C2.99007 11.7427 2.69806 12.0347 2.54582 12.4022C2.43164 12.6779 2.43164 13.0273 2.43164 13.7263C2.43164 14.4252 2.43164 14.7746 2.54582 15.0503C2.69806 15.4178 2.99007 15.7098 3.35762 15.8621C3.63327 15.9763 3.98273 15.9763 4.68164 15.9763L13.6816 15.9763Z" stroke="#98A2B3" stroke-width="1.5" stroke-linecap="round" stroke-linejoin="round"/>
</svg>
