<svg width="19" height="19" viewBox="0 0 19 19" fill="none" xmlns="http://www.w3.org/2000/svg">
<path d="M11.1763 8.47626C11.8752 8.47626 12.2246 8.47626 12.5003 8.36208C12.8678 8.20984 13.1598 7.91782 13.3121 7.55028C13.4263 7.27463 13.4263 6.92517 13.4263 6.22626C13.4263 5.52735 13.4263 5.17789 13.3121 4.90223C13.1598 4.53469 12.8678 4.24268 12.5003 4.09044C12.2246 3.97626 11.8752 3.97626 11.1763 3.97626L5.17627 3.97626C4.47736 3.97626 4.1279 3.97626 3.85224 4.09044C3.4847 4.24268 3.19269 4.53469 3.04045 4.90223C2.92627 5.17789 2.92627 5.52734 2.92627 6.22626C2.92627 6.92517 2.92627 7.27463 3.04045 7.55028C3.19269 7.91782 3.4847 8.20984 3.85224 8.36208C4.1279 8.47626 4.47736 8.47626 5.17627 8.47626L11.1763 8.47626Z" stroke="#98A2B3" stroke-width="1.5" stroke-linecap="round" stroke-linejoin="round"/>
<path d="M14.1763 15.9763C14.8752 15.9763 15.2246 15.9763 15.5003 15.8621C15.8678 15.7098 16.1599 15.4178 16.3121 15.0503C16.4263 14.7746 16.4263 14.4252 16.4263 13.7263C16.4263 13.0273 16.4263 12.6779 16.3121 12.4022C16.1599 12.0347 15.8678 11.7427 15.5003 11.5904C15.2246 11.4763 14.8752 11.4763 14.1763 11.4763H5.17627C4.47736 11.4763 4.1279 11.4763 3.85224 11.5904C3.4847 11.7427 3.19269 12.0347 3.04045 12.4022C2.92627 12.6779 2.92627 13.0273 2.92627 13.7263C2.92627 14.4252 2.92627 14.7746 3.04045 15.0503C3.19269 15.4178 3.4847 15.7098 3.85224 15.8621C4.1279 15.9763 4.47736 15.9763 5.17627 15.9763L14.1763 15.9763Z" stroke="#98A2B3" stroke-width="1.5" stroke-linecap="round" stroke-linejoin="round"/>
</svg>
