<svg width="19" height="19" viewBox="0 0 19 19" fill="none" xmlns="http://www.w3.org/2000/svg">
<g clip-path="url(#clip0_1_11099)">
<path d="M9.6919 6.97632C10.9345 6.97632 11.9419 5.96896 11.9419 4.72632C11.9419 3.48368 10.9345 2.47632 9.6919 2.47632C8.44925 2.47632 7.44189 3.48368 7.44189 4.72632C7.44189 5.96896 8.44925 6.97632 9.6919 6.97632ZM9.6919 6.97632V17.4763M9.6919 17.4763C7.70277 17.4763 5.79512 16.6861 4.38859 15.2796C2.98207 13.8731 2.19189 11.9654 2.19189 9.97632H4.44189M9.6919 17.4763C11.681 17.4763 13.5887 16.6861 14.9952 15.2796C16.4017 13.8731 17.1919 11.9654 17.1919 9.97632H14.9419" stroke="#98A2B3" stroke-width="1.5" stroke-linecap="round" stroke-linejoin="round"/>
</g>
<defs>
<clipPath id="clip0_1_11099">
<rect width="18" height="18" fill="white" transform="translate(0.691895 0.976318)"/>
</clipPath>
</defs>
</svg>
