<svg width="19" height="19" viewBox="0 0 19 19" fill="none" xmlns="http://www.w3.org/2000/svg">
<g clip-path="url(#clip0_1_9477)">
<path d="M3.21338 11.4765L4.39436 16.2004C4.42758 16.3333 4.44419 16.3997 4.46383 16.4577C4.65575 17.0243 5.16602 17.4227 5.76227 17.4715C5.82331 17.4765 5.89178 17.4765 6.02872 17.4765C6.20021 17.4765 6.28595 17.4765 6.35819 17.4695C7.07213 17.4002 7.63713 16.8352 7.70638 16.1213C7.71338 16.0491 7.71338 15.9633 7.71338 15.7918V5.1015M14.0884 11.1015C15.5381 11.1015 16.7134 9.92624 16.7134 8.4765C16.7134 7.02675 15.5381 5.8515 14.0884 5.8515M7.90088 5.1015H5.08838C3.22442 5.1015 1.71338 6.61254 1.71338 8.4765C1.71338 10.3405 3.22442 11.8515 5.08838 11.8515H7.90088C9.2257 11.8515 10.8463 12.5617 12.0966 13.2432C12.826 13.6408 13.1907 13.8397 13.4296 13.8104C13.6511 13.7833 13.8185 13.6838 13.9484 13.5023C14.0884 13.3066 14.0884 12.915 14.0884 12.1318V4.82121C14.0884 4.03799 14.0884 3.64638 13.9484 3.45066C13.8185 3.26917 13.6511 3.16972 13.4296 3.14259C13.1907 3.11334 12.826 3.31215 12.0966 3.70976C10.8463 4.39133 9.2257 5.1015 7.90088 5.1015Z" stroke="#98A2B3" stroke-width="1.5" stroke-linecap="round" stroke-linejoin="round"/>
</g>
<defs>
<clipPath id="clip0_1_9477">
<rect width="18" height="18" fill="white" transform="translate(0.213379 0.976318)"/>
</clipPath>
</defs>
</svg>
