<svg width="19" height="19" viewBox="0 0 19 19" fill="none" xmlns="http://www.w3.org/2000/svg">
<path d="M8.20752 7.35293C8.33967 6.97728 8.6005 6.66051 8.94382 6.45874C9.28714 6.25697 9.69079 6.18321 10.0833 6.25053C10.4758 6.31786 10.8318 6.52191 11.0882 6.82656C11.3447 7.13121 11.485 7.51679 11.4845 7.91502C11.4845 9.03918 9.79821 9.60126 9.79821 9.60126M9.81995 11.8513H9.82745M8.13252 15.3763L9.22752 16.8363C9.39036 17.0534 9.47178 17.1619 9.57159 17.2008C9.65902 17.2348 9.75602 17.2348 9.84345 17.2008C9.94326 17.1619 10.0247 17.0534 10.1875 16.8363L11.2825 15.3763C11.5024 15.0831 11.6123 14.9365 11.7464 14.8246C11.9252 14.6754 12.1363 14.5699 12.3629 14.5164C12.5329 14.4763 12.7161 14.4763 13.0825 14.4763C14.1309 14.4763 14.6551 14.4763 15.0686 14.305C15.6199 14.0766 16.0579 13.6386 16.2863 13.0873C16.4575 12.6738 16.4575 12.1496 16.4575 11.1013V6.82626C16.4575 5.56614 16.4575 4.93608 16.2123 4.45478C15.9966 4.03141 15.6524 3.68721 15.229 3.47149C14.7477 3.22626 14.1176 3.22626 12.8575 3.22626H6.55752C5.2974 3.22626 4.66734 3.22626 4.18604 3.47149C3.76268 3.68721 3.41847 4.03141 3.20275 4.45478C2.95752 4.93608 2.95752 5.56614 2.95752 6.82626V11.1013C2.95752 12.1496 2.95752 12.6738 3.12879 13.0873C3.35715 13.6386 3.79517 14.0766 4.34648 14.305C4.75997 14.4763 5.28415 14.4763 6.33252 14.4763C6.69895 14.4763 6.88217 14.4763 7.05215 14.5164C7.27879 14.5699 7.48986 14.6754 7.66864 14.8246C7.80273 14.9365 7.91266 15.0831 8.13252 15.3763Z" stroke="#98A2B3" stroke-width="1.5" stroke-linecap="round" stroke-linejoin="round"/>
</svg>
