<svg width="19" height="19" viewBox="0 0 19 19" fill="none" xmlns="http://www.w3.org/2000/svg">
<path d="M2.45117 6.82626C2.45117 5.56614 2.45117 4.93608 2.69641 4.45478C2.91212 4.03141 3.25633 3.68721 3.67969 3.47149C4.16099 3.22626 4.79105 3.22626 6.05117 3.22626H12.3512C13.6113 3.22626 14.2414 3.22626 14.7227 3.47149C15.146 3.68721 15.4902 4.03141 15.7059 4.45478C15.9512 4.93608 15.9512 5.56614 15.9512 6.82626V11.1013C15.9512 12.1496 15.9512 12.6738 15.7799 13.0873C15.5515 13.6386 15.1135 14.0766 14.5622 14.305C14.1487 14.4763 13.6245 14.4763 12.5762 14.4763C12.2097 14.4763 12.0265 14.4763 11.8565 14.5164C11.6299 14.5699 11.4188 14.6754 11.2401 14.8246C11.106 14.9365 10.996 15.0831 10.7762 15.3763L9.68117 16.8363C9.51833 17.0534 9.43691 17.1619 9.3371 17.2008C9.24967 17.2348 9.15267 17.2348 9.06525 17.2008C8.96543 17.1619 8.88401 17.0534 8.72117 16.8363L7.62617 15.3763C7.40631 15.0831 7.29638 14.9365 7.16229 14.8246C6.98351 14.6754 6.77244 14.5699 6.5458 14.5164C6.37582 14.4763 6.19261 14.4763 5.82617 14.4763C4.7778 14.4763 4.25362 14.4763 3.84013 14.305C3.28882 14.0766 2.8508 13.6386 2.62244 13.0873C2.45117 12.6738 2.45117 12.1496 2.45117 11.1013V6.82626Z" stroke="#98A2B3" stroke-width="1.5" stroke-linecap="round" stroke-linejoin="round"/>
<path fill-rule="evenodd" clip-rule="evenodd" d="M9.19912 7.2242C8.59931 6.54246 7.5991 6.35907 6.84758 6.98334C6.09607 7.60762 5.99026 8.65138 6.58043 9.38971C6.93138 9.82876 7.79094 10.6161 8.43012 11.1822C8.69397 11.4159 8.82589 11.5328 8.98469 11.5801C9.12055 11.6207 9.27768 11.6207 9.41355 11.5801C9.57234 11.5328 9.70427 11.4159 9.96812 11.1822C10.6073 10.6161 11.4669 9.82876 11.8178 9.38971C12.408 8.65138 12.3151 7.60105 11.5507 6.98334C10.7862 6.36564 9.79892 6.54246 9.19912 7.2242Z" stroke="#98A2B3" stroke-width="1.5" stroke-linecap="round" stroke-linejoin="round"/>
</svg>
