<svg width="19" height="19" viewBox="0 0 19 19" fill="none" xmlns="http://www.w3.org/2000/svg">
<path d="M7.33447 6.97626L11.0845 10.7263M11.0845 6.97626L7.33447 10.7263M7.63447 15.3763L8.72947 16.8363C8.89231 17.0534 8.97373 17.1619 9.07355 17.2008C9.16098 17.2348 9.25797 17.2348 9.3454 17.2008C9.44521 17.1619 9.52663 17.0534 9.68947 16.8363L10.7845 15.3763C11.0043 15.0831 11.1143 14.9365 11.2484 14.8246C11.4271 14.6754 11.6382 14.5699 11.8648 14.5164C12.0348 14.4763 12.218 14.4763 12.5845 14.4763C13.6328 14.4763 14.157 14.4763 14.5705 14.305C15.1218 14.0766 15.5598 13.6386 15.7882 13.0873C15.9595 12.6738 15.9595 12.1496 15.9595 11.1013V6.82626C15.9595 5.56614 15.9595 4.93608 15.7142 4.45478C15.4985 4.03141 15.1543 3.68721 14.731 3.47149C14.2497 3.22626 13.6196 3.22626 12.3595 3.22626H6.05947C4.79935 3.22626 4.1693 3.22626 3.68799 3.47149C3.26463 3.68721 2.92042 4.03141 2.70471 4.45478C2.45947 4.93608 2.45947 5.56614 2.45947 6.82626V11.1013C2.45947 12.1496 2.45947 12.6738 2.63074 13.0873C2.85911 13.6386 3.29712 14.0766 3.84844 14.305C4.26192 14.4763 4.7861 14.4763 5.83447 14.4763C6.20091 14.4763 6.38412 14.4763 6.5541 14.5164C6.78074 14.5699 6.99181 14.6754 7.17059 14.8246C7.30468 14.9365 7.41461 15.0831 7.63447 15.3763Z" stroke="#98A2B3" stroke-width="1.5" stroke-linecap="round" stroke-linejoin="round"/>
</svg>
