<svg width="19" height="19" viewBox="0 0 19 19" fill="none" xmlns="http://www.w3.org/2000/svg">
<path d="M9.69531 8.85126V6.22626M9.69531 11.4763H9.70281M8.12031 15.3763L9.21531 16.8363C9.37815 17.0534 9.45957 17.1619 9.55939 17.2008C9.64682 17.2348 9.74381 17.2348 9.83124 17.2008C9.93105 17.1619 10.0125 17.0534 10.1753 16.8363L11.2703 15.3763C11.4902 15.0831 11.6001 14.9365 11.7342 14.8246C11.913 14.6754 12.124 14.5699 12.3507 14.5164C12.5207 14.4763 12.7039 14.4763 13.0703 14.4763C14.1187 14.4763 14.6429 14.4763 15.0564 14.305C15.6077 14.0766 16.0457 13.6386 16.274 13.0873C16.4453 12.6738 16.4453 12.1496 16.4453 11.1013V6.82626C16.4453 5.56614 16.4453 4.93608 16.2001 4.45478C15.9844 4.03141 15.6402 3.68721 15.2168 3.47149C14.7355 3.22626 14.1054 3.22626 12.8453 3.22626H6.54531C5.28519 3.22626 4.65514 3.22626 4.17383 3.47149C3.75047 3.68721 3.40626 4.03141 3.19055 4.45478C2.94531 4.93608 2.94531 5.56614 2.94531 6.82626V11.1013C2.94531 12.1496 2.94531 12.6738 3.11658 13.0873C3.34495 13.6386 3.78296 14.0766 4.33427 14.305C4.74776 14.4763 5.27194 14.4763 6.32031 14.4763C6.68675 14.4763 6.86996 14.4763 7.03994 14.5164C7.26658 14.5699 7.47765 14.6754 7.65643 14.8246C7.79052 14.9365 7.90045 15.0831 8.12031 15.3763Z" stroke="#98A2B3" stroke-width="1.5" stroke-linecap="round" stroke-linejoin="round"/>
</svg>
