<svg width="19" height="19" viewBox="0 0 19 19" fill="none" xmlns="http://www.w3.org/2000/svg">
<path d="M2.44336 6.82626C2.44336 5.56614 2.44336 4.93608 2.68859 4.45478C2.90431 4.03141 3.24852 3.68721 3.67188 3.47149C4.15318 3.22626 4.78324 3.22626 6.04336 3.22626H12.3434C13.6035 3.22626 14.2335 3.22626 14.7148 3.47149C15.1382 3.68721 15.4824 4.03141 15.6981 4.45478C15.9434 4.93608 15.9434 5.56614 15.9434 6.82626V11.1013C15.9434 12.1496 15.9434 12.6738 15.7721 13.0873C15.5437 13.6386 15.1057 14.0766 14.5544 14.305C14.1409 14.4763 13.6167 14.4763 12.5684 14.4763C12.2019 14.4763 12.0187 14.4763 11.8487 14.5164C11.6221 14.5699 11.411 14.6754 11.2322 14.8246C11.0982 14.9365 10.9882 15.0831 10.7684 15.3763L9.67336 16.8363C9.51052 17.0534 9.4291 17.1619 9.32929 17.2008C9.24186 17.2348 9.14486 17.2348 9.05743 17.2008C8.95762 17.1619 8.8762 17.0534 8.71336 16.8363L7.61836 15.3763C7.3985 15.0831 7.28857 14.9365 7.15448 14.8246C6.9757 14.6754 6.76463 14.5699 6.53799 14.5164C6.36801 14.4763 6.18479 14.4763 5.81836 14.4763C4.76999 14.4763 4.24581 14.4763 3.83232 14.305C3.28101 14.0766 2.84299 13.6386 2.61463 13.0873C2.44336 12.6738 2.44336 12.1496 2.44336 11.1013V6.82626Z" stroke="#98A2B3" stroke-width="1.5" stroke-linecap="round" stroke-linejoin="round"/>
</svg>
