<svg width="19" height="19" viewBox="0 0 19 19" fill="none" xmlns="http://www.w3.org/2000/svg">
<path d="M14.5903 12.9763C16.0401 12.9763 17.2153 10.7936 17.2153 8.10126C17.2153 5.40887 16.0401 3.22626 14.5903 3.22626M14.5903 12.9763C13.1406 12.9763 11.9653 10.7936 11.9653 8.10126C11.9653 5.40887 13.1406 3.22626 14.5903 3.22626M14.5903 12.9763L4.79799 11.1958C4.10237 11.0694 3.75456 11.0061 3.47333 10.868C2.90118 10.5869 2.4751 10.0764 2.30094 9.46321C2.21533 9.16179 2.21533 8.80828 2.21533 8.10126C2.21533 7.39423 2.21533 7.04072 2.30094 6.73931C2.4751 6.12612 2.90118 5.61559 3.47333 5.33454C3.75456 5.1964 4.10237 5.13316 4.79799 5.00668L14.5903 3.22626M4.46533 11.4763L4.76072 15.6118C4.78878 16.0045 4.8028 16.2009 4.88824 16.3497C4.96346 16.4807 5.0765 16.5859 5.21255 16.6516C5.36708 16.7263 5.56394 16.7263 5.95768 16.7263H7.29448C7.74459 16.7263 7.96964 16.7263 8.13622 16.6365C8.28258 16.5576 8.39859 16.4323 8.466 16.2804C8.54273 16.1074 8.52547 15.883 8.49094 15.4342L8.21533 11.8513" stroke="#98A2B3" stroke-width="1.5" stroke-linecap="round" stroke-linejoin="round"/>
</svg>
