<svg width="19" height="19" viewBox="0 0 19 19" fill="none" xmlns="http://www.w3.org/2000/svg">
<path d="M17.2119 6.9765V9.9765M8.39941 5.1015H5.81191C4.5518 5.1015 3.92174 5.1015 3.44043 5.34673C3.01707 5.56245 2.67286 5.90665 2.45715 6.33002C2.21191 6.81132 2.21191 7.44138 2.21191 8.7015L2.21191 9.6015C2.21192 10.3004 2.21192 10.6499 2.3261 10.9255C2.47834 11.2931 2.77035 11.5851 3.13789 11.7373C3.41355 11.8515 3.763 11.8515 4.46192 11.8515V15.039C4.46192 15.2131 4.46192 15.3002 4.46914 15.3735C4.53928 16.0857 5.10273 16.6491 5.81489 16.7193C5.88823 16.7265 5.97529 16.7265 6.14942 16.7265C6.32354 16.7265 6.41061 16.7265 6.48394 16.7193C7.19611 16.6491 7.75955 16.0857 7.82969 15.3735C7.83692 15.3002 7.83692 15.2131 7.83692 15.039V11.8515H8.39942C9.72424 11.8515 11.3449 12.5617 12.5951 13.2432C13.3245 13.6408 13.6892 13.8397 13.9281 13.8104C14.1496 13.7833 14.3171 13.6838 14.4469 13.5023C14.5869 13.3066 14.5869 12.915 14.5869 12.1318V4.82121C14.5869 4.03799 14.5869 3.64638 14.4469 3.45066C14.3171 3.26917 14.1496 3.16972 13.9281 3.14259C13.6892 3.11334 13.3245 3.31215 12.5951 3.70976C11.3448 4.39133 9.72423 5.1015 8.39941 5.1015Z" stroke="#98A2B3" stroke-width="1.5" stroke-linecap="round" stroke-linejoin="round"/>
</svg>
