<svg width="19" height="19" viewBox="0 0 19 19" fill="none" xmlns="http://www.w3.org/2000/svg">
<path d="M9.20557 11.1013V6.60126M6.95557 8.85126H11.4556M7.63057 15.3763L8.72557 16.8363C8.88841 17.0534 8.96983 17.1619 9.06964 17.2008C9.15707 17.2348 9.25407 17.2348 9.34149 17.2008C9.44131 17.1619 9.52273 17.0534 9.68557 16.8363L10.7806 15.3763C11.0004 15.0831 11.1104 14.9365 11.2444 14.8246C11.4232 14.6754 11.6343 14.5699 11.8609 14.5164C12.0309 14.4763 12.2141 14.4763 12.5806 14.4763C13.6289 14.4763 14.1531 14.4763 14.5666 14.305C15.1179 14.0766 15.5559 13.6386 15.7843 13.0873C15.9556 12.6738 15.9556 12.1496 15.9556 11.1013V6.82626C15.9556 5.56614 15.9556 4.93608 15.7103 4.45478C15.4946 4.03141 15.1504 3.68721 14.727 3.47149C14.2457 3.22626 13.6157 3.22626 12.3556 3.22626H6.05557C4.79545 3.22626 4.16539 3.22626 3.68409 3.47149C3.26072 3.68721 2.91652 4.03141 2.7008 4.45478C2.45557 4.93608 2.45557 5.56614 2.45557 6.82626V11.1013C2.45557 12.1496 2.45557 12.6738 2.62684 13.0873C2.8552 13.6386 3.29322 14.0766 3.84453 14.305C4.25801 14.4763 4.7822 14.4763 5.83057 14.4763C6.197 14.4763 6.38022 14.4763 6.5502 14.5164C6.77683 14.5699 6.9879 14.6754 7.16669 14.8246C7.30078 14.9365 7.41071 15.0831 7.63057 15.3763Z" stroke="#98A2B3" stroke-width="1.5" stroke-linecap="round" stroke-linejoin="round"/>
</svg>
