<svg width="19" height="19" viewBox="0 0 19 19" fill="none" xmlns="http://www.w3.org/2000/svg">
<path d="M6.32422 8.85126H6.33172M9.69922 8.85126H9.70672M13.0742 8.85126H13.0817M8.12422 15.3763L9.21922 16.8363C9.38206 17.0534 9.46348 17.1619 9.56329 17.2008C9.65072 17.2348 9.74772 17.2348 9.83515 17.2008C9.93496 17.1619 10.0164 17.0534 10.1792 16.8363L11.2742 15.3763C11.4941 15.0831 11.604 14.9365 11.7381 14.8246C11.9169 14.6754 12.128 14.5699 12.3546 14.5164C12.5246 14.4763 12.7078 14.4763 13.0742 14.4763C14.1226 14.4763 14.6468 14.4763 15.0603 14.305C15.6116 14.0766 16.0496 13.6386 16.278 13.0873C16.4492 12.6738 16.4492 12.1496 16.4492 11.1013V6.82626C16.4492 5.56614 16.4492 4.93608 16.204 4.45478C15.9883 4.03141 15.6441 3.68721 15.2207 3.47149C14.7394 3.22626 14.1093 3.22626 12.8492 3.22626H6.54922C5.2891 3.22626 4.65904 3.22626 4.17774 3.47149C3.75438 3.68721 3.41017 4.03141 3.19445 4.45478C2.94922 4.93608 2.94922 5.56614 2.94922 6.82626V11.1013C2.94922 12.1496 2.94922 12.6738 3.12049 13.0873C3.34885 13.6386 3.78687 14.0766 4.33818 14.305C4.75167 14.4763 5.27585 14.4763 6.32422 14.4763C6.69065 14.4763 6.87387 14.4763 7.04385 14.5164C7.27049 14.5699 7.48156 14.6754 7.66034 14.8246C7.79443 14.9365 7.90436 15.0831 8.12422 15.3763ZM6.69922 8.85126C6.69922 9.05836 6.53133 9.22626 6.32422 9.22626C6.11711 9.22626 5.94922 9.05836 5.94922 8.85126C5.94922 8.64415 6.11711 8.47626 6.32422 8.47626C6.53133 8.47626 6.69922 8.64415 6.69922 8.85126ZM10.0742 8.85126C10.0742 9.05836 9.90633 9.22626 9.69922 9.22626C9.49211 9.22626 9.32422 9.05836 9.32422 8.85126C9.32422 8.64415 9.49211 8.47626 9.69922 8.47626C9.90633 8.47626 10.0742 8.64415 10.0742 8.85126ZM13.4492 8.85126C13.4492 9.05836 13.2813 9.22626 13.0742 9.22626C12.8671 9.22626 12.6992 9.05836 12.6992 8.85126C12.6992 8.64415 12.8671 8.47626 13.0742 8.47626C13.2813 8.47626 13.4492 8.64415 13.4492 8.85126Z" stroke="#98A2B3" stroke-width="1.5" stroke-linecap="round" stroke-linejoin="round"/>
</svg>
