<svg width="19" height="19" viewBox="0 0 19 19" fill="none" xmlns="http://www.w3.org/2000/svg">
<path d="M6.94775 9.22626L8.44775 10.7263L11.8228 7.35126M7.62275 15.3763L8.71775 16.8363C8.88059 17.0534 8.96201 17.1619 9.06183 17.2008C9.14926 17.2348 9.24625 17.2348 9.33368 17.2008C9.4335 17.1619 9.51492 17.0534 9.67776 16.8363L10.7728 15.3763C10.9926 15.0831 11.1025 14.9365 11.2366 14.8246C11.4154 14.6754 11.6265 14.5699 11.8531 14.5164C12.0231 14.4763 12.2063 14.4763 12.5728 14.4763C13.6211 14.4763 14.1453 14.4763 14.5588 14.305C15.1101 14.0766 15.5481 13.6386 15.7765 13.0873C15.9478 12.6738 15.9478 12.1496 15.9478 11.1013V6.82626C15.9478 5.56614 15.9478 4.93608 15.7025 4.45478C15.4868 4.03141 15.1426 3.68721 14.7192 3.47149C14.2379 3.22626 13.6079 3.22626 12.3478 3.22626H6.04775C4.78764 3.22626 4.15758 3.22626 3.67628 3.47149C3.25291 3.68721 2.9087 4.03141 2.69299 4.45478C2.44775 4.93608 2.44775 5.56614 2.44775 6.82626V11.1013C2.44775 12.1496 2.44775 12.6738 2.61902 13.0873C2.84739 13.6386 3.2854 14.0766 3.83672 14.305C4.2502 14.4763 4.77439 14.4763 5.82275 14.4763C6.18919 14.4763 6.37241 14.4763 6.54238 14.5164C6.76902 14.5699 6.98009 14.6754 7.15888 14.8246C7.29296 14.9365 7.40289 15.0831 7.62275 15.3763Z" stroke="#98A2B3" stroke-width="1.5" stroke-linecap="round" stroke-linejoin="round"/>
</svg>
