<svg width="19" height="19" viewBox="0 0 19 19" fill="none" xmlns="http://www.w3.org/2000/svg">
<path d="M9.70361 11.4763V8.85126M9.70361 6.22626H9.71111M8.12861 15.3763L9.22361 16.8363C9.38645 17.0534 9.46787 17.1619 9.56769 17.2008C9.65512 17.2348 9.75211 17.2348 9.83954 17.2008C9.93936 17.1619 10.0208 17.0534 10.1836 16.8363L11.2786 15.3763C11.4985 15.0831 11.6084 14.9365 11.7425 14.8246C11.9213 14.6754 12.1323 14.5699 12.359 14.5164C12.529 14.4763 12.7122 14.4763 13.0786 14.4763C14.127 14.4763 14.6512 14.4763 15.0647 14.305C15.616 14.0766 16.054 13.6386 16.2823 13.0873C16.4536 12.6738 16.4536 12.1496 16.4536 11.1013V6.82626C16.4536 5.56614 16.4536 4.93608 16.2084 4.45478C15.9927 4.03141 15.6485 3.68721 15.2251 3.47149C14.7438 3.22626 14.1137 3.22626 12.8536 3.22626H6.55361C5.2935 3.22626 4.66344 3.22626 4.18213 3.47149C3.75877 3.68721 3.41456 4.03141 3.19885 4.45478C2.95361 4.93608 2.95361 5.56614 2.95361 6.82626V11.1013C2.95361 12.1496 2.95361 12.6738 3.12488 13.0873C3.35325 13.6386 3.79126 14.0766 4.34258 14.305C4.75606 14.4763 5.28025 14.4763 6.32861 14.4763C6.69505 14.4763 6.87826 14.4763 7.04824 14.5164C7.27488 14.5699 7.48595 14.6754 7.66474 14.8246C7.79882 14.9365 7.90875 15.0831 8.12861 15.3763Z" stroke="#98A2B3" stroke-width="1.5" stroke-linecap="round" stroke-linejoin="round"/>
</svg>
