<svg width="19" height="19" viewBox="0 0 19 19" fill="none" xmlns="http://www.w3.org/2000/svg">
<path d="M3.71924 6.9737C3.59623 6.97053 3.50691 6.96341 3.4266 6.94744C2.83157 6.82908 2.36642 6.36393 2.24806 5.76889C2.21924 5.62399 2.21924 5.44975 2.21924 5.10126C2.21924 4.75277 2.21924 4.57852 2.24806 4.43362C2.36642 3.83859 2.83157 3.37344 3.4266 3.25508C3.5715 3.22626 3.74575 3.22626 4.09424 3.22626H15.3442C15.6927 3.22626 15.867 3.22626 16.0119 3.25508C16.6069 3.37344 17.0721 3.83859 17.1904 4.43362C17.2192 4.57852 17.2192 4.75277 17.2192 5.10126C17.2192 5.44975 17.2192 5.62399 17.1904 5.76889C17.0721 6.36393 16.6069 6.82908 16.0119 6.94744C15.9316 6.96341 15.8422 6.97053 15.7192 6.9737M8.21924 10.7263H11.2192M3.71924 6.97626H15.7192V13.1263C15.7192 14.3864 15.7192 15.0164 15.474 15.4977C15.2583 15.9211 14.9141 16.2653 14.4907 16.481C14.0094 16.7263 13.3794 16.7263 12.1192 16.7263H7.31924C6.05912 16.7263 5.42906 16.7263 4.94776 16.481C4.5244 16.2653 4.18019 15.9211 3.96447 15.4977C3.71924 15.0164 3.71924 14.3864 3.71924 13.1263V6.97626Z" stroke="#98A2B3" stroke-width="1.5" stroke-linecap="round" stroke-linejoin="round"/>
</svg>
