<svg width="19" height="19" viewBox="0 0 19 19" fill="none" xmlns="http://www.w3.org/2000/svg">
<path d="M11.3336 7.22825V11.7283M11.3336 11.7283H6.83364M11.3336 11.7283L6.83364 7.22817M5.9335 16.2282H12.2335C13.4936 16.2282 14.1237 16.2282 14.605 15.983C15.0283 15.7673 15.3725 15.4231 15.5883 14.9997C15.8335 14.5184 15.8335 13.8883 15.8335 12.6282V6.32821C15.8335 5.06809 15.8335 4.43803 15.5883 3.95673C15.3725 3.53337 15.0283 3.18916 14.605 2.97345C14.1237 2.72821 13.4936 2.72821 12.2335 2.72821H5.9335C4.67338 2.72821 4.04332 2.72821 3.56202 2.97345C3.13865 3.18916 2.79445 3.53337 2.57873 3.95673C2.3335 4.43803 2.3335 5.06809 2.3335 6.32821V12.6282C2.3335 13.8883 2.3335 14.5184 2.57873 14.9997C2.79445 15.4231 3.13865 15.7673 3.56202 15.983C4.04332 16.2282 4.67338 16.2282 5.9335 16.2282Z" stroke="#98A2B3" stroke-width="1.5" stroke-linecap="round" stroke-linejoin="round"/>
</svg>
