<svg width="19" height="19" viewBox="0 0 19 19" fill="none" xmlns="http://www.w3.org/2000/svg">
<path d="M6.84194 11.7283V7.22825M6.84194 7.22825H11.3419M6.84194 7.22825L11.3419 11.7282M5.9418 16.2282H12.2418C13.5019 16.2282 14.132 16.2282 14.6133 15.983C15.0366 15.7673 15.3808 15.4231 15.5966 14.9997C15.8418 14.5184 15.8418 13.8883 15.8418 12.6282V6.32821C15.8418 5.06809 15.8418 4.43803 15.5966 3.95673C15.3808 3.53337 15.0366 3.18916 14.6133 2.97345C14.132 2.72821 13.5019 2.72821 12.2418 2.72821H5.9418C4.68168 2.72821 4.05162 2.72821 3.57032 2.97345C3.14695 3.18916 2.80275 3.53337 2.58703 3.95673C2.3418 4.43803 2.3418 5.06809 2.3418 6.32821V12.6282C2.3418 13.8883 2.3418 14.5184 2.58703 14.9997C2.80275 15.4231 3.14695 15.7673 3.57032 15.983C4.05162 16.2282 4.68168 16.2282 5.9418 16.2282Z" stroke="#98A2B3" stroke-width="1.5" stroke-linecap="round" stroke-linejoin="round"/>
</svg>
