<svg width="19" height="19" viewBox="0 0 19 19" fill="none" xmlns="http://www.w3.org/2000/svg">
<path d="M10.3589 14.7283H13.5796C14.9784 14.7283 15.6779 14.7283 16.075 14.4352C16.4213 14.1797 16.6411 13.7877 16.6786 13.359C16.7216 12.8673 16.3569 12.2705 15.6274 11.0768L14.8797 9.85333M5.20649 8.43224L3.59035 11.0768C2.86089 12.2705 2.49616 12.8673 2.53918 13.359C2.57668 13.7877 2.79649 14.1797 3.14274 14.4352C3.53988 14.7283 4.23933 14.7283 5.63822 14.7283H6.98389M13.2756 7.22833L11.6568 4.5794C10.9797 3.47142 10.6411 2.91744 10.2053 2.72858C9.82478 2.5637 9.39299 2.5637 9.01249 2.72858C8.57665 2.91744 8.2381 3.47142 7.56101 4.5794L6.79614 5.831M14.1089 4.22838L13.2853 7.30193L10.2118 6.47838M2.10889 9.17688L5.18244 8.35333L6.006 11.4269M12.2339 16.9783L9.98389 14.7283L12.2339 12.4783" stroke="#98A2B3" stroke-width="1.5" stroke-linecap="round" stroke-linejoin="round"/>
</svg>
