<svg width="19" height="19" viewBox="0 0 19 19" fill="none" xmlns="http://www.w3.org/2000/svg">
<path d="M9.0874 12.4782L12.0874 9.47821M12.0874 9.47821L9.0874 6.47821M12.0874 9.47821H6.0874M5.9374 16.2282H12.2374C13.4975 16.2282 14.1276 16.2282 14.6089 15.983C15.0322 15.7673 15.3765 15.4231 15.5922 14.9997C15.8374 14.5184 15.8374 13.8883 15.8374 12.6282V6.32821C15.8374 5.06809 15.8374 4.43803 15.5922 3.95673C15.3765 3.53337 15.0322 3.18916 14.6089 2.97345C14.1276 2.72821 13.4975 2.72821 12.2374 2.72821H5.9374C4.67728 2.72821 4.04723 2.72821 3.56592 2.97345C3.14256 3.18916 2.79835 3.53337 2.58264 3.95673C2.3374 4.43803 2.3374 5.06809 2.3374 6.32821V12.6282C2.3374 13.8883 2.3374 14.5184 2.58264 14.9997C2.79835 15.4231 3.14256 15.7673 3.56592 15.983C4.04723 16.2282 4.67728 16.2282 5.9374 16.2282Z" stroke="#98A2B3" stroke-width="1.5" stroke-linecap="round" stroke-linejoin="round"/>
</svg>
