<svg width="19" height="19" viewBox="0 0 19 19" fill="none" xmlns="http://www.w3.org/2000/svg">
<path d="M7.33119 7.22825V11.7283M7.33119 11.7283H11.8312M7.33119 11.7283L11.8312 7.22817M6.43106 16.2282H12.7311C13.9912 16.2282 14.6212 16.2282 15.1025 15.983C15.5259 15.7673 15.8701 15.4231 16.0858 14.9997C16.3311 14.5184 16.3311 13.8883 16.3311 12.6282V6.32821C16.3311 5.06809 16.3311 4.43803 16.0858 3.95673C15.8701 3.53337 15.5259 3.18916 15.1025 2.97345C14.6212 2.72821 13.9912 2.72821 12.7311 2.72821H6.43106C5.17094 2.72821 4.54088 2.72821 4.05958 2.97345C3.63621 3.18916 3.29201 3.53337 3.07629 3.95673C2.83105 4.43803 2.83105 5.06809 2.83105 6.32821V12.6282C2.83105 13.8883 2.83105 14.5184 3.07629 14.9997C3.29201 15.4231 3.63621 15.7673 4.05958 15.983C4.54088 16.2282 5.17094 16.2282 6.43106 16.2282Z" stroke="#98A2B3" stroke-width="1.5" stroke-linecap="round" stroke-linejoin="round"/>
</svg>
