<svg width="19" height="19" viewBox="0 0 19 19" fill="none" xmlns="http://www.w3.org/2000/svg">
<path d="M12.5894 9.47821L9.58936 6.47821M9.58936 6.47821L6.58936 9.47821M9.58936 6.47821V12.4782M6.43936 16.2282H12.7394C13.9995 16.2282 14.6295 16.2282 15.1108 15.983C15.5342 15.7673 15.8784 15.4231 16.0941 14.9997C16.3394 14.5184 16.3394 13.8883 16.3394 12.6282V6.32821C16.3394 5.06809 16.3394 4.43803 16.0941 3.95673C15.8784 3.53337 15.5342 3.18916 15.1108 2.97345C14.6295 2.72821 13.9995 2.72821 12.7394 2.72821H6.43936C5.17924 2.72821 4.54918 2.72821 4.06788 2.97345C3.64451 3.18916 3.30031 3.53337 3.08459 3.95673C2.83936 4.43803 2.83936 5.06809 2.83936 6.32821V12.6282C2.83936 13.8883 2.83936 14.5184 3.08459 14.9997C3.30031 15.4231 3.64451 15.7673 4.06788 15.983C4.54918 16.2282 5.17924 16.2282 6.43936 16.2282Z" stroke="#98A2B3" stroke-width="1.5" stroke-linecap="round" stroke-linejoin="round"/>
</svg>
