<svg width="19" height="19" viewBox="0 0 19 19" fill="none" xmlns="http://www.w3.org/2000/svg">
<path d="M6.0791 9.47821L9.0791 12.4782M9.0791 12.4782L12.0791 9.47821M9.0791 12.4782V6.47821M5.9291 16.2282H12.2291C13.4892 16.2282 14.1193 16.2282 14.6006 15.983C15.0239 15.7673 15.3682 15.4231 15.5839 14.9997C15.8291 14.5184 15.8291 13.8883 15.8291 12.6282V6.32821C15.8291 5.06809 15.8291 4.43803 15.5839 3.95673C15.3682 3.53337 15.0239 3.18916 14.6006 2.97345C14.1193 2.72821 13.4892 2.72821 12.2291 2.72821H5.9291C4.66898 2.72821 4.03892 2.72821 3.55762 2.97345C3.13426 3.18916 2.79005 3.53337 2.57434 3.95673C2.3291 4.43803 2.3291 5.06809 2.3291 6.32821V12.6282C2.3291 13.8883 2.3291 14.5184 2.57434 14.9997C2.79005 15.4231 3.13426 15.7673 3.55762 15.983C4.03892 16.2282 4.66898 16.2282 5.9291 16.2282Z" stroke="#98A2B3" stroke-width="1.5" stroke-linecap="round" stroke-linejoin="round"/>
</svg>
