<svg width="19" height="19" viewBox="0 0 19 19" fill="none" xmlns="http://www.w3.org/2000/svg">
<path d="M9.58496 6.47821L6.58496 9.47821M6.58496 9.47821L9.58496 12.4782M6.58496 9.47821H12.585M6.43496 16.2282H12.735C13.9951 16.2282 14.6251 16.2282 15.1064 15.983C15.5298 15.7673 15.874 15.4231 16.0897 14.9997C16.335 14.5184 16.335 13.8883 16.335 12.6282V6.32821C16.335 5.06809 16.335 4.43803 16.0897 3.95673C15.874 3.53337 15.5298 3.18916 15.1064 2.97345C14.6251 2.72821 13.9951 2.72821 12.735 2.72821H6.43496C5.17484 2.72821 4.54478 2.72821 4.06348 2.97345C3.64012 3.18916 3.29591 3.53337 3.0802 3.95673C2.83496 4.43803 2.83496 5.06809 2.83496 6.32821V12.6282C2.83496 13.8883 2.83496 14.5184 3.0802 14.9997C3.29591 15.4231 3.64012 15.7673 4.06348 15.983C4.54478 16.2282 5.17484 16.2282 6.43496 16.2282Z" stroke="#98A2B3" stroke-width="1.5" stroke-linecap="round" stroke-linejoin="round"/>
</svg>
