<svg width="19" height="19" viewBox="0 0 19 19" fill="none" xmlns="http://www.w3.org/2000/svg">
<path d="M11.8434 11.7283V7.22825M11.8434 7.22825H7.3434M11.8434 7.22825L7.3434 11.7282M6.44326 16.2282H12.7433C14.0034 16.2282 14.6334 16.2282 15.1147 15.983C15.5381 15.7673 15.8823 15.4231 16.098 14.9997C16.3433 14.5184 16.3433 13.8883 16.3433 12.6282V6.32821C16.3433 5.06809 16.3433 4.43803 16.098 3.95673C15.8823 3.53337 15.5381 3.18916 15.1147 2.97345C14.6334 2.72821 14.0034 2.72821 12.7433 2.72821H6.44326C5.18314 2.72821 4.55308 2.72821 4.07178 2.97345C3.64842 3.18916 3.30421 3.53337 3.0885 3.95673C2.84326 4.43803 2.84326 5.06809 2.84326 6.32821V12.6282C2.84326 13.8883 2.84326 14.5184 3.0885 14.9997C3.30421 15.4231 3.64842 15.7673 4.07178 15.983C4.55308 16.2282 5.18314 16.2282 6.44326 16.2282Z" stroke="#98A2B3" stroke-width="1.5" stroke-linecap="round" stroke-linejoin="round"/>
</svg>
