<svg width="19" height="19" viewBox="0 0 19 19" fill="none" xmlns="http://www.w3.org/2000/svg">
<path d="M12.6167 6.47829V10.2283C12.6167 10.825 12.8538 11.3973 13.2757 11.8193C13.6977 12.2412 14.27 12.4783 14.8667 12.4783C15.4634 12.4783 16.0357 12.2412 16.4577 11.8193C16.8797 11.3973 17.1167 10.825 17.1167 10.2283V9.47829C17.1166 7.78557 16.5439 6.14265 15.4917 4.81669C14.4394 3.49073 12.9696 2.55971 11.3212 2.17502C9.67275 1.79032 7.94266 1.97458 6.41222 2.69782C4.88178 3.42106 3.641 4.64076 2.89165 6.15859C2.14229 7.67641 1.92843 9.4031 2.28483 11.0579C2.64123 12.7127 3.54694 14.1982 4.85468 15.273C6.16242 16.3478 7.79528 16.9486 9.48776 16.9777C11.1802 17.0068 12.8328 16.4625 14.1767 15.4333M12.6167 9.47829C12.6167 11.1351 11.2736 12.4783 9.61671 12.4783C7.95985 12.4783 6.61671 11.1351 6.61671 9.47829C6.61671 7.82144 7.95985 6.47829 9.61671 6.47829C11.2736 6.47829 12.6167 7.82144 12.6167 9.47829Z" stroke="#98A2B3" stroke-width="1.5" stroke-linecap="round" stroke-linejoin="round"/>
</svg>
