<svg width="19" height="19" viewBox="0 0 19 19" fill="none" xmlns="http://www.w3.org/2000/svg">
<g clip-path="url(#clip0_1_10821)">
<path d="M12.1187 6.47829V10.2283C12.1187 10.825 12.3557 11.3973 12.7777 11.8193C13.1996 12.2412 13.7719 12.4783 14.3687 12.4783C14.9654 12.4783 15.5377 12.2412 15.9597 11.8193C16.3816 11.3973 16.6187 10.825 16.6187 10.2283V9.47829C16.6186 7.78557 16.0458 6.14265 14.9936 4.81669C13.9414 3.49073 12.4716 2.55971 10.8231 2.17502C9.17471 1.79032 7.44461 1.97458 5.91417 2.69782C4.38373 3.42106 3.14296 4.64076 2.3936 6.15859C1.64425 7.67641 1.43038 9.4031 1.78679 11.0579C2.14319 12.7127 3.04889 14.1982 4.35663 15.273C5.66437 16.3478 7.29724 16.9486 8.98971 16.9777C10.6822 17.0068 12.3347 16.4625 13.6787 15.4333M12.1187 9.47829C12.1187 11.1351 10.7755 12.4783 9.11866 12.4783C7.46181 12.4783 6.11866 11.1351 6.11866 9.47829C6.11866 7.82144 7.46181 6.47829 9.11866 6.47829C10.7755 6.47829 12.1187 7.82144 12.1187 9.47829Z" stroke="#98A2B3" stroke-width="1.5" stroke-linecap="round" stroke-linejoin="round"/>
</g>
<defs>
<clipPath id="clip0_1_10821">
<rect width="18" height="18" fill="white" transform="translate(0.118652 0.478271)"/>
</clipPath>
</defs>
</svg>
