<svg width="19" height="19" viewBox="0 0 19 19" fill="none" xmlns="http://www.w3.org/2000/svg">
<path d="M9.62024 9.4785H9.62774M12.2719 12.1302C8.75717 15.6449 4.72075 17.3069 3.25628 15.8425C1.79181 14.378 3.45387 10.3416 6.96859 6.82685C10.4833 3.31213 14.5197 1.65007 15.9842 3.11454C17.4487 4.57901 15.7866 8.61543 12.2719 12.1302ZM12.2719 6.82672C15.7866 10.3414 17.4486 14.3779 15.9842 15.8423C14.5197 17.3068 10.4833 15.6447 6.96856 12.13C3.45384 8.6153 1.79178 4.57887 3.25625 3.1144C4.72072 1.64994 8.75714 3.312 12.2719 6.82672ZM9.99524 9.4785C9.99524 9.68561 9.82735 9.8535 9.62024 9.8535C9.41313 9.8535 9.24524 9.68561 9.24524 9.4785C9.24524 9.2714 9.41313 9.1035 9.62024 9.1035C9.82735 9.1035 9.99524 9.2714 9.99524 9.4785Z" stroke="#98A2B3" stroke-width="1.5" stroke-linecap="round" stroke-linejoin="round"/>
</svg>
