<svg width="19" height="19" viewBox="0 0 19 19" fill="none" xmlns="http://www.w3.org/2000/svg">
<path d="M12.9593 11.997C12.7563 12.2265 12.5432 12.4532 12.3204 12.676C9.09862 15.8978 5.06219 17.085 3.30483 15.3276C2.10003 14.1228 2.2792 11.8468 3.54915 9.49651M5.29006 7.02227C5.50134 6.78204 5.72359 6.5449 5.95648 6.31201C9.17831 3.09019 13.2147 1.903 14.9721 3.66036C16.1777 4.86599 15.9975 7.14429 14.7251 9.49633M12.3204 6.31201C15.5423 9.53384 16.7295 13.5703 14.9721 15.3276C13.2147 17.085 9.17831 15.8978 5.95648 12.676C2.73466 9.45415 1.54747 5.41772 3.30483 3.66036C5.06219 1.903 9.09862 3.09019 12.3204 6.31201ZM9.87285 9.47833C9.87285 9.89254 9.53706 10.2283 9.12285 10.2283C8.70864 10.2283 8.37285 9.89254 8.37285 9.47833C8.37285 9.06411 8.70864 8.72833 9.12285 8.72833C9.53706 8.72833 9.87285 9.06411 9.87285 9.47833Z" stroke="#98A2B3" stroke-width="1.5" stroke-linecap="round" stroke-linejoin="round"/>
</svg>
