<svg width="19" height="19" viewBox="0 0 19 19" fill="none" xmlns="http://www.w3.org/2000/svg">
<path d="M7.29342 10.2998L4.16215 6.38567C3.96722 6.14201 3.86976 6.02019 3.80046 5.88453C3.73897 5.76417 3.69403 5.63606 3.66686 5.50366C3.63623 5.35444 3.63623 5.19842 3.63623 4.8864V4.37827C3.63623 3.53819 3.63623 3.11815 3.79972 2.79729C3.94353 2.51504 4.173 2.28557 4.45524 2.14176C4.77611 1.97827 5.19615 1.97827 6.03623 1.97827H13.2362C14.0763 1.97827 14.4963 1.97827 14.8172 2.14176C15.0995 2.28557 15.3289 2.51504 15.4727 2.79729C15.6362 3.11815 15.6362 3.53819 15.6362 4.37827V4.8864C15.6362 5.19842 15.6362 5.35444 15.6056 5.50366C15.5784 5.63606 15.5335 5.76417 15.472 5.88453C15.4027 6.02019 15.3052 6.14201 15.1103 6.38567L11.979 10.2998M4.38627 2.72827L9.63627 9.47827L14.8862 2.72827M12.2879 10.5766C13.7523 12.0411 13.7523 14.4155 12.2879 15.8799C10.8234 17.3444 8.44905 17.3444 6.98458 15.8799C5.52011 14.4155 5.52011 12.0411 6.98458 10.5766C8.44904 9.11216 10.8234 9.11216 12.2879 10.5766Z" stroke="#98A2B3" stroke-width="1.5" stroke-linecap="round" stroke-linejoin="round"/>
</svg>
