<svg width="19" height="19" viewBox="0 0 19 19" fill="none" xmlns="http://www.w3.org/2000/svg">
<path d="M6.03577 12.0732L5.38428 16.9783L8.82558 14.9135C8.93782 14.8462 8.99394 14.8125 9.05384 14.7993C9.10684 14.7877 9.16172 14.7877 9.21471 14.7993C9.27462 14.8125 9.33074 14.8462 9.44298 14.9135L12.8843 16.9783L12.2332 12.0711M12.4537 3.66493C12.5695 3.94507 12.7919 4.16775 13.0718 4.284L14.0535 4.69063C14.3336 4.80668 14.5562 5.02927 14.6722 5.30943C14.7883 5.58959 14.7883 5.90438 14.6722 6.18454L14.2659 7.16554C14.1498 7.44582 14.1497 7.76093 14.2663 8.04108L14.6719 9.02178C14.7294 9.16054 14.7591 9.30928 14.7591 9.45949C14.7591 9.60971 14.7295 9.75845 14.672 9.89723C14.6146 10.036 14.5303 10.1621 14.4241 10.2683C14.3178 10.3745 14.1917 10.4587 14.0529 10.5162L13.072 10.9225C12.7918 11.0383 12.5692 11.2607 12.4529 11.5406L12.0463 12.5223C11.9303 12.8025 11.7077 13.0251 11.4275 13.1411C11.1474 13.2572 10.8326 13.2572 10.5525 13.1411L9.5715 12.7348C9.29134 12.619 8.97668 12.6193 8.6967 12.7355L7.71503 13.1415C7.43503 13.2573 7.12053 13.2572 6.84061 13.1412C6.56069 13.0253 6.33823 12.803 6.22211 12.5231L5.81537 11.5411C5.69954 11.261 5.47721 11.0383 5.19725 10.922L4.21559 10.5154C3.93556 10.3994 3.71305 10.177 3.59696 9.89696C3.48088 9.61696 3.48072 9.30232 3.59652 9.0222L4.00285 8.04121C4.11861 7.76104 4.11837 7.44636 4.00219 7.16637L3.59645 6.18396C3.53892 6.0452 3.5093 5.89647 3.50928 5.74625C3.50925 5.59604 3.53883 5.44729 3.59631 5.30852C3.65379 5.16974 3.73805 5.04364 3.84428 4.93745C3.95051 4.83125 4.07663 4.74702 4.21542 4.68958L5.19638 4.28324C5.47627 4.16751 5.6988 3.94545 5.81514 3.6658L6.22175 2.6841C6.3378 2.40394 6.56038 2.18135 6.84053 2.06531C7.12068 1.94926 7.43545 1.94926 7.71561 2.06531L8.69657 2.47165C8.97672 2.58741 9.29139 2.58717 9.57137 2.47099L10.5534 2.06594C10.8336 1.94996 11.1483 1.94998 11.4284 2.066C11.7085 2.18203 11.931 2.40455 12.0471 2.68464L12.4538 3.66663L12.4537 3.66493Z" stroke="#98A2B3" stroke-width="1.5" stroke-linecap="round" stroke-linejoin="round"/>
</svg>
