<svg width="19" height="19" viewBox="0 0 19 19" fill="none" xmlns="http://www.w3.org/2000/svg">
<path d="M5.49003 8.87001L2.63647 3.76366C2.30836 3.17651 2.1443 2.88293 2.17195 2.64257C2.19607 2.43286 2.30745 2.24302 2.47875 2.11966C2.67508 1.97827 3.01139 1.97827 3.684 1.97827H5.36012C5.61009 1.97827 5.73508 1.97827 5.84719 2.01437C5.94639 2.04632 6.03784 2.09858 6.11572 2.16784C6.20372 2.24611 6.26716 2.3538 6.39404 2.56918L9.13875 7.22827L11.8835 2.56918C12.0103 2.3538 12.0738 2.24611 12.1618 2.16784C12.2397 2.09858 12.3311 2.04632 12.4303 2.01437C12.5424 1.97827 12.6674 1.97827 12.9174 1.97827H14.5935C15.2661 1.97827 15.6024 1.97827 15.7988 2.11966C15.9701 2.24302 16.0814 2.43286 16.1056 2.64257C16.1332 2.88293 15.9691 3.17651 15.641 3.76366L12.7875 8.87001M8.01375 10.9783L9.13875 10.2283V13.9783M8.20125 13.9783H10.0763M12.5859 8.65612C14.4897 10.5599 14.4897 13.6466 12.5859 15.5504C10.6821 17.4542 7.59542 17.4542 5.6916 15.5504C3.7878 13.6466 3.7878 10.5599 5.6916 8.65612C7.5954 6.75232 10.6821 6.75232 12.5859 8.65612Z" stroke="#98A2B3" stroke-width="1.5" stroke-linecap="round" stroke-linejoin="round"/>
</svg>
