<svg width="19" height="19" viewBox="0 0 19 19" fill="none" xmlns="http://www.w3.org/2000/svg">
<path d="M15.6401 10.2282V13.8282C15.6401 14.6683 15.6401 15.0883 15.4766 15.4092C15.3328 15.6914 15.1034 15.9209 14.8211 16.0647C14.5003 16.2282 14.0802 16.2282 13.2401 16.2282H6.04014C5.20006 16.2282 4.78002 16.2282 4.45915 16.0647C4.17691 15.9209 3.94744 15.6914 3.80363 15.4092C3.64014 15.0883 3.64014 14.6683 3.64014 13.8282V10.2282M7.39014 7.97821H11.8901M7.60442 10.9782H11.6759C13.2752 10.9782 14.0749 10.9782 14.6918 10.6811C15.3041 10.3862 15.7982 9.89219 16.093 9.27986C16.3901 8.66294 16.3901 7.86327 16.3901 6.26393C16.3901 5.06442 16.3901 4.46466 16.1673 4.00197C15.9462 3.54273 15.5756 3.17219 15.1164 2.95103C14.6537 2.72821 14.0539 2.72821 12.8544 2.72821H6.42585C5.22634 2.72821 4.62659 2.72821 4.1639 2.95103C3.70466 3.17219 3.33412 3.54273 3.11296 4.00197C2.89014 4.46466 2.89014 5.06442 2.89014 6.26393C2.89014 7.86327 2.89014 8.66294 3.18723 9.27986C3.48211 9.89219 3.97616 10.3862 4.58849 10.6811C5.20541 10.9782 6.00508 10.9782 7.60442 10.9782Z" stroke="#98A2B3" stroke-width="1.5" stroke-linecap="round" stroke-linejoin="round"/>
</svg>
