<svg width="19" height="19" viewBox="0 0 19 19" fill="none" xmlns="http://www.w3.org/2000/svg">
<g clip-path="url(#clip0_1_8933)">
<path d="M4.64648 7.97839V10.9784M13.6465 7.97839V10.9784M1.64648 6.62839L1.64648 12.3284C1.64648 13.1685 1.64648 13.5885 1.80997 13.9094C1.95378 14.1916 2.18326 14.4211 2.4655 14.5649C2.78637 14.7284 3.20641 14.7284 4.04648 14.7284L14.2465 14.7284C15.0866 14.7284 15.5066 14.7284 15.8275 14.5649C16.1097 14.4211 16.3392 14.1916 16.483 13.9094C16.6465 13.5885 16.6465 13.1685 16.6465 12.3284V6.62839C16.6465 5.78832 16.6465 5.36828 16.483 5.04741C16.3392 4.76517 16.1097 4.53569 15.8275 4.39188C15.5066 4.22839 15.0866 4.22839 14.2465 4.22839L4.04649 4.22839C3.20641 4.22839 2.78637 4.22839 2.4655 4.39188C2.18326 4.53569 1.95378 4.76516 1.80997 5.04741C1.64648 5.36828 1.64648 5.78831 1.64648 6.62839ZM11.0215 9.47839C11.0215 10.5139 10.182 11.3534 9.14648 11.3534C8.11095 11.3534 7.27148 10.5139 7.27148 9.47839C7.27148 8.44286 8.11095 7.60339 9.14648 7.60339C10.182 7.60339 11.0215 8.44286 11.0215 9.47839Z" stroke="#98A2B3" stroke-width="1.5" stroke-linecap="round" stroke-linejoin="round"/>
</g>
<defs>
<clipPath id="clip0_1_8933">
<rect width="18" height="18" fill="white" transform="translate(0.146484 0.478271)"/>
</clipPath>
</defs>
</svg>
