<svg width="19" height="19" viewBox="0 0 19 19" fill="none" xmlns="http://www.w3.org/2000/svg">
<path d="M11.1484 7.22839H9.27344C8.65212 7.22839 8.14844 7.73207 8.14844 8.35339C8.14844 8.97471 8.65212 9.47839 9.27344 9.47839H10.0234C10.6448 9.47839 11.1484 9.98207 11.1484 10.6034C11.1484 11.2247 10.6448 11.7284 10.0234 11.7284H8.14844M9.64844 6.47839V7.22839M9.64844 11.7284V12.4784M14.1484 9.47839H14.1559M5.14844 9.47839H5.15594M2.14844 6.62839L2.14844 12.3284C2.14844 13.1685 2.14844 13.5885 2.31193 13.9094C2.45574 14.1916 2.68521 14.4211 2.96745 14.5649C3.28832 14.7284 3.70836 14.7284 4.54844 14.7284L14.7484 14.7284C15.5885 14.7284 16.0086 14.7284 16.3294 14.5649C16.6117 14.4211 16.8411 14.1916 16.9849 13.9094C17.1484 13.5885 17.1484 13.1685 17.1484 12.3284V6.62839C17.1484 5.78832 17.1484 5.36828 16.9849 5.04741C16.8411 4.76517 16.6117 4.53569 16.3294 4.39188C16.0086 4.22839 15.5885 4.22839 14.7484 4.22839L4.54844 4.22839C3.70836 4.22839 3.28832 4.22839 2.96745 4.39188C2.68521 4.53569 2.45574 4.76516 2.31193 5.04741C2.14844 5.36828 2.14844 5.78831 2.14844 6.62839ZM14.5234 9.47839C14.5234 9.6855 14.3555 9.85339 14.1484 9.85339C13.9413 9.85339 13.7734 9.6855 13.7734 9.47839C13.7734 9.27129 13.9413 9.10339 14.1484 9.10339C14.3555 9.10339 14.5234 9.27129 14.5234 9.47839ZM5.52344 9.47839C5.52344 9.6855 5.35554 9.85339 5.14844 9.85339C4.94133 9.85339 4.77344 9.6855 4.77344 9.47839C4.77344 9.27129 4.94133 9.10339 5.14844 9.10339C5.35554 9.10339 5.52344 9.27129 5.52344 9.47839Z" stroke="#98A2B3" stroke-width="1.5" stroke-linecap="round" stroke-linejoin="round"/>
</svg>
