<svg width="19" height="19" viewBox="0 0 19 19" fill="none" xmlns="http://www.w3.org/2000/svg">
<path d="M3.8916 7.22816V13.2282M7.2666 7.22816V13.2282M11.0166 7.22816V13.2282M14.3916 7.22816V13.2282M2.3916 14.4282L2.3916 15.0282C2.3916 15.4482 2.3916 15.6582 2.47335 15.8187C2.54525 15.9598 2.65999 16.0745 2.80111 16.1464C2.96154 16.2282 3.17156 16.2282 3.5916 16.2282H14.6916C15.1116 16.2282 15.3217 16.2282 15.4821 16.1464C15.6232 16.0745 15.738 15.9598 15.8099 15.8187C15.8916 15.6582 15.8916 15.4482 15.8916 15.0282V14.4282C15.8916 14.0081 15.8916 13.7981 15.8099 13.6377C15.738 13.4966 15.6232 13.3818 15.4821 13.3099C15.3217 13.2282 15.1116 13.2282 14.6916 13.2282H3.5916C3.17156 13.2282 2.96154 13.2282 2.80111 13.3099C2.65999 13.3818 2.54525 13.4966 2.47335 13.6377C2.3916 13.7981 2.3916 14.0081 2.3916 14.4282ZM8.88129 2.78601L3.33129 4.01935C2.99599 4.09386 2.82834 4.13111 2.7032 4.22127C2.59282 4.30079 2.50615 4.40884 2.45246 4.53384C2.3916 4.67556 2.3916 4.8473 2.3916 5.19077L2.3916 6.02816C2.3916 6.4482 2.3916 6.65822 2.47335 6.81866C2.54525 6.95978 2.65999 7.07451 2.80111 7.14642C2.96154 7.22816 3.17156 7.22816 3.5916 7.22816H14.6916C15.1116 7.22816 15.3217 7.22816 15.4821 7.14642C15.6232 7.07451 15.738 6.95978 15.8099 6.81866C15.8916 6.65822 15.8916 6.4482 15.8916 6.02816V5.19077C15.8916 4.8473 15.8916 4.67556 15.8307 4.53384C15.7771 4.40884 15.6904 4.30079 15.58 4.22127C15.4549 4.13111 15.2872 4.09386 14.9519 4.01935L9.40192 2.78601C9.30477 2.76443 9.2562 2.75363 9.20712 2.74933C9.16352 2.7455 9.11968 2.7455 9.07609 2.74933C9.027 2.75363 8.97843 2.76443 8.88129 2.78601Z" stroke="#98A2B3" stroke-width="1.5" stroke-linecap="round" stroke-linejoin="round"/>
</svg>
