<svg width="19" height="19" viewBox="0 0 19 19" fill="none" xmlns="http://www.w3.org/2000/svg">
<path d="M5.14404 8.72827V11.7283M14.144 7.22827V10.2283M13.394 3.47827C15.2306 3.47827 16.2239 3.75934 16.7181 3.97735C16.784 4.00639 16.8169 4.0209 16.9118 4.11155C16.9688 4.16589 17.0727 4.32532 17.0994 4.39934C17.144 4.52283 17.144 4.59033 17.144 4.72533V12.7866C17.144 13.4682 17.144 13.809 17.0418 13.9842C16.9379 14.1623 16.8376 14.2452 16.643 14.3137C16.4517 14.381 16.0655 14.3068 15.2932 14.1584C14.7526 14.0545 14.1114 13.9783 13.394 13.9783C11.144 13.9783 8.89404 15.4783 5.89404 15.4783C4.05751 15.4783 3.06419 15.1972 2.56996 14.9792C2.50414 14.9502 2.47123 14.9356 2.37624 14.845C2.31931 14.7907 2.21538 14.6312 2.18865 14.5572C2.14404 14.4337 2.14404 14.3662 2.14404 14.2312L2.14404 6.16991C2.14404 5.48834 2.14404 5.14755 2.24625 4.97238C2.35022 4.79419 2.45049 4.71136 2.64509 4.64288C2.8364 4.57556 3.22257 4.64976 3.99491 4.79816C4.53551 4.90203 5.17665 4.97827 5.89404 4.97827C8.14404 4.97827 10.394 3.47827 13.394 3.47827ZM11.519 9.47827C11.519 10.5138 10.6796 11.3533 9.64404 11.3533C8.60851 11.3533 7.76904 10.5138 7.76904 9.47827C7.76904 8.44274 8.60851 7.60327 9.64404 7.60327C10.6796 7.60327 11.519 8.44274 11.519 9.47827Z" stroke="#98A2B3" stroke-width="1.5" stroke-linecap="round" stroke-linejoin="round"/>
</svg>
