<svg width="19" height="19" viewBox="0 0 19 19" fill="none" xmlns="http://www.w3.org/2000/svg">
<path d="M6.6875 5.72821V13.2282M9.6875 8.72821V13.2282M12.6875 11.7282V13.2282M6.5375 16.2282H12.8375C14.0976 16.2282 14.7277 16.2282 15.209 15.983C15.6323 15.7673 15.9766 15.4231 16.1923 14.9997C16.4375 14.5184 16.4375 13.8883 16.4375 12.6282V6.32821C16.4375 5.06809 16.4375 4.43803 16.1923 3.95673C15.9766 3.53337 15.6323 3.18916 15.209 2.97345C14.7277 2.72821 14.0976 2.72821 12.8375 2.72821H6.5375C5.27738 2.72821 4.64732 2.72821 4.16602 2.97345C3.74266 3.18916 3.39845 3.53337 3.18274 3.95673C2.9375 4.43803 2.9375 5.06809 2.9375 6.32821V12.6282C2.9375 13.8883 2.9375 14.5184 3.18274 14.9997C3.39845 15.4231 3.74266 15.7673 4.16602 15.983C4.64732 16.2282 5.27738 16.2282 6.5375 16.2282Z" stroke="#98A2B3" stroke-width="1.5" stroke-linecap="round" stroke-linejoin="round"/>
</svg>
