<svg width="19" height="19" viewBox="0 0 19 19" fill="none" xmlns="http://www.w3.org/2000/svg">
<path d="M9.69531 2.72827H12.8453C14.1054 2.72827 14.7355 2.72827 15.2168 2.97351C15.6402 3.18922 15.9844 3.53343 16.2001 3.95679C16.4453 4.43809 16.4453 5.06815 16.4453 6.32827V12.6283C16.4453 13.8884 16.4453 14.5185 16.2001 14.9998C15.9844 15.4231 15.6402 15.7673 15.2168 15.983C14.7355 16.2283 14.1054 16.2283 12.8453 16.2283H6.54531C5.28519 16.2283 4.65514 16.2283 4.17383 15.983C3.75047 15.7673 3.40626 15.4231 3.19055 14.9998C2.94531 14.5185 2.94531 13.8884 2.94531 12.6283V9.47827M6.69531 10.2283V13.2283M12.6953 8.72827V13.2283M9.69531 5.72827V13.2283M2.19531 4.22827L4.44531 1.97827M4.44531 1.97827L6.69531 4.22827M4.44531 1.97827L4.44531 6.47827" stroke="#98A2B3" stroke-width="1.5" stroke-linecap="round" stroke-linejoin="round"/>
</svg>
