<svg width="19" height="19" viewBox="0 0 19 19" fill="none" xmlns="http://www.w3.org/2000/svg">
<g clip-path="url(#clip0_1_8433)">
<path d="M9.18945 2.72827H12.3395C13.5996 2.72827 14.2296 2.72827 14.7109 2.97351C15.1343 3.18922 15.4785 3.53343 15.6942 3.95679C15.9395 4.43809 15.9395 5.06815 15.9395 6.32827V12.6283C15.9395 13.8884 15.9395 14.5185 15.6942 14.9998C15.4785 15.4231 15.1343 15.7673 14.7109 15.983C14.2296 16.2283 13.5996 16.2283 12.3395 16.2283H6.03945C4.77934 16.2283 4.14928 16.2283 3.66797 15.983C3.24461 15.7673 2.9004 15.4231 2.68469 14.9998C2.43945 14.5185 2.43945 13.8884 2.43945 12.6283V9.47827M6.18945 10.2283V13.2283M12.1895 8.72827V13.2283M9.18945 5.72827V13.2283M1.68945 4.22827L3.93945 6.47827M3.93945 6.47827L6.18945 4.22827M3.93945 6.47827L3.93945 1.97827" stroke="#98A2B3" stroke-width="1.5" stroke-linecap="round" stroke-linejoin="round"/>
</g>
<defs>
<clipPath id="clip0_1_8433">
<rect width="18" height="18" fill="white" transform="translate(0.189453 0.478271)"/>
</clipPath>
</defs>
</svg>
