<svg width="19" height="19" viewBox="0 0 19 19" fill="none" xmlns="http://www.w3.org/2000/svg">
<path d="M15.1978 15.4782V10.2282M9.19775 15.4782V7.97821M3.19775 15.4782L3.19775 12.4782M10.2528 4.24884L14.1291 5.70246M8.29683 4.5289L4.09793 7.67808M15.9932 5.30772C16.4326 5.74706 16.4326 6.45937 15.9932 6.89871C15.5539 7.33805 14.8416 7.33805 14.4023 6.89871C13.9629 6.45937 13.9629 5.74706 14.4023 5.30772C14.8416 4.86838 15.5539 4.86838 15.9932 5.30772ZM3.99325 7.55772C4.43259 7.99706 4.43259 8.70937 3.99325 9.14871C3.55391 9.58805 2.8416 9.58805 2.40226 9.14871C1.96292 8.70937 1.96292 7.99706 2.40226 7.55772C2.8416 7.11838 3.55391 7.11838 3.99325 7.55772ZM9.99325 3.05772C10.4326 3.49706 10.4326 4.20937 9.99325 4.64871C9.55391 5.08805 8.8416 5.08805 8.40226 4.64871C7.96292 4.20937 7.96292 3.49706 8.40226 3.05772C8.8416 2.61838 9.55391 2.61838 9.99325 3.05772Z" stroke="#98A2B3" stroke-width="1.5" stroke-linecap="round" stroke-linejoin="round"/>
</svg>
