<svg width="19" height="19" viewBox="0 0 19 19" fill="none" xmlns="http://www.w3.org/2000/svg">
<g clip-path="url(#clip0_1_8437)">
<path d="M9.19336 2.72827H12.3434C13.6035 2.72827 14.2335 2.72827 14.7148 2.97351C15.1382 3.18922 15.4824 3.53343 15.6981 3.95679C15.9434 4.43809 15.9434 5.06815 15.9434 6.32827V12.6283C15.9434 13.8884 15.9434 14.5185 15.6981 14.9998C15.4824 15.4231 15.1382 15.7673 14.7148 15.983C14.2335 16.2283 13.6035 16.2283 12.3434 16.2283H6.04336C4.78324 16.2283 4.15318 16.2283 3.67188 15.983C3.24852 15.7673 2.90431 15.4231 2.68859 14.9998C2.44336 14.5185 2.44336 13.8884 2.44336 12.6283V9.47827M6.19336 10.2283V13.2283M12.1934 8.72827V13.2283M9.19336 5.72827V13.2283M3.94336 6.47827V1.97827M1.69336 4.22827H6.19336" stroke="#98A2B3" stroke-width="1.5" stroke-linecap="round" stroke-linejoin="round"/>
</g>
<defs>
<clipPath id="clip0_1_8437">
<rect width="18" height="18" fill="white" transform="translate(0.193359 0.478271)"/>
</clipPath>
</defs>
</svg>
