<svg width="19" height="19" viewBox="0 0 19 19" fill="none" xmlns="http://www.w3.org/2000/svg">
<path d="M6.68359 10.2282V13.2282M12.6836 8.72821V13.2282M9.68359 5.72821V13.2282M6.53359 16.2282H12.8336C14.0937 16.2282 14.7238 16.2282 15.2051 15.983C15.6284 15.7673 15.9726 15.4231 16.1884 14.9997C16.4336 14.5184 16.4336 13.8883 16.4336 12.6282V6.32821C16.4336 5.06809 16.4336 4.43803 16.1884 3.95673C15.9726 3.53337 15.6284 3.18916 15.2051 2.97345C14.7238 2.72821 14.0937 2.72821 12.8336 2.72821H6.53359C5.27348 2.72821 4.64342 2.72821 4.16212 2.97345C3.73875 3.18916 3.39454 3.53337 3.17883 3.95673C2.93359 4.43803 2.93359 5.06809 2.93359 6.32821V12.6282C2.93359 13.8883 2.93359 14.5184 3.17883 14.9997C3.39454 15.4231 3.73875 15.7673 4.16212 15.983C4.64342 16.2282 5.27348 16.2282 6.53359 16.2282Z" stroke="#98A2B3" stroke-width="1.5" stroke-linecap="round" stroke-linejoin="round"/>
</svg>
