<svg width="19" height="19" viewBox="0 0 19 19" fill="none" xmlns="http://www.w3.org/2000/svg">
<path d="M7.42187 16.2282H4.12187C3.70184 16.2282 3.49182 16.2282 3.33138 16.1465C3.19026 16.0746 3.07553 15.9598 3.00362 15.8187C2.92188 15.6583 2.92188 15.4483 2.92188 15.0282V3.92821C2.92188 3.50817 2.92188 3.29815 3.00362 3.13772C3.07553 2.9966 3.19026 2.88186 3.33138 2.80996C3.49182 2.72821 3.70184 2.72821 4.12188 2.72821H6.22188C6.64191 2.72821 6.85193 2.72821 7.01237 2.80996C7.15349 2.88186 7.26823 2.9966 7.34013 3.13772C7.42188 3.29815 7.42188 3.50817 7.42188 3.92821V5.72821M7.42187 16.2282H11.9219M7.42187 16.2282L7.42188 5.72821M7.42188 5.72821H10.7219C11.1419 5.72821 11.3519 5.72821 11.5124 5.80996C11.6535 5.88186 11.7682 5.9966 11.8401 6.13772C11.9219 6.29815 11.9219 6.50817 11.9219 6.92821V16.2282M11.9219 8.72821H15.2219C15.6419 8.72821 15.8519 8.72821 16.0124 8.80996C16.1535 8.88186 16.2682 8.9966 16.3401 9.13772C16.4219 9.29815 16.4219 9.50817 16.4219 9.92821V15.0282C16.4219 15.4483 16.4219 15.6583 16.3401 15.8187C16.2682 15.9598 16.1535 16.0746 16.0124 16.1465C15.8519 16.2282 15.6419 16.2282 15.2219 16.2282H11.9219" stroke="#98A2B3" stroke-width="1.5" stroke-linecap="round" stroke-linejoin="round"/>
</svg>
