<svg width="19" height="19" viewBox="0 0 19 19" fill="none" xmlns="http://www.w3.org/2000/svg">
<path d="M6.18555 11.7282V13.2282M9.18555 8.72821V13.2282M12.1855 5.72821V13.2282M6.03555 16.2282H12.3355C13.5957 16.2282 14.2257 16.2282 14.707 15.983C15.1304 15.7673 15.4746 15.4231 15.6903 14.9997C15.9355 14.5184 15.9355 13.8883 15.9355 12.6282V6.32821C15.9355 5.06809 15.9355 4.43803 15.6903 3.95673C15.4746 3.53337 15.1304 3.18916 14.707 2.97345C14.2257 2.72821 13.5957 2.72821 12.3355 2.72821H6.03555C4.77543 2.72821 4.14537 2.72821 3.66407 2.97345C3.2407 3.18916 2.8965 3.53337 2.68078 3.95673C2.43555 4.43803 2.43555 5.06809 2.43555 6.32821V12.6282C2.43555 13.8883 2.43555 14.5184 2.68078 14.9997C2.8965 15.4231 3.2407 15.7673 3.66407 15.983C4.14537 16.2282 4.77543 16.2282 6.03555 16.2282Z" stroke="#98A2B3" stroke-width="1.5" stroke-linecap="round" stroke-linejoin="round"/>
</svg>
