<svg width="19" height="19" viewBox="0 0 19 19" fill="none" xmlns="http://www.w3.org/2000/svg">
<path d="M9.6919 2.72821H12.8419C14.102 2.72821 14.7321 2.72821 15.2134 2.97345C15.6367 3.18916 15.9809 3.53337 16.1967 3.95673C16.4419 4.43803 16.4419 5.06809 16.4419 6.32821V12.6282C16.4419 13.8883 16.4419 14.5184 16.1967 14.9997C15.9809 15.4231 15.6367 15.7673 15.2134 15.983C14.7321 16.2282 14.102 16.2282 12.8419 16.2282H6.54189C5.28178 16.2282 4.65172 16.2282 4.17042 15.983C3.74705 15.7673 3.40285 15.4231 3.18713 14.9997C2.94189 14.5184 2.94189 13.8883 2.94189 12.6282V9.47821M6.69189 10.2282V13.2282M12.6919 8.72821V13.2282M9.6919 5.72821V13.2282M2.19189 4.22821H6.69189" stroke="#98A2B3" stroke-width="1.5" stroke-linecap="round" stroke-linejoin="round"/>
</svg>
