<svg width="19" height="19" viewBox="0 0 19 19" fill="none" xmlns="http://www.w3.org/2000/svg">
<path d="M6.92383 9.47821H3.62383C3.20379 9.47821 2.99377 9.47821 2.83334 9.55996C2.69221 9.63186 2.57748 9.7466 2.50557 9.88772C2.42383 10.0482 2.42383 10.2582 2.42383 10.6782V15.0282C2.42383 15.4483 2.42383 15.6583 2.50557 15.8187C2.57748 15.9598 2.69221 16.0746 2.83334 16.1465C2.99377 16.2282 3.20379 16.2282 3.62383 16.2282H6.92383M6.92383 16.2282H11.4238M6.92383 16.2282L6.92383 6.92821C6.92383 6.50817 6.92383 6.29815 7.00557 6.13772C7.07748 5.9966 7.19221 5.88186 7.33334 5.80996C7.49377 5.72821 7.70379 5.72821 8.12383 5.72821H10.2238C10.6439 5.72821 10.8539 5.72821 11.0143 5.80996C11.1554 5.88186 11.2702 5.9966 11.3421 6.13772C11.4238 6.29815 11.4238 6.50817 11.4238 6.92821V16.2282M11.4238 16.2282H14.7238C15.1439 16.2282 15.3539 16.2282 15.5143 16.1465C15.6554 16.0746 15.7702 15.9598 15.8421 15.8187C15.9238 15.6583 15.9238 15.4483 15.9238 15.0282V3.92821C15.9238 3.50817 15.9238 3.29815 15.8421 3.13772C15.7702 2.9966 15.6554 2.88186 15.5143 2.80996C15.3539 2.72821 15.1439 2.72821 14.7238 2.72821H12.6238C12.2038 2.72821 11.9938 2.72821 11.8333 2.80996C11.6922 2.88186 11.5775 2.9966 11.5056 3.13772C11.4238 3.29815 11.4238 3.50817 11.4238 3.92821V6.47821" stroke="#98A2B3" stroke-width="1.5" stroke-linecap="round" stroke-linejoin="round"/>
</svg>
