<svg width="19" height="19" viewBox="0 0 19 19" fill="none" xmlns="http://www.w3.org/2000/svg">
<path d="M6.91992 5.72821H3.61992C3.19988 5.72821 2.98986 5.72821 2.82943 5.80996C2.68831 5.88186 2.57357 5.9966 2.50167 6.13772C2.41992 6.29815 2.41992 6.50817 2.41992 6.92821V15.0282C2.41992 15.4483 2.41992 15.6583 2.50167 15.8187C2.57357 15.9598 2.68831 16.0746 2.82943 16.1465C2.98986 16.2282 3.19988 16.2282 3.61992 16.2282H6.91992M6.91992 16.2282H11.4199M6.91992 16.2282L6.91992 3.92821C6.91992 3.50817 6.91992 3.29815 7.00167 3.13772C7.07357 2.9966 7.18831 2.88186 7.32943 2.80996C7.48986 2.72821 7.69988 2.72821 8.11992 2.72821L10.2199 2.72821C10.64 2.72821 10.85 2.72821 11.0104 2.80996C11.1515 2.88186 11.2663 2.9966 11.3382 3.13772C11.4199 3.29815 11.4199 3.50817 11.4199 3.92821V16.2282M11.4199 8.72821H14.7199C15.14 8.72821 15.35 8.72821 15.5104 8.80996C15.6515 8.88186 15.7663 8.9966 15.8382 9.13772C15.9199 9.29815 15.9199 9.50817 15.9199 9.92821V15.0282C15.9199 15.4483 15.9199 15.6583 15.8382 15.8187C15.7663 15.9598 15.6515 16.0746 15.5104 16.1465C15.35 16.2282 15.14 16.2282 14.7199 16.2282H11.4199" stroke="#98A2B3" stroke-width="1.5" stroke-linecap="round" stroke-linejoin="round"/>
</svg>
