<svg width="19" height="19" viewBox="0 0 19 19" fill="none" xmlns="http://www.w3.org/2000/svg">
<g clip-path="url(#clip0_1_9663)">
<path d="M5.08838 7.97833V10.9783M8.08838 7.97833V10.9783M16.7134 10.2283V8.72833M5.31338 13.9783H10.8634C12.1235 13.9783 12.7536 13.9783 13.2349 13.7331C13.6582 13.5174 14.0024 13.1732 14.2181 12.7498C14.4634 12.2685 14.4634 11.6385 14.4634 10.3783V8.57833C14.4634 7.31821 14.4634 6.68816 14.2181 6.20685C14.0024 5.78349 13.6582 5.43928 13.2349 5.22357C12.7536 4.97833 12.1235 4.97833 10.8634 4.97833H5.31338C4.05326 4.97833 3.4232 4.97833 2.9419 5.22357C2.51854 5.43928 2.17433 5.78349 1.95861 6.20685C1.71338 6.68816 1.71338 7.31821 1.71338 8.57833V10.3783C1.71338 11.6385 1.71338 12.2685 1.95861 12.7498C2.17433 13.1732 2.51854 13.5174 2.9419 13.7331C3.4232 13.9783 4.05326 13.9783 5.31338 13.9783Z" stroke="#98A2B3" stroke-width="1.5" stroke-linecap="round" stroke-linejoin="round"/>
</g>
<defs>
<clipPath id="clip0_1_9663">
<rect width="18" height="18" fill="white" transform="translate(0.213379 0.478271)"/>
</clipPath>
</defs>
</svg>
