<svg width="19" height="19" viewBox="0 0 19 19" fill="none" xmlns="http://www.w3.org/2000/svg">
<path d="M5.58691 7.97833V10.9783M17.2119 10.2283V8.72833M5.81191 13.9783H11.3619C12.622 13.9783 13.2521 13.9783 13.7334 13.7331C14.1568 13.5174 14.501 13.1732 14.7167 12.7498C14.9619 12.2685 14.9619 11.6385 14.9619 10.3783V8.57833C14.9619 7.31821 14.9619 6.68816 14.7167 6.20685C14.501 5.78349 14.1568 5.43928 13.7334 5.22357C13.2521 4.97833 12.622 4.97833 11.3619 4.97833H5.81191C4.5518 4.97833 3.92174 4.97833 3.44044 5.22357C3.01707 5.43928 2.67286 5.78349 2.45715 6.20685C2.21191 6.68816 2.21191 7.31821 2.21191 8.57833V10.3783C2.21191 11.6385 2.21191 12.2685 2.45715 12.7498C2.67286 13.1732 3.01707 13.5174 3.44044 13.7331C3.92174 13.9783 4.5518 13.9783 5.81191 13.9783Z" stroke="#98A2B3" stroke-width="1.5" stroke-linecap="round" stroke-linejoin="round"/>
</svg>
