<svg width="19" height="19" viewBox="0 0 19 19" fill="none" xmlns="http://www.w3.org/2000/svg">
<g clip-path="url(#clip0_1_9655)">
<path d="M7.33057 13.9783L10.3306 9.47833H5.83057L8.83057 4.97833M16.7056 10.2283V8.72833M10.7056 13.9783H10.8556C12.1157 13.9783 12.7457 13.9783 13.227 13.7331C13.6504 13.5174 13.9946 13.1732 14.2103 12.7498C14.4556 12.2685 14.4556 11.6385 14.4556 10.3783V7.97833C14.4556 7.28085 14.4556 6.93211 14.3789 6.64599C14.1708 5.86953 13.5644 5.26305 12.7879 5.055C12.5018 4.97833 12.153 4.97833 11.4556 4.97833M5.45557 4.97833H5.30557C4.04545 4.97833 3.41539 4.97833 2.93409 5.22357C2.51072 5.43928 2.16652 5.78349 1.9508 6.20685C1.70557 6.68816 1.70557 7.31821 1.70557 8.57833V10.9783C1.70557 11.6758 1.70557 12.0246 1.78223 12.3107C1.99028 13.0871 2.59677 13.6936 3.37322 13.9017C3.65935 13.9783 4.00809 13.9783 4.70557 13.9783" stroke="#98A2B3" stroke-width="1.5" stroke-linecap="round" stroke-linejoin="round"/>
</g>
<defs>
<clipPath id="clip0_1_9655">
<rect width="18" height="18" fill="white" transform="translate(0.205566 0.478271)"/>
</clipPath>
</defs>
</svg>
