<svg width="19" height="19" viewBox="0 0 19 19" fill="none" xmlns="http://www.w3.org/2000/svg">
<path d="M8.82861 11.7283L10.0786 9.47833H7.07861L8.32861 7.22833M17.2036 10.2283V8.72833M5.80361 13.9783H11.3536C12.6137 13.9783 13.2438 13.9783 13.7251 13.7331C14.1485 13.5174 14.4927 13.1732 14.7084 12.7498C14.9536 12.2685 14.9536 11.6385 14.9536 10.3783V8.57833C14.9536 7.31821 14.9536 6.68816 14.7084 6.20685C14.4927 5.78349 14.1485 5.43928 13.7251 5.22357C13.2438 4.97833 12.6137 4.97833 11.3536 4.97833H5.80361C4.5435 4.97833 3.91344 4.97833 3.43213 5.22357C3.00877 5.43928 2.66456 5.78349 2.44885 6.20685C2.20361 6.68816 2.20361 7.31821 2.20361 8.57833V10.3783C2.20361 11.6385 2.20361 12.2685 2.44885 12.7498C2.66456 13.1732 3.00877 13.5174 3.43213 13.7331C3.91344 13.9783 4.5435 13.9783 5.80361 13.9783Z" stroke="#98A2B3" stroke-width="1.5" stroke-linecap="round" stroke-linejoin="round"/>
</svg>
