<svg width="19" height="19" viewBox="0 0 19 19" fill="none" xmlns="http://www.w3.org/2000/svg">
<g clip-path="url(#clip0_1_9659)">
<path d="M5.08447 7.97833V10.9783M8.08447 7.97833V10.9783M11.0845 7.97833V10.9783M16.7095 10.2283V8.72833M5.30947 13.9783H10.8595C12.1196 13.9783 12.7497 13.9783 13.231 13.7331C13.6543 13.5174 13.9985 13.1732 14.2142 12.7498C14.4595 12.2685 14.4595 11.6385 14.4595 10.3783V8.57833C14.4595 7.31821 14.4595 6.68816 14.2142 6.20685C13.9985 5.78349 13.6543 5.43928 13.231 5.22357C12.7497 4.97833 12.1196 4.97833 10.8595 4.97833H5.30947C4.04935 4.97833 3.4193 4.97833 2.93799 5.22357C2.51463 5.43928 2.17042 5.78349 1.95471 6.20685C1.70947 6.68816 1.70947 7.31821 1.70947 8.57833V10.3783C1.70947 11.6385 1.70947 12.2685 1.95471 12.7498C2.17042 13.1732 2.51463 13.5174 2.93799 13.7331C3.4193 13.9783 4.04935 13.9783 5.30947 13.9783Z" stroke="#98A2B3" stroke-width="1.5" stroke-linecap="round" stroke-linejoin="round"/>
</g>
<defs>
<clipPath id="clip0_1_9659">
<rect width="18" height="18" fill="white" transform="translate(0.209473 0.478271)"/>
</clipPath>
</defs>
</svg>
