<svg width="19" height="19" viewBox="0 0 19 19" fill="none" xmlns="http://www.w3.org/2000/svg">
<path d="M17.2075 10.2283V8.72833M5.80752 13.9783H11.3575C12.6176 13.9783 13.2477 13.9783 13.729 13.7331C14.1524 13.5174 14.4966 13.1732 14.7123 12.7498C14.9575 12.2685 14.9575 11.6385 14.9575 10.3783V8.57833C14.9575 7.31821 14.9575 6.68816 14.7123 6.20685C14.4966 5.78349 14.1524 5.43928 13.729 5.22357C13.2477 4.97833 12.6176 4.97833 11.3575 4.97833H5.80752C4.5474 4.97833 3.91734 4.97833 3.43604 5.22357C3.01268 5.43928 2.66847 5.78349 2.45275 6.20685C2.20752 6.68816 2.20752 7.31821 2.20752 8.57833V10.3783C2.20752 11.6385 2.20752 12.2685 2.45275 12.7498C2.66847 13.1732 3.01268 13.5174 3.43604 13.7331C3.91734 13.9783 4.5474 13.9783 5.80752 13.9783Z" stroke="#98A2B3" stroke-width="1.5" stroke-linecap="round" stroke-linejoin="round"/>
</svg>
