<svg width="19" height="19" viewBox="0 0 19 19" fill="none" xmlns="http://www.w3.org/2000/svg">
<g clip-path="url(#clip0_1_11047)">
<path d="M3.95117 13.9783H2.45117C2.05335 13.9783 1.67182 13.8203 1.39051 13.539C1.10921 13.2577 0.951172 12.8762 0.951172 12.4783V6.47833C0.951172 6.08051 1.10921 5.69898 1.39051 5.41767C1.67182 5.13637 2.05335 4.97833 2.45117 4.97833H4.84367M11.4512 4.97833H12.9512C13.349 4.97833 13.7305 5.13637 14.0118 5.41767C14.2931 5.69898 14.4512 6.08051 14.4512 6.47833V12.4783C14.4512 12.8762 14.2931 13.2577 14.0118 13.539C13.7305 13.8203 13.349 13.9783 12.9512 13.9783H10.5587M17.4512 10.2283V8.72833M8.45117 4.97833L5.45117 9.47833H9.95117L6.95117 13.9783" stroke="#98A2B3" stroke-width="1.5" stroke-linecap="round" stroke-linejoin="round"/>
</g>
<defs>
<clipPath id="clip0_1_11047">
<rect width="18" height="18" fill="white" transform="translate(0.201172 0.478271)"/>
</clipPath>
</defs>
</svg>
