<svg width="19" height="19" viewBox="0 0 19 19" fill="none" xmlns="http://www.w3.org/2000/svg">
<path d="M8.21533 1.97834V5.47365C8.21533 5.63653 8.21533 5.71797 8.19051 5.78275C8.16709 5.84387 8.1361 5.88823 8.08677 5.93124C8.03447 5.97684 7.94978 6.00786 7.78039 6.06992C5.62702 6.85878 4.09033 8.92657 4.09033 11.3533C4.09033 14.4599 6.60873 16.9783 9.71533 16.9783C12.8219 16.9783 15.3403 14.4599 15.3403 11.3533C15.3403 8.92657 13.8036 6.85878 11.6503 6.06992C11.4809 6.00786 11.3962 5.97684 11.3439 5.93124C11.2946 5.88823 11.2636 5.84387 11.2402 5.78275C11.2153 5.71797 11.2153 5.63653 11.2153 5.47365V1.97834M7.09033 1.97827H12.3403" stroke="#98A2B3" stroke-width="1.5" stroke-linecap="round" stroke-linejoin="round"/>
</svg>
