<svg width="19" height="19" viewBox="0 0 19 19" fill="none" xmlns="http://www.w3.org/2000/svg">
<path d="M6.96729 4.97827V8.35417C6.96729 8.76737 6.96729 8.97397 6.91578 9.16541C6.87014 9.33504 6.79506 9.49534 6.69397 9.63899C6.57987 9.80112 6.42115 9.93338 6.10373 10.1979L3.33084 12.5086C3.01342 12.7732 2.8547 12.9054 2.7406 13.0676C2.63951 13.2112 2.56443 13.3715 2.51879 13.5411C2.46729 13.7326 2.46729 13.9392 2.46729 14.3524V14.5783C2.46729 15.4184 2.46729 15.8384 2.63078 16.1593C2.77459 16.4415 3.00406 16.671 3.2863 16.8148C3.60717 16.9783 4.02721 16.9783 4.86729 16.9783H13.5673C14.4074 16.9783 14.8274 16.9783 15.1483 16.8148C15.4305 16.671 15.66 16.4415 15.8038 16.1593C15.9673 15.8384 15.9673 15.4184 15.9673 14.5783V14.3524C15.9673 13.9392 15.9673 13.7326 15.9158 13.5411C15.8701 13.3715 15.7951 13.2112 15.694 13.0676C15.5799 12.9054 15.4212 12.7732 15.1037 12.5086L12.3308 10.1979C12.0134 9.93338 11.8547 9.80112 11.7406 9.63899C11.6395 9.49534 11.5644 9.33504 11.5188 9.16541C11.4673 8.97397 11.4673 8.76737 11.4673 8.35417V4.97827M6.44229 4.97827H11.9923C12.2023 4.97827 12.3073 4.97827 12.3875 4.9374C12.4581 4.90145 12.5155 4.84408 12.5514 4.77352C12.5923 4.6933 12.5923 4.58829 12.5923 4.37827V2.57827C12.5923 2.36825 12.5923 2.26324 12.5514 2.18303C12.5155 2.11246 12.4581 2.0551 12.3875 2.01914C12.3073 1.97827 12.2023 1.97827 11.9923 1.97827H6.44229C6.23227 1.97827 6.12726 1.97827 6.04704 2.01914C5.97648 2.0551 5.91911 2.11246 5.88316 2.18303C5.84229 2.26324 5.84229 2.36825 5.84229 2.57827V4.37827C5.84229 4.58829 5.84229 4.6933 5.88316 4.77352C5.91911 4.84408 5.97648 4.90145 6.04704 4.9374C6.12726 4.97827 6.23227 4.97827 6.44229 4.97827ZM4.34229 13.2283H14.0923C14.4408 13.2283 14.615 13.2283 14.7599 13.2571C15.355 13.3755 15.8201 13.8406 15.9385 14.4356C15.9673 14.5805 15.9673 14.7548 15.9673 15.1033C15.9673 15.4518 15.9673 15.626 15.9385 15.7709C15.8201 16.3659 15.355 16.8311 14.7599 16.9495C14.615 16.9783 14.4408 16.9783 14.0923 16.9783H4.34229C3.99379 16.9783 3.81955 16.9783 3.67465 16.9495C3.07961 16.8311 2.61447 16.3659 2.49611 15.7709C2.46729 15.626 2.46729 15.4518 2.46729 15.1033C2.46729 14.7548 2.46729 14.5805 2.49611 14.4356C2.61447 13.8406 3.07961 13.3755 3.67465 13.2571C3.81955 13.2283 3.99379 13.2283 4.34229 13.2283Z" stroke="#98A2B3" stroke-width="1.5" stroke-linecap="round" stroke-linejoin="round"/>
</svg>
