<svg width="19" height="19" viewBox="0 0 19 19" fill="none" xmlns="http://www.w3.org/2000/svg">
<path d="M11.0167 16.2283C10.8849 16.4556 10.6956 16.6443 10.4679 16.7754C10.2402 16.9066 9.98202 16.9756 9.71924 16.9756C9.45645 16.9756 9.19828 16.9066 8.97057 16.7754C8.74286 16.6443 8.5536 16.4556 8.42174 16.2283M14.2192 6.47827C14.2192 5.2848 13.7451 4.1402 12.9012 3.29629C12.0573 2.45238 10.9127 1.97827 9.71924 1.97827C8.52576 1.97827 7.38117 2.45238 6.53726 3.29629C5.69334 4.1402 5.21924 5.2848 5.21924 6.47827C5.21924 11.7283 2.96924 13.2283 2.96924 13.2283H16.4692C16.4692 13.2283 14.2192 11.7283 14.2192 6.47827Z" stroke="#98A2B3" stroke-width="1.5" stroke-linecap="round" stroke-linejoin="round"/>
</svg>
