<svg width="19" height="19" viewBox="0 0 19 19" fill="none" xmlns="http://www.w3.org/2000/svg">
<path d="M7.25727 16.2283C7.78612 16.695 8.48081 16.9783 9.24164 16.9783C10.0025 16.9783 10.6972 16.695 11.226 16.2283M1.96206 4.84319C1.9513 3.75468 2.53816 2.73821 3.48622 2.20327M16.5182 4.8432C16.529 3.75468 15.9421 2.73821 14.9941 2.20327M13.7416 6.47827C13.7416 5.2848 13.2675 4.1402 12.4236 3.29629C11.5797 2.45238 10.4351 1.97827 9.24164 1.97827C8.04817 1.97827 6.90358 2.45238 6.05966 3.29629C5.21575 4.1402 4.74164 5.2848 4.74164 6.47827C4.74164 8.79591 4.15699 10.3827 3.50389 11.4323C2.95299 12.3177 2.67754 12.7604 2.68764 12.8838C2.69882 13.0206 2.72779 13.0727 2.83797 13.1545C2.93749 13.2283 3.38608 13.2283 4.28328 13.2283H14.2C15.0972 13.2283 15.5458 13.2283 15.6453 13.1545C15.7555 13.0727 15.7845 13.0206 15.7956 12.8838C15.8057 12.7604 15.5303 12.3177 14.9794 11.4323C14.3263 10.3827 13.7416 8.79591 13.7416 6.47827Z" stroke="#98A2B3" stroke-width="1.5" stroke-linecap="round" stroke-linejoin="round"/>
</svg>
