<svg width="19" height="19" viewBox="0 0 19 19" fill="none" xmlns="http://www.w3.org/2000/svg">
<path d="M7.24471 16.2283C7.77356 16.695 8.46825 16.9783 9.22908 16.9783C9.98992 16.9783 10.6846 16.695 11.2134 16.2283M11.4791 4.22827H15.9791M9.97908 2.04119C9.73288 1.99958 9.48208 1.97827 9.22908 1.97827C8.03561 1.97827 6.89101 2.45238 6.0471 3.29629C5.20319 4.1402 4.72908 5.2848 4.72908 6.47827C4.72908 8.79591 4.14443 10.3827 3.49133 11.4323C2.94043 12.3177 2.66497 12.7604 2.67507 12.8838C2.68626 13.0206 2.71522 13.0727 2.82541 13.1545C2.92492 13.2283 3.37352 13.2283 4.27072 13.2283H14.1874C15.0847 13.2283 15.5333 13.2283 15.6328 13.1545C15.743 13.0727 15.772 13.0206 15.7831 12.8838C15.7932 12.7603 15.5178 12.3177 14.967 11.4325C14.3868 10.5002 13.8606 9.14405 13.7503 7.22827" stroke="#98A2B3" stroke-width="1.5" stroke-linecap="round" stroke-linejoin="round"/>
</svg>
