<svg width="19" height="19" viewBox="0 0 19 19" fill="none" xmlns="http://www.w3.org/2000/svg">
<path d="M7.2369 16.2283C7.76575 16.695 8.46043 16.9783 9.22127 16.9783C9.9821 16.9783 10.6768 16.695 11.2056 16.2283M13.7213 6.47827C13.7213 5.2848 13.2472 4.1402 12.4032 3.29629C11.5593 2.45238 10.4147 1.97827 9.22127 1.97827C8.02779 1.97827 6.8832 2.45238 6.03929 3.29629C5.19537 4.1402 4.72127 5.2848 4.72127 6.47827C4.72127 8.79591 4.13662 10.3827 3.48352 11.4323C2.93261 12.3177 2.65716 12.7604 2.66726 12.8838C2.67844 13.0206 2.70741 13.0727 2.8176 13.1545C2.91711 13.2283 3.36571 13.2283 4.26291 13.2283H14.1796C15.0768 13.2283 15.5254 13.2283 15.6249 13.1545C15.7351 13.0727 15.7641 13.0206 15.7753 12.8838C15.7854 12.7604 15.5099 12.3177 14.959 11.4323C14.3059 10.3827 13.7213 8.79591 13.7213 6.47827Z" stroke="#98A2B3" stroke-width="1.5" stroke-linecap="round" stroke-linejoin="round"/>
</svg>
