<svg width="19" height="19" viewBox="0 0 19 19" fill="none" xmlns="http://www.w3.org/2000/svg">
<path d="M11.2354 16.2283H8.23535M7.21014 2.75355C7.95004 2.25195 8.82859 1.97827 9.73535 1.97827C10.9288 1.97827 12.0734 2.45238 12.9173 3.29629C13.7612 4.1402 14.2353 5.2848 14.2353 6.47827C14.2353 8.05385 14.438 9.29168 14.7217 10.2526M5.42935 5.1712C5.30185 5.59122 5.23535 6.03131 5.23535 6.47827C5.23535 8.79591 4.6507 10.3827 3.9976 11.4323C3.4467 12.3177 3.17125 12.7604 3.18135 12.8838C3.19253 13.0206 3.2215 13.0727 3.33168 13.1545C3.4312 13.2283 3.87979 13.2283 4.77699 13.2283H13.4854M16.4854 16.2283L2.98535 2.72827" stroke="#98A2B3" stroke-width="1.5" stroke-linecap="round" stroke-linejoin="round"/>
</svg>
