<svg width="19" height="19" viewBox="0 0 19 19" fill="none" xmlns="http://www.w3.org/2000/svg">
<path d="M7.75448 16.2283C8.28333 16.695 8.97801 16.9783 9.73885 16.9783C10.4997 16.9783 11.1944 16.695 11.7232 16.2283M14.2388 6.47827V1.97827M11.9888 4.22827H16.4888M10.4888 2.04119C10.2426 1.99958 9.99184 1.97827 9.73885 1.97827C8.54537 1.97827 7.40078 2.45238 6.55686 3.29629C5.71295 4.1402 5.23884 5.2848 5.23884 6.47827C5.23884 8.79591 4.6542 10.3827 4.00109 11.4323C3.45019 12.3177 3.17474 12.7604 3.18484 12.8838C3.19602 13.0206 3.22499 13.0727 3.33518 13.1545C3.43469 13.2283 3.88329 13.2283 4.78049 13.2283H14.6972C15.5944 13.2283 16.0429 13.2283 16.1425 13.1545C16.2526 13.0727 16.2816 13.0206 16.2928 12.8838C16.3029 12.7604 16.0274 12.3176 15.4765 11.4321C15.1074 10.839 14.7603 10.0744 14.5281 9.10327" stroke="#98A2B3" stroke-width="1.5" stroke-linecap="round" stroke-linejoin="round"/>
</svg>
