<svg width="19" height="19" viewBox="0 0 19 19" fill="none" xmlns="http://www.w3.org/2000/svg">
<path d="M11.4873 14.7283C11.4873 15.9709 10.4799 16.9783 9.23731 16.9783C7.99466 16.9783 6.98731 15.9709 6.98731 14.7283M5.77041 6.39186C5.10547 7.08822 4.73731 7.96679 4.73731 8.87827C4.73731 10.5896 4.3129 11.8412 3.78335 12.7368C3.17981 13.7575 2.87804 14.2678 2.88995 14.3898C2.90359 14.5292 2.92869 14.5732 3.04181 14.656C3.14068 14.7283 3.63744 14.7283 4.63095 14.7283H15.1473M9.23731 4.97827C9.01763 4.97827 8.7996 4.99219 8.5848 5.01947C8.29866 5.05581 8.15559 5.07398 8.01199 5.03495C7.90861 5.00685 7.75273 4.91623 7.67715 4.8403C7.57217 4.73483 7.54922 4.67919 7.50331 4.56793C7.41244 4.34768 7.36231 4.10633 7.36231 3.85327C7.36231 2.81774 8.20177 1.97827 9.23731 1.97827C10.2728 1.97827 11.1123 2.81774 11.1123 3.85327C11.1123 4.35999 10.9113 4.81975 10.5847 5.15719C10.1526 5.03965 9.69858 4.97827 9.23731 4.97827ZM9.23731 4.97827C10.4308 4.97827 11.5754 5.38916 12.4193 6.12056C13.2632 6.85195 13.7373 7.84393 13.7373 8.87827C13.7373 9.12935 13.7442 9.37053 13.7571 9.60214M15.9873 15.4783L2.4873 3.47827" stroke="#98A2B3" stroke-width="1.5" stroke-linecap="round" stroke-linejoin="round"/>
</svg>
