<svg width="19" height="19" viewBox="0 0 19 19" fill="none" xmlns="http://www.w3.org/2000/svg">
<path d="M11.2436 16.2283H8.24363M2.46401 4.84319C2.45325 3.75468 3.04011 2.73821 3.98817 2.20327M17.0203 4.8432C17.0311 3.75468 16.4442 2.73821 15.4961 2.20327M14.2436 6.47827C14.2436 5.2848 13.7695 4.1402 12.9256 3.29629C12.0817 2.45238 10.9371 1.97827 9.74363 1.97827C8.55016 1.97827 7.40557 2.45238 6.56165 3.29629C5.71774 4.1402 5.24363 5.2848 5.24363 6.47827C5.24363 8.79591 4.65898 10.3827 4.00588 11.4323C3.45498 12.3177 3.17953 12.7604 3.18963 12.8838C3.20081 13.0206 3.22978 13.0727 3.33996 13.1545C3.43948 13.2283 3.88807 13.2283 4.78527 13.2283H14.702C15.5992 13.2283 16.0478 13.2283 16.1473 13.1545C16.2575 13.0727 16.2865 13.0206 16.2976 12.8838C16.3077 12.7604 16.0323 12.3177 15.4814 11.4323C14.8283 10.3827 14.2436 8.79591 14.2436 6.47827Z" stroke="#98A2B3" stroke-width="1.5" stroke-linecap="round" stroke-linejoin="round"/>
</svg>
