<svg width="19" height="19" viewBox="0 0 19 19" fill="none" xmlns="http://www.w3.org/2000/svg">
<path d="M6.70722 2.75355C7.44712 2.25195 8.32566 1.97827 9.23242 1.97827C10.4259 1.97827 11.5705 2.45238 12.4144 3.29629C13.2583 4.1402 13.7324 5.2848 13.7324 6.47827C13.7324 8.05385 13.9351 9.29168 14.2187 10.2526M4.92642 5.1712C4.79892 5.59122 4.73242 6.03132 4.73242 6.47827C4.73242 8.79591 4.14777 10.3827 3.49467 11.4323C2.94377 12.3177 2.66832 12.7604 2.67842 12.8838C2.6896 13.0206 2.71857 13.0727 2.82875 13.1545C2.92827 13.2283 3.37686 13.2283 4.27406 13.2283H12.9824M7.24805 16.2283C7.7769 16.695 8.47159 16.9783 9.23242 16.9783C9.99326 16.9783 10.6879 16.695 11.2168 16.2283M15.9824 16.2283L2.48242 2.72827" stroke="#98A2B3" stroke-width="1.5" stroke-linecap="round" stroke-linejoin="round"/>
</svg>
