<svg width="19" height="19" viewBox="0 0 19 19" fill="none" xmlns="http://www.w3.org/2000/svg">
<path d="M11.4953 14.7283C11.4953 15.9709 10.4879 16.9783 9.2453 16.9783C8.00266 16.9783 6.9953 15.9709 6.9953 14.7283M10.5927 5.15719C10.9193 4.81975 11.1203 4.35999 11.1203 3.85327C11.1203 2.81774 10.2808 1.97827 9.2453 1.97827C8.20977 1.97827 7.3703 2.81774 7.3703 3.85327C7.3703 4.35999 7.57131 4.81975 7.89793 5.15719M2.15542 6.72049C2.14466 5.63198 2.73152 4.61551 3.67958 4.08057M16.3352 6.72049C16.3459 5.63198 15.7591 4.61551 14.811 4.08057M13.7453 8.87827C13.7453 7.84393 13.2712 6.85195 12.4273 6.12056C11.5834 5.38916 10.4388 4.97827 9.2453 4.97827C8.05183 4.97827 6.90724 5.38916 6.06332 6.12056C5.21941 6.85195 4.7453 7.84393 4.7453 8.87827C4.7453 10.5896 4.3209 11.8412 3.79135 12.7368C3.18781 13.7575 2.88604 14.2678 2.89795 14.3898C2.91159 14.5292 2.93669 14.5732 3.04981 14.656C3.14868 14.7283 3.64544 14.7283 4.63895 14.7283H13.8517C14.8452 14.7283 15.3419 14.7283 15.4408 14.656C15.5539 14.5732 15.579 14.5292 15.5927 14.3898C15.6046 14.2678 15.3028 13.7575 14.6993 12.7368C14.1697 11.8412 13.7453 10.5896 13.7453 8.87827Z" stroke="#98A2B3" stroke-width="1.5" stroke-linecap="round" stroke-linejoin="round"/>
</svg>
