<svg width="19" height="19" viewBox="0 0 19 19" fill="none" xmlns="http://www.w3.org/2000/svg">
<path d="M12.4818 13.9894C12.8034 15.1897 12.0911 16.4235 10.8908 16.7451C9.69046 17.0667 8.4567 16.3544 8.13508 15.1541M2.28994 9.18831C1.99782 8.13968 2.3016 7.00595 3.0789 6.24386M9.85705 4.78397C10.0852 4.37349 10.1604 3.87737 10.0292 3.38792C9.7612 2.38767 8.73307 1.79408 7.73282 2.0621C6.73257 2.33011 6.13898 3.35824 6.40699 4.35849C6.53814 4.84794 6.85129 5.24002 7.25411 5.48142M15.9866 5.51833C15.7152 4.46413 14.8853 3.63418 13.8311 3.36284M13.8653 7.56229C13.5976 6.56319 12.8829 5.72772 11.8784 5.23967C10.874 4.75162 9.66204 4.65098 8.50923 4.95987C7.35642 5.26876 6.35718 5.9619 5.73132 6.88679C5.10546 7.81168 4.90425 8.89257 5.17196 9.89167C5.61489 11.5447 5.52888 12.8635 5.24916 13.8656C4.93036 15.0077 4.77096 15.5788 4.81403 15.6935C4.8633 15.8247 4.89894 15.8607 5.02961 15.9113C5.14383 15.9556 5.62366 15.827 6.58331 15.5699L15.4821 13.1854C16.4418 12.9283 16.9216 12.7997 16.9984 12.7043C17.0862 12.5951 17.0991 12.5461 17.0762 12.4078C17.0561 12.287 16.6326 11.8721 15.7854 11.0424C15.0421 10.3144 14.3082 9.21533 13.8653 7.56229Z" stroke="#98A2B3" stroke-width="1.5" stroke-linecap="round" stroke-linejoin="round"/>
</svg>
