<svg width="19" height="19" viewBox="0 0 19 19" fill="none" xmlns="http://www.w3.org/2000/svg">
<path d="M11.5202 13.9894C11.8418 15.1897 11.1295 16.4235 9.92921 16.7451C8.72891 17.0667 7.49515 16.3544 7.17353 15.1541M8.8956 4.78397C9.12376 4.37349 9.19891 3.87737 9.06776 3.38792C8.79975 2.38767 7.77162 1.79408 6.77137 2.0621C5.77112 2.33011 5.17753 3.35824 5.44554 4.35849C5.57669 4.84794 5.88984 5.24002 6.29267 5.48142M12.9039 7.5623C12.6362 6.5632 11.9215 5.72773 10.917 5.23968C9.91257 4.75163 8.70063 4.65098 7.54782 4.95987C6.39502 5.26877 5.39577 5.9619 4.76991 6.88679C4.14405 7.81168 3.94285 8.89257 4.21055 9.89167C4.65348 11.5447 4.56748 12.8635 4.28776 13.8656C3.96896 15.0077 3.80956 15.5788 3.85263 15.6935C3.90189 15.8247 3.93753 15.8607 4.06821 15.9113C4.18243 15.9556 4.66225 15.827 5.62191 15.5699L14.5207 13.1854C15.4804 12.9283 15.9602 12.7997 16.037 12.7043C16.1248 12.5951 16.1377 12.5461 16.1148 12.4079C16.0947 12.287 15.6711 11.8722 14.824 11.0424C14.0807 10.3144 13.3468 9.21534 12.9039 7.5623Z" stroke="#98A2B3" stroke-width="1.5" stroke-linecap="round" stroke-linejoin="round"/>
</svg>
