<svg width="19" height="19" viewBox="0 0 19 19" fill="none" xmlns="http://www.w3.org/2000/svg">
<path d="M11.2232 16.2283H8.22322M14.2232 6.47827C14.2232 5.2848 13.7491 4.1402 12.9052 3.29629C12.0613 2.45238 10.9167 1.97827 9.72322 1.97827C8.52975 1.97827 7.38515 2.45238 6.54124 3.29629C5.69733 4.1402 5.22322 5.2848 5.22322 6.47827C5.22322 8.79591 4.63857 10.3827 3.98547 11.4323C3.43456 12.3177 3.15911 12.7604 3.16921 12.8838C3.1804 13.0206 3.20936 13.0727 3.31955 13.1545C3.41906 13.2283 3.86766 13.2283 4.76486 13.2283H14.6816C15.5788 13.2283 16.0274 13.2283 16.1269 13.1545C16.2371 13.0727 16.266 13.0206 16.2772 12.8838C16.2873 12.7604 16.0119 12.3177 15.461 11.4323C14.8079 10.3827 14.2232 8.79591 14.2232 6.47827Z" stroke="#98A2B3" stroke-width="1.5" stroke-linecap="round" stroke-linejoin="round"/>
</svg>
