<svg width="19" height="19" viewBox="0 0 19 19" fill="none" xmlns="http://www.w3.org/2000/svg">
<path d="M11.4746 14.7283C11.4746 15.9709 10.4673 16.9783 9.22464 16.9783C7.982 16.9783 6.97464 15.9709 6.97464 14.7283M10.572 5.15719C10.8986 4.81975 11.0996 4.35999 11.0996 3.85327C11.0996 2.81774 10.2602 1.97827 9.22464 1.97827C8.18911 1.97827 7.34964 2.81774 7.34964 3.85327C7.34964 4.35999 7.55065 4.81975 7.87727 5.15719M13.7246 8.87827C13.7246 7.84393 13.2505 6.85195 12.4066 6.12056C11.5627 5.38916 10.4181 4.97827 9.22464 4.97827C8.03117 4.97827 6.88658 5.38916 6.04266 6.12056C5.19875 6.85195 4.72464 7.84393 4.72464 8.87827C4.72464 10.5896 4.30024 11.8412 3.77069 12.7368C3.16715 13.7575 2.86538 14.2678 2.87729 14.3898C2.89093 14.5292 2.91603 14.5732 3.02915 14.656C3.12802 14.7283 3.62478 14.7283 4.61829 14.7283H13.831C14.8245 14.7283 15.3213 14.7283 15.4201 14.656C15.5333 14.5732 15.5584 14.5292 15.572 14.3898C15.5839 14.2678 15.2821 13.7575 14.6786 12.7368C14.149 11.8412 13.7246 10.5896 13.7246 8.87827Z" stroke="#98A2B3" stroke-width="1.5" stroke-linecap="round" stroke-linejoin="round"/>
</svg>
