<svg width="19" height="19" viewBox="0 0 19 19" fill="none" xmlns="http://www.w3.org/2000/svg">
<g clip-path="url(#clip0_1_10601)">
<path d="M11.028 16.2283C10.8961 16.4556 10.7069 16.6443 10.4791 16.7755C10.2514 16.9066 9.99325 16.9757 9.73047 16.9757C9.46769 16.9757 9.20951 16.9066 8.9818 16.7755C8.75409 16.6443 8.56483 16.4556 8.43297 16.2283M14.703 10.2283C14.3693 9.00689 14.2102 7.74437 14.2305 6.47833C14.2317 5.66313 14.0114 4.86291 13.5932 4.16315C13.175 3.46339 12.5746 2.89038 11.8561 2.50531C11.1375 2.12025 10.3279 1.9376 9.51364 1.97688C8.69939 2.01616 7.9111 2.27589 7.23297 2.72833M5.42547 5.17333C5.29517 5.59604 5.22943 6.036 5.23047 6.47833C5.23047 11.7283 2.98047 13.2283 2.98047 13.2283H13.4805M1.48047 1.22833L17.9805 17.7283" stroke="#98A2B3" stroke-width="1.5" stroke-linecap="round" stroke-linejoin="round"/>
</g>
<defs>
<clipPath id="clip0_1_10601">
<rect width="18" height="18" fill="white" transform="translate(0.730469 0.478271)"/>
</clipPath>
</defs>
</svg>
