<svg width="19" height="19" viewBox="0 0 19 19" fill="none" xmlns="http://www.w3.org/2000/svg">
<path d="M7.74902 5.72839L2.49902 5.72839M15.999 5.72839L10.749 5.72839M10.749 5.91736C13.3369 6.58342 15.249 8.93257 15.249 11.7283M3.24902 11.7283C3.24902 8.93257 5.16118 6.58342 7.74902 5.91736M2.94902 14.7284H3.54902C3.96906 14.7284 4.17908 14.7284 4.33952 14.6466C4.48064 14.5747 4.59537 14.46 4.66728 14.3189C4.74902 14.1585 4.74902 13.9484 4.74902 13.5284V12.9284C4.74902 12.5084 4.74902 12.2983 4.66728 12.1379C4.59537 11.9968 4.48064 11.882 4.33952 11.8101C4.17908 11.7284 3.96906 11.7284 3.54902 11.7284H2.94902C2.52898 11.7284 2.31896 11.7284 2.15853 11.8101C2.01741 11.882 1.90267 11.9968 1.83077 12.1379C1.74902 12.2983 1.74902 12.5084 1.74902 12.9284V13.5284C1.74902 13.9484 1.74902 14.1585 1.83077 14.3189C1.90267 14.46 2.01741 14.5747 2.15853 14.6466C2.31896 14.7284 2.52898 14.7284 2.94902 14.7284ZM8.94902 7.22839H9.54902C9.96906 7.22839 10.1791 7.22839 10.3395 7.14665C10.4806 7.07474 10.5954 6.96001 10.6673 6.81889C10.749 6.65845 10.749 6.44843 10.749 6.02839V5.42839C10.749 5.00835 10.749 4.79833 10.6673 4.6379C10.5954 4.49678 10.4806 4.38204 10.3395 4.31014C10.1791 4.22839 9.96906 4.22839 9.54902 4.22839H8.94902C8.52898 4.22839 8.31896 4.22839 8.15853 4.31014C8.01741 4.38204 7.90267 4.49678 7.83077 4.6379C7.74902 4.79833 7.74902 5.00835 7.74902 5.42839V6.02839C7.74902 6.44843 7.74902 6.65845 7.83077 6.81889C7.90267 6.96001 8.01741 7.07474 8.15853 7.14665C8.31896 7.22839 8.52898 7.22839 8.94902 7.22839ZM14.949 14.7284H15.549C15.9691 14.7284 16.1791 14.7284 16.3395 14.6466C16.4806 14.5747 16.5954 14.46 16.6673 14.3189C16.749 14.1585 16.749 13.9484 16.749 13.5284V12.9284C16.749 12.5084 16.749 12.2983 16.6673 12.1379C16.5954 11.9968 16.4806 11.882 16.3395 11.8101C16.1791 11.7284 15.9691 11.7284 15.549 11.7284H14.949C14.529 11.7284 14.319 11.7284 14.1585 11.8101C14.0174 11.882 13.9027 11.9968 13.8308 12.1379C13.749 12.2983 13.749 12.5084 13.749 12.9284V13.5284C13.749 13.9484 13.749 14.1585 13.8308 14.3189C13.9027 14.46 14.0174 14.5747 14.1585 14.6466C14.319 14.7284 14.529 14.7284 14.949 14.7284ZM16.749 5.72839C16.749 6.14261 16.4132 6.47839 15.999 6.47839C15.5848 6.47839 15.249 6.14261 15.249 5.72839C15.249 5.31418 15.5848 4.97839 15.999 4.97839C16.4132 4.97839 16.749 5.31418 16.749 5.72839ZM3.24902 5.72839C3.24902 6.14261 2.91324 6.47839 2.49902 6.47839C2.08481 6.47839 1.74902 6.14261 1.74902 5.72839C1.74902 5.31418 2.08481 4.97839 2.49902 4.97839C2.91324 4.97839 3.24902 5.31418 3.24902 5.72839Z" stroke="#98A2B3" stroke-width="1.5" stroke-linecap="round" stroke-linejoin="round"/>
</svg>
