<svg width="19" height="19" viewBox="0 0 19 19" fill="none" xmlns="http://www.w3.org/2000/svg">
<path d="M8.25083 15.6758C5.9349 15.1172 4.11196 13.2942 3.55344 10.9782M15.9486 10.9783C15.3901 13.2942 13.5672 15.1171 11.2513 15.6757M11.2511 3.2807C13.5671 3.83924 15.3901 5.66222 15.9486 7.97819M3.55359 7.97827C4.11212 5.66226 5.93513 3.83925 8.25113 3.2807M3.45098 10.9783H4.05098C4.47102 10.9783 4.68104 10.9783 4.84147 10.8965C4.98259 10.8246 5.09733 10.7099 5.16923 10.5688C5.25098 10.4083 5.25098 10.1983 5.25098 9.77827V9.17827C5.25098 8.75823 5.25098 8.54821 5.16923 8.38778C5.09733 8.24666 4.98259 8.13192 4.84147 8.06002C4.68104 7.97827 4.47102 7.97827 4.05098 7.97827H3.45098C3.03094 7.97827 2.82092 7.97827 2.66048 8.06002C2.51936 8.13192 2.40463 8.24666 2.33272 8.38778C2.25098 8.54821 2.25098 8.75823 2.25098 9.17827V9.77827C2.25098 10.1983 2.25098 10.4083 2.33272 10.5688C2.40463 10.7099 2.51936 10.8246 2.66048 10.8965C2.82092 10.9783 3.03094 10.9783 3.45098 10.9783ZM15.451 10.9783H16.051C16.471 10.9783 16.681 10.9783 16.8415 10.8965C16.9826 10.8246 17.0973 10.7099 17.1692 10.5688C17.251 10.4083 17.251 10.1983 17.251 9.77827V9.17827C17.251 8.75823 17.251 8.54821 17.1692 8.38778C17.0973 8.24666 16.9826 8.13192 16.8415 8.06002C16.681 7.97827 16.471 7.97827 16.051 7.97827H15.451C15.0309 7.97827 14.8209 7.97827 14.6605 8.06002C14.5194 8.13192 14.4046 8.24666 14.3327 8.38778C14.251 8.54821 14.251 8.75823 14.251 9.17827V9.77827C14.251 10.1983 14.251 10.4083 14.3327 10.5688C14.4046 10.7099 14.5194 10.8246 14.6605 10.8965C14.8209 10.9783 15.0309 10.9783 15.451 10.9783ZM9.45098 4.97827H10.051C10.471 4.97827 10.681 4.97827 10.8415 4.89653C10.9826 4.82462 11.0973 4.70989 11.1692 4.56876C11.251 4.40833 11.251 4.19831 11.251 3.77827V3.17827C11.251 2.75823 11.251 2.54821 11.1692 2.38778C11.0973 2.24666 10.9826 2.13192 10.8415 2.06002C10.681 1.97827 10.471 1.97827 10.051 1.97827H9.45098C9.03094 1.97827 8.82092 1.97827 8.66048 2.06002C8.51936 2.13192 8.40463 2.24666 8.33272 2.38778C8.25098 2.54821 8.25098 2.75823 8.25098 3.17827V3.77827C8.25098 4.19831 8.25098 4.40833 8.33272 4.56876C8.40463 4.70989 8.51936 4.82462 8.66048 4.89653C8.82092 4.97827 9.03094 4.97827 9.45098 4.97827ZM9.45098 16.9783H10.051C10.471 16.9783 10.681 16.9783 10.8415 16.8965C10.9826 16.8246 11.0973 16.7099 11.1692 16.5688C11.251 16.4083 11.251 16.1983 11.251 15.7783V15.1783C11.251 14.7582 11.251 14.5482 11.1692 14.3878C11.0973 14.2467 10.9826 14.1319 10.8415 14.06C10.681 13.9783 10.471 13.9783 10.051 13.9783H9.45098C9.03094 13.9783 8.82092 13.9783 8.66048 14.06C8.51936 14.1319 8.40463 14.2467 8.33272 14.3878C8.25098 14.5482 8.25098 14.7582 8.25098 15.1783V15.7783C8.25098 16.1983 8.25098 16.4083 8.33272 16.5688C8.40463 16.7099 8.51936 16.8246 8.66048 16.8965C8.82092 16.9783 9.03094 16.9783 9.45098 16.9783Z" stroke="#98A2B3" stroke-width="1.5" stroke-linecap="round" stroke-linejoin="round"/>
</svg>
