<svg width="19" height="19" viewBox="0 0 19 19" fill="none" xmlns="http://www.w3.org/2000/svg">
<path d="M8.39579 5.72821L4.11007 13.2282M4.75293 14.7282H13.7528M14.3958 13.2282L10.1101 5.72821M2.95293 16.2282H3.55293C3.97297 16.2282 4.18299 16.2282 4.34342 16.1465C4.48454 16.0746 4.59928 15.9598 4.67118 15.8187C4.75293 15.6583 4.75293 15.4483 4.75293 15.0282V14.4282C4.75293 14.0082 4.75293 13.7982 4.67118 13.6377C4.59928 13.4966 4.48454 13.3819 4.34342 13.31C4.18299 13.2282 3.97297 13.2282 3.55293 13.2282H2.95293C2.53289 13.2282 2.32287 13.2282 2.16244 13.31C2.02132 13.3819 1.90658 13.4966 1.83467 13.6377C1.75293 13.7982 1.75293 14.0082 1.75293 14.4282V15.0282C1.75293 15.4483 1.75293 15.6583 1.83467 15.8187C1.90658 15.9598 2.02132 16.0746 2.16244 16.1465C2.32287 16.2282 2.53289 16.2282 2.95293 16.2282ZM14.9529 16.2282H15.5529C15.973 16.2282 16.183 16.2282 16.3434 16.1465C16.4845 16.0746 16.5993 15.9598 16.6712 15.8187C16.7529 15.6583 16.7529 15.4483 16.7529 15.0282V14.4282C16.7529 14.0082 16.7529 13.7982 16.6712 13.6377C16.5993 13.4966 16.4845 13.3819 16.3434 13.31C16.183 13.2282 15.973 13.2282 15.5529 13.2282H14.9529C14.5329 13.2282 14.3229 13.2282 14.1624 13.31C14.0213 13.3819 13.9066 13.4966 13.8347 13.6377C13.7529 13.7982 13.7529 14.0082 13.7529 14.4282V15.0282C13.7529 15.4483 13.7529 15.6583 13.8347 15.8187C13.9066 15.9598 14.0213 16.0746 14.1624 16.1465C14.3229 16.2282 14.5329 16.2282 14.9529 16.2282ZM8.95293 5.72821H9.55293C9.97297 5.72821 10.183 5.72821 10.3434 5.64647C10.4845 5.57456 10.5993 5.45983 10.6712 5.3187C10.7529 5.15827 10.7529 4.94825 10.7529 4.52821V3.92821C10.7529 3.50817 10.7529 3.29815 10.6712 3.13772C10.5993 2.9966 10.4845 2.88186 10.3434 2.80996C10.183 2.72821 9.97297 2.72821 9.55293 2.72821H8.95293C8.53289 2.72821 8.32287 2.72821 8.16244 2.80996C8.02132 2.88186 7.90658 2.9966 7.83468 3.13772C7.75293 3.29815 7.75293 3.50817 7.75293 3.92821V4.52821C7.75293 4.94825 7.75293 5.15827 7.83468 5.3187C7.90658 5.45983 8.02132 5.57456 8.16244 5.64647C8.32287 5.72821 8.53289 5.72821 8.95293 5.72821Z" stroke="#98A2B3" stroke-width="1.5" stroke-linecap="round" stroke-linejoin="round"/>
</svg>
