<svg width="19" height="19" viewBox="0 0 19 19" fill="none" xmlns="http://www.w3.org/2000/svg">
<path d="M4.76465 9.47827H10.7646C11.5603 9.47827 12.3234 9.1622 12.886 8.59959C13.4486 8.03698 13.7646 7.27392 13.7646 6.47827C13.7646 5.68262 13.4486 4.91956 12.886 4.35695C12.3234 3.79434 11.5603 3.47827 10.7646 3.47827H4.76465V9.47827ZM4.76465 9.47827H11.5146C12.3103 9.47827 13.0734 9.79434 13.636 10.357C14.1986 10.9196 14.5146 11.6826 14.5146 12.4783C14.5146 13.2739 14.1986 14.037 13.636 14.5996C13.0734 15.1622 12.3103 15.4783 11.5146 15.4783H4.76465V9.47827Z" stroke="#98A2B3" stroke-width="1.5" stroke-linecap="round" stroke-linejoin="round"/>
</svg>
