<svg width="19" height="19" viewBox="0 0 19 19" fill="none" xmlns="http://www.w3.org/2000/svg">
<path d="M7.14551 9.47821H10.5205C11.556 9.47821 12.3955 8.63875 12.3955 7.60321C12.3955 6.56768 11.556 5.72821 10.5205 5.72821H7.14551V9.47821ZM7.14551 9.47821H11.2705C12.306 9.47821 13.1455 10.3177 13.1455 11.3532C13.1455 12.3887 12.306 13.2282 11.2705 13.2282H7.14551V9.47821ZM6.62051 16.2282H12.9205C14.1806 16.2282 14.8107 16.2282 15.292 15.983C15.7154 15.7673 16.0596 15.4231 16.2753 14.9997C16.5205 14.5184 16.5205 13.8883 16.5205 12.6282V6.32821C16.5205 5.06809 16.5205 4.43803 16.2753 3.95673C16.0596 3.53337 15.7154 3.18916 15.292 2.97345C14.8107 2.72821 14.1806 2.72821 12.9205 2.72821H6.62051C5.36039 2.72821 4.73033 2.72821 4.24903 2.97345C3.82566 3.18916 3.48146 3.53337 3.26574 3.95673C3.02051 4.43803 3.02051 5.06809 3.02051 6.32821V12.6282C3.02051 13.8883 3.02051 14.5184 3.26574 14.9997C3.48146 15.4231 3.82566 15.7673 4.24903 15.983C4.73033 16.2282 5.36039 16.2282 6.62051 16.2282Z" stroke="#98A2B3" stroke-width="1.5" stroke-linecap="round" stroke-linejoin="round"/>
</svg>
