<svg width="19" height="19" viewBox="0 0 19 19" fill="none" xmlns="http://www.w3.org/2000/svg">
<path d="M15.7744 14.7283V12.4783H6.02441C4.78177 12.4783 3.77441 13.4856 3.77441 14.7283M7.37441 16.9783H13.3744C14.2145 16.9783 14.6345 16.9783 14.9554 16.8148C15.2376 16.671 15.4671 16.4415 15.6109 16.1593C15.7744 15.8384 15.7744 15.4184 15.7744 14.5783V4.37827C15.7744 3.53819 15.7744 3.11815 15.6109 2.79729C15.4671 2.51504 15.2376 2.28557 14.9554 2.14176C14.6345 1.97827 14.2145 1.97827 13.3744 1.97827H7.37441C6.1143 1.97827 5.48424 1.97827 5.00294 2.22351C4.57957 2.43922 4.23536 2.78343 4.01965 3.20679C3.77441 3.68809 3.77441 4.31815 3.77441 5.57827V13.3783C3.77441 14.6384 3.77441 15.2684 4.01965 15.7498C4.23536 16.1731 4.57957 16.5173 5.00294 16.733C5.48424 16.9783 6.1143 16.9783 7.37441 16.9783Z" stroke="#98A2B3" stroke-width="1.5" stroke-linecap="round" stroke-linejoin="round"/>
</svg>
