<svg width="19" height="19" viewBox="0 0 19 19" fill="none" xmlns="http://www.w3.org/2000/svg">
<g clip-path="url(#clip0_1_8596)">
<path d="M9.77832 16.2282L9.70328 16.1157C9.1823 15.3342 8.92181 14.9434 8.57765 14.6606C8.27296 14.4102 7.92189 14.2223 7.54452 14.1077C7.11826 13.9782 6.64865 13.9782 5.70944 13.9782H4.67832C3.83824 13.9782 3.4182 13.9782 3.09733 13.8147C2.81509 13.6709 2.58562 13.4414 2.44181 13.1592C2.27832 12.8383 2.27832 12.4183 2.27832 11.5782V5.12821C2.27832 4.28813 2.27832 3.86809 2.44181 3.54722C2.58562 3.26498 2.81509 3.03551 3.09733 2.8917C3.4182 2.72821 3.83824 2.72821 4.67832 2.72821H4.97832C6.65848 2.72821 7.49856 2.72821 8.14029 3.05519C8.70478 3.34281 9.16372 3.80175 9.45134 4.36624C9.77832 5.00797 9.77832 5.84805 9.77832 7.52821M9.77832 16.2282V7.52821M9.77832 16.2282L9.85336 16.1157C10.3743 15.3342 10.6348 14.9434 10.979 14.6606C11.2837 14.4102 11.6347 14.2223 12.0121 14.1077C12.4384 13.9782 12.908 13.9782 13.8472 13.9782H14.8783C15.7184 13.9782 16.1384 13.9782 16.4593 13.8147C16.7416 13.6709 16.971 13.4414 17.1148 13.1592C17.2783 12.8383 17.2783 12.4183 17.2783 11.5782V5.12821C17.2783 4.28813 17.2783 3.86809 17.1148 3.54722C16.971 3.26498 16.7416 3.03551 16.4593 2.8917C16.1384 2.72821 15.7184 2.72821 14.8783 2.72821H14.5783C12.8982 2.72821 12.0581 2.72821 11.4163 3.05519C10.8519 3.34281 10.3929 3.80175 10.1053 4.36624C9.77832 5.00797 9.77832 5.84805 9.77832 7.52821" stroke="#98A2B3" stroke-width="1.5" stroke-linecap="round" stroke-linejoin="round"/>
</g>
<defs>
<clipPath id="clip0_1_8596">
<rect width="18" height="18" fill="white" transform="translate(0.77832 0.478271)"/>
</clipPath>
</defs>
</svg>
