<svg width="19" height="19" viewBox="0 0 19 19" fill="none" xmlns="http://www.w3.org/2000/svg">
<path d="M9.28027 15.4783H4.18027C3.34019 15.4783 2.92016 15.4783 2.59929 15.3148C2.31704 15.171 2.08757 14.9415 1.94376 14.6593C1.78027 14.3384 1.78027 13.9184 1.78027 13.0783V5.87827C1.78027 5.03819 1.78027 4.61815 1.94376 4.29729C2.08757 4.01504 2.31704 3.78557 2.59929 3.64176C2.92016 3.47827 3.34019 3.47827 4.18027 3.47827H4.48027C6.16043 3.47827 7.00051 3.47827 7.64225 3.80525C8.20673 4.09287 8.66567 4.55181 8.95329 5.1163C9.28027 5.75804 9.28027 6.59811 9.28027 8.27827M9.28027 15.4783V8.27827M9.28027 15.4783H14.3803C15.2204 15.4783 15.6404 15.4783 15.9613 15.3148C16.2435 15.171 16.473 14.9415 16.6168 14.6593C16.7803 14.3384 16.7803 13.9184 16.7803 13.0783V5.87827C16.7803 5.03819 16.7803 4.61815 16.6168 4.29729C16.473 4.01504 16.2435 3.78557 15.9613 3.64176C15.6404 3.47827 15.2204 3.47827 14.3803 3.47827H14.0803C12.4001 3.47827 11.56 3.47827 10.9183 3.80525C10.3538 4.09287 9.89487 4.55181 9.60725 5.1163C9.28027 5.75804 9.28027 6.59811 9.28027 8.27827" stroke="#98A2B3" stroke-width="1.5" stroke-linecap="round" stroke-linejoin="round"/>
</svg>
