<svg width="19" height="19" viewBox="0 0 19 19" fill="none" xmlns="http://www.w3.org/2000/svg">
<path d="M9.27637 5.72821C9.27637 4.93256 8.9603 4.1695 8.39769 3.60689C7.83508 3.04428 7.07202 2.72821 6.27637 2.72821H1.77637V13.9782H7.02637C7.6231 13.9782 8.1954 14.2153 8.61736 14.6372C9.03932 15.0592 9.27637 15.6315 9.27637 16.2282M9.27637 5.72821V16.2282M9.27637 5.72821C9.27637 4.93256 9.59244 4.1695 10.155 3.60689C10.7177 3.04428 11.4807 2.72821 12.2764 2.72821H16.7764V13.9782H11.5264C10.9296 13.9782 10.3573 14.2153 9.93538 14.6372C9.51342 15.0592 9.27637 15.6315 9.27637 16.2282" stroke="#98A2B3" stroke-width="1.5" stroke-linecap="round" stroke-linejoin="round"/>
</svg>
