<svg width="19" height="19" viewBox="0 0 19 19" fill="none" xmlns="http://www.w3.org/2000/svg">
<g clip-path="url(#clip0_1_10993)">
<path d="M2.52428 6.20027L9.07178 9.98777L15.6193 6.20027M9.07178 17.5403V9.98027M15.8218 12.9803V6.98027C15.8215 6.71723 15.7521 6.45888 15.6204 6.23115C15.4888 6.00341 15.2996 5.8143 15.0718 5.68277L9.82178 2.68277C9.59375 2.55112 9.33508 2.48181 9.07178 2.48181C8.80847 2.48181 8.54981 2.55112 8.32178 2.68277L3.07178 5.68277C2.84397 5.8143 2.65476 6.00341 2.52312 6.23115C2.39148 6.45888 2.32205 6.71723 2.32178 6.98027V12.9803C2.32205 13.2433 2.39148 13.5017 2.52312 13.7294C2.65476 13.9571 2.84397 14.1463 3.07178 14.2778L8.32178 17.2778C8.54981 17.4094 8.80847 17.4787 9.07178 17.4787C9.33508 17.4787 9.59375 17.4094 9.82178 17.2778L15.0718 14.2778C15.2996 14.1463 15.4888 13.9571 15.6204 13.7294C15.7521 13.5017 15.8215 13.2433 15.8218 12.9803Z" stroke="#98A2B3" stroke-width="1.5" stroke-linecap="round" stroke-linejoin="round"/>
</g>
<defs>
<clipPath id="clip0_1_10993">
<rect width="18" height="18" fill="white" transform="translate(0.0712891 0.980469)"/>
</clipPath>
</defs>
</svg>
