<svg width="19" height="19" viewBox="0 0 19 19" fill="none" xmlns="http://www.w3.org/2000/svg">
<path d="M15.9487 6.98029V13.1303C15.9487 14.3904 15.9487 15.0205 15.7035 15.5018C15.4878 15.9251 15.1436 16.2693 14.7202 16.4851C14.2389 16.7303 13.6088 16.7303 12.3487 16.7303H6.79873C5.53861 16.7303 4.90855 16.7303 4.42725 16.4851C4.00389 16.2693 3.65968 15.9251 3.44397 15.5018C3.19873 15.0205 3.19873 14.3904 3.19873 13.1303V6.98029M3.27373 3.23029H15.8737C16.2938 3.23029 16.5038 3.23029 16.6642 3.31203C16.8053 3.38394 16.9201 3.49867 16.992 3.63979C17.0737 3.80023 17.0737 4.01025 17.0737 4.43029V5.78029C17.0737 6.20033 17.0737 6.41035 16.992 6.57078C16.9201 6.7119 16.8053 6.82664 16.6642 6.89854C16.5038 6.98029 16.2938 6.98029 15.8737 6.98029H3.27373C2.85369 6.98029 2.64367 6.98029 2.48324 6.89854C2.34212 6.82664 2.22738 6.7119 2.15548 6.57078C2.07373 6.41035 2.07373 6.20033 2.07373 5.78029V4.43029C2.07373 4.01025 2.07373 3.80023 2.15548 3.63979C2.22738 3.49867 2.34212 3.38394 2.48324 3.31203C2.64367 3.23029 2.85369 3.23029 3.27373 3.23029ZM7.77373 9.60529H11.3737C11.7938 9.60529 12.0038 9.60529 12.1642 9.68703C12.3053 9.75894 12.4201 9.87367 12.492 10.0148C12.5737 10.1752 12.5737 10.3852 12.5737 10.8053V11.4053C12.5737 11.8253 12.5737 12.0353 12.492 12.1958C12.4201 12.3369 12.3053 12.4516 12.1642 12.5235C12.0038 12.6053 11.7938 12.6053 11.3737 12.6053H7.77373C7.35369 12.6053 7.14367 12.6053 6.98324 12.5235C6.84212 12.4516 6.72738 12.3369 6.65548 12.1958C6.57373 12.0353 6.57373 11.8253 6.57373 11.4053V10.8053C6.57373 10.3852 6.57373 10.1752 6.65548 10.0148C6.72738 9.87367 6.84212 9.75894 6.98324 9.68703C7.14367 9.60529 7.35369 9.60529 7.77373 9.60529Z" stroke="#98A2B3" stroke-width="1.5" stroke-linecap="round" stroke-linejoin="round"/>
</svg>
