<svg width="19" height="19" viewBox="0 0 19 19" fill="none" xmlns="http://www.w3.org/2000/svg">
<g clip-path="url(#clip0_1_8640)">
<path d="M14.0077 15.9802C14.9542 15.9802 15.7222 15.213 15.7222 14.2657V10.8375L16.5794 9.98023L15.7222 9.12298V5.69472C15.7222 4.74747 14.9549 3.98022 14.0077 3.98022M4.15134 3.98022C3.20409 3.98022 2.43684 4.74747 2.43684 5.69472V9.12298L1.57959 9.98023L2.43684 10.8375V14.2657C2.43684 15.213 3.20409 15.9802 4.15134 15.9802M5.70459 9.98023H5.71209M9.07959 9.98023H9.08709M12.4546 9.98023H12.4621M6.07959 9.98023C6.07959 10.1873 5.9117 10.3552 5.70459 10.3552C5.49748 10.3552 5.32959 10.1873 5.32959 9.98023C5.32959 9.77312 5.49748 9.60523 5.70459 9.60523C5.9117 9.60523 6.07959 9.77312 6.07959 9.98023ZM9.45459 9.98023C9.45459 10.1873 9.2867 10.3552 9.07959 10.3552C8.87248 10.3552 8.70459 10.1873 8.70459 9.98023C8.70459 9.77312 8.87248 9.60523 9.07959 9.60523C9.2867 9.60523 9.45459 9.77312 9.45459 9.98023ZM12.8296 9.98023C12.8296 10.1873 12.6617 10.3552 12.4546 10.3552C12.2475 10.3552 12.0796 10.1873 12.0796 9.98023C12.0796 9.77312 12.2475 9.60523 12.4546 9.60523C12.6617 9.60523 12.8296 9.77312 12.8296 9.98023Z" stroke="#98A2B3" stroke-width="1.5" stroke-linecap="round" stroke-linejoin="round"/>
</g>
<defs>
<clipPath id="clip0_1_8640">
<rect width="18" height="18" fill="white" transform="translate(0.0795898 0.980469)"/>
</clipPath>
</defs>
</svg>
