<svg width="19" height="19" viewBox="0 0 19 19" fill="none" xmlns="http://www.w3.org/2000/svg">
<path d="M14.5053 15.9802C15.4518 15.9802 16.2198 15.213 16.2198 14.2657V10.8375L17.077 9.98023L16.2198 9.12298V5.69472C16.2198 4.74747 15.4525 3.98022 14.5053 3.98022M4.6489 3.98022C3.70165 3.98022 2.9344 4.74747 2.9344 5.69472V9.12298L2.07715 9.98023L2.9344 10.8375V14.2657C2.9344 15.213 3.70165 15.9802 4.6489 15.9802M6.20215 9.98023L8.02789 11.806C8.17639 11.9545 8.25064 12.0287 8.33627 12.0565C8.41158 12.081 8.49271 12.081 8.56803 12.0565C8.65365 12.0287 8.72791 11.9545 8.87641 11.806L12.9522 7.73022" stroke="#98A2B3" stroke-width="1.5" stroke-linecap="round" stroke-linejoin="round"/>
</svg>
