<svg width="19" height="19" viewBox="0 0 19 19" fill="none" xmlns="http://www.w3.org/2000/svg">
<path d="M12.5894 16.7303V4.73029C12.5894 4.33246 12.4313 3.95093 12.15 3.66963C11.8687 3.38832 11.4872 3.23029 11.0894 3.23029H8.08936C7.69153 3.23029 7.31 3.38832 7.0287 3.66963C6.74739 3.95093 6.58936 4.33246 6.58936 4.73029V16.7303M3.58936 6.23029H15.5894C16.4178 6.23029 17.0894 6.90186 17.0894 7.73029V15.2303C17.0894 16.0587 16.4178 16.7303 15.5894 16.7303H3.58936C2.76093 16.7303 2.08936 16.0587 2.08936 15.2303V7.73029C2.08936 6.90186 2.76093 6.23029 3.58936 6.23029Z" stroke="#98A2B3" stroke-width="1.5" stroke-linecap="round" stroke-linejoin="round"/>
</svg>
