<svg width="19" height="19" viewBox="0 0 19 19" fill="none" xmlns="http://www.w3.org/2000/svg">
<path d="M6.59277 16.7303V6.23029C6.59277 5.53281 6.59277 5.18407 6.66944 4.89794C6.87749 4.12149 7.48397 3.515 8.26043 3.30695C8.54656 3.23029 8.8953 3.23029 9.59277 3.23029C10.2903 3.23029 10.639 3.23029 10.9251 3.30695C11.7016 3.515 12.3081 4.12149 12.5161 4.89794C12.5928 5.18407 12.5928 5.53281 12.5928 6.23029V16.7303M4.49277 16.7303H14.6928C15.5329 16.7303 15.9529 16.7303 16.2738 16.5668C16.556 16.423 16.7855 16.1935 16.9293 15.9113C17.0928 15.5904 17.0928 15.1704 17.0928 14.3303V8.63029C17.0928 7.79021 17.0928 7.37017 16.9293 7.0493C16.7855 6.76706 16.556 6.53759 16.2738 6.39378C15.9529 6.23029 15.5329 6.23029 14.6928 6.23029H4.49277C3.65269 6.23029 3.23266 6.23029 2.91179 6.39378C2.62954 6.53759 2.40007 6.76706 2.25626 7.0493C2.09277 7.37017 2.09277 7.79021 2.09277 8.63029V14.3303C2.09277 15.1704 2.09277 15.5904 2.25626 15.9113C2.40007 16.1935 2.62954 16.423 2.91179 16.5668C3.23266 16.7303 3.65269 16.7303 4.49277 16.7303Z" stroke="#98A2B3" stroke-width="1.5" stroke-linecap="round" stroke-linejoin="round"/>
</svg>
