<svg width="19" height="19" viewBox="0 0 19 19" fill="none" xmlns="http://www.w3.org/2000/svg">
<g clip-path="url(#clip0_1_8600)">
<path d="M12.0913 6.23029C12.0913 5.53281 12.0913 5.18407 12.0146 4.89794C11.8066 4.12149 11.2001 3.515 10.4237 3.30695C10.1375 3.23029 9.78879 3.23029 9.09131 3.23029C8.39383 3.23029 8.04509 3.23029 7.75897 3.30695C6.98251 3.515 6.37603 4.12149 6.16798 4.89794C6.09131 5.18407 6.09131 5.53281 6.09131 6.23029M3.99131 16.7303H14.1913C15.0314 16.7303 15.4514 16.7303 15.7723 16.5668C16.0545 16.423 16.284 16.1935 16.4278 15.9113C16.5913 15.5904 16.5913 15.1704 16.5913 14.3303V8.63029C16.5913 7.79021 16.5913 7.37017 16.4278 7.0493C16.284 6.76706 16.0545 6.53759 15.7723 6.39378C15.4514 6.23029 15.0314 6.23029 14.1913 6.23029H3.99131C3.15123 6.23029 2.73119 6.23029 2.41032 6.39378C2.12808 6.53759 1.89861 6.76706 1.7548 7.0493C1.59131 7.37017 1.59131 7.79021 1.59131 8.63029V14.3303C1.59131 15.1704 1.59131 15.5904 1.7548 15.9113C1.89861 16.1935 2.12808 16.423 2.41032 16.5668C2.73119 16.7303 3.15123 16.7303 3.99131 16.7303Z" stroke="#98A2B3" stroke-width="1.5" stroke-linecap="round" stroke-linejoin="round"/>
</g>
<defs>
<clipPath id="clip0_1_8600">
<rect width="18" height="18" fill="white" transform="translate(0.0913086 0.980469)"/>
</clipPath>
</defs>
</svg>
