<svg width="19" height="19" viewBox="0 0 19 19" fill="none" xmlns="http://www.w3.org/2000/svg">
<g clip-path="url(#clip0_1_8650)">
<path d="M16.5947 7.73029H1.59473M1.59473 6.83029L1.59473 13.1303C1.59473 14.3904 1.59473 15.0205 1.83996 15.5018C2.05568 15.9251 2.39988 16.2693 2.82325 16.485C3.30455 16.7303 3.93461 16.7303 5.19473 16.7303H12.9947C14.2548 16.7303 14.8849 16.7303 15.3662 16.4851C15.7896 16.2693 16.1338 15.9251 16.3495 15.5018C16.5947 15.0205 16.5947 14.3904 16.5947 13.1303V6.83029C16.5947 5.57017 16.5947 4.94011 16.3495 4.45881C16.1338 4.03544 15.7896 3.69124 15.3662 3.47552C14.8849 3.23029 14.2548 3.23029 12.9947 3.23029L5.19473 3.23029C3.93461 3.23029 3.30455 3.23029 2.82325 3.47552C2.39988 3.69124 2.05568 4.03544 1.83996 4.45881C1.59473 4.94011 1.59473 5.57017 1.59473 6.83029Z" stroke="#98A2B3" stroke-width="1.5" stroke-linecap="round" stroke-linejoin="round"/>
</g>
<defs>
<clipPath id="clip0_1_8650">
<rect width="18" height="18" fill="white" transform="translate(0.0952148 0.980469)"/>
</clipPath>
</defs>
</svg>
