<svg width="19" height="19" viewBox="0 0 19 19" fill="none" xmlns="http://www.w3.org/2000/svg">
<g clip-path="url(#clip0_1_10061)">
<path d="M13.5986 8.48023V3.68022C13.5986 3.26019 13.5986 3.05017 13.5169 2.88973C13.445 2.74861 13.3302 2.63387 13.1891 2.56197C13.0287 2.48022 12.8187 2.48022 12.3986 2.48022H5.79863C5.37859 2.48022 5.16857 2.48022 5.00814 2.56197C4.86702 2.63387 4.75228 2.74861 4.68038 2.88973C4.59863 3.05017 4.59863 3.26019 4.59863 3.68022V8.48023M13.5986 8.48023H4.59863M13.5986 8.48023V8.63022C13.5986 9.89034 13.5986 10.5204 13.3534 11.0017C13.1377 11.4251 12.7935 11.7693 12.3701 11.985C11.8888 12.2302 11.2588 12.2302 9.99863 12.2302H8.19863C6.93851 12.2302 6.30846 12.2302 5.82715 11.985C5.40379 11.7693 5.05958 11.4251 4.84387 11.0017C4.59863 10.5204 4.59863 9.89034 4.59863 8.63022V8.48023M10.9736 12.2302V15.6052C10.9736 16.6408 10.1342 17.4802 9.09863 17.4802C8.0631 17.4802 7.22363 16.6408 7.22363 15.6052V12.2302" stroke="#98A2B3" stroke-width="1.5" stroke-linecap="round" stroke-linejoin="round"/>
</g>
<defs>
<clipPath id="clip0_1_10061">
<rect width="18" height="18" fill="white" transform="translate(0.0996094 0.980469)"/>
</clipPath>
</defs>
</svg>
