<svg width="19" height="19" viewBox="0 0 19 19" fill="none" xmlns="http://www.w3.org/2000/svg">
<g clip-path="url(#clip0_1_10059)">
<path d="M7.34764 9.39696L10.181 12.2303M6.57879 16.7115C5.55367 17.7366 3.59766 17.4803 2.09766 17.4803C2.86648 15.9803 1.84136 14.0243 2.86648 12.9991C3.89161 11.974 5.55367 11.974 6.57879 12.9991C7.60392 14.0243 7.60392 15.6863 6.57879 16.7115ZM9.53886 12.9238L16.3917 5.5227C16.9953 4.87083 16.9758 3.85849 16.3476 3.23029C15.7194 2.6021 14.7071 2.58264 14.0552 3.18622L6.65416 10.0391C6.27171 10.3932 6.08048 10.5702 5.96895 10.7591C5.70151 11.2119 5.69075 11.7717 5.94059 12.2345C6.04478 12.4275 6.22906 12.6117 6.59762 12.9803C6.96618 13.3489 7.15046 13.5331 7.34344 13.6373C7.80621 13.8872 8.36601 13.8764 8.81884 13.609C9.00768 13.4974 9.18474 13.3062 9.53886 12.9238Z" stroke="#98A2B3" stroke-width="1.5" stroke-linecap="round" stroke-linejoin="round"/>
</g>
<defs>
<clipPath id="clip0_1_10059">
<rect width="18" height="18" fill="white" transform="translate(0.597168 0.980469)"/>
</clipPath>
</defs>
</svg>
