<svg width="19" height="19" viewBox="0 0 19 19" fill="none" xmlns="http://www.w3.org/2000/svg">
<g clip-path="url(#clip0_1_10063)">
<path d="M15.6016 8.48023V3.68022C15.6016 3.26019 15.6016 3.05017 15.5198 2.88973C15.4479 2.74861 15.3332 2.63387 15.1921 2.56197C15.0316 2.48022 14.8216 2.48022 14.4016 2.48022H4.80156C4.38152 2.48022 4.1715 2.48022 4.01107 2.56197C3.86995 2.63387 3.75521 2.74861 3.68331 2.88973C3.60156 3.05017 3.60156 3.26019 3.60156 3.68022V8.48023M15.6016 8.48023H3.60156M15.6016 8.48023V8.63022C15.6016 9.89034 15.6016 10.5204 15.3563 11.0017C15.1406 11.4251 14.7964 11.7693 14.373 11.985C13.8917 12.2302 13.2617 12.2302 12.0016 12.2302H7.20156C5.94144 12.2302 5.31139 12.2302 4.83008 11.985C4.40672 11.7693 4.06251 11.4251 3.8468 11.0017C3.60156 10.5204 3.60156 9.89034 3.60156 8.63022V8.48023M11.4766 12.2302V15.6052C11.4766 16.6408 10.6371 17.4802 9.60156 17.4802C8.56603 17.4802 7.72656 16.6408 7.72656 15.6052V12.2302" stroke="#98A2B3" stroke-width="1.5" stroke-linecap="round" stroke-linejoin="round"/>
</g>
<defs>
<clipPath id="clip0_1_10063">
<rect width="18" height="18" fill="white" transform="translate(0.600586 0.980469)"/>
</clipPath>
</defs>
</svg>
