<svg width="19" height="19" viewBox="0 0 19 19" fill="none" xmlns="http://www.w3.org/2000/svg">
<g clip-path="url(#clip0_1_9111)">
<path d="M5.73193 6.23029H7.79443M5.73193 9.23029H7.79443M5.73193 12.2303H7.79443M10.4194 6.23029H12.4819M10.4194 9.23029H12.4819M10.4194 12.2303H12.4819M15.1069 16.7303V5.63029C15.1069 4.79021 15.1069 4.37017 14.9434 4.0493C14.7996 3.76706 14.5702 3.53759 14.2879 3.39378C13.9671 3.23029 13.547 3.23029 12.7069 3.23029H5.50693C4.66685 3.23029 4.24682 3.23029 3.92595 3.39378C3.6437 3.53759 3.41423 3.76706 3.27042 4.0493C3.10693 4.37017 3.10693 4.79021 3.10693 5.63029V16.7303M16.6069 16.7303H1.60693" stroke="#98A2B3" stroke-width="1.5" stroke-linecap="round" stroke-linejoin="round"/>
</g>
<defs>
<clipPath id="clip0_1_9111">
<rect width="18" height="18" fill="white" transform="translate(0.106934 0.980469)"/>
</clipPath>
</defs>
</svg>
