<svg width="19" height="19" viewBox="0 0 19 19" fill="none" xmlns="http://www.w3.org/2000/svg">
<path d="M11.8545 16.7303V12.6803C11.8545 12.2602 11.8545 12.0502 11.7727 11.8898C11.7008 11.7487 11.5861 11.6339 11.445 11.562C11.2846 11.4803 11.0745 11.4803 10.6545 11.4803H8.55449C8.13445 11.4803 7.92443 11.4803 7.764 11.562C7.62288 11.6339 7.50814 11.7487 7.43624 11.8898C7.35449 12.0502 7.35449 12.2602 7.35449 12.6803V16.7303M2.85449 6.23029C2.85449 7.47293 3.86185 8.48029 5.10449 8.48029C6.34713 8.48029 7.35449 7.47293 7.35449 6.23029C7.35449 7.47293 8.36185 8.48029 9.60449 8.48029C10.8471 8.48029 11.8545 7.47293 11.8545 6.23029C11.8545 7.47293 12.8619 8.48029 14.1045 8.48029C15.3471 8.48029 16.3545 7.47293 16.3545 6.23029M5.25449 16.7303H13.9545C14.7946 16.7303 15.2146 16.7303 15.5355 16.5668C15.8177 16.423 16.0472 16.1935 16.191 15.9113C16.3545 15.5904 16.3545 15.1704 16.3545 14.3303V5.63029C16.3545 4.79021 16.3545 4.37017 16.191 4.0493C16.0472 3.76706 15.8177 3.53759 15.5355 3.39378C15.2146 3.23029 14.7946 3.23029 13.9545 3.23029H5.25449C4.41441 3.23029 3.99437 3.23029 3.67351 3.39378C3.39126 3.53759 3.16179 3.76706 3.01798 4.0493C2.85449 4.37017 2.85449 4.79021 2.85449 5.63029V14.3303C2.85449 15.1704 2.85449 15.5904 3.01798 15.9113C3.16179 16.1935 3.39126 16.423 3.67351 16.5668C3.99437 16.7303 4.41441 16.7303 5.25449 16.7303Z" stroke="#98A2B3" stroke-width="1.5" stroke-linecap="round" stroke-linejoin="round"/>
</svg>
