<svg width="19" height="19" viewBox="0 0 19 19" fill="none" xmlns="http://www.w3.org/2000/svg">
<path d="M8.86279 9.23029H5.26279C4.42271 9.23029 4.00268 9.23029 3.68181 9.39378C3.39956 9.53759 3.17009 9.76706 3.02628 10.0493C2.86279 10.3702 2.86279 10.7902 2.86279 11.6303V16.7303M16.3628 16.7303V5.63029C16.3628 4.79021 16.3628 4.37017 16.1993 4.0493C16.0555 3.76706 15.826 3.53759 15.5438 3.39378C15.2229 3.23029 14.8029 3.23029 13.9628 3.23029H11.2628C10.4227 3.23029 10.0027 3.23029 9.68181 3.39378C9.39956 3.53759 9.17009 3.76706 9.02628 4.0493C8.86279 4.37017 8.86279 4.79021 8.86279 5.63029V16.7303M17.1128 16.7303H2.11279M11.4878 6.23029H13.7378M11.4878 9.23029H13.7378M11.4878 12.2303H13.7378" stroke="#98A2B3" stroke-width="1.5" stroke-linecap="round" stroke-linejoin="round"/>
</svg>
