<svg width="19" height="19" viewBox="0 0 19 19" fill="none" xmlns="http://www.w3.org/2000/svg">
<g clip-path="url(#clip0_1_9119)">
<path d="M5.73975 9.23029H3.56475C3.14471 9.23029 2.93469 9.23029 2.77425 9.31203C2.63313 9.38394 2.5184 9.49867 2.44649 9.63979C2.36475 9.80023 2.36475 10.0102 2.36475 10.4303V16.7303M12.4897 9.23029H14.6647C15.0848 9.23029 15.2948 9.23029 15.4552 9.31203C15.5964 9.38394 15.7111 9.49867 15.783 9.63979C15.8647 9.80023 15.8647 10.0102 15.8647 10.4303V16.7303M12.4897 16.7303V5.63029C12.4897 4.79021 12.4897 4.37017 12.3263 4.0493C12.1824 3.76706 11.953 3.53759 11.6707 3.39378C11.3499 3.23029 10.9298 3.23029 10.0897 3.23029H8.13975C7.29967 3.23029 6.87963 3.23029 6.55876 3.39378C6.27652 3.53759 6.04705 3.76706 5.90324 4.0493C5.73975 4.37017 5.73975 4.79021 5.73975 5.63029V16.7303M16.6147 16.7303H1.61475M8.36475 6.23029H9.86475M8.36475 9.23029H9.86475M8.36475 12.2303H9.86475" stroke="#98A2B3" stroke-width="1.5" stroke-linecap="round" stroke-linejoin="round"/>
</g>
<defs>
<clipPath id="clip0_1_9119">
<rect width="18" height="18" fill="white" transform="translate(0.114746 0.980469)"/>
</clipPath>
</defs>
</svg>
