<svg width="19" height="19" viewBox="0 0 19 19" fill="none" xmlns="http://www.w3.org/2000/svg">
<path d="M11.353 16.7303V12.6803C11.353 12.2602 11.353 12.0502 11.2713 11.8898C11.1994 11.7487 11.0846 11.6339 10.9435 11.562C10.7831 11.4803 10.5731 11.4803 10.153 11.4803H8.05303C7.63299 11.4803 7.42297 11.4803 7.26254 11.562C7.12141 11.6339 7.00668 11.7487 6.93477 11.8898C6.85303 12.0502 6.85303 12.2602 6.85303 12.6803V16.7303M14.353 16.7303V5.63029C14.353 4.79021 14.353 4.37017 14.1895 4.0493C14.0457 3.76706 13.8163 3.53759 13.534 3.39378C13.2131 3.23029 12.7931 3.23029 11.953 3.23029H6.25303C5.41295 3.23029 4.99291 3.23029 4.67204 3.39378C4.3898 3.53759 4.16033 3.76706 4.01652 4.0493C3.85303 4.37017 3.85303 4.79021 3.85303 5.63029V16.7303M15.853 16.7303H2.35303M7.22803 6.98029H7.23553M10.978 6.98029H10.9855M7.60303 6.98029C7.60303 7.18739 7.43513 7.35529 7.22803 7.35529C7.02092 7.35529 6.85303 7.18739 6.85303 6.98029C6.85303 6.77318 7.02092 6.60529 7.22803 6.60529C7.43513 6.60529 7.60303 6.77318 7.60303 6.98029ZM11.353 6.98029C11.353 7.18739 11.1851 7.35529 10.978 7.35529C10.7709 7.35529 10.603 7.18739 10.603 6.98029C10.603 6.77318 10.7709 6.60529 10.978 6.60529C11.1851 6.60529 11.353 6.77318 11.353 6.98029Z" stroke="#98A2B3" stroke-width="1.5" stroke-linecap="round" stroke-linejoin="round"/>
</svg>
