<svg width="19" height="19" viewBox="0 0 19 19" fill="none" xmlns="http://www.w3.org/2000/svg">
<g clip-path="url(#clip0_1_9115)">
<path d="M9.86084 9.23029H13.4608C14.3009 9.23029 14.721 9.23029 15.0418 9.39378C15.3241 9.53759 15.5535 9.76706 15.6974 10.0493C15.8608 10.3702 15.8608 10.7902 15.8608 11.6303V16.7303M9.86084 16.7303V5.63029C9.86084 4.79021 9.86084 4.37017 9.69735 4.0493C9.55354 3.76706 9.32407 3.53759 9.04183 3.39378C8.72096 3.23029 8.30092 3.23029 7.46084 3.23029H4.76084C3.92076 3.23029 3.50072 3.23029 3.17985 3.39378C2.89761 3.53759 2.66814 3.76706 2.52433 4.0493C2.36084 4.37017 2.36084 4.79021 2.36084 5.63029V16.7303M16.6108 16.7303H1.61084M4.98584 6.23029H7.23584M4.98584 9.23029H7.23584M4.98584 12.2303H7.23584" stroke="#98A2B3" stroke-width="1.5" stroke-linecap="round" stroke-linejoin="round"/>
</g>
<defs>
<clipPath id="clip0_1_9115">
<rect width="18" height="18" fill="white" transform="translate(0.111328 0.980469)"/>
</clipPath>
</defs>
</svg>
