<svg width="19" height="19" viewBox="0 0 19 19" fill="none" xmlns="http://www.w3.org/2000/svg">
<g clip-path="url(#clip0_1_10407)">
<path d="M6.49316 15.2302V16.8802C6.49316 17.0902 6.49316 17.1953 6.45229 17.2755C6.41634 17.346 6.35897 17.4034 6.28841 17.4394C6.20819 17.4802 6.10318 17.4802 5.89316 17.4802H4.46816C4.25814 17.4802 4.15313 17.4802 4.07292 17.4394C4.00236 17.4034 3.94499 17.346 3.90904 17.2755C3.86816 17.1953 3.86816 17.0902 3.86816 16.8802V15.2302M14.3682 15.2302V16.8802C14.3682 17.0902 14.3682 17.1953 14.3273 17.2755C14.2913 17.346 14.234 17.4034 14.1634 17.4394C14.0832 17.4802 13.9782 17.4802 13.7682 17.4802H12.3432C12.1331 17.4802 12.0281 17.4802 11.9479 17.4394C11.8774 17.4034 11.82 17.346 11.784 17.2755C11.7432 17.1953 11.7432 17.0902 11.7432 16.8802V15.2302M2.36816 9.98023H15.8682M2.36816 5.10522H15.8682M4.99316 12.6052H6.11816M12.1182 12.6052H13.2432M5.96816 15.2302H12.2682C13.5283 15.2302 14.1583 15.2302 14.6396 14.985C15.063 14.7693 15.4072 14.4251 15.6229 14.0017C15.8682 13.5204 15.8682 12.8903 15.8682 11.6302V6.08023C15.8682 4.82011 15.8682 4.19005 15.6229 3.70875C15.4072 3.28538 15.063 2.94118 14.6396 2.72546C14.1583 2.48022 13.5283 2.48022 12.2682 2.48022H5.96816C4.70805 2.48022 4.07799 2.48022 3.59669 2.72546C3.17332 2.94118 2.82911 3.28538 2.6134 3.70875C2.36816 4.19005 2.36816 4.82011 2.36816 6.08022V11.6302C2.36816 12.8903 2.36816 13.5204 2.6134 14.0017C2.82911 14.4251 3.17332 14.7693 3.59669 14.985C4.07799 15.2302 4.70805 15.2302 5.96816 15.2302Z" stroke="#98A2B3" stroke-width="1.5" stroke-linecap="round" stroke-linejoin="round"/>
</g>
<defs>
<clipPath id="clip0_1_10407">
<rect width="18" height="18" fill="white" transform="translate(0.118652 0.980469)"/>
</clipPath>
</defs>
</svg>
