<svg width="19" height="19" viewBox="0 0 19 19" fill="none" xmlns="http://www.w3.org/2000/svg">
<path d="M13.7456 5.85529L5.49561 14.1053M6.99561 8.85529V5.85529M5.49561 7.35529H8.49561M10.7456 12.6053H13.7456M6.47061 16.7303H12.7706C14.0307 16.7303 14.6608 16.7303 15.1421 16.4851C15.5655 16.2693 15.9097 15.9251 16.1254 15.5018C16.3706 15.0205 16.3706 14.3904 16.3706 13.1303V6.83029C16.3706 5.57017 16.3706 4.94011 16.1254 4.45881C15.9097 4.03544 15.5655 3.69124 15.1421 3.47552C14.6608 3.23029 14.0307 3.23029 12.7706 3.23029H6.47061C5.21049 3.23029 4.58043 3.23029 4.09913 3.47552C3.67576 3.69124 3.33156 4.03544 3.11584 4.45881C2.87061 4.94011 2.87061 5.57017 2.87061 6.83029V13.1303C2.87061 14.3904 2.87061 15.0205 3.11584 15.5018C3.33156 15.9251 3.67576 16.2693 4.09913 16.4851C4.58043 16.7303 5.21049 16.7303 6.47061 16.7303Z" stroke="#98A2B3" stroke-width="1.5" stroke-linecap="round" stroke-linejoin="round"/>
</svg>
