<svg width="19" height="19" viewBox="0 0 19 19" fill="none" xmlns="http://www.w3.org/2000/svg">
<g clip-path="url(#clip0_1_10257)">
<path d="M15.8853 8.48023H2.38525M15.8853 9.60523V7.58023C15.8853 6.32011 15.8853 5.69005 15.64 5.20875C15.4243 4.78538 15.0801 4.44118 14.6567 4.22546C14.1754 3.98022 13.5454 3.98022 12.2853 3.98022H5.98525C4.72514 3.98022 4.09508 3.98022 3.61378 4.22546C3.19041 4.44118 2.8462 4.78538 2.63049 5.20875C2.38525 5.69005 2.38525 6.32011 2.38525 7.58022V13.8802C2.38525 15.1403 2.38525 15.7704 2.63049 16.2517C2.8462 16.6751 3.19041 17.0193 3.61378 17.235C4.09508 17.4802 4.72514 17.4802 5.98525 17.4802H9.51026M12.1353 2.48022V5.48022M6.13525 2.48022V5.48022M13.2585 12.7642C12.7336 12.1798 11.8584 12.0226 11.2009 12.5577C10.5433 13.0928 10.4507 13.9875 10.9671 14.6203C11.4835 15.2532 13.2585 16.7302 13.2585 16.7302C13.2585 16.7302 15.0334 15.2532 15.5498 14.6203C16.0662 13.9875 15.9849 13.0872 15.3161 12.5577C14.6472 12.0283 13.7833 12.1798 13.2585 12.7642Z" stroke="#98A2B3" stroke-width="1.5" stroke-linecap="round" stroke-linejoin="round"/>
</g>
<defs>
<clipPath id="clip0_1_10257">
<rect width="18" height="18" fill="white" transform="translate(0.134277 0.980469)"/>
</clipPath>
</defs>
</svg>
