<svg width="19" height="19" viewBox="0 0 19 19" fill="none" xmlns="http://www.w3.org/2000/svg">
<g clip-path="url(#clip0_1_10251)">
<path d="M16.3784 8.48023H2.87842M16.3784 10.3552V7.58023C16.3784 6.32011 16.3784 5.69005 16.1332 5.20875C15.9175 4.78538 15.5733 4.44118 15.1499 4.22546C14.6686 3.98022 14.0385 3.98022 12.7784 3.98022H6.47842C5.2183 3.98022 4.58824 3.98022 4.10694 4.22546C3.68357 4.44118 3.33937 4.78538 3.12365 5.20875C2.87842 5.69005 2.87842 6.32011 2.87842 7.58022V13.8802C2.87842 15.1403 2.87842 15.7704 3.12365 16.2517C3.33937 16.6751 3.68357 17.0193 4.10694 17.235C4.58824 17.4802 5.2183 17.4802 6.47842 17.4802H9.62842M12.6284 2.48022V5.48022M6.62842 2.48022V5.48022M11.5034 15.2302L13.0034 16.7302L16.3784 13.3552" stroke="#98A2B3" stroke-width="1.5" stroke-linecap="round" stroke-linejoin="round"/>
</g>
<defs>
<clipPath id="clip0_1_10251">
<rect width="18" height="18" fill="white" transform="translate(0.628906 0.980469)"/>
</clipPath>
</defs>
</svg>
