<svg width="19" height="19" viewBox="0 0 19 19" fill="none" xmlns="http://www.w3.org/2000/svg">
<g clip-path="url(#clip0_1_10249)">
<path d="M15.8765 8.48023H2.37646M12.1265 2.48022V5.48022M6.12647 2.48022V5.48022M6.87647 12.9802L8.37647 14.4802L11.7515 11.1052M5.97647 17.4802H12.2765C13.5366 17.4802 14.1666 17.4802 14.6479 17.235C15.0713 17.0193 15.4155 16.6751 15.6312 16.2517C15.8765 15.7704 15.8765 15.1403 15.8765 13.8802V7.58023C15.8765 6.32011 15.8765 5.69005 15.6312 5.20875C15.4155 4.78538 15.0713 4.44118 14.6479 4.22546C14.1666 3.98022 13.5366 3.98022 12.2765 3.98022H5.97647C4.71635 3.98022 4.08629 3.98022 3.60499 4.22546C3.18162 4.44118 2.83742 4.78538 2.6217 5.20875C2.37646 5.69005 2.37646 6.32011 2.37646 7.58022V13.8802C2.37646 15.1403 2.37646 15.7704 2.6217 16.2517C2.83742 16.6751 3.18162 17.0193 3.60499 17.235C4.08629 17.4802 4.71635 17.4802 5.97647 17.4802Z" stroke="#98A2B3" stroke-width="1.5" stroke-linecap="round" stroke-linejoin="round"/>
</g>
<defs>
<clipPath id="clip0_1_10249">
<rect width="18" height="18" fill="white" transform="translate(0.126465 0.980469)"/>
</clipPath>
</defs>
</svg>
