<svg width="19" height="19" viewBox="0 0 19 19" fill="none" xmlns="http://www.w3.org/2000/svg">
<g clip-path="url(#clip0_1_10261)">
<path d="M11.3887 14.4802H15.8887M15.8887 9.60523V7.58023C15.8887 6.32011 15.8887 5.69005 15.6434 5.20875C15.4277 4.78538 15.0835 4.44118 14.6602 4.22546C14.1789 3.98022 13.5488 3.98022 12.2887 3.98022H5.98867C4.72855 3.98022 4.09849 3.98022 3.61719 4.22546C3.19383 4.44118 2.84962 4.78538 2.63391 5.20875C2.38867 5.69005 2.38867 6.32011 2.38867 7.58022V13.8802C2.38867 15.1403 2.38867 15.7704 2.63391 16.2517C2.84962 16.6751 3.19383 17.0193 3.61719 17.235C4.09849 17.4802 4.72855 17.4802 5.98867 17.4802H9.51367M15.8887 8.48023H2.38867M12.1387 2.48022V5.48022M6.13867 2.48022V5.48022" stroke="#98A2B3" stroke-width="1.5" stroke-linecap="round" stroke-linejoin="round"/>
</g>
<defs>
<clipPath id="clip0_1_10261">
<rect width="18" height="18" fill="white" transform="translate(0.138672 0.980469)"/>
</clipPath>
</defs>
</svg>
