<svg width="19" height="19" viewBox="0 0 19 19" fill="none" xmlns="http://www.w3.org/2000/svg">
<g clip-path="url(#clip0_1_10259)">
<path d="M7.38623 12.2302H11.8862M16.3862 6.98022H2.88623M12.6362 2.48022V4.73022M6.63623 2.48022V4.73022M6.48623 17.4802H12.7862C14.0464 17.4802 14.6764 17.4802 15.1577 17.235C15.5811 17.0193 15.9253 16.6751 16.141 16.2517C16.3862 15.7704 16.3862 15.1403 16.3862 13.8802V7.58023C16.3862 6.32011 16.3862 5.69005 16.141 5.20875C15.9253 4.78538 15.5811 4.44118 15.1577 4.22546C14.6764 3.98022 14.0464 3.98022 12.7862 3.98022H6.48623C5.22611 3.98022 4.59605 3.98022 4.11475 4.22546C3.69139 4.44118 3.34718 4.78538 3.13147 5.20875C2.88623 5.69005 2.88623 6.32011 2.88623 7.58022V13.8802C2.88623 15.1403 2.88623 15.7704 3.13147 16.2517C3.34718 16.6751 3.69139 17.0193 4.11475 17.235C4.59605 17.4802 5.22611 17.4802 6.48623 17.4802Z" stroke="#98A2B3" stroke-width="1.5" stroke-linecap="round" stroke-linejoin="round"/>
</g>
<defs>
<clipPath id="clip0_1_10259">
<rect width="18" height="18" fill="white" transform="translate(0.636719 0.980469)"/>
</clipPath>
</defs>
</svg>
