<svg width="19" height="19" viewBox="0 0 19 19" fill="none" xmlns="http://www.w3.org/2000/svg">
<g clip-path="url(#clip0_1_10255)">
<path d="M16.3823 6.98022H2.88232M12.6323 2.48022V4.73022M6.63232 2.48022V4.73022M6.48232 17.4802H12.7823C14.0424 17.4802 14.6725 17.4802 15.1538 17.235C15.5772 17.0193 15.9214 16.6751 16.1371 16.2517C16.3823 15.7704 16.3823 15.1403 16.3823 13.8802V7.58023C16.3823 6.32011 16.3823 5.69005 16.1371 5.20875C15.9214 4.78538 15.5772 4.44118 15.1538 4.22546C14.6725 3.98022 14.0424 3.98022 12.7823 3.98022H6.48232C5.22221 3.98022 4.59215 3.98022 4.11085 4.22546C3.68748 4.44118 3.34327 4.78538 3.12756 5.20875C2.88232 5.69005 2.88232 6.32011 2.88232 7.58022V13.8802C2.88232 15.1403 2.88232 15.7704 3.12756 16.2517C3.34327 16.6751 3.68748 17.0193 4.11085 17.235C4.59215 17.4802 5.22221 17.4802 6.48232 17.4802ZM9.63027 10.2282C9.03047 9.54643 8.03025 9.36304 7.27873 9.98731C6.52722 10.6116 6.42142 11.6553 7.01158 12.3937C7.44007 12.9297 8.62678 13.985 9.24482 14.5229C9.37881 14.6395 9.4458 14.6978 9.5243 14.721C9.5923 14.741 9.66824 14.741 9.73624 14.721C9.81474 14.6978 9.88173 14.6395 10.0157 14.5229C10.6338 13.985 11.8205 12.9297 12.249 12.3937C12.8391 11.6553 12.7462 10.605 11.9818 9.98731C11.2174 9.3696 10.2301 9.54643 9.63027 10.2282Z" stroke="#98A2B3" stroke-width="1.5" stroke-linecap="round" stroke-linejoin="round"/>
</g>
<defs>
<clipPath id="clip0_1_10255">
<rect width="18" height="18" fill="white" transform="translate(0.632812 0.980469)"/>
</clipPath>
</defs>
</svg>
