<svg width="19" height="19" viewBox="0 0 19 19" fill="none" xmlns="http://www.w3.org/2000/svg">
<g clip-path="url(#clip0_1_10263)">
<path d="M16.3901 6.98022H2.89014M12.6401 2.48022V4.73022M6.64014 2.48022V4.73022M9.64014 14.4802V9.98023M7.39014 12.2302H11.8901M6.49014 17.4802H12.7901C14.0503 17.4802 14.6803 17.4802 15.1616 17.235C15.585 17.0193 15.9292 16.6751 16.1449 16.2517C16.3901 15.7704 16.3901 15.1403 16.3901 13.8802V7.58023C16.3901 6.32011 16.3901 5.69005 16.1449 5.20875C15.9292 4.78538 15.585 4.44118 15.1616 4.22546C14.6803 3.98022 14.0503 3.98022 12.7901 3.98022H6.49014C5.23002 3.98022 4.59996 3.98022 4.11866 4.22546C3.69529 4.44118 3.35109 4.78538 3.13537 5.20875C2.89014 5.69005 2.89014 6.32011 2.89014 7.58022V13.8802C2.89014 15.1403 2.89014 15.7704 3.13537 16.2517C3.35109 16.6751 3.69529 17.0193 4.11866 17.235C4.59996 17.4802 5.23002 17.4802 6.49014 17.4802Z" stroke="#98A2B3" stroke-width="1.5" stroke-linecap="round" stroke-linejoin="round"/>
</g>
<defs>
<clipPath id="clip0_1_10263">
<rect width="18" height="18" fill="white" transform="translate(0.640625 0.980469)"/>
</clipPath>
</defs>
</svg>
