<svg width="19" height="19" viewBox="0 0 19 19" fill="none" xmlns="http://www.w3.org/2000/svg">
<g clip-path="url(#clip0_1_10253)">
<path d="M15.8804 8.48023H2.38037M12.1304 2.48022V5.48022M6.13037 2.48022V5.48022M8.00537 11.4802L9.13037 10.7302V14.4802M8.19287 14.4802H10.0679M5.98037 17.4802H12.2804C13.5405 17.4802 14.1705 17.4802 14.6519 17.235C15.0752 17.0193 15.4194 16.6751 15.6351 16.2517C15.8804 15.7704 15.8804 15.1403 15.8804 13.8802V7.58023C15.8804 6.32011 15.8804 5.69005 15.6351 5.20875C15.4194 4.78538 15.0752 4.44118 14.6519 4.22546C14.1705 3.98022 13.5405 3.98022 12.2804 3.98022H5.98037C4.72025 3.98022 4.09019 3.98022 3.60889 4.22546C3.18553 4.44118 2.84132 4.78538 2.62561 5.20875C2.38037 5.69005 2.38037 6.32011 2.38037 7.58022V13.8802C2.38037 15.1403 2.38037 15.7704 2.62561 16.2517C2.84132 16.6751 3.18553 17.0193 3.60889 17.235C4.09019 17.4802 4.72025 17.4802 5.98037 17.4802Z" stroke="#98A2B3" stroke-width="1.5" stroke-linecap="round" stroke-linejoin="round"/>
</g>
<defs>
<clipPath id="clip0_1_10253">
<rect width="18" height="18" fill="white" transform="translate(0.130859 0.980469)"/>
</clipPath>
</defs>
</svg>
