<svg width="19" height="19" viewBox="0 0 19 19" fill="none" xmlns="http://www.w3.org/2000/svg">
<g clip-path="url(#clip0_1_10265)">
<path d="M15.8916 9.60523V7.58023C15.8916 6.32011 15.8916 5.69005 15.6464 5.20875C15.4307 4.78538 15.0864 4.44118 14.6631 4.22546C14.1818 3.98022 13.5517 3.98022 12.2916 3.98022H5.9916C4.73148 3.98022 4.10142 3.98022 3.62012 4.22546C3.19676 4.44118 2.85255 4.78538 2.63684 5.20875C2.3916 5.69005 2.3916 6.32011 2.3916 7.58022V13.8802C2.3916 15.1403 2.3916 15.7704 2.63684 16.2517C2.85255 16.6751 3.19676 17.0193 3.62012 17.235C4.10142 17.4802 4.73148 17.4802 5.9916 17.4802H9.5166M15.8916 8.48023H2.3916M12.1416 2.48022V5.48022M6.1416 2.48022V5.48022M13.6416 16.7302V12.2302M11.3916 14.4802H15.8916" stroke="#98A2B3" stroke-width="1.5" stroke-linecap="round" stroke-linejoin="round"/>
</g>
<defs>
<clipPath id="clip0_1_10265">
<rect width="18" height="18" fill="white" transform="translate(0.141602 0.980469)"/>
</clipPath>
</defs>
</svg>
