<svg width="19" height="19" viewBox="0 0 19 19" fill="none" xmlns="http://www.w3.org/2000/svg">
<g clip-path="url(#clip0_1_10247)">
<path d="M15.8726 8.48023H2.37256M12.1226 2.48022V5.48022M6.12256 2.48022V5.48022M5.97256 17.4802H12.2726C13.5327 17.4802 14.1627 17.4802 14.644 17.235C15.0674 17.0193 15.4116 16.6751 15.6273 16.2517C15.8726 15.7704 15.8726 15.1403 15.8726 13.8802V7.58023C15.8726 6.32011 15.8726 5.69005 15.6273 5.20875C15.4116 4.78538 15.0674 4.44118 14.644 4.22546C14.1627 3.98022 13.5327 3.98022 12.2726 3.98022H5.97256C4.71244 3.98022 4.08238 3.98022 3.60108 4.22546C3.17772 4.44118 2.83351 4.78538 2.61779 5.20875C2.37256 5.69005 2.37256 6.32011 2.37256 7.58022V13.8802C2.37256 15.1403 2.37256 15.7704 2.61779 16.2517C2.83351 16.6751 3.17772 17.0193 3.60108 17.235C4.08238 17.4802 4.71244 17.4802 5.97256 17.4802Z" stroke="#98A2B3" stroke-width="1.5" stroke-linecap="round" stroke-linejoin="round"/>
</g>
<defs>
<clipPath id="clip0_1_10247">
<rect width="18" height="18" fill="white" transform="translate(0.122559 0.980469)"/>
</clipPath>
</defs>
</svg>
