<svg width="19" height="19" viewBox="0 0 19 19" fill="none" xmlns="http://www.w3.org/2000/svg">
<g clip-path="url(#clip0_1_9869)">
<path d="M1.65039 6.83029C1.65039 5.57017 1.65039 4.94011 1.89563 4.45881C2.11134 4.03544 2.45555 3.69124 2.87891 3.47552C3.36021 3.23029 3.99027 3.23029 5.25039 3.23029H13.0504C14.3105 3.23029 14.9406 3.23029 15.4219 3.47552C15.8452 3.69124 16.1894 4.03544 16.4052 4.45881C16.6504 4.94011 16.6504 5.57017 16.6504 6.83029V13.1303C16.6504 14.3904 16.6504 15.0205 16.4052 15.5018C16.1894 15.9251 15.8452 16.2693 15.4219 16.4851C14.9406 16.7303 14.3105 16.7303 13.0504 16.7303H5.25039C3.99027 16.7303 3.36021 16.7303 2.87891 16.4851C2.45555 16.2693 2.11134 15.9251 1.89563 15.5018C1.65039 15.0205 1.65039 14.3904 1.65039 13.1303V6.83029Z" stroke="#98A2B3" stroke-width="1.5" stroke-linecap="round" stroke-linejoin="round"/>
<path d="M9.15039 12.9803C10.8072 12.9803 12.1504 11.6371 12.1504 9.98029C12.1504 8.32343 10.8072 6.98029 9.15039 6.98029C7.49354 6.98029 6.15039 8.32343 6.15039 9.98029C6.15039 11.6371 7.49354 12.9803 9.15039 12.9803Z" stroke="#98A2B3" stroke-width="1.5" stroke-linecap="round" stroke-linejoin="round"/>
</g>
<defs>
<clipPath id="clip0_1_9869">
<rect width="18" height="18" fill="white" transform="translate(0.150391 0.980469)"/>
</clipPath>
</defs>
</svg>
