<svg width="19" height="19" viewBox="0 0 19 19" fill="none" xmlns="http://www.w3.org/2000/svg">
<g clip-path="url(#clip0_1_10655)">
<path d="M17.894 15.2303C17.894 15.6281 17.736 16.0096 17.4547 16.2909C17.1734 16.5723 16.7919 16.7303 16.394 16.7303H2.89404C2.49622 16.7303 2.11469 16.5723 1.83338 16.2909C1.55208 16.0096 1.39404 15.6281 1.39404 15.2303V6.98029C1.39404 6.58246 1.55208 6.20093 1.83338 5.91963C2.11469 5.63832 2.49622 5.48029 2.89404 5.48029H5.89404L7.39404 3.23029H11.894L13.394 5.48029H16.394C16.7919 5.48029 17.1734 5.63832 17.4547 5.91963C17.736 6.20093 17.894 6.58246 17.894 6.98029V15.2303Z" stroke="#98A2B3" stroke-width="1.5" stroke-linecap="round" stroke-linejoin="round"/>
<path d="M9.64404 13.7303C11.3009 13.7303 12.644 12.3871 12.644 10.7303C12.644 9.07343 11.3009 7.73029 9.64404 7.73029C7.98719 7.73029 6.64404 9.07343 6.64404 10.7303C6.64404 12.3871 7.98719 13.7303 9.64404 13.7303Z" stroke="#98A2B3" stroke-width="1.5" stroke-linecap="round" stroke-linejoin="round"/>
</g>
<defs>
<clipPath id="clip0_1_10655">
<rect width="18" height="18" fill="white" transform="translate(0.644531 0.980469)"/>
</clipPath>
</defs>
</svg>
