<svg width="19" height="19" viewBox="0 0 19 19" fill="none" xmlns="http://www.w3.org/2000/svg">
<g clip-path="url(#clip0_1_9875)">
<path d="M16.6582 9.60523V11.9302C16.6582 13.6104 16.6582 14.4505 16.3312 15.0922C16.0436 15.6567 15.5847 16.1156 15.0202 16.4032C14.3784 16.7302 13.5384 16.7302 11.8582 16.7302H6.4582C4.77805 16.7302 3.93797 16.7302 3.29623 16.4032C2.73175 16.1156 2.2728 15.6567 1.98518 15.0922C1.6582 14.4505 1.6582 13.6104 1.6582 11.9302V8.03023C1.6582 6.35007 1.6582 5.50999 1.98518 4.86825C2.2728 4.30377 2.73175 3.84483 3.29623 3.55721C3.93797 3.23022 4.77805 3.23022 6.4582 3.23022H9.5332M14.4082 6.98022V2.48022M12.1582 4.73022H16.6582M12.1582 9.98023C12.1582 11.6371 10.8151 12.9802 9.1582 12.9802C7.50135 12.9802 6.1582 11.6371 6.1582 9.98023C6.1582 8.32337 7.50135 6.98022 9.1582 6.98022C10.8151 6.98022 12.1582 8.32337 12.1582 9.98023Z" stroke="#98A2B3" stroke-width="1.5" stroke-linecap="round" stroke-linejoin="round"/>
</g>
<defs>
<clipPath id="clip0_1_9875">
<rect width="18" height="18" fill="white" transform="translate(0.158203 0.980469)"/>
</clipPath>
</defs>
</svg>
