<svg width="19" height="19" viewBox="0 0 19 19" fill="none" xmlns="http://www.w3.org/2000/svg">
<g clip-path="url(#clip0_1_9871)">
<path d="M16.7144 12.4861C14.5971 13.9923 11.8199 14.1596 9.56061 12.9802M2.59117 7.47439C4.71363 5.96447 7.49916 5.80001 9.76145 6.98884M12.1831 11.5735C14.3481 10.209 15.6017 7.71082 15.3536 5.11439M7.08921 8.40801C4.94457 9.77704 3.70503 12.2629 3.95191 14.8461M12.298 8.583C12.1983 6.02661 10.6616 3.69286 8.28941 2.60939M7.00955 11.4245C7.12617 13.9624 8.65855 16.2742 11.0161 17.3511M14.9561 4.67693C17.8851 7.60586 17.8851 12.3546 14.9561 15.2835C12.0272 18.2124 7.27845 18.2124 4.34953 15.2835C1.4206 12.3546 1.4206 7.60584 4.34953 4.67693C7.27847 1.74799 12.0272 1.74799 14.9561 4.67693ZM11.7742 7.8589C12.9457 9.03047 12.9457 10.93 11.7742 12.1015C10.6026 13.2731 8.70308 13.2731 7.53151 12.1015C6.35994 10.93 6.35994 9.03047 7.53151 7.8589C8.70308 6.68733 10.6026 6.68733 11.7742 7.8589Z" stroke="#98A2B3" stroke-width="1.5" stroke-linecap="round" stroke-linejoin="round"/>
</g>
<defs>
<clipPath id="clip0_1_9871">
<rect width="18" height="18" fill="white" transform="translate(0.652344 0.980469)"/>
</clipPath>
</defs>
</svg>
