<svg width="19" height="19" viewBox="0 0 19 19" fill="none" xmlns="http://www.w3.org/2000/svg">
<g clip-path="url(#clip0_1_10603)">
<path d="M1.40625 1.73022L17.9063 18.2302M7.40625 3.23022H11.9063L13.4063 5.48022H16.4063C16.8041 5.48022 17.1856 5.63826 17.4669 5.91956C17.7482 6.20087 17.9063 6.5824 17.9063 6.98023V13.9852M12.1163 12.4402C11.8673 12.804 11.5413 13.1085 11.1613 13.332C10.7814 13.5554 10.3569 13.6924 9.91796 13.7332C9.47905 13.774 9.03655 13.7176 8.62193 13.5679C8.20731 13.4183 7.83076 13.1791 7.51907 12.8674C7.20737 12.5557 6.9682 12.1792 6.81855 11.7645C6.66891 11.3499 6.61247 10.9074 6.65325 10.4685C6.69404 10.0296 6.83104 9.60508 7.05452 9.22513C7.278 8.84518 7.58246 8.51915 7.94625 8.27023M16.4063 16.7302H2.90625C2.50843 16.7302 2.12689 16.5722 1.84559 16.2909C1.56429 16.0096 1.40625 15.6281 1.40625 15.2302V6.98023C1.40625 6.5824 1.56429 6.20087 1.84559 5.91956C2.12689 5.63826 2.50843 5.48022 2.90625 5.48022H5.15625L16.4063 16.7302Z" stroke="#98A2B3" stroke-width="1.5" stroke-linecap="round" stroke-linejoin="round"/>
</g>
<defs>
<clipPath id="clip0_1_10603">
<rect width="18" height="18" fill="white" transform="translate(0.65625 0.980469)"/>
</clipPath>
</defs>
</svg>
