<svg width="19" height="19" viewBox="0 0 19 19" fill="none" xmlns="http://www.w3.org/2000/svg">
<g clip-path="url(#clip0_1_9873)">
<path d="M3.9043 4.73022H4.21844C4.31851 4.73022 4.36854 4.73022 4.41384 4.72748C4.99226 4.69245 5.49876 4.32738 5.71491 3.78972C5.73183 3.74762 5.74765 3.70015 5.7793 3.60522C5.81094 3.5103 5.82676 3.46283 5.84369 3.42073C6.05983 2.88307 6.56634 2.518 7.14476 2.48297C7.19006 2.48022 7.24009 2.48022 7.34015 2.48022H10.9684C11.0685 2.48022 11.1185 2.48022 11.1638 2.48297C11.7423 2.518 12.2488 2.88307 12.4649 3.42073C12.4818 3.46283 12.4977 3.5103 12.5293 3.60522C12.5609 3.70015 12.5768 3.74762 12.5937 3.78972C12.8098 4.32738 13.3163 4.69245 13.8948 4.72748C13.9401 4.73022 13.9934 4.73022 14.1001 4.73022C14.377 4.73022 14.5155 4.73022 14.6261 4.74119C15.6933 4.84693 16.5376 5.69118 16.6433 6.75838C16.6543 6.86903 16.6543 7.0004 16.6543 7.26314V14.4802C16.6543 15.2939 16.2224 16.0067 15.5753 16.4019M11.4524 12.2838C11.8904 11.7623 12.1543 11.0896 12.1543 10.3552C12.1543 8.69837 10.8112 7.35522 9.1543 7.35522C8.42048 7.35522 7.74819 7.6187 7.22688 8.0562M16.6543 17.4802L1.6543 2.48022M1.6543 6.60523V13.1302C1.6543 14.3903 1.6543 15.0204 1.89953 15.5017C2.11525 15.9251 2.45945 16.2693 2.88282 16.485C3.36412 16.7302 3.99418 16.7302 5.2543 16.7302H11.7793M9.1543 13.3552C7.49744 13.3552 6.1543 12.0121 6.1543 10.3552" stroke="#98A2B3" stroke-width="1.5" stroke-linecap="round" stroke-linejoin="round"/>
</g>
<defs>
<clipPath id="clip0_1_9873">
<rect width="18" height="18" fill="white" transform="translate(0.154297 0.980469)"/>
</clipPath>
</defs>
</svg>
