<svg width="19" height="19" viewBox="0 0 19 19" fill="none" xmlns="http://www.w3.org/2000/svg">
<path d="M2.14844 6.75656C2.14844 5.63745 3.05566 4.73022 4.17477 4.73022C4.75624 4.73022 5.27246 4.35815 5.45634 3.80652L5.52344 3.60522C5.55508 3.5103 5.5709 3.46283 5.58783 3.42073C5.80397 2.88307 6.31048 2.518 6.8889 2.48297C6.9342 2.48022 6.98423 2.48022 7.08429 2.48022H12.2126C12.3126 2.48022 12.3627 2.48022 12.408 2.48297C12.9864 2.518 13.4929 2.88307 13.709 3.42073C13.726 3.46283 13.7418 3.5103 13.7734 3.60522L13.8405 3.80652C14.0244 4.35815 14.5406 4.73022 15.1221 4.73022C16.2412 4.73022 17.1484 5.63745 17.1484 6.75656V13.1302C17.1484 14.3903 17.1484 15.0204 16.9032 15.5017C16.6875 15.9251 16.3433 16.2693 15.9199 16.485C15.4386 16.7302 14.8086 16.7302 13.5484 16.7302H5.74844C4.48832 16.7302 3.85826 16.7302 3.37696 16.485C2.95359 16.2693 2.60939 15.9251 2.39367 15.5017C2.14844 15.0204 2.14844 14.3903 2.14844 13.1302V6.75656Z" stroke="#98A2B3" stroke-width="1.5" stroke-linecap="round" stroke-linejoin="round"/>
<path d="M9.64844 13.3552C11.5124 13.3552 13.0234 11.8442 13.0234 9.98023C13.0234 8.11626 11.5124 6.60522 9.64844 6.60522C7.78448 6.60522 6.27344 8.11626 6.27344 9.98023C6.27344 11.8442 7.78448 13.3552 9.64844 13.3552Z" stroke="#98A2B3" stroke-width="1.5" stroke-linecap="round" stroke-linejoin="round"/>
</svg>
