<svg width="19" height="19" viewBox="0 0 19 19" fill="none" xmlns="http://www.w3.org/2000/svg">
<g clip-path="url(#clip0_1_9865)">
<path d="M1.64648 7.26314C1.64648 7.0004 1.64648 6.86903 1.65745 6.75838C1.76319 5.69118 2.60744 4.84693 3.67464 4.74119C3.78529 4.73022 3.92375 4.73022 4.20067 4.73022C4.30737 4.73022 4.36073 4.73022 4.40602 4.72748C4.98444 4.69245 5.49095 4.32738 5.70709 3.78972C5.72402 3.74762 5.73984 3.70015 5.77148 3.60522C5.80313 3.5103 5.81895 3.46283 5.83588 3.42073C6.05202 2.88307 6.55853 2.518 7.13695 2.48297C7.18224 2.48022 7.23227 2.48022 7.33234 2.48022H10.9606C11.0607 2.48022 11.1107 2.48022 11.156 2.48297C11.7344 2.518 12.2409 2.88307 12.4571 3.42073C12.474 3.46283 12.4898 3.5103 12.5215 3.60522C12.5531 3.70015 12.5689 3.74762 12.5859 3.78972C12.802 4.32738 13.3085 4.69245 13.8869 4.72748C13.9322 4.73022 13.9856 4.73022 14.0923 4.73022C14.3692 4.73022 14.5077 4.73022 14.6183 4.74119C15.6855 4.84693 16.5298 5.69118 16.6355 6.75838C16.6465 6.86903 16.6465 7.0004 16.6465 7.26314V13.1302C16.6465 14.3903 16.6465 15.0204 16.4013 15.5017C16.1855 15.9251 15.8413 16.2693 15.418 16.485C14.9367 16.7302 14.3066 16.7302 13.0465 16.7302H5.24648C3.98637 16.7302 3.35631 16.7302 2.87501 16.485C2.45164 16.2693 2.10743 15.9251 1.89172 15.5017C1.64648 15.0204 1.64648 14.3903 1.64648 13.1302V7.26314Z" stroke="#98A2B3" stroke-width="1.5" stroke-linecap="round" stroke-linejoin="round"/>
<path d="M9.14648 13.3552C10.8033 13.3552 12.1465 12.0121 12.1465 10.3552C12.1465 8.69837 10.8033 7.35522 9.14648 7.35522C7.48963 7.35522 6.14648 8.69837 6.14648 10.3552C6.14648 12.0121 7.48963 13.3552 9.14648 13.3552Z" stroke="#98A2B3" stroke-width="1.5" stroke-linecap="round" stroke-linejoin="round"/>
</g>
<defs>
<clipPath id="clip0_1_9865">
<rect width="18" height="18" fill="white" transform="translate(0.146484 0.980469)"/>
</clipPath>
</defs>
</svg>
