<svg width="19" height="19" viewBox="0 0 19 19" fill="none" xmlns="http://www.w3.org/2000/svg">
<path d="M2.16016 13.0552C2.88083 13.2022 3.54236 13.5579 4.06244 14.0779C4.58252 14.598 4.93818 15.2596 5.08516 15.9802M2.16016 10.0177C3.68325 10.1871 5.10336 10.8698 6.18699 11.9534C7.27062 13.037 7.95326 14.4571 8.12266 15.9802M2.16016 6.98022V5.48022C2.16016 5.0824 2.31819 4.70087 2.5995 4.41956C2.8808 4.13826 3.26233 3.98022 3.66016 3.98022H15.6602C16.058 3.98022 16.4395 4.13826 16.7208 4.41956C17.0021 4.70087 17.1602 5.0824 17.1602 5.48022V14.4802C17.1602 14.8781 17.0021 15.2596 16.7208 15.5409C16.4395 15.8222 16.058 15.9802 15.6602 15.9802H11.1602M2.16016 15.9802H2.16766" stroke="#98A2B3" stroke-width="1.5" stroke-linecap="round" stroke-linejoin="round"/>
</svg>
