<svg width="19" height="19" viewBox="0 0 19 19" fill="none" xmlns="http://www.w3.org/2000/svg">
<g clip-path="url(#clip0_1_8608)">
<path d="M7.41406 14.8552H11.9141M5.91406 12.2302H13.4141M4.41406 2.48022H14.9141C15.7425 2.48022 16.4141 3.22642 16.4141 4.14689V15.8136C16.4141 16.734 15.7425 17.4802 14.9141 17.4802H4.41406C3.58564 17.4802 2.91406 16.734 2.91406 15.8136V4.14689C2.91406 3.22642 3.58564 2.48022 4.41406 2.48022ZM9.66227 5.63918C9.13744 5.05482 8.26225 4.89764 7.60467 5.43273C6.94709 5.96782 6.85452 6.86247 7.37092 7.49533C7.88731 8.12818 9.66227 9.60523 9.66227 9.60523C9.66227 9.60523 11.4372 8.12818 11.9536 7.49533C12.47 6.86247 12.3887 5.96219 11.7199 5.43273C11.051 4.90326 10.1871 5.05482 9.66227 5.63918Z" stroke="#98A2B3" stroke-width="1.5" stroke-linecap="round" stroke-linejoin="round"/>
</g>
<defs>
<clipPath id="clip0_1_8608">
<rect width="18" height="18" fill="white" transform="translate(0.664062 0.980469)"/>
</clipPath>
</defs>
</svg>
