<svg width="19" height="19" viewBox="0 0 19 19" fill="none" xmlns="http://www.w3.org/2000/svg">
<g clip-path="url(#clip0_1_8606)">
<path d="M5.03711 15.9802H3.91211C3.08368 15.9802 2.41211 15.3087 2.41211 14.4802V3.98022C2.41211 3.1518 3.08368 2.48022 3.91211 2.48022H14.4121C15.2405 2.48022 15.9121 3.1518 15.9121 3.98022V14.4802C15.9121 15.3087 15.2405 15.9802 14.4121 15.9802H13.2871M9.16211 15.2302C10.4048 15.2302 11.4121 14.2229 11.4121 12.9802C11.4121 11.7376 10.4048 10.7302 9.16211 10.7302C7.91947 10.7302 6.91211 11.7376 6.91211 12.9802C6.91211 14.2229 7.91947 15.2302 9.16211 15.2302ZM9.16211 15.2302L9.17819 15.2301L6.78361 17.6246L4.66229 15.5033L6.92685 13.2388M9.16211 15.2302L11.5567 17.6246L13.678 15.5033L11.4135 13.2388M6.91211 5.48023H11.4121M5.41211 8.10523H12.9121" stroke="#98A2B3" stroke-width="1.5" stroke-linecap="round" stroke-linejoin="round"/>
</g>
<defs>
<clipPath id="clip0_1_8606">
<rect width="18" height="18" fill="white" transform="translate(0.162109 0.980469)"/>
</clipPath>
</defs>
</svg>
