<svg width="19" height="19" viewBox="0 0 19 19" fill="none" xmlns="http://www.w3.org/2000/svg">
<path d="M8.91797 3.23022H6.51797C5.25785 3.23022 4.62779 3.23022 4.14649 3.47546C3.72313 3.69118 3.37892 4.03538 3.1632 4.45875C2.91797 4.94005 2.91797 5.57011 2.91797 6.83022V13.1302C2.91797 14.3903 2.91797 15.0204 3.1632 15.5017C3.37892 15.9251 3.72313 16.2693 4.14649 16.485C4.62779 16.7302 5.25785 16.7302 6.51797 16.7302H12.818C14.0781 16.7302 14.7081 16.7302 15.1894 16.485C15.6128 16.2693 15.957 15.9251 16.1727 15.5017C16.418 15.0204 16.418 14.3903 16.418 13.1302V10.7302M9.66797 6.98022H12.668V9.98023M12.293 3.60522V2.48022M15.2475 4.40072L16.043 3.60522M16.0507 7.35522H17.1757M2.91797 10.9906C3.40692 11.0661 3.90787 11.1052 4.41797 11.1052C7.70774 11.1052 10.617 9.47592 12.3827 6.98022" stroke="#98A2B3" stroke-width="1.5" stroke-linecap="round" stroke-linejoin="round"/>
</svg>
