<svg width="19" height="19" viewBox="0 0 19 19" fill="none" xmlns="http://www.w3.org/2000/svg">
<g clip-path="url(#clip0_1_9129)">
<path d="M5.17969 12.2302L6.67969 13.7302L10.0547 10.3552M6.67969 6.98022V4.88022C6.67969 4.04015 6.67969 3.62011 6.84318 3.29924C6.98699 3.017 7.21646 2.78752 7.4987 2.64371C7.81957 2.48022 8.23961 2.48022 9.07969 2.48022H14.7797C15.6198 2.48022 16.0398 2.48022 16.3607 2.64371C16.6429 2.78752 16.8724 3.017 17.0162 3.29924C17.1797 3.62011 17.1797 4.04015 17.1797 4.88022V10.5802C17.1797 11.4203 17.1797 11.8403 17.0162 12.1612C16.8724 12.4435 16.6429 12.6729 16.3607 12.8167C16.0398 12.9802 15.6198 12.9802 14.7797 12.9802H12.6797M4.57969 17.4802H10.2797C11.1198 17.4802 11.5398 17.4802 11.8607 17.3167C12.1429 17.1729 12.3724 16.9435 12.5162 16.6612C12.6797 16.3403 12.6797 15.9203 12.6797 15.0802V9.38023C12.6797 8.54015 12.6797 8.12011 12.5162 7.79924C12.3724 7.517 12.1429 7.28753 11.8607 7.14372C11.5398 6.98023 11.1198 6.98022 10.2797 6.98022H4.57969C3.73961 6.98022 3.31957 6.98023 2.9987 7.14372C2.71646 7.28753 2.48699 7.517 2.34318 7.79924C2.17969 8.12011 2.17969 8.54015 2.17969 9.38023V15.0802C2.17969 15.9203 2.17969 16.3403 2.34318 16.6612C2.48699 16.9435 2.71646 17.1729 2.9987 17.3167C3.31957 17.4802 3.73961 17.4802 4.57969 17.4802Z" stroke="#98A2B3" stroke-width="1.5" stroke-linecap="round" stroke-linejoin="round"/>
</g>
<defs>
<clipPath id="clip0_1_9129">
<rect width="18" height="18" fill="white" transform="translate(0.679688 0.980469)"/>
</clipPath>
</defs>
</svg>
