<svg width="19" height="19" viewBox="0 0 19 19" fill="none" xmlns="http://www.w3.org/2000/svg">
<path d="M5.81055 9.98029L8.06055 12.2303L12.5605 7.73029M6.03555 16.7303H12.3355C13.5957 16.7303 14.2257 16.7303 14.707 16.4851C15.1304 16.2693 15.4746 15.9251 15.6903 15.5018C15.9355 15.0205 15.9355 14.3904 15.9355 13.1303V6.83029C15.9355 5.57017 15.9355 4.94011 15.6903 4.45881C15.4746 4.03544 15.1304 3.69124 14.707 3.47552C14.2257 3.23029 13.5957 3.23029 12.3355 3.23029H6.03555C4.77543 3.23029 4.14537 3.23029 3.66407 3.47552C3.2407 3.69124 2.8965 4.03544 2.68078 4.45881C2.43555 4.94011 2.43555 5.57017 2.43555 6.83029V13.1303C2.43555 14.3904 2.43555 15.0205 2.68078 15.5018C2.8965 15.9251 3.2407 16.2693 3.66407 16.4851C4.14537 16.7303 4.77543 16.7303 6.03555 16.7303Z" stroke="#98A2B3" stroke-width="1.5" stroke-linecap="round" stroke-linejoin="round"/>
</svg>
