<svg width="19" height="19" viewBox="0 0 19 19" fill="none" xmlns="http://www.w3.org/2000/svg">
<g clip-path="url(#clip0_1_9143)">
<path d="M7.44531 9.98023L8.94531 11.4802L12.3203 8.10523M7.59674 16.4309C7.84255 16.3984 8.09086 16.465 8.28668 16.6159L9.18911 17.3084C9.48741 17.5375 9.90238 17.5375 10.1999 17.3084L11.1364 16.5892C11.3114 16.455 11.5322 16.3959 11.7506 16.425L12.9221 16.5792C13.2946 16.6284 13.6537 16.4209 13.7979 16.0734L14.2487 14.9834C14.3328 14.7793 14.4945 14.6176 14.6986 14.5334L15.7886 14.0826C16.136 13.9393 16.3435 13.5793 16.2943 13.2068L16.146 12.0777C16.1135 11.8318 16.1802 11.5835 16.331 11.3877L17.0235 10.4852C17.2526 10.1869 17.2526 9.7719 17.0235 9.47441L16.3043 8.53777C16.1702 8.36277 16.111 8.14194 16.1402 7.92362L16.2943 6.75198C16.3435 6.37949 16.136 6.02034 15.7886 5.87617L14.6986 5.42535C14.4945 5.34119 14.3328 5.17952 14.2487 4.97536L13.7979 3.88539C13.6546 3.5379 13.2946 3.33041 12.9221 3.37957L11.7506 3.53374C11.5322 3.56374 11.3114 3.50457 11.1373 3.37124L10.2007 2.65209C9.90238 2.42293 9.48741 2.42293 9.18994 2.65209L8.25335 3.37124C8.07836 3.50457 7.85755 3.56374 7.63923 3.5354L6.46766 3.38124C6.0952 3.33208 5.73606 3.53957 5.5919 3.88706L5.14194 4.97703C5.05695 5.18036 4.8953 5.34202 4.69198 5.42702L3.60207 5.87701C3.2546 6.02117 3.04712 6.38033 3.09628 6.75281L3.25043 7.92445C3.27876 8.14278 3.2196 8.3636 3.08628 8.53777L2.36717 9.47441C2.13803 9.77273 2.13803 10.1877 2.36717 10.4852L3.08628 11.4219C3.22044 11.5968 3.2796 11.8177 3.25043 12.036L3.09628 13.2076C3.04712 13.5801 3.2546 13.9393 3.60207 14.0834L4.69198 14.5343C4.89613 14.6184 5.05778 14.7801 5.14194 14.9843L5.59274 16.0742C5.73606 16.4217 6.09603 16.6292 6.4685 16.58L7.59674 16.4309Z" stroke="#98A2B3" stroke-width="1.5" stroke-linecap="round" stroke-linejoin="round"/>
</g>
<defs>
<clipPath id="clip0_1_9143">
<rect width="18" height="18" fill="white" transform="translate(0.695312 0.980469)"/>
</clipPath>
</defs>
</svg>
