<svg width="19" height="19" viewBox="0 0 19 19" fill="none" xmlns="http://www.w3.org/2000/svg">
<path d="M6.93945 9.23029L9.18945 11.4803L16.6895 3.98029M12.1895 3.23029H6.03945C4.77934 3.23029 4.14928 3.23029 3.66797 3.47552C3.24461 3.69124 2.9004 4.03544 2.68469 4.45881C2.43945 4.94011 2.43945 5.57017 2.43945 6.83029V13.1303C2.43945 14.3904 2.43945 15.0205 2.68469 15.5018C2.9004 15.9251 3.24461 16.2693 3.66797 16.4851C4.14928 16.7303 4.77934 16.7303 6.03945 16.7303H12.3395C13.5996 16.7303 14.2296 16.7303 14.7109 16.4851C15.1343 16.2693 15.4785 15.9251 15.6942 15.5018C15.9395 15.0205 15.9395 14.3904 15.9395 13.1303V9.98029" stroke="#98A2B3" stroke-width="1.5" stroke-linecap="round" stroke-linejoin="round"/>
</svg>
