<svg width="19" height="19" viewBox="0 0 19 19" fill="none" xmlns="http://www.w3.org/2000/svg">
<g clip-path="url(#clip0_1_9131)">
<path d="M12.1816 6.98022V4.88022C12.1816 4.04015 12.1816 3.62011 12.0182 3.29924C11.8743 3.017 11.6449 2.78752 11.3626 2.64371C11.0418 2.48022 10.6217 2.48022 9.78164 2.48022H4.08164C3.24156 2.48022 2.82152 2.48022 2.50065 2.64371C2.21841 2.78752 1.98894 3.017 1.84513 3.29924C1.68164 3.62011 1.68164 4.04015 1.68164 4.88022V10.5802C1.68164 11.4203 1.68164 11.8403 1.84513 12.1612C1.98894 12.4435 2.21841 12.6729 2.50065 12.8167C2.82152 12.9802 3.24156 12.9802 4.08164 12.9802H6.18164M9.18164 12.2302L10.6816 13.7302L14.0566 10.3552M8.58164 17.4802H14.2816C15.1217 17.4802 15.5418 17.4802 15.8626 17.3167C16.1449 17.1729 16.3743 16.9435 16.5182 16.6612C16.6816 16.3403 16.6816 15.9203 16.6816 15.0802V9.38023C16.6816 8.54015 16.6816 8.12011 16.5182 7.79924C16.3743 7.517 16.1449 7.28753 15.8626 7.14372C15.5418 6.98023 15.1217 6.98022 14.2816 6.98022H8.58164C7.74156 6.98022 7.32152 6.98023 7.00066 7.14372C6.71841 7.28753 6.48894 7.517 6.34513 7.79924C6.18164 8.12011 6.18164 8.54015 6.18164 9.38023V15.0802C6.18164 15.9203 6.18164 16.3403 6.34513 16.6612C6.48894 16.9435 6.71841 17.1729 7.00066 17.3167C7.32152 17.4802 7.74156 17.4802 8.58164 17.4802Z" stroke="#98A2B3" stroke-width="1.5" stroke-linecap="round" stroke-linejoin="round"/>
</g>
<defs>
<clipPath id="clip0_1_9131">
<rect width="18" height="18" fill="white" transform="translate(0.181641 0.980469)"/>
</clipPath>
</defs>
</svg>
