<svg width="19" height="19" viewBox="0 0 19 19" fill="none" xmlns="http://www.w3.org/2000/svg">
<path d="M7.43359 9.23029L8.93359 10.7303L12.3086 7.35529M9.67846 4.83215C8.17894 3.07909 5.6784 2.60752 3.79961 4.2128C1.92083 5.81807 1.65632 8.50202 3.13174 10.4006C4.24616 11.8346 7.41206 14.7135 8.8946 16.0365C9.16713 16.2796 9.3034 16.4012 9.46297 16.4491C9.60149 16.4907 9.75543 16.4907 9.89395 16.4491C10.0535 16.4012 10.1898 16.2796 10.4623 16.0365C11.9449 14.7135 15.1108 11.8346 16.2252 10.4006C17.7006 8.50202 17.4684 5.80119 15.5573 4.2128C13.6462 2.6244 11.178 3.07909 9.67846 4.83215Z" stroke="#98A2B3" stroke-width="1.5" stroke-linecap="round" stroke-linejoin="round"/>
</svg>
