<svg width="19" height="19" viewBox="0 0 19 19" fill="none" xmlns="http://www.w3.org/2000/svg">
<g clip-path="url(#clip0_1_9141)">
<path d="M6.94336 9.98023L8.44336 11.4802L11.8184 8.10523M13.6192 4.7291C13.7737 5.10262 14.0701 5.39952 14.4434 5.55453L15.7523 6.09671C16.1258 6.25144 16.4226 6.54822 16.5773 6.92177C16.732 7.29532 16.732 7.71503 16.5773 8.08858L16.0355 9.39658C15.8808 9.77029 15.8805 10.1904 16.036 10.564L16.5769 11.8716C16.6536 12.0566 16.6931 12.2549 16.6931 12.4552C16.6931 12.6555 16.6537 12.8538 16.5771 13.0388C16.5004 13.2239 16.3881 13.392 16.2464 13.5336C16.1048 13.6752 15.9366 13.7875 15.7516 13.8641L14.4436 14.4059C14.0701 14.5603 13.7732 14.8568 13.6182 15.2301L13.0761 16.539C12.9213 16.9125 12.6246 17.2093 12.251 17.3641C11.8775 17.5188 11.4578 17.5188 11.0843 17.3641L9.77632 16.8223C9.40278 16.6679 8.98323 16.6682 8.60992 16.8231L7.30103 17.3645C6.9277 17.5189 6.50837 17.5188 6.13514 17.3642C5.76191 17.2096 5.4653 16.9131 5.31047 16.54L4.76815 15.2307C4.61371 14.8571 4.31727 14.5603 3.944 14.4052L2.63511 13.8631C2.26174 13.7084 1.96505 13.4118 1.81027 13.0385C1.65549 12.6651 1.65528 12.2456 1.80969 11.8721L2.35146 10.5641C2.5058 10.1906 2.50548 9.77101 2.35058 9.39769L1.80959 8.08781C1.73289 7.9028 1.69339 7.70448 1.69336 7.5042C1.69333 7.30392 1.73276 7.10559 1.8094 6.92055C1.88604 6.73551 1.9984 6.56739 2.14004 6.42579C2.28168 6.28419 2.44983 6.17189 2.63488 6.0953L3.94283 5.55351C4.31601 5.3992 4.61272 5.10313 4.76784 4.73027L5.31 3.42133C5.46472 3.04778 5.76149 2.751 6.13503 2.59627C6.50856 2.44154 6.92826 2.44154 7.3018 2.59627L8.60974 3.13806C8.98329 3.29241 9.40284 3.29209 9.77615 3.13718L11.0856 2.59711C11.4591 2.44247 11.8787 2.4425 12.2521 2.5972C12.6256 2.7519 12.9223 3.0486 13.0771 3.42205L13.6194 4.73137L13.6192 4.7291Z" stroke="#98A2B3" stroke-width="1.5" stroke-linecap="round" stroke-linejoin="round"/>
</g>
<defs>
<clipPath id="clip0_1_9141">
<rect width="18" height="18" fill="white" transform="translate(0.193359 0.980469)"/>
</clipPath>
</defs>
</svg>
