<svg width="19" height="19" viewBox="0 0 19 19" fill="none" xmlns="http://www.w3.org/2000/svg">
<g clip-path="url(#clip0_1_9127)">
<path d="M16.6777 9.29452V9.98452C16.6768 11.6018 16.1531 13.1755 15.1847 14.4709C14.2164 15.7662 12.8552 16.7139 11.3043 17.1724C9.75331 17.631 8.09568 17.5759 6.57859 17.0155C5.0615 16.455 3.76623 15.4191 2.88595 14.0623C2.00568 12.7055 1.58758 11.1006 1.69399 9.48675C1.80041 7.87294 2.42564 6.33676 3.47644 5.10732C4.52725 3.87788 5.94732 3.02105 7.52488 2.66463C9.10243 2.3082 10.7529 2.47127 12.2302 3.12952M16.6777 3.98022L9.17773 11.4877L6.92773 9.23773" stroke="#98A2B3" stroke-width="1.5" stroke-linecap="round" stroke-linejoin="round"/>
</g>
<defs>
<clipPath id="clip0_1_9127">
<rect width="18" height="18" fill="white" transform="translate(0.177734 0.980469)"/>
</clipPath>
</defs>
</svg>
