<svg width="19" height="19" viewBox="0 0 19 19" fill="none" xmlns="http://www.w3.org/2000/svg">
<g clip-path="url(#clip0_1_10769)">
<path d="M16.6738 9.29018V9.98018C16.6729 11.5975 16.1492 13.1712 15.1808 14.4666C14.2125 15.7619 12.8513 16.7095 11.3003 17.1681C9.7494 17.6267 8.09177 17.5716 6.57468 17.0111C5.05759 16.4506 3.76232 15.4148 2.88205 14.058C2.00178 12.7012 1.58367 11.0962 1.69009 9.48242C1.7965 7.86861 2.42173 6.33243 3.47254 5.10299C4.52334 3.87355 5.94342 3.01672 7.52097 2.66029C9.09852 2.30387 10.749 2.46694 12.2263 3.12518M16.6738 3.98018L9.17383 11.4877L6.92383 9.23768" stroke="#98A2B3" stroke-width="1.5" stroke-linecap="round" stroke-linejoin="round"/>
</g>
<defs>
<clipPath id="clip0_1_10769">
<rect width="18" height="18" fill="white" transform="translate(0.173828 0.980469)"/>
</clipPath>
</defs>
</svg>
