<svg width="19" height="19" viewBox="0 0 19 19" fill="none" xmlns="http://www.w3.org/2000/svg">
<g clip-path="url(#clip0_1_9139)">
<path d="M7.44189 9.98023L8.9419 11.4802L12.3169 8.10523M6.19222 3.84425C6.7951 3.79614 7.36743 3.55907 7.82775 3.16679C8.90194 2.25137 10.4819 2.25137 11.556 3.16679C12.0164 3.55907 12.5887 3.79614 13.1916 3.84425C14.5984 3.95652 15.7156 5.07368 15.8279 6.48055C15.876 7.08343 16.1131 7.65576 16.5053 8.11608C17.4208 9.19027 17.4208 10.7702 16.5053 11.8444C16.1131 12.3047 15.876 12.877 15.8279 13.4799C15.7156 14.8868 14.5984 16.0039 13.1916 16.1162C12.5887 16.1643 12.0164 16.4014 11.556 16.7937C10.4819 17.7091 8.90194 17.7091 7.82775 16.7937C7.36743 16.4014 6.7951 16.1643 6.19222 16.1162C4.78535 16.0039 3.66818 14.8868 3.55592 13.4799C3.50781 12.877 3.27074 12.3047 2.87846 11.8444C1.96304 10.7702 1.96304 9.19027 2.87846 8.11608C3.27074 7.65576 3.50781 7.08343 3.55592 6.48055C3.66819 5.07368 4.78535 3.95652 6.19222 3.84425Z" stroke="#98A2B3" stroke-width="1.5" stroke-linecap="round" stroke-linejoin="round"/>
</g>
<defs>
<clipPath id="clip0_1_9139">
<rect width="18" height="18" fill="white" transform="translate(0.691895 0.980469)"/>
</clipPath>
</defs>
</svg>
