<svg width="19" height="19" viewBox="0 0 19 19" fill="none" xmlns="http://www.w3.org/2000/svg">
<g clip-path="url(#clip0_1_10827)">
<path d="M9.23242 6.98022C7.57557 6.98022 6.23242 8.32337 6.23242 9.98023C6.23242 11.6371 7.57557 12.9802 9.23242 12.9802C10.8893 12.9802 12.2324 11.6371 12.2324 9.98023C12.2324 8.32337 10.8893 6.98022 9.23242 6.98022ZM9.23242 6.98022H16.1099M3.19492 5.52522L6.63742 11.4802M8.39242 17.4352L11.8274 11.4802M16.7324 9.98023C16.7324 14.1224 13.3746 17.4802 9.23242 17.4802C5.09029 17.4802 1.73242 14.1224 1.73242 9.98023C1.73242 5.83809 5.09029 2.48022 9.23242 2.48022C13.3746 2.48022 16.7324 5.83809 16.7324 9.98023Z" stroke="#98A2B3" stroke-width="1.5" stroke-linecap="round" stroke-linejoin="round"/>
</g>
<defs>
<clipPath id="clip0_1_10827">
<rect width="18" height="18" fill="white" transform="translate(0.232422 0.980469)"/>
</clipPath>
</defs>
</svg>
