<svg width="19" height="19" viewBox="0 0 19 19" fill="none" xmlns="http://www.w3.org/2000/svg">
<path d="M2.23535 10.0178C3.75844 10.1872 5.17856 10.8698 6.26219 11.9535C7.34582 13.0371 8.02845 14.4572 8.19785 15.9803M2.23535 13.0553C2.95602 13.2023 3.61756 13.5579 4.13764 14.078C4.65772 14.5981 5.01338 15.2596 5.16035 15.9803M2.23535 15.9803H2.24285M11.2354 16.7303H13.6354C14.8955 16.7303 15.5255 16.7303 16.0068 16.4851C16.4302 16.2693 16.7744 15.9251 16.9901 15.5018C17.2354 15.0205 17.2354 14.3904 17.2354 13.1303V6.83029C17.2354 5.57017 17.2354 4.94011 16.9901 4.45881C16.7744 4.03544 16.4302 3.69124 16.0068 3.47552C15.5255 3.23029 14.8955 3.23029 13.6354 3.23029H5.83535C4.57523 3.23029 3.94517 3.23029 3.46387 3.47552C3.04051 3.69124 2.6963 4.03544 2.48059 4.45881C2.23535 4.94011 2.23535 5.57017 2.23535 6.83029V6.98029" stroke="#98A2B3" stroke-width="1.5" stroke-linecap="round" stroke-linejoin="round"/>
</svg>
