<svg width="19" height="19" viewBox="0 0 19 19" fill="none" xmlns="http://www.w3.org/2000/svg">
<path d="M7.49316 3.23029L6.74316 6.98029M12.7432 3.23029L11.9932 6.98029M17.2432 6.98029H2.24316M5.84316 16.7303H13.6432C14.9033 16.7303 15.5333 16.7303 16.0146 16.4851C16.438 16.2693 16.7822 15.9251 16.9979 15.5018C17.2432 15.0205 17.2432 14.3904 17.2432 13.1303V6.83029C17.2432 5.57017 17.2432 4.94011 16.9979 4.45881C16.7822 4.03544 16.438 3.69124 16.0146 3.47552C15.5333 3.23029 14.9033 3.23029 13.6432 3.23029H5.84316C4.58305 3.23029 3.95299 3.23029 3.47169 3.47552C3.04832 3.69124 2.70411 4.03544 2.4884 4.45881C2.24316 4.94011 2.24316 5.57017 2.24316 6.83029V13.1303C2.24316 14.3904 2.24316 15.0205 2.4884 15.5018C2.70411 15.9251 3.04832 16.2693 3.47169 16.4851C3.95299 16.7303 4.58305 16.7303 5.84316 16.7303Z" stroke="#98A2B3" stroke-width="1.5" stroke-linecap="round" stroke-linejoin="round"/>
</svg>
