<svg width="19" height="19" viewBox="0 0 19 19" fill="none" xmlns="http://www.w3.org/2000/svg">
<g clip-path="url(#clip0_1_10387)">
<path d="M12.2451 3.98022C12.9426 3.98022 13.2913 3.98022 13.5775 4.05689C14.3539 4.26494 14.9604 4.87143 15.1685 5.64788C15.2451 5.93401 15.2451 6.28275 15.2451 6.98022V13.8802C15.2451 15.1403 15.2451 15.7704 14.9999 16.2517C14.7842 16.6751 14.44 17.0193 14.0166 17.235C13.5353 17.4802 12.9052 17.4802 11.6451 17.4802H6.84512C5.585 17.4802 4.95494 17.4802 4.47364 17.235C4.05027 17.0193 3.70607 16.6751 3.49035 16.2517C3.24512 15.7704 3.24512 15.1403 3.24512 13.8802V6.98022C3.24512 6.28275 3.24512 5.93401 3.32178 5.64788C3.52984 4.87143 4.13632 4.26494 4.91277 4.05689C5.1989 3.98022 5.54764 3.98022 6.24512 3.98022M7.44512 5.48022H11.0451C11.4652 5.48022 11.6752 5.48022 11.8356 5.39848C11.9767 5.32657 12.0915 5.21184 12.1634 5.07072C12.2451 4.91028 12.2451 4.70026 12.2451 4.28022V3.68022C12.2451 3.26019 12.2451 3.05017 12.1634 2.88973C12.0915 2.74861 11.9767 2.63387 11.8356 2.56197C11.6752 2.48022 11.4652 2.48022 11.0451 2.48022H7.44512C7.02508 2.48022 6.81506 2.48022 6.65462 2.56197C6.5135 2.63387 6.39877 2.74861 6.32686 2.88973C6.24512 3.05017 6.24512 3.26019 6.24512 3.68022V4.28022C6.24512 4.70026 6.24512 4.91028 6.32686 5.07072C6.39877 5.21184 6.5135 5.32657 6.65462 5.39848C6.81506 5.48022 7.02508 5.48022 7.44512 5.48022Z" stroke="#98A2B3" stroke-width="1.5" stroke-linecap="round" stroke-linejoin="round"/>
</g>
<defs>
<clipPath id="clip0_1_10387">
<rect width="18" height="18" fill="white" transform="translate(0.245117 0.980469)"/>
</clipPath>
</defs>
</svg>
