<svg width="19" height="19" viewBox="0 0 19 19" fill="none" xmlns="http://www.w3.org/2000/svg">
<g clip-path="url(#clip0_1_10393)">
<path d="M12.751 3.98022C13.4485 3.98022 13.7972 3.98022 14.0833 4.05689C14.8598 4.26494 15.4663 4.87143 15.6743 5.64788C15.751 5.93401 15.751 6.28275 15.751 6.98022V13.8802C15.751 15.1403 15.751 15.7704 15.5057 16.2517C15.29 16.6751 14.9458 17.0193 14.5225 17.235C14.0412 17.4802 13.4111 17.4802 12.151 17.4802H7.35098C6.09086 17.4802 5.4608 17.4802 4.9795 17.235C4.55613 17.0193 4.21193 16.6751 3.99621 16.2517C3.75098 15.7704 3.75098 15.1403 3.75098 13.8802V6.98022C3.75098 6.28275 3.75098 5.93401 3.82764 5.64788C4.03569 4.87143 4.64218 4.26494 5.41863 4.05689C5.70476 3.98022 6.0535 3.98022 6.75098 3.98022M7.50098 12.2302L9.00098 13.7302L12.376 10.3552M7.95098 5.48022H11.551C11.971 5.48022 12.181 5.48022 12.3415 5.39848C12.4826 5.32657 12.5973 5.21184 12.6692 5.07072C12.751 4.91028 12.751 4.70026 12.751 4.28022V3.68022C12.751 3.26019 12.751 3.05017 12.6692 2.88973C12.5973 2.74861 12.4826 2.63387 12.3415 2.56197C12.181 2.48022 11.971 2.48022 11.551 2.48022H7.95098C7.53094 2.48022 7.32092 2.48022 7.16048 2.56197C7.01936 2.63387 6.90463 2.74861 6.83272 2.88973C6.75098 3.05017 6.75098 3.26019 6.75098 3.68022V4.28022C6.75098 4.70026 6.75098 4.91028 6.83272 5.07072C6.90463 5.21184 7.01936 5.32657 7.16048 5.39848C7.32092 5.48022 7.53094 5.48022 7.95098 5.48022Z" stroke="#98A2B3" stroke-width="1.5" stroke-linecap="round" stroke-linejoin="round"/>
</g>
<defs>
<clipPath id="clip0_1_10393">
<rect width="18" height="18" fill="white" transform="translate(0.750977 0.980469)"/>
</clipPath>
</defs>
</svg>
