<svg width="19" height="19" viewBox="0 0 19 19" fill="none" xmlns="http://www.w3.org/2000/svg">
<g clip-path="url(#clip0_1_10395)">
<path d="M12.7588 3.98022C13.4563 3.98022 13.805 3.98022 14.0911 4.05689C14.8676 4.26494 15.4741 4.87143 15.6821 5.64788C15.7588 5.93401 15.7588 6.28275 15.7588 6.98022V13.8802C15.7588 15.1403 15.7588 15.7704 15.5136 16.2517C15.2978 16.6751 14.9536 17.0193 14.5303 17.235C14.049 17.4802 13.4189 17.4802 12.1588 17.4802H7.35879C6.09867 17.4802 5.46861 17.4802 4.98731 17.235C4.56395 17.0193 4.21974 16.6751 4.00402 16.2517C3.75879 15.7704 3.75879 15.1403 3.75879 13.8802V6.98022C3.75879 6.28275 3.75879 5.93401 3.83546 5.64788C4.04351 4.87143 4.64999 4.26494 5.42645 4.05689C5.71257 3.98022 6.06131 3.98022 6.75879 3.98022M7.88379 9.98023L11.6338 13.7302M11.6338 9.98023L7.88379 13.7302M7.95879 5.48022H11.5588C11.9788 5.48022 12.1888 5.48022 12.3493 5.39848C12.4904 5.32657 12.6051 5.21184 12.677 5.07072C12.7588 4.91028 12.7588 4.70026 12.7588 4.28022V3.68022C12.7588 3.26019 12.7588 3.05017 12.677 2.88973C12.6051 2.74861 12.4904 2.63387 12.3493 2.56197C12.1888 2.48022 11.9788 2.48022 11.5588 2.48022H7.95879C7.53875 2.48022 7.32873 2.48022 7.1683 2.56197C7.02717 2.63387 6.91244 2.74861 6.84053 2.88973C6.75879 3.05017 6.75879 3.26019 6.75879 3.68022V4.28022C6.75879 4.70026 6.75879 4.91028 6.84053 5.07072C6.91244 5.21184 7.02717 5.32657 7.1683 5.39848C7.32873 5.48022 7.53875 5.48022 7.95879 5.48022Z" stroke="#98A2B3" stroke-width="1.5" stroke-linecap="round" stroke-linejoin="round"/>
</g>
<defs>
<clipPath id="clip0_1_10395">
<rect width="18" height="18" fill="white" transform="translate(0.758789 0.980469)"/>
</clipPath>
</defs>
</svg>
