<svg width="19" height="19" viewBox="0 0 19 19" fill="none" xmlns="http://www.w3.org/2000/svg">
<g clip-path="url(#clip0_1_10941)">
<path d="M12.7471 3.98022H14.2471C14.6449 3.98022 15.0264 4.13826 15.3077 4.41956C15.589 4.70087 15.7471 5.0824 15.7471 5.48022V15.9802C15.7471 16.3781 15.589 16.7596 15.3077 17.0409C15.0264 17.3222 14.6449 17.4802 14.2471 17.4802H5.24707C4.84925 17.4802 4.46771 17.3222 4.18641 17.0409C3.90511 16.7596 3.74707 16.3781 3.74707 15.9802V5.48022C3.74707 5.0824 3.90511 4.70087 4.18641 4.41956C4.46771 4.13826 4.84925 3.98022 5.24707 3.98022H6.74707M7.49707 2.48022H11.9971C12.4113 2.48022 12.7471 2.81601 12.7471 3.23022V4.73022C12.7471 5.14444 12.4113 5.48022 11.9971 5.48022H7.49707C7.08286 5.48022 6.74707 5.14444 6.74707 4.73022V3.23022C6.74707 2.81601 7.08286 2.48022 7.49707 2.48022Z" stroke="#98A2B3" stroke-width="1.5" stroke-linecap="round" stroke-linejoin="round"/>
</g>
<defs>
<clipPath id="clip0_1_10941">
<rect width="18" height="18" fill="white" transform="translate(0.74707 0.980469)"/>
</clipPath>
</defs>
</svg>
