<svg width="19" height="19" viewBox="0 0 19 19" fill="none" xmlns="http://www.w3.org/2000/svg">
<g clip-path="url(#clip0_1_10399)">
<path d="M12.7549 3.98022C13.4524 3.98022 13.8011 3.98022 14.0872 4.05689C14.8637 4.26494 15.4702 4.87143 15.6782 5.64788C15.7549 5.93401 15.7549 6.28275 15.7549 6.98022V13.8802C15.7549 15.1403 15.7549 15.7704 15.5096 16.2517C15.2939 16.6751 14.9497 17.0193 14.5264 17.235C14.0451 17.4802 13.415 17.4802 12.1549 17.4802H7.35488C6.09476 17.4802 5.46471 17.4802 4.9834 17.235C4.56004 17.0193 4.21583 16.6751 4.00012 16.2517C3.75488 15.7704 3.75488 15.1403 3.75488 13.8802V6.98022C3.75488 6.28275 3.75488 5.93401 3.83155 5.64788C4.0396 4.87143 4.64608 4.26494 5.42254 4.05689C5.70866 3.98022 6.0574 3.98022 6.75488 3.98022M7.50488 11.4802H12.0049M7.95488 5.48022H11.5549C11.9749 5.48022 12.1849 5.48022 12.3454 5.39848C12.4865 5.32657 12.6012 5.21184 12.6731 5.07072C12.7549 4.91028 12.7549 4.70026 12.7549 4.28022V3.68022C12.7549 3.26019 12.7549 3.05017 12.6731 2.88973C12.6012 2.74861 12.4865 2.63387 12.3454 2.56197C12.1849 2.48022 11.9749 2.48022 11.5549 2.48022H7.95488C7.53484 2.48022 7.32482 2.48022 7.16439 2.56197C7.02327 2.63387 6.90853 2.74861 6.83663 2.88973C6.75488 3.05017 6.75488 3.26019 6.75488 3.68022V4.28022C6.75488 4.70026 6.75488 4.91028 6.83663 5.07072C6.90853 5.21184 7.02327 5.32657 7.16439 5.39848C7.32482 5.48022 7.53484 5.48022 7.95488 5.48022Z" stroke="#98A2B3" stroke-width="1.5" stroke-linecap="round" stroke-linejoin="round"/>
</g>
<defs>
<clipPath id="clip0_1_10399">
<rect width="18" height="18" fill="white" transform="translate(0.754883 0.980469)"/>
</clipPath>
</defs>
</svg>
