<svg width="19" height="19" viewBox="0 0 19 19" fill="none" xmlns="http://www.w3.org/2000/svg">
<g clip-path="url(#clip0_1_10397)">
<path d="M12.2568 3.98022C12.9543 3.98022 13.3031 3.98022 13.5892 4.05689C14.3656 4.26494 14.9721 4.87143 15.1802 5.64788C15.2568 5.93401 15.2568 6.28275 15.2568 6.98022V13.8802C15.2568 15.1403 15.2568 15.7704 15.0116 16.2517C14.7959 16.6751 14.4517 17.0193 14.0283 17.235C13.547 17.4802 12.917 17.4802 11.6568 17.4802H6.85684C5.59672 17.4802 4.96666 17.4802 4.48536 17.235C4.06199 17.0193 3.71779 16.6751 3.50207 16.2517C3.25684 15.7704 3.25684 15.1403 3.25684 13.8802V6.98022C3.25684 6.28275 3.25684 5.93401 3.3335 5.64788C3.54155 4.87143 4.14804 4.26494 4.92449 4.05689C5.21062 3.98022 5.55936 3.98022 6.25684 3.98022M9.25684 13.7302V9.23023M7.00684 11.4802H11.5068M7.45684 5.48022H11.0568C11.4769 5.48022 11.6869 5.48022 11.8473 5.39848C11.9885 5.32657 12.1032 5.21184 12.1751 5.07072C12.2568 4.91028 12.2568 4.70026 12.2568 4.28022V3.68022C12.2568 3.26019 12.2568 3.05017 12.1751 2.88973C12.1032 2.74861 11.9885 2.63387 11.8473 2.56197C11.6869 2.48022 11.4769 2.48022 11.0568 2.48022H7.45684C7.0368 2.48022 6.82678 2.48022 6.66634 2.56197C6.52522 2.63387 6.41049 2.74861 6.33858 2.88973C6.25684 3.05017 6.25684 3.26019 6.25684 3.68022V4.28022C6.25684 4.70026 6.25684 4.91028 6.33858 5.07072C6.41049 5.21184 6.52522 5.32657 6.66634 5.39848C6.82678 5.48022 7.0368 5.48022 7.45684 5.48022Z" stroke="#98A2B3" stroke-width="1.5" stroke-linecap="round" stroke-linejoin="round"/>
</g>
<defs>
<clipPath id="clip0_1_10397">
<rect width="18" height="18" fill="white" transform="translate(0.256836 0.980469)"/>
</clipPath>
</defs>
</svg>
