<svg width="19" height="19" viewBox="0 0 19 19" fill="none" xmlns="http://www.w3.org/2000/svg">
<g clip-path="url(#clip0_1_10389)">
<path d="M12.249 3.98022C12.9465 3.98022 13.2952 3.98022 13.5814 4.05689C14.3578 4.26494 14.9643 4.87143 15.1724 5.64788C15.249 5.93401 15.249 6.28275 15.249 6.98022V13.8802C15.249 15.1403 15.249 15.7704 15.0038 16.2517C14.7881 16.6751 14.4439 17.0193 14.0205 17.235C13.5392 17.4802 12.9091 17.4802 11.649 17.4802H6.84902C5.58891 17.4802 4.95885 17.4802 4.47754 17.235C4.05418 17.0193 3.70997 16.6751 3.49426 16.2517C3.24902 15.7704 3.24902 15.1403 3.24902 13.8802V6.98022C3.24902 6.28275 3.24902 5.93401 3.32569 5.64788C3.53374 4.87143 4.14022 4.26494 4.91668 4.05689C5.20281 3.98022 5.55154 3.98022 6.24902 3.98022M9.24902 12.6052V9.23023C9.24902 8.6089 9.7527 8.10523 10.374 8.10523C10.9953 8.10523 11.499 8.6089 11.499 9.23023V12.6052C11.499 13.8479 10.4917 14.8552 9.24902 14.8552C8.00638 14.8552 6.99902 13.8479 6.99902 12.6052V9.60523M7.44902 5.48022H11.049C11.4691 5.48022 11.6791 5.48022 11.8395 5.39848C11.9806 5.32657 12.0954 5.21184 12.1673 5.07072C12.249 4.91028 12.249 4.70026 12.249 4.28022V3.68022C12.249 3.26019 12.249 3.05017 12.1673 2.88973C12.0954 2.74861 11.9806 2.63387 11.8395 2.56197C11.6791 2.48022 11.4691 2.48022 11.049 2.48022H7.44902C7.02898 2.48022 6.81896 2.48022 6.65853 2.56197C6.51741 2.63387 6.40267 2.74861 6.33077 2.88973C6.24902 3.05017 6.24902 3.26019 6.24902 3.68022V4.28022C6.24902 4.70026 6.24902 4.91028 6.33077 5.07072C6.40267 5.21184 6.51741 5.32657 6.65853 5.39848C6.81896 5.48022 7.02898 5.48022 7.44902 5.48022Z" stroke="#98A2B3" stroke-width="1.5" stroke-linecap="round" stroke-linejoin="round"/>
</g>
<defs>
<clipPath id="clip0_1_10389">
<rect width="18" height="18" fill="white" transform="translate(0.249023 0.980469)"/>
</clipPath>
</defs>
</svg>
