<svg width="19" height="19" viewBox="0 0 19 19" fill="none" xmlns="http://www.w3.org/2000/svg">
<g clip-path="url(#clip0_1_10391)">
<path d="M9.25293 9.23023V13.7302M9.25293 13.7302L7.00293 11.4802M9.25293 13.7302L11.5029 11.4802M12.2529 3.98022C12.9504 3.98022 13.2991 3.98022 13.5853 4.05689C14.3617 4.26494 14.9682 4.87143 15.1763 5.64788C15.2529 5.93401 15.2529 6.28275 15.2529 6.98022V13.8802C15.2529 15.1403 15.2529 15.7704 15.0077 16.2517C14.792 16.6751 14.4478 17.0193 14.0244 17.235C13.5431 17.4802 12.913 17.4802 11.6529 17.4802H6.85293C5.59281 17.4802 4.96275 17.4802 4.48145 17.235C4.05809 17.0193 3.71388 16.6751 3.49817 16.2517C3.25293 15.7704 3.25293 15.1403 3.25293 13.8802V6.98022C3.25293 6.28275 3.25293 5.93401 3.3296 5.64788C3.53765 4.87143 4.14413 4.26494 4.92059 4.05689C5.20671 3.98022 5.55545 3.98022 6.25293 3.98022M7.45293 5.48022H11.0529C11.473 5.48022 11.683 5.48022 11.8434 5.39848C11.9845 5.32657 12.0993 5.21184 12.1712 5.07072C12.2529 4.91028 12.2529 4.70026 12.2529 4.28022V3.68022C12.2529 3.26019 12.2529 3.05017 12.1712 2.88973C12.0993 2.74861 11.9845 2.63387 11.8434 2.56197C11.683 2.48022 11.473 2.48022 11.0529 2.48022H7.45293C7.03289 2.48022 6.82287 2.48022 6.66244 2.56197C6.52132 2.63387 6.40658 2.74861 6.33468 2.88973C6.25293 3.05017 6.25293 3.26019 6.25293 3.68022V4.28022C6.25293 4.70026 6.25293 4.91028 6.33468 5.07072C6.40658 5.21184 6.52132 5.32657 6.66244 5.39848C6.82287 5.48022 7.03289 5.48022 7.45293 5.48022Z" stroke="#98A2B3" stroke-width="1.5" stroke-linecap="round" stroke-linejoin="round"/>
</g>
<defs>
<clipPath id="clip0_1_10391">
<rect width="18" height="18" fill="white" transform="translate(0.25293 0.980469)"/>
</clipPath>
</defs>
</svg>
