<svg width="19" height="19" viewBox="0 0 19 19" fill="none" xmlns="http://www.w3.org/2000/svg">
<g clip-path="url(#clip0_1_10659)">
<path d="M12.0791 10.2323V16.2323M6.07913 10.2323V16.2323M9.07913 11.7323V17.7323M15.0791 12.9173C15.8676 12.572 16.5132 11.966 16.9077 11.201C17.3022 10.436 17.4215 9.55854 17.2456 8.71597C17.0697 7.8734 16.6093 7.11699 15.9417 6.57371C15.274 6.03042 14.4399 5.73334 13.5791 5.73233H12.6341C12.3964 4.81172 11.9433 3.96079 11.3121 3.24968C10.681 2.53857 9.88983 1.98764 9.00395 1.6423C8.11807 1.29695 7.16281 1.16709 6.21689 1.26341C5.27097 1.35973 4.36148 1.67948 3.5634 2.19629C2.76531 2.71311 2.10147 3.41219 1.6266 4.23593C1.15174 5.05966 0.879431 5.98446 0.832135 6.93409C0.78484 7.88373 0.963908 8.831 1.35458 9.69785C1.74525 10.5647 2.33634 11.3263 3.07913 11.9198" stroke="#98A2B3" stroke-width="1.5" stroke-linecap="round" stroke-linejoin="round"/>
</g>
<defs>
<clipPath id="clip0_1_10659">
<rect width="18" height="18" fill="white" transform="translate(0.0795898 0.4823)"/>
</clipPath>
</defs>
</svg>
