<svg width="19" height="19" viewBox="0 0 19 19" fill="none" xmlns="http://www.w3.org/2000/svg">
<path d="M6.59766 13.9822H6.60516M6.59766 16.2322H6.60516M9.59766 14.3572H9.60516M9.59766 16.6072H9.60516M12.5977 13.9822H12.6052M12.5977 16.2322H12.6052M5.84766 11.7322C3.77659 11.7322 2.09766 10.0533 2.09766 7.98224C2.09766 5.91117 3.77659 4.23224 5.84766 4.23224C5.87252 4.23224 5.89732 4.23248 5.92207 4.23296C6.6047 2.89694 7.99436 1.98224 9.59766 1.98224C11.4871 1.98224 13.0798 3.25255 13.5684 4.98571C13.6195 4.98341 13.6709 4.98224 13.7227 4.98224C15.5866 4.98224 17.0977 6.49328 17.0977 8.35724C17.0977 10.2212 15.5866 11.7322 13.7227 11.7322C10.9052 11.7322 9.02407 11.7322 5.84766 11.7322Z" stroke="#98A2B3" stroke-width="1.5" stroke-linecap="round" stroke-linejoin="round"/>
</svg>
