<svg width="19" height="19" viewBox="0 0 19 19" fill="none" xmlns="http://www.w3.org/2000/svg">
<g clip-path="url(#clip0_1_11053)">
<path d="M6.78958 15.2302V16.7302M6.78958 10.7302V12.2302M12.7896 15.2302V16.7302M12.7896 10.7302V12.2302M9.78958 16.7302V18.2302M9.78958 12.2302V13.7302M15.7896 13.4152C16.578 13.0699 17.2237 12.4639 17.6181 11.6988C18.0126 10.9338 18.1319 10.0564 17.956 9.21383C17.7801 8.37126 17.3197 7.61485 16.6521 7.07157C15.9845 6.52829 15.1503 6.23121 14.2896 6.23019H13.3446C13.1068 5.30958 12.6537 4.45865 12.0226 3.74754C11.3914 3.03643 10.6003 2.4855 9.7144 2.14016C8.82852 1.79482 7.87326 1.66496 6.92734 1.76128C5.98142 1.8576 5.07193 2.17734 4.27385 2.69416C3.47576 3.21097 2.81192 3.91006 2.33705 4.73379C1.86218 5.55753 1.58988 6.48232 1.54258 7.43196C1.49529 8.38159 1.67436 9.32887 2.06503 10.1957C2.4557 11.0626 3.04679 11.8241 3.78958 12.4177" stroke="#98A2B3" stroke-width="1.5" stroke-linecap="round" stroke-linejoin="round"/>
</g>
<defs>
<clipPath id="clip0_1_11053">
<rect width="18" height="18" fill="white" transform="translate(0.790039 0.980469)"/>
</clipPath>
</defs>
</svg>
