<svg width="19" height="19" viewBox="0 0 19 19" fill="none" xmlns="http://www.w3.org/2000/svg">
<g clip-path="url(#clip0_1_10515)">
<path d="M9.84131 16.2322H4.59131M14.3413 13.9822H7.59131M5.34131 13.9822H3.84131M13.5913 16.2322H12.0913M5.34131 11.7322C3.27024 11.7322 1.59131 10.0533 1.59131 7.98224C1.59131 5.91117 3.27024 4.23224 5.34131 4.23224C5.36617 4.23224 5.39097 4.23248 5.41572 4.23296C6.09836 2.89694 7.48801 1.98224 9.09131 1.98224C10.9807 1.98224 12.5735 3.25255 13.062 4.98571C13.1132 4.9834 13.1646 4.98224 13.2163 4.98224C15.0803 4.98224 16.5913 6.49328 16.5913 8.35724C16.5913 10.2212 15.0803 11.7322 13.2163 11.7322C10.3989 11.7322 8.51772 11.7322 5.34131 11.7322Z" stroke="#98A2B3" stroke-width="1.5" stroke-linecap="round" stroke-linejoin="round"/>
</g>
<defs>
<clipPath id="clip0_1_10515">
<rect width="18" height="18" fill="white" transform="translate(0.0913086 0.4823)"/>
</clipPath>
</defs>
</svg>
