<svg width="19" height="19" viewBox="0 0 19 19" fill="none" xmlns="http://www.w3.org/2000/svg">
<g clip-path="url(#clip0_1_10607)">
<path d="M17.0327 13.1948C17.2743 12.6243 17.3708 12.0028 17.3136 11.3858C17.2564 10.7689 17.0471 10.1758 16.7047 9.65944C16.3622 9.14312 15.8971 8.7197 15.351 8.42703C14.8049 8.13436 14.1948 7.98157 13.5752 7.9823H12.6302C12.324 6.77667 11.6507 5.69599 10.7035 4.88979C9.75619 4.0836 8.58176 3.59175 7.34269 3.4823M3.82519 4.2323C2.65375 4.88003 1.73255 5.90089 1.20813 7.13248C0.683714 8.36407 0.586203 9.73566 0.931109 11.0291C1.27601 12.3225 2.04353 13.4634 3.11155 14.2703C4.17958 15.0772 5.48677 15.5039 6.82519 15.4823H13.5752C14.01 15.4818 14.4414 15.4057 14.8502 15.2573M0.825189 1.2323L17.3252 17.7323" stroke="#98A2B3" stroke-width="1.5" stroke-linecap="round" stroke-linejoin="round"/>
</g>
<defs>
<clipPath id="clip0_1_10607">
<rect width="18" height="18" fill="white" transform="translate(0.0756836 0.4823)"/>
</clipPath>
</defs>
</svg>
