<svg width="19" height="19" viewBox="0 0 19 19" fill="none" xmlns="http://www.w3.org/2000/svg">
<g clip-path="url(#clip0_1_10717)">
<path d="M15.5928 13.6673C16.3812 13.322 17.0269 12.7159 17.4214 11.9509C17.8158 11.1859 17.9351 10.3085 17.7592 9.46591C17.5833 8.62334 17.1229 7.86693 16.4553 7.32364C15.7877 6.78036 14.9535 6.48328 14.0928 6.48227H13.1478C12.9101 5.56166 12.4569 4.71073 11.8258 3.99962C11.1946 3.28851 10.4035 2.73758 9.51762 2.39223C8.63175 2.04689 7.67648 1.91703 6.73056 2.01335C5.78464 2.10967 4.87516 2.42942 4.07707 2.94623C3.27898 3.46304 2.61515 4.16213 2.14028 4.98587C1.66541 5.8096 1.3931 6.7344 1.34581 7.68403C1.29851 8.63366 1.47758 9.58094 1.86825 10.4478C2.25892 11.3146 2.85001 12.0762 3.5928 12.6698M6.5928 12.4823H6.6003M6.5928 15.4823H6.6003M9.5928 13.9823H9.6003M9.5928 16.9823H9.6003M12.5928 12.4823H12.6003M12.5928 15.4823H12.6003" stroke="#98A2B3" stroke-width="1.5" stroke-linecap="round" stroke-linejoin="round"/>
</g>
<defs>
<clipPath id="clip0_1_10717">
<rect width="18" height="18" fill="white" transform="translate(0.59375 0.4823)"/>
</clipPath>
</defs>
</svg>
