<svg width="19" height="19" viewBox="0 0 19 19" fill="none" xmlns="http://www.w3.org/2000/svg">
<g clip-path="url(#clip0_1_11109)">
<path d="M14.3212 13.1573C15.2326 12.9723 16.0427 12.4552 16.5943 11.7064C17.1458 10.9577 17.3995 10.0307 17.306 9.10547C17.2126 8.18021 16.7786 7.32269 16.0885 6.69937C15.3983 6.07605 14.5012 5.73141 13.5712 5.73234H12.6262C12.3778 4.77033 11.8943 3.88508 11.2192 3.15608C10.5441 2.42708 9.69849 1.87714 8.75836 1.55564C7.81823 1.23414 6.81297 1.15114 5.83284 1.3141C4.85271 1.47705 3.92839 1.88086 3.14287 2.48927C2.35735 3.09768 1.73521 3.89164 1.33231 4.79988C0.929421 5.70811 0.758382 6.70218 0.834554 7.69284C0.910726 8.68349 1.23172 9.63973 1.76873 10.4757C2.30574 11.3117 3.04194 12.0012 3.91124 12.4823M9.82124 8.73234L6.82124 13.2323H11.3212L8.32124 17.7323" stroke="#98A2B3" stroke-width="1.5" stroke-linecap="round" stroke-linejoin="round"/>
</g>
<defs>
<clipPath id="clip0_1_11109">
<rect width="18" height="18" fill="white" transform="translate(0.0712891 0.4823)"/>
</clipPath>
</defs>
</svg>
