<svg width="19" height="19" viewBox="0 0 19 19" fill="none" xmlns="http://www.w3.org/2000/svg">
<path d="M12.5894 14.3572L11.8394 16.2322M6.58936 14.3572L5.83936 16.2322M9.58936 14.3572L8.83936 16.2322M5.83936 11.7322C3.76829 11.7322 2.08936 10.0533 2.08936 7.98224C2.08936 5.91117 3.76829 4.23224 5.83936 4.23224C5.86422 4.23224 5.88902 4.23248 5.91377 4.23296C6.5964 2.89694 7.98606 1.98224 9.58936 1.98224C11.4788 1.98224 13.0715 3.25255 13.5601 4.98571C13.6112 4.9834 13.6626 4.98224 13.7144 4.98224C15.5783 4.98224 17.0894 6.49328 17.0894 8.35724C17.0894 10.2212 15.5783 11.7322 13.7144 11.7322C10.8969 11.7322 9.01576 11.7322 5.83936 11.7322Z" stroke="#98A2B3" stroke-width="1.5" stroke-linecap="round" stroke-linejoin="round"/>
</svg>
