<svg width="19" height="19" viewBox="0 0 19 19" fill="none" xmlns="http://www.w3.org/2000/svg">
<g clip-path="url(#clip0_1_10523)">
<path d="M8.47656 1.60724V2.80724M3.30156 7.98224H2.10156M4.68996 4.19577L3.84143 3.34724M12.2639 4.19577L13.1124 3.34724M14.8516 7.98224H13.6516M5.47662 7.9823C5.47662 6.32544 6.81976 4.98229 8.47662 4.98229C9.60613 4.98229 10.5898 5.60651 11.1016 6.52878M5.10156 16.9822C3.44471 16.9822 2.10156 15.6391 2.10156 13.9822C2.10156 12.3254 3.44471 10.9822 5.10156 10.9822C5.4497 10.9822 5.78399 11.0415 6.09488 11.1506C6.63202 9.73691 7.99946 8.73224 9.60156 8.73224C11.2037 8.73224 12.5711 9.73691 13.1082 11.1506C13.4191 11.0415 13.7534 10.9822 14.1016 10.9822C15.7584 10.9822 17.1016 12.3254 17.1016 13.9822C17.1016 15.6391 15.7584 16.9822 14.1016 16.9822C10.6213 16.9822 8.01097 16.9822 5.10156 16.9822Z" stroke="#98A2B3" stroke-width="1.5" stroke-linecap="round" stroke-linejoin="round"/>
</g>
<defs>
<clipPath id="clip0_1_10523">
<rect width="18" height="18" fill="white" transform="translate(0.600586 0.4823)"/>
</clipPath>
</defs>
</svg>
