<svg width="19" height="19" viewBox="0 0 19 19" fill="none" xmlns="http://www.w3.org/2000/svg">
<g clip-path="url(#clip0_1_10773)">
<path d="M14.2779 8.48022H13.3329C13.0523 7.39347 12.4725 6.40722 11.6594 5.63352C10.8463 4.85983 9.83245 4.32972 8.73311 4.10343C7.63376 3.87715 6.49299 3.96375 5.44041 4.35342C4.38782 4.74308 3.46565 5.42018 2.77865 6.30776C2.09166 7.19535 1.66741 8.25783 1.5541 9.37449C1.44078 10.4911 1.64296 11.6172 2.13765 12.6247C2.63234 13.6322 3.3997 14.4807 4.35255 15.0739C5.3054 15.6671 6.40552 15.9811 7.52792 15.9802H14.2779C15.2725 15.9802 16.2263 15.5851 16.9296 14.8819C17.6328 14.1786 18.0279 13.2248 18.0279 12.2302C18.0279 11.2357 17.6328 10.2818 16.9296 9.57857C16.2263 8.87531 15.2725 8.48022 14.2779 8.48022Z" stroke="#98A2B3" stroke-width="1.5" stroke-linecap="round" stroke-linejoin="round"/>
</g>
<defs>
<clipPath id="clip0_1_10773">
<rect width="18" height="18" fill="white" transform="translate(0.77832 0.980469)"/>
</clipPath>
</defs>
</svg>
