<svg width="19" height="19" viewBox="0 0 19 19" fill="none" xmlns="http://www.w3.org/2000/svg">
<g clip-path="url(#clip0_1_10525)">
<path d="M2.46555 8.73224C2.39176 8.36874 2.35303 7.99251 2.35303 7.60724C2.35303 4.50064 4.87143 1.98224 7.97803 1.98224C10.8303 1.98224 13.1868 4.10522 13.5535 6.85724M4.60303 16.9822C2.94617 16.9822 1.60303 15.6391 1.60303 13.9822C1.60303 12.3254 2.94617 10.9822 4.60303 10.9822C4.68802 10.9822 4.7722 10.9858 4.8554 10.9927C5.47019 9.23945 7.13979 7.98224 9.10303 7.98224C10.7716 7.98224 12.2282 8.89043 13.0052 10.2395C13.0788 10.2347 13.1532 10.2322 13.228 10.2322C15.092 10.2322 16.603 11.7433 16.603 13.6072C16.603 15.4712 15.092 16.9822 13.228 16.9822C10.4255 16.9822 7.64396 16.9822 4.60303 16.9822Z" stroke="#98A2B3" stroke-width="1.5" stroke-linecap="round" stroke-linejoin="round"/>
</g>
<defs>
<clipPath id="clip0_1_10525">
<rect width="18" height="18" fill="white" transform="translate(0.103027 0.4823)"/>
</clipPath>
</defs>
</svg>
