<svg width="19" height="19" viewBox="0 0 19 19" fill="none" xmlns="http://www.w3.org/2000/svg">
<g clip-path="url(#clip0_1_10511)">
<path d="M12.0869 14.3572V16.2322M6.08691 14.3572V16.2322M9.08691 15.1072V16.9822M5.33691 11.7322C3.26585 11.7322 1.58691 10.0533 1.58691 7.98224C1.58691 5.91117 3.26585 4.23224 5.33691 4.23224C5.36178 4.23224 5.38658 4.23248 5.41133 4.23296C6.09396 2.89694 7.48362 1.98224 9.08691 1.98224C10.9763 1.98224 12.5691 3.25255 13.0576 4.98571C13.1088 4.9834 13.1602 4.98224 13.2119 4.98224C15.0759 4.98224 16.5869 6.49328 16.5869 8.35724C16.5869 10.2212 15.0759 11.7322 13.2119 11.7322C10.3945 11.7322 8.51332 11.7322 5.33691 11.7322Z" stroke="#98A2B3" stroke-width="1.5" stroke-linecap="round" stroke-linejoin="round"/>
</g>
<defs>
<clipPath id="clip0_1_10511">
<rect width="18" height="18" fill="white" transform="translate(0.0874023 0.4823)"/>
</clipPath>
</defs>
</svg>
