<svg width="19" height="19" viewBox="0 0 19 19" fill="none" xmlns="http://www.w3.org/2000/svg">
<path d="M12.9487 10.2323C14.8813 10.2323 16.5035 8.90329 16.9512 7.10933C16.6303 7.18945 16.2945 7.23198 15.9487 7.23198C13.6706 7.23198 11.8237 5.38516 11.8237 3.10698C11.8237 2.76141 11.8662 2.42576 11.9463 2.10498C10.1525 2.55281 8.82373 4.17489 8.82373 6.10733C8.82373 6.79187 8.99047 7.43746 9.28556 8.00571M4.32373 5.7323V2.7323M2.82373 4.2323H5.82373M5.07373 16.9823C3.41688 16.9823 2.07373 15.6392 2.07373 13.9823C2.07373 12.4989 3.15036 11.267 4.56484 11.0253C5.1703 9.25508 6.84838 7.9823 8.82373 7.9823C10.5399 7.9823 12.0317 8.94297 12.7906 10.3559C13.0796 10.2754 13.3841 10.2323 13.6987 10.2323C15.5627 10.2323 17.0737 11.7433 17.0737 13.6073C17.0737 15.4713 15.5627 16.9823 13.6987 16.9823C10.8237 16.9823 7.94873 16.9823 5.07373 16.9823Z" stroke="#98A2B3" stroke-width="1.5" stroke-linecap="round" stroke-linejoin="round"/>
</svg>
