<svg width="19" height="19" viewBox="0 0 19 19" fill="none" xmlns="http://www.w3.org/2000/svg">
<g clip-path="url(#clip0_1_10517)">
<path d="M15.0947 11.9139C15.9992 11.3085 16.5947 10.2774 16.5947 9.10724C16.5947 7.34956 15.2511 5.90571 13.5349 5.74677C13.1839 3.61134 11.3295 1.98224 9.09473 1.98224C6.85991 1.98224 5.00559 3.61134 4.65453 5.74677C2.93836 5.90571 1.59473 7.34956 1.59473 9.10724C1.59473 10.2774 2.19024 11.3085 3.09473 11.9139M6.09473 11.7322H6.10223M6.09473 14.7322H6.10223M9.09473 13.2322H9.10223M9.09473 16.2322H9.10223M12.0947 11.7322H12.1022M12.0947 14.7322H12.1022" stroke="#98A2B3" stroke-width="1.5" stroke-linecap="round" stroke-linejoin="round"/>
</g>
<defs>
<clipPath id="clip0_1_10517">
<rect width="18" height="18" fill="white" transform="translate(0.0952148 0.4823)"/>
</clipPath>
</defs>
</svg>
