<svg width="19" height="19" viewBox="0 0 19 19" fill="none" xmlns="http://www.w3.org/2000/svg">
<g clip-path="url(#clip0_1_10521)">
<path d="M14.6251 9.78579C15.8004 9.15266 16.5991 7.9107 16.5991 6.48218C16.5991 4.41111 14.9202 2.73218 12.8491 2.73218C10.7781 2.73218 9.09912 4.41111 9.09912 6.48218M9.09912 6.48218C7.49582 6.48218 6.10617 7.39688 5.42353 8.7329C5.39879 8.73242 5.37398 8.73218 5.34912 8.73218C3.27805 8.73218 1.59912 10.4111 1.59912 12.4822C1.59912 14.5532 3.27805 16.2322 5.34912 16.2322C8.52553 16.2322 10.4067 16.2322 13.2241 16.2322C15.0881 16.2322 16.5991 14.7211 16.5991 12.8572C16.5991 10.9932 15.0881 9.48218 13.2241 9.48218C13.1724 9.48218 13.121 9.48335 13.0698 9.48565C12.5813 7.75249 10.9885 6.48218 9.09912 6.48218Z" stroke="#98A2B3" stroke-width="1.5" stroke-linecap="round" stroke-linejoin="round"/>
</g>
<defs>
<clipPath id="clip0_1_10521">
<rect width="18" height="18" fill="white" transform="translate(0.0996094 0.4823)"/>
</clipPath>
</defs>
</svg>
