<svg width="19" height="19" viewBox="0 0 19 19" fill="none" xmlns="http://www.w3.org/2000/svg">
<g clip-path="url(#clip0_1_8668)">
<path d="M9.12647 7.23213L3.17436 11.101C2.65848 11.4363 2.40053 11.604 2.3112 11.8166C2.23312 12.0024 2.23312 12.2118 2.3112 12.3977M9.12647 7.23213L15.0786 11.101C15.5945 11.4363 15.8524 11.604 15.9417 11.8166C16.0198 12.0024 16.0198 12.2118 15.9417 12.3977M9.12647 7.23213V2.35713M9.12647 11.7321L3.17436 7.86327C2.65848 7.52794 2.40053 7.36028 2.3112 7.14766C2.23312 6.96184 2.23312 6.75243 2.3112 6.56661M9.12647 11.7321L15.0786 7.86327C15.5945 7.52794 15.8524 7.36028 15.9417 7.14766C16.0198 6.96184 16.0198 6.75243 15.9417 6.56661M9.12647 11.7321V16.6071M16.0805 12.462L9.78045 16.557C9.54374 16.7109 9.42538 16.7878 9.29785 16.8178C9.18513 16.8442 9.06781 16.8442 8.95508 16.8178C8.82755 16.7878 8.7092 16.7109 8.47248 16.557L2.17248 12.462C1.97297 12.3324 1.87322 12.2675 1.80095 12.181C1.73697 12.1045 1.68892 12.0159 1.65959 11.9206C1.62646 11.8128 1.62646 11.6939 1.62646 11.4559V7.50836C1.62646 7.27041 1.62646 7.15144 1.65959 7.04371C1.68892 6.94834 1.73697 6.85979 1.80095 6.78323C1.87322 6.69674 1.97298 6.6319 2.17248 6.50222L8.47248 2.40722C8.7092 2.25336 8.82755 2.17643 8.95508 2.14649C9.06781 2.12003 9.18513 2.12003 9.29785 2.14649C9.42538 2.17643 9.54373 2.25336 9.78045 2.40722L16.0805 6.50222C16.28 6.6319 16.3797 6.69674 16.452 6.78323C16.516 6.85979 16.564 6.94834 16.5933 7.04371C16.6265 7.15144 16.6265 7.27041 16.6265 7.50836V11.4559C16.6265 11.6939 16.6265 11.8128 16.5933 11.9206C16.564 12.0159 16.516 12.1045 16.452 12.181C16.3797 12.2675 16.28 12.3324 16.0805 12.462Z" stroke="#98A2B3" stroke-width="1.5" stroke-linecap="round" stroke-linejoin="round"/>
</g>
<defs>
<clipPath id="clip0_1_8668">
<rect width="18" height="18" fill="white" transform="translate(0.126465 0.4823)"/>
</clipPath>
</defs>
</svg>
