<svg width="19" height="19" viewBox="0 0 19 19" fill="none" xmlns="http://www.w3.org/2000/svg">
<path d="M5.75537 3.63979L9.13037 5.58979L12.5054 3.63979M5.75537 15.3248V11.4323L2.38037 9.48229M15.8804 9.48229L12.5054 11.4323V15.3248M2.58287 5.70229L9.13037 9.48979L15.6779 5.70229M9.13037 17.0423V9.48229M15.8804 12.4823V6.48229C15.8801 6.21924 15.8107 5.9609 15.679 5.73316C15.5474 5.50542 15.3582 5.31631 15.1304 5.18479L9.88037 2.18479C9.65234 2.05314 9.39368 1.98383 9.13037 1.98383C8.86707 1.98383 8.6084 2.05314 8.38037 2.18479L3.13037 5.18479C2.90257 5.31631 2.71336 5.50542 2.58172 5.73316C2.45008 5.9609 2.38064 6.21924 2.38037 6.48229V12.4823C2.38064 12.7453 2.45008 13.0037 2.58172 13.2314C2.71336 13.4592 2.90257 13.6483 3.13037 13.7798L8.38037 16.7798C8.6084 16.9114 8.86707 16.9808 9.13037 16.9808C9.39368 16.9808 9.65234 16.9114 9.88037 16.7798L15.1304 13.7798C15.3582 13.6483 15.5474 13.4592 15.679 13.2314C15.8107 13.0037 15.8801 12.7453 15.8804 12.4823Z" stroke="#98A2B3" stroke-width="1.5" stroke-linecap="round" stroke-linejoin="round"/>
</svg>
