<svg width="19" height="19" viewBox="0 0 19 19" fill="none" xmlns="http://www.w3.org/2000/svg">
<path d="M11.125 13.2322L13.375 10.9822L11.125 8.73218M8.125 5.73218L5.875 7.98218L8.125 10.2322M6.475 16.2322H12.775C14.0351 16.2322 14.6652 16.2322 15.1465 15.9869C15.5698 15.7712 15.9141 15.427 16.1298 15.0037C16.375 14.5224 16.375 13.8923 16.375 12.6322V6.33218C16.375 5.07206 16.375 4.442 16.1298 3.9607C15.9141 3.53733 15.5698 3.19313 15.1465 2.97741C14.6652 2.73218 14.0351 2.73218 12.775 2.73218H6.475C5.21488 2.73218 4.58482 2.73218 4.10352 2.97741C3.68016 3.19313 3.33595 3.53733 3.12024 3.9607C2.875 4.442 2.875 5.07206 2.875 6.33218V12.6322C2.875 13.8923 2.875 14.5224 3.12024 15.0037C3.33595 15.427 3.68016 15.7712 4.10352 15.9869C4.58482 16.2322 5.21488 16.2322 6.475 16.2322Z" stroke="#98A2B3" stroke-width="1.5" stroke-linecap="round" stroke-linejoin="round"/>
</svg>
