<svg width="19" height="19" viewBox="0 0 19 19" fill="none" xmlns="http://www.w3.org/2000/svg">
<path d="M10.9976 11.7322L13.2476 9.48218L10.9976 7.23218M7.24756 7.23218L4.99756 9.48218L7.24756 11.7322M5.97256 16.2322H12.2726C13.5327 16.2322 14.1627 16.2322 14.644 15.9869C15.0674 15.7712 15.4116 15.427 15.6273 15.0037C15.8726 14.5224 15.8726 13.8923 15.8726 12.6322V6.33218C15.8726 5.07206 15.8726 4.442 15.6273 3.9607C15.4116 3.53733 15.0674 3.19313 14.644 2.97741C14.1627 2.73218 13.5327 2.73218 12.2726 2.73218H5.97256C4.71244 2.73218 4.08238 2.73218 3.60108 2.97741C3.17772 3.19313 2.83351 3.53733 2.61779 3.9607C2.37256 4.442 2.37256 5.07206 2.37256 6.33218V12.6322C2.37256 13.8923 2.37256 14.5224 2.61779 15.0037C2.83351 15.427 3.17772 15.7712 3.60108 15.9869C4.08238 16.2322 4.71244 16.2322 5.97256 16.2322Z" stroke="#98A2B3" stroke-width="1.5" stroke-linecap="round" stroke-linejoin="round"/>
</svg>
