<svg width="19" height="19" viewBox="0 0 19 19" fill="none" xmlns="http://www.w3.org/2000/svg">
<g clip-path="url(#clip0_1_8656)">
<path d="M16.6108 7.23218H1.61084M10.6108 13.6072L12.4858 11.7322L10.6108 9.85718M7.61084 9.85718L5.73584 11.7322L7.61084 13.6072M1.61084 6.33218L1.61084 12.6322C1.61084 13.8923 1.61084 14.5224 1.85608 15.0037C2.07179 15.427 2.416 15.7712 2.83936 15.9869C3.32066 16.2322 3.95072 16.2322 5.21084 16.2322H13.0108C14.271 16.2322 14.901 16.2322 15.3823 15.9869C15.8057 15.7712 16.1499 15.427 16.3656 15.0037C16.6108 14.5224 16.6108 13.8923 16.6108 12.6322V6.33218C16.6108 5.07206 16.6108 4.442 16.3656 3.9607C16.1499 3.53734 15.8057 3.19313 15.3823 2.97741C14.901 2.73218 14.271 2.73218 13.0108 2.73218L5.21084 2.73218C3.95072 2.73218 3.32066 2.73218 2.83936 2.97741C2.416 3.19313 2.07179 3.53733 1.85608 3.9607C1.61084 4.442 1.61084 5.07206 1.61084 6.33218Z" stroke="#98A2B3" stroke-width="1.5" stroke-linecap="round" stroke-linejoin="round"/>
</g>
<defs>
<clipPath id="clip0_1_8656">
<rect width="18" height="18" fill="white" transform="translate(0.111328 0.4823)"/>
</clipPath>
</defs>
</svg>
