<svg width="19" height="19" viewBox="0 0 19 19" fill="none" xmlns="http://www.w3.org/2000/svg">
<g clip-path="url(#clip0_1_10999)">
<path d="M14.1328 6.4823H14.8828C15.6785 6.4823 16.4415 6.79837 17.0041 7.36098C17.5667 7.92359 17.8828 8.68665 17.8828 9.4823C17.8828 10.278 17.5667 11.041 17.0041 11.6036C16.4415 12.1662 15.6785 12.4823 14.8828 12.4823H14.1328M14.1328 6.4823H2.13281V13.2323C2.13281 14.028 2.44888 14.791 3.01149 15.3536C3.5741 15.9162 4.33716 16.2323 5.13281 16.2323H11.1328C11.9285 16.2323 12.6915 15.9162 13.2541 15.3536C13.8167 14.791 14.1328 14.028 14.1328 13.2323V6.4823ZM5.13281 1.2323V3.4823M8.13281 1.2323V3.4823M11.1328 1.2323V3.4823" stroke="#98A2B3" stroke-width="1.5" stroke-linecap="round" stroke-linejoin="round"/>
</g>
<defs>
<clipPath id="clip0_1_10999">
<rect width="18" height="18" fill="white" transform="translate(0.632812 0.4823)"/>
</clipPath>
</defs>
</svg>
