<svg width="19" height="19" viewBox="0 0 19 19" fill="none" xmlns="http://www.w3.org/2000/svg">
<path d="M10.7669 3.64892C10.7677 2.72808 8.89005 1.98224 6.57649 1.98224C4.26293 1.98224 2.38693 2.72891 2.38525 3.64892M2.38525 3.64892C2.38525 4.56977 4.26125 5.31561 6.57649 5.31561C8.89173 5.31561 10.7677 4.56977 10.7677 3.64892L10.7677 10.1156M2.38525 3.64892V13.649C2.38609 14.5698 4.26209 15.3157 6.57649 15.3157C7.69891 15.3157 8.71235 15.1382 9.46426 14.8523M2.38609 6.98228C2.38609 7.90312 4.26209 8.64896 6.57733 8.64896C8.89257 8.64896 10.7686 7.90312 10.7686 6.98228M9.51455 11.5032C8.75845 11.799 7.72154 11.9824 6.57649 11.9824C4.26209 11.9824 2.38609 11.2365 2.38609 10.3157M15.5307 10.5807C17.0035 12.0449 17.0035 14.4199 15.5307 15.8841C14.0579 17.3483 11.6688 17.3483 10.196 15.8841C8.72325 14.4199 8.72325 12.0449 10.196 10.5807C11.6688 9.11653 14.0579 9.11653 15.5307 10.5807Z" stroke="#98A2B3" stroke-width="1.5" stroke-linecap="round" stroke-linejoin="round"/>
</svg>
