<svg width="19" height="19" viewBox="0 0 19 19" fill="none" xmlns="http://www.w3.org/2000/svg">
<g clip-path="url(#clip0_1_8949)">
<path d="M9.90039 4.23218C9.90039 5.06061 8.05357 5.73218 5.77539 5.73218C3.49722 5.73218 1.65039 5.06061 1.65039 4.23218M9.90039 4.23218C9.90039 3.40375 8.05357 2.73218 5.77539 2.73218C3.49722 2.73218 1.65039 3.40375 1.65039 4.23218M9.90039 4.23218V7.57504C8.98426 7.85017 8.40039 8.26638 8.40039 8.73218M1.65039 4.23218V13.2322C1.65039 14.0606 3.49722 14.7322 5.77539 14.7322C6.77261 14.7322 7.68719 14.6035 8.40039 14.3893V8.73218M1.65039 7.23218C1.65039 8.06061 3.49722 8.73218 5.77539 8.73218C6.77261 8.73218 7.68719 8.6035 8.40039 8.38932M1.65039 10.2322C1.65039 11.0606 3.49722 11.7322 5.77539 11.7322C6.77261 11.7322 7.68719 11.6035 8.40039 11.3893M16.6504 8.73218C16.6504 9.56061 14.8036 10.2322 12.5254 10.2322C10.2472 10.2322 8.40039 9.56061 8.40039 8.73218M16.6504 8.73218C16.6504 7.90375 14.8036 7.23218 12.5254 7.23218C10.2472 7.23218 8.40039 7.90375 8.40039 8.73218M16.6504 8.73218V14.7322C16.6504 15.5606 14.8036 16.2322 12.5254 16.2322C10.2472 16.2322 8.40039 15.5606 8.40039 14.7322V8.73218M16.6504 11.7322C16.6504 12.5606 14.8036 13.2322 12.5254 13.2322C10.2472 13.2322 8.40039 12.5606 8.40039 11.7322" stroke="#98A2B3" stroke-width="1.5" stroke-linecap="round" stroke-linejoin="round"/>
</g>
<defs>
<clipPath id="clip0_1_8949">
<rect width="18" height="18" fill="white" transform="translate(0.150391 0.4823)"/>
</clipPath>
</defs>
</svg>
