<svg width="19" height="19" viewBox="0 0 19 19" fill="none" xmlns="http://www.w3.org/2000/svg">
<path d="M9.64844 13.2322C9.64844 15.3032 11.3274 16.9822 13.3984 16.9822C15.4695 16.9822 17.1484 15.3032 17.1484 13.2322C17.1484 11.1611 15.4695 9.48218 13.3984 9.48218C11.3274 9.48218 9.64844 11.1611 9.64844 13.2322ZM9.64844 13.2322C9.64844 12.3878 9.92751 11.6086 10.3984 10.9818V4.23218M9.64844 13.2322C9.64844 13.8512 9.79842 14.4352 10.064 14.9498C9.43219 15.4835 7.97282 15.8572 6.27344 15.8572C3.99526 15.8572 2.14844 15.1856 2.14844 14.3572V4.23218M10.3984 4.23218C10.3984 5.06061 8.55161 5.73218 6.27344 5.73218C3.99526 5.73218 2.14844 5.06061 2.14844 4.23218M10.3984 4.23218C10.3984 3.40375 8.55161 2.73218 6.27344 2.73218C3.99526 2.73218 2.14844 3.40375 2.14844 4.23218M2.14844 10.9822C2.14844 11.8106 3.99526 12.4822 6.27344 12.4822C7.91519 12.4822 9.33293 12.1334 9.99692 11.6285M10.3984 7.60718C10.3984 8.43561 8.55161 9.10718 6.27344 9.10718C3.99526 9.10718 2.14844 8.43561 2.14844 7.60718" stroke="#98A2B3" stroke-width="1.5" stroke-linecap="round" stroke-linejoin="round"/>
</svg>
