<svg width="19" height="19" viewBox="0 0 19 19" fill="none" xmlns="http://www.w3.org/2000/svg">
<path d="M10.4028 4.23218C10.4028 5.06061 8.55601 5.73218 6.27783 5.73218C3.99966 5.73218 2.15283 5.06061 2.15283 4.23218M10.4028 4.23218C10.4028 3.40375 8.55601 2.73218 6.27783 2.73218C3.99966 2.73218 2.15283 3.40375 2.15283 4.23218M10.4028 4.23218V5.35718M2.15283 4.23218V13.2322C2.15283 14.0606 3.99966 14.7322 6.27783 14.7322M6.27783 8.73218C6.15142 8.73218 6.02634 8.73011 5.90283 8.72606C3.80039 8.65717 2.15283 8.01464 2.15283 7.23218M6.27783 11.7322C3.99966 11.7322 2.15283 11.0606 2.15283 10.2322M17.1528 9.10718C17.1528 9.93561 15.306 10.6072 13.0278 10.6072C10.7497 10.6072 8.90283 9.93561 8.90283 9.10718M17.1528 9.10718C17.1528 8.27875 15.306 7.60718 13.0278 7.60718C10.7497 7.60718 8.90283 8.27875 8.90283 9.10718M17.1528 9.10718V14.7322C17.1528 15.5606 15.306 16.2322 13.0278 16.2322C10.7497 16.2322 8.90283 15.5606 8.90283 14.7322V9.10718M17.1528 11.9197C17.1528 12.7481 15.306 13.4197 13.0278 13.4197C10.7497 13.4197 8.90283 12.7481 8.90283 11.9197" stroke="#98A2B3" stroke-width="1.5" stroke-linecap="round" stroke-linejoin="round"/>
</svg>
