<svg width="19" height="19" viewBox="0 0 19 19" fill="none" xmlns="http://www.w3.org/2000/svg">
<path d="M15.1548 4.23224C15.1548 5.47488 12.4685 6.48224 9.15479 6.48224C5.84108 6.48224 3.15479 5.47488 3.15479 4.23224M15.1548 4.23224C15.1548 2.9896 12.4685 1.98224 9.15479 1.98224C5.84108 1.98224 3.15479 2.9896 3.15479 4.23224M15.1548 4.23224V14.7322C15.1548 15.9749 12.4685 16.9822 9.15479 16.9822C5.84108 16.9822 3.15479 15.9749 3.15479 14.7322V4.23224M15.1548 7.73219C15.1548 8.97483 12.4685 9.98219 9.15479 9.98219C5.84108 9.98219 3.15479 8.97483 3.15479 7.73219M15.1548 11.2297C15.1548 12.4724 12.4685 13.4797 9.15479 13.4797C5.84108 13.4797 3.15479 12.4724 3.15479 11.2297" stroke="#98A2B3" stroke-width="1.5" stroke-linecap="round" stroke-linejoin="round"/>
</svg>
