<svg width="19" height="19" viewBox="0 0 19 19" fill="none" xmlns="http://www.w3.org/2000/svg">
<g clip-path="url(#clip0_1_8957)">
<path d="M4.6582 4.98224L6.1582 3.48224M6.1582 3.48224L4.6582 1.98224M6.1582 3.48224H4.6582C3.00135 3.48224 1.6582 4.82538 1.6582 6.48224M13.6582 13.9822L12.1582 15.4822M12.1582 15.4822L13.6582 16.9822M12.1582 15.4822H13.6582C15.3151 15.4822 16.6582 14.1391 16.6582 12.4822M7.79997 5.35724C8.29952 3.41636 10.0614 1.98224 12.1582 1.98224C14.6435 1.98224 16.6582 3.99696 16.6582 6.48224C16.6582 8.57904 15.2241 10.3409 13.2832 10.8405M10.6582 12.4822C10.6582 14.9675 8.64349 16.9822 6.1582 16.9822C3.67292 16.9822 1.6582 14.9675 1.6582 12.4822C1.6582 9.99696 3.67292 7.98224 6.1582 7.98224C8.64349 7.98224 10.6582 9.99696 10.6582 12.4822Z" stroke="#98A2B3" stroke-width="1.5" stroke-linecap="round" stroke-linejoin="round"/>
</g>
<defs>
<clipPath id="clip0_1_8957">
<rect width="18" height="18" fill="white" transform="translate(0.158203 0.4823)"/>
</clipPath>
</defs>
</svg>
