<svg width="19" height="19" viewBox="0 0 19 19" fill="none" xmlns="http://www.w3.org/2000/svg">
<g clip-path="url(#clip0_1_8945)">
<path d="M10.2936 6.74613C9.86429 7.0522 9.33891 7.23224 8.77148 7.23224C7.32174 7.23224 6.14648 6.05699 6.14648 4.60724C6.14648 3.15749 7.32174 1.98224 8.77148 1.98224C9.71123 1.98224 10.5356 2.47605 10.9994 3.21835M4.64648 15.5476H6.6042C6.85946 15.5476 7.11315 15.578 7.36059 15.6387L9.42915 16.1414C9.87799 16.2507 10.3456 16.2614 10.7991 16.1733L13.0862 15.7283C13.6904 15.6106 14.2462 15.3213 14.6817 14.8976L16.2999 13.3235C16.762 12.8748 16.762 12.1466 16.2999 11.697C15.8838 11.2923 15.225 11.2468 14.7543 11.59L12.8684 12.9659C12.5983 13.1633 12.2697 13.2696 11.9317 13.2696H10.1106L11.2698 13.2696C11.9231 13.2696 12.4524 12.7547 12.4524 12.1192V11.8891C12.4524 11.3614 12.0832 10.9012 11.557 10.7736L9.76793 10.3385C9.47677 10.2679 9.17859 10.2322 8.87884 10.2322C8.15523 10.2322 6.8454 10.8314 6.8454 10.8314L4.64648 11.7509M15.1465 5.35724C15.1465 6.80699 13.9712 7.98224 12.5215 7.98224C11.0717 7.98224 9.89649 6.80699 9.89649 5.35724C9.89649 3.90749 11.0717 2.73224 12.5215 2.73224C13.9712 2.73224 15.1465 3.90749 15.1465 5.35724ZM1.64648 11.4322L1.64648 15.7822C1.64648 16.2023 1.64648 16.4123 1.72823 16.5727C1.80013 16.7139 1.91487 16.8286 2.05599 16.9005C2.21643 16.9822 2.42644 16.9822 2.84648 16.9822H3.44648C3.86652 16.9822 4.07654 16.9822 4.23698 16.9005C4.3781 16.8286 4.49283 16.7139 4.56474 16.5727C4.64648 16.4123 4.64648 16.2023 4.64648 15.7822V11.4322C4.64648 11.0122 4.64648 10.8022 4.56474 10.6417C4.49283 10.5006 4.3781 10.3859 4.23698 10.314C4.07654 10.2322 3.86652 10.2322 3.44648 10.2322L2.84648 10.2322C2.42645 10.2322 2.21643 10.2322 2.05599 10.314C1.91487 10.3859 1.80013 10.5006 1.72823 10.6417C1.64648 10.8022 1.64648 11.0122 1.64648 11.4322Z" stroke="#98A2B3" stroke-width="1.5" stroke-linecap="round" stroke-linejoin="round"/>
</g>
<defs>
<clipPath id="clip0_1_8945">
<rect width="18" height="18" fill="white" transform="translate(0.146484 0.4823)"/>
</clipPath>
</defs>
</svg>
