<svg width="19" height="19" viewBox="0 0 19 19" fill="none" xmlns="http://www.w3.org/2000/svg">
<path d="M5.15576 4.98224L6.65576 3.48224M6.65576 3.48224L5.15576 1.98224M6.65576 3.48224H5.15576C3.49891 3.48224 2.15576 4.82538 2.15576 6.48224M14.1558 13.9822L12.6558 15.4822M12.6558 15.4822L14.1558 16.9822M12.6558 15.4822H14.1558C15.8126 15.4822 17.1558 14.1391 17.1558 12.4822M10.7186 10.5451C11.3053 10.8253 11.9622 10.9822 12.6558 10.9822C15.141 10.9822 17.1558 8.96752 17.1558 6.48224C17.1558 3.99696 15.141 1.98224 12.6558 1.98224C10.1705 1.98224 8.15576 3.99696 8.15576 6.48224C8.15576 7.17578 8.31265 7.83267 8.59288 8.41936M11.1558 12.4822C11.1558 14.9675 9.14104 16.9822 6.65576 16.9822C4.17048 16.9822 2.15576 14.9675 2.15576 12.4822C2.15576 9.99696 4.17048 7.98224 6.65576 7.98224C9.14104 7.98224 11.1558 9.99696 11.1558 12.4822Z" stroke="#98A2B3" stroke-width="1.5" stroke-linecap="round" stroke-linejoin="round"/>
</svg>
