<svg width="19" height="19" viewBox="0 0 19 19" fill="none" xmlns="http://www.w3.org/2000/svg">
<g clip-path="url(#clip0_1_10071)">
<path d="M9.1621 15.8364C9.95824 16.549 11.0096 16.9822 12.1621 16.9822C14.6474 16.9822 16.6621 14.9675 16.6621 12.4822C16.6621 10.407 15.2574 8.65993 13.347 8.13987M4.97724 8.13986C3.06681 8.65992 1.66211 10.407 1.66211 12.4822C1.66211 14.9675 3.67683 16.9822 6.16211 16.9822C8.64739 16.9822 10.6621 14.9675 10.6621 12.4822C10.6621 11.8969 10.5503 11.3376 10.347 10.8246M13.6621 6.48224C13.6621 8.96752 11.6474 10.9822 9.16211 10.9822C6.67683 10.9822 4.66211 8.96752 4.66211 6.48224C4.66211 3.99696 6.67683 1.98224 9.16211 1.98224C11.6474 1.98224 13.6621 3.99696 13.6621 6.48224Z" stroke="#98A2B3" stroke-width="1.5" stroke-linecap="round" stroke-linejoin="round"/>
</g>
<defs>
<clipPath id="clip0_1_10071">
<rect width="18" height="18" fill="white" transform="translate(0.162109 0.4823)"/>
</clipPath>
</defs>
</svg>
