<svg width="19" height="19" viewBox="0 0 19 19" fill="none" xmlns="http://www.w3.org/2000/svg">
<path d="M9.66015 15.8364C10.4563 16.549 11.5076 16.9822 12.6602 16.9822C15.1454 16.9822 17.1602 14.9675 17.1602 12.4822C17.1602 10.407 15.7555 8.65993 13.845 8.13987M5.47529 8.13986C3.56486 8.65992 2.16016 10.407 2.16016 12.4822C2.16016 14.9675 4.17488 16.9822 6.66016 16.9822C9.14544 16.9822 11.1602 14.9675 11.1602 12.4822C11.1602 11.8969 11.0484 11.3376 10.845 10.8246M14.1602 6.48224C14.1602 8.96752 12.1454 10.9822 9.66016 10.9822C7.17488 10.9822 5.16016 8.96752 5.16016 6.48224C5.16016 3.99696 7.17488 1.98224 9.66016 1.98224C12.1454 1.98224 14.1602 3.99696 14.1602 6.48224Z" stroke="#98A2B3" stroke-width="1.5" stroke-linecap="round" stroke-linejoin="round"/>
</svg>
