<svg width="19" height="19" viewBox="0 0 19 19" fill="none" xmlns="http://www.w3.org/2000/svg">
<path d="M6.91992 2.73218V16.2322M11.4199 2.73218V16.2322M6.01992 2.73218H12.3199C13.58 2.73218 14.2101 2.73218 14.6914 2.97741C15.1148 3.19313 15.459 3.53733 15.6747 3.9607C15.9199 4.442 15.9199 5.07206 15.9199 6.33218V12.6322C15.9199 13.8923 15.9199 14.5224 15.6747 15.0037C15.459 15.427 15.1148 15.7712 14.6914 15.9869C14.2101 16.2322 13.58 16.2322 12.3199 16.2322H6.01992C4.7598 16.2322 4.12974 16.2322 3.64844 15.9869C3.22508 15.7712 2.88087 15.427 2.66516 15.0037C2.41992 14.5224 2.41992 13.8923 2.41992 12.6322V6.33218C2.41992 5.07206 2.41992 4.442 2.66516 3.9607C2.88087 3.53733 3.22508 3.19313 3.64844 2.97741C4.12974 2.73218 4.7598 2.73218 6.01992 2.73218Z" stroke="#98A2B3" stroke-width="1.5" stroke-linecap="round" stroke-linejoin="round"/>
</svg>
