<svg width="19" height="19" viewBox="0 0 19 19" fill="none" xmlns="http://www.w3.org/2000/svg">
<path d="M5.2665 2.73218H4.8165C3.97643 2.73218 3.55639 2.73218 3.23552 2.89567C2.95328 3.03948 2.7238 3.26895 2.57999 3.55119C2.4165 3.87206 2.4165 4.2921 2.4165 5.13218V13.8322C2.4165 14.6723 2.4165 15.0923 2.57999 15.4132C2.7238 15.6954 2.95328 15.9249 3.23552 16.0687C3.55639 16.2322 3.97643 16.2322 4.8165 16.2322H5.2665C6.10658 16.2322 6.52662 16.2322 6.84749 16.0687C7.12973 15.9249 7.3592 15.6954 7.50301 15.4132C7.6665 15.0923 7.6665 14.6723 7.6665 13.8322V5.13218C7.6665 4.2921 7.6665 3.87206 7.50301 3.55119C7.3592 3.26895 7.12973 3.03948 6.84749 2.89567C6.52662 2.73218 6.10658 2.73218 5.2665 2.73218Z" stroke="#98A2B3" stroke-width="1.5" stroke-linecap="round" stroke-linejoin="round"/>
<path d="M13.5165 2.73218H13.0665C12.2264 2.73218 11.8064 2.73218 11.4855 2.89567C11.2033 3.03948 10.9738 3.26895 10.83 3.55119C10.6665 3.87206 10.6665 4.2921 10.6665 5.13218V13.8322C10.6665 14.6723 10.6665 15.0923 10.83 15.4132C10.9738 15.6954 11.2033 15.9249 11.4855 16.0687C11.8064 16.2322 12.2264 16.2322 13.0665 16.2322H13.5165C14.3566 16.2322 14.7766 16.2322 15.0975 16.0687C15.3797 15.9249 15.6092 15.6954 15.753 15.4132C15.9165 15.0923 15.9165 14.6723 15.9165 13.8322V5.13218C15.9165 4.2921 15.9165 3.87206 15.753 3.55119C15.6092 3.26895 15.3797 3.03948 15.0975 2.89567C14.7766 2.73218 14.3566 2.73218 13.5165 2.73218Z" stroke="#98A2B3" stroke-width="1.5" stroke-linecap="round" stroke-linejoin="round"/>
</svg>
