<svg width="19" height="19" viewBox="0 0 19 19" fill="none" xmlns="http://www.w3.org/2000/svg">
<path d="M9.66406 2.73218V16.2322M9.66406 2.73218H14.9141C15.3119 2.73218 15.6934 2.89021 15.9747 3.17152C16.256 3.45282 16.4141 3.83435 16.4141 4.23218V14.7322C16.4141 15.13 16.256 15.5115 15.9747 15.7928C15.6934 16.0741 15.3119 16.2322 14.9141 16.2322H9.66406V2.73218ZM9.66406 2.73218H4.41406C4.01624 2.73218 3.63471 2.89021 3.3534 3.17152C3.0721 3.45282 2.91406 3.83435 2.91406 4.23218V14.7322C2.91406 15.13 3.0721 15.5115 3.3534 15.7928C3.63471 16.0741 4.01624 16.2322 4.41406 16.2322H9.66406V2.73218Z" stroke="#98A2B3" stroke-width="1.5" stroke-linecap="round" stroke-linejoin="round"/>
</svg>
