<svg width="19" height="19" viewBox="0 0 19 19" fill="none" xmlns="http://www.w3.org/2000/svg">
<path d="M9.66797 2.73218V16.2322M6.51797 2.73218H12.818C14.0781 2.73218 14.7081 2.73218 15.1894 2.97741C15.6128 3.19313 15.957 3.53733 16.1727 3.9607C16.418 4.442 16.418 5.07206 16.418 6.33218V12.6322C16.418 13.8923 16.418 14.5224 16.1727 15.0037C15.957 15.427 15.6128 15.7712 15.1894 15.9869C14.7081 16.2322 14.0781 16.2322 12.818 16.2322H6.51797C5.25785 16.2322 4.62779 16.2322 4.14649 15.9869C3.72313 15.7712 3.37892 15.427 3.1632 15.0037C2.91797 14.5224 2.91797 13.8923 2.91797 12.6322V6.33218C2.91797 5.07206 2.91797 4.442 3.1632 3.9607C3.37892 3.53733 3.72313 3.19313 4.14649 2.97741C4.62779 2.73218 5.25785 2.73218 6.51797 2.73218Z" stroke="#98A2B3" stroke-width="1.5" stroke-linecap="round" stroke-linejoin="round"/>
</svg>
