<svg width="19" height="19" viewBox="0 0 19 19" fill="none" xmlns="http://www.w3.org/2000/svg">
<path d="M7.42188 7.23218V4.98218C7.42188 3.73954 6.41452 2.73218 5.17188 2.73218C3.92923 2.73218 2.92188 3.73954 2.92188 4.98218C2.92188 6.22482 3.92923 7.23218 5.17188 7.23218H7.42188ZM7.42188 7.23218V11.7322M7.42188 7.23218H11.9219M7.42188 11.7322V13.9822C7.42188 15.2248 6.41452 16.2322 5.17188 16.2322C3.92923 16.2322 2.92188 15.2248 2.92188 13.9822C2.92188 12.7395 3.92923 11.7322 5.17188 11.7322H7.42188ZM7.42188 11.7322H11.9219M11.9219 11.7322H14.1719C15.4145 11.7322 16.4219 12.7395 16.4219 13.9822C16.4219 15.2248 15.4145 16.2322 14.1719 16.2322C12.9292 16.2322 11.9219 15.2248 11.9219 13.9822V11.7322ZM11.9219 11.7322V7.23218M11.9219 7.23218V4.98218C11.9219 3.73954 12.9292 2.73218 14.1719 2.73218C15.4145 2.73218 16.4219 3.73954 16.4219 4.98218C16.4219 6.22482 15.4145 7.23218 14.1719 7.23218H11.9219Z" stroke="#98A2B3" stroke-width="1.5" stroke-linecap="round" stroke-linejoin="round"/>
</svg>
