<svg width="19" height="19" viewBox="0 0 19 19" fill="none" xmlns="http://www.w3.org/2000/svg">
<path d="M13.6738 2.73218C13.0771 2.73218 12.5048 2.96923 12.0828 3.39119C11.6609 3.81314 11.4238 4.38544 11.4238 4.98218V13.9822C11.4238 14.5789 11.6609 15.1512 12.0828 15.5732C12.5048 15.9951 13.0771 16.2322 13.6738 16.2322C14.2706 16.2322 14.8429 15.9951 15.2648 15.5732C15.6868 15.1512 15.9238 14.5789 15.9238 13.9822C15.9238 13.3854 15.6868 12.8131 15.2648 12.3912C14.8429 11.9692 14.2706 11.7322 13.6738 11.7322H4.67383C4.07709 11.7322 3.50479 11.9692 3.08284 12.3912C2.66088 12.8131 2.42383 13.3854 2.42383 13.9822C2.42383 14.5789 2.66088 15.1512 3.08284 15.5732C3.50479 15.9951 4.07709 16.2322 4.67383 16.2322C5.27057 16.2322 5.84286 15.9951 6.26482 15.5732C6.68678 15.1512 6.92383 14.5789 6.92383 13.9822V4.98218C6.92383 4.38544 6.68678 3.81314 6.26482 3.39119C5.84286 2.96923 5.27057 2.73218 4.67383 2.73218C4.07709 2.73218 3.50479 2.96923 3.08284 3.39119C2.66088 3.81314 2.42383 4.38544 2.42383 4.98218C2.42383 5.57892 2.66088 6.15121 3.08284 6.57317C3.50479 6.99513 4.07709 7.23218 4.67383 7.23218H13.6738C14.2706 7.23218 14.8429 6.99513 15.2648 6.57317C15.6868 6.15121 15.9238 5.57892 15.9238 4.98218C15.9238 4.38544 15.6868 3.81314 15.2648 3.39119C14.8429 2.96923 14.2706 2.73218 13.6738 2.73218Z" stroke="#98A2B3" stroke-width="1.5" stroke-linecap="round" stroke-linejoin="round"/>
</svg>
