<svg width="19" height="19" viewBox="0 0 19 19" fill="none" xmlns="http://www.w3.org/2000/svg">
<path d="M9.68359 16.9822C13.8257 16.9822 17.1836 13.6244 17.1836 9.48224C17.1836 5.3401 13.8257 1.98224 9.68359 1.98224C5.54146 1.98224 2.18359 5.3401 2.18359 9.48224C2.18359 13.6244 5.54146 16.9822 9.68359 16.9822Z" stroke="#98A2B3" stroke-width="1.5" stroke-linecap="round" stroke-linejoin="round"/>
<path d="M11.7252 6.68171C12.0916 6.55958 12.2748 6.49851 12.3966 6.54195C12.5026 6.57976 12.5861 6.66319 12.6239 6.76921C12.6673 6.89104 12.6063 7.07425 12.4841 7.44066L11.3685 10.7876C11.3337 10.892 11.3163 10.9442 11.2866 10.9875C11.2604 11.0259 11.2272 11.059 11.1889 11.0853C11.1455 11.1149 11.0933 11.1323 10.989 11.1671L7.64202 12.2828C7.2756 12.4049 7.0924 12.466 6.97057 12.4225C6.86455 12.3847 6.78111 12.3013 6.74331 12.1953C6.69986 12.0734 6.76093 11.8902 6.88307 11.5238L7.99873 8.17684C8.03351 8.07249 8.0509 8.02031 8.08054 7.97698C8.1068 7.9386 8.13996 7.90544 8.17834 7.87919C8.22167 7.84955 8.27384 7.83216 8.3782 7.79737L11.7252 6.68171Z" stroke="#98A2B3" stroke-width="1.5" stroke-linecap="round" stroke-linejoin="round"/>
</svg>
