<svg width="19" height="19" viewBox="0 0 19 19" fill="none" xmlns="http://www.w3.org/2000/svg">
<g clip-path="url(#clip0_1_10411)">
<path d="M16.6816 9.48224H15.1816M16.6816 9.48224C16.6816 13.6244 13.3238 16.9822 9.18164 16.9822M16.6816 9.48224C16.6816 5.3401 13.3238 1.98224 9.18164 1.98224M14.4849 14.7855L13.4243 13.7249M3.18164 9.48224H1.68164M1.68164 9.48224C1.68164 13.6244 5.03951 16.9822 9.18164 16.9822M1.68164 9.48224C1.68164 5.3401 5.03951 1.98224 9.18164 1.98224M4.939 5.2396L3.87834 4.17894M9.18164 3.48224V1.98224M13.4243 5.2396L14.4849 4.17894M9.18164 16.9822V15.4822M3.87834 14.7855L4.939 13.7249M9.18164 6.48224L12.1816 9.48224L9.18164 12.4822L6.18164 9.48224L9.18164 6.48224Z" stroke="#98A2B3" stroke-width="1.5" stroke-linecap="round" stroke-linejoin="round"/>
</g>
<defs>
<clipPath id="clip0_1_10411">
<rect width="18" height="18" fill="white" transform="translate(0.181641 0.4823)"/>
</clipPath>
</defs>
</svg>
