<svg width="19" height="19" viewBox="0 0 19 19" fill="none" xmlns="http://www.w3.org/2000/svg">
<path d="M17.1797 9.48224C17.1797 13.6244 13.8218 16.9822 9.67969 16.9822M17.1797 9.48224C17.1797 5.3401 13.8218 1.98224 9.67969 1.98224M17.1797 9.48224H15.6797M9.67969 16.9822C5.53755 16.9822 2.17969 13.6244 2.17969 9.48224M9.67969 16.9822V15.4822M2.17969 9.48224C2.17969 5.3401 5.53755 1.98224 9.67969 1.98224M2.17969 9.48224H3.67969M9.67969 1.98224V3.48224M14.983 14.7855L13.9223 13.7249M5.43705 5.2396L4.37639 4.17894M13.9223 5.2396L14.983 4.17894M4.37639 14.7855L5.43705 13.7249M6.67969 9.48224L8.55469 8.35724L9.67969 6.48224L10.8047 8.35724L12.6797 9.48224L10.8047 10.6072L9.67969 12.4822L8.55469 10.6072L6.67969 9.48224Z" stroke="#98A2B3" stroke-width="1.5" stroke-linecap="round" stroke-linejoin="round"/>
</svg>
