<svg width="19" height="19" viewBox="0 0 19 19" fill="none" xmlns="http://www.w3.org/2000/svg">
<path d="M15.5605 5.94049L9.18553 9.48216M9.18553 9.48216L2.81052 5.94049M9.18553 9.48216L9.18555 16.6072M15.9356 12.5261V6.43826C15.9356 6.18128 15.9355 6.05279 15.8977 5.93819C15.8642 5.83681 15.8094 5.74375 15.7371 5.66523C15.6553 5.57648 15.543 5.51408 15.3183 5.38928L9.76832 2.30594C9.55562 2.18777 9.44927 2.12869 9.33664 2.10553C9.23696 2.08502 9.13414 2.08502 9.03446 2.10553C8.92183 2.12869 8.81548 2.18777 8.60278 2.30594L3.05278 5.38928C2.82813 5.51408 2.71581 5.57648 2.63402 5.66523C2.56167 5.74375 2.50691 5.83681 2.47341 5.93819C2.43555 6.05279 2.43555 6.18128 2.43555 6.43827V12.5261C2.43555 12.7831 2.43555 12.9116 2.47341 13.0262C2.50691 13.1276 2.56167 13.2206 2.63402 13.2991C2.71581 13.3879 2.82813 13.4503 3.05278 13.5751L8.60278 16.6584C8.81548 16.7766 8.92183 16.8357 9.03446 16.8588C9.13414 16.8793 9.23696 16.8793 9.33664 16.8588C9.44927 16.8357 9.55562 16.7766 9.76832 16.6584L15.3183 13.5751C15.543 13.4503 15.6553 13.3879 15.7371 13.2991C15.8094 13.2206 15.8642 13.1276 15.8977 13.0262C15.9355 12.9116 15.9356 12.7831 15.9356 12.5261Z" stroke="#98A2B3" stroke-width="1.5" stroke-linecap="round" stroke-linejoin="round"/>
</svg>
