<svg width="19" height="19" viewBox="0 0 19 19" fill="none" xmlns="http://www.w3.org/2000/svg">
<path d="M9.6919 16.9822C13.834 16.9822 17.1919 13.6244 17.1919 9.48224C17.1919 5.3401 13.834 1.98224 9.6919 1.98224C5.54976 1.98224 2.19189 5.3401 2.19189 9.48224C2.19189 13.6244 5.54976 16.9822 9.6919 16.9822Z" stroke="#98A2B3" stroke-width="1.5" stroke-linecap="round" stroke-linejoin="round"/>
<path d="M12.6919 6.85724C12.6919 9.96384 10.1735 12.4822 7.06689 12.4822C6.6059 12.4822 6.15785 12.4268 5.72907 12.3222C6.61378 13.5545 8.0591 14.3572 9.6919 14.3572C12.3843 14.3572 14.5669 12.1746 14.5669 9.48224C14.5669 7.84944 13.7642 6.40413 12.5318 5.51941C12.6364 5.9482 12.6919 6.39624 12.6919 6.85724Z" stroke="#98A2B3" stroke-width="1.5" stroke-linecap="round" stroke-linejoin="round"/>
</svg>
