<svg width="19" height="19" viewBox="0 0 19 19" fill="none" xmlns="http://www.w3.org/2000/svg">
<path d="M9.6875 1.98224C10.1313 1.98224 10.566 2.02078 10.9886 2.09469M9.6875 1.98224C5.54536 1.98224 2.1875 5.3401 2.1875 9.48224C2.1875 13.6244 5.54536 16.9822 9.6875 16.9822M9.6875 1.98224V16.9822M13.991 3.33899C14.7067 3.84126 15.3306 4.46541 15.8325 5.18129M17.0751 8.18146C17.149 8.60395 17.1875 9.0386 17.1875 9.48224C17.1875 9.92588 17.149 10.3605 17.0751 10.783M15.8294 13.7877C15.3278 14.502 14.7047 15.1247 13.9902 15.626M10.9871 16.87C10.565 16.9438 10.1307 16.9822 9.6875 16.9822" stroke="#98A2B3" stroke-width="1.5" stroke-linecap="round" stroke-linejoin="round"/>
</svg>
