<svg width="19" height="19" viewBox="0 0 19 19" fill="none" xmlns="http://www.w3.org/2000/svg">
<g clip-path="url(#clip0_1_10661)">
<path d="M3.94336 11.7322H3.19336C2.79553 11.7322 2.414 11.5742 2.1327 11.2929C1.85139 11.0116 1.69336 10.6301 1.69336 10.2322V3.48224C1.69336 3.08441 1.85139 2.70288 2.1327 2.42158C2.414 2.14027 2.79553 1.98224 3.19336 1.98224H9.94336C10.3412 1.98224 10.7227 2.14027 11.004 2.42158C11.2853 2.70288 11.4434 3.08441 11.4434 3.48224V4.23224M8.44336 7.23224H15.1934C16.0218 7.23224 16.6934 7.90381 16.6934 8.73224V15.4822C16.6934 16.3107 16.0218 16.9822 15.1934 16.9822H8.44336C7.61493 16.9822 6.94336 16.3107 6.94336 15.4822V8.73224C6.94336 7.90381 7.61493 7.23224 8.44336 7.23224Z" stroke="#98A2B3" stroke-width="1.5" stroke-linecap="round" stroke-linejoin="round"/>
</g>
<defs>
<clipPath id="clip0_1_10661">
<rect width="18" height="18" fill="white" transform="translate(0.193359 0.4823)"/>
</clipPath>
</defs>
</svg>
