<svg width="19" height="19" viewBox="0 0 19 19" fill="none" xmlns="http://www.w3.org/2000/svg">
<path d="M5.83057 2.73218H11.1556C12.8357 2.73218 13.6758 2.73218 14.3175 3.05916C14.882 3.34678 15.341 3.80572 15.6286 4.37021C15.9556 5.01194 15.9556 5.85202 15.9556 7.53218V12.8572M4.85557 16.2322H10.9306C11.7706 16.2322 12.1907 16.2322 12.5116 16.0687C12.7938 15.9249 13.0233 15.6954 13.1671 15.4132C13.3306 15.0923 13.3306 14.6723 13.3306 13.8322V7.75718C13.3306 6.9171 13.3306 6.49706 13.1671 6.17619C13.0233 5.89395 12.7938 5.66448 12.5116 5.52067C12.1907 5.35718 11.7706 5.35718 10.9306 5.35718H4.85557C4.01549 5.35718 3.59545 5.35718 3.27458 5.52067C2.99234 5.66448 2.76287 5.89395 2.61906 6.17619C2.45557 6.49706 2.45557 6.9171 2.45557 7.75718V13.8322C2.45557 14.6723 2.45557 15.0923 2.61906 15.4132C2.76287 15.6954 2.99234 15.9249 3.27458 16.0687C3.59545 16.2322 4.01549 16.2322 4.85557 16.2322Z" stroke="#98A2B3" stroke-width="1.5" stroke-linecap="round" stroke-linejoin="round"/>
</svg>
