<svg width="19" height="19" viewBox="0 0 19 19" fill="none" xmlns="http://www.w3.org/2000/svg">
<path d="M6.70361 12.4822V14.5822C6.70361 15.4223 6.70361 15.8424 6.8671 16.1632C7.01091 16.4455 7.24038 16.6749 7.52263 16.8187C7.8435 16.9822 8.26353 16.9822 9.10361 16.9822H14.8036C15.6437 16.9822 16.0637 16.9822 16.3846 16.8187C16.6668 16.6749 16.8963 16.4455 17.0401 16.1632C17.2036 15.8424 17.2036 15.4223 17.2036 14.5822V8.88224C17.2036 8.04216 17.2036 7.62212 17.0401 7.30125C16.8963 7.01901 16.6668 6.78954 16.3846 6.64573C16.0637 6.48224 15.6437 6.48224 14.8036 6.48224H12.7036M4.60361 12.4822H10.3036C11.1437 12.4822 11.5637 12.4822 11.8846 12.3187C12.1668 12.1749 12.3963 11.9455 12.5401 11.6632C12.7036 11.3424 12.7036 10.9223 12.7036 10.0822V4.38224C12.7036 3.54216 12.7036 3.12212 12.5401 2.80125C12.3963 2.51901 12.1668 2.28954 11.8846 2.14573C11.5637 1.98224 11.1437 1.98224 10.3036 1.98224H4.60361C3.76353 1.98224 3.3435 1.98224 3.02263 2.14573C2.74038 2.28954 2.51091 2.51901 2.3671 2.80125C2.20361 3.12212 2.20361 3.54216 2.20361 4.38224V10.0822C2.20361 10.9223 2.20361 11.3424 2.3671 11.6632C2.51091 11.9455 2.74038 12.1749 3.02263 12.3187C3.3435 12.4822 3.76353 12.4822 4.60361 12.4822Z" stroke="#98A2B3" stroke-width="1.5" stroke-linecap="round" stroke-linejoin="round"/>
</svg>
