<svg width="19" height="19" viewBox="0 0 19 19" fill="none" xmlns="http://www.w3.org/2000/svg">
<path d="M6.69922 6.48224V4.38224C6.69922 3.54216 6.69922 3.12212 6.86271 2.80125C7.00652 2.51901 7.23599 2.28954 7.51823 2.14573C7.8391 1.98224 8.25914 1.98224 9.09922 1.98224H14.7992C15.6393 1.98224 16.0593 1.98224 16.3802 2.14573C16.6624 2.28954 16.8919 2.51901 17.0357 2.80125C17.1992 3.12212 17.1992 3.54216 17.1992 4.38224V10.0822C17.1992 10.9223 17.1992 11.3424 17.0357 11.6632C16.8919 11.9455 16.6624 12.1749 16.3802 12.3187C16.0593 12.4822 15.6393 12.4822 14.7992 12.4822H12.6992M4.59922 16.9822H10.2992C11.1393 16.9822 11.5593 16.9822 11.8802 16.8187C12.1624 16.6749 12.3919 16.4455 12.5357 16.1632C12.6992 15.8424 12.6992 15.4223 12.6992 14.5822V8.88224C12.6992 8.04216 12.6992 7.62212 12.5357 7.30125C12.3919 7.01901 12.1624 6.78954 11.8802 6.64573C11.5593 6.48224 11.1393 6.48224 10.2992 6.48224H4.59922C3.75914 6.48224 3.3391 6.48224 3.01823 6.64573C2.73599 6.78954 2.50652 7.01901 2.36271 7.30125C2.19922 7.62212 2.19922 8.04216 2.19922 8.88224V14.5822C2.19922 15.4223 2.19922 15.8424 2.36271 16.1632C2.50652 16.4455 2.73599 16.6749 3.01823 16.8187C3.3391 16.9822 3.75914 16.9822 4.59922 16.9822Z" stroke="#98A2B3" stroke-width="1.5" stroke-linecap="round" stroke-linejoin="round"/>
</svg>
