<svg width="19" height="19" viewBox="0 0 19 19" fill="none" xmlns="http://www.w3.org/2000/svg">
<g clip-path="url(#clip0_1_9151)">
<path d="M12.1978 6.48224V4.38224C12.1978 3.54216 12.1978 3.12212 12.0343 2.80125C11.8905 2.51901 11.661 2.28954 11.3787 2.14573C11.0579 1.98224 10.6378 1.98224 9.79775 1.98224H4.09775C3.25768 1.98224 2.83764 1.98224 2.51677 2.14573C2.23453 2.28954 2.00505 2.51901 1.86124 2.80125C1.69775 3.12212 1.69775 3.54216 1.69775 4.38224V10.0822C1.69775 10.9223 1.69775 11.3424 1.86124 11.6632C2.00505 11.9455 2.23453 12.1749 2.51677 12.3187C2.83764 12.4822 3.25768 12.4822 4.09775 12.4822H6.19775M8.59775 16.9822H14.2978C15.1378 16.9822 15.5579 16.9822 15.8787 16.8187C16.161 16.6749 16.3905 16.4455 16.5343 16.1632C16.6978 15.8424 16.6978 15.4223 16.6978 14.5822V8.88224C16.6978 8.04216 16.6978 7.62212 16.5343 7.30125C16.3905 7.01901 16.161 6.78954 15.8787 6.64573C15.5579 6.48224 15.1378 6.48224 14.2978 6.48224H8.59775C7.75768 6.48224 7.33764 6.48224 7.01677 6.64573C6.73453 6.78954 6.50505 7.01901 6.36124 7.30125C6.19775 7.62212 6.19775 8.04216 6.19775 8.88224V14.5822C6.19775 15.4223 6.19775 15.8424 6.36124 16.1632C6.50505 16.4455 6.73453 16.6749 7.01677 16.8187C7.33764 16.9822 7.75768 16.9822 8.59775 16.9822Z" stroke="#98A2B3" stroke-width="1.5" stroke-linecap="round" stroke-linejoin="round"/>
</g>
<defs>
<clipPath id="clip0_1_9151">
<rect width="18" height="18" fill="white" transform="translate(0.197754 0.4823)"/>
</clipPath>
</defs>
</svg>
