<svg width="19" height="19" viewBox="0 0 19 19" fill="none" xmlns="http://www.w3.org/2000/svg">
<path d="M8.58252 1.98434C8.07623 1.9912 7.77229 2.02051 7.52653 2.14573C7.24429 2.28954 7.01482 2.51901 6.87101 2.80125C6.74579 3.04701 6.71648 3.35095 6.70962 3.85724M15.3325 1.98434C15.8388 1.9912 16.1427 2.02051 16.3885 2.14573C16.6708 2.28954 16.9002 2.51901 17.044 2.80125C17.1693 3.04701 17.1986 3.35095 17.2054 3.85723M17.2054 10.6072C17.1986 11.1135 17.1693 11.4175 17.044 11.6632C16.9002 11.9455 16.6708 12.1749 16.3885 12.3187C16.1427 12.444 15.8388 12.4733 15.3325 12.4801M17.2075 6.48223V7.98223M11.2076 1.98224H12.7075M4.60752 16.9822H10.3075C11.1476 16.9822 11.5676 16.9822 11.8885 16.8187C12.1707 16.6749 12.4002 16.4455 12.544 16.1632C12.7075 15.8424 12.7075 15.4223 12.7075 14.5822V8.88224C12.7075 8.04216 12.7075 7.62212 12.544 7.30125C12.4002 7.01901 12.1707 6.78954 11.8885 6.64573C11.5676 6.48224 11.1476 6.48224 10.3075 6.48224H4.60752C3.76744 6.48224 3.3474 6.48224 3.02653 6.64573C2.74429 6.78954 2.51482 7.01901 2.37101 7.30125C2.20752 7.62212 2.20752 8.04216 2.20752 8.88224V14.5822C2.20752 15.4223 2.20752 15.8424 2.37101 16.1632C2.51482 16.4455 2.74429 16.6749 3.02653 16.8187C3.3474 16.9822 3.76744 16.9822 4.60752 16.9822Z" stroke="#98A2B3" stroke-width="1.5" stroke-linecap="round" stroke-linejoin="round"/>
</svg>
