<svg width="19" height="19" viewBox="0 0 19 19" fill="none" xmlns="http://www.w3.org/2000/svg">
<g clip-path="url(#clip0_1_9155)">
<path d="M12.2012 12.4822V14.5822C12.2012 15.4223 12.2012 15.8424 12.0377 16.1632C11.8939 16.4455 11.6644 16.6749 11.3822 16.8187C11.0613 16.9822 10.6413 16.9822 9.80117 16.9822H4.10117C3.26109 16.9822 2.84105 16.9822 2.52019 16.8187C2.23794 16.6749 2.00847 16.4455 1.86466 16.1632C1.70117 15.8424 1.70117 15.4223 1.70117 14.5822V8.88224C1.70117 8.04216 1.70117 7.62212 1.86466 7.30125C2.00847 7.01901 2.23794 6.78954 2.52019 6.64573C2.84105 6.48224 3.26109 6.48224 4.10117 6.48224H6.20117M8.60117 12.4822H14.3012C15.1413 12.4822 15.5613 12.4822 15.8822 12.3187C16.1644 12.1749 16.3939 11.9455 16.5377 11.6632C16.7012 11.3424 16.7012 10.9223 16.7012 10.0822V4.38224C16.7012 3.54216 16.7012 3.12212 16.5377 2.80125C16.3939 2.51901 16.1644 2.28954 15.8822 2.14573C15.5613 1.98224 15.1413 1.98224 14.3012 1.98224H8.60117C7.76109 1.98224 7.34105 1.98224 7.02019 2.14573C6.73794 2.28954 6.50847 2.51901 6.36466 2.80125C6.20117 3.12212 6.20117 3.54216 6.20117 4.38224V10.0822C6.20117 10.9223 6.20117 11.3424 6.36466 11.6632C6.50847 11.9455 6.73794 12.1749 7.02019 12.3187C7.34105 12.4822 7.76109 12.4822 8.60117 12.4822Z" stroke="#98A2B3" stroke-width="1.5" stroke-linecap="round" stroke-linejoin="round"/>
</g>
<defs>
<clipPath id="clip0_1_9155">
<rect width="18" height="18" fill="white" transform="translate(0.201172 0.4823)"/>
</clipPath>
</defs>
</svg>
