<svg width="19" height="19" viewBox="0 0 19 19" fill="none" xmlns="http://www.w3.org/2000/svg">
<path d="M4.44531 11.7322C3.7464 11.7322 3.39694 11.7322 3.12129 11.6181C2.75375 11.4658 2.46173 11.1738 2.30949 10.8063C2.19531 10.5306 2.19531 10.1812 2.19531 9.48224V4.38224C2.19531 3.54216 2.19531 3.12212 2.3588 2.80125C2.50261 2.51901 2.73208 2.28954 3.01433 2.14573C3.33519 1.98224 3.75523 1.98224 4.59531 1.98224H9.69531C10.3942 1.98224 10.7437 1.98224 11.0193 2.09642C11.3869 2.24866 11.6789 2.54067 11.8311 2.90821C11.9453 3.18387 11.9453 3.53333 11.9453 4.23224M9.84531 16.9822H14.7953C15.6354 16.9822 16.0554 16.9822 16.3763 16.8187C16.6585 16.6749 16.888 16.4455 17.0318 16.1632C17.1953 15.8424 17.1953 15.4223 17.1953 14.5822V9.63224C17.1953 8.79216 17.1953 8.37212 17.0318 8.05125C16.888 7.76901 16.6585 7.53954 16.3763 7.39573C16.0554 7.23224 15.6354 7.23224 14.7953 7.23224H9.84531C9.00523 7.23224 8.58519 7.23224 8.26433 7.39573C7.98208 7.53954 7.75261 7.76901 7.6088 8.05125C7.44531 8.37212 7.44531 8.79216 7.44531 9.63224V14.5822C7.44531 15.4223 7.44531 15.8424 7.6088 16.1632C7.75261 16.4455 7.98208 16.6749 8.26433 16.8187C8.58519 16.9822 9.00523 16.9822 9.84531 16.9822Z" stroke="#98A2B3" stroke-width="1.5" stroke-linecap="round" stroke-linejoin="round"/>
</svg>
