<svg width="19" height="19" viewBox="0 0 19 19" fill="none" xmlns="http://www.w3.org/2000/svg">
<g clip-path="url(#clip0_1_8674)">
<path d="M6.99512 1.98224V4.23224M11.4951 1.98224V4.23224M6.99512 14.7322V16.9822M11.4951 14.7322V16.9822M14.4951 7.23224H16.7451M14.4951 10.9822H16.7451M1.74512 7.23224H3.99512M1.74512 10.9822H3.99512M7.59512 14.7322H10.8951C12.1552 14.7322 12.7853 14.7322 13.2666 14.487C13.69 14.2713 14.0342 13.9271 14.2499 13.5037C14.4951 13.0224 14.4951 12.3924 14.4951 11.1322V7.83224C14.4951 6.57212 14.4951 5.94206 14.2499 5.46076C14.0342 5.0374 13.69 4.69319 13.2666 4.47747C12.7853 4.23224 12.1552 4.23224 10.8951 4.23224H7.59512C6.335 4.23224 5.70494 4.23224 5.22364 4.47747C4.80027 4.69319 4.45607 5.0374 4.24035 5.46076C3.99512 5.94206 3.99512 6.57212 3.99512 7.83224V11.1322C3.99512 12.3924 3.99512 13.0224 4.24035 13.5037C4.45607 13.9271 4.80027 14.2713 5.22364 14.487C5.70494 14.7322 6.335 14.7322 7.59512 14.7322Z" stroke="#98A2B3" stroke-width="1.5" stroke-linecap="round" stroke-linejoin="round"/>
</g>
<defs>
<clipPath id="clip0_1_8674">
<rect width="18" height="18" fill="white" transform="translate(0.245117 0.4823)"/>
</clipPath>
</defs>
</svg>
