<svg width="19" height="19" viewBox="0 0 19 19" fill="none" xmlns="http://www.w3.org/2000/svg">
<path d="M7.49316 1.98224V3.48224M11.9932 1.98224V3.48224M7.49316 15.4822V16.9822M11.9932 15.4822V16.9822M15.7432 7.23224H17.2432M15.7432 10.9822H17.2432M2.24316 7.23224H3.74316M2.24316 10.9822H3.74316M7.34316 15.4822H12.1432C13.4033 15.4822 14.0333 15.4822 14.5146 15.237C14.938 15.0213 15.2822 14.6771 15.4979 14.2537C15.7432 13.7724 15.7432 13.1424 15.7432 11.8822V7.08224C15.7432 5.82212 15.7432 5.19206 15.4979 4.71076C15.2822 4.2874 14.938 3.94319 14.5146 3.72747C14.0333 3.48224 13.4033 3.48224 12.1432 3.48224H7.34316C6.08305 3.48224 5.45299 3.48224 4.97169 3.72747C4.54832 3.94319 4.20411 4.2874 3.9884 4.71076C3.74316 5.19206 3.74316 5.82212 3.74316 7.08224V11.8822C3.74316 13.1424 3.74316 13.7724 3.9884 14.2537C4.20411 14.6771 4.54832 15.0213 4.97169 15.237C5.45299 15.4822 6.08305 15.4822 7.34316 15.4822ZM8.69316 11.7322H10.7932C11.2132 11.7322 11.4232 11.7322 11.5837 11.6505C11.7248 11.5786 11.8395 11.4639 11.9114 11.3227C11.9932 11.1623 11.9932 10.9523 11.9932 10.5322V8.43224C11.9932 8.0122 11.9932 7.80218 11.9114 7.64175C11.8395 7.50062 11.7248 7.38589 11.5837 7.31398C11.4232 7.23224 11.2132 7.23224 10.7932 7.23224H8.69316C8.27313 7.23224 8.06311 7.23224 7.90267 7.31398C7.76155 7.38589 7.64681 7.50062 7.57491 7.64175C7.49316 7.80218 7.49316 8.0122 7.49316 8.43224V10.5322C7.49316 10.9523 7.49316 11.1623 7.57491 11.3227C7.64681 11.4639 7.76155 11.5786 7.90267 11.6505C8.06311 11.7322 8.27313 11.7322 8.69316 11.7322Z" stroke="#98A2B3" stroke-width="1.5" stroke-linecap="round" stroke-linejoin="round"/>
</svg>
