<svg width="19" height="19" viewBox="0 0 19 19" fill="none" xmlns="http://www.w3.org/2000/svg">
<g clip-path="url(#clip0_1_10611)">
<path d="M6.99121 1.2323V3.4823M11.4912 1.2323V3.4823M6.99121 15.4823V17.7323M11.4912 15.4823V17.7323M15.2412 7.2323H17.4912M15.2412 10.9823H17.4912M0.991211 7.2323H3.24121M0.991211 10.9823H3.24121M4.74121 3.4823H13.7412C14.5696 3.4823 15.2412 4.15387 15.2412 4.9823V13.9823C15.2412 14.8107 14.5696 15.4823 13.7412 15.4823H4.74121C3.91278 15.4823 3.24121 14.8107 3.24121 13.9823V4.9823C3.24121 4.15387 3.91278 3.4823 4.74121 3.4823ZM6.99121 7.2323H11.4912V11.7323H6.99121V7.2323Z" stroke="#98A2B3" stroke-width="1.5" stroke-linecap="round" stroke-linejoin="round"/>
</g>
<defs>
<clipPath id="clip0_1_10611">
<rect width="18" height="18" fill="white" transform="translate(0.241211 0.4823)"/>
</clipPath>
</defs>
</svg>
