<svg width="19" height="19" viewBox="0 0 19 19" fill="none" xmlns="http://www.w3.org/2000/svg">
<path d="M15.4482 13.6072V12.2947C15.4482 11.5699 14.8606 10.9822 14.1357 10.9822C13.4109 10.9822 12.8232 11.5699 12.8232 12.2947V13.6072M16.7607 7.98224H1.76074M16.7607 8.73224V6.63224C16.7607 5.79216 16.7607 5.37212 16.5973 5.05125C16.4534 4.76901 16.224 4.53954 15.9417 4.39573C15.6209 4.23224 15.2008 4.23224 14.3607 4.23224H4.16074C3.32066 4.23224 2.90062 4.23224 2.57976 4.39573C2.29751 4.53954 2.06804 4.76901 1.92423 5.05125C1.76074 5.37212 1.76074 5.79216 1.76074 6.63224V12.3322C1.76074 13.1723 1.76074 13.5924 1.92423 13.9132C2.06804 14.1955 2.29751 14.4249 2.57976 14.5687C2.90062 14.7322 3.32066 14.7322 4.16074 14.7322H8.51074M12.7107 16.6072H15.5607C15.9808 16.6072 16.1908 16.6072 16.3512 16.5255C16.4924 16.4536 16.6071 16.3389 16.679 16.1977C16.7607 16.0373 16.7607 15.8273 16.7607 15.4072V14.8072C16.7607 14.3872 16.7607 14.1772 16.679 14.0167C16.6071 13.8756 16.4924 13.7609 16.3512 13.689C16.1908 13.6072 15.9808 13.6072 15.5607 13.6072H12.7107C12.2907 13.6072 12.0807 13.6072 11.9202 13.689C11.7791 13.7609 11.6644 13.8756 11.5925 14.0167C11.5107 14.1772 11.5107 14.3872 11.5107 14.8072V15.4072C11.5107 15.8273 11.5107 16.0373 11.5925 16.1977C11.6644 16.3389 11.7791 16.4536 11.9202 16.5255C12.0807 16.6072 12.2907 16.6072 12.7107 16.6072Z" stroke="#98A2B3" stroke-width="1.5" stroke-linecap="round" stroke-linejoin="round"/>
</svg>
