<svg width="19" height="19" viewBox="0 0 19 19" fill="none" xmlns="http://www.w3.org/2000/svg">
<path d="M16.749 7.98224H1.74902M1.74902 6.63224L1.74902 12.3322C1.74902 13.1723 1.74902 13.5924 1.91251 13.9132C2.05632 14.1955 2.28579 14.4249 2.56804 14.5687C2.88891 14.7322 3.30894 14.7322 4.14902 14.7322L14.349 14.7322C15.1891 14.7322 15.6091 14.7322 15.93 14.5687C16.2123 14.4249 16.4417 14.1955 16.5855 13.9132C16.749 13.5924 16.749 13.1723 16.749 12.3322V6.63224C16.749 5.79216 16.749 5.37212 16.5855 5.05125C16.4417 4.76901 16.2123 4.53954 15.93 4.39573C15.6091 4.23224 15.1891 4.23224 14.349 4.23224L4.14902 4.23224C3.30895 4.23224 2.88891 4.23224 2.56804 4.39573C2.28579 4.53954 2.05632 4.76901 1.91251 5.05125C1.74902 5.37212 1.74902 5.79216 1.74902 6.63224Z" stroke="#98A2B3" stroke-width="1.5" stroke-linecap="round" stroke-linejoin="round"/>
</svg>
