<svg width="19" height="19" viewBox="0 0 19 19" fill="none" xmlns="http://www.w3.org/2000/svg">
<g clip-path="url(#clip0_1_8985)">
<path d="M7.52441 12.4822L9.77441 10.2322M9.77441 10.2322L12.0244 12.4822M9.77441 10.2322V15.4822M17.2744 7.23224H2.27441M4.89941 13.9822H4.67441C3.83434 13.9822 3.4143 13.9822 3.09343 13.8187C2.81119 13.6749 2.58171 13.4455 2.4379 13.1632C2.27441 12.8424 2.27441 12.4223 2.27441 11.5822V5.88224C2.27441 5.04216 2.27441 4.62212 2.4379 4.30125C2.58171 4.01901 2.81119 3.78954 3.09343 3.64573C3.4143 3.48224 3.83434 3.48224 4.67441 3.48224H14.8744C15.7145 3.48224 16.1345 3.48224 16.4554 3.64573C16.7376 3.78954 16.9671 4.01901 17.1109 4.30125C17.2744 4.62212 17.2744 5.04216 17.2744 5.88224V11.5822C17.2744 12.4223 17.2744 12.8424 17.1109 13.1632C16.9671 13.4455 16.7376 13.6749 16.4554 13.8187C16.1345 13.9822 15.7145 13.9822 14.8744 13.9822H14.6494" stroke="#98A2B3" stroke-width="1.5" stroke-linecap="round" stroke-linejoin="round"/>
</g>
<defs>
<clipPath id="clip0_1_8985">
<rect width="18" height="18" fill="white" transform="translate(0.774414 0.4823)"/>
</clipPath>
</defs>
</svg>
