<svg width="19" height="19" viewBox="0 0 19 19" fill="none" xmlns="http://www.w3.org/2000/svg">
<g clip-path="url(#clip0_1_8969)">
<path d="M2.25879 7.98224H17.2588V6.63224C17.2588 5.79216 17.2588 5.37212 17.0953 5.05125C16.9515 4.76901 16.722 4.53954 16.4398 4.39573C16.1189 4.23224 15.6989 4.23224 14.8588 4.23224H4.65879C3.81871 4.23224 3.39867 4.23224 3.0778 4.39573C2.79556 4.53954 2.56609 4.76901 2.42228 5.05125C2.25879 5.37212 2.25879 5.79216 2.25879 6.63224V12.3322C2.25879 13.1723 2.25879 13.5924 2.42228 13.9132C2.56609 14.1955 2.79556 14.4249 3.0778 14.5687C3.39867 14.7322 3.81871 14.7322 4.65879 14.7322H9.00879M11.6338 16.2322L13.1525 15.9285C13.2849 15.902 13.3512 15.8888 13.4129 15.8645C13.4677 15.8431 13.5198 15.8152 13.5681 15.7815C13.6225 15.7436 13.6702 15.6958 13.7657 15.6003L16.8838 12.4822C17.298 12.068 17.298 11.3965 16.8838 10.9822C16.4696 10.568 15.798 10.568 15.3838 10.9822L12.2657 14.1003C12.1702 14.1958 12.1225 14.2436 12.0845 14.298C12.0508 14.3462 12.023 14.3983 12.0015 14.4531C11.9773 14.5149 11.964 14.5811 11.9375 14.7135L11.6338 16.2322Z" stroke="#98A2B3" stroke-width="1.5" stroke-linecap="round" stroke-linejoin="round"/>
</g>
<defs>
<clipPath id="clip0_1_8969">
<rect width="18" height="18" fill="white" transform="translate(0.758789 0.4823)"/>
</clipPath>
</defs>
</svg>
