<svg width="19" height="19" viewBox="0 0 19 19" fill="none" xmlns="http://www.w3.org/2000/svg">
<path d="M14.5146 16.2322V11.7322M12.2646 13.9822H16.7646M16.7646 7.98224H1.76465M16.7646 9.48224V6.63224C16.7646 5.79216 16.7646 5.37212 16.6012 5.05125C16.4573 4.76901 16.2279 4.53954 15.9456 4.39573C15.6248 4.23224 15.2047 4.23224 14.3647 4.23224H4.16465C3.32457 4.23224 2.90453 4.23224 2.58366 4.39573C2.30142 4.53954 2.07195 4.76901 1.92814 5.05125C1.76465 5.37212 1.76465 5.79216 1.76465 6.63224V12.3322C1.76465 13.1723 1.76465 13.5924 1.92814 13.9132C2.07195 14.1955 2.30142 14.4249 2.58366 14.5687C2.90453 14.7322 3.32457 14.7322 4.16465 14.7322H9.26465" stroke="#98A2B3" stroke-width="1.5" stroke-linecap="round" stroke-linejoin="round"/>
</svg>
