<svg width="19" height="19" viewBox="0 0 19 19" fill="none" xmlns="http://www.w3.org/2000/svg">
<g clip-path="url(#clip0_1_8977)">
<path d="M17.2666 7.98218H2.2666M9.0166 14.7322L14.8666 14.7322C15.7067 14.7322 16.1267 14.7322 16.4476 14.5687C16.7298 14.4249 16.9593 14.1954 17.1031 13.9132C17.2666 13.5923 17.2666 13.1723 17.2666 12.3322V6.63218C17.2666 5.7921 17.2666 5.37206 17.1031 5.05119C16.9593 4.76895 16.7298 4.53948 16.4476 4.39567C16.1267 4.23218 15.7067 4.23218 14.8666 4.23218H13.5166M9.0166 14.7322L10.5166 16.2322M9.0166 14.7322L10.5166 13.2322M6.0166 14.7322H4.6666C3.82652 14.7322 3.40648 14.7322 3.08562 14.5687C2.80337 14.4249 2.5739 14.1954 2.43009 13.9132C2.2666 13.5923 2.2666 13.1723 2.2666 12.3322V6.63218C2.2666 5.7921 2.2666 5.37206 2.43009 5.05119C2.5739 4.76895 2.80337 4.53948 3.08562 4.39567C3.40648 4.23218 3.82652 4.23218 4.6666 4.23218H10.5166M10.5166 4.23218L9.0166 5.73218M10.5166 4.23218L9.0166 2.73218" stroke="#98A2B3" stroke-width="1.5" stroke-linecap="round" stroke-linejoin="round"/>
</g>
<defs>
<clipPath id="clip0_1_8977">
<rect width="18" height="18" fill="white" transform="translate(0.766602 0.4823)"/>
</clipPath>
</defs>
</svg>
