<svg width="19" height="19" viewBox="0 0 19 19" fill="none" xmlns="http://www.w3.org/2000/svg">
<path d="M12.2529 13.9822L13.7529 15.4822L16.7529 12.4822M16.7529 7.98224H1.75293M16.7529 9.48224V6.63224C16.7529 5.79216 16.7529 5.37212 16.5894 5.05125C16.4456 4.76901 16.2162 4.53954 15.9339 4.39573C15.613 4.23224 15.193 4.23224 14.3529 4.23224H4.15293C3.31285 4.23224 2.89281 4.23224 2.57194 4.39573C2.2897 4.53954 2.06023 4.76901 1.91642 5.05125C1.75293 5.37212 1.75293 5.79216 1.75293 6.63224V12.3322C1.75293 13.1723 1.75293 13.5924 1.91642 13.9132C2.06023 14.1955 2.2897 14.4249 2.57194 14.5687C2.89281 14.7322 3.31285 14.7322 4.15293 14.7322H9.25293" stroke="#98A2B3" stroke-width="1.5" stroke-linecap="round" stroke-linejoin="round"/>
</svg>
