<svg width="19" height="19" viewBox="0 0 19 19" fill="none" xmlns="http://www.w3.org/2000/svg">
<path d="M16.7686 16.9822L15.6436 15.8572M16.7686 7.98224H1.76855M16.7686 9.48224V6.63224C16.7686 5.79216 16.7686 5.37212 16.6051 5.05125C16.4613 4.76901 16.2318 4.53954 15.9495 4.39573C15.6287 4.23224 15.2086 4.23224 14.3686 4.23224H4.16856C3.32848 4.23224 2.90844 4.23224 2.58757 4.39573C2.30533 4.53954 2.07586 4.76901 1.93205 5.05125C1.76855 5.37212 1.76855 5.79216 1.76855 6.63224V12.3322C1.76855 13.1723 1.76855 13.5924 1.93204 13.9132C2.07586 14.1955 2.30533 14.4249 2.58757 14.5687C2.90844 14.7322 3.32848 14.7322 4.16855 14.7322H8.14356M16.3936 13.9822C16.3936 15.432 15.2183 16.6072 13.7686 16.6072C12.3188 16.6072 11.1436 15.432 11.1436 13.9822C11.1436 12.5325 12.3188 11.3572 13.7686 11.3572C15.2183 11.3572 16.3936 12.5325 16.3936 13.9822Z" stroke="#98A2B3" stroke-width="1.5" stroke-linecap="round" stroke-linejoin="round"/>
</svg>
