<svg width="19" height="19" viewBox="0 0 19 19" fill="none" xmlns="http://www.w3.org/2000/svg">
<path d="M12.2725 13.9822L14.5225 11.7322M14.5225 11.7322L16.7725 13.9822M14.5225 11.7322V16.2322M16.7725 7.98224H1.77246M16.7725 9.48224V6.63224C16.7725 5.79216 16.7725 5.37212 16.609 5.05125C16.4652 4.76901 16.2357 4.53954 15.9534 4.39573C15.6326 4.23224 15.2125 4.23224 14.3725 4.23224H4.17246C3.33238 4.23224 2.91234 4.23224 2.59148 4.39573C2.30923 4.53954 2.07976 4.76901 1.93595 5.05125C1.77246 5.37212 1.77246 5.79216 1.77246 6.63224V12.3322C1.77246 13.1723 1.77246 13.5924 1.93595 13.9132C2.07976 14.1955 2.30923 14.4249 2.59148 14.5687C2.91234 14.7322 3.33238 14.7322 4.17246 14.7322H9.27246" stroke="#98A2B3" stroke-width="1.5" stroke-linecap="round" stroke-linejoin="round"/>
</svg>
