<svg width="19" height="19" viewBox="0 0 19 19" fill="none" xmlns="http://www.w3.org/2000/svg">
<path d="M7.00684 13.2322L9.25684 15.4822M9.25684 15.4822L11.5068 13.2322M9.25684 15.4822V10.2322M16.7568 7.23224H1.75684M4.38184 13.9822H4.15684C3.31676 13.9822 2.89672 13.9822 2.57585 13.8187C2.29361 13.6749 2.06414 13.4455 1.92033 13.1632C1.75684 12.8424 1.75684 12.4223 1.75684 11.5822V5.88224C1.75684 5.04216 1.75684 4.62212 1.92033 4.30125C2.06414 4.01901 2.29361 3.78954 2.57585 3.64573C2.89672 3.48224 3.31676 3.48224 4.15684 3.48224H14.3568C15.1969 3.48224 15.617 3.48224 15.9378 3.64573C16.2201 3.78954 16.4495 4.01901 16.5933 4.30125C16.7568 4.62212 16.7568 5.04216 16.7568 5.88224V11.5822C16.7568 12.4223 16.7568 12.8424 16.5933 13.1632C16.4495 13.4455 16.2201 13.6749 15.9378 13.8187C15.617 13.9822 15.1969 13.9822 14.3568 13.9822H14.1318" stroke="#98A2B3" stroke-width="1.5" stroke-linecap="round" stroke-linejoin="round"/>
</svg>
