<svg width="19" height="19" viewBox="0 0 19 19" fill="none" xmlns="http://www.w3.org/2000/svg">
<g clip-path="url(#clip0_1_8981)">
<path d="M17.2705 7.98224H2.27051M17.2705 8.73224V6.63224C17.2705 5.79216 17.2705 5.37212 17.107 5.05125C16.9632 4.76901 16.7337 4.53954 16.4515 4.39573C16.1306 4.23224 15.7106 4.23224 14.8705 4.23224H4.67051C3.83043 4.23224 3.41039 4.23224 3.08952 4.39573C2.80728 4.53954 2.57781 4.76901 2.434 5.05125C2.27051 5.37212 2.27051 5.79216 2.27051 6.63224V12.3322C2.27051 13.1723 2.27051 13.5924 2.434 13.9132C2.57781 14.1955 2.80728 14.4249 3.08952 14.5687C3.41039 14.7322 3.83043 14.7322 4.67051 14.7322H9.39551M14.2705 16.2322C14.2705 16.2322 16.5205 15.1598 16.5205 13.5512V11.6744L14.8798 11.0881C14.4856 10.9469 14.0545 10.9469 13.6603 11.0881L12.0205 11.6744V13.5512C12.0205 15.1598 14.2705 16.2322 14.2705 16.2322Z" stroke="#98A2B3" stroke-width="1.5" stroke-linecap="round" stroke-linejoin="round"/>
</g>
<defs>
<clipPath id="clip0_1_8981">
<rect width="18" height="18" fill="white" transform="translate(0.770508 0.4823)"/>
</clipPath>
</defs>
</svg>
