<svg width="19" height="19" viewBox="0 0 19 19" fill="none" xmlns="http://www.w3.org/2000/svg">
<path d="M17.251 7.98224H2.25098M9.00098 10.9822H5.25098M2.25098 6.63224L2.25098 12.3322C2.25098 13.1723 2.25098 13.5924 2.41447 13.9132C2.55828 14.1955 2.78775 14.4249 3.06999 14.5687C3.39086 14.7322 3.8109 14.7322 4.65098 14.7322L14.851 14.7322C15.6911 14.7322 16.1111 14.7322 16.432 14.5687C16.7142 14.4249 16.9437 14.1955 17.0875 13.9132C17.251 13.5924 17.251 13.1723 17.251 12.3322V6.63224C17.251 5.79216 17.251 5.37212 17.0875 5.05125C16.9437 4.76901 16.7142 4.53954 16.432 4.39573C16.1111 4.23224 15.6911 4.23224 14.851 4.23224L4.65098 4.23224C3.8109 4.23224 3.39086 4.23224 3.06999 4.39573C2.78775 4.53954 2.55828 4.76901 2.41447 5.05125C2.25098 5.37212 2.25098 5.79216 2.25098 6.63224Z" stroke="#98A2B3" stroke-width="1.5" stroke-linecap="round" stroke-linejoin="round"/>
</svg>
