<svg width="19" height="19" viewBox="0 0 19 19" fill="none" xmlns="http://www.w3.org/2000/svg">
<g clip-path="url(#clip0_1_8965)">
<path d="M12.7549 13.9822L15.0049 16.2322M15.0049 16.2322L17.2549 13.9822M15.0049 16.2322V11.7322M17.2549 7.98224H2.25488M17.2549 9.48224V6.63224C17.2549 5.79216 17.2549 5.37212 17.0914 5.05125C16.9476 4.76901 16.7181 4.53954 16.4359 4.39573C16.115 4.23224 15.695 4.23224 14.8549 4.23224H4.65488C3.8148 4.23224 3.39477 4.23224 3.0739 4.39573C2.79165 4.53954 2.56218 4.76901 2.41837 5.05125C2.25488 5.37212 2.25488 5.79216 2.25488 6.63224V12.3322C2.25488 13.1723 2.25488 13.5924 2.41837 13.9132C2.56218 14.1955 2.79165 14.4249 3.0739 14.5687C3.39476 14.7322 3.8148 14.7322 4.65488 14.7322H9.75488" stroke="#98A2B3" stroke-width="1.5" stroke-linecap="round" stroke-linejoin="round"/>
</g>
<defs>
<clipPath id="clip0_1_8965">
<rect width="18" height="18" fill="white" transform="translate(0.754883 0.4823)"/>
</clipPath>
</defs>
</svg>
