<svg width="19" height="19" viewBox="0 0 19 19" fill="none" xmlns="http://www.w3.org/2000/svg">
<path d="M12.6514 12.4822L16.4014 16.2322M16.4014 12.4822L12.6514 16.2322M16.7764 7.98224H1.77637M16.7764 9.48224V6.63224C16.7764 5.79216 16.7764 5.37212 16.6129 5.05125C16.4691 4.76901 16.2396 4.53954 15.9574 4.39573C15.6365 4.23224 15.2164 4.23224 14.3764 4.23224H4.17637C3.33629 4.23224 2.91625 4.23224 2.59538 4.39573C2.31314 4.53954 2.08367 4.76901 1.93986 5.05125C1.77637 5.37212 1.77637 5.79216 1.77637 6.63224V12.3322C1.77637 13.1723 1.77637 13.5924 1.93986 13.9132C2.08367 14.1955 2.31314 14.4249 2.59538 14.5687C2.91625 14.7322 3.33629 14.7322 4.17637 14.7322H9.27637" stroke="#98A2B3" stroke-width="1.5" stroke-linecap="round" stroke-linejoin="round"/>
</svg>
