<svg width="19" height="19" viewBox="0 0 19 19" fill="none" xmlns="http://www.w3.org/2000/svg">
<g clip-path="url(#clip0_1_8973)">
<path d="M12.7627 13.9822H17.2627M17.2627 7.98224H2.2627M17.2627 10.6072V6.63224C17.2627 5.79216 17.2627 5.37212 17.0992 5.05125C16.9554 4.76901 16.7259 4.53954 16.4437 4.39573C16.1228 4.23224 15.7028 4.23224 14.8627 4.23224H4.6627C3.82262 4.23224 3.40258 4.23224 3.08171 4.39573C2.79947 4.53954 2.57 4.76901 2.42619 5.05125C2.2627 5.37212 2.2627 5.79216 2.2627 6.63224V12.3322C2.2627 13.1723 2.2627 13.5924 2.42619 13.9132C2.57 14.1955 2.79947 14.4249 3.08171 14.5687C3.40258 14.7322 3.82262 14.7322 4.6627 14.7322H9.7627" stroke="#98A2B3" stroke-width="1.5" stroke-linecap="round" stroke-linejoin="round"/>
</g>
<defs>
<clipPath id="clip0_1_8973">
<rect width="18" height="18" fill="white" transform="translate(0.762695 0.4823)"/>
</clipPath>
</defs>
</svg>
