<svg width="19" height="19" viewBox="0 0 19 19" fill="none" xmlns="http://www.w3.org/2000/svg">
<g clip-path="url(#clip0_1_8995)">
<path d="M2.06934 2.48425L3.56934 3.98425M17.0693 2.48425L15.5693 3.98425M17.0693 17.4843L15.5693 15.9843M2.06934 17.4843L3.56934 15.9843M2.06934 12.9843H3.19434M6.56934 2.48425V3.60925M17.0693 6.98425H15.9443M12.5693 17.4843V16.3593M14.0693 12.9843H16.6943M12.5693 2.48425V5.48425M2.06934 6.98425H5.06934M6.56934 17.4843V14.4843M9.14507 6.65852L6.2436 9.55999C6.09509 9.7085 6.02084 9.78275 5.99302 9.86837C5.96855 9.94369 5.96855 10.0248 5.99302 10.1001C6.02084 10.1858 6.09509 10.26 6.2436 10.4085L9.14507 13.31C9.29358 13.4585 9.36783 13.5327 9.45346 13.5606C9.52877 13.585 9.6099 13.585 9.68522 13.5606C9.77084 13.5327 9.84509 13.4585 9.9936 13.31L12.8951 10.4085C13.0436 10.26 13.1178 10.1858 13.1457 10.1001C13.1701 10.0248 13.1701 9.94369 13.1457 9.86837C13.1178 9.78275 13.0436 9.7085 12.8951 9.55999L9.9936 6.65852C9.84509 6.51001 9.77084 6.43576 9.68522 6.40794C9.6099 6.38347 9.52877 6.38347 9.45346 6.40794C9.36783 6.43576 9.29358 6.51001 9.14507 6.65852Z" stroke="#98A2B3" stroke-width="1.5" stroke-linecap="round" stroke-linejoin="round"/>
</g>
<defs>
<clipPath id="clip0_1_8995">
<rect width="18" height="18" fill="white" transform="translate(0.569824 0.984253)"/>
</clipPath>
</defs>
</svg>
