<svg width="19" height="19" viewBox="0 0 19 19" fill="none" xmlns="http://www.w3.org/2000/svg">
<path d="M13.6964 15.5499C12.4151 16.4808 10.8719 16.9822 9.28802 16.9822C7.70418 16.9822 6.16099 16.4808 4.87963 15.5499M12.5758 2.74128C13.9994 3.4356 15.1666 4.56275 15.9101 5.9612C16.6537 7.35965 16.9355 8.95761 16.715 10.526M1.86108 10.526C1.64066 8.95754 1.92242 7.35958 2.66599 5.96113C3.40956 4.56268 4.57676 3.43552 6.00031 2.74121M8.86376 5.4065L5.21229 9.05798C5.06378 9.20648 4.98953 9.28074 4.9617 9.36636C4.93723 9.44168 4.93723 9.52281 4.9617 9.59812C4.98953 9.68375 5.06378 9.758 5.21229 9.90651L8.86376 13.558C9.01226 13.7065 9.08652 13.7807 9.17214 13.8086C9.24746 13.833 9.32859 13.833 9.4039 13.8086C9.48953 13.7807 9.56378 13.7065 9.71229 13.558L13.3638 9.90651C13.5123 9.758 13.5865 9.68375 13.6143 9.59812C13.6388 9.52281 13.6388 9.44168 13.6143 9.36636C13.5865 9.28074 13.5123 9.20648 13.3638 9.05798L9.71229 5.4065C9.56378 5.258 9.48953 5.18375 9.4039 5.15592C9.32859 5.13145 9.24746 5.13145 9.17214 5.15592C9.08652 5.18375 9.01226 5.258 8.86376 5.4065Z" stroke="#98A2B3" stroke-width="1.5" stroke-linecap="round" stroke-linejoin="round"/>
</svg>
