<svg width="19" height="19" viewBox="0 0 19 19" fill="none" xmlns="http://www.w3.org/2000/svg">
<g clip-path="url(#clip0_1_8993)">
<path d="M2.29004 1.98224L3.79004 3.48224M17.29 1.98224L15.79 3.48224M17.29 16.9822L15.79 15.4822M2.29004 16.9822L3.79004 15.4822M2.29004 12.4822H3.41504M6.79004 1.98224V3.10724M17.29 6.48224H16.165M12.79 16.9822V15.8572M14.29 12.4822H16.915M12.79 1.98224V4.98224M2.29004 6.48224H5.29004M6.79004 16.9822V13.9822M12.79 9.48224C12.79 11.1391 11.4469 12.4822 9.79004 12.4822C8.13319 12.4822 6.79004 11.1391 6.79004 9.48224C6.79004 7.82539 8.13319 6.48224 9.79004 6.48224C11.4469 6.48224 12.79 7.82539 12.79 9.48224Z" stroke="#98A2B3" stroke-width="1.5" stroke-linecap="round" stroke-linejoin="round"/>
</g>
<defs>
<clipPath id="clip0_1_8993">
<rect width="18" height="18" fill="white" transform="translate(0.790039 0.4823)"/>
</clipPath>
</defs>
</svg>
