<svg width="19" height="19" viewBox="0 0 19 19" fill="none" xmlns="http://www.w3.org/2000/svg">
<g clip-path="url(#clip0_1_8989)">
<path d="M14.1945 15.5499C12.9131 16.4808 11.3699 16.9822 9.78607 16.9822C8.20222 16.9822 6.65904 16.4808 5.37768 15.5499M13.0739 2.74128C14.4974 3.4356 15.6646 4.56275 16.4082 5.9612C17.1517 7.35965 17.4335 8.95761 17.2131 10.526M2.35913 10.526C2.1387 8.95754 2.42046 7.35958 3.16403 5.96113C3.9076 4.56268 5.07481 3.43552 6.49836 2.74121M13.9111 9.48224C13.9111 11.7604 12.0642 13.6072 9.78607 13.6072C7.50789 13.6072 5.66107 11.7604 5.66107 9.48224C5.66107 7.20407 7.50789 5.35724 9.78607 5.35724C12.0642 5.35724 13.9111 7.20407 13.9111 9.48224Z" stroke="#98A2B3" stroke-width="1.5" stroke-linecap="round" stroke-linejoin="round"/>
</g>
<defs>
<clipPath id="clip0_1_8989">
<rect width="18" height="18" fill="white" transform="translate(0.786133 0.4823)"/>
</clipPath>
</defs>
</svg>
