<svg width="19" height="19" viewBox="0 0 19 19" fill="none" xmlns="http://www.w3.org/2000/svg">
<g clip-path="url(#clip0_1_9527)">
<path d="M7.3916 16.5466L8.49633 17.1604C8.70904 17.2785 8.81539 17.3376 8.92802 17.3608C9.0277 17.3813 9.13051 17.3813 9.23019 17.3608C9.34282 17.3376 9.44917 17.2785 9.66188 17.1604L10.7666 16.5466M4.0166 14.6716L2.94633 14.077C2.72169 13.9522 2.60936 13.8898 2.52758 13.8011C2.45522 13.7226 2.40046 13.6295 2.36697 13.5281C2.3291 13.4135 2.3291 13.285 2.3291 13.028V11.8591M2.3291 8.10913V6.94022C2.3291 6.68324 2.3291 6.55475 2.36697 6.44015C2.40046 6.33876 2.45522 6.2457 2.52758 6.16719C2.60937 6.07843 2.72169 6.01603 2.94633 5.89123L4.0166 5.29663M7.3916 3.42163L8.49633 2.8079C8.70904 2.68973 8.81539 2.63064 8.92802 2.60748C9.0277 2.58698 9.13051 2.58698 9.23019 2.60748C9.34282 2.63064 9.44917 2.68973 9.66188 2.80789L10.7666 3.42163M14.1416 5.29663L15.2119 5.89123C15.4365 6.01603 15.5488 6.07843 15.6306 6.16718C15.703 6.2457 15.7577 6.33876 15.7912 6.44015C15.8291 6.55474 15.8291 6.68324 15.8291 6.94022V8.10913M15.8291 11.8591V13.028C15.8291 13.285 15.8291 13.4135 15.7912 13.5281C15.7577 13.6295 15.703 13.7226 15.6306 13.8011C15.5488 13.8898 15.4365 13.9522 15.2119 14.077L14.1416 14.6716M7.3916 9.04663L9.0791 9.98413M9.0791 9.98413L10.7666 9.04663M9.0791 9.98413V11.8591M2.3291 6.23413L4.0166 7.17163M14.1416 7.17163L15.8291 6.23413M9.0791 15.6091V17.4841" stroke="#98A2B3" stroke-width="1.5" stroke-linecap="round" stroke-linejoin="round"/>
</g>
<defs>
<clipPath id="clip0_1_9527">
<rect width="18" height="18" fill="white" transform="translate(0.0795898 0.984253)"/>
</clipPath>
</defs>
</svg>
