<svg width="19" height="19" viewBox="0 0 19 19" fill="none" xmlns="http://www.w3.org/2000/svg">
<path d="M2.7002 6.98413H12.0752M12.0752 6.98413V16.3591M12.0752 6.98413L15.4502 3.60913M15.8252 12.4871V3.83413C15.8252 3.62411 15.8252 3.5191 15.7843 3.43888C15.7484 3.36832 15.691 3.31096 15.6204 3.275C15.5402 3.23413 15.4352 3.23413 15.2252 3.23413H6.57225C6.38881 3.23413 6.29709 3.23413 6.21077 3.25485C6.13424 3.27323 6.06109 3.30353 5.99398 3.34465C5.91829 3.39103 5.85344 3.45589 5.72372 3.5856L2.67667 6.63266C2.54695 6.76237 2.4821 6.82723 2.43572 6.90292C2.39459 6.97002 2.36429 7.04318 2.34592 7.11971C2.3252 7.20602 2.3252 7.29775 2.3252 7.48119V16.1341C2.3252 16.3442 2.3252 16.4492 2.36607 16.5294C2.40202 16.5999 2.45939 16.6573 2.52995 16.6933C2.61017 16.7341 2.71518 16.7341 2.9252 16.7341H11.5781C11.7616 16.7341 11.8533 16.7341 11.9396 16.7134C12.0161 16.695 12.0893 16.6647 12.1564 16.6236C12.2321 16.5772 12.297 16.5124 12.4267 16.3827L15.4737 13.3356C15.6034 13.2059 15.6683 13.141 15.7147 13.0653C15.7558 12.9982 15.7861 12.9251 15.8045 12.8486C15.8252 12.7622 15.8252 12.6705 15.8252 12.4871Z" stroke="#98A2B3" stroke-width="1.5" stroke-linecap="round" stroke-linejoin="round"/>
</svg>
