<svg width="19" height="19" viewBox="0 0 19 19" fill="none" xmlns="http://www.w3.org/2000/svg">
<path d="M15.9526 12.9841H6.57764M6.57764 12.9841V3.60913M6.57764 12.9841L3.20264 16.3591M3.20264 6.98413H12.5776M12.5776 6.98413V16.3591M12.5776 6.98413L15.9526 3.60913M16.3276 12.4871V3.83413C16.3276 3.62411 16.3276 3.5191 16.2868 3.43888C16.2508 3.36832 16.1934 3.31096 16.1229 3.275C16.0427 3.23413 15.9377 3.23413 15.7276 3.23413H7.07469C6.89125 3.23413 6.79953 3.23413 6.71321 3.25485C6.63669 3.27323 6.56353 3.30353 6.49642 3.34465C6.42074 3.39103 6.35588 3.45589 6.22617 3.5856L3.17911 6.63266C3.04939 6.76237 2.98454 6.82723 2.93816 6.90292C2.89704 6.97002 2.86673 7.04318 2.84836 7.11971C2.82764 7.20602 2.82764 7.29775 2.82764 7.48119V16.1341C2.82764 16.3442 2.82764 16.4492 2.86851 16.5294C2.90446 16.5999 2.96183 16.6573 3.03239 16.6933C3.11261 16.7341 3.21762 16.7341 3.42764 16.7341H12.0806C12.264 16.7341 12.3557 16.7341 12.4421 16.7134C12.5186 16.695 12.5917 16.6647 12.6589 16.6236C12.7345 16.5772 12.7994 16.5124 12.9291 16.3827L15.9762 13.3356C16.1059 13.2059 16.1707 13.141 16.2171 13.0653C16.2582 12.9982 16.2885 12.9251 16.3069 12.8486C16.3276 12.7622 16.3276 12.6705 16.3276 12.4871Z" stroke="#98A2B3" stroke-width="1.5" stroke-linecap="round" stroke-linejoin="round"/>
</svg>
