<svg width="19" height="19" viewBox="0 0 19 19" fill="none" xmlns="http://www.w3.org/2000/svg">
<g clip-path="url(#clip0_1_9519)">
<path d="M15.4468 6.44245L9.07176 9.98411M9.07176 9.98411L2.69675 6.44245M9.07176 9.98411L9.07178 17.1091M15.8218 13.0281V6.94022C15.8218 6.68324 15.8218 6.55474 15.7839 6.44015C15.7504 6.33876 15.6957 6.2457 15.6233 6.16718C15.5415 6.07843 15.4292 6.01603 15.2046 5.89123L9.65455 2.80789C9.44185 2.68973 9.3355 2.63064 9.22287 2.60748C9.12319 2.58698 9.02037 2.58698 8.92069 2.60748C8.80806 2.63064 8.70171 2.68973 8.48901 2.8079L2.93901 5.89123C2.71436 6.01603 2.60204 6.07843 2.52025 6.16719C2.4479 6.2457 2.39314 6.33876 2.35964 6.44015C2.32178 6.55475 2.32178 6.68324 2.32178 6.94022V13.0281C2.32178 13.285 2.32178 13.4135 2.35964 13.5281C2.39314 13.6295 2.4479 13.7226 2.52025 13.8011C2.60204 13.8898 2.71436 13.9522 2.93901 14.077L8.48901 17.1604C8.70171 17.2785 8.80806 17.3376 8.92069 17.3608C9.02037 17.3813 9.12319 17.3813 9.22287 17.3608C9.3355 17.3376 9.44185 17.2785 9.65455 17.1604L15.2046 14.077C15.4292 13.9522 15.5415 13.8898 15.6233 13.8011C15.6957 13.7226 15.7504 13.6295 15.7839 13.5281C15.8218 13.4135 15.8218 13.285 15.8218 13.0281Z" stroke="#98A2B3" stroke-width="1.5" stroke-linecap="round" stroke-linejoin="round"/>
</g>
<defs>
<clipPath id="clip0_1_9519">
<rect width="18" height="18" fill="white" transform="translate(0.0712891 0.984253)"/>
</clipPath>
</defs>
</svg>
