<svg width="19" height="19" viewBox="0 0 19 19" fill="none" xmlns="http://www.w3.org/2000/svg">
<g clip-path="url(#clip0_1_9521)">
<path d="M9.57324 2.85913V9.98413M9.57324 9.98413L15.9482 6.44242M9.57324 9.98413L3.19824 6.44242M9.57324 9.98413V17.1091M15.9482 13.5258L10.156 10.3079C9.94331 10.1897 9.83696 10.1306 9.72433 10.1075C9.62465 10.087 9.52184 10.087 9.42216 10.1075C9.30953 10.1306 9.20318 10.1897 8.99047 10.3079L3.19824 13.5258M16.3232 13.0281V6.94022C16.3232 6.68324 16.3232 6.55474 16.2854 6.44015C16.2519 6.33876 16.1971 6.2457 16.1248 6.16718C16.043 6.07843 15.9307 6.01603 15.706 5.89123L10.156 2.80789C9.94331 2.68973 9.83696 2.63064 9.72433 2.60748C9.62465 2.58698 9.52184 2.58698 9.42216 2.60748C9.30953 2.63064 9.20318 2.68973 8.99047 2.8079L3.44047 5.89123C3.21583 6.01603 3.10351 6.07843 3.02172 6.16719C2.94936 6.2457 2.8946 6.33876 2.86111 6.44015C2.82324 6.55475 2.82324 6.68324 2.82324 6.94022V13.0281C2.82324 13.285 2.82324 13.4135 2.86111 13.5281C2.8946 13.6295 2.94936 13.7226 3.02172 13.8011C3.10351 13.8898 3.21583 13.9522 3.44047 14.077L8.99047 17.1604C9.20318 17.2785 9.30953 17.3376 9.42216 17.3608C9.52184 17.3813 9.62465 17.3813 9.72433 17.3608C9.83696 17.3376 9.94331 17.2785 10.156 17.1604L15.706 14.077C15.9307 13.9522 16.043 13.8898 16.1248 13.8011C16.1971 13.7226 16.2519 13.6295 16.2854 13.5281C16.3232 13.4135 16.3232 13.285 16.3232 13.0281Z" stroke="#98A2B3" stroke-width="1.5" stroke-linecap="round" stroke-linejoin="round"/>
</g>
<defs>
<clipPath id="clip0_1_9521">
<rect width="18" height="18" fill="white" transform="translate(0.573242 0.984253)"/>
</clipPath>
</defs>
</svg>
