<svg width="19" height="19" viewBox="0 0 19 19" fill="none" xmlns="http://www.w3.org/2000/svg">
<g clip-path="url(#clip0_1_9011)">
<path d="M11.5947 7.18912C10.9313 6.59532 10.0552 6.23425 9.09473 6.23425C7.02366 6.23425 5.34473 7.91319 5.34473 9.98425C5.34473 12.0553 7.02366 13.7343 9.09473 13.7343C10.0552 13.7343 10.9313 13.3732 11.5947 12.7794M4.59473 11.1093H8.34473M4.59473 8.85925H8.34473M16.5947 9.98425C16.5947 14.1264 13.2369 17.4843 9.09473 17.4843C4.95259 17.4843 1.59473 14.1264 1.59473 9.98425C1.59473 5.84212 4.95259 2.48425 9.09473 2.48425C13.2369 2.48425 16.5947 5.84212 16.5947 9.98425Z" stroke="#98A2B3" stroke-width="1.5" stroke-linecap="round" stroke-linejoin="round"/>
</g>
<defs>
<clipPath id="clip0_1_9011">
<rect width="18" height="18" fill="white" transform="translate(0.0952148 0.984253)"/>
</clipPath>
</defs>
</svg>
