<svg width="19" height="19" viewBox="0 0 19 19" fill="none" xmlns="http://www.w3.org/2000/svg">
<g clip-path="url(#clip0_1_8999)">
<path d="M7.20801 6.60925H10.3955C11.3275 6.60925 12.083 7.36477 12.083 8.29675C12.083 9.22873 11.3275 9.98425 10.3955 9.98425H7.20801H10.7705C11.7025 9.98425 12.458 10.7398 12.458 11.6718C12.458 12.6037 11.7025 13.3593 10.7705 13.3593H7.20801M7.20801 6.60925H6.08301M7.20801 6.60925V13.3593M7.20801 13.3593H6.08301M7.58301 5.48425V6.60925M7.58301 13.3593V14.4843M9.83301 5.48425V6.60925M9.83301 13.3593V14.4843M16.583 9.98425C16.583 14.1264 13.2251 17.4843 9.08301 17.4843C4.94087 17.4843 1.58301 14.1264 1.58301 9.98425C1.58301 5.84212 4.94087 2.48425 9.08301 2.48425C13.2251 2.48425 16.583 5.84212 16.583 9.98425Z" stroke="#98A2B3" stroke-width="1.5" stroke-linecap="round" stroke-linejoin="round"/>
</g>
<defs>
<clipPath id="clip0_1_8999">
<rect width="18" height="18" fill="white" transform="translate(0.0830078 0.984253)"/>
</clipPath>
</defs>
</svg>
