<svg width="19" height="19" viewBox="0 0 19 19" fill="none" xmlns="http://www.w3.org/2000/svg">
<g clip-path="url(#clip0_1_9003)">
<path d="M6.46191 11.9843C6.46191 12.9508 7.24542 13.7343 8.21191 13.7343H9.83691C10.8724 13.7343 11.7119 12.8948 11.7119 11.8593C11.7119 10.8237 10.8724 9.98425 9.83691 9.98425H8.33691C7.30138 9.98425 6.46191 9.14479 6.46191 8.10925C6.46191 7.07372 7.30138 6.23425 8.33691 6.23425H9.96191C10.9284 6.23425 11.7119 7.01776 11.7119 7.98425M9.08691 5.10925V6.23425M9.08691 13.7343V14.8593M16.5869 9.98425C16.5869 14.1264 13.2291 17.4843 9.08691 17.4843C4.94478 17.4843 1.58691 14.1264 1.58691 9.98425C1.58691 5.84212 4.94478 2.48425 9.08691 2.48425C13.2291 2.48425 16.5869 5.84212 16.5869 9.98425Z" stroke="#98A2B3" stroke-width="1.5" stroke-linecap="round" stroke-linejoin="round"/>
</g>
<defs>
<clipPath id="clip0_1_9003">
<rect width="18" height="18" fill="white" transform="translate(0.0874023 0.984253)"/>
</clipPath>
</defs>
</svg>
