<svg width="19" height="19" viewBox="0 0 19 19" fill="none" xmlns="http://www.w3.org/2000/svg">
<g clip-path="url(#clip0_1_8682)">
<path d="M10.6353 15.9843C10.6353 16.8127 9.96368 17.4843 9.13525 17.4843C8.30683 17.4843 7.63525 16.8127 7.63525 15.9843M10.6353 15.9843C10.6353 15.1558 9.96368 14.4843 9.13525 14.4843M10.6353 15.9843H15.8853M7.63525 15.9843C7.63525 15.1558 8.30683 14.4843 9.13525 14.4843M7.63525 15.9843H2.38525M9.13525 14.4843V11.4843M15.8853 4.73425C15.8853 5.97689 12.8632 6.98425 9.13525 6.98425C5.40733 6.98425 2.38525 5.97689 2.38525 4.73425M15.8853 4.73425C15.8853 3.49161 12.8632 2.48425 9.13525 2.48425C5.40733 2.48425 2.38525 3.49161 2.38525 4.73425M15.8853 4.73425V9.23425C15.8853 10.4793 12.8853 11.4843 9.13525 11.4843M2.38525 4.73425V9.23425C2.38525 10.4793 5.38525 11.4843 9.13525 11.4843" stroke="#98A2B3" stroke-width="1.5" stroke-linecap="round" stroke-linejoin="round"/>
</g>
<defs>
<clipPath id="clip0_1_8682">
<rect width="18" height="18" fill="white" transform="translate(0.134277 0.984253)"/>
</clipPath>
</defs>
</svg>
