<svg width="19" height="19" viewBox="0 0 19 19" fill="none" xmlns="http://www.w3.org/2000/svg">
<g clip-path="url(#clip0_1_8676)">
<path d="M16.0265 17.4843C16.2365 17.4843 16.3415 17.4843 16.4217 17.4434C16.4923 17.4074 16.5496 17.3501 16.5856 17.2795C16.6265 17.1993 16.6265 17.0943 16.6265 16.8843V9.08425C16.6265 8.87423 16.6265 8.76923 16.5856 8.68901C16.5496 8.61845 16.4923 8.56108 16.4217 8.52513C16.3415 8.48425 16.2365 8.48425 16.0265 8.48425L14.2265 8.48425C14.0164 8.48425 13.9114 8.48425 13.8312 8.52513C13.7607 8.56108 13.7033 8.61845 13.6673 8.68901C13.6265 8.76922 13.6265 8.87423 13.6265 9.08425V10.8843C13.6265 11.0943 13.6265 11.1993 13.5856 11.2795C13.5496 11.3501 13.4923 11.4074 13.4217 11.4434C13.3415 11.4843 13.2365 11.4843 13.0265 11.4843H11.2265C11.0164 11.4843 10.9114 11.4843 10.8312 11.5251C10.7607 11.5611 10.7033 11.6184 10.6673 11.689C10.6265 11.7692 10.6265 11.8742 10.6265 12.0843V13.8843C10.6265 14.0943 10.6265 14.1993 10.5856 14.2795C10.5496 14.3501 10.4923 14.4074 10.4217 14.4434C10.3415 14.4843 10.2365 14.4843 10.0265 14.4843H8.22647C8.01645 14.4843 7.91144 14.4843 7.83122 14.5251C7.76066 14.5611 7.70329 14.6184 7.66734 14.689C7.62647 14.7692 7.62647 14.8742 7.62647 15.0843V16.8843C7.62647 17.0943 7.62647 17.1993 7.66734 17.2795C7.70329 17.3501 7.76066 17.4074 7.83122 17.4434C7.91144 17.4843 8.01645 17.4843 8.22647 17.4843L16.0265 17.4843Z" stroke="#98A2B3" stroke-width="1.5" stroke-linecap="round" stroke-linejoin="round"/>
<path d="M7.62647 6.08425C7.62647 5.87423 7.62647 5.76922 7.66734 5.68901C7.70329 5.61845 7.76066 5.56108 7.83122 5.52513C7.91144 5.48425 8.01645 5.48425 8.22647 5.48425H10.0265C10.2365 5.48425 10.3415 5.48425 10.4217 5.52513C10.4923 5.56108 10.5496 5.61845 10.5856 5.68901C10.6265 5.76922 10.6265 5.87423 10.6265 6.08425V7.88425C10.6265 8.09427 10.6265 8.19928 10.5856 8.2795C10.5496 8.35006 10.4923 8.40743 10.4217 8.44338C10.3415 8.48425 10.2365 8.48425 10.0265 8.48425H8.22647C8.01645 8.48425 7.91144 8.48425 7.83122 8.44338C7.76066 8.40743 7.70329 8.35006 7.66734 8.2795C7.62647 8.19928 7.62647 8.09427 7.62647 7.88425V6.08425Z" stroke="#98A2B3" stroke-width="1.5" stroke-linecap="round" stroke-linejoin="round"/>
<path d="M2.37646 10.5843C2.37646 10.3742 2.37646 10.2692 2.41734 10.189C2.45329 10.1184 2.51066 10.0611 2.58122 10.0251C2.66144 9.98425 2.76645 9.98425 2.97646 9.98425H4.77646C4.98648 9.98425 5.09149 9.98425 5.17171 10.0251C5.24227 10.0611 5.29964 10.1184 5.33559 10.189C5.37647 10.2692 5.37647 10.3742 5.37647 10.5843V12.3843C5.37647 12.5943 5.37647 12.6993 5.33559 12.7795C5.29964 12.8501 5.24227 12.9074 5.17171 12.9434C5.09149 12.9843 4.98648 12.9843 4.77646 12.9843H2.97646C2.76645 12.9843 2.66144 12.9843 2.58122 12.9434C2.51066 12.9074 2.45329 12.8501 2.41734 12.7795C2.37646 12.6993 2.37646 12.5943 2.37646 12.3843V10.5843Z" stroke="#98A2B3" stroke-width="1.5" stroke-linecap="round" stroke-linejoin="round"/>
<path d="M1.62646 3.08425C1.62646 2.87423 1.62646 2.76922 1.66734 2.68901C1.70329 2.61845 1.76066 2.56108 1.83122 2.52513C1.91144 2.48425 2.01645 2.48425 2.22646 2.48425H4.02647C4.23648 2.48425 4.34149 2.48425 4.42171 2.52513C4.49227 2.56108 4.54964 2.61845 4.58559 2.68901C4.62647 2.76922 4.62647 2.87423 4.62647 3.08425V4.88425C4.62647 5.09427 4.62647 5.19928 4.58559 5.2795C4.54964 5.35006 4.49227 5.40743 4.42171 5.44338C4.34149 5.48425 4.23648 5.48425 4.02647 5.48425H2.22646C2.01645 5.48425 1.91144 5.48425 1.83122 5.44338C1.76066 5.40743 1.70329 5.35006 1.66734 5.2795C1.62646 5.19928 1.62646 5.09427 1.62646 4.88425V3.08425Z" stroke="#98A2B3" stroke-width="1.5" stroke-linecap="round" stroke-linejoin="round"/>
</g>
<defs>
<clipPath id="clip0_1_8676">
<rect width="18" height="18" fill="white" transform="translate(0.126465 0.984253)"/>
</clipPath>
</defs>
</svg>
