<svg width="19" height="19" viewBox="0 0 19 19" fill="none" xmlns="http://www.w3.org/2000/svg">
<g clip-path="url(#clip0_1_8690)">
<path d="M3.14209 14.4843V14.3343C3.14209 13.0741 3.14209 12.4441 3.38733 11.9628C3.60304 11.5394 3.94725 11.1952 4.37061 10.9795C4.85191 10.7343 5.48197 10.7343 6.74209 10.7343H11.5421C12.8022 10.7343 13.4323 10.7343 13.9136 10.9795C14.3369 11.1952 14.6811 11.5394 14.8969 11.9628C15.1421 12.4441 15.1421 13.0741 15.1421 14.3343V14.4843M3.14209 14.4843C2.31366 14.4843 1.64209 15.1558 1.64209 15.9843C1.64209 16.8127 2.31366 17.4843 3.14209 17.4843C3.97052 17.4843 4.64209 16.8127 4.64209 15.9843C4.64209 15.1558 3.97052 14.4843 3.14209 14.4843ZM15.1421 14.4843C14.3137 14.4843 13.6421 15.1558 13.6421 15.9843C13.6421 16.8127 14.3137 17.4843 15.1421 17.4843C15.9705 17.4843 16.6421 16.8127 16.6421 15.9843C16.6421 15.1558 15.9705 14.4843 15.1421 14.4843ZM9.14209 14.4843C8.31366 14.4843 7.64209 15.1558 7.64209 15.9843C7.64209 16.8127 8.31366 17.4843 9.14209 17.4843C9.97052 17.4843 10.6421 16.8127 10.6421 15.9843C10.6421 15.1558 9.97052 14.4843 9.14209 14.4843ZM9.14209 14.4843V6.98425M4.64209 6.98425H13.6421C14.341 6.98425 14.6905 6.98425 14.9661 6.87007C15.3337 6.71783 15.6257 6.42582 15.7779 6.05828C15.8921 5.78262 15.8921 5.43317 15.8921 4.73425C15.8921 4.03534 15.8921 3.68588 15.7779 3.41023C15.6257 3.04269 15.3337 2.75067 14.9661 2.59843C14.6905 2.48425 14.341 2.48425 13.6421 2.48425H4.64209C3.94318 2.48425 3.59372 2.48425 3.31806 2.59843C2.95052 2.75067 2.65851 3.04269 2.50627 3.41023C2.39209 3.68588 2.39209 4.03534 2.39209 4.73425C2.39209 5.43317 2.39209 5.78262 2.50627 6.05828C2.65851 6.42582 2.95052 6.71783 3.31806 6.87007C3.59372 6.98425 3.94318 6.98425 4.64209 6.98425Z" stroke="#98A2B3" stroke-width="1.5" stroke-linecap="round" stroke-linejoin="round"/>
</g>
<defs>
<clipPath id="clip0_1_8690">
<rect width="18" height="18" fill="white" transform="translate(0.141602 0.984253)"/>
</clipPath>
</defs>
</svg>
