<svg width="19" height="19" viewBox="0 0 19 19" fill="none" xmlns="http://www.w3.org/2000/svg">
<g clip-path="url(#clip0_1_8680)">
<path d="M16.3823 4.73425C16.3823 5.97689 13.3602 6.98425 9.63233 6.98425C5.9044 6.98425 2.88232 5.97689 2.88232 4.73425M16.3823 4.73425C16.3823 3.49161 13.3602 2.48425 9.63233 2.48425C5.9044 2.48425 2.88232 3.49161 2.88232 4.73425M16.3823 4.73425V15.2343C16.3823 16.4793 13.3823 17.4843 9.63233 17.4843C5.88232 17.4843 2.88232 16.4793 2.88232 15.2343V4.73425M16.3823 8.27441C16.3823 9.51941 13.3823 10.5244 9.63233 10.5244C5.88232 10.5244 2.88232 9.51941 2.88232 8.27441M16.3823 11.8143C16.3823 13.0593 13.3823 14.0643 9.63233 14.0643C5.88232 14.0643 2.88232 13.0593 2.88232 11.8143" stroke="#98A2B3" stroke-width="1.5" stroke-linecap="round" stroke-linejoin="round"/>
</g>
<defs>
<clipPath id="clip0_1_8680">
<rect width="18" height="18" fill="white" transform="translate(0.632812 0.984253)"/>
</clipPath>
</defs>
</svg>
