<svg width="19" height="19" viewBox="0 0 19 19" fill="none" xmlns="http://www.w3.org/2000/svg">
<g clip-path="url(#clip0_1_8688)">
<path d="M8.89063 4.35925H14.3656C15.2057 4.35925 15.6257 4.35925 15.9466 4.52274C16.2289 4.66655 16.4583 4.89602 16.6021 5.17827C16.7656 5.49914 16.7656 5.91917 16.7656 6.75925V7.73425C16.7656 8.43317 16.7656 8.78262 16.6514 9.05828C16.4992 9.42582 16.2072 9.71783 15.8397 9.87007C15.564 9.98425 15.2145 9.98425 14.5156 9.98425M10.3906 15.6093H4.91563C4.07555 15.6093 3.65551 15.6093 3.33464 15.4458C3.0524 15.302 2.82293 15.0725 2.67912 14.7902C2.51563 14.4694 2.51563 14.0493 2.51563 13.2093V12.2343C2.51563 11.5353 2.51563 11.1859 2.62981 10.9102C2.78205 10.5427 3.07406 10.2507 3.4416 10.0984C3.71726 9.98425 4.06671 9.98425 4.76563 9.98425M8.36563 11.8593H10.9156C11.1256 11.8593 11.2307 11.8593 11.3109 11.8184C11.3814 11.7824 11.4388 11.7251 11.4748 11.6545C11.5156 11.5743 11.5156 11.4693 11.5156 11.2593V8.70925C11.5156 8.49923 11.5156 8.39422 11.4748 8.31401C11.4388 8.24345 11.3814 8.18608 11.3109 8.15013C11.2307 8.10925 11.1256 8.10925 10.9156 8.10925H8.36563C8.15561 8.10925 8.0506 8.10925 7.97038 8.15013C7.89982 8.18608 7.84245 8.24345 7.8065 8.31401C7.76563 8.39422 7.76563 8.49923 7.76563 8.70925V11.2593C7.76563 11.4693 7.76563 11.5743 7.8065 11.6545C7.84245 11.7251 7.89982 11.7824 7.97038 11.8184C8.0506 11.8593 8.15561 11.8593 8.36563 11.8593ZM13.9906 17.4843H16.5406C16.7506 17.4843 16.8557 17.4843 16.9359 17.4434C17.0064 17.4074 17.0638 17.3501 17.0998 17.2795C17.1406 17.1993 17.1406 17.0943 17.1406 16.8843V14.3343C17.1406 14.1242 17.1406 14.0192 17.0998 13.939C17.0638 13.8684 17.0064 13.8111 16.9359 13.7751C16.8557 13.7343 16.7506 13.7343 16.5406 13.7343H13.9906C13.7806 13.7343 13.6756 13.7343 13.5954 13.7751C13.5248 13.8111 13.4675 13.8684 13.4315 13.939C13.3906 14.0192 13.3906 14.1242 13.3906 14.3343V16.8843C13.3906 17.0943 13.3906 17.1993 13.4315 17.2795C13.4675 17.3501 13.5248 17.4074 13.5954 17.4434C13.6756 17.4843 13.7806 17.4843 13.9906 17.4843ZM2.74063 6.23425H5.29063C5.50064 6.23425 5.60565 6.23425 5.68587 6.19338C5.75643 6.15743 5.8138 6.10006 5.84975 6.0295C5.89063 5.94928 5.89063 5.84427 5.89063 5.63425V3.08425C5.89063 2.87423 5.89063 2.76922 5.84975 2.68901C5.8138 2.61845 5.75643 2.56108 5.68587 2.52513C5.60565 2.48425 5.50064 2.48425 5.29063 2.48425H2.74063C2.53061 2.48425 2.4256 2.48425 2.34538 2.52513C2.27482 2.56108 2.21745 2.61845 2.1815 2.68901C2.14062 2.76922 2.14062 2.87423 2.14062 3.08425V5.63425C2.14062 5.84427 2.14062 5.94928 2.1815 6.0295C2.21745 6.10006 2.27482 6.15743 2.34538 6.19338C2.4256 6.23425 2.53061 6.23425 2.74063 6.23425Z" stroke="#98A2B3" stroke-width="1.5" stroke-linecap="round" stroke-linejoin="round"/>
</g>
<defs>
<clipPath id="clip0_1_8688">
<rect width="18" height="18" fill="white" transform="translate(0.640625 0.984253)"/>
</clipPath>
</defs>
</svg>
