<svg width="19" height="19" viewBox="0 0 19 19" fill="none" xmlns="http://www.w3.org/2000/svg">
<g clip-path="url(#clip0_1_8686)">
<path d="M9.13867 3.98425V12.3843C9.13867 13.6444 9.13867 14.2744 9.38391 14.7557C9.59962 15.1791 9.94383 15.5233 10.3672 15.739C10.8485 15.9843 11.4786 15.9843 12.7387 15.9843H12.8887M12.8887 15.9843C12.8887 16.8127 13.5602 17.4843 14.3887 17.4843C15.2171 17.4843 15.8887 16.8127 15.8887 15.9843C15.8887 15.1558 15.2171 14.4843 14.3887 14.4843C13.5602 14.4843 12.8887 15.1558 12.8887 15.9843ZM5.38867 3.98425L12.8887 3.98425M5.38867 3.98425C5.38867 4.81268 4.7171 5.48425 3.88867 5.48425C3.06024 5.48425 2.38867 4.81268 2.38867 3.98425C2.38867 3.15583 3.06024 2.48425 3.88867 2.48425C4.7171 2.48425 5.38867 3.15583 5.38867 3.98425ZM12.8887 3.98425C12.8887 4.81268 13.5602 5.48425 14.3887 5.48425C15.2171 5.48425 15.8887 4.81268 15.8887 3.98425C15.8887 3.15583 15.2171 2.48425 14.3887 2.48425C13.5602 2.48425 12.8887 3.15583 12.8887 3.98425ZM9.13867 9.98425H12.8887M12.8887 9.98425C12.8887 10.8127 13.5602 11.4843 14.3887 11.4843C15.2171 11.4843 15.8887 10.8127 15.8887 9.98425C15.8887 9.15583 15.2171 8.48425 14.3887 8.48425C13.5602 8.48425 12.8887 9.15583 12.8887 9.98425Z" stroke="#98A2B3" stroke-width="1.5" stroke-linecap="round" stroke-linejoin="round"/>
</g>
<defs>
<clipPath id="clip0_1_8686">
<rect width="18" height="18" fill="white" transform="translate(0.138672 0.984253)"/>
</clipPath>
</defs>
</svg>
