<svg width="19" height="19" viewBox="0 0 19 19" fill="none" xmlns="http://www.w3.org/2000/svg">
<g clip-path="url(#clip0_1_10833)">
<path d="M16.3784 4.73425C16.3784 5.97689 13.3563 6.98425 9.62842 6.98425C5.9005 6.98425 2.87842 5.97689 2.87842 4.73425M16.3784 4.73425C16.3784 3.49161 13.3563 2.48425 9.62842 2.48425C5.9005 2.48425 2.87842 3.49161 2.87842 4.73425M16.3784 4.73425V15.2343C16.3784 16.4793 13.3784 17.4843 9.62842 17.4843C5.87842 17.4843 2.87842 16.4793 2.87842 15.2343V4.73425M16.3784 9.98425C16.3784 11.2293 13.3784 12.2343 9.62842 12.2343C5.87842 12.2343 2.87842 11.2293 2.87842 9.98425" stroke="#98A2B3" stroke-width="1.5" stroke-linecap="round" stroke-linejoin="round"/>
</g>
<defs>
<clipPath id="clip0_1_10833">
<rect width="18" height="18" fill="white" transform="translate(0.628906 0.984253)"/>
</clipPath>
</defs>
</svg>
