<svg width="19" height="19" viewBox="0 0 19 19" fill="none" xmlns="http://www.w3.org/2000/svg">
<g clip-path="url(#clip0_1_8678)">
<path d="M15.8804 4.73425C15.8804 5.97689 12.8583 6.98425 9.13037 6.98425C5.40245 6.98425 2.38037 5.97689 2.38037 4.73425M15.8804 4.73425C15.8804 3.49161 12.8583 2.48425 9.13037 2.48425C5.40245 2.48425 2.38037 3.49161 2.38037 4.73425M15.8804 4.73425V15.2343C15.8804 16.4793 12.8804 17.4843 9.13037 17.4843C5.38037 17.4843 2.38037 16.4793 2.38037 15.2343V4.73425M15.8804 9.98425C15.8804 11.2293 12.8804 12.2343 9.13037 12.2343C5.38037 12.2343 2.38037 11.2293 2.38037 9.98425" stroke="#98A2B3" stroke-width="1.5" stroke-linecap="round" stroke-linejoin="round"/>
</g>
<defs>
<clipPath id="clip0_1_8678">
<rect width="18" height="18" fill="white" transform="translate(0.130859 0.984253)"/>
</clipPath>
</defs>
</svg>
