<svg width="19" height="19" viewBox="0 0 19 19" fill="none" xmlns="http://www.w3.org/2000/svg">
<g clip-path="url(#clip0_1_8684)">
<path d="M13.3862 15.9843H13.2362C11.9761 15.9843 11.3461 15.9843 10.8648 15.739C10.4414 15.5233 10.0972 15.1791 9.88147 14.7557C9.63623 14.2744 9.63623 13.6444 9.63623 12.3843V7.58425C9.63623 6.32414 9.63623 5.69408 9.88147 5.21277C10.0972 4.78941 10.4414 4.4452 10.8648 4.22949C11.3461 3.98425 11.9761 3.98425 13.2362 3.98425H13.3862M13.3862 15.9843C13.3862 16.8127 14.0578 17.4843 14.8862 17.4843C15.7147 17.4843 16.3862 16.8127 16.3862 15.9843C16.3862 15.1558 15.7147 14.4843 14.8862 14.4843C14.0578 14.4843 13.3862 15.1558 13.3862 15.9843ZM13.3862 3.98425C13.3862 4.81268 14.0578 5.48425 14.8862 5.48425C15.7147 5.48425 16.3862 4.81268 16.3862 3.98425C16.3862 3.15583 15.7147 2.48425 14.8862 2.48425C14.0578 2.48425 13.3862 3.15583 13.3862 3.98425ZM5.88623 9.98425L13.3862 9.98425M5.88623 9.98425C5.88623 10.8127 5.21466 11.4843 4.38623 11.4843C3.5578 11.4843 2.88623 10.8127 2.88623 9.98425C2.88623 9.15583 3.5578 8.48425 4.38623 8.48425C5.21466 8.48425 5.88623 9.15583 5.88623 9.98425ZM13.3862 9.98425C13.3862 10.8127 14.0578 11.4843 14.8862 11.4843C15.7147 11.4843 16.3862 10.8127 16.3862 9.98425C16.3862 9.15583 15.7147 8.48425 14.8862 8.48425C14.0578 8.48425 13.3862 9.15583 13.3862 9.98425Z" stroke="#98A2B3" stroke-width="1.5" stroke-linecap="round" stroke-linejoin="round"/>
</g>
<defs>
<clipPath id="clip0_1_8684">
<rect width="18" height="18" fill="white" transform="translate(0.636719 0.984253)"/>
</clipPath>
</defs>
</svg>
