<svg width="19" height="19" viewBox="0 0 19 19" fill="none" xmlns="http://www.w3.org/2000/svg">
<path d="M12.8965 7.73419L8.39648 12.2342M8.39648 7.73419L12.8965 12.2342M2.18648 10.7042L5.42648 15.0242C5.69048 15.3762 5.82248 15.5522 5.98977 15.6791C6.13794 15.7916 6.30572 15.8754 6.48456 15.9265C6.68649 15.9842 6.90649 15.9842 7.34649 15.9842H13.0465C14.3066 15.9842 14.9367 15.9842 15.418 15.739C15.8413 15.5232 16.1855 15.179 16.4013 14.7557C16.6465 14.2744 16.6465 13.6443 16.6465 12.3842V7.58419C16.6465 6.32407 16.6465 5.69401 16.4013 5.21271C16.1855 4.78935 15.8413 4.44514 15.418 4.22943C14.9367 3.98419 14.3066 3.98419 13.0465 3.98419H7.34648C6.90649 3.98419 6.68649 3.98419 6.48456 4.04186C6.30572 4.09294 6.13794 4.17683 5.98977 4.28926C5.82248 4.41619 5.69048 4.59219 5.42648 4.94419L2.18648 9.26419C1.99284 9.52239 1.89602 9.65148 1.85869 9.79327C1.82575 9.91842 1.82575 10.05 1.85869 10.1751C1.89602 10.3169 1.99284 10.446 2.18648 10.7042Z" stroke="#98A2B3" stroke-width="1.5" stroke-linecap="round" stroke-linejoin="round"/>
</svg>
