<svg width="19" height="19" viewBox="0 0 19 19" fill="none" xmlns="http://www.w3.org/2000/svg">
<g clip-path="url(#clip0_1_9031)">
<path d="M3.9004 17.4843H14.4004M2.0254 6.98425H16.2754M7.6504 2.48425L6.1504 6.98425L9.1504 14.8593L12.1504 6.98425L10.6504 2.48425M9.59436 14.7459L16.2991 7.37072C16.4236 7.23373 16.4859 7.16524 16.5107 7.08725C16.5326 7.01852 16.5341 6.94494 16.5152 6.87534C16.4938 6.79635 16.4346 6.72524 16.316 6.58301L13.0803 2.70014C13.0142 2.62079 12.9811 2.58111 12.9406 2.55258C12.9047 2.52731 12.8646 2.50854 12.8222 2.49713C12.7743 2.48425 12.7227 2.48425 12.6194 2.48425H5.68142C5.57812 2.48425 5.52647 2.48425 5.47861 2.49713C5.43621 2.50854 5.39613 2.52731 5.36022 2.55258C5.31969 2.58111 5.28662 2.62079 5.22049 2.70014L1.98477 6.58301C1.86624 6.72524 1.80698 6.79635 1.78555 6.87534C1.76666 6.94494 1.76825 7.01852 1.79011 7.08724C1.81493 7.16524 1.8772 7.23373 2.00174 7.37072L8.70643 14.7459C8.86035 14.9152 8.9373 14.9998 9.02775 15.0312C9.1072 15.0587 9.19359 15.0587 9.27305 15.0312C9.36349 14.9998 9.44045 14.9152 9.59436 14.7459Z" stroke="#98A2B3" stroke-width="1.5" stroke-linecap="round" stroke-linejoin="round"/>
</g>
<defs>
<clipPath id="clip0_1_9031">
<rect width="18" height="18" fill="white" transform="translate(0.150391 0.984253)"/>
</clipPath>
</defs>
</svg>
