<svg width="19" height="19" viewBox="0 0 19 19" fill="none" xmlns="http://www.w3.org/2000/svg">
<path d="M2.52309 7.73413H16.7731M8.14809 3.23413L6.64809 7.73413L9.64809 16.3591L12.6481 7.73413L11.1481 3.23413M10.109 16.181L16.828 8.11824C16.9419 7.9816 16.9988 7.91327 17.0206 7.83701C17.0397 7.76976 17.0397 7.6985 17.0206 7.63126C16.9988 7.55499 16.9419 7.48667 16.828 7.35002L13.578 3.45002C13.5119 3.37066 13.4788 3.33099 13.4383 3.30246C13.4024 3.27719 13.3623 3.25842 13.3199 3.24701C13.272 3.23413 13.2204 3.23413 13.1171 3.23413H6.17911C6.07582 3.23413 6.02417 3.23413 5.9763 3.24701C5.9339 3.25842 5.89382 3.27719 5.85791 3.30246C5.81738 3.33099 5.78431 3.37066 5.71818 3.45002L2.46818 7.35002C2.35431 7.48666 2.29737 7.55499 2.27562 7.63125C2.25643 7.6985 2.25643 7.76976 2.27562 7.837C2.29737 7.91327 2.35431 7.98159 2.46818 8.11824L9.18716 16.181C9.34545 16.371 9.4246 16.4659 9.51935 16.5006C9.60249 16.531 9.69369 16.531 9.77683 16.5006C9.87159 16.4659 9.95073 16.371 10.109 16.181Z" stroke="#98A2B3" stroke-width="1.5" stroke-linecap="round" stroke-linejoin="round"/>
</svg>
