<svg width="19" height="19" viewBox="0 0 19 19" fill="none" xmlns="http://www.w3.org/2000/svg">
<path d="M11.5923 7.54663H11.596M6.71729 12.4216H6.72104M6.00479 16.7341H12.3048C13.5649 16.7341 14.195 16.7341 14.6763 16.4889C15.0996 16.2732 15.4438 15.929 15.6596 15.5056C15.9048 15.0243 15.9048 14.3943 15.9048 13.1341V6.83413C15.9048 5.57401 15.9048 4.94395 15.6596 4.46265C15.4438 4.03929 15.0996 3.69508 14.6763 3.47937C14.195 3.23413 13.5649 3.23413 12.3048 3.23413H6.00479C4.74467 3.23413 4.11461 3.23413 3.63331 3.47937C3.20994 3.69508 2.86574 4.03929 2.65002 4.46265C2.40479 4.94395 2.40479 5.57401 2.40479 6.83413V13.1341C2.40479 14.3943 2.40479 15.0243 2.65002 15.5056C2.86574 15.929 3.20994 16.2732 3.63331 16.4889C4.11461 16.7341 4.74467 16.7341 6.00479 16.7341ZM11.7798 7.54663C11.7798 7.65018 11.6958 7.73413 11.5923 7.73413C11.4887 7.73413 11.4048 7.65018 11.4048 7.54663C11.4048 7.44308 11.4887 7.35913 11.5923 7.35913C11.6958 7.35913 11.7798 7.44308 11.7798 7.54663ZM6.90479 12.4216C6.90479 12.5252 6.82084 12.6091 6.71729 12.6091C6.61373 12.6091 6.52979 12.5252 6.52979 12.4216C6.52979 12.3181 6.61373 12.2341 6.71729 12.2341C6.82084 12.2341 6.90479 12.3181 6.90479 12.4216Z" stroke="#98A2B3" stroke-width="1.5" stroke-linecap="round" stroke-linejoin="round"/>
</svg>
