<svg width="19" height="19" viewBox="0 0 19 19" fill="none" xmlns="http://www.w3.org/2000/svg">
<path d="M12.3457 6.79663H12.3495M12.3457 13.1716H12.3495M5.9707 6.79663H5.97445M5.9707 13.1716H5.97445M6.0082 16.7341H12.3082C13.5683 16.7341 14.1984 16.7341 14.6797 16.4889C15.103 16.2732 15.4473 15.929 15.663 15.5056C15.9082 15.0243 15.9082 14.3943 15.9082 13.1341V6.83413C15.9082 5.57401 15.9082 4.94395 15.663 4.46265C15.4473 4.03929 15.103 3.69508 14.6797 3.47937C14.1984 3.23413 13.5683 3.23413 12.3082 3.23413H6.0082C4.74809 3.23413 4.11803 3.23413 3.63672 3.47937C3.21336 3.69508 2.86915 4.03929 2.65344 4.46265C2.4082 4.94395 2.4082 5.57401 2.4082 6.83413V13.1341C2.4082 14.3943 2.4082 15.0243 2.65344 15.5056C2.86915 15.929 3.21336 16.2732 3.63672 16.4889C4.11803 16.7341 4.74809 16.7341 6.0082 16.7341ZM12.5332 6.79663C12.5332 6.90018 12.4493 6.98413 12.3457 6.98413C12.2422 6.98413 12.1582 6.90018 12.1582 6.79663C12.1582 6.69308 12.2422 6.60913 12.3457 6.60913C12.4493 6.60913 12.5332 6.69308 12.5332 6.79663ZM12.5332 13.1716C12.5332 13.2752 12.4493 13.3591 12.3457 13.3591C12.2422 13.3591 12.1582 13.2752 12.1582 13.1716C12.1582 13.0681 12.2422 12.9841 12.3457 12.9841C12.4493 12.9841 12.5332 13.0681 12.5332 13.1716ZM6.1582 6.79663C6.1582 6.90018 6.07426 6.98413 5.9707 6.98413C5.86715 6.98413 5.7832 6.90018 5.7832 6.79663C5.7832 6.69308 5.86715 6.60913 5.9707 6.60913C6.07426 6.60913 6.1582 6.69308 6.1582 6.79663ZM6.1582 13.1716C6.1582 13.2752 6.07426 13.3591 5.9707 13.3591C5.86715 13.3591 5.7832 13.2752 5.7832 13.1716C5.7832 13.0681 5.86715 12.9841 5.9707 12.9841C6.07426 12.9841 6.1582 13.0681 6.1582 13.1716Z" stroke="#98A2B3" stroke-width="1.5" stroke-linecap="round" stroke-linejoin="round"/>
</svg>
