<svg width="19" height="19" viewBox="0 0 19 19" fill="none" xmlns="http://www.w3.org/2000/svg">
<path d="M12.3496 6.79663H12.3534M12.3496 9.79663H12.3534M12.3496 13.1716H12.3534M5.97461 6.79663H5.97836M5.97461 9.79663H5.97836M5.97461 13.1716H5.97836M6.01211 16.7341H12.3121C13.5722 16.7341 14.2023 16.7341 14.6836 16.4889C15.107 16.2732 15.4512 15.929 15.6669 15.5056C15.9121 15.0243 15.9121 14.3943 15.9121 13.1341V6.83413C15.9121 5.57401 15.9121 4.94395 15.6669 4.46265C15.4512 4.03929 15.107 3.69508 14.6836 3.47937C14.2023 3.23413 13.5722 3.23413 12.3121 3.23413H6.01211C4.75199 3.23413 4.12193 3.23413 3.64063 3.47937C3.21727 3.69508 2.87306 4.03929 2.65734 4.46265C2.41211 4.94395 2.41211 5.57401 2.41211 6.83413V13.1341C2.41211 14.3943 2.41211 15.0243 2.65734 15.5056C2.87306 15.929 3.21727 16.2732 3.64063 16.4889C4.12193 16.7341 4.75199 16.7341 6.01211 16.7341ZM12.5371 6.79663C12.5371 6.90018 12.4532 6.98413 12.3496 6.98413C12.2461 6.98413 12.1621 6.90018 12.1621 6.79663C12.1621 6.69308 12.2461 6.60913 12.3496 6.60913C12.4532 6.60913 12.5371 6.69308 12.5371 6.79663ZM12.5371 9.79663C12.5371 9.90019 12.4532 9.98413 12.3496 9.98413C12.2461 9.98413 12.1621 9.90019 12.1621 9.79663C12.1621 9.69308 12.2461 9.60913 12.3496 9.60913C12.4532 9.60913 12.5371 9.69308 12.5371 9.79663ZM12.5371 13.1716C12.5371 13.2752 12.4532 13.3591 12.3496 13.3591C12.2461 13.3591 12.1621 13.2752 12.1621 13.1716C12.1621 13.0681 12.2461 12.9841 12.3496 12.9841C12.4532 12.9841 12.5371 13.0681 12.5371 13.1716ZM6.16211 6.79663C6.16211 6.90018 6.07816 6.98413 5.97461 6.98413C5.87106 6.98413 5.78711 6.90018 5.78711 6.79663C5.78711 6.69308 5.87106 6.60913 5.97461 6.60913C6.07816 6.60913 6.16211 6.69308 6.16211 6.79663ZM6.16211 9.79663C6.16211 9.90019 6.07816 9.98413 5.97461 9.98413C5.87106 9.98413 5.78711 9.90019 5.78711 9.79663C5.78711 9.69308 5.87106 9.60913 5.97461 9.60913C6.07816 9.60913 6.16211 9.69308 6.16211 9.79663ZM6.16211 13.1716C6.16211 13.2752 6.07816 13.3591 5.97461 13.3591C5.87106 13.3591 5.78711 13.2752 5.78711 13.1716C5.78711 13.0681 5.87106 12.9841 5.97461 12.9841C6.07816 12.9841 6.16211 13.0681 6.16211 13.1716Z" stroke="#98A2B3" stroke-width="1.5" stroke-linecap="round" stroke-linejoin="round"/>
</svg>
