<svg width="19" height="19" viewBox="0 0 19 19" fill="none" xmlns="http://www.w3.org/2000/svg">
<path d="M12.8472 6.79663H12.8509M12.8472 13.1716H12.8509M6.47217 6.79663H6.47592M9.65967 9.79663H9.66342M6.47217 13.1716H6.47592M6.50967 16.7341H12.8097C14.0698 16.7341 14.6998 16.7341 15.1811 16.4889C15.6045 16.2732 15.9487 15.929 16.1644 15.5056C16.4097 15.0243 16.4097 14.3943 16.4097 13.1341V6.83413C16.4097 5.57401 16.4097 4.94395 16.1644 4.46265C15.9487 4.03929 15.6045 3.69508 15.1811 3.47937C14.6998 3.23413 14.0698 3.23413 12.8097 3.23413H6.50967C5.24955 3.23413 4.61949 3.23413 4.13819 3.47937C3.71482 3.69508 3.37062 4.03929 3.1549 4.46265C2.90967 4.94395 2.90967 5.57401 2.90967 6.83413V13.1341C2.90967 14.3943 2.90967 15.0243 3.1549 15.5056C3.37062 15.929 3.71482 16.2732 4.13819 16.4889C4.61949 16.7341 5.24955 16.7341 6.50967 16.7341ZM13.0347 6.79663C13.0347 6.90018 12.9507 6.98413 12.8472 6.98413C12.7436 6.98413 12.6597 6.90018 12.6597 6.79663C12.6597 6.69308 12.7436 6.60913 12.8472 6.60913C12.9507 6.60913 13.0347 6.69308 13.0347 6.79663ZM13.0347 13.1716C13.0347 13.2752 12.9507 13.3591 12.8472 13.3591C12.7436 13.3591 12.6597 13.2752 12.6597 13.1716C12.6597 13.0681 12.7436 12.9841 12.8472 12.9841C12.9507 12.9841 13.0347 13.0681 13.0347 13.1716ZM6.65967 6.79663C6.65967 6.90018 6.57572 6.98413 6.47217 6.98413C6.36862 6.98413 6.28467 6.90018 6.28467 6.79663C6.28467 6.69308 6.36862 6.60913 6.47217 6.60913C6.57572 6.60913 6.65967 6.69308 6.65967 6.79663ZM9.84717 9.79663C9.84717 9.90019 9.76322 9.98413 9.65967 9.98413C9.55612 9.98413 9.47217 9.90019 9.47217 9.79663C9.47217 9.69308 9.55612 9.60913 9.65967 9.60913C9.76322 9.60913 9.84717 9.69308 9.84717 9.79663ZM6.65967 13.1716C6.65967 13.2752 6.57572 13.3591 6.47217 13.3591C6.36862 13.3591 6.28467 13.2752 6.28467 13.1716C6.28467 13.0681 6.36862 12.9841 6.47217 12.9841C6.57572 12.9841 6.65967 13.0681 6.65967 13.1716Z" stroke="#98A2B3" stroke-width="1.5" stroke-linecap="round" stroke-linejoin="round"/>
</svg>
