<svg width="19" height="19" viewBox="0 0 19 19" fill="none" xmlns="http://www.w3.org/2000/svg">
<path d="M9.65234 9.79663H9.65609M6.50234 16.7341H12.8023C14.0625 16.7341 14.6925 16.7341 15.1738 16.4889C15.5972 16.2732 15.9414 15.929 16.1571 15.5056C16.4023 15.0243 16.4023 14.3943 16.4023 13.1341V6.83413C16.4023 5.57401 16.4023 4.94395 16.1571 4.46265C15.9414 4.03929 15.5972 3.69508 15.1738 3.47937C14.6925 3.23413 14.0625 3.23413 12.8023 3.23413H6.50234C5.24223 3.23413 4.61217 3.23413 4.13087 3.47937C3.7075 3.69508 3.36329 4.03929 3.14758 4.46265C2.90234 4.94395 2.90234 5.57401 2.90234 6.83413V13.1341C2.90234 14.3943 2.90234 15.0243 3.14758 15.5056C3.36329 15.929 3.7075 16.2732 4.13087 16.4889C4.61217 16.7341 5.24223 16.7341 6.50234 16.7341ZM9.83984 9.79663C9.83984 9.90019 9.7559 9.98413 9.65234 9.98413C9.54879 9.98413 9.46484 9.90019 9.46484 9.79663C9.46484 9.69308 9.54879 9.60913 9.65234 9.60913C9.7559 9.60913 9.83984 9.69308 9.83984 9.79663Z" stroke="#98A2B3" stroke-width="1.5" stroke-linecap="round" stroke-linejoin="round"/>
</svg>
