<svg width="19" height="19" viewBox="0 0 19 19" fill="none" xmlns="http://www.w3.org/2000/svg">
<path d="M12.8438 6.79663H12.8475M9.65625 9.79663H9.66M6.46875 13.1716H6.4725M6.50625 16.7341H12.8063C14.0664 16.7341 14.6964 16.7341 15.1777 16.4889C15.6011 16.2732 15.9453 15.929 16.161 15.5056C16.4063 15.0243 16.4063 14.3943 16.4063 13.1341V6.83413C16.4063 5.57401 16.4063 4.94395 16.161 4.46265C15.9453 4.03929 15.6011 3.69508 15.1777 3.47937C14.6964 3.23413 14.0664 3.23413 12.8063 3.23413H6.50625C5.24613 3.23413 4.61607 3.23413 4.13477 3.47937C3.71141 3.69508 3.3672 4.03929 3.15149 4.46265C2.90625 4.94395 2.90625 5.57401 2.90625 6.83413V13.1341C2.90625 14.3943 2.90625 15.0243 3.15149 15.5056C3.3672 15.929 3.71141 16.2732 4.13477 16.4889C4.61607 16.7341 5.24613 16.7341 6.50625 16.7341ZM13.0313 6.79663C13.0313 6.90018 12.9473 6.98413 12.8438 6.98413C12.7402 6.98413 12.6563 6.90018 12.6563 6.79663C12.6563 6.69308 12.7402 6.60913 12.8438 6.60913C12.9473 6.60913 13.0313 6.69308 13.0313 6.79663ZM9.84375 9.79663C9.84375 9.90019 9.7598 9.98413 9.65625 9.98413C9.5527 9.98413 9.46875 9.90019 9.46875 9.79663C9.46875 9.69308 9.5527 9.60913 9.65625 9.60913C9.7598 9.60913 9.84375 9.69308 9.84375 9.79663ZM6.65625 13.1716C6.65625 13.2752 6.5723 13.3591 6.46875 13.3591C6.3652 13.3591 6.28125 13.2752 6.28125 13.1716C6.28125 13.0681 6.3652 12.9841 6.46875 12.9841C6.5723 12.9841 6.65625 13.0681 6.65625 13.1716Z" stroke="#98A2B3" stroke-width="1.5" stroke-linecap="round" stroke-linejoin="round"/>
</svg>
