<svg width="19" height="19" viewBox="0 0 19 19" fill="none" xmlns="http://www.w3.org/2000/svg">
<g clip-path="url(#clip0_1_9679)">
<path d="M11.918 5.23948C13.6917 6.08207 14.918 7.88996 14.918 9.98425M6.96228 14.4842C5.43766 13.5655 4.41797 11.894 4.41797 9.98422M17.168 9.98425C17.168 14.1264 13.8101 17.4843 9.66797 17.4843C5.52583 17.4843 2.16797 14.1264 2.16797 9.98425C2.16797 5.84212 5.52583 2.48425 9.66797 2.48425C13.8101 2.48425 17.168 5.84212 17.168 9.98425ZM11.918 9.98425C11.918 11.2269 10.9106 12.2343 9.66797 12.2343C8.42533 12.2343 7.41797 11.2269 7.41797 9.98425C7.41797 8.74161 8.42533 7.73425 9.66797 7.73425C10.9106 7.73425 11.918 8.74161 11.918 9.98425Z" stroke="#98A2B3" stroke-width="1.5" stroke-linecap="round" stroke-linejoin="round"/>
</g>
<defs>
<clipPath id="clip0_1_9679">
<rect width="18" height="18" fill="white" transform="translate(0.667969 0.984253)"/>
</clipPath>
</defs>
</svg>
