<svg width="19" height="19" viewBox="0 0 19 19" fill="none" xmlns="http://www.w3.org/2000/svg">
<path d="M15.9199 16.7341V3.23413M2.41992 16.7341V3.23413M6.91992 6.98413V12.9841C6.91992 13.683 6.91992 14.0325 7.0341 14.3082C7.18634 14.6757 7.47836 14.9677 7.8459 15.12C8.12155 15.2341 8.47101 15.2341 9.16992 15.2341C9.86883 15.2341 10.2183 15.2341 10.4939 15.12C10.8615 14.9677 11.1535 14.6757 11.3057 14.3082C11.4199 14.0325 11.4199 13.683 11.4199 12.9841V6.98413C11.4199 6.28522 11.4199 5.93576 11.3057 5.66011C11.1535 5.29256 10.8615 5.00055 10.4939 4.84831C10.2183 4.73413 9.86884 4.73413 9.16992 4.73413C8.47101 4.73413 8.12155 4.73413 7.8459 4.84831C7.47836 5.00055 7.18634 5.29256 7.0341 5.66011C6.91992 5.93576 6.91992 6.28522 6.91992 6.98413Z" stroke="#98A2B3" stroke-width="1.5" stroke-linecap="round" stroke-linejoin="round"/>
</svg>
