<svg width="19" height="19" viewBox="0 0 19 19" fill="none" xmlns="http://www.w3.org/2000/svg">
<path d="M16.4219 3.23413H2.92188M16.4219 16.7341H2.92188M4.42188 9.98413C4.42188 9.28522 4.42188 8.93576 4.53606 8.66011C4.6883 8.29256 4.98031 8.00055 5.34785 7.84831C5.62351 7.73413 5.97296 7.73413 6.67188 7.73413L12.6719 7.73413C13.3708 7.73413 13.7202 7.73413 13.9959 7.84831C14.3634 8.00055 14.6555 8.29256 14.8077 8.66011C14.9219 8.93576 14.9219 9.28522 14.9219 9.98413C14.9219 10.683 14.9219 11.0325 14.8077 11.3082C14.6555 11.6757 14.3634 11.9677 13.9959 12.12C13.7202 12.2341 13.3708 12.2341 12.6719 12.2341L6.67188 12.2341C5.97296 12.2341 5.62351 12.2341 5.34785 12.12C4.98031 11.9677 4.6883 11.6757 4.53606 11.3082C4.42188 11.0325 4.42188 10.683 4.42188 9.98413Z" stroke="#98A2B3" stroke-width="1.5" stroke-linecap="round" stroke-linejoin="round"/>
</svg>
