<svg width="19" height="19" viewBox="0 0 19 19" fill="none" xmlns="http://www.w3.org/2000/svg">
<path d="M2.43555 9.98413H2.44305M5.81055 9.98413H5.81805M12.5605 9.98413H12.568M9.18555 9.98413H9.19305M15.9355 9.98413H15.943M15.9355 16.7341V16.1341C15.9355 15.2941 15.9355 14.874 15.7721 14.5531C15.6282 14.2709 15.3988 14.0414 15.1165 13.8976C14.7957 13.7341 14.3756 13.7341 13.5355 13.7341H4.83555C3.99547 13.7341 3.57543 13.7341 3.25456 13.8976C2.97232 14.0414 2.74285 14.2709 2.59904 14.5531C2.43555 14.874 2.43555 15.2941 2.43555 16.1341V16.7341M15.9355 3.23413V3.83413C15.9355 4.67421 15.9355 5.09425 15.7721 5.41512C15.6282 5.69736 15.3988 5.92683 15.1165 6.07064C14.7957 6.23413 14.3756 6.23413 13.5355 6.23413H4.83555C3.99547 6.23413 3.57543 6.23413 3.25456 6.07064C2.97232 5.92683 2.74285 5.69736 2.59904 5.41512C2.43555 5.09425 2.43555 4.67421 2.43555 3.83413V3.23413" stroke="#98A2B3" stroke-width="1.5" stroke-linecap="round" stroke-linejoin="round"/>
</svg>
