<svg width="19" height="19" viewBox="0 0 19 19" fill="none" xmlns="http://www.w3.org/2000/svg">
<g clip-path="url(#clip0_1_9167)">
<path d="M9.67969 6.98425H9.68719M9.67969 12.9843H9.68719M5.92969 9.98425H13.4297M10.0547 6.98425C10.0547 7.19136 9.88679 7.35925 9.67969 7.35925C9.47258 7.35925 9.30469 7.19136 9.30469 6.98425C9.30469 6.77715 9.47258 6.60925 9.67969 6.60925C9.88679 6.60925 10.0547 6.77715 10.0547 6.98425ZM10.0547 12.9843C10.0547 13.1914 9.88679 13.3593 9.67969 13.3593C9.47258 13.3593 9.30469 13.1914 9.30469 12.9843C9.30469 12.7771 9.47258 12.6093 9.67969 12.6093C9.88679 12.6093 10.0547 12.7771 10.0547 12.9843ZM17.1797 9.98425C17.1797 14.1264 13.8218 17.4843 9.67969 17.4843C5.53755 17.4843 2.17969 14.1264 2.17969 9.98425C2.17969 5.84212 5.53755 2.48425 9.67969 2.48425C13.8218 2.48425 17.1797 5.84212 17.1797 9.98425Z" stroke="#98A2B3" stroke-width="1.5" stroke-linecap="round" stroke-linejoin="round"/>
</g>
<defs>
<clipPath id="clip0_1_9167">
<rect width="18" height="18" fill="white" transform="translate(0.679688 0.984253)"/>
</clipPath>
</defs>
</svg>
