<svg width="19" height="19" viewBox="0 0 19 19" fill="none" xmlns="http://www.w3.org/2000/svg">
<g clip-path="url(#clip0_1_10613)">
<path d="M9.6875 1.73431V18.2343M13.4375 4.73431H7.8125C7.11631 4.73431 6.44863 5.01088 5.95634 5.50316C5.46406 5.99544 5.1875 6.66312 5.1875 7.35931C5.1875 8.05551 5.46406 8.72319 5.95634 9.21547C6.44863 9.70775 7.11631 9.98431 7.8125 9.98431H11.5625C12.2587 9.98431 12.9264 10.2609 13.4187 10.7532C13.9109 11.2454 14.1875 11.9131 14.1875 12.6093C14.1875 13.3055 13.9109 13.9732 13.4187 14.4655C12.9264 14.9578 12.2587 15.2343 11.5625 15.2343H5.1875" stroke="#98A2B3" stroke-width="1.5" stroke-linecap="round" stroke-linejoin="round"/>
</g>
<defs>
<clipPath id="clip0_1_10613">
<rect width="18" height="18" fill="white" transform="translate(0.6875 0.984253)"/>
</clipPath>
</defs>
</svg>
