<svg width="19" height="19" viewBox="0 0 19 19" fill="none" xmlns="http://www.w3.org/2000/svg">
<path d="M15.9395 9.98425L6.93945 9.98425M15.9395 5.48425L6.93945 5.48425M15.9395 14.4843L6.93945 14.4843M3.93945 9.98425C3.93945 10.3985 3.60367 10.7343 3.18945 10.7343C2.77524 10.7343 2.43945 10.3985 2.43945 9.98425C2.43945 9.57004 2.77524 9.23425 3.18945 9.23425C3.60367 9.23425 3.93945 9.57004 3.93945 9.98425ZM3.93945 5.48425C3.93945 5.89847 3.60367 6.23425 3.18945 6.23425C2.77524 6.23425 2.43945 5.89847 2.43945 5.48425C2.43945 5.07004 2.77524 4.73425 3.18945 4.73425C3.60367 4.73425 3.93945 5.07004 3.93945 5.48425ZM3.93945 14.4843C3.93945 14.8985 3.60367 15.2343 3.18945 15.2343C2.77524 15.2343 2.43945 14.8985 2.43945 14.4843C2.43945 14.07 2.77524 13.7343 3.18945 13.7343C3.60367 13.7343 3.93945 14.07 3.93945 14.4843Z" stroke="#98A2B3" stroke-width="1.5" stroke-linecap="round" stroke-linejoin="round"/>
</svg>
