<svg width="19" height="19" viewBox="0 0 19 19" fill="none" xmlns="http://www.w3.org/2000/svg">
<path d="M16.4419 4.73431L8.1919 4.73431M16.4419 15.2343L8.1919 15.2343M16.4419 9.98432L8.1919 9.98431M5.19189 4.73431C5.19189 5.35563 4.68822 5.85931 4.06689 5.85931C3.44557 5.85931 2.94189 5.35563 2.94189 4.73431C2.94189 4.11299 3.44557 3.60931 4.06689 3.60931C4.68822 3.60931 5.19189 4.11299 5.19189 4.73431ZM5.19189 15.2343C5.19189 15.8556 4.68822 16.3593 4.06689 16.3593C3.44557 16.3593 2.94189 15.8556 2.94189 15.2343C2.94189 14.613 3.44557 14.1093 4.06689 14.1093C4.68822 14.1093 5.19189 14.613 5.19189 15.2343ZM5.19189 9.98431C5.19189 10.6056 4.68822 11.1093 4.06689 11.1093C3.44557 11.1093 2.94189 10.6056 2.94189 9.98431C2.94189 9.36299 3.44557 8.85931 4.06689 8.85931C4.68822 8.85931 5.19189 9.36299 5.19189 9.98431Z" stroke="#98A2B3" stroke-width="1.5" stroke-linecap="round" stroke-linejoin="round"/>
</svg>
