<svg width="19" height="19" viewBox="0 0 19 19" fill="none" xmlns="http://www.w3.org/2000/svg">
<path d="M9.19336 5.48419C9.60757 5.48419 9.94336 5.14841 9.94336 4.73419C9.94336 4.31998 9.60757 3.98419 9.19336 3.98419C8.77915 3.98419 8.44336 4.31998 8.44336 4.73419C8.44336 5.14841 8.77915 5.48419 9.19336 5.48419Z" stroke="#98A2B3" stroke-width="1.5" stroke-linecap="round" stroke-linejoin="round"/>
<path d="M9.19336 10.7342C9.60757 10.7342 9.94336 10.3984 9.94336 9.98419C9.94336 9.56998 9.60757 9.23419 9.19336 9.23419C8.77915 9.23419 8.44336 9.56998 8.44336 9.98419C8.44336 10.3984 8.77915 10.7342 9.19336 10.7342Z" stroke="#98A2B3" stroke-width="1.5" stroke-linecap="round" stroke-linejoin="round"/>
<path d="M9.19336 15.9842C9.60757 15.9842 9.94336 15.6484 9.94336 15.2342C9.94336 14.82 9.60757 14.4842 9.19336 14.4842C8.77915 14.4842 8.44336 14.82 8.44336 15.2342C8.44336 15.6484 8.77915 15.9842 9.19336 15.9842Z" stroke="#98A2B3" stroke-width="1.5" stroke-linecap="round" stroke-linejoin="round"/>
<path d="M14.4434 5.48419C14.8576 5.48419 15.1934 5.14841 15.1934 4.73419C15.1934 4.31998 14.8576 3.98419 14.4434 3.98419C14.0291 3.98419 13.6934 4.31998 13.6934 4.73419C13.6934 5.14841 14.0291 5.48419 14.4434 5.48419Z" stroke="#98A2B3" stroke-width="1.5" stroke-linecap="round" stroke-linejoin="round"/>
<path d="M14.4434 10.7342C14.8576 10.7342 15.1934 10.3984 15.1934 9.98419C15.1934 9.56998 14.8576 9.23419 14.4434 9.23419C14.0291 9.23419 13.6934 9.56998 13.6934 9.98419C13.6934 10.3984 14.0291 10.7342 14.4434 10.7342Z" stroke="#98A2B3" stroke-width="1.5" stroke-linecap="round" stroke-linejoin="round"/>
<path d="M14.4434 15.9842C14.8576 15.9842 15.1934 15.6484 15.1934 15.2342C15.1934 14.82 14.8576 14.4842 14.4434 14.4842C14.0291 14.4842 13.6934 14.82 13.6934 15.2342C13.6934 15.6484 14.0291 15.9842 14.4434 15.9842Z" stroke="#98A2B3" stroke-width="1.5" stroke-linecap="round" stroke-linejoin="round"/>
<path d="M3.94336 5.48419C4.35757 5.48419 4.69336 5.14841 4.69336 4.73419C4.69336 4.31998 4.35757 3.98419 3.94336 3.98419C3.52915 3.98419 3.19336 4.31998 3.19336 4.73419C3.19336 5.14841 3.52915 5.48419 3.94336 5.48419Z" stroke="#98A2B3" stroke-width="1.5" stroke-linecap="round" stroke-linejoin="round"/>
<path d="M3.94336 10.7342C4.35757 10.7342 4.69336 10.3984 4.69336 9.98419C4.69336 9.56998 4.35757 9.23419 3.94336 9.23419C3.52915 9.23419 3.19336 9.56998 3.19336 9.98419C3.19336 10.3984 3.52915 10.7342 3.94336 10.7342Z" stroke="#98A2B3" stroke-width="1.5" stroke-linecap="round" stroke-linejoin="round"/>
<path d="M3.94336 15.9842C4.35757 15.9842 4.69336 15.6484 4.69336 15.2342C4.69336 14.82 4.35757 14.4842 3.94336 14.4842C3.52915 14.4842 3.19336 14.82 3.19336 15.2342C3.19336 15.6484 3.52915 15.9842 3.94336 15.9842Z" stroke="#98A2B3" stroke-width="1.5" stroke-linecap="round" stroke-linejoin="round"/>
</svg>
