<svg width="19" height="19" viewBox="0 0 19 19" fill="none" xmlns="http://www.w3.org/2000/svg">
<path d="M9.69531 10.7341C10.1095 10.7341 10.4453 10.3983 10.4453 9.98413C10.4453 9.56992 10.1095 9.23413 9.69531 9.23413C9.2811 9.23413 8.94531 9.56992 8.94531 9.98413C8.94531 10.3983 9.2811 10.7341 9.69531 10.7341Z" stroke="#98A2B3" stroke-width="1.5" stroke-linecap="round" stroke-linejoin="round"/>
<path d="M14.9453 10.7341C15.3595 10.7341 15.6953 10.3983 15.6953 9.98413C15.6953 9.56992 15.3595 9.23413 14.9453 9.23413C14.5311 9.23413 14.1953 9.56992 14.1953 9.98413C14.1953 10.3983 14.5311 10.7341 14.9453 10.7341Z" stroke="#98A2B3" stroke-width="1.5" stroke-linecap="round" stroke-linejoin="round"/>
<path d="M4.44531 10.7341C4.85953 10.7341 5.19531 10.3983 5.19531 9.98413C5.19531 9.56992 4.85953 9.23413 4.44531 9.23413C4.0311 9.23413 3.69531 9.56992 3.69531 9.98413C3.69531 10.3983 4.0311 10.7341 4.44531 10.7341Z" stroke="#98A2B3" stroke-width="1.5" stroke-linecap="round" stroke-linejoin="round"/>
</svg>
