<svg width="19" height="19" viewBox="0 0 19 19" fill="none" xmlns="http://www.w3.org/2000/svg">
<path d="M9.19775 10.7342C9.61197 10.7342 9.94775 10.3984 9.94775 9.98419C9.94775 9.56998 9.61197 9.23419 9.19775 9.23419C8.78354 9.23419 8.44775 9.56998 8.44775 9.98419C8.44775 10.3984 8.78354 10.7342 9.19775 10.7342Z" stroke="#98A2B3" stroke-width="1.5" stroke-linecap="round" stroke-linejoin="round"/>
<path d="M9.19775 5.48419C9.61197 5.48419 9.94775 5.14841 9.94775 4.73419C9.94775 4.31998 9.61197 3.98419 9.19775 3.98419C8.78354 3.98419 8.44775 4.31998 8.44775 4.73419C8.44775 5.14841 8.78354 5.48419 9.19775 5.48419Z" stroke="#98A2B3" stroke-width="1.5" stroke-linecap="round" stroke-linejoin="round"/>
<path d="M9.19775 15.9842C9.61197 15.9842 9.94775 15.6484 9.94775 15.2342C9.94775 14.82 9.61197 14.4842 9.19775 14.4842C8.78354 14.4842 8.44775 14.82 8.44775 15.2342C8.44775 15.6484 8.78354 15.9842 9.19775 15.9842Z" stroke="#98A2B3" stroke-width="1.5" stroke-linecap="round" stroke-linejoin="round"/>
</svg>
