<svg width="19" height="19" viewBox="0 0 19 19" fill="none" xmlns="http://www.w3.org/2000/svg">
<g clip-path="url(#clip0_1_10665)">
<path d="M6.20936 13.7342L9.20936 16.7342M9.20936 16.7342L12.2094 13.7342M9.20936 16.7342V9.9842M15.8694 14.5517C16.5214 14.0932 17.0104 13.4388 17.2653 12.6836C17.5203 11.9283 17.5279 11.1115 17.2872 10.3516C17.0464 9.59168 16.5698 8.92827 15.9264 8.45762C15.2831 7.98698 14.5065 7.73358 13.7094 7.7342H12.7644C12.5388 6.85511 12.1167 6.03864 11.53 5.34626C10.9432 4.65389 10.207 4.10365 9.37677 3.73697C8.54657 3.37029 7.64399 3.19672 6.73701 3.22934C5.83002 3.26196 4.94225 3.49991 4.14053 3.92527C3.33881 4.35064 2.64403 4.95234 2.1085 5.68507C1.57297 6.41781 1.21065 7.26249 1.04881 8.15551C0.886964 9.04854 0.929819 9.96665 1.17415 10.8407C1.41847 11.7148 1.85791 12.522 2.45936 13.2017" stroke="#98A2B3" stroke-width="1.5" stroke-linecap="round" stroke-linejoin="round"/>
</g>
<defs>
<clipPath id="clip0_1_10665">
<rect width="18" height="18" fill="white" transform="translate(0.209473 0.984253)"/>
</clipPath>
</defs>
</svg>
