<svg width="19" height="19" viewBox="0 0 19 19" fill="none" xmlns="http://www.w3.org/2000/svg">
<g clip-path="url(#clip0_1_10779)">
<path d="M7.13533 3.04675C10.4128 7.56925 11.6503 10.1118 13.1578 16.3368M15.0628 4.80175C12.2728 8.06425 8.35783 9.04675 2.40283 9.18925M17.0278 10.6143C14.4028 9.91675 12.0553 9.99925 10.3228 10.6143C8.38783 11.3043 6.56533 12.7593 4.74283 15.3543M17.2153 9.98425C17.2153 14.1264 13.8575 17.4843 9.71533 17.4843C5.5732 17.4843 2.21533 14.1264 2.21533 9.98425C2.21533 5.84212 5.5732 2.48425 9.71533 2.48425C13.8575 2.48425 17.2153 5.84212 17.2153 9.98425Z" stroke="#98A2B3" stroke-width="1.5" stroke-linecap="round" stroke-linejoin="round"/>
</g>
<defs>
<clipPath id="clip0_1_10779">
<rect width="18" height="18" fill="white" transform="translate(0.715332 0.984253)"/>
</clipPath>
</defs>
</svg>
