<svg width="19" height="19" viewBox="0 0 19 19" fill="none" xmlns="http://www.w3.org/2000/svg">
<path d="M9.6451 5.54413C10.1609 4.71997 10.5266 3.81091 10.7251 2.85913C11.1001 4.73413 12.2251 6.53413 13.7251 7.73413C15.2251 8.93413 15.9751 10.3591 15.9751 11.8591C15.9794 12.8959 15.6758 13.9105 15.1027 14.7745C14.5296 15.6384 13.713 16.3127 12.7562 16.712C11.7994 17.1113 10.7457 17.2174 9.72848 17.0171C8.71129 16.8167 7.7765 16.3189 7.0426 15.5866M5.4751 12.8191C7.1251 12.8191 8.4751 11.4466 8.4751 9.78163C8.4751 8.91163 8.0476 8.08663 7.1926 7.38913C6.3376 6.69163 5.6926 5.65663 5.4751 4.56913C5.2576 5.65663 4.6201 6.69913 3.7576 7.38913C2.8951 8.07913 2.4751 8.91913 2.4751 9.78163C2.4751 11.4466 3.8251 12.8191 5.4751 12.8191Z" stroke="#98A2B3" stroke-width="1.5" stroke-linecap="round" stroke-linejoin="round"/>
</svg>
