<svg width="19" height="19" viewBox="0 0 19 19" fill="none" xmlns="http://www.w3.org/2000/svg">
<g clip-path="url(#clip0_1_10835)">
<path d="M9.71891 3.00171L13.9639 7.24671C14.8034 8.08567 15.3753 9.15476 15.6071 10.3188C15.8389 11.4827 15.7203 12.6893 15.2663 13.7859C14.8123 14.8825 14.0433 15.8198 13.0565 16.4793C12.0697 17.1387 10.9095 17.4907 9.72266 17.4907C8.5358 17.4907 7.37561 17.1387 6.38883 16.4793C5.40205 15.8198 4.63302 14.8825 4.17901 13.7859C3.725 12.6893 3.60641 11.4827 3.83824 10.3188C4.07007 9.15476 4.6419 8.08567 5.48141 7.24671L9.71891 3.00171Z" stroke="#98A2B3" stroke-width="1.5" stroke-linecap="round" stroke-linejoin="round"/>
</g>
<defs>
<clipPath id="clip0_1_10835">
<rect width="18" height="18" fill="white" transform="translate(0.719238 0.984253)"/>
</clipPath>
</defs>
</svg>
