<svg width="19" height="19" viewBox="0 0 19 19" fill="none" xmlns="http://www.w3.org/2000/svg">
<path d="M9.73533 15.9842H16.4853M2.98535 15.9842H4.24126C4.60815 15.9842 4.79159 15.9842 4.96422 15.9428C5.11727 15.9061 5.26359 15.8454 5.3978 15.7632C5.54917 15.6704 5.67889 15.5407 5.93832 15.2813L15.3604 5.85924C15.9817 5.23792 15.9817 4.23056 15.3604 3.60924C14.7391 2.98792 13.7317 2.98792 13.1104 3.60924L3.6883 13.0313C3.42887 13.2907 3.29915 13.4204 3.20639 13.5718C3.12415 13.706 3.06354 13.8523 3.0268 14.0054C2.98535 14.178 2.98535 14.3615 2.98535 14.7284V15.9842Z" stroke="#98A2B3" stroke-width="1.5" stroke-linecap="round" stroke-linejoin="round"/>
</svg>
