<svg width="19" height="19" viewBox="0 0 19 19" fill="none" xmlns="http://www.w3.org/2000/svg">
<g clip-path="url(#clip0_1_9387)">
<path d="M8.98828 3.98424H5.83828C4.57816 3.98424 3.9481 3.98424 3.4668 4.22948C3.04344 4.44519 2.69923 4.7894 2.48352 5.21276C2.23828 5.69406 2.23828 6.32412 2.23828 7.58424V13.8842C2.23828 15.1444 2.23828 15.7744 2.48352 16.2557C2.69923 16.6791 3.04344 17.0233 3.4668 17.239C3.9481 17.4842 4.57816 17.4842 5.83828 17.4842H12.1383C13.3984 17.4842 14.0285 17.4842 14.5098 17.239C14.9331 17.0233 15.2773 16.6791 15.493 16.2557C15.7383 15.7744 15.7383 15.1444 15.7383 13.8842V10.7342M6.73826 12.9842H7.99417C8.36106 12.9842 8.5445 12.9842 8.71713 12.9428C8.87018 12.9061 9.0165 12.8454 9.15071 12.7632C9.30208 12.6704 9.4318 12.5407 9.69123 12.2813L16.8633 5.10924C17.4846 4.48792 17.4846 3.48056 16.8633 2.85924C16.242 2.23792 15.2346 2.23792 14.6133 2.85924L7.44121 10.0313C7.18178 10.2907 7.05207 10.4204 6.9593 10.5718C6.87706 10.706 6.81645 10.8523 6.77971 11.0054C6.73826 11.178 6.73826 11.3615 6.73826 11.7284V12.9842Z" stroke="#98A2B3" stroke-width="1.5" stroke-linecap="round" stroke-linejoin="round"/>
</g>
<defs>
<clipPath id="clip0_1_9387">
<rect width="18" height="18" fill="white" transform="translate(0.738281 0.984253)"/>
</clipPath>
</defs>
</svg>
