<svg width="19" height="19" viewBox="0 0 19 19" fill="none" xmlns="http://www.w3.org/2000/svg">
<path d="M13.7324 8.4843L10.7324 5.4843M2.10742 17.1093L4.6457 16.8273C4.95582 16.7928 5.11087 16.7756 5.25581 16.7287C5.38439 16.687 5.50676 16.6282 5.61959 16.5538C5.74676 16.47 5.85708 16.3596 6.07772 16.139L15.9824 6.2343C16.8109 5.40587 16.8109 4.06272 15.9824 3.2343C15.154 2.40587 13.8109 2.40587 12.9824 3.23429L3.07772 13.139C2.85708 13.3596 2.74676 13.47 2.6629 13.5971C2.5885 13.71 2.52968 13.8323 2.48806 13.9609C2.44114 14.1058 2.42391 14.2609 2.38945 14.571L2.10742 17.1093Z" stroke="#98A2B3" stroke-width="1.5" stroke-linecap="round" stroke-linejoin="round"/>
</svg>
