<svg width="19" height="19" viewBox="0 0 19 19" fill="none" xmlns="http://www.w3.org/2000/svg">
<g clip-path="url(#clip0_1_10889)">
<path d="M12.9912 3.2343C13.1882 3.03731 13.422 2.88106 13.6794 2.77445C13.9368 2.66785 14.2126 2.61298 14.4912 2.61298C14.7698 2.61298 15.0456 2.66785 15.303 2.77445C15.5604 2.88106 15.7942 3.03731 15.9912 3.2343C16.1882 3.43128 16.3444 3.66513 16.4511 3.9225C16.5577 4.17987 16.6125 4.45572 16.6125 4.7343C16.6125 5.01287 16.5577 5.28872 16.4511 5.54609C16.3444 5.80346 16.1882 6.03731 15.9912 6.2343L5.86621 16.3593L1.74121 17.4843L2.86621 13.3593L12.9912 3.2343Z" stroke="#98A2B3" stroke-width="1.5" stroke-linecap="round" stroke-linejoin="round"/>
</g>
<defs>
<clipPath id="clip0_1_10889">
<rect width="18" height="18" fill="white" transform="translate(0.241211 0.984253)"/>
</clipPath>
</defs>
</svg>
