<svg width="19" height="19" viewBox="0 0 19 19" fill="none" xmlns="http://www.w3.org/2000/svg">
<g clip-path="url(#clip0_1_11005)">
<path d="M8.479 3.98424H3.229C2.83118 3.98424 2.44965 4.14228 2.16834 4.42358C1.88704 4.70488 1.729 5.08642 1.729 5.48424V15.9842C1.729 16.3821 1.88704 16.7636 2.16834 17.0449C2.44965 17.3262 2.83118 17.4842 3.229 17.4842H13.729C14.1268 17.4842 14.5084 17.3262 14.7897 17.0449C15.071 16.7636 15.229 16.3821 15.229 15.9842V10.7342M14.104 2.85924C14.4024 2.56087 14.807 2.39325 15.229 2.39325C15.651 2.39325 16.0556 2.56087 16.354 2.85924C16.6524 3.15761 16.82 3.56228 16.82 3.98424C16.82 4.4062 16.6524 4.81087 16.354 5.10924L9.229 12.2342L6.229 12.9842L6.979 9.98424L14.104 2.85924Z" stroke="#98A2B3" stroke-width="1.5" stroke-linecap="round" stroke-linejoin="round"/>
</g>
<defs>
<clipPath id="clip0_1_11005">
<rect width="18" height="18" fill="white" transform="translate(0.229004 0.984253)"/>
</clipPath>
</defs>
</svg>
