<svg width="19" height="19" viewBox="0 0 19 19" fill="none" xmlns="http://www.w3.org/2000/svg">
<path d="M15.9873 14.4842L15.2372 15.3048C14.8394 15.7398 14.2999 15.9842 13.7374 15.9842C13.1749 15.9842 12.6354 15.7398 12.2376 15.3048C11.8392 14.8706 11.2998 14.6268 10.7374 14.6268C10.1751 14.6268 9.63566 14.8706 9.23729 15.3048M2.4873 15.9842H3.74321C4.1101 15.9842 4.29354 15.9842 4.46617 15.9428C4.61923 15.9061 4.76554 15.8454 4.89975 15.7632C5.05113 15.6704 5.18084 15.5407 5.44027 15.2813L14.8623 5.85924C15.4836 5.23792 15.4836 4.23056 14.8623 3.60924C14.241 2.98792 13.2336 2.98792 12.6123 3.60924L3.19025 13.0313C2.93082 13.2907 2.80111 13.4204 2.70834 13.5718C2.6261 13.706 2.5655 13.8523 2.52875 14.0054C2.4873 14.178 2.4873 14.3615 2.4873 14.7284V15.9842Z" stroke="#98A2B3" stroke-width="1.5" stroke-linecap="round" stroke-linejoin="round"/>
</svg>
