<svg width="19" height="19" viewBox="0 0 19 19" fill="none" xmlns="http://www.w3.org/2000/svg">
<path d="M2.8875 14.571C2.92196 14.2609 2.93919 14.1058 2.9861 13.9609C3.02773 13.8323 3.08654 13.71 3.16095 13.5971C3.24481 13.47 3.35513 13.3596 3.57577 13.139L13.4805 3.23429C14.3089 2.40587 15.6521 2.40587 16.4805 3.2343C17.3089 4.06272 17.3089 5.40587 16.4805 6.2343L6.57576 16.139C6.35513 16.3596 6.24481 16.47 6.11763 16.5538C6.0048 16.6282 5.88244 16.687 5.75385 16.7287C5.60892 16.7756 5.45386 16.7928 5.14374 16.8273L2.60547 17.1093L2.8875 14.571Z" stroke="#98A2B3" stroke-width="1.5" stroke-linecap="round" stroke-linejoin="round"/>
</svg>
