<svg width="19" height="19" viewBox="0 0 19 19" fill="none" xmlns="http://www.w3.org/2000/svg">
<path d="M13.7487 10.7342L8.49868 5.48422M15.9987 16.7342H6.24868M8.45163 16.0313L14.9531 9.5298C15.8441 8.63877 16.2897 8.19325 16.4566 7.67951C16.6034 7.22761 16.6034 6.74083 16.4566 6.28893C16.2897 5.77519 15.8441 5.32967 14.9531 4.43863L14.7943 4.2798C13.9032 3.38876 13.4577 2.94325 12.944 2.77632C12.4921 2.62949 12.0053 2.62949 11.5534 2.77632C11.0397 2.94325 10.5941 3.38877 9.7031 4.2798L3.54427 10.4386C2.65323 11.3297 2.20771 11.7752 2.04079 12.2889C1.89396 12.7408 1.89396 13.2276 2.04079 13.6795C2.20771 14.1932 2.65323 14.6388 3.54427 15.5298L4.04574 16.0313C4.30517 16.2907 4.43488 16.4204 4.58626 16.5132C4.72046 16.5954 4.86678 16.656 5.01984 16.6928C5.19247 16.7342 5.37591 16.7342 5.7428 16.7342H6.75457C7.12146 16.7342 7.3049 16.7342 7.47753 16.6928C7.63059 16.656 7.7769 16.5954 7.91111 16.5132C8.06249 16.4204 8.1922 16.2907 8.45163 16.0313Z" stroke="#98A2B3" stroke-width="1.5" stroke-linecap="round" stroke-linejoin="round"/>
</svg>
