<svg width="19" height="19" viewBox="0 0 19 19" fill="none" xmlns="http://www.w3.org/2000/svg">
<path d="M16.5049 11.4841V13.1341C16.5049 14.3943 16.5049 15.0243 16.2596 15.5056C16.0439 15.929 15.6997 16.2732 15.2764 16.4889C14.7951 16.7341 14.165 16.7341 12.9049 16.7341H11.2549M8.25488 3.23413H6.60488C5.34477 3.23413 4.71471 3.23413 4.2334 3.47937C3.81004 3.69508 3.46583 4.03929 3.25012 4.46265C3.00488 4.94395 3.00488 5.57401 3.00488 6.83413V8.48413M12.0049 7.73413L16.5049 3.23413M16.5049 3.23413H12.0049M16.5049 3.23413V7.73413M7.50488 12.2341L3.00488 16.7341M3.00488 16.7341H7.50488M3.00488 16.7341L3.00488 12.2341" stroke="#98A2B3" stroke-width="1.5" stroke-linecap="round" stroke-linejoin="round"/>
</svg>
