<svg width="19" height="19" viewBox="0 0 19 19" fill="none" xmlns="http://www.w3.org/2000/svg">
<path d="M15.2568 11.4841V13.5841C15.2568 14.4242 15.2568 14.8443 15.0933 15.1651C14.9495 15.4474 14.7201 15.6768 14.4378 15.8206C14.117 15.9841 13.6969 15.9841 12.8568 15.9841H10.7568M7.75684 3.98413H5.65684C4.81676 3.98413 4.39672 3.98413 4.07585 4.14762C3.79361 4.29143 3.56414 4.5209 3.42033 4.80315C3.25684 5.12401 3.25684 5.54405 3.25684 6.38413V8.48413M11.5068 7.73413L16.0068 3.23413M16.0068 3.23413H11.5068M16.0068 3.23413V7.73413M7.00684 12.2341L2.50684 16.7341M2.50684 16.7341H7.00684M2.50684 16.7341L2.50684 12.2341" stroke="#98A2B3" stroke-width="1.5" stroke-linecap="round" stroke-linejoin="round"/>
</svg>
