<svg width="19" height="19" viewBox="0 0 19 19" fill="none" xmlns="http://www.w3.org/2000/svg">
<g clip-path="url(#clip0_1_11117)">
<path d="M7.69355 4.16431C8.2098 4.04347 8.73835 3.98307 9.26856 3.98431C14.5186 3.98431 17.5186 9.98431 17.5186 9.98431C17.0633 10.836 16.5203 11.6379 15.8986 12.3768M10.8586 11.5743C10.6526 11.7954 10.4042 11.9727 10.1282 12.0957C9.85217 12.2186 9.55423 12.2848 9.25212 12.2901C8.95001 12.2954 8.64993 12.2398 8.36976 12.1267C8.0896 12.0135 7.8351 11.8451 7.62144 11.6314C7.40778 11.4178 7.23935 11.1633 7.12619 10.8831C7.01302 10.6029 6.95745 10.3029 6.96278 10.0007C6.96811 9.69864 7.03424 9.4007 7.15721 9.1247C7.28019 8.8487 7.45749 8.6003 7.67856 8.39431M1.01855 1.73431L17.5186 18.2343M13.7236 14.4393C12.4415 15.4166 10.8804 15.958 9.26856 15.9843C4.01855 15.9843 1.01855 9.98431 1.01855 9.98431C1.95147 8.24574 3.24541 6.72677 4.81355 5.52931L13.7236 14.4393Z" stroke="#98A2B3" stroke-width="1.5" stroke-linecap="round" stroke-linejoin="round"/>
</g>
<defs>
<clipPath id="clip0_1_11117">
<rect width="18" height="18" fill="white" transform="translate(0.268555 0.984253)"/>
</clipPath>
</defs>
</svg>
