<svg width="19" height="19" viewBox="0 0 19 19" fill="none" xmlns="http://www.w3.org/2000/svg">
<path d="M2.58169 10.5191C2.47955 10.3574 2.42848 10.2765 2.39989 10.1518C2.37842 10.0581 2.37842 9.91038 2.39989 9.81669C2.42848 9.69196 2.47955 9.6111 2.58169 9.44937C3.42575 8.11288 5.93815 4.73425 9.76691 4.73425C13.5957 4.73425 16.1081 8.11288 16.9521 9.44937C17.0543 9.6111 17.1053 9.69196 17.1339 9.81669C17.1554 9.91038 17.1554 10.0581 17.1339 10.1518C17.1053 10.2765 17.0543 10.3574 16.9521 10.5191C16.1081 11.8556 13.5957 15.2343 9.76691 15.2343C5.93815 15.2343 3.42575 11.8556 2.58169 10.5191Z" stroke="#98A2B3" stroke-width="1.5" stroke-linecap="round" stroke-linejoin="round"/>
<path d="M9.76691 12.2343C11.0095 12.2343 12.0169 11.2269 12.0169 9.98425C12.0169 8.74161 11.0095 7.73425 9.76691 7.73425C8.52427 7.73425 7.51691 8.74161 7.51691 9.98425C7.51691 11.2269 8.52427 12.2343 9.76691 12.2343Z" stroke="#98A2B3" stroke-width="1.5" stroke-linecap="round" stroke-linejoin="round"/>
</svg>
