<svg width="19" height="19" viewBox="0 0 19 19" fill="none" xmlns="http://www.w3.org/2000/svg">
<g clip-path="url(#clip0_1_9575)">
<path d="M12.2842 12.9843C12.2842 12.9843 11.1592 11.4843 9.28418 11.4843C7.40918 11.4843 6.28418 12.9843 6.28418 12.9843M13.0342 7.91425C12.7379 8.278 12.3329 8.48425 11.9092 8.48425C11.4854 8.48425 11.0917 8.278 10.7842 7.91425M7.78418 7.91425C7.48793 8.278 7.08293 8.48425 6.65918 8.48425C6.23543 8.48425 5.84168 8.278 5.53418 7.91425M16.7842 9.98425C16.7842 14.1264 13.4263 17.4843 9.28418 17.4843C5.14204 17.4843 1.78418 14.1264 1.78418 9.98425C1.78418 5.84212 5.14204 2.48425 9.28418 2.48425C13.4263 2.48425 16.7842 5.84212 16.7842 9.98425Z" stroke="#98A2B3" stroke-width="1.5" stroke-linecap="round" stroke-linejoin="round"/>
</g>
<defs>
<clipPath id="clip0_1_9575">
<rect width="18" height="18" fill="white" transform="translate(0.28418 0.984253)"/>
</clipPath>
</defs>
</svg>
