<svg width="19" height="19" viewBox="0 0 19 19" fill="none" xmlns="http://www.w3.org/2000/svg">
<g clip-path="url(#clip0_1_9567)">
<path d="M6.27246 11.4843C6.27246 11.4843 7.39746 12.9843 9.27246 12.9843C11.1475 12.9843 12.2725 11.4843 12.2725 11.4843M13.0225 7.91425C12.7262 8.278 12.3212 8.48425 11.8975 8.48425C11.4737 8.48425 11.08 8.278 10.7725 7.91425M7.77246 7.91425C7.47621 8.278 7.07121 8.48425 6.64746 8.48425C6.22371 8.48425 5.82996 8.278 5.52246 7.91425M16.7725 9.98425C16.7725 14.1264 13.4146 17.4843 9.27246 17.4843C5.13033 17.4843 1.77246 14.1264 1.77246 9.98425C1.77246 5.84212 5.13033 2.48425 9.27246 2.48425C13.4146 2.48425 16.7725 5.84212 16.7725 9.98425Z" stroke="#98A2B3" stroke-width="1.5" stroke-linecap="round" stroke-linejoin="round"/>
</g>
<defs>
<clipPath id="clip0_1_9567">
<rect width="18" height="18" fill="white" transform="translate(0.272461 0.984253)"/>
</clipPath>
</defs>
</svg>
