<svg width="19" height="19" viewBox="0 0 19 19" fill="none" xmlns="http://www.w3.org/2000/svg">
<g clip-path="url(#clip0_1_9573)">
<path d="M6.78223 12.2343H12.7822M12.0322 7.73425H12.0397M7.53223 7.73425H7.53973M17.2822 9.98425C17.2822 14.1264 13.9244 17.4843 9.78223 17.4843C5.64009 17.4843 2.28223 14.1264 2.28223 9.98425C2.28223 5.84212 5.64009 2.48425 9.78223 2.48425C13.9244 2.48425 17.2822 5.84212 17.2822 9.98425ZM12.4072 7.73425C12.4072 7.94136 12.2393 8.10925 12.0322 8.10925C11.8251 8.10925 11.6572 7.94136 11.6572 7.73425C11.6572 7.52715 11.8251 7.35925 12.0322 7.35925C12.2393 7.35925 12.4072 7.52715 12.4072 7.73425ZM7.90723 7.73425C7.90723 7.94136 7.73933 8.10925 7.53223 8.10925C7.32512 8.10925 7.15723 7.94136 7.15723 7.73425C7.15723 7.52715 7.32512 7.35925 7.53223 7.35925C7.73933 7.35925 7.90723 7.52715 7.90723 7.73425Z" stroke="#98A2B3" stroke-width="1.5" stroke-linecap="round" stroke-linejoin="round"/>
</g>
<defs>
<clipPath id="clip0_1_9573">
<rect width="18" height="18" fill="white" transform="translate(0.782227 0.984253)"/>
</clipPath>
</defs>
</svg>
