<svg width="19" height="19" viewBox="0 0 19 19" fill="none" xmlns="http://www.w3.org/2000/svg">
<path d="M5.90527 6.98413V8.10913M12.6553 6.98413V8.10913M8.53027 10.4342C9.13027 10.4342 9.65527 9.9092 9.65527 9.3092V6.98413M11.6804 12.3841C10.3304 13.7341 8.15542 13.7341 6.80542 12.3841M2.53027 6.83413L2.53027 13.1341C2.53027 14.3942 2.53027 15.0243 2.77551 15.5056C2.99122 15.929 3.33543 16.2732 3.75879 16.4889C4.2401 16.7341 4.87016 16.7341 6.13027 16.7341H12.4303C13.6904 16.7341 14.3205 16.7341 14.8018 16.4889C15.2251 16.2732 15.5693 15.929 15.785 15.5056C16.0303 15.0243 16.0303 14.3942 16.0303 13.1341V6.83413C16.0303 5.57401 16.0303 4.94395 15.785 4.46265C15.5693 4.03929 15.2251 3.69508 14.8018 3.47937C14.3205 3.23413 13.6904 3.23413 12.4303 3.23413L6.13027 3.23413C4.87016 3.23413 4.2401 3.23413 3.7588 3.47937C3.33543 3.69508 2.99122 4.03929 2.77551 4.46265C2.53027 4.94395 2.53027 5.57401 2.53027 6.83413Z" stroke="#98A2B3" stroke-width="1.5" stroke-linecap="round" stroke-linejoin="round"/>
</svg>
