<svg width="19" height="19" viewBox="0 0 19 19" fill="none" xmlns="http://www.w3.org/2000/svg">
<g clip-path="url(#clip0_1_9569)">
<path d="M12.7744 12.9843C12.7744 12.9843 11.6494 11.4843 9.77441 11.4843C7.89941 11.4843 6.77441 12.9843 6.77441 12.9843M12.0244 7.73425H12.0319M7.52441 7.73425H7.53191M17.2744 9.98425C17.2744 14.1264 13.9166 17.4843 9.77441 17.4843C5.63228 17.4843 2.27441 14.1264 2.27441 9.98425C2.27441 5.84212 5.63228 2.48425 9.77441 2.48425C13.9166 2.48425 17.2744 5.84212 17.2744 9.98425ZM12.3994 7.73425C12.3994 7.94136 12.2315 8.10925 12.0244 8.10925C11.8173 8.10925 11.6494 7.94136 11.6494 7.73425C11.6494 7.52715 11.8173 7.35925 12.0244 7.35925C12.2315 7.35925 12.3994 7.52715 12.3994 7.73425ZM7.89941 7.73425C7.89941 7.94136 7.73152 8.10925 7.52441 8.10925C7.31731 8.10925 7.14941 7.94136 7.14941 7.73425C7.14941 7.52715 7.31731 7.35925 7.52441 7.35925C7.73152 7.35925 7.89941 7.52715 7.89941 7.73425Z" stroke="#98A2B3" stroke-width="1.5" stroke-linecap="round" stroke-linejoin="round"/>
</g>
<defs>
<clipPath id="clip0_1_9569">
<rect width="18" height="18" fill="white" transform="translate(0.774414 0.984253)"/>
</clipPath>
</defs>
</svg>
