<svg width="19" height="19" viewBox="0 0 19 19" fill="none" xmlns="http://www.w3.org/2000/svg">
<g clip-path="url(#clip0_1_9579)">
<path d="M6.28809 11.4843C6.28809 11.4843 7.41309 12.9843 9.28809 12.9843C11.1631 12.9843 12.2881 11.4843 12.2881 11.4843M11.5381 7.73425H11.5456M6.28809 7.73425H7.78809M16.7881 9.98425C16.7881 14.1264 13.4302 17.4843 9.28809 17.4843C5.14595 17.4843 1.78809 14.1264 1.78809 9.98425C1.78809 5.84212 5.14595 2.48425 9.28809 2.48425C13.4302 2.48425 16.7881 5.84212 16.7881 9.98425ZM11.9131 7.73425C11.9131 7.94136 11.7452 8.10925 11.5381 8.10925C11.331 8.10925 11.1631 7.94136 11.1631 7.73425C11.1631 7.52715 11.331 7.35925 11.5381 7.35925C11.7452 7.35925 11.9131 7.52715 11.9131 7.73425Z" stroke="#98A2B3" stroke-width="1.5" stroke-linecap="round" stroke-linejoin="round"/>
</g>
<defs>
<clipPath id="clip0_1_9579">
<rect width="18" height="18" fill="white" transform="translate(0.288086 0.984253)"/>
</clipPath>
</defs>
</svg>
