<svg width="19" height="19" viewBox="0 0 19 19" fill="none" xmlns="http://www.w3.org/2000/svg">
<g clip-path="url(#clip0_1_9571)">
<path d="M11.5264 7.73425H11.5339M7.02637 7.73425H7.03387M16.7764 9.98425C16.7764 14.1264 13.4185 17.4843 9.27637 17.4843C5.13423 17.4843 1.77637 14.1264 1.77637 9.98425C1.77637 5.84212 5.13423 2.48425 9.27637 2.48425C13.4185 2.48425 16.7764 5.84212 16.7764 9.98425ZM11.9014 7.73425C11.9014 7.94136 11.7335 8.10925 11.5264 8.10925C11.3193 8.10925 11.1514 7.94136 11.1514 7.73425C11.1514 7.52715 11.3193 7.35925 11.5264 7.35925C11.7335 7.35925 11.9014 7.52715 11.9014 7.73425ZM7.40137 7.73425C7.40137 7.94136 7.23347 8.10925 7.02637 8.10925C6.81926 8.10925 6.65137 7.94136 6.65137 7.73425C6.65137 7.52715 6.81926 7.35925 7.02637 7.35925C7.23347 7.35925 7.40137 7.52715 7.40137 7.73425ZM9.27637 14.1093C11.1517 14.1093 12.6514 12.7345 12.6514 11.4843H5.90137C5.90137 12.7345 7.40099 14.1093 9.27637 14.1093Z" stroke="#98A2B3" stroke-width="1.5" stroke-linecap="round" stroke-linejoin="round"/>
</g>
<defs>
<clipPath id="clip0_1_9571">
<rect width="18" height="18" fill="white" transform="translate(0.276367 0.984253)"/>
</clipPath>
</defs>
</svg>
