<svg width="19" height="19" viewBox="0 0 19 19" fill="none" xmlns="http://www.w3.org/2000/svg">
<g clip-path="url(#clip0_1_9577)">
<path d="M6.78613 11.4843C6.78613 11.4843 7.91113 12.9843 9.78613 12.9843C11.6611 12.9843 12.7861 11.4843 12.7861 11.4843M12.0361 7.73425H12.0436M7.53613 7.73425H7.54363M17.2861 9.98425C17.2861 14.1264 13.9283 17.4843 9.78613 17.4843C5.644 17.4843 2.28613 14.1264 2.28613 9.98425C2.28613 5.84212 5.644 2.48425 9.78613 2.48425C13.9283 2.48425 17.2861 5.84212 17.2861 9.98425ZM12.4111 7.73425C12.4111 7.94136 12.2432 8.10925 12.0361 8.10925C11.829 8.10925 11.6611 7.94136 11.6611 7.73425C11.6611 7.52715 11.829 7.35925 12.0361 7.35925C12.2432 7.35925 12.4111 7.52715 12.4111 7.73425ZM7.91113 7.73425C7.91113 7.94136 7.74324 8.10925 7.53613 8.10925C7.32903 8.10925 7.16113 7.94136 7.16113 7.73425C7.16113 7.52715 7.32903 7.35925 7.53613 7.35925C7.74324 7.35925 7.91113 7.52715 7.91113 7.73425Z" stroke="#98A2B3" stroke-width="1.5" stroke-linecap="round" stroke-linejoin="round"/>
</g>
<defs>
<clipPath id="clip0_1_9577">
<rect width="18" height="18" fill="white" transform="translate(0.786133 0.984253)"/>
</clipPath>
</defs>
</svg>
