<svg width="19" height="19" viewBox="0 0 19 19" fill="none" xmlns="http://www.w3.org/2000/svg">
<path d="M6.77832 3.23413H6.62832C5.3682 3.23413 4.73814 3.23413 4.25684 3.47937C3.83348 3.69508 3.48927 4.03929 3.27356 4.46265C3.02832 4.94395 3.02832 5.57401 3.02832 6.83413V6.98413M6.77832 16.7341H6.62832C5.3682 16.7341 4.73814 16.7341 4.25684 16.4889C3.83348 16.2732 3.48927 15.929 3.27356 15.5056C3.02832 15.0243 3.02832 14.3943 3.02832 13.1341V12.9841M16.5283 6.98413V6.83413C16.5283 5.57401 16.5283 4.94395 16.2831 4.46265C16.0674 4.03929 15.7232 3.69508 15.2998 3.47937C14.8185 3.23413 14.1884 3.23413 12.9283 3.23413H12.7783M16.5283 12.9841V13.1341C16.5283 14.3943 16.5283 15.0243 16.2831 15.5056C16.0674 15.929 15.7232 16.2732 15.2998 16.4889C14.8185 16.7341 14.1884 16.7341 12.9283 16.7341H12.7783M6.40332 6.98413V8.10913M13.1533 6.98413V8.10913M9.02832 10.4342C9.62832 10.4342 10.1533 9.90921 10.1533 9.30921V6.98413M12.1785 12.3841C10.8285 13.7341 8.65347 13.7341 7.30347 12.3841" stroke="#98A2B3" stroke-width="1.5" stroke-linecap="round" stroke-linejoin="round"/>
</svg>
