<svg width="19" height="19" viewBox="0 0 19 19" fill="none" xmlns="http://www.w3.org/2000/svg">
<g clip-path="url(#clip0_1_9683)">
<path d="M9.82178 12.8138C9.82178 13.6614 9.82178 14.0851 9.99298 14.2929C10.1417 14.4734 10.3661 14.5741 10.5998 14.5654C10.8688 14.5553 11.1856 14.2738 11.819 13.7107L15.5628 10.383C15.9117 10.0728 16.0862 9.91766 16.1505 9.73452C16.207 9.57369 16.207 9.39843 16.1505 9.2376C16.0862 9.05446 15.9117 8.89936 15.5628 8.58917L11.819 5.26138C11.1856 4.69832 10.8688 4.41678 10.5998 4.40671C10.3661 4.39797 10.1417 4.49874 9.99298 4.67923C9.82178 4.88699 9.82178 5.31075 9.82178 6.15827V12.8138Z" stroke="#98A2B3" stroke-width="1.5" stroke-linecap="round" stroke-linejoin="round"/>
<path d="M1.57178 12.8138C1.57178 13.6614 1.57178 14.0851 1.74298 14.2929C1.89171 14.4734 2.11612 14.5741 2.34983 14.5654C2.61884 14.5553 2.93557 14.2738 3.56901 13.7107L7.31278 10.383C7.66174 10.0728 7.83622 9.91766 7.90053 9.73452C7.957 9.57369 7.957 9.39843 7.90053 9.2376C7.83622 9.05446 7.66174 8.89936 7.31278 8.58917L3.56901 5.26138C2.93557 4.69832 2.61884 4.41678 2.34983 4.40671C2.11612 4.39797 1.89171 4.49874 1.74298 4.67923C1.57178 4.88699 1.57178 5.31075 1.57178 6.15827V12.8138Z" stroke="#98A2B3" stroke-width="1.5" stroke-linecap="round" stroke-linejoin="round"/>
</g>
<defs>
<clipPath id="clip0_1_9683">
<rect width="18" height="18" fill="white" transform="translate(0.0712891 0.486206)"/>
</clipPath>
</defs>
</svg>
