<svg width="19" height="19" viewBox="0 0 19 19" fill="none" xmlns="http://www.w3.org/2000/svg">
<path d="M17.0698 12.8138C17.0698 13.6614 17.0698 14.0851 16.8986 14.2929C16.7499 14.4734 16.5255 14.5741 16.2918 14.5654C16.0228 14.5553 15.706 14.2738 15.0726 13.7107L11.3288 10.3829C10.9799 10.0728 10.8054 9.91766 10.7411 9.73452C10.6846 9.57369 10.6846 9.39843 10.7411 9.2376C10.8054 9.05446 10.9799 8.89936 11.3288 8.58917L15.0726 5.26138C15.706 4.69832 16.0228 4.41678 16.2918 4.40671C16.5255 4.39797 16.7499 4.49874 16.8986 4.67923C17.0698 4.88699 17.0698 5.31075 17.0698 6.15827V12.8138Z" stroke="#98A2B3" stroke-width="1.5" stroke-linecap="round" stroke-linejoin="round"/>
<path d="M8.81983 12.8138C8.81983 13.6614 8.81983 14.0851 8.64863 14.2929C8.4999 14.4734 8.27549 14.5741 8.04178 14.5654C7.77276 14.5553 7.45604 14.2738 6.82259 13.7107L3.07883 10.3829C2.72987 10.0728 2.55538 9.91766 2.49108 9.73452C2.43461 9.57369 2.43461 9.39843 2.49108 9.2376C2.55538 9.05446 2.72987 8.89936 3.07883 8.58917L6.82259 5.26138C7.45604 4.69832 7.77276 4.41678 8.04178 4.40671C8.27549 4.39797 8.4999 4.49874 8.64863 4.67923C8.81983 4.88699 8.81983 5.31075 8.81983 6.15827V12.8138Z" stroke="#98A2B3" stroke-width="1.5" stroke-linecap="round" stroke-linejoin="round"/>
</svg>
