<svg width="19" height="19" viewBox="0 0 19 19" fill="none" xmlns="http://www.w3.org/2000/svg">
<path d="M12.5737 6.48626L2.07373 16.9863M14.0737 11.7363H7.32373M5.52373 14.7363H10.5767C10.7601 14.7363 10.8518 14.7363 10.9382 14.7155C11.0147 14.6972 11.0878 14.6669 11.1549 14.6257C11.2306 14.5794 11.2955 14.5145 11.4252 14.3848L15.1987 10.6113C15.378 10.432 15.4676 10.3424 15.5397 10.2631C17.0998 8.54675 17.0998 5.92577 15.5397 4.20943C15.4676 4.13009 15.378 4.04048 15.1987 3.86126C15.0195 3.68204 14.9299 3.59243 14.8506 3.52031C13.1342 1.96019 10.5132 1.96019 8.7969 3.52031C8.71756 3.59243 8.62795 3.68204 8.44873 3.86126L4.6752 7.63479C4.54549 7.7645 4.48063 7.82936 4.43425 7.90504C4.39313 7.97215 4.36283 8.04531 4.34445 8.12183C4.32373 8.20815 4.32373 8.29987 4.32373 8.48332V13.5363C4.32373 13.9563 4.32373 14.1663 4.40548 14.3268C4.47738 14.4679 4.59212 14.5826 4.73324 14.6545C4.89367 14.7363 5.10369 14.7363 5.52373 14.7363Z" stroke="#98A2B3" stroke-width="1.5" stroke-linecap="round" stroke-linejoin="round"/>
</svg>
