<svg width="19" height="19" viewBox="0 0 19 19" fill="none" xmlns="http://www.w3.org/2000/svg">
<g clip-path="url(#clip0_1_10837)">
<path d="M9.0752 1.98621H6.4502C5.754 1.98621 5.08632 2.26277 4.59404 2.75505C4.10176 3.24733 3.8252 3.91501 3.8252 4.61121C3.8252 5.3074 4.10176 5.97508 4.59404 6.46736C5.08632 6.95964 5.754 7.23621 6.4502 7.23621M9.0752 1.98621V7.23621M9.0752 1.98621H11.7002C12.0449 1.98621 12.3863 2.0541 12.7047 2.18602C13.0232 2.31794 13.3126 2.5113 13.5564 2.75505C13.8001 2.9988 13.9935 3.28818 14.1254 3.60666C14.2573 3.92514 14.3252 4.26649 14.3252 4.61121C14.3252 4.95593 14.2573 5.29727 14.1254 5.61575C13.9935 5.93423 13.8001 6.22361 13.5564 6.46736C13.3126 6.71112 13.0232 6.90447 12.7047 7.03639C12.3863 7.16831 12.0449 7.23621 11.7002 7.23621M9.0752 7.23621H6.4502M9.0752 7.23621H11.7002M9.0752 7.23621V12.4862M6.4502 7.23621C5.754 7.23621 5.08632 7.51277 4.59404 8.00505C4.10176 8.49733 3.8252 9.16501 3.8252 9.86121C3.8252 10.5574 4.10176 11.2251 4.59404 11.7174C5.08632 12.2096 5.754 12.4862 6.4502 12.4862M11.7002 7.23621C11.3555 7.23621 11.0141 7.3041 10.6957 7.43602C10.3772 7.56794 10.0878 7.7613 9.84404 8.00505C9.60029 8.24881 9.40693 8.53818 9.27501 8.85666C9.14309 9.17514 9.0752 9.51649 9.0752 9.86121C9.0752 10.2059 9.14309 10.5473 9.27501 10.8658C9.40693 11.1842 9.60029 11.4736 9.84404 11.7174C10.0878 11.9611 10.3772 12.1545 10.6957 12.2864C11.0141 12.4183 11.3555 12.4862 11.7002 12.4862C12.0449 12.4862 12.3863 12.4183 12.7047 12.2864C13.0232 12.1545 13.3126 11.9611 13.5564 11.7174C13.8001 11.4736 13.9935 11.1842 14.1254 10.8658C14.2573 10.5473 14.3252 10.2059 14.3252 9.86121C14.3252 9.51649 14.2573 9.17514 14.1254 8.85666C13.9935 8.53818 13.8001 8.24881 13.5564 8.00505C13.3126 7.7613 13.0232 7.56794 12.7047 7.43602C12.3863 7.3041 12.0449 7.23621 11.7002 7.23621ZM6.4502 12.4862C5.754 12.4862 5.08632 12.7628 4.59404 13.2551C4.10176 13.7473 3.8252 14.415 3.8252 15.1112C3.8252 15.8074 4.10176 16.4751 4.59404 16.9674C5.08632 17.4596 5.754 17.7362 6.4502 17.7362C7.14639 17.7362 7.81407 17.4596 8.30635 16.9674C8.79863 16.4751 9.0752 15.8074 9.0752 15.1112V12.4862M6.4502 12.4862H9.0752" stroke="#98A2B3" stroke-width="1.5" stroke-linecap="round" stroke-linejoin="round"/>
</g>
<defs>
<clipPath id="clip0_1_10837">
<rect width="18" height="18" fill="white" transform="translate(0.0756836 0.486206)"/>
</clipPath>
</defs>
</svg>
