<svg width="19" height="19" viewBox="0 0 19 19" fill="none" xmlns="http://www.w3.org/2000/svg">
<path d="M15.1035 9.86121V5.58621C15.1035 4.32609 15.1035 3.69603 14.8583 3.21473C14.6426 2.79136 14.2984 2.44716 13.875 2.23144C13.3937 1.98621 12.7636 1.98621 11.5035 1.98621H6.70352C5.4434 1.98621 4.81334 1.98621 4.33204 2.23144C3.90867 2.44716 3.56447 2.79136 3.34875 3.21473C3.10352 3.69603 3.10352 4.32609 3.10352 5.58621V13.3862C3.10352 14.6463 3.10352 15.2764 3.34875 15.7577C3.56447 16.1811 3.90867 16.5253 4.33204 16.741C4.81334 16.9862 5.44338 16.9862 6.70346 16.9862H9.10352M10.9785 14.7362L12.4785 16.2362L15.8535 12.8612" stroke="#98A2B3" stroke-width="1.5" stroke-linecap="round" stroke-linejoin="round"/>
</svg>
