<svg width="19" height="19" viewBox="0 0 19 19" fill="none" xmlns="http://www.w3.org/2000/svg">
<path d="M15.6128 9.86121V5.58621C15.6128 4.32609 15.6128 3.69603 15.3676 3.21473C15.1518 2.79136 14.8076 2.44716 14.3843 2.23144C13.903 1.98621 13.2729 1.98621 12.0128 1.98621H7.21279C5.95268 1.98621 5.32262 1.98621 4.84131 2.23144C4.41795 2.44716 4.07374 2.79136 3.85803 3.21473C3.61279 3.69603 3.61279 4.32609 3.61279 5.58621V13.3862C3.61279 14.6463 3.61279 15.2764 3.85803 15.7577C4.07374 16.1811 4.41795 16.5253 4.84131 16.741C5.32262 16.9862 5.95264 16.9862 7.21269 16.9862H9.98779M11.8628 14.7362L14.1128 16.9862M14.1128 16.9862L16.3628 14.7362M14.1128 16.9862V12.4862" stroke="#98A2B3" stroke-width="1.5" stroke-linecap="round" stroke-linejoin="round"/>
</svg>
