<svg width="19" height="19" viewBox="0 0 19 19" fill="none" xmlns="http://www.w3.org/2000/svg">
<path d="M15.6323 9.44209V5.58621C15.6323 4.32609 15.6323 3.69603 15.3871 3.21473C15.1714 2.79136 14.8272 2.44716 14.4038 2.23144C13.9225 1.98621 13.2924 1.98621 12.0323 1.98621H7.23232C5.97221 1.98621 5.34215 1.98621 4.86085 2.23144C4.43748 2.44716 4.09327 2.79136 3.87756 3.21473C3.63232 3.69603 3.63232 4.32609 3.63232 5.58621V13.3862C3.63232 14.6463 3.63232 15.2764 3.87756 15.7577C4.09327 16.1811 4.43748 16.5253 4.86085 16.741C5.34215 16.9862 5.97221 16.9862 7.23232 16.9862H11.1323M11.8823 13.2362H16.3823" stroke="#98A2B3" stroke-width="1.5" stroke-linecap="round" stroke-linejoin="round"/>
</svg>
