<svg width="19" height="19" viewBox="0 0 19 19" fill="none" xmlns="http://www.w3.org/2000/svg">
<path d="M15.1187 7.98621V5.58621C15.1187 4.32609 15.1187 3.69603 14.8734 3.21473C14.6577 2.79136 14.3135 2.44716 13.8901 2.23144C13.4088 1.98621 12.7788 1.98621 11.5187 1.98621H6.71865C5.45853 1.98621 4.82848 1.98621 4.34717 2.23144C3.92381 2.44716 3.5796 2.79136 3.36389 3.21473C3.11865 3.69603 3.11865 4.32609 3.11865 5.58621V13.3862C3.11865 14.6463 3.11865 15.2764 3.36389 15.7577C3.5796 16.1811 3.92381 16.5253 4.34717 16.741C4.82848 16.9862 5.45853 16.9862 6.71865 16.9862H9.11865M12.8666 11.6092C12.2668 10.9274 11.2666 10.744 10.5151 11.3683C9.76355 11.9926 9.65774 13.0363 10.2479 13.7747C10.8381 14.513 12.8666 16.2362 12.8666 16.2362C12.8666 16.2362 14.8951 14.513 15.4853 13.7747C16.0755 13.0363 15.9826 11.986 15.2181 11.3683C14.4537 10.7506 13.4664 10.9274 12.8666 11.6092Z" stroke="#98A2B3" stroke-width="1.5" stroke-linecap="round" stroke-linejoin="round"/>
</svg>
