<svg width="19" height="19" viewBox="0 0 19 19" fill="none" xmlns="http://www.w3.org/2000/svg">
<path d="M15.1577 7.98621V5.58621C15.1577 4.32609 15.1577 3.69603 14.9125 3.21473C14.6968 2.79136 14.3526 2.44716 13.9292 2.23144C13.4479 1.98621 12.8178 1.98621 11.5577 1.98621H6.75772C5.4976 1.98621 4.86754 1.98621 4.38624 2.23144C3.96287 2.44716 3.61867 2.79136 3.40295 3.21473C3.15771 3.69603 3.15771 4.32609 3.15771 5.58621V13.3862C3.15771 14.6463 3.15771 15.2764 3.40295 15.7577C3.61867 16.1811 3.96287 16.5253 4.38624 16.741C4.86754 16.9862 5.4976 16.9862 6.75772 16.9862H9.53272M13.6577 16.2362C13.6577 16.2362 15.9077 15.1638 15.9077 13.5551V11.6784L14.267 11.0921C13.8728 10.9509 13.4417 10.9509 13.0475 11.0921L11.4077 11.6784V13.5551C11.4077 15.1638 13.6577 16.2362 13.6577 16.2362Z" stroke="#98A2B3" stroke-width="1.5" stroke-linecap="round" stroke-linejoin="round"/>
</svg>
