<svg width="19" height="19" viewBox="0 0 19 19" fill="none" xmlns="http://www.w3.org/2000/svg">
<path d="M15.6484 7.61121V5.58621C15.6484 4.32609 15.6484 3.69603 15.4032 3.21473C15.1875 2.79136 14.8433 2.44716 14.4199 2.23144C13.9386 1.98621 13.3086 1.98621 12.0484 1.98621H7.24844C5.98832 1.98621 5.35826 1.98621 4.87696 2.23144C4.45359 2.44716 4.10939 2.79136 3.89367 3.21473C3.64844 3.69603 3.64844 4.32609 3.64844 5.58621V13.3862C3.64844 14.6463 3.64844 15.2764 3.89367 15.7577C4.10939 16.1811 4.45359 16.5253 4.87696 16.741C5.35826 16.9862 5.98832 16.9862 7.24844 16.9862H11.1484M11.1484 8.73621H6.64844M8.14844 11.7362H6.64844M12.6484 5.73621H6.64844M13.0234 11.7379C13.1556 11.3622 13.4164 11.0455 13.7597 10.8437C14.1031 10.6419 14.5067 10.5682 14.8992 10.6355C15.2917 10.7028 15.6477 10.9069 15.9041 11.2115C16.1606 11.5162 16.301 11.9017 16.3004 12.3C16.3004 13.4241 14.6141 13.9862 14.6141 13.9862M14.6359 16.2362H14.6434" stroke="#98A2B3" stroke-width="1.5" stroke-linecap="round" stroke-linejoin="round"/>
</svg>
