<svg width="19" height="19" viewBox="0 0 19 19" fill="none" xmlns="http://www.w3.org/2000/svg">
<path d="M3.07959 5.58621C3.07959 4.32609 3.07959 3.69603 3.32483 3.21473C3.54054 2.79136 3.88475 2.44716 4.30811 2.23144C4.78941 1.98621 5.41947 1.98621 6.67959 1.98621H11.4796C12.7397 1.98621 13.3698 1.98621 13.8511 2.23144C14.2744 2.44716 14.6186 2.79136 14.8344 3.21473C15.0796 3.69603 15.0796 4.32609 15.0796 5.58621V13.3862C15.0796 14.6463 15.0796 15.2764 14.8344 15.7577C14.6186 16.1811 14.2744 16.5253 13.8511 16.741C13.3698 16.9862 12.7397 16.9862 11.4796 16.9862H6.67959C5.41947 16.9862 4.78941 16.9862 4.30811 16.741C3.88475 16.5253 3.54054 16.1811 3.32483 15.7577C3.07959 15.2764 3.07959 14.6463 3.07959 13.3862V5.58621Z" stroke="#98A2B3" stroke-width="1.5" stroke-linecap="round" stroke-linejoin="round"/>
</svg>
