<svg width="19" height="19" viewBox="0 0 19 19" fill="none" xmlns="http://www.w3.org/2000/svg">
<path d="M11.0889 2.18835V5.28626C11.0889 5.7063 11.0889 5.91632 11.1706 6.07675C11.2425 6.21787 11.3573 6.33261 11.4984 6.40451C11.6588 6.48626 11.8688 6.48626 12.2889 6.48626H15.3868M12.5889 10.2362H6.58887M12.5889 13.2362H6.58887M8.08887 7.23621H6.58887M11.0889 1.98621H7.18887C5.92875 1.98621 5.29869 1.98621 4.81739 2.23144C4.39402 2.44716 4.04982 2.79136 3.8341 3.21473C3.58887 3.69603 3.58887 4.32609 3.58887 5.58621V13.3862C3.58887 14.6463 3.58887 15.2764 3.8341 15.7577C4.04982 16.1811 4.39402 16.5253 4.81739 16.741C5.29869 16.9862 5.92875 16.9862 7.18887 16.9862H11.9889C13.249 16.9862 13.879 16.9862 14.3603 16.741C14.7837 16.5253 15.1279 16.1811 15.3436 15.7577C15.5889 15.2764 15.5889 14.6463 15.5889 13.3862V6.48621L11.0889 1.98621Z" stroke="#98A2B3" stroke-width="1.5" stroke-linecap="round" stroke-linejoin="round"/>
</svg>
