<svg width="19" height="19" viewBox="0 0 19 19" fill="none" xmlns="http://www.w3.org/2000/svg">
<path d="M15.166 9.48621V5.58621C15.166 4.32609 15.166 3.69603 14.9208 3.21473C14.7051 2.79136 14.3609 2.44716 13.9375 2.23144C13.4562 1.98621 12.8261 1.98621 11.566 1.98621H6.76602C5.5059 1.98621 4.87584 1.98621 4.39454 2.23144C3.97117 2.44716 3.62697 2.79136 3.41125 3.21473C3.16602 3.69603 3.16602 4.32609 3.16602 5.58621V13.3862C3.16602 14.6463 3.16602 15.2764 3.41125 15.7577C3.62697 16.1811 3.97117 16.5253 4.39454 16.741C4.87584 16.9862 5.5059 16.9862 6.76602 16.9862H9.16602M12.166 12.4862L15.916 16.2362M15.916 12.4862L12.166 16.2362" stroke="#98A2B3" stroke-width="1.5" stroke-linecap="round" stroke-linejoin="round"/>
</svg>
