<svg width="19" height="19" viewBox="0 0 19 19" fill="none" xmlns="http://www.w3.org/2000/svg">
<path d="M11.0815 8.73621H6.58154M8.08154 11.7362H6.58154M12.5815 5.73621H6.58154M15.5815 5.58621V13.3862C15.5815 14.6463 15.5815 15.2764 15.3363 15.7577C15.1206 16.1811 14.7764 16.5253 14.353 16.741C13.8717 16.9862 13.2417 16.9862 11.9815 16.9862H7.18154C5.92143 16.9862 5.29137 16.9862 4.81006 16.741C4.3867 16.5253 4.04249 16.1811 3.82678 15.7577C3.58154 15.2764 3.58154 14.6463 3.58154 13.3862V5.58621C3.58154 4.32609 3.58154 3.69603 3.82678 3.21473C4.04249 2.79136 4.3867 2.44716 4.81006 2.23144C5.29137 1.98621 5.92143 1.98621 7.18154 1.98621H11.9815C13.2417 1.98621 13.8717 1.98621 14.353 2.23144C14.7764 2.44716 15.1206 2.79136 15.3363 3.21473C15.5815 3.69603 15.5815 4.32609 15.5815 5.58621Z" stroke="#98A2B3" stroke-width="1.5" stroke-linecap="round" stroke-linejoin="round"/>
</svg>
