<svg width="19" height="19" viewBox="0 0 19 19" fill="none" xmlns="http://www.w3.org/2000/svg">
<path d="M11.1084 2.18835V5.28626C11.1084 5.7063 11.1084 5.91632 11.1901 6.07675C11.262 6.21787 11.3768 6.33261 11.5179 6.40451C11.6783 6.48626 11.8884 6.48626 12.3084 6.48626H15.4063M11.1084 13.6112L12.9834 11.7362L11.1084 9.86121M8.1084 9.86121L6.2334 11.7362L8.1084 13.6112M15.6084 7.97738V13.3862C15.6084 14.6463 15.6084 15.2764 15.3632 15.7577C15.1474 16.1811 14.8032 16.5253 14.3799 16.741C13.8986 16.9862 13.2685 16.9862 12.0084 16.9862H7.2084C5.94828 16.9862 5.31822 16.9862 4.83692 16.741C4.41356 16.5253 4.06935 16.1811 3.85363 15.7577C3.6084 15.2764 3.6084 14.6463 3.6084 13.3862V5.58621C3.6084 4.32609 3.6084 3.69603 3.85363 3.21473C4.06935 2.79136 4.41356 2.44716 4.83692 2.23144C5.31822 1.98621 5.94828 1.98621 7.2084 1.98621H9.61723C10.1676 1.98621 10.4427 1.98621 10.7017 2.04837C10.9313 2.10349 11.1507 2.1944 11.352 2.31777C11.5791 2.45691 11.7737 2.65148 12.1628 3.04062L14.554 5.43179C14.9431 5.82093 15.1377 6.0155 15.2768 6.24257C15.4002 6.44388 15.4911 6.66335 15.5462 6.89293C15.6084 7.15188 15.6084 7.42705 15.6084 7.97738Z" stroke="#98A2B3" stroke-width="1.5" stroke-linecap="round" stroke-linejoin="round"/>
</svg>
