<svg width="19" height="19" viewBox="0 0 19 19" fill="none" xmlns="http://www.w3.org/2000/svg">
<path d="M15.1426 8.36121V5.58621C15.1426 4.32609 15.1426 3.69603 14.8973 3.21473C14.6816 2.79136 14.3374 2.44716 13.9141 2.23144C13.4328 1.98621 12.8027 1.98621 11.5426 1.98621H6.74258C5.48246 1.98621 4.8524 1.98621 4.3711 2.23144C3.94773 2.44716 3.60353 2.79136 3.38781 3.21473C3.14258 3.69603 3.14258 4.32609 3.14258 5.58621V13.3862C3.14258 14.6463 3.14258 15.2764 3.38781 15.7577C3.60353 16.1811 3.94773 16.5253 4.3711 16.741C4.8524 16.9862 5.48246 16.9862 6.74258 16.9862H9.14258M10.6426 8.73621H6.14258M7.64258 11.7362H6.14258M12.1426 5.73621H6.14258M13.6426 16.2362V11.7362M11.3926 13.9862H15.8926" stroke="#98A2B3" stroke-width="1.5" stroke-linecap="round" stroke-linejoin="round"/>
</svg>
