<svg width="19" height="19" viewBox="0 0 19 19" fill="none" xmlns="http://www.w3.org/2000/svg">
<path d="M10.6226 2.18835V5.28626C10.6226 5.7063 10.6226 5.91632 10.7043 6.07675C10.7762 6.21787 10.8909 6.33261 11.0321 6.40451C11.1925 6.48626 11.4025 6.48626 11.8226 6.48626H14.9205M10.6226 1.98621H6.72256C5.46244 1.98621 4.83238 1.98621 4.35108 2.23144C3.92772 2.44716 3.58351 2.79136 3.36779 3.21473C3.12256 3.69603 3.12256 4.32609 3.12256 5.58621V13.3862C3.12256 14.6463 3.12256 15.2764 3.36779 15.7577C3.58351 16.1811 3.92772 16.5253 4.35108 16.741C4.83238 16.9862 5.46244 16.9862 6.72256 16.9862H11.5226C12.7827 16.9862 13.4127 16.9862 13.894 16.741C14.3174 16.5253 14.6616 16.1811 14.8773 15.7577C15.1226 15.2764 15.1226 14.6463 15.1226 13.3862V6.48621L10.6226 1.98621ZM9.1205 9.35915C8.5207 8.67741 7.52048 8.49402 6.76897 9.11829C6.01745 9.74257 5.91165 10.7863 6.50182 11.5247C7.09199 12.263 9.1205 13.9862 9.1205 13.9862C9.1205 13.9862 11.149 12.263 11.7392 11.5247C12.3294 10.7863 12.2365 9.736 11.472 9.11829C10.7076 8.50059 9.72031 8.67741 9.1205 9.35915Z" stroke="#98A2B3" stroke-width="1.5" stroke-linecap="round" stroke-linejoin="round"/>
</svg>
