<svg width="19" height="19" viewBox="0 0 19 19" fill="none" xmlns="http://www.w3.org/2000/svg">
<path d="M15.6523 8.36121V5.58621C15.6523 4.32609 15.6523 3.69603 15.4071 3.21473C15.1914 2.79136 14.8472 2.44716 14.4238 2.23144C13.9425 1.98621 13.3125 1.98621 12.0523 1.98621H7.25234C5.99223 1.98621 5.36217 1.98621 4.88087 2.23144C4.4575 2.44716 4.11329 2.79136 3.89758 3.21473C3.65234 3.69603 3.65234 4.32609 3.65234 5.58621V13.3862C3.65234 14.6463 3.65234 15.2764 3.89758 15.7577C4.11329 16.1811 4.4575 16.5253 4.88087 16.741C5.36217 16.9862 5.99223 16.9862 7.25234 16.9862H9.27734M17.1523 16.9862L16.0273 15.8612M16.7773 13.9862C16.7773 15.436 15.6021 16.6112 14.1523 16.6112C12.7026 16.6112 11.5273 15.436 11.5273 13.9862C11.5273 12.5365 12.7026 11.3612 14.1523 11.3612C15.6021 11.3612 16.7773 12.5365 16.7773 13.9862Z" stroke="#98A2B3" stroke-width="1.5" stroke-linecap="round" stroke-linejoin="round"/>
</svg>
