<svg width="19" height="19" viewBox="0 0 19 19" fill="none" xmlns="http://www.w3.org/2000/svg">
<path d="M15.6211 7.98621V5.58621C15.6211 4.32609 15.6211 3.69603 15.3759 3.21473C15.1601 2.79136 14.8159 2.44716 14.3926 2.23144C13.9113 1.98621 13.2812 1.98621 12.0211 1.98621H7.22109C5.96098 1.98621 5.33092 1.98621 4.84962 2.23144C4.42625 2.44716 4.08204 2.79136 3.86633 3.21473C3.62109 3.69603 3.62109 4.32609 3.62109 5.58621V13.3862C3.62109 14.6463 3.62109 15.2764 3.86633 15.7577C4.08204 16.1811 4.42625 16.5253 4.84962 16.741C5.33092 16.9862 5.96098 16.9862 7.22109 16.9862H9.62109M9.99609 8.73621H6.62109M7.37109 11.7362H6.62109M12.6211 5.73621H6.62109M13.369 11.6092C12.7692 10.9274 11.769 10.744 11.0175 11.3683C10.266 11.9926 10.1602 13.0363 10.7504 13.7747C11.3405 14.513 13.369 16.2362 13.369 16.2362C13.369 16.2362 15.3976 14.513 15.9877 13.7747C16.5779 13.0363 16.485 11.986 15.7206 11.3683C14.9561 10.7506 13.9688 10.9274 13.369 11.6092Z" stroke="#98A2B3" stroke-width="1.5" stroke-linecap="round" stroke-linejoin="round"/>
</svg>
