<svg width="19" height="19" viewBox="0 0 19 19" fill="none" xmlns="http://www.w3.org/2000/svg">
<path d="M9.46973 1.98621H11.4947C12.7548 1.98621 13.3849 1.98621 13.8662 2.23144C14.2896 2.44716 14.6338 2.79136 14.8495 3.21473C15.0947 3.69603 15.0947 4.32609 15.0947 5.58621V13.3862C15.0947 14.6463 15.0947 15.2764 14.8495 15.7577C14.6338 16.1811 14.2896 16.5253 13.8662 16.741C13.3849 16.9862 12.7548 16.9862 11.4947 16.9862H6.69473C5.43461 16.9862 4.80455 16.9862 4.32325 16.741C3.89988 16.5253 3.55568 16.1811 3.33996 15.7577C3.09473 15.2764 3.09473 14.6463 3.09473 13.3862V12.8612M12.0947 10.2362H8.71973M12.0947 7.23621H9.46973M12.0947 13.2362H6.09473M4.59473 7.98621V3.86121C4.59473 3.23989 5.09841 2.73621 5.71973 2.73621C6.34105 2.73621 6.84473 3.23989 6.84473 3.86121V7.98621C6.84473 9.22885 5.83737 10.2362 4.59473 10.2362C3.35209 10.2362 2.34473 9.22885 2.34473 7.98621V4.98621" stroke="#98A2B3" stroke-width="1.5" stroke-linecap="round" stroke-linejoin="round"/>
</svg>
