<svg width="19" height="19" viewBox="0 0 19 19" fill="none" xmlns="http://www.w3.org/2000/svg">
<path d="M10.5869 2.18835V5.28626C10.5869 5.7063 10.5869 5.91632 10.6687 6.07675C10.7406 6.21787 10.8553 6.33261 10.9964 6.40451C11.1569 6.48626 11.3669 6.48626 11.7869 6.48626H14.8848M10.5869 13.2362H6.08691M12.0869 10.2362H6.08691M15.0869 7.97738V13.3862C15.0869 14.6463 15.0869 15.2764 14.8417 15.7577C14.626 16.1811 14.2818 16.5253 13.8584 16.741C13.3771 16.9862 12.747 16.9862 11.4869 16.9862H6.68691C5.4268 16.9862 4.79674 16.9862 4.31544 16.741C3.89207 16.5253 3.54786 16.1811 3.33215 15.7577C3.08691 15.2764 3.08691 14.6463 3.08691 13.3862V5.58621C3.08691 4.32609 3.08691 3.69603 3.33215 3.21473C3.54786 2.79136 3.89207 2.44716 4.31544 2.23144C4.79674 1.98621 5.4268 1.98621 6.68691 1.98621H9.09575C9.64607 1.98621 9.92124 1.98621 10.1802 2.04837C10.4098 2.10349 10.6292 2.1944 10.8306 2.31777C11.0576 2.45691 11.2522 2.65148 11.6413 3.04062L14.0325 5.43179C14.4216 5.82093 14.6162 6.0155 14.7554 6.24257C14.8787 6.44388 14.9696 6.66335 15.0247 6.89293C15.0869 7.15188 15.0869 7.42705 15.0869 7.97738Z" stroke="#98A2B3" stroke-width="1.5" stroke-linecap="round" stroke-linejoin="round"/>
</svg>
