<svg width="19" height="19" viewBox="0 0 19 19" fill="none" xmlns="http://www.w3.org/2000/svg">
<path d="M9.60156 10.9862V6.86121C9.60156 6.23989 10.1052 5.73621 10.7266 5.73621C11.3479 5.73621 11.8516 6.23989 11.8516 6.86121V10.9862C11.8516 12.2288 10.8442 13.2362 9.60156 13.2362C8.35892 13.2362 7.35156 12.2288 7.35156 10.9862V7.98621M7.20156 16.9862H12.0016C13.2617 16.9862 13.8917 16.9862 14.373 16.741C14.7964 16.5253 15.1406 16.1811 15.3563 15.7577C15.6016 15.2764 15.6016 14.6463 15.6016 13.3862V5.58621C15.6016 4.32609 15.6016 3.69603 15.3563 3.21473C15.1406 2.79136 14.7964 2.44716 14.373 2.23144C13.8917 1.98621 13.2617 1.98621 12.0016 1.98621H7.20156C5.94144 1.98621 5.31139 1.98621 4.83008 2.23144C4.40672 2.44716 4.06251 2.79136 3.8468 3.21473C3.60156 3.69603 3.60156 4.32609 3.60156 5.58621V13.3862C3.60156 14.6463 3.60156 15.2764 3.8468 15.7577C4.06251 16.1811 4.40672 16.5253 4.83008 16.741C5.31139 16.9862 5.94144 16.9862 7.20156 16.9862Z" stroke="#98A2B3" stroke-width="1.5" stroke-linecap="round" stroke-linejoin="round"/>
</svg>
