<svg width="19" height="19" viewBox="0 0 19 19" fill="none" xmlns="http://www.w3.org/2000/svg">
<path d="M10.6548 8.73621H6.15479M7.65479 11.7362H6.15479M12.1548 5.73621H6.15479M15.1548 8.36121V5.58621C15.1548 4.32609 15.1548 3.69603 14.9096 3.21473C14.6938 2.79136 14.3496 2.44716 13.9263 2.23144C13.445 1.98621 12.8149 1.98621 11.5548 1.98621H6.75479C5.49467 1.98621 4.86461 1.98621 4.38331 2.23144C3.95994 2.44716 3.61574 2.79136 3.40002 3.21473C3.15479 3.69603 3.15479 4.32609 3.15479 5.58621V13.3862C3.15479 14.6463 3.15479 15.2764 3.40002 15.7577C3.61574 16.1811 3.95994 16.5253 4.38331 16.741C4.86461 16.9862 5.49467 16.9862 6.75479 16.9862H8.77979M16.6548 16.9862L15.5298 15.8612M16.2798 13.9862C16.2798 15.436 15.1045 16.6112 13.6548 16.6112C12.205 16.6112 11.0298 15.436 11.0298 13.9862C11.0298 12.5365 12.205 11.3612 13.6548 11.3612C15.1045 11.3612 16.2798 12.5365 16.2798 13.9862Z" stroke="#98A2B3" stroke-width="1.5" stroke-linecap="round" stroke-linejoin="round"/>
</svg>
