<svg width="19" height="19" viewBox="0 0 19 19" fill="none" xmlns="http://www.w3.org/2000/svg">
<path d="M10.6621 1.98621H6.76211C5.50199 1.98621 4.87193 1.98621 4.39063 2.23144C3.96727 2.44716 3.62306 2.79136 3.40734 3.21473C3.16211 3.69603 3.16211 4.32609 3.16211 5.58621V13.3862C3.16211 14.6463 3.16211 15.2764 3.40734 15.7577C3.62306 16.1811 3.96727 16.5253 4.39063 16.741C4.87193 16.9862 5.50199 16.9862 6.76211 16.9862H11.5621C12.8222 16.9862 13.4523 16.9862 13.9336 16.741C14.357 16.5253 14.7012 16.1811 14.9169 15.7577C15.1621 15.2764 15.1621 14.6463 15.1621 13.3862V6.48621M10.6621 1.98621L15.1621 6.48621M10.6621 1.98621V6.48621H15.1621M9.16211 13.9862C9.16211 13.9862 11.4121 12.9138 11.4121 11.3051V9.42837L9.77141 8.84211C9.37721 8.70091 8.94611 8.70091 8.55191 8.84211L6.91211 9.42837V11.3051C6.91211 12.9138 9.16211 13.9862 9.16211 13.9862Z" stroke="#98A2B3" stroke-width="1.5" stroke-linecap="round" stroke-linejoin="round"/>
</svg>
