<svg width="19" height="19" viewBox="0 0 19 19" fill="none" xmlns="http://www.w3.org/2000/svg">
<path d="M3.86133 14.3612C3.86133 14.7095 3.86133 14.8837 3.88058 15.0299C4.0135 16.0395 4.80799 16.834 5.81764 16.967C5.96386 16.9862 6.13801 16.9862 6.48633 16.9862H12.2613C13.5214 16.9862 14.1515 16.9862 14.6328 16.741C15.0562 16.5253 15.4004 16.1811 15.6161 15.7577C15.8613 15.2764 15.8613 14.6463 15.8613 13.3862V7.97738C15.8613 7.42705 15.8613 7.15188 15.7992 6.89293C15.744 6.66335 15.6531 6.44388 15.5298 6.24257C15.3906 6.0155 15.1961 5.82093 14.8069 5.43179L12.4157 3.04062C12.0266 2.65148 11.832 2.45691 11.605 2.31777C11.4037 2.1944 11.1842 2.10349 10.9546 2.04837C10.6957 1.98621 10.4205 1.98621 9.87016 1.98621H6.48633C6.13801 1.98621 5.96386 1.98621 5.81764 2.00546C4.80799 2.13838 4.0135 2.93287 3.88058 3.94252C3.86133 4.08873 3.86133 4.26289 3.86133 4.61121M6.86133 11.3612L8.73633 9.48621L6.86133 7.61121M3.86133 7.61121L1.98633 9.48621L3.86133 11.3612" stroke="#98A2B3" stroke-width="1.5" stroke-linecap="round" stroke-linejoin="round"/>
</svg>
