<svg width="19" height="19" viewBox="0 0 19 19" fill="none" xmlns="http://www.w3.org/2000/svg">
<path d="M11.1563 2.18835V5.28626C11.1563 5.7063 11.1563 5.91632 11.238 6.07675C11.3099 6.21787 11.4246 6.33261 11.5658 6.40451C11.7262 6.48626 11.9362 6.48626 12.3563 6.48626H15.4542M12.6563 14.3612L11.5313 13.2362M11.1563 1.98621H7.25625C5.99613 1.98621 5.36607 1.98621 4.88477 2.23144C4.46141 2.44716 4.1172 2.79136 3.90149 3.21473C3.65625 3.69603 3.65625 4.32609 3.65625 5.58621V13.3862C3.65625 14.6463 3.65625 15.2764 3.90149 15.7577C4.1172 16.1811 4.46141 16.5253 4.88477 16.741C5.36607 16.9862 5.99613 16.9862 7.25625 16.9862H12.0563C13.3164 16.9862 13.9464 16.9862 14.4277 16.741C14.8511 16.5253 15.1953 16.1811 15.411 15.7577C15.6563 15.2764 15.6563 14.6463 15.6563 13.3862V6.48621L11.1563 1.98621ZM12.2813 11.3612C12.2813 12.811 11.106 13.9862 9.65625 13.9862C8.2065 13.9862 7.03125 12.811 7.03125 11.3612C7.03125 9.91146 8.2065 8.73621 9.65625 8.73621C11.106 8.73621 12.2813 9.91146 12.2813 11.3612Z" stroke="#98A2B3" stroke-width="1.5" stroke-linecap="round" stroke-linejoin="round"/>
</svg>
