<svg width="19" height="19" viewBox="0 0 19 19" fill="none" xmlns="http://www.w3.org/2000/svg">
<path d="M11.144 2.18835V5.28626C11.144 5.7063 11.144 5.91632 11.2258 6.07675C11.2977 6.21787 11.4124 6.33261 11.5536 6.40451C11.714 6.48626 11.924 6.48626 12.344 6.48626H15.4419M9.64404 13.9862V9.48621M7.39404 11.7362H11.894M11.144 1.98621H7.24404C5.98393 1.98621 5.35387 1.98621 4.87256 2.23144C4.4492 2.44716 4.10499 2.79136 3.88928 3.21473C3.64404 3.69603 3.64404 4.32609 3.64404 5.58621V13.3862C3.64404 14.6463 3.64404 15.2764 3.88928 15.7577C4.10499 16.1811 4.4492 16.5253 4.87256 16.741C5.35387 16.9862 5.98393 16.9862 7.24404 16.9862H12.044C13.3042 16.9862 13.9342 16.9862 14.4155 16.741C14.8389 16.5253 15.1831 16.1811 15.3988 15.7577C15.644 15.2764 15.644 14.6463 15.644 13.3862V6.48621L11.144 1.98621Z" stroke="#98A2B3" stroke-width="1.5" stroke-linecap="round" stroke-linejoin="round"/>
</svg>
