<svg width="19" height="19" viewBox="0 0 19 19" fill="none" xmlns="http://www.w3.org/2000/svg">
<path d="M11.1602 8.73621H6.66016M8.16016 11.7362H6.66016M12.6602 5.73621H6.66016M15.6602 7.98621V5.58621C15.6602 4.32609 15.6602 3.69603 15.4149 3.21473C15.1992 2.79136 14.855 2.44716 14.4316 2.23144C13.9503 1.98621 13.3203 1.98621 12.0602 1.98621H7.26016C6.00004 1.98621 5.36998 1.98621 4.88868 2.23144C4.46531 2.44716 4.12111 2.79136 3.90539 3.21473C3.66016 3.69603 3.66016 4.32609 3.66016 5.58621V13.3862C3.66016 14.6463 3.66016 15.2764 3.90539 15.7577C4.12111 16.1811 4.46531 16.5253 4.88868 16.741C5.36998 16.9862 6.00004 16.9862 7.26016 16.9862H10.0352M14.1602 16.2362C14.1602 16.2362 16.4102 15.1638 16.4102 13.5551V11.6784L14.7695 11.0921C14.3753 10.9509 13.9442 10.9509 13.55 11.0921L11.9102 11.6784V13.5551C11.9102 15.1638 14.1602 16.2362 14.1602 16.2362Z" stroke="#98A2B3" stroke-width="1.5" stroke-linecap="round" stroke-linejoin="round"/>
</svg>
