<svg width="19" height="19" viewBox="0 0 19 19" fill="none" xmlns="http://www.w3.org/2000/svg">
<path d="M15.6055 9.86121V5.58621C15.6055 4.32609 15.6055 3.69603 15.3602 3.21473C15.1445 2.79136 14.8003 2.44716 14.3769 2.23144C13.8956 1.98621 13.2656 1.98621 12.0055 1.98621H7.20547C5.94535 1.98621 5.31529 1.98621 4.83399 2.23144C4.41063 2.44716 4.06642 2.79136 3.8507 3.21473C3.60547 3.69603 3.60547 4.32609 3.60547 5.58621V13.3862C3.60547 14.6463 3.60547 15.2764 3.8507 15.7577C4.06642 16.1811 4.41063 16.5253 4.83399 16.741C5.31529 16.9862 5.94535 16.9862 7.20547 16.9862H9.60547M11.1055 8.73621H6.60547M8.10547 11.7362H6.60547M12.6055 5.73621H6.60547M11.4805 14.7362L12.9805 16.2362L16.3555 12.8612" stroke="#98A2B3" stroke-width="1.5" stroke-linecap="round" stroke-linejoin="round"/>
</svg>
