<svg width="19" height="19" viewBox="0 0 19 19" fill="none" xmlns="http://www.w3.org/2000/svg">
<path d="M15.1343 9.44209V5.58621C15.1343 4.32609 15.1343 3.69603 14.889 3.21473C14.6733 2.79136 14.3291 2.44716 13.9058 2.23144C13.4245 1.98621 12.7944 1.98621 11.5343 1.98621H6.73428C5.47416 1.98621 4.8441 1.98621 4.3628 2.23144C3.93943 2.44716 3.59523 2.79136 3.37951 3.21473C3.13428 3.69603 3.13428 4.32609 3.13428 5.58621V13.3862C3.13428 14.6463 3.13428 15.2764 3.37951 15.7577C3.59523 16.1811 3.93943 16.5253 4.3628 16.741C4.8441 16.9862 5.47416 16.9862 6.73428 16.9862H10.6343M10.6343 8.73621H6.13428M7.63428 11.7362H6.13428M12.1343 5.73621H6.13428M11.3843 13.2362H15.8843" stroke="#98A2B3" stroke-width="1.5" stroke-linecap="round" stroke-linejoin="round"/>
</svg>
