<svg width="19" height="19" viewBox="0 0 19 19" fill="none" xmlns="http://www.w3.org/2000/svg">
<path d="M11.168 8.73621H6.66797M8.16797 11.7362H6.66797M12.668 5.73621H6.66797M15.668 9.48621V5.58621C15.668 4.32609 15.668 3.69603 15.4227 3.21473C15.207 2.79136 14.8628 2.44716 14.4394 2.23144C13.9581 1.98621 13.3281 1.98621 12.068 1.98621H7.26797C6.00785 1.98621 5.37779 1.98621 4.89649 2.23144C4.47313 2.44716 4.12892 2.79136 3.9132 3.21473C3.66797 3.69603 3.66797 4.32609 3.66797 5.58621V13.3862C3.66797 14.6463 3.66797 15.2764 3.9132 15.7577C4.12892 16.1811 4.47313 16.5253 4.89649 16.741C5.37779 16.9862 6.00785 16.9862 7.26797 16.9862H9.66797M12.668 12.4862L16.418 16.2362M16.418 12.4862L12.668 16.2362" stroke="#98A2B3" stroke-width="1.5" stroke-linecap="round" stroke-linejoin="round"/>
</svg>
