<svg width="19" height="19" viewBox="0 0 19 19" fill="none" xmlns="http://www.w3.org/2000/svg">
<path d="M11.1162 2.18835V5.28626C11.1162 5.7063 11.1162 5.91632 11.198 6.07675C11.2699 6.21787 11.3846 6.33261 11.5257 6.40451C11.6862 6.48626 11.8962 6.48626 12.3162 6.48626H15.4141M7.36621 11.7362L9.61621 13.9862M9.61621 13.9862L11.8662 11.7362M9.61621 13.9862L9.61621 9.48621M11.1162 1.98621H7.21621C5.95609 1.98621 5.32603 1.98621 4.84473 2.23144C4.42137 2.44716 4.07716 2.79136 3.86145 3.21473C3.61621 3.69603 3.61621 4.32609 3.61621 5.58621V13.3862C3.61621 14.6463 3.61621 15.2764 3.86145 15.7577C4.07716 16.1811 4.42137 16.5253 4.84473 16.741C5.32603 16.9862 5.95609 16.9862 7.21621 16.9862H12.0162C13.2763 16.9862 13.9064 16.9862 14.3877 16.741C14.8111 16.5253 15.1553 16.1811 15.371 15.7577C15.6162 15.2764 15.6162 14.6463 15.6162 13.3862V6.48621L11.1162 1.98621Z" stroke="#98A2B3" stroke-width="1.5" stroke-linecap="round" stroke-linejoin="round"/>
</svg>
