<svg width="19" height="19" viewBox="0 0 19 19" fill="none" xmlns="http://www.w3.org/2000/svg">
<path d="M10.6504 2.18835V5.28626C10.6504 5.7063 10.6504 5.91632 10.7321 6.07675C10.804 6.21787 10.9188 6.33261 11.0599 6.40451C11.2203 6.48626 11.4304 6.48626 11.8504 6.48626H14.9483M7.53787 9.48788C7.67002 9.11223 7.93085 8.79546 8.27417 8.59369C8.61749 8.39192 9.02115 8.31816 9.41364 8.38548C9.80613 8.4528 10.1621 8.65686 10.4186 8.96151C10.675 9.26616 10.8154 9.65174 10.8148 10.05C10.8148 11.1741 9.12856 11.7362 9.12856 11.7362M9.15039 13.9862H9.15789M10.6504 1.98621H6.75039C5.49027 1.98621 4.86021 1.98621 4.37891 2.23144C3.95555 2.44716 3.61134 2.79136 3.39563 3.21473C3.15039 3.69603 3.15039 4.32609 3.15039 5.58621V13.3862C3.15039 14.6463 3.15039 15.2764 3.39563 15.7577C3.61134 16.1811 3.95555 16.5253 4.37891 16.741C4.86021 16.9862 5.49027 16.9862 6.75039 16.9862H11.5504C12.8105 16.9862 13.4406 16.9862 13.9219 16.741C14.3452 16.5253 14.6894 16.1811 14.9052 15.7577C15.1504 15.2764 15.1504 14.6463 15.1504 13.3862V6.48621L10.6504 1.98621Z" stroke="#98A2B3" stroke-width="1.5" stroke-linecap="round" stroke-linejoin="round"/>
</svg>
