<svg width="19" height="19" viewBox="0 0 19 19" fill="none" xmlns="http://www.w3.org/2000/svg">
<path d="M15.1152 9.86121V5.58621C15.1152 4.32609 15.1152 3.69603 14.87 3.21473C14.6543 2.79136 14.3101 2.44716 13.8867 2.23144C13.4054 1.98621 12.7754 1.98621 11.5152 1.98621H6.71524C5.45512 1.98621 4.82506 1.98621 4.34376 2.23144C3.92039 2.44716 3.57618 2.79136 3.36047 3.21473C3.11523 3.69603 3.11523 4.32609 3.11523 5.58621V13.3862C3.11523 14.6463 3.11523 15.2764 3.36047 15.7577C3.57618 16.1811 3.92039 16.5253 4.34376 16.741C4.82506 16.9862 5.45508 16.9862 6.71513 16.9862H9.49024M10.6152 8.73621H6.11523M7.61524 11.7362H6.11523M12.1152 5.73621H6.11523M11.3652 14.7362L13.6152 16.9862M13.6152 16.9862L15.8652 14.7362M13.6152 16.9862V12.4862" stroke="#98A2B3" stroke-width="1.5" stroke-linecap="round" stroke-linejoin="round"/>
</svg>
