<svg width="19" height="19" viewBox="0 0 19 19" fill="none" xmlns="http://www.w3.org/2000/svg">
<path d="M15.6401 8.36121V5.58621C15.6401 4.32609 15.6401 3.69603 15.3949 3.21473C15.1792 2.79136 14.835 2.44716 14.4116 2.23144C13.9303 1.98621 13.3003 1.98621 12.0401 1.98621H7.24014C5.98002 1.98621 5.34996 1.98621 4.86866 2.23144C4.44529 2.44716 4.10109 2.79136 3.88537 3.21473C3.64014 3.69603 3.64014 4.32609 3.64014 5.58621V13.3862C3.64014 14.6463 3.64014 15.2764 3.88537 15.7577C4.10109 16.1811 4.44529 16.5253 4.86866 16.741C5.34996 16.9862 5.98002 16.9862 7.24014 16.9862H9.64014M14.1401 16.2362V11.7362M11.8901 13.9862H16.3901" stroke="#98A2B3" stroke-width="1.5" stroke-linecap="round" stroke-linejoin="round"/>
</svg>
