<svg width="19" height="19" viewBox="0 0 19 19" fill="none" xmlns="http://www.w3.org/2000/svg">
<path d="M15.5972 5.73621V5.58621C15.5972 4.32609 15.5972 3.69603 15.3519 3.21473C15.1362 2.79136 14.792 2.44716 14.3686 2.23144C13.8873 1.98621 13.2573 1.98621 11.9972 1.98621H7.19717C5.93705 1.98621 5.30699 1.98621 4.82569 2.23144C4.40232 2.44716 4.05812 2.79136 3.8424 3.21473C3.59717 3.69603 3.59717 4.32609 3.59717 5.58621V13.3862C3.59717 14.6463 3.59717 15.2764 3.8424 15.7577C4.05812 16.1811 4.40232 16.5253 4.82569 16.741C5.30699 16.9862 5.93705 16.9862 7.19717 16.9862H9.97217M14.0972 13.9862V9.86121C14.0972 9.23989 14.6008 8.73621 15.2222 8.73621C15.8435 8.73621 16.3472 9.23989 16.3472 9.86121V13.9862C16.3472 15.2288 15.3398 16.2362 14.0972 16.2362C12.8545 16.2362 11.8472 15.2288 11.8472 13.9862V10.9862" stroke="#98A2B3" stroke-width="1.5" stroke-linecap="round" stroke-linejoin="round"/>
</svg>
