<svg width="19" height="19" viewBox="0 0 19 19" fill="none" xmlns="http://www.w3.org/2000/svg">
<path d="M10.5913 2.18835V5.28626C10.5913 5.7063 10.5913 5.91632 10.6731 6.07675C10.745 6.21787 10.8597 6.33261 11.0008 6.40451C11.1612 6.48626 11.3713 6.48626 11.7913 6.48626H14.8892M6.09131 11.7362V13.9862M12.0913 10.2362V13.9862M9.09131 8.36121V13.9862M15.0913 7.97738V13.3862C15.0913 14.6463 15.0913 15.2764 14.8461 15.7577C14.6304 16.1811 14.2862 16.5253 13.8628 16.741C13.3815 16.9862 12.7514 16.9862 11.4913 16.9862H6.69131C5.43119 16.9862 4.80113 16.9862 4.31983 16.741C3.89647 16.5253 3.55226 16.1811 3.33654 15.7577C3.09131 15.2764 3.09131 14.6463 3.09131 13.3862V5.58621C3.09131 4.32609 3.09131 3.69603 3.33654 3.21473C3.55226 2.79136 3.89647 2.44716 4.31983 2.23144C4.80113 1.98621 5.43119 1.98621 6.69131 1.98621H9.10014C9.65047 1.98621 9.92563 1.98621 10.1846 2.04837C10.4142 2.10349 10.6336 2.1944 10.835 2.31777C11.062 2.45691 11.2566 2.65148 11.6457 3.04062L14.0369 5.43179C14.426 5.82093 14.6206 6.0155 14.7597 6.24257C14.8831 6.44388 14.974 6.66335 15.0291 6.89293C15.0913 7.15188 15.0913 7.42705 15.0913 7.97738Z" stroke="#98A2B3" stroke-width="1.5" stroke-linecap="round" stroke-linejoin="round"/>
</svg>
