<svg width="19" height="19" viewBox="0 0 19 19" fill="none" xmlns="http://www.w3.org/2000/svg">
<path d="M11.1362 2.18835V5.28626C11.1362 5.7063 11.1362 5.91632 11.218 6.07675C11.2899 6.21787 11.4046 6.33261 11.5457 6.40451C11.7062 6.48626 11.9162 6.48626 12.3362 6.48626H15.4341M7.38623 11.7362H11.8862M11.1362 1.98621H7.23623C5.97611 1.98621 5.34605 1.98621 4.86475 2.23144C4.44139 2.44716 4.09718 2.79136 3.88147 3.21473C3.63623 3.69603 3.63623 4.32609 3.63623 5.58621V13.3862C3.63623 14.6463 3.63623 15.2764 3.88147 15.7577C4.09718 16.1811 4.44139 16.5253 4.86475 16.741C5.34605 16.9862 5.97611 16.9862 7.23623 16.9862H12.0362C13.2963 16.9862 13.9264 16.9862 14.4077 16.741C14.8311 16.5253 15.1753 16.1811 15.391 15.7577C15.6362 15.2764 15.6362 14.6463 15.6362 13.3862V6.48621L11.1362 1.98621Z" stroke="#98A2B3" stroke-width="1.5" stroke-linecap="round" stroke-linejoin="round"/>
</svg>
