<svg width="19" height="19" viewBox="0 0 19 19" fill="none" xmlns="http://www.w3.org/2000/svg">
<path d="M15.127 7.98621V5.58621C15.127 4.32609 15.127 3.69603 14.8817 3.21473C14.666 2.79136 14.3218 2.44716 13.8984 2.23144C13.4171 1.98621 12.7871 1.98621 11.527 1.98621H6.72695C5.46684 1.98621 4.83678 1.98621 4.35547 2.23144C3.93211 2.44716 3.5879 2.79136 3.37219 3.21473C3.12695 3.69603 3.12695 4.32609 3.12695 5.58621V13.3862C3.12695 14.6463 3.12695 15.2764 3.37219 15.7577C3.5879 16.1811 3.93211 16.5253 4.35547 16.741C4.83678 16.9862 5.46684 16.9862 6.72695 16.9862H8.00195M9.87695 8.73621H6.12695M8.37695 11.7362H6.12695M12.127 5.73621H6.12695M14.5645 13.2362V11.9237C14.5645 11.1988 13.9768 10.6112 13.252 10.6112C12.5271 10.6112 11.9395 11.1988 11.9395 11.9237V13.2362M11.827 16.2362H14.677C15.097 16.2362 15.307 16.2362 15.4674 16.1545C15.6086 16.0826 15.7233 15.9678 15.7952 15.8267C15.877 15.6663 15.877 15.4562 15.877 15.0362V14.4362C15.877 14.0162 15.877 13.8061 15.7952 13.6457C15.7233 13.5046 15.6086 13.3899 15.4674 13.318C15.307 13.2362 15.097 13.2362 14.677 13.2362H11.827C11.4069 13.2362 11.1969 13.2362 11.0365 13.318C10.8953 13.3899 10.7806 13.5046 10.7087 13.6457C10.627 13.8061 10.627 14.0162 10.627 14.4362V15.0362C10.627 15.4562 10.627 15.6663 10.7087 15.8267C10.7806 15.9678 10.8953 16.0826 11.0365 16.1545C11.1969 16.2362 11.4069 16.2362 11.827 16.2362Z" stroke="#98A2B3" stroke-width="1.5" stroke-linecap="round" stroke-linejoin="round"/>
</svg>
