<svg width="19" height="19" viewBox="0 0 19 19" fill="none" xmlns="http://www.w3.org/2000/svg">
<path d="M11.085 2.1883V5.28621C11.085 5.70625 11.085 5.91627 11.1667 6.0767C11.2386 6.21782 11.3533 6.33256 11.4945 6.40446C11.6549 6.48621 11.8649 6.48621 12.285 6.48621H15.3829M15.585 7.97738V13.3862C15.585 14.6463 15.585 15.2764 15.3397 15.7577C15.124 16.1811 14.7798 16.5253 14.3564 16.741C13.8751 16.9862 13.2451 16.9862 11.985 16.9862H7.18496C5.92484 16.9862 5.29478 16.9862 4.81348 16.741C4.39012 16.5253 4.04591 16.1811 3.8302 15.7577C3.58496 15.2764 3.58496 14.6463 3.58496 13.3862V5.58621C3.58496 4.32609 3.58496 3.69603 3.8302 3.21473C4.04591 2.79136 4.39012 2.44716 4.81348 2.23144C5.29478 1.98621 5.92484 1.98621 7.18496 1.98621H9.59379C10.1441 1.98621 10.4193 1.98621 10.6782 2.04837C10.9078 2.10349 11.1273 2.1944 11.3286 2.31777C11.5557 2.45691 11.7502 2.65148 12.1394 3.04062L14.5305 5.43179C14.9197 5.82093 15.1143 6.0155 15.2534 6.24257C15.3768 6.44388 15.4677 6.66335 15.5228 6.89293C15.585 7.15188 15.585 7.42705 15.585 7.97738Z" stroke="#98A2B3" stroke-width="1.5" stroke-linecap="round" stroke-linejoin="round"/>
</svg>
