<svg width="19" height="19" viewBox="0 0 19 19" fill="none" xmlns="http://www.w3.org/2000/svg">
<path d="M15.147 7.61121V5.58621C15.147 4.32609 15.147 3.69603 14.9017 3.21473C14.686 2.79136 14.3418 2.44716 13.9185 2.23144C13.4372 1.98621 12.8071 1.98621 11.547 1.98621H6.74697C5.48685 1.98621 4.8568 1.98621 4.37549 2.23144C3.95213 2.44716 3.60792 2.79136 3.39221 3.21473C3.14697 3.69603 3.14697 4.32609 3.14697 5.58621V13.3862C3.14697 14.6463 3.14697 15.2764 3.39221 15.7577C3.60792 16.1811 3.95213 16.5253 4.37549 16.741C4.8568 16.9862 5.48685 16.9862 6.74697 16.9862H10.647M12.522 11.7379C12.6541 11.3622 12.915 11.0455 13.2583 10.8437C13.6016 10.6419 14.0052 10.5682 14.3977 10.6355C14.7902 10.7028 15.1462 10.9069 15.4027 11.2115C15.6591 11.5162 15.7995 11.9017 15.7989 12.3C15.7989 13.4241 14.1127 13.9862 14.1127 13.9862M14.1345 16.2362H14.142" stroke="#98A2B3" stroke-width="1.5" stroke-linecap="round" stroke-linejoin="round"/>
</svg>
