<svg width="19" height="19" viewBox="0 0 19 19" fill="none" xmlns="http://www.w3.org/2000/svg">
<path d="M10.6069 2.18835V5.28626C10.6069 5.7063 10.6069 5.91632 10.6887 6.07675C10.7606 6.21787 10.8753 6.33261 11.0164 6.40451C11.1769 6.48626 11.3869 6.48626 11.8069 6.48626H14.9048M6.85693 12.4862L8.35693 13.9862L11.7319 10.6112M10.6069 1.98621H6.70693C5.44682 1.98621 4.81676 1.98621 4.33546 2.23144C3.91209 2.44716 3.56788 2.79136 3.35217 3.21473C3.10693 3.69603 3.10693 4.32609 3.10693 5.58621V13.3862C3.10693 14.6463 3.10693 15.2764 3.35217 15.7577C3.56788 16.1811 3.91209 16.5253 4.33546 16.741C4.81676 16.9862 5.44682 16.9862 6.70693 16.9862H11.5069C12.7671 16.9862 13.3971 16.9862 13.8784 16.741C14.3018 16.5253 14.646 16.1811 14.8617 15.7577C15.1069 15.2764 15.1069 14.6463 15.1069 13.3862V6.48621L10.6069 1.98621Z" stroke="#98A2B3" stroke-width="1.5" stroke-linecap="round" stroke-linejoin="round"/>
</svg>
