<svg width="19" height="19" viewBox="0 0 19 19" fill="none" xmlns="http://www.w3.org/2000/svg">
<path d="M5.09326 7.98621V3.86121C5.09326 3.23989 5.59694 2.73621 6.21826 2.73621C6.83958 2.73621 7.34326 3.23989 7.34326 3.86121V7.98621C7.34326 9.22885 6.3359 10.2362 5.09326 10.2362C3.85062 10.2362 2.84326 9.22885 2.84326 7.98621V4.98621M9.96826 1.98621H11.9933C13.2534 1.98621 13.8834 1.98621 14.3647 2.23144C14.7881 2.44716 15.1323 2.79136 15.348 3.21473C15.5933 3.69603 15.5933 4.32609 15.5933 5.58621V13.3862C15.5933 14.6463 15.5933 15.2764 15.348 15.7577C15.1323 16.1811 14.7881 16.5253 14.3647 16.741C13.8834 16.9862 13.2534 16.9862 11.9933 16.9862H7.19326C5.93314 16.9862 5.30308 16.9862 4.82178 16.741C4.39842 16.5253 4.05421 16.1811 3.8385 15.7577C3.59326 15.2764 3.59326 14.6463 3.59326 13.3862V12.8612" stroke="#98A2B3" stroke-width="1.5" stroke-linecap="round" stroke-linejoin="round"/>
</svg>
