<svg width="19" height="19" viewBox="0 0 19 19" fill="none" xmlns="http://www.w3.org/2000/svg">
<path d="M11.1641 1.98621H5.16406C4.76624 1.98621 4.38471 2.14424 4.1034 2.42555C3.8221 2.70685 3.66406 3.08838 3.66406 3.48621V15.4862C3.66406 15.884 3.8221 16.2656 4.1034 16.5469C4.38471 16.8282 4.76624 16.9862 5.16406 16.9862H14.1641C14.5619 16.9862 14.9434 16.8282 15.2247 16.5469C15.506 16.2656 15.6641 15.884 15.6641 15.4862V6.48621M11.1641 1.98621L15.6641 6.48621M11.1641 1.98621V6.48621H15.6641M12.6641 10.2362H6.66406M12.6641 13.2362H6.66406M8.16406 7.23621H6.66406" stroke="#98A2B3" stroke-width="1.5" stroke-linecap="round" stroke-linejoin="round"/>
</svg>
