<svg width="19" height="19" viewBox="0 0 19 19" fill="none" xmlns="http://www.w3.org/2000/svg">
<path d="M11.1289 1.98621H7.22891C5.96879 1.98621 5.33873 1.98621 4.85743 2.23144C4.43406 2.44716 4.08986 2.79136 3.87414 3.21473C3.62891 3.69603 3.62891 4.32609 3.62891 5.58621V13.3862C3.62891 14.6463 3.62891 15.2764 3.87414 15.7577C4.08986 16.1811 4.43406 16.5253 4.85743 16.741C5.33873 16.9862 5.96879 16.9862 7.22891 16.9862H12.0289C13.289 16.9862 13.9191 16.9862 14.4004 16.741C14.8238 16.5253 15.168 16.1811 15.3837 15.7577C15.6289 15.2764 15.6289 14.6463 15.6289 13.3862V6.48621M11.1289 1.98621L15.6289 6.48621M11.1289 1.98621V6.48621H15.6289M10.9414 10.9862V9.67371C10.9414 8.94883 10.3538 8.36121 9.62891 8.36121C8.90403 8.36121 8.31641 8.94883 8.31641 9.67371V10.9862M8.20391 13.9862H11.0539C11.4739 13.9862 11.684 13.9862 11.8444 13.9045C11.9855 13.8326 12.1003 13.7178 12.1722 13.5767C12.2539 13.4163 12.2539 13.2062 12.2539 12.7862V12.1862C12.2539 11.7662 12.2539 11.5561 12.1722 11.3957C12.1003 11.2546 11.9855 11.1399 11.8444 11.068C11.684 10.9862 11.4739 10.9862 11.0539 10.9862H8.20391C7.78387 10.9862 7.57385 10.9862 7.41341 11.068C7.27229 11.1399 7.15756 11.2546 7.08565 11.3957C7.00391 11.5561 7.00391 11.7662 7.00391 12.1862V12.7862C7.00391 13.2062 7.00391 13.4163 7.08565 13.5767C7.15756 13.7178 7.27229 13.8326 7.41341 13.9045C7.57385 13.9862 7.78387 13.9862 8.20391 13.9862Z" stroke="#98A2B3" stroke-width="1.5" stroke-linecap="round" stroke-linejoin="round"/>
</svg>
