<svg width="19" height="19" viewBox="0 0 19 19" fill="none" xmlns="http://www.w3.org/2000/svg">
<path d="M15.625 7.98621V5.58621C15.625 4.32609 15.625 3.69603 15.3798 3.21473C15.1641 2.79136 14.8198 2.44716 14.3965 2.23144C13.9152 1.98621 13.2851 1.98621 12.025 1.98621H7.225C5.96488 1.98621 5.33482 1.98621 4.85352 2.23144C4.43016 2.44716 4.08595 2.79136 3.87024 3.21473C3.625 3.69603 3.625 4.32609 3.625 5.58621V13.3862C3.625 14.6463 3.625 15.2764 3.87024 15.7577C4.08595 16.1811 4.43016 16.5253 4.85352 16.741C5.33482 16.9862 5.96488 16.9862 7.225 16.9862H8.5M15.0625 13.2362V11.9237C15.0625 11.1988 14.4749 10.6112 13.75 10.6112C13.0251 10.6112 12.4375 11.1988 12.4375 11.9237V13.2362M12.325 16.2362H15.175C15.595 16.2362 15.8051 16.2362 15.9655 16.1545C16.1066 16.0826 16.2214 15.9678 16.2933 15.8267C16.375 15.6663 16.375 15.4562 16.375 15.0362V14.4362C16.375 14.0162 16.375 13.8061 16.2933 13.6457C16.2214 13.5046 16.1066 13.3899 15.9655 13.318C15.8051 13.2362 15.595 13.2362 15.175 13.2362H12.325C11.905 13.2362 11.6949 13.2362 11.5345 13.318C11.3934 13.3899 11.2787 13.5046 11.2067 13.6457C11.125 13.8061 11.125 14.0162 11.125 14.4362V15.0362C11.125 15.4562 11.125 15.6663 11.2067 15.8267C11.2787 15.9678 11.3934 16.0826 11.5345 16.1545C11.6949 16.2362 11.905 16.2362 12.325 16.2362Z" stroke="#98A2B3" stroke-width="1.5" stroke-linecap="round" stroke-linejoin="round"/>
</svg>
