<svg width="19" height="19" viewBox="0 0 19 19" fill="none" xmlns="http://www.w3.org/2000/svg">
<path d="M6.0835 10.9862V13.9862M12.0835 9.48621V13.9862M9.0835 6.48621V13.9862M15.0835 5.58621V13.3862C15.0835 14.6463 15.0835 15.2764 14.8383 15.7577C14.6225 16.1811 14.2783 16.5253 13.855 16.741C13.3737 16.9862 12.7436 16.9862 11.4835 16.9862H6.6835C5.42338 16.9862 4.79332 16.9862 4.31202 16.741C3.88865 16.5253 3.54445 16.1811 3.32873 15.7577C3.0835 15.2764 3.0835 14.6463 3.0835 13.3862V5.58621C3.0835 4.32609 3.0835 3.69603 3.32873 3.21473C3.54445 2.79136 3.88865 2.44716 4.31202 2.23144C4.79332 1.98621 5.42338 1.98621 6.6835 1.98621H11.4835C12.7436 1.98621 13.3737 1.98621 13.855 2.23144C14.2783 2.44716 14.6225 2.79136 14.8383 3.21473C15.0835 3.69603 15.0835 4.32609 15.0835 5.58621Z" stroke="#98A2B3" stroke-width="1.5" stroke-linecap="round" stroke-linejoin="round"/>
</svg>
