<svg width="19" height="19" viewBox="0 0 19 19" fill="none" xmlns="http://www.w3.org/2000/svg">
<path d="M10.6694 2.18835V5.28626C10.6694 5.7063 10.6694 5.91632 10.7512 6.07675C10.8231 6.21787 10.9378 6.33261 11.0789 6.40451C11.2394 6.48626 11.4494 6.48626 11.8694 6.48626H14.9673M7.29443 9.48621L11.0444 13.2362M11.0444 9.48621L7.29443 13.2362M10.6694 1.98621H6.76943C5.50932 1.98621 4.87926 1.98621 4.39796 2.23144C3.97459 2.44716 3.63038 2.79136 3.41467 3.21473C3.16943 3.69603 3.16943 4.32609 3.16943 5.58621V13.3862C3.16943 14.6463 3.16943 15.2764 3.41467 15.7577C3.63038 16.1811 3.97459 16.5253 4.39796 16.741C4.87926 16.9862 5.50932 16.9862 6.76943 16.9862H11.5694C12.8296 16.9862 13.4596 16.9862 13.9409 16.741C14.3643 16.5253 14.7085 16.1811 14.9242 15.7577C15.1694 15.2764 15.1694 14.6463 15.1694 13.3862V6.48621L10.6694 1.98621Z" stroke="#98A2B3" stroke-width="1.5" stroke-linecap="round" stroke-linejoin="round"/>
</svg>
