<svg width="19" height="19" viewBox="0 0 19 19" fill="none" xmlns="http://www.w3.org/2000/svg">
<path d="M15.0986 5.73621V5.58621C15.0986 4.32609 15.0986 3.69603 14.8534 3.21473C14.6377 2.79136 14.2935 2.44716 13.8701 2.23144C13.3888 1.98621 12.7588 1.98621 11.4986 1.98621H6.69863C5.43852 1.98621 4.80846 1.98621 4.32715 2.23144C3.90379 2.44716 3.55958 2.79136 3.34387 3.21473C3.09863 3.69603 3.09863 4.32609 3.09863 5.58621V13.3862C3.09863 14.6463 3.09863 15.2764 3.34387 15.7577C3.55958 16.1811 3.90379 16.5253 4.32715 16.741C4.80846 16.9862 5.43852 16.9862 6.69863 16.9862H9.47363M9.47363 8.73621H6.09863M8.72363 11.7362H6.09863M12.0986 5.73621H6.09863M13.5986 13.9862V9.86121C13.5986 9.23989 14.1023 8.73621 14.7236 8.73621C15.345 8.73621 15.8486 9.23989 15.8486 9.86121V13.9862C15.8486 15.2288 14.8413 16.2362 13.5986 16.2362C12.356 16.2362 11.3486 15.2288 11.3486 13.9862V10.9862" stroke="#98A2B3" stroke-width="1.5" stroke-linecap="round" stroke-linejoin="round"/>
</svg>
