<svg width="19" height="19" viewBox="0 0 19 19" fill="none" xmlns="http://www.w3.org/2000/svg">
<g clip-path="url(#clip0_1_9689)">
<path d="M5.42773 1.98621V4.98621M5.42773 12.4862V15.4862M12.9277 3.48621V6.48621M12.9277 13.9862V16.9862M1.67773 4.98621H9.17773M1.67773 12.4862H9.17773M9.17773 6.48621H16.6777M9.17773 13.9862H16.6777M9.17773 15.4862V3.18621C9.17773 2.76617 9.17773 2.55615 9.09599 2.39571C9.02408 2.25459 8.90935 2.13986 8.76823 2.06795C8.60779 1.98621 8.39777 1.98621 7.97773 1.98621H5.27773C4.01762 1.98621 3.38756 1.98621 2.90626 2.23144C2.48289 2.44716 2.13868 2.79136 1.92297 3.21473C1.67773 3.69603 1.67773 4.32609 1.67773 5.58621V11.8862C1.67773 13.1463 1.67773 13.7764 1.92297 14.2577C2.13868 14.681 2.48289 15.0253 2.90626 15.241C3.38756 15.4862 4.01762 15.4862 5.27773 15.4862H9.17773ZM9.17773 3.48621H13.0777C14.3379 3.48621 14.9679 3.48621 15.4492 3.73144C15.8726 3.94716 16.2168 4.29136 16.4325 4.71473C16.6777 5.19603 16.6777 5.82609 16.6777 7.08621V13.3862C16.6777 14.6463 16.6777 15.2764 16.4325 15.7577C16.2168 16.1811 15.8726 16.5253 15.4492 16.741C14.9679 16.9862 14.3379 16.9862 13.0777 16.9862H10.3777C9.9577 16.9862 9.74768 16.9862 9.58724 16.9045C9.44612 16.8326 9.33139 16.7178 9.25948 16.5767C9.17774 16.4163 9.17773 16.2062 9.17773 15.7862V3.48621Z" stroke="#98A2B3" stroke-width="1.5" stroke-linecap="round" stroke-linejoin="round"/>
</g>
<defs>
<clipPath id="clip0_1_9689">
<rect width="18" height="18" fill="white" transform="translate(0.177734 0.486206)"/>
</clipPath>
</defs>
</svg>
