<svg width="19" height="19" viewBox="0 0 19 19" fill="none" xmlns="http://www.w3.org/2000/svg">
<g clip-path="url(#clip0_1_9685)">
<path d="M1.67383 9.48621H16.6738M1.67383 5.73621H5.42383M12.9238 5.73621H16.6738M1.67383 13.2362H5.42383M12.9238 13.2362H16.6738M5.42383 16.9862V1.98621M12.9238 16.9862V1.98621M5.27383 16.9862H13.0738C14.3339 16.9862 14.964 16.9862 15.4453 16.741C15.8687 16.5253 16.2129 16.1811 16.4286 15.7577C16.6738 15.2764 16.6738 14.6463 16.6738 13.3862V5.58621C16.6738 4.32609 16.6738 3.69603 16.4286 3.21473C16.2129 2.79136 15.8687 2.44716 15.4453 2.23144C14.964 1.98621 14.3339 1.98621 13.0738 1.98621H5.27383C4.01371 1.98621 3.38365 1.98621 2.90235 2.23144C2.47898 2.44716 2.13478 2.79136 1.91906 3.21473C1.67383 3.69603 1.67383 4.32609 1.67383 5.58621V13.3862C1.67383 14.6463 1.67383 15.2764 1.91906 15.7577C2.13478 16.1811 2.47898 16.5253 2.90235 16.741C3.38365 16.9862 4.01371 16.9862 5.27383 16.9862Z" stroke="#98A2B3" stroke-width="1.5" stroke-linecap="round" stroke-linejoin="round"/>
</g>
<defs>
<clipPath id="clip0_1_9685">
<rect width="18" height="18" fill="white" transform="translate(0.173828 0.486206)"/>
</clipPath>
</defs>
</svg>
