<svg width="19" height="19" viewBox="0 0 19 19" fill="none" xmlns="http://www.w3.org/2000/svg">
<path d="M9.67627 16.9862V1.98621M5.92627 16.9862V13.2362M5.92627 5.73621V1.98621M13.4263 16.9862V13.2362M13.4263 5.73621V1.98621M2.17627 5.73621H17.1763M2.17627 13.2362H17.1763M17.1763 13.3862V5.58621C17.1763 4.32609 17.1763 3.69603 16.931 3.21473C16.7153 2.79136 16.3711 2.44716 15.9477 2.23144C15.4664 1.98621 14.8364 1.98621 13.5763 1.98621L5.77627 1.98621C4.51615 1.98621 3.88609 1.98621 3.40479 2.23144C2.98143 2.44716 2.63722 2.79136 2.4215 3.21473C2.17627 3.69603 2.17627 4.32609 2.17627 5.58621L2.17627 13.3862C2.17627 14.6463 2.17627 15.2764 2.42151 15.7577C2.63722 16.1811 2.98143 16.5253 3.40479 16.741C3.88609 16.9862 4.51615 16.9862 5.77627 16.9862H13.5763C14.8364 16.9862 15.4664 16.9862 15.9477 16.741C16.3711 16.5253 16.7153 16.1811 16.931 15.7577C17.1763 15.2764 17.1763 14.6463 17.1763 13.3862Z" stroke="#98A2B3" stroke-width="1.5" stroke-linecap="round" stroke-linejoin="round"/>
</svg>
