<svg width="19" height="19" viewBox="0 0 19 19" fill="none" xmlns="http://www.w3.org/2000/svg">
<path d="M3.22301 4.73642C2.65576 4.10243 2.37213 3.78543 2.36143 3.51603C2.35214 3.282 2.45271 3.05706 2.63332 2.90793C2.84122 2.73627 3.26658 2.73627 4.1173 2.73627H15.2495C16.1002 2.73627 16.5256 2.73627 16.7335 2.90793C16.9141 3.05706 17.0147 3.282 17.0054 3.51603C16.9947 3.78543 16.711 4.10243 16.1438 4.73642L11.8641 9.51959C11.751 9.64597 11.6945 9.70916 11.6542 9.78107C11.6184 9.84486 11.5922 9.91352 11.5763 9.9849C11.5584 10.0654 11.5584 10.1502 11.5584 10.3197V14.33C11.5584 14.4767 11.5584 14.5501 11.5347 14.6135C11.5138 14.6695 11.4799 14.7197 11.4356 14.7599C11.3855 14.8054 11.3174 14.8327 11.1812 14.8871L8.63124 15.9071C8.35558 16.0174 8.21775 16.0725 8.10711 16.0495C8.01035 16.0294 7.92544 15.9719 7.87084 15.8896C7.8084 15.7954 7.8084 15.6469 7.8084 15.35V10.3197C7.8084 10.1502 7.8084 10.0654 7.79049 9.9849C7.77461 9.91352 7.74838 9.84486 7.71262 9.78107C7.67231 9.70916 7.61577 9.64597 7.50269 9.51959L3.22301 4.73642Z" stroke="#98A2B3" stroke-width="1.5" stroke-linecap="round" stroke-linejoin="round"/>
</svg>
