<svg width="19" height="19" viewBox="0 0 19 19" fill="none" xmlns="http://www.w3.org/2000/svg">
<g clip-path="url(#clip0_1_9397)">
<path d="M1.68164 3.93627C1.68164 3.51623 1.68164 3.30621 1.76339 3.14577C1.83529 3.00465 1.95003 2.88992 2.09115 2.81801C2.25158 2.73627 2.4616 2.73627 2.88164 2.73627H15.4816C15.9017 2.73627 16.1117 2.73627 16.2721 2.81801C16.4133 2.88992 16.528 3.00465 16.5999 3.14577C16.6816 3.30621 16.6816 3.51623 16.6816 3.93627V4.43831C16.6816 4.63991 16.6816 4.74071 16.657 4.83444C16.6352 4.9175 16.5992 4.99619 16.5508 5.06709C16.4961 5.14709 16.4199 5.21311 16.2676 5.34514L11.4707 9.5024C11.3184 9.63443 11.2422 9.70044 11.1875 9.78045C11.139 9.85134 11.1031 9.93004 11.0813 10.0131C11.0566 10.1068 11.0566 10.2076 11.0566 10.4092V14.33C11.0566 14.4767 11.0566 14.5501 11.033 14.6135C11.0121 14.6695 10.9781 14.7197 10.9338 14.7599C10.8837 14.8054 10.8157 14.8327 10.6795 14.8871L8.12948 15.9071C7.85382 16.0174 7.71599 16.0725 7.60535 16.0495C7.50859 16.0294 7.42368 15.9719 7.36908 15.8896C7.30664 15.7954 7.30664 15.6469 7.30664 15.35V10.4092C7.30664 10.2076 7.30664 10.1068 7.28201 10.0131C7.26018 9.93004 7.22424 9.85134 7.17577 9.78045C7.12108 9.70044 7.0449 9.63443 6.89256 9.5024L2.09572 5.34514C1.94338 5.21311 1.86721 5.14709 1.81251 5.06709C1.76404 4.99619 1.72811 4.9175 1.70628 4.83444C1.68164 4.74071 1.68164 4.63991 1.68164 4.43831V3.93627Z" stroke="#98A2B3" stroke-width="1.5" stroke-linecap="round" stroke-linejoin="round"/>
</g>
<defs>
<clipPath id="clip0_1_9397">
<rect width="18" height="18" fill="white" transform="translate(0.181641 0.486206)"/>
</clipPath>
</defs>
</svg>
