<svg width="19" height="19" viewBox="0 0 19 19" fill="none" xmlns="http://www.w3.org/2000/svg">
<path d="M6.76696 16.402C5.72455 14.9143 5.11133 13.1045 5.11133 11.1502C5.11133 8.61945 7.16177 6.56824 9.69103 6.56824C12.2203 6.56824 14.2707 8.61945 14.2707 11.1502" stroke="#98A2B3" stroke-width="1.5" stroke-linecap="round" stroke-linejoin="round"/>
<path d="M6.76696 16.402C5.72455 14.9143 5.11133 13.1045 5.11133 11.1502C5.11133 8.61945 7.16177 6.56824 9.69103 6.56824C12.2203 6.56824 14.2707 8.61945 14.2707 11.1502" stroke="#98A2B3" stroke-width="1.5" stroke-linecap="round" stroke-linejoin="round"/>
<path d="M14.5188 15.7199C14.4363 15.7245 14.3553 15.7321 14.2721 15.7321C11.7428 15.7321 9.69238 13.6809 9.69238 11.1501" stroke="#98A2B3" stroke-width="1.5" stroke-linecap="round" stroke-linejoin="round"/>
<path d="M14.5188 15.72C14.4363 15.7246 14.3553 15.7323 14.2721 15.7323C11.7428 15.7323 9.69238 13.6811 9.69238 11.1503" stroke="#98A2B3" stroke-width="1.5" stroke-linecap="round" stroke-linejoin="round"/>
<path d="M10.6439 16.9862C8.69813 15.7727 7.40219 13.613 7.40219 11.1502C7.40219 9.88482 8.42779 8.85922 9.69242 8.85922C10.9571 8.85922 11.9827 9.88482 11.9827 11.1502C11.9827 12.4156 13.0083 13.4412 14.2729 13.4412C15.5375 13.4412 16.5631 12.4156 16.5631 11.1502C16.5631 7.35403 13.4871 4.27722 9.69319 4.27722C5.89929 4.27722 2.82324 7.35403 2.82324 11.1502C2.82324 11.9964 2.91794 12.8204 3.09205 13.6146" stroke="#98A2B3" stroke-width="1.5" stroke-linecap="round" stroke-linejoin="round"/>
<path d="M10.6439 16.9862C8.69813 15.7727 7.40219 13.613 7.40219 11.1502C7.40219 9.88482 8.42779 8.85922 9.69242 8.85922C10.9571 8.85922 11.9827 9.88482 11.9827 11.1502C11.9827 12.4156 13.0083 13.4412 14.2729 13.4412C15.5375 13.4412 16.5631 12.4156 16.5631 11.1502C16.5631 7.35403 13.4871 4.27722 9.69319 4.27722C5.89929 4.27722 2.82324 7.35403 2.82324 11.1502C2.82324 11.9964 2.91794 12.8204 3.09205 13.6146" stroke="#98A2B3" stroke-width="1.5" stroke-linecap="round" stroke-linejoin="round"/>
<path d="M16.0857 4.88356C14.524 3.10956 12.2407 1.98621 9.69154 1.98621C7.14242 1.98621 4.85906 3.10956 3.29736 4.88356" stroke="#98A2B3" stroke-width="1.5" stroke-linecap="round" stroke-linejoin="round"/>
<path d="M16.0857 4.88356C14.524 3.10956 12.2407 1.98621 9.69154 1.98621C7.14242 1.98621 4.85906 3.10956 3.29736 4.88356" stroke="#98A2B3" stroke-width="1.5" stroke-linecap="round" stroke-linejoin="round"/>
</svg>
