<svg width="19" height="19" viewBox="0 0 19 19" fill="none" xmlns="http://www.w3.org/2000/svg">
<path d="M9.18945 7.98621V10.9862M5.7748 3.05198C6.74401 2.37998 7.92075 1.98621 9.18945 1.98621C12.5032 1.98621 15.1895 4.6725 15.1895 7.98621V8.9137M3.50169 6.07076C3.2992 6.67228 3.18945 7.31643 3.18945 7.98621V10.9862C3.18945 13.7124 5.00757 16.0139 7.49742 16.7443M14.9336 12.7253C14.3865 14.5347 13.0078 15.9832 11.242 16.6259M10.9332 5.09597C10.4243 4.78828 9.82754 4.61121 9.18945 4.61121C7.32549 4.61121 5.81445 6.12225 5.81445 7.98621V10.1987M12.5645 8.76621V10.9862C12.5645 12.8502 11.0534 14.3612 9.18945 14.3612C8.55297 14.3612 7.95763 14.185 7.44956 13.8788" stroke="#98A2B3" stroke-width="1.5" stroke-linecap="round" stroke-linejoin="round"/>
</svg>
