<svg width="19" height="19" viewBox="0 0 19 19" fill="none" xmlns="http://www.w3.org/2000/svg">
<path d="M5.87616 3.02544C6.99306 2.36514 8.29603 1.98621 9.6875 1.98621C13.8296 1.98621 17.1875 5.34407 17.1875 9.48621C17.1875 9.51106 17.1874 9.53588 17.1871 9.56067M3.22336 5.68059C2.56514 6.79622 2.1875 8.09711 2.1875 9.48621C2.1875 12.9809 4.5777 15.9173 7.8125 16.7499M16.2182 13.1766C15.2279 14.9254 13.5555 16.237 11.5625 16.7499M11.2545 5.26654C10.7665 5.08526 10.2386 4.98621 9.6875 4.98621C7.20222 4.98621 5.1875 7.00092 5.1875 9.48621C5.1875 10.0403 5.28763 10.5709 5.47079 11.0611M13.9063 7.91696C14.0881 8.40556 14.1875 8.93428 14.1875 9.48621C14.1875 11.9715 12.1728 13.9862 9.6875 13.9862C9.14011 13.9862 8.61554 13.8885 8.1303 13.7095M9.6875 7.98621V10.9862" stroke="#98A2B3" stroke-width="1.5" stroke-linecap="round" stroke-linejoin="round"/>
</svg>
