<svg width="19" height="19" viewBox="0 0 19 19" fill="none" xmlns="http://www.w3.org/2000/svg">
<path d="M4.54852 14.384C4.5618 14.3617 4.57541 14.3394 4.58934 14.3173C5.60521 12.7024 6.19329 10.7926 6.19329 8.73627C6.19329 7.07941 7.53644 5.73627 9.19329 5.73627C10.8501 5.73627 12.1933 7.07941 12.1933 8.73627C12.1933 9.49904 12.1414 10.2502 12.0408 10.9863M10.4528 16.119C10.9115 15.2032 11.2877 14.2389 11.5714 13.2363M14.4506 14.0852C14.9344 12.3855 15.1934 10.5911 15.1934 8.73627C15.1934 5.42256 12.5071 2.73627 9.19336 2.73627C8.1005 2.73627 7.07588 3.02845 6.19336 3.53896M2.44336 12.0094C2.92385 11.0203 3.19336 9.90975 3.19336 8.73627C3.19336 7.64341 3.48554 6.61879 3.99605 5.73627M9.19326 8.73627C9.19326 11.3742 8.43668 13.8354 7.12866 15.9147" stroke="#98A2B3" stroke-width="1.5" stroke-linecap="round" stroke-linejoin="round"/>
</svg>
