<svg width="19" height="19" viewBox="0 0 19 19" fill="none" xmlns="http://www.w3.org/2000/svg">
<path d="M3.20166 10.2363H14.8919C15.2388 10.2363 15.4122 10.2363 15.5113 10.1635C15.5977 10.1001 15.6528 10.0028 15.6627 9.89607C15.6741 9.77371 15.5849 9.62499 15.4064 9.32757L13.8869 6.79497C13.8195 6.68273 13.7859 6.62661 13.7727 6.5667C13.7611 6.51371 13.7611 6.45883 13.7727 6.40583C13.7859 6.34593 13.8195 6.28981 13.8869 6.17757L15.4064 3.64496C15.5849 3.34754 15.6741 3.19882 15.6627 3.07646C15.6528 2.96977 15.5977 2.87242 15.5113 2.809C15.4122 2.73627 15.2388 2.73627 14.8919 2.73627H3.20166L3.20166 16.2363" stroke="#98A2B3" stroke-width="1.5" stroke-linecap="round" stroke-linejoin="round"/>
</svg>
