<svg width="19" height="19" viewBox="0 0 19 19" fill="none" xmlns="http://www.w3.org/2000/svg">
<path d="M10.8286 5.36121H15.4828C15.8043 5.36121 15.965 5.36121 16.0618 5.42891C16.1463 5.48803 16.2027 5.57936 16.2178 5.6814C16.2351 5.79825 16.1632 5.94202 16.0195 6.22954L15.0802 8.10795C15.0337 8.20101 15.0104 8.24755 15.0006 8.29646C14.9918 8.33979 14.9908 8.38433 14.9976 8.42802C15.0052 8.47733 15.0264 8.52487 15.0686 8.61996L16.0786 10.8925C16.2036 11.1737 16.2661 11.3143 16.2456 11.4278C16.2277 11.527 16.1707 11.6148 16.0873 11.6714C15.9919 11.7362 15.8381 11.7362 15.5304 11.7362H9.77861C9.35857 11.7362 9.14855 11.7362 8.98812 11.6545C8.847 11.5826 8.73226 11.4678 8.66036 11.3267C8.57861 11.1663 8.57861 10.9562 8.57861 10.5362V8.73621M2.95361 16.2362L2.95361 3.11121M2.95361 8.73621H9.62861C10.0487 8.73621 10.2587 8.73621 10.4191 8.65446C10.5602 8.58256 10.675 8.46782 10.7469 8.3267C10.8286 8.16627 10.8286 7.95625 10.8286 7.53621V3.56121C10.8286 3.14117 10.8286 2.93115 10.7469 2.77071C10.675 2.62959 10.5602 2.51486 10.4191 2.44295C10.2587 2.36121 10.0487 2.36121 9.62861 2.36121L4.15361 2.36121C3.73357 2.36121 3.52355 2.36121 3.36312 2.44295C3.222 2.51486 3.10726 2.62959 3.03536 2.77071C2.95361 2.93115 2.95361 3.14117 2.95361 3.56121V8.73621Z" stroke="#98A2B3" stroke-width="1.5" stroke-linecap="round" stroke-linejoin="round"/>
</svg>
