<svg width="19" height="19" viewBox="0 0 19 19" fill="none" xmlns="http://www.w3.org/2000/svg">
<path d="M3.70752 16.2363L3.70752 3.48627M3.70752 10.2363H9.25752C9.67756 10.2363 9.88758 10.2363 10.048 10.1545C10.1891 10.0826 10.3039 9.96788 10.3758 9.82676C10.4575 9.66633 10.4575 9.45631 10.4575 9.03627V3.93627C10.4575 3.51623 10.4575 3.30621 10.3758 3.14577C10.3039 3.00465 10.1891 2.88992 10.048 2.81801C9.88758 2.73627 9.67756 2.73627 9.25752 2.73627H4.90752C4.48748 2.73627 4.27746 2.73627 4.11703 2.81801C3.97591 2.88992 3.86117 3.00465 3.78926 3.14577C3.70752 3.30621 3.70752 3.51623 3.70752 3.93627V10.2363ZM10.4575 4.23627H15.2575C15.6776 4.23627 15.8876 4.23627 16.048 4.31801C16.1891 4.38992 16.3039 4.50465 16.3758 4.64577C16.4575 4.80621 16.4575 5.01623 16.4575 5.43627V10.5363C16.4575 10.9563 16.4575 11.1663 16.3758 11.3268C16.3039 11.4679 16.1891 11.5826 16.048 11.6545C15.8876 11.7363 15.6776 11.7363 15.2575 11.7363H11.6575C11.2375 11.7363 11.0275 11.7363 10.867 11.6545C10.7259 11.5826 10.6112 11.4679 10.5393 11.3268C10.4575 11.1663 10.4575 10.9563 10.4575 10.5363V4.23627Z" stroke="#98A2B3" stroke-width="1.5" stroke-linecap="round" stroke-linejoin="round"/>
</svg>
