<svg width="19" height="19" viewBox="0 0 19 19" fill="none" xmlns="http://www.w3.org/2000/svg">
<path d="M10.7885 5.52783H15.3105C15.646 5.52783 15.8137 5.52783 15.9118 5.59836C15.9974 5.6599 16.0531 5.75463 16.0653 5.85933C16.0794 5.97933 15.9979 6.12596 15.835 6.41922L14.7328 8.40311C14.6737 8.50947 14.6442 8.56264 14.6326 8.61896C14.6224 8.6688 14.6224 8.7202 14.6326 8.77004C14.6442 8.82636 14.6737 8.87953 14.7328 8.98589L15.835 10.9698C15.9979 11.263 16.0794 11.4097 16.0653 11.5297C16.0531 11.6344 15.9974 11.7291 15.9118 11.7906C15.8137 11.8612 15.646 11.8612 15.3105 11.8612H9.61353C9.19349 11.8612 8.98347 11.8612 8.82303 11.7794C8.68191 11.7075 8.56718 11.5928 8.49527 11.4517C8.41353 11.2912 8.41353 11.0812 8.41353 10.6612V8.6945M5.6427 16.6114L2.47603 3.9447M3.66357 8.69454H9.58853C10.0086 8.69454 10.2186 8.69454 10.379 8.6128C10.5201 8.54089 10.6349 8.42615 10.7068 8.28503C10.7885 8.1246 10.7885 7.91458 10.7885 7.49454V3.56121C10.7885 3.14117 10.7885 2.93115 10.7068 2.77071C10.6349 2.62959 10.5201 2.51486 10.379 2.44295C10.2186 2.36121 10.0086 2.36121 9.58853 2.36121H3.61712C3.09323 2.36121 2.83128 2.36121 2.65212 2.46976C2.49509 2.5649 2.37842 2.71433 2.3242 2.88975C2.26235 3.08989 2.32588 3.34401 2.45295 3.85226L3.66357 8.69454Z" stroke="#98A2B3" stroke-width="1.5" stroke-linecap="round" stroke-linejoin="round"/>
</svg>
