<svg width="19" height="19" viewBox="0 0 19 19" fill="none" xmlns="http://www.w3.org/2000/svg">
<path d="M6.71143 6.48621L3.78152 10.0021C3.51991 10.316 3.38911 10.473 3.38711 10.6056C3.38537 10.7208 3.43672 10.8304 3.52637 10.9029C3.62949 10.9862 3.83381 10.9862 4.24245 10.9862H9.71143L8.96143 16.9862L12.7114 12.4862M12.449 7.98621H15.1804C15.589 7.98621 15.7934 7.98621 15.8965 8.06954C15.9861 8.14198 16.0375 8.25162 16.0357 8.36686C16.0337 8.49943 15.9029 8.65639 15.6413 8.97032L14.6241 10.191M8.64099 4.17069L10.4614 1.98621L10.0116 5.58449M16.4614 16.2362L2.96143 2.73621" stroke="#98A2B3" stroke-width="1.5" stroke-linecap="round" stroke-linejoin="round"/>
</svg>
