<svg width="19" height="19" viewBox="0 0 19 19" fill="none" xmlns="http://www.w3.org/2000/svg">
<path d="M13.3384 13.6863L5.08838 13.6863M6.06338 2.73627H12.3634C13.6235 2.73627 14.2536 2.73627 14.7349 2.9815C15.1582 3.19722 15.5024 3.54142 15.7181 3.96479C15.9634 4.44609 15.9634 5.07615 15.9634 6.33627V12.6363C15.9634 13.8964 15.9634 14.5264 15.7181 15.0077C15.5024 15.4311 15.1582 15.7753 14.7349 15.991C14.2536 16.2363 13.6235 16.2363 12.3634 16.2363H6.06338C4.80326 16.2363 4.1732 16.2363 3.6919 15.991C3.26854 15.7753 2.92433 15.4311 2.70861 15.0077C2.46338 14.5264 2.46338 13.8964 2.46338 12.6363V6.33627C2.46338 5.07615 2.46338 4.44609 2.70861 3.96479C2.92433 3.54142 3.26854 3.19722 3.6919 2.9815C4.1732 2.73627 4.80326 2.73627 6.06338 2.73627Z" stroke="#98A2B3" stroke-width="1.5" stroke-linecap="round" stroke-linejoin="round"/>
</svg>
