<svg width="19" height="19" viewBox="0 0 19 19" fill="none" xmlns="http://www.w3.org/2000/svg">
<path d="M5.59033 13.6113L5.59033 5.36127M6.56533 2.73627H12.8653C14.1255 2.73627 14.7555 2.73627 15.2368 2.9815C15.6602 3.19722 16.0044 3.54142 16.2201 3.96479C16.4653 4.44609 16.4653 5.07615 16.4653 6.33627V12.6363C16.4653 13.8964 16.4653 14.5264 16.2201 15.0077C16.0044 15.4311 15.6602 15.7753 15.2368 15.991C14.7555 16.2363 14.1255 16.2363 12.8653 16.2363H6.56533C5.30521 16.2363 4.67516 16.2363 4.19385 15.991C3.77049 15.7753 3.42628 15.4311 3.21057 15.0077C2.96533 14.5264 2.96533 13.8964 2.96533 12.6363V6.33627C2.96533 5.07615 2.96533 4.44609 3.21057 3.96479C3.42628 3.54142 3.77049 3.19722 4.19385 2.9815C4.67516 2.73627 5.30521 2.73627 6.56533 2.73627Z" stroke="#98A2B3" stroke-width="1.5" stroke-linecap="round" stroke-linejoin="round"/>
</svg>
