<svg width="19" height="19" viewBox="0 0 19 19" fill="none" xmlns="http://www.w3.org/2000/svg">
<path d="M13.3423 13.6113L13.3423 5.36127M6.06729 2.73627H12.3673C13.6274 2.73627 14.2575 2.73627 14.7388 2.9815C15.1621 3.19722 15.5063 3.54142 15.7221 3.96479C15.9673 4.44609 15.9673 5.07615 15.9673 6.33627V12.6363C15.9673 13.8964 15.9673 14.5264 15.7221 15.0077C15.5063 15.4311 15.1621 15.7753 14.7388 15.991C14.2575 16.2363 13.6274 16.2363 12.3673 16.2363H6.06729C4.80717 16.2363 4.17711 16.2363 3.69581 15.991C3.27244 15.7753 2.92824 15.4311 2.71252 15.0077C2.46729 14.5264 2.46729 13.8964 2.46729 12.6363V6.33627C2.46729 5.07615 2.46729 4.44609 2.71252 3.96479C2.92824 3.54142 3.27244 3.19722 3.69581 2.9815C4.17711 2.73627 4.80717 2.73627 6.06729 2.73627Z" stroke="#98A2B3" stroke-width="1.5" stroke-linecap="round" stroke-linejoin="round"/>
</svg>
