<svg width="19" height="19" viewBox="0 0 19 19" fill="none" xmlns="http://www.w3.org/2000/svg">
<path d="M13.8442 5.36127L5.59424 5.36127M6.56924 2.73627H12.8692C14.1294 2.73627 14.7594 2.73627 15.2407 2.9815C15.6641 3.19722 16.0083 3.54142 16.224 3.96479C16.4692 4.44609 16.4692 5.07615 16.4692 6.33627V12.6363C16.4692 13.8964 16.4692 14.5264 16.224 15.0077C16.0083 15.4311 15.6641 15.7753 15.2407 15.991C14.7594 16.2363 14.1294 16.2363 12.8692 16.2363H6.56924C5.30912 16.2363 4.67906 16.2363 4.19776 15.991C3.7744 15.7753 3.43019 15.4311 3.21447 15.0077C2.96924 14.5264 2.96924 13.8964 2.96924 12.6363V6.33627C2.96924 5.07615 2.96924 4.44609 3.21447 3.96479C3.43019 3.54142 3.7744 3.19722 4.19776 2.9815C4.67906 2.73627 5.30912 2.73627 6.56924 2.73627Z" stroke="#98A2B3" stroke-width="1.5" stroke-linecap="round" stroke-linejoin="round"/>
</svg>
