<svg width="19" height="19" viewBox="0 0 19 19" fill="none" xmlns="http://www.w3.org/2000/svg">
<g clip-path="url(#clip0_1_10365)">
<path d="M9.9751 5.73627L9.13844 4.06295C8.89765 3.58137 8.77725 3.34056 8.59763 3.16464C8.43878 3.00907 8.24734 2.89075 8.03715 2.81825C7.79947 2.73627 7.53025 2.73627 6.99182 2.73627H4.1251C3.28502 2.73627 2.86498 2.73627 2.54411 2.89976C2.26187 3.04357 2.0324 3.27304 1.88859 3.55528C1.7251 3.87615 1.7251 4.29619 1.7251 5.13627V5.73627M1.7251 5.73627H13.1251C14.3852 5.73627 15.0153 5.73627 15.4966 5.9815C15.9199 6.19722 16.2641 6.54142 16.4799 6.96479C16.7251 7.44609 16.7251 8.07615 16.7251 9.33627V12.6363C16.7251 13.8964 16.7251 14.5264 16.4799 15.0077C16.2641 15.4311 15.9199 15.7753 15.4966 15.991C15.0153 16.2363 14.3852 16.2363 13.1251 16.2363H5.3251C4.06498 16.2363 3.43492 16.2363 2.95362 15.991C2.53025 15.7753 2.18605 15.4311 1.97033 15.0077C1.7251 14.5264 1.7251 13.8964 1.7251 12.6363V5.73627Z" stroke="#98A2B3" stroke-width="1.5" stroke-linecap="round" stroke-linejoin="round"/>
</g>
<defs>
<clipPath id="clip0_1_10365">
<rect width="18" height="18" fill="white" transform="translate(0.225098 0.486206)"/>
</clipPath>
</defs>
</svg>
