<svg width="19" height="19" viewBox="0 0 19 19" fill="none" xmlns="http://www.w3.org/2000/svg">
<g clip-path="url(#clip0_1_10367)">
<path d="M9.979 5.73627L9.14235 4.06295C8.90156 3.58137 8.78115 3.34056 8.60153 3.16464C8.44269 3.00907 8.25125 2.89075 8.04106 2.81825C7.80338 2.73627 7.53416 2.73627 6.99572 2.73627H4.129C3.28893 2.73627 2.86889 2.73627 2.54802 2.89976C2.26578 3.04357 2.0363 3.27304 1.89249 3.55528C1.729 3.87615 1.729 4.29619 1.729 5.13627V5.73627M1.729 5.73627H13.129C14.3891 5.73627 15.0192 5.73627 15.5005 5.9815C15.9238 6.19722 16.2681 6.54142 16.4838 6.96479C16.729 7.44609 16.729 8.07615 16.729 9.33627V12.6363C16.729 13.8964 16.729 14.5264 16.4838 15.0077C16.2681 15.4311 15.9238 15.7753 15.5005 15.991C15.0192 16.2363 14.3891 16.2363 13.129 16.2363H5.329C4.06889 16.2363 3.43883 16.2363 2.95753 15.991C2.53416 15.7753 2.18995 15.4311 1.97424 15.0077C1.729 14.5264 1.729 13.8964 1.729 12.6363V5.73627ZM6.979 10.9863L8.479 12.4863L11.854 9.11127" stroke="#98A2B3" stroke-width="1.5" stroke-linecap="round" stroke-linejoin="round"/>
</g>
<defs>
<clipPath id="clip0_1_10367">
<rect width="18" height="18" fill="white" transform="translate(0.229004 0.486206)"/>
</clipPath>
</defs>
</svg>
