<svg width="19" height="19" viewBox="0 0 19 19" fill="none" xmlns="http://www.w3.org/2000/svg">
<g clip-path="url(#clip0_1_10371)">
<path d="M9.98731 5.73627L9.15065 4.06295C8.90986 3.58137 8.78945 3.34056 8.60983 3.16464C8.45099 3.00907 8.25955 2.89075 8.04936 2.81825C7.81168 2.73627 7.54246 2.73627 7.00402 2.73627H4.1373C3.29723 2.73627 2.87719 2.73627 2.55632 2.89976C2.27408 3.04357 2.0446 3.27304 1.90079 3.55528C1.7373 3.87615 1.7373 4.29619 1.7373 5.13627V5.73627M1.7373 5.73627H13.1373C14.3974 5.73627 15.0275 5.73627 15.5088 5.9815C15.9321 6.19722 16.2764 6.54142 16.4921 6.96479C16.7373 7.44609 16.7373 8.07615 16.7373 9.33627V12.6363C16.7373 13.8964 16.7373 14.5264 16.4921 15.0077C16.2764 15.4311 15.9321 15.7753 15.5088 15.991C15.0275 16.2363 14.3974 16.2363 13.1373 16.2363H5.33731C4.07719 16.2363 3.44713 16.2363 2.96583 15.991C2.54246 15.7753 2.19826 15.4311 1.98254 15.0077C1.7373 14.5264 1.7373 13.8964 1.7373 12.6363V5.73627ZM7.81231 13.6113H10.6623C11.0823 13.6113 11.2924 13.6113 11.4528 13.5295C11.5939 13.4576 11.7087 13.3429 11.7806 13.2018C11.8623 13.0413 11.8623 12.8313 11.8623 12.4113V11.8113C11.8623 11.3912 11.8623 11.1812 11.7806 11.0208C11.7087 10.8797 11.5939 10.7649 11.4528 10.693C11.2924 10.6113 11.0823 10.6113 10.6623 10.6113H7.81231C7.39227 10.6113 7.18225 10.6113 7.02181 10.693C6.88069 10.7649 6.76596 10.8797 6.69405 11.0208C6.61231 11.1812 6.61231 11.3912 6.61231 11.8113V12.4113C6.61231 12.8313 6.61231 13.0413 6.69405 13.2018C6.76596 13.3429 6.88069 13.4576 7.02181 13.5295C7.18225 13.6113 7.39227 13.6113 7.81231 13.6113ZM10.5498 10.6113V9.29877C10.5498 8.57389 9.96218 7.98627 9.23731 7.98627C8.51243 7.98627 7.92481 8.57389 7.92481 9.29877V10.6113H10.5498Z" stroke="#98A2B3" stroke-width="1.5" stroke-linecap="round" stroke-linejoin="round"/>
</g>
<defs>
<clipPath id="clip0_1_10371">
<rect width="18" height="18" fill="white" transform="translate(0.237305 0.486206)"/>
</clipPath>
</defs>
</svg>
