<svg width="19" height="19" viewBox="0 0 19 19" fill="none" xmlns="http://www.w3.org/2000/svg">
<path d="M9.74316 8.73627V13.2363M7.49316 10.9863H11.9932M17.2432 14.7363C17.2432 15.1341 17.0851 15.5156 16.8038 15.7969C16.5225 16.0782 16.141 16.2363 15.7432 16.2363H3.74316C3.34534 16.2363 2.96381 16.0782 2.6825 15.7969C2.4012 15.5156 2.24316 15.1341 2.24316 14.7363V4.23627C2.24316 3.83844 2.4012 3.45691 2.6825 3.17561C2.96381 2.8943 3.34534 2.73627 3.74316 2.73627H7.49316L8.99316 4.98627H15.7432C16.141 4.98627 16.5225 5.1443 16.8038 5.42561C17.0851 5.70691 17.2432 6.08844 17.2432 6.48627V14.7363Z" stroke="#98A2B3" stroke-width="1.5" stroke-linecap="round" stroke-linejoin="round"/>
</svg>
