<svg width="19" height="19" viewBox="0 0 19 19" fill="none" xmlns="http://www.w3.org/2000/svg">
<path d="M9.99902 5.73627L9.16237 4.06295C8.92158 3.58137 8.80117 3.34056 8.62155 3.16464C8.46271 3.00907 8.27127 2.89075 8.06108 2.81825C7.8234 2.73627 7.55418 2.73627 7.01574 2.73627H4.14902C3.30894 2.73627 2.88891 2.73627 2.56804 2.89976C2.28579 3.04357 2.05632 3.27304 1.91251 3.55528C1.74902 3.87615 1.74902 4.29619 1.74902 5.13627V5.73627M1.74902 5.73627H13.149C14.4091 5.73627 15.0392 5.73627 15.5205 5.9815C15.9439 6.19722 16.2881 6.54142 16.5038 6.96479C16.749 7.44609 16.749 8.07615 16.749 9.33627V12.6363C16.749 13.8964 16.749 14.5264 16.5038 15.0077C16.2881 15.4311 15.9439 15.7753 15.5205 15.991C15.0392 16.2363 14.4091 16.2363 13.149 16.2363H5.34902C4.08891 16.2363 3.45885 16.2363 2.97754 15.991C2.55418 15.7753 2.20997 15.4311 1.99426 15.0077C1.74902 14.5264 1.74902 13.8964 1.74902 12.6363V5.73627ZM11.874 13.6113L10.749 12.4863M11.499 10.6113C11.499 12.061 10.3238 13.2363 8.87402 13.2363C7.42428 13.2363 6.24902 12.061 6.24902 10.6113C6.24902 9.16152 7.42428 7.98627 8.87402 7.98627C10.3238 7.98627 11.499 9.16152 11.499 10.6113Z" stroke="#98A2B3" stroke-width="1.5" stroke-linecap="round" stroke-linejoin="round"/>
</svg>
