<svg width="19" height="19" viewBox="0 0 19 19" fill="none" xmlns="http://www.w3.org/2000/svg">
<path d="M10.4854 5.73627L9.6487 4.06295C9.4079 3.58137 9.2875 3.34056 9.10788 3.16464C8.94904 3.00907 8.75759 2.89075 8.54741 2.81825C8.30973 2.73627 8.04051 2.73627 7.50207 2.73627H4.63535C3.79527 2.73627 3.37523 2.73627 3.05437 2.89976C2.77212 3.04357 2.54265 3.27304 2.39884 3.55528C2.23535 3.87615 2.23535 4.29619 2.23535 5.13627V5.73627M2.23535 5.73627H13.6354C14.8955 5.73627 15.5255 5.73627 16.0068 5.9815C16.4302 6.19722 16.7744 6.54142 16.9901 6.96479C17.2354 7.44609 17.2354 8.07615 17.2354 9.33627V12.6363C17.2354 13.8964 17.2354 14.5264 16.9901 15.0077C16.7744 15.4311 16.4302 15.7753 16.0068 15.991C15.5255 16.2363 14.8955 16.2363 13.6354 16.2363H5.83535C4.57523 16.2363 3.94517 16.2363 3.46387 15.991C3.04051 15.7753 2.6963 15.4311 2.48059 15.0077C2.23535 14.5264 2.23535 13.8964 2.23535 12.6363V5.73627ZM7.48535 10.9863L9.73535 13.2363M9.73535 13.2363L11.9854 10.9863M9.73535 13.2363V8.73627" stroke="#98A2B3" stroke-width="1.5" stroke-linecap="round" stroke-linejoin="round"/>
</svg>
