<svg width="19" height="19" viewBox="0 0 19 19" fill="none" xmlns="http://www.w3.org/2000/svg">
<g clip-path="url(#clip0_1_8696)">
<path d="M9.98242 5.73627L9.14577 4.06295C8.90497 3.58137 8.78457 3.34056 8.60495 3.16464C8.44611 3.00907 8.25466 2.89075 8.04448 2.81825C7.8068 2.73627 7.53758 2.73627 6.99914 2.73627H4.13242C3.29234 2.73627 2.8723 2.73627 2.55144 2.89976C2.26919 3.04357 2.03972 3.27304 1.89591 3.55528C1.73242 3.87615 1.73242 4.29619 1.73242 5.13627V5.73627M1.73242 5.73627H13.1324C14.3925 5.73627 15.0226 5.73627 15.5039 5.9815C15.9273 6.19722 16.2715 6.54142 16.4872 6.96479C16.7324 7.44609 16.7324 8.07615 16.7324 9.33627V12.6363C16.7324 13.8964 16.7324 14.5264 16.4872 15.0077C16.2715 15.4311 15.9273 15.7753 15.5039 15.991C15.0226 16.2363 14.3925 16.2363 13.1324 16.2363H5.33242C4.0723 16.2363 3.44224 16.2363 2.96094 15.991C2.53758 15.7753 2.19337 15.4311 1.97766 15.0077C1.73242 14.5264 1.73242 13.8964 1.73242 12.6363V5.73627ZM10.7324 12.8613L12.6074 10.9863L10.7324 9.11127M7.73242 9.11127L5.85742 10.9863L7.73242 12.8613" stroke="#98A2B3" stroke-width="1.5" stroke-linecap="round" stroke-linejoin="round"/>
</g>
<defs>
<clipPath id="clip0_1_8696">
<rect width="18" height="18" fill="white" transform="translate(0.232422 0.486206)"/>
</clipPath>
</defs>
</svg>
