<svg width="19" height="19" viewBox="0 0 19 19" fill="none" xmlns="http://www.w3.org/2000/svg">
<path d="M7.48828 10.9863H11.9883M17.2383 14.7363C17.2383 15.1341 17.0802 15.5156 16.7989 15.7969C16.5176 16.0782 16.1361 16.2363 15.7383 16.2363H3.73828C3.34046 16.2363 2.95893 16.0782 2.67762 15.7969C2.39632 15.5156 2.23828 15.1341 2.23828 14.7363V4.23627C2.23828 3.83844 2.39632 3.45691 2.67762 3.17561C2.95893 2.8943 3.34046 2.73627 3.73828 2.73627H7.48828L8.98828 4.98627H15.7383C16.1361 4.98627 16.5176 5.1443 16.7989 5.42561C17.0802 5.70691 17.2383 6.08844 17.2383 6.48627V14.7363Z" stroke="#98A2B3" stroke-width="1.5" stroke-linecap="round" stroke-linejoin="round"/>
</svg>
