<svg width="19" height="19" viewBox="0 0 19 19" fill="none" xmlns="http://www.w3.org/2000/svg">
<path d="M10.4971 5.73627L9.66041 4.06295C9.41962 3.58137 9.29922 3.34056 9.1196 3.16464C8.96076 3.00907 8.76931 2.89075 8.55913 2.81825C8.32144 2.73627 8.05223 2.73627 7.51379 2.73627H4.64707C3.80699 2.73627 3.38695 2.73627 3.06608 2.89976C2.78384 3.04357 2.55437 3.27304 2.41056 3.55528C2.24707 3.87615 2.24707 4.29619 2.24707 5.13627V5.73627M2.24707 5.73627H13.6471C14.9072 5.73627 15.5372 5.73627 16.0185 5.9815C16.4419 6.19722 16.7861 6.54142 17.0018 6.96479C17.2471 7.44609 17.2471 8.07615 17.2471 9.33627V12.6363C17.2471 13.8964 17.2471 14.5264 17.0018 15.0077C16.7861 15.4311 16.4419 15.7753 16.0185 15.991C15.5372 16.2363 14.9072 16.2363 13.6471 16.2363H5.84707C4.58695 16.2363 3.95689 16.2363 3.47559 15.991C3.05223 15.7753 2.70802 15.4311 2.49231 15.0077C2.24707 14.5264 2.24707 13.8964 2.24707 12.6363V5.73627ZM8.13464 9.30045C8.26679 8.92479 8.52762 8.60802 8.87094 8.40625C9.21426 8.20448 9.61792 8.13072 10.0104 8.19804C10.4029 8.26537 10.7589 8.46942 11.0154 8.77407C11.2718 9.07872 11.4122 9.4643 11.4116 9.86253C11.4116 10.9867 9.72533 11.5488 9.72533 11.5488M9.74707 13.7988H9.75457" stroke="#98A2B3" stroke-width="1.5" stroke-linecap="round" stroke-linejoin="round"/>
</svg>
