<svg width="19" height="19" viewBox="0 0 19 19" fill="none" xmlns="http://www.w3.org/2000/svg">
<path d="M10.0029 5.73627L9.16627 4.06295C8.92548 3.58137 8.80508 3.34056 8.62546 3.16464C8.46661 3.00907 8.27517 2.89075 8.06499 2.81825C7.8273 2.73627 7.55809 2.73627 7.01965 2.73627H4.15293C3.31285 2.73627 2.89281 2.73627 2.57194 2.89976C2.2897 3.04357 2.06023 3.27304 1.91642 3.55528C1.75293 3.87615 1.75293 4.29619 1.75293 5.13627V5.73627M1.75293 5.73627H13.1529C14.413 5.73627 15.0431 5.73627 15.5244 5.9815C15.9478 6.19722 16.292 6.54142 16.5077 6.96479C16.7529 7.44609 16.7529 8.07615 16.7529 9.33627V12.6363C16.7529 13.8964 16.7529 14.5264 16.5077 15.0077C16.292 15.4311 15.9478 15.7753 15.5244 15.991C15.0431 16.2363 14.413 16.2363 13.1529 16.2363H5.35293C4.09281 16.2363 3.46275 16.2363 2.98145 15.991C2.55809 15.7753 2.21388 15.4311 1.99817 15.0077C1.75293 14.5264 1.75293 13.8964 1.75293 12.6363V5.73627ZM7.37793 9.11127L11.1279 12.8613M11.1279 9.11127L7.37793 12.8613" stroke="#98A2B3" stroke-width="1.5" stroke-linecap="round" stroke-linejoin="round"/>
</svg>
