<svg width="19" height="19" viewBox="0 0 19 19" fill="none" xmlns="http://www.w3.org/2000/svg">
<path d="M10.4805 5.73627L9.64381 4.06295C9.40302 3.58137 9.28262 3.34056 9.103 3.16464C8.94415 3.00907 8.75271 2.89075 8.54253 2.81825C8.30484 2.73627 8.03562 2.73627 7.49719 2.73627H4.63047C3.79039 2.73627 3.37035 2.73627 3.04948 2.89976C2.76724 3.04357 2.53777 3.27304 2.39396 3.55528C2.23047 3.87615 2.23047 4.29619 2.23047 5.13627V5.73627M2.23047 5.73627H13.6305C14.8906 5.73627 15.5206 5.73627 16.0019 5.9815C16.4253 6.19722 16.7695 6.54142 16.9852 6.96479C17.2305 7.44609 17.2305 8.07615 17.2305 9.33627V12.6363C17.2305 13.8964 17.2305 14.5264 16.9852 15.0077C16.7695 15.4311 16.4253 15.7753 16.0019 15.991C15.5206 16.2363 14.8906 16.2363 13.6305 16.2363H5.83047C4.57035 16.2363 3.94029 16.2363 3.45899 15.991C3.03563 15.7753 2.69142 15.4311 2.4757 15.0077C2.23047 14.5264 2.23047 13.8964 2.23047 12.6363V5.73627ZM7.85547 9.11127L11.6055 12.8613M12.7305 10.9863C12.7305 12.6431 11.3873 13.9863 9.73047 13.9863C8.07361 13.9863 6.73047 12.6431 6.73047 10.9863C6.73047 9.32941 8.07361 7.98627 9.73047 7.98627C11.3873 7.98627 12.7305 9.32941 12.7305 10.9863Z" stroke="#98A2B3" stroke-width="1.5" stroke-linecap="round" stroke-linejoin="round"/>
</svg>
