<svg width="19" height="19" viewBox="0 0 19 19" fill="none" xmlns="http://www.w3.org/2000/svg">
<path d="M10.501 5.73627L9.66432 4.06295C9.42353 3.58137 9.30313 3.34056 9.1235 3.16464C8.96466 3.00907 8.77322 2.89075 8.56303 2.81825C8.32535 2.73627 8.05613 2.73627 7.5177 2.73627H4.65098C3.8109 2.73627 3.39086 2.73627 3.06999 2.89976C2.78775 3.04357 2.55828 3.27304 2.41447 3.55528C2.25098 3.87615 2.25098 4.29619 2.25098 5.13627V5.73627M2.25098 5.73627H13.651C14.9111 5.73627 15.5412 5.73627 16.0225 5.9815C16.4458 6.19722 16.79 6.54142 17.0057 6.96479C17.251 7.44609 17.251 8.07615 17.251 9.33627V12.6363C17.251 13.8964 17.251 14.5264 17.0057 15.0077C16.79 15.4311 16.4458 15.7753 16.0225 15.991C15.5412 16.2363 14.9111 16.2363 13.651 16.2363H5.85098C4.59086 16.2363 3.9608 16.2363 3.4795 15.991C3.05613 15.7753 2.71193 15.4311 2.49621 15.0077C2.25098 14.5264 2.25098 13.8964 2.25098 12.6363V5.73627ZM9.75098 13.6113C9.75098 13.6113 12.001 12.5388 12.001 10.9302V9.05343L10.3603 8.46717C9.96608 8.32597 9.53498 8.32597 9.14078 8.46717L7.50098 9.05343V10.9302C7.50098 12.5388 9.75098 13.6113 9.75098 13.6113Z" stroke="#98A2B3" stroke-width="1.5" stroke-linecap="round" stroke-linejoin="round"/>
</svg>
