<svg width="19" height="19" viewBox="0 0 19 19" fill="none" xmlns="http://www.w3.org/2000/svg">
<g clip-path="url(#clip0_1_10375)">
<path d="M9.99512 5.73627L9.15846 4.06295C8.91767 3.58137 8.79727 3.34056 8.61765 3.16464C8.4588 3.00907 8.26736 2.89075 8.05717 2.81825C7.81949 2.73627 7.55027 2.73627 7.01184 2.73627H4.14512C3.30504 2.73627 2.885 2.73627 2.56413 2.89976C2.28189 3.04357 2.05242 3.27304 1.90861 3.55528C1.74512 3.87615 1.74512 4.29619 1.74512 5.13627V5.73627M1.74512 5.73627H13.1451C14.4052 5.73627 15.0353 5.73627 15.5166 5.9815C15.94 6.19722 16.2842 6.54142 16.4999 6.96479C16.7451 7.44609 16.7451 8.07615 16.7451 9.33627V12.6363C16.7451 13.8964 16.7451 14.5264 16.4999 15.0077C16.2842 15.4311 15.94 15.7753 15.5166 15.991C15.0353 16.2363 14.4052 16.2363 13.1451 16.2363H5.34512C4.085 16.2363 3.45494 16.2363 2.97364 15.991C2.55027 15.7753 2.20607 15.4311 1.99035 15.0077C1.74512 14.5264 1.74512 13.8964 1.74512 12.6363V5.73627ZM9.24512 13.2363V8.73627M6.99512 10.9863H11.4951" stroke="#98A2B3" stroke-width="1.5" stroke-linecap="round" stroke-linejoin="round"/>
</g>
<defs>
<clipPath id="clip0_1_10375">
<rect width="18" height="18" fill="white" transform="translate(0.245117 0.486206)"/>
</clipPath>
</defs>
</svg>
