<svg width="19" height="19" viewBox="0 0 19 19" fill="none" xmlns="http://www.w3.org/2000/svg">
<g clip-path="url(#clip0_1_10373)">
<path d="M9.99121 5.73627L9.15456 4.06295C8.91376 3.58137 8.79336 3.34056 8.61374 3.16464C8.4549 3.00907 8.26345 2.89075 8.05327 2.81825C7.81558 2.73627 7.54637 2.73627 7.00793 2.73627H4.14121C3.30113 2.73627 2.88109 2.73627 2.56023 2.89976C2.27798 3.04357 2.04851 3.27304 1.9047 3.55528C1.74121 3.87615 1.74121 4.29619 1.74121 5.13627V5.73627M1.74121 5.73627H13.1412C14.4013 5.73627 15.0314 5.73627 15.5127 5.9815C15.9361 6.19722 16.2803 6.54142 16.496 6.96479C16.7412 7.44609 16.7412 8.07615 16.7412 9.33627V12.6363C16.7412 13.8964 16.7412 14.5264 16.496 15.0077C16.2803 15.4311 15.9361 15.7753 15.5127 15.991C15.0314 16.2363 14.4013 16.2363 13.1412 16.2363H5.34121C4.08109 16.2363 3.45103 16.2363 2.96973 15.991C2.54637 15.7753 2.20216 15.4311 1.98645 15.0077C1.74121 14.5264 1.74121 13.8964 1.74121 12.6363V5.73627ZM6.99121 10.9863H11.4912" stroke="#98A2B3" stroke-width="1.5" stroke-linecap="round" stroke-linejoin="round"/>
</g>
<defs>
<clipPath id="clip0_1_10373">
<rect width="18" height="18" fill="white" transform="translate(0.241211 0.486206)"/>
</clipPath>
</defs>
</svg>
