<svg width="19" height="19" viewBox="0 0 19 19" fill="none" xmlns="http://www.w3.org/2000/svg">
<g clip-path="url(#clip0_1_9693)">
<path d="M5.2627 9.48615H8.2627M6.7627 7.98615V10.9861M12.0127 10.2361H12.0202M14.2627 8.73615H14.2702M4.6627 13.9861H14.8627C15.7028 13.9861 16.1228 13.9861 16.4437 13.8227C16.7259 13.6788 16.9554 13.4494 17.0992 13.1671C17.2627 12.8463 17.2627 12.4262 17.2627 11.5861V7.38615C17.2627 6.54607 17.2627 6.12603 17.0992 5.80516C16.9554 5.52292 16.7259 5.29345 16.4437 5.14964C16.1228 4.98615 15.7028 4.98615 14.8627 4.98615H4.6627C3.82262 4.98615 3.40258 4.98615 3.08171 5.14964C2.79947 5.29345 2.57 5.52292 2.42619 5.80516C2.2627 6.12603 2.2627 6.54607 2.2627 7.38614V11.5861C2.2627 12.4262 2.2627 12.8463 2.42619 13.1671C2.57 13.4494 2.79947 13.6788 3.08171 13.8227C3.40258 13.9861 3.82262 13.9861 4.6627 13.9861Z" stroke="#98A2B3" stroke-width="1.5" stroke-linecap="round" stroke-linejoin="round"/>
</g>
<defs>
<clipPath id="clip0_1_9693">
<rect width="18" height="18" fill="white" transform="translate(0.762695 0.486206)"/>
</clipPath>
</defs>
</svg>
