<svg width="19" height="19" viewBox="0 0 19 19" fill="none" xmlns="http://www.w3.org/2000/svg">
<path d="M4.76109 8.73621H7.76109M6.26109 7.23621V10.2362M11.5111 9.48621H11.5186M13.7611 7.98621H13.7686M8.0978 4.23621H10.4244C12.393 4.23621 13.3774 4.23621 14.15 4.60928C14.8303 4.93775 15.3955 5.46402 15.7716 6.11915C16.1987 6.86323 16.2689 7.84506 16.4091 9.80872L16.5937 12.3921C16.6841 13.6588 15.6809 14.7362 14.411 14.7362C13.7616 14.7362 13.1457 14.4477 12.73 13.9489L12.4486 13.6112C12.1912 13.3024 12.0625 13.1479 11.916 13.0232C11.6088 12.7616 11.237 12.5874 10.8394 12.5189C10.6497 12.4862 10.4487 12.4862 10.0467 12.4862H8.47551C8.07349 12.4862 7.87248 12.4862 7.68282 12.5189C7.28521 12.5874 6.91335 12.7616 6.60617 13.0232C6.45964 13.1479 6.33096 13.3024 6.07359 13.6112L5.79222 13.9489C5.37647 14.4477 4.7606 14.7362 4.11118 14.7362C2.84127 14.7362 1.83805 13.6588 1.92853 12.3921L2.11305 9.80872C2.25331 7.84506 2.32344 6.86323 2.75062 6.11915C3.12672 5.46402 3.69192 4.93775 4.37218 4.60928C5.1448 4.23621 6.12914 4.23621 8.0978 4.23621Z" stroke="#98A2B3" stroke-width="1.5" stroke-linecap="round" stroke-linejoin="round"/>
</svg>
