<svg width="19" height="19" viewBox="0 0 19 19" fill="none" xmlns="http://www.w3.org/2000/svg">
<g clip-path="url(#clip0_1_9033)">
<path d="M9.7666 4.98621V16.9862M9.7666 4.98621H7.11482C6.7241 4.98621 6.34938 4.82817 6.0731 4.54687C5.79682 4.26556 5.6416 3.88403 5.6416 3.48621C5.6416 3.08838 5.79682 2.70685 6.0731 2.42555C6.34938 2.14424 6.7241 1.98621 7.11482 1.98621C9.17732 1.98621 9.7666 4.98621 9.7666 4.98621ZM9.7666 4.98621H12.4184C12.8091 4.98621 13.1838 4.82817 13.4601 4.54687C13.7364 4.26556 13.8916 3.88403 13.8916 3.48621C13.8916 3.08838 13.7364 2.70685 13.4601 2.42555C13.1838 2.14424 12.8091 1.98621 12.4184 1.98621C10.3559 1.98621 9.7666 4.98621 9.7666 4.98621ZM15.7666 8.73621V14.5862C15.7666 15.4263 15.7666 15.8463 15.6031 16.1672C15.4593 16.4494 15.2298 16.6789 14.9476 16.8227C14.6267 16.9862 14.2067 16.9862 13.3666 16.9862L6.1666 16.9862C5.32652 16.9862 4.90648 16.9862 4.58562 16.8227C4.30337 16.6789 4.0739 16.4494 3.93009 16.1672C3.7666 15.8463 3.7666 15.4263 3.7666 14.5862V8.73621M2.2666 6.18621L2.2666 7.53621C2.2666 7.95625 2.2666 8.16627 2.34835 8.3267C2.42025 8.46782 2.53499 8.58256 2.67611 8.65446C2.83654 8.73621 3.04656 8.73621 3.4666 8.73621L16.0666 8.73621C16.4866 8.73621 16.6967 8.73621 16.8571 8.65446C16.9982 8.58256 17.113 8.46782 17.1849 8.3267C17.2666 8.16627 17.2666 7.95625 17.2666 7.53621V6.18621C17.2666 5.76617 17.2666 5.55615 17.1849 5.39571C17.113 5.25459 16.9982 5.13986 16.8571 5.06795C16.6967 4.98621 16.4866 4.98621 16.0666 4.98621L3.4666 4.98621C3.04656 4.98621 2.83654 4.98621 2.67611 5.06795C2.53499 5.13986 2.42025 5.25459 2.34835 5.39571C2.2666 5.55615 2.2666 5.76617 2.2666 6.18621Z" stroke="#98A2B3" stroke-width="1.5" stroke-linecap="round" stroke-linejoin="round"/>
</g>
<defs>
<clipPath id="clip0_1_9033">
<rect width="18" height="18" fill="white" transform="translate(0.766602 0.486206)"/>
</clipPath>
</defs>
</svg>
