<svg width="19" height="19" viewBox="0 0 19 19" fill="none" xmlns="http://www.w3.org/2000/svg">
<path d="M15.2646 9.48621V16.9862H3.26465V9.48621M9.26465 16.9862V5.73621M9.26465 5.73621H5.88965C5.39237 5.73621 4.91545 5.53866 4.56382 5.18703C4.21219 4.8354 4.01465 4.35849 4.01465 3.86121C4.01465 3.36393 4.21219 2.88701 4.56382 2.53538C4.91545 2.18375 5.39237 1.98621 5.88965 1.98621C8.51465 1.98621 9.26465 5.73621 9.26465 5.73621ZM9.26465 5.73621H12.6396C13.1369 5.73621 13.6138 5.53866 13.9655 5.18703C14.3171 4.8354 14.5146 4.35849 14.5146 3.86121C14.5146 3.36393 14.3171 2.88701 13.9655 2.53538C13.6138 2.18375 13.1369 1.98621 12.6396 1.98621C10.0146 1.98621 9.26465 5.73621 9.26465 5.73621ZM1.76465 5.73621H16.7646V9.48621H1.76465V5.73621Z" stroke="#98A2B3" stroke-width="1.5" stroke-linecap="round" stroke-linejoin="round"/>
</svg>
