<svg width="19" height="19" viewBox="0 0 19 19" fill="none" xmlns="http://www.w3.org/2000/svg">
<path d="M9.26856 5.73621H5.89356C5.39627 5.73621 4.91936 5.53866 4.56773 5.18703C4.2161 4.8354 4.01855 4.35849 4.01855 3.86121C4.01855 3.36393 4.2161 2.88701 4.56773 2.53538C4.91936 2.18375 5.39627 1.98621 5.89356 1.98621C8.51856 1.98621 9.26856 5.73621 9.26856 5.73621ZM9.26856 5.73621H12.6436C13.1408 5.73621 13.6178 5.53866 13.9694 5.18703C14.321 4.8354 14.5186 4.35849 14.5186 3.86121C14.5186 3.36393 14.321 2.88701 13.9694 2.53538C13.6178 2.18375 13.1408 1.98621 12.6436 1.98621C10.0186 1.98621 9.26856 5.73621 9.26856 5.73621ZM9.26856 5.73621L9.26856 16.9862M1.76855 10.9862H16.7686M1.76855 8.13621L1.76855 14.5862C1.76855 15.4263 1.76855 15.8463 1.93204 16.1672C2.07585 16.4494 2.30533 16.6789 2.58757 16.8227C2.90844 16.9862 3.32848 16.9862 4.16855 16.9862L14.3686 16.9862C15.2086 16.9862 15.6287 16.9862 15.9495 16.8227C16.2318 16.6789 16.4613 16.4494 16.6051 16.1672C16.7686 15.8463 16.7686 15.4263 16.7686 14.5862V8.13621C16.7686 7.29613 16.7686 6.87609 16.6051 6.55522C16.4613 6.27298 16.2318 6.04351 15.9495 5.8997C15.6287 5.73621 15.2086 5.73621 14.3686 5.73621L4.16856 5.73621C3.32848 5.73621 2.90844 5.73621 2.58757 5.8997C2.30533 6.04351 2.07586 6.27298 1.93205 6.55522C1.76855 6.87609 1.76855 7.29613 1.76855 8.13621Z" stroke="#98A2B3" stroke-width="1.5" stroke-linecap="round" stroke-linejoin="round"/>
</svg>
