<svg width="19" height="19" viewBox="0 0 19 19" fill="none" xmlns="http://www.w3.org/2000/svg">
<path d="M12.0322 13.9863C12.0322 15.2289 13.0396 16.2363 14.2822 16.2363C15.5249 16.2363 16.5322 15.2289 16.5322 13.9863C16.5322 12.7436 15.5249 11.7363 14.2822 11.7363C13.0396 11.7363 12.0322 12.7436 12.0322 13.9863ZM12.0322 13.9863C10.242 13.9863 8.52513 13.2751 7.25926 12.0092C5.99339 10.7434 5.28223 9.02648 5.28223 7.23627M5.28223 7.23627C6.52487 7.23627 7.53223 6.22891 7.53223 4.98627C7.53223 3.74363 6.52487 2.73627 5.28223 2.73627C4.03959 2.73627 3.03223 3.74363 3.03223 4.98627C3.03223 6.22891 4.03959 7.23627 5.28223 7.23627ZM5.28223 7.23627V16.2363" stroke="#98A2B3" stroke-width="1.5" stroke-linecap="round" stroke-linejoin="round"/>
</svg>
