<svg width="19" height="19" viewBox="0 0 19 19" fill="none" xmlns="http://www.w3.org/2000/svg">
<path d="M5.27441 2.73627V11.7363M5.27441 11.7363C4.03177 11.7363 3.02441 12.7436 3.02441 13.9863C3.02441 15.2289 4.03177 16.2363 5.27441 16.2363C6.51706 16.2363 7.52441 15.2289 7.52441 13.9863M5.27441 11.7363C6.51706 11.7363 7.52441 12.7436 7.52441 13.9863M14.2744 7.23627C15.5171 7.23627 16.5244 6.22891 16.5244 4.98627C16.5244 3.74363 15.5171 2.73627 14.2744 2.73627C13.0318 2.73627 12.0244 3.74363 12.0244 4.98627C12.0244 6.22891 13.0318 7.23627 14.2744 7.23627ZM14.2744 7.23627C14.2744 9.02648 13.5633 10.7434 12.2974 12.0092C11.0315 13.2751 9.31463 13.9863 7.52441 13.9863" stroke="#98A2B3" stroke-width="1.5" stroke-linecap="round" stroke-linejoin="round"/>
</svg>
