<svg width="19" height="19" viewBox="0 0 19 19" fill="none" xmlns="http://www.w3.org/2000/svg">
<path d="M5.27051 2.73627V11.7363M5.27051 11.7363C4.02787 11.7363 3.02051 12.7436 3.02051 13.9863C3.02051 15.2289 4.02787 16.2363 5.27051 16.2363C6.51315 16.2363 7.52051 15.2289 7.52051 13.9863M5.27051 11.7363C6.51315 11.7363 7.52051 12.7436 7.52051 13.9863M14.2705 7.23627C15.5132 7.23627 16.5205 6.22891 16.5205 4.98627C16.5205 3.74363 15.5132 2.73627 14.2705 2.73627C13.0279 2.73627 12.0205 3.74363 12.0205 4.98627C12.0205 6.22891 13.0279 7.23627 14.2705 7.23627ZM14.2705 7.23627C14.2705 9.02648 13.5594 10.7434 12.2935 12.0092C11.0276 13.2751 9.31072 13.9863 7.52051 13.9863" stroke="#98A2B3" stroke-width="1.5" stroke-linecap="round" stroke-linejoin="round"/>
</svg>
