<svg width="19" height="19" viewBox="0 0 19 19" fill="none" xmlns="http://www.w3.org/2000/svg">
<path d="M11.5303 13.9863C11.5303 15.2289 12.5376 16.2363 13.7803 16.2363C15.0229 16.2363 16.0303 15.2289 16.0303 13.9863C16.0303 12.7436 15.0229 11.7363 13.7803 11.7363C12.5376 11.7363 11.5303 12.7436 11.5303 13.9863ZM11.5303 13.9863C9.74006 13.9863 8.02317 13.2751 6.7573 12.0092C5.49143 10.7434 4.78027 9.02648 4.78027 7.23627M4.78027 7.23627C6.02291 7.23627 7.03027 6.22891 7.03027 4.98627C7.03027 3.74363 6.02291 2.73627 4.78027 2.73627C3.53763 2.73627 2.53027 3.74363 2.53027 4.98627C2.53027 6.22891 3.53763 7.23627 4.78027 7.23627ZM4.78027 7.23627V16.2363" stroke="#98A2B3" stroke-width="1.5" stroke-linecap="round" stroke-linejoin="round"/>
</svg>
