<svg width="19" height="19" viewBox="0 0 19 19" fill="none" xmlns="http://www.w3.org/2000/svg">
<path d="M2.52246 2.73627V10.3863C2.52246 11.6464 2.52246 12.2764 2.7677 12.7577C2.98341 13.1811 3.32762 13.5253 3.75098 13.741C4.23228 13.9863 4.86234 13.9863 6.12246 13.9863H11.5225M11.5225 13.9863C11.5225 15.2289 12.5298 16.2363 13.7725 16.2363C15.0151 16.2363 16.0225 15.2289 16.0225 13.9863C16.0225 12.7436 15.0151 11.7363 13.7725 11.7363C12.5298 11.7363 11.5225 12.7436 11.5225 13.9863ZM2.52246 6.48627L11.5225 6.48627M11.5225 6.48627C11.5225 7.72891 12.5298 8.73627 13.7725 8.73627C15.0151 8.73627 16.0225 7.72891 16.0225 6.48627C16.0225 5.24363 15.0151 4.23627 13.7725 4.23627C12.5298 4.23627 11.5225 5.24363 11.5225 6.48627Z" stroke="#98A2B3" stroke-width="1.5" stroke-linecap="round" stroke-linejoin="round"/>
</svg>
