<svg width="19" height="19" viewBox="0 0 19 19" fill="none" xmlns="http://www.w3.org/2000/svg">
<path d="M13.7842 11.7363C12.5415 11.7363 11.5342 12.7436 11.5342 13.9863C11.5342 15.2289 12.5415 16.2363 13.7842 16.2363C15.0268 16.2363 16.0342 15.2289 16.0342 13.9863C16.0342 12.7436 15.0268 11.7363 13.7842 11.7363ZM13.7842 11.7363V6.48627C13.7842 6.08844 13.6261 5.70691 13.3448 5.42561C13.0635 5.1443 12.682 4.98627 12.2842 4.98627H10.0342M4.78418 7.23627C6.02682 7.23627 7.03418 6.22891 7.03418 4.98627C7.03418 3.74363 6.02682 2.73627 4.78418 2.73627C3.54154 2.73627 2.53418 3.74363 2.53418 4.98627C2.53418 6.22891 3.54154 7.23627 4.78418 7.23627ZM4.78418 7.23627V16.2363" stroke="#98A2B3" stroke-width="1.5" stroke-linecap="round" stroke-linejoin="round"/>
</svg>
