<svg width="19" height="19" viewBox="0 0 19 19" fill="none" xmlns="http://www.w3.org/2000/svg">
<path d="M14.2861 11.7363C13.0435 11.7363 12.0361 12.7436 12.0361 13.9863C12.0361 15.2289 13.0435 16.2363 14.2861 16.2363C15.5288 16.2363 16.5361 15.2289 16.5361 13.9863C16.5361 12.7436 15.5288 11.7363 14.2861 11.7363ZM14.2861 11.7363V6.48627C14.2861 6.08844 14.1281 5.70691 13.8468 5.42561C13.5655 5.1443 13.184 4.98627 12.7861 4.98627H10.5361M5.28613 7.23627C6.52877 7.23627 7.53613 6.22891 7.53613 4.98627C7.53613 3.74363 6.52877 2.73627 5.28613 2.73627C4.04349 2.73627 3.03613 3.74363 3.03613 4.98627C3.03613 6.22891 4.04349 7.23627 5.28613 7.23627ZM5.28613 7.23627V16.2363" stroke="#98A2B3" stroke-width="1.5" stroke-linecap="round" stroke-linejoin="round"/>
</svg>
