<svg width="19" height="19" viewBox="0 0 19 19" fill="none" xmlns="http://www.w3.org/2000/svg">
<g clip-path="url(#clip0_1_10727)">
<path d="M7.03809 14.7362C3.28809 15.8612 3.28809 12.8612 1.78809 12.4862M12.2881 16.9862V14.0837C12.3162 13.7261 12.2679 13.3666 12.1463 13.0291C12.0248 12.6916 11.8328 12.3838 11.5831 12.1262C13.9381 11.8637 16.4131 10.9712 16.4131 6.87622C16.4129 5.82909 16.0101 4.82212 15.2881 4.06372C15.63 3.1476 15.6058 2.13498 15.2206 1.23622C15.2206 1.23622 14.3356 0.97372 12.2881 2.34622C10.5691 1.88034 8.75708 1.88034 7.03809 2.34622C4.99059 0.97372 4.10559 1.23622 4.10559 1.23622C3.72037 2.13498 3.69619 3.1476 4.03809 4.06372C3.31068 4.82775 2.90748 5.84382 2.91309 6.89872C2.91309 10.9637 5.38809 11.8562 7.74309 12.1487C7.49634 12.4037 7.30603 12.7078 7.18457 13.0412C7.0631 13.3745 7.01319 13.7298 7.03809 14.0837V16.9862" stroke="#98A2B3" stroke-width="1.5" stroke-linecap="round" stroke-linejoin="round"/>
</g>
<defs>
<clipPath id="clip0_1_10727">
<rect width="18" height="18" fill="white" transform="translate(0.288086 0.486206)"/>
</clipPath>
</defs>
</svg>
