<svg width="19" height="19" viewBox="0 0 19 19" fill="none" xmlns="http://www.w3.org/2000/svg">
<g clip-path="url(#clip0_1_10783)">
<path d="M17.7777 11.2786L9.79015 17.0836L1.80265 11.2786C1.69557 11.1999 1.61614 11.0893 1.57572 10.9626C1.53531 10.836 1.53598 10.6998 1.57765 10.5736L2.49265 7.73862L4.32265 2.10612C4.3404 2.06022 4.36865 2.01912 4.40515 1.98612C4.46458 1.93183 4.54216 1.90173 4.62265 1.90173C4.70314 1.90173 4.78072 1.93183 4.84015 1.98612C4.87869 2.02336 4.90708 2.06983 4.92265 2.12112L6.75265 7.73862H12.8276L14.6576 2.10612C14.6754 2.06022 14.7037 2.01912 14.7402 1.98612C14.7996 1.93183 14.8772 1.90173 14.9576 1.90173C15.0381 1.90173 15.1157 1.93183 15.1752 1.98612C15.2137 2.02336 15.2421 2.06983 15.2577 2.12112L17.0876 7.75362L18.0402 10.5736C18.078 10.7037 18.073 10.8426 18.0257 10.9696C17.9784 11.0966 17.8914 11.205 17.7777 11.2786V11.2786Z" stroke="#98A2B3" stroke-width="1.5" stroke-linecap="round" stroke-linejoin="round"/>
</g>
<defs>
<clipPath id="clip0_1_10783">
<rect width="18" height="18" fill="white" transform="translate(0.790039 0.486206)"/>
</clipPath>
</defs>
</svg>
