<svg width="19" height="19" viewBox="0 0 19 19" fill="none" xmlns="http://www.w3.org/2000/svg">
<g clip-path="url(#clip0_1_8614)">
<path d="M7.57178 11.8892C8.49693 11.3545 9.64653 11.3545 10.5717 11.8892M1.57178 12.2382L2.09789 6.97699C2.11784 6.77752 2.12781 6.67779 2.14311 6.59222C2.32345 5.58342 3.16268 4.82393 4.18442 4.74487C4.27108 4.73816 4.37131 4.73816 4.57178 4.73816M16.5718 12.2382L16.0457 6.97699C16.0257 6.77753 16.0157 6.67778 16.0004 6.59222C15.8201 5.58342 14.9809 4.82393 13.9591 4.74487C13.8725 4.73816 13.7722 4.73816 13.5718 4.73816M6.6931 10.1168C7.86467 11.2884 7.86467 13.1879 6.6931 14.3595C5.52153 15.5311 3.62203 15.5311 2.45046 14.3595C1.27888 13.1879 1.27888 11.2884 2.45046 10.1168C3.62203 8.94527 5.52152 8.94527 6.6931 10.1168ZM15.6931 10.1168C16.8647 11.2884 16.8647 13.1879 15.6931 14.3595C14.5215 15.5311 12.622 15.5311 11.4505 14.3595C10.2789 13.1879 10.2789 11.2884 11.4505 10.1168C12.622 8.94527 14.5215 8.94527 15.6931 10.1168Z" stroke="#98A2B3" stroke-width="1.5" stroke-linecap="round" stroke-linejoin="round"/>
</g>
<defs>
<clipPath id="clip0_1_8614">
<rect width="18" height="18" fill="white" transform="translate(0.0712891 0.988281)"/>
</clipPath>
</defs>
</svg>
