<svg width="19" height="19" viewBox="0 0 19 19" fill="none" xmlns="http://www.w3.org/2000/svg">
<path d="M8.06934 9.6392C8.99449 9.10448 10.1441 9.10448 11.0692 9.6392M7.19066 7.86684C8.36223 9.03841 8.36223 10.9379 7.19066 12.1095C6.01909 13.2811 4.11959 13.2811 2.94801 12.1095C1.77644 10.9379 1.77644 9.03841 2.94801 7.86684C4.11958 6.69527 6.01908 6.69527 7.19066 7.86684ZM16.1907 7.86684C17.3622 9.03841 17.3622 10.9379 16.1907 12.1095C15.0191 13.2811 13.1196 13.2811 11.948 12.1095C10.7764 10.9379 10.7764 9.03841 11.948 7.86684C13.1196 6.69527 15.0191 6.69527 16.1907 7.86684Z" stroke="#98A2B3" stroke-width="1.5" stroke-linecap="round" stroke-linejoin="round"/>
</svg>
