<svg width="19" height="19" viewBox="0 0 19 19" fill="none" xmlns="http://www.w3.org/2000/svg">
<g clip-path="url(#clip0_1_10429)">
<path d="M9.58106 2.48816C11.457 4.54192 12.5231 7.20718 12.5811 9.98816C12.5231 12.7691 11.457 15.4344 9.58106 17.4882M9.58106 2.48816C7.70509 4.54192 6.63899 7.20718 6.58106 9.98816C6.63899 12.7691 7.70509 15.4344 9.58106 17.4882M9.58106 2.48816C5.43892 2.48816 2.08105 5.84602 2.08105 9.98816C2.08105 14.1303 5.43892 17.4882 9.58106 17.4882M9.58106 2.48816C13.7232 2.48816 17.0811 5.84602 17.0811 9.98816C17.0811 14.1303 13.7232 17.4882 9.58106 17.4882M2.45607 7.73816H16.7061M2.45605 12.2382H16.7061" stroke="#98A2B3" stroke-width="1.5" stroke-linecap="round" stroke-linejoin="round"/>
</g>
<defs>
<clipPath id="clip0_1_10429">
<rect width="18" height="18" fill="white" transform="translate(0.581055 0.988281)"/>
</clipPath>
</defs>
</svg>
