<svg width="19" height="19" viewBox="0 0 19 19" fill="none" xmlns="http://www.w3.org/2000/svg">
<g clip-path="url(#clip0_1_8616)">
<path d="M14.0489 2.76428C17.4172 6.13255 17.4172 11.5936 14.0489 14.9619C10.8233 18.1875 5.6784 18.3241 2.29021 15.3717C2.14245 15.2429 2.06857 15.1785 2.03522 15.0905C2.00716 15.0165 2.00402 14.9249 2.02693 14.8491C2.05417 14.759 2.12798 14.6852 2.2756 14.5376L3.93704 12.8762M13.5751 8.86308C13.5751 11.9697 11.0567 14.4881 7.95014 14.4881C4.84353 14.4881 2.32514 11.9697 2.32514 8.86308C2.32514 5.75648 4.84353 3.23808 7.95014 3.23808C11.0567 3.23808 13.5751 5.75648 13.5751 8.86308Z" stroke="#98A2B3" stroke-width="1.5" stroke-linecap="round" stroke-linejoin="round"/>
</g>
<defs>
<clipPath id="clip0_1_8616">
<rect width="18" height="18" fill="white" transform="translate(0.0756836 0.988281)"/>
</clipPath>
</defs>
</svg>
