<svg width="19" height="19" viewBox="0 0 19 19" fill="none" xmlns="http://www.w3.org/2000/svg">
<g clip-path="url(#clip0_1_10841)">
<path d="M17.0737 9.98816C17.0737 14.1303 13.7159 17.4882 9.57373 17.4882M17.0737 9.98816C17.0737 5.84602 13.7159 2.48816 9.57373 2.48816M17.0737 9.98816H2.07373M9.57373 17.4882C5.43159 17.4882 2.07373 14.1303 2.07373 9.98816M9.57373 17.4882C11.4497 15.4344 12.5158 12.7691 12.5737 9.98816C12.5158 7.20718 11.4497 4.54192 9.57373 2.48816M9.57373 17.4882C7.69777 15.4344 6.63167 12.7691 6.57373 9.98816C6.63167 7.20718 7.69777 4.54192 9.57373 2.48816M2.07373 9.98816C2.07373 5.84602 5.43159 2.48816 9.57373 2.48816" stroke="#98A2B3" stroke-width="1.5" stroke-linecap="round" stroke-linejoin="round"/>
</g>
<defs>
<clipPath id="clip0_1_10841">
<rect width="18" height="18" fill="white" transform="translate(0.573242 0.988281)"/>
</clipPath>
</defs>
</svg>
