<svg width="19" height="19" viewBox="0 0 19 19" fill="none" xmlns="http://www.w3.org/2000/svg">
<g clip-path="url(#clip0_1_10431)">
<path d="M9.08301 2.48816C11.333 3.98816 12.0251 7.20718 12.083 9.98816C12.0251 12.7691 11.333 15.9882 9.08301 17.4882M9.08301 2.48816C6.83301 3.98816 6.14094 7.20719 6.08301 9.98816C6.14094 12.7691 6.83301 15.9882 9.08301 17.4882M9.08301 2.48816C4.94087 2.48816 1.58301 5.84602 1.58301 9.98816M9.08301 2.48816C13.2251 2.48816 16.583 5.84602 16.583 9.98816M9.08301 17.4882C13.2251 17.4882 16.583 14.1303 16.583 9.98816M9.08301 17.4882C4.94087 17.4882 1.58301 14.1303 1.58301 9.98816M16.583 9.98816C15.083 12.2382 11.864 12.9302 9.08301 12.9882C6.30203 12.9302 3.08301 12.2382 1.58301 9.98816M16.583 9.98816C15.083 7.73816 11.864 7.0461 9.08301 6.98816C6.30203 7.04609 3.08301 7.73816 1.58301 9.98816" stroke="#98A2B3" stroke-width="1.5" stroke-linecap="round" stroke-linejoin="round"/>
</g>
<defs>
<clipPath id="clip0_1_10431">
<rect width="18" height="18" fill="white" transform="translate(0.0830078 0.988281)"/>
</clipPath>
</defs>
</svg>
