<svg width="19" height="19" viewBox="0 0 19 19" fill="none" xmlns="http://www.w3.org/2000/svg">
<g clip-path="url(#clip0_1_10427)">
<path d="M2.07715 9.98816H17.0771M2.07715 9.98816C2.07715 14.1303 5.43501 17.4882 9.57715 17.4882M2.07715 9.98816C2.07715 5.84602 5.43501 2.48816 9.57715 2.48816M17.0771 9.98816C17.0771 14.1303 13.7193 17.4882 9.57715 17.4882M17.0771 9.98816C17.0771 5.84602 13.7193 2.48816 9.57715 2.48816M9.57715 2.48816C11.4531 4.54192 12.5192 7.20718 12.5771 9.98816C12.5192 12.7691 11.4531 15.4344 9.57715 17.4882M9.57715 2.48816C7.70119 4.54192 6.63508 7.20718 6.57715 9.98816C6.63508 12.7691 7.70119 15.4344 9.57715 17.4882" stroke="#98A2B3" stroke-width="1.5" stroke-linecap="round" stroke-linejoin="round"/>
</g>
<defs>
<clipPath id="clip0_1_10427">
<rect width="18" height="18" fill="white" transform="translate(0.577148 0.988281)"/>
</clipPath>
</defs>
</svg>
