<svg width="19" height="19" viewBox="0 0 19 19" fill="none" xmlns="http://www.w3.org/2000/svg">
<g clip-path="url(#clip0_1_10435)">
<path d="M11.3369 2.83151C10.6266 2.60842 9.87082 2.48816 9.08691 2.48816C4.94478 2.48816 1.58691 5.84602 1.58691 9.98816C1.58691 14.1303 4.94478 17.4882 9.08691 17.4882C13.2291 17.4882 16.5869 14.1303 16.5869 9.98816C16.5869 8.70166 16.263 7.49082 15.6923 6.43274M12.8369 5.30066H12.8407M7.96195 17.4044L7.96204 15.7519C7.96204 15.6623 7.99406 15.5758 8.05231 15.5078L9.91665 13.3327C10.0699 13.154 10.0224 12.8799 9.81798 12.7631L7.67581 11.539C7.61761 11.5057 7.56939 11.4575 7.53617 11.3992L6.13976 8.95213C6.06708 8.82477 5.92684 8.75146 5.78079 8.76447L1.63505 9.13372M15.8369 5.48816C15.8369 7.14501 14.3369 8.48816 12.8369 9.98816C11.3369 8.48816 9.83691 7.14501 9.83691 5.48816C9.83691 3.8313 11.1801 2.48816 12.8369 2.48816C14.4938 2.48816 15.8369 3.8313 15.8369 5.48816ZM13.0244 5.30066C13.0244 5.40421 12.9405 5.48816 12.8369 5.48816C12.7334 5.48816 12.6494 5.40421 12.6494 5.30066C12.6494 5.19711 12.7334 5.11316 12.8369 5.11316C12.9405 5.11316 13.0244 5.19711 13.0244 5.30066Z" stroke="#98A2B3" stroke-width="1.5" stroke-linecap="round" stroke-linejoin="round"/>
</g>
<defs>
<clipPath id="clip0_1_10435">
<rect width="18" height="18" fill="white" transform="translate(0.0874023 0.988281)"/>
</clipPath>
</defs>
</svg>
