<svg width="19" height="19" viewBox="0 0 19 19" fill="none" xmlns="http://www.w3.org/2000/svg">
<g clip-path="url(#clip0_1_10437)">
<path d="M2.60442 12.722L4.03556 11.8958C4.11308 11.8511 4.20405 11.8355 4.29203 11.852L7.10791 12.379C7.33932 12.4223 7.55294 12.2442 7.55189 12.0087L7.54093 9.5415C7.54063 9.47446 7.55831 9.40858 7.59211 9.35069L9.01316 6.91782C9.08712 6.7912 9.08049 6.63309 8.9962 6.51311L6.60355 3.10742M14.8395 4.63245C10.7145 6.61319 12.9644 9.23819 13.7145 9.61319C15.1223 10.317 17.0801 10.3632 17.0801 10.3632C17.0862 10.2389 17.0894 10.1139 17.0894 9.98816C17.0894 5.84602 13.7315 2.48816 9.58936 2.48816C5.44722 2.48816 2.08936 5.84602 2.08936 9.98816C2.08936 14.1303 5.44722 17.4882 9.58936 17.4882C9.7151 17.4882 9.84013 17.4851 9.96436 17.4789M13.1577 17.443L10.7826 11.1814L17.0442 13.5565L14.2676 14.6664L13.1577 17.443Z" stroke="#98A2B3" stroke-width="1.5" stroke-linecap="round" stroke-linejoin="round"/>
</g>
<defs>
<clipPath id="clip0_1_10437">
<rect width="18" height="18" fill="white" transform="translate(0.589355 0.988281)"/>
</clipPath>
</defs>
</svg>
