<svg width="19" height="19" viewBox="0 0 19 19" fill="none" xmlns="http://www.w3.org/2000/svg">
<g clip-path="url(#clip0_1_10433)">
<path d="M2.89195 6.60027L6.10798 8.8974C6.27532 9.01693 6.359 9.0767 6.44657 9.09047C6.52362 9.10258 6.60254 9.09037 6.67232 9.05553C6.75164 9.01594 6.81333 8.93368 6.93672 8.76916L7.6163 7.86305C7.65119 7.81652 7.66864 7.79326 7.68914 7.77319C7.70735 7.75538 7.72733 7.73946 7.74876 7.72569C7.7729 7.71019 7.79947 7.69838 7.85261 7.67476L10.7541 6.38523C10.8743 6.33177 10.9345 6.30504 10.9798 6.2633C11.0199 6.22638 11.0515 6.18116 11.0723 6.13079C11.0959 6.07384 11.1003 6.00818 11.109 5.87685L11.3215 2.69021M10.71 11.1132L12.672 11.954C12.8996 12.0516 13.0134 12.1004 13.0737 12.1814C13.1266 12.2525 13.1526 12.34 13.1472 12.4284C13.1409 12.5292 13.0722 12.6323 12.9349 12.8383L12.0131 14.221C11.948 14.3187 11.9154 14.3675 11.8724 14.4029C11.8343 14.4342 11.7904 14.4577 11.7432 14.472C11.69 14.4882 11.6313 14.4882 11.5139 14.4882H10.0174C9.86191 14.4882 9.78415 14.4882 9.71799 14.4622C9.65957 14.4392 9.60785 14.4019 9.56758 14.3537C9.52197 14.2992 9.49738 14.2254 9.44821 14.0779L8.91355 12.4739C8.88455 12.3869 8.87005 12.3434 8.86623 12.2992C8.86284 12.26 8.86565 12.2205 8.87454 12.1822C8.88458 12.1389 8.90509 12.0979 8.94611 12.0159L9.35224 11.2036C9.43476 11.0386 9.47602 10.956 9.53957 10.9048C9.59557 10.8597 9.66338 10.8316 9.7349 10.8239C9.81607 10.8152 9.90359 10.8444 10.0786 10.9027L10.71 11.1132ZM17.085 9.98816C17.085 14.1303 13.7271 17.4882 9.58496 17.4882C5.44283 17.4882 2.08496 14.1303 2.08496 9.98816C2.08496 5.84602 5.44283 2.48816 9.58496 2.48816C13.7271 2.48816 17.085 5.84602 17.085 9.98816Z" stroke="#98A2B3" stroke-width="1.5" stroke-linecap="round" stroke-linejoin="round"/>
</g>
<defs>
<clipPath id="clip0_1_10433">
<rect width="18" height="18" fill="white" transform="translate(0.585449 0.988281)"/>
</clipPath>
</defs>
</svg>
