<svg width="19" height="19" viewBox="0 0 19 19" fill="none" xmlns="http://www.w3.org/2000/svg">
<g clip-path="url(#clip0_1_9403)">
<path d="M9.09131 6.98816C7.43445 6.98816 6.09131 8.33131 6.09131 9.98816C6.09131 11.645 7.43445 12.9882 9.09131 12.9882C10.7482 12.9882 12.0913 11.645 12.0913 9.98816C12.0913 8.33131 10.7482 6.98816 9.09131 6.98816ZM9.09131 6.98816H15.9688M3.05381 5.53316L6.49631 11.4882M8.25131 17.4432L11.6863 11.4882M16.5913 9.98816C16.5913 14.1303 13.2334 17.4882 9.09131 17.4882C4.94917 17.4882 1.59131 14.1303 1.59131 9.98816C1.59131 5.84602 4.94917 2.48816 9.09131 2.48816C13.2334 2.48816 16.5913 5.84602 16.5913 9.98816Z" stroke="#98A2B3" stroke-width="1.5" stroke-linecap="round" stroke-linejoin="round"/>
</g>
<defs>
<clipPath id="clip0_1_9403">
<rect width="18" height="18" fill="white" transform="translate(0.0913086 0.988281)"/>
</clipPath>
</defs>
</svg>
