<svg width="19" height="19" viewBox="0 0 19 19" fill="none" xmlns="http://www.w3.org/2000/svg">
<path d="M4.34277 8.48809V12.9964C4.34277 13.2657 4.34277 13.4003 4.38376 13.5191C4.42001 13.6242 4.47917 13.7199 4.55696 13.7994C4.64492 13.8892 4.76533 13.9494 5.00612 14.0698L9.05612 16.0948C9.25288 16.1931 9.35128 16.2423 9.45448 16.2617C9.54588 16.2788 9.63967 16.2788 9.73107 16.2617C9.83427 16.2423 9.93267 16.1931 10.1294 16.0948L14.1794 14.0698C14.4202 13.9494 14.5406 13.8892 14.6286 13.7994C14.7064 13.7199 14.7655 13.6242 14.8018 13.5191C14.8428 13.4003 14.8428 13.2657 14.8428 12.9964V8.48809M2.09277 7.36309L9.32445 3.74725C9.42283 3.69806 9.47203 3.67346 9.52362 3.66378C9.56933 3.65521 9.61622 3.65521 9.66192 3.66378C9.71352 3.67346 9.76272 3.69806 9.8611 3.74725L17.0928 7.36309L9.8611 10.9789C9.76272 11.0281 9.71352 11.0527 9.66192 11.0624C9.61622 11.071 9.56933 11.071 9.52362 11.0624C9.47203 11.0527 9.42283 11.0281 9.32445 10.9789L2.09277 7.36309Z" stroke="#98A2B3" stroke-width="1.5" stroke-linecap="round" stroke-linejoin="round"/>
</svg>
