<svg width="19" height="19" viewBox="0 0 19 19" fill="none" xmlns="http://www.w3.org/2000/svg">
<g clip-path="url(#clip0_1_8622)">
<path d="M12.8447 11.8631V9.60891C12.8447 9.4743 12.8447 9.40699 12.8242 9.34757C12.8061 9.29503 12.7765 9.24717 12.7376 9.20745C12.6937 9.16255 12.6335 9.13245 12.5131 9.07225L9.09473 7.36309M3.09473 8.11309V13.218C3.09473 13.497 3.09473 13.6364 3.13824 13.7586C3.17671 13.8665 3.2394 13.9642 3.32151 14.0442C3.41439 14.1346 3.54118 14.1927 3.79474 14.3089L8.59474 16.5089C8.77867 16.5932 8.87063 16.6354 8.96643 16.652C9.05133 16.6667 9.13813 16.6667 9.22302 16.652C9.31882 16.6354 9.41079 16.5932 9.59471 16.5089L14.3947 14.3089C14.6483 14.1927 14.7751 14.1346 14.8679 14.0442C14.9501 13.9642 15.0127 13.8665 15.0512 13.7586C15.0947 13.6364 15.0947 13.497 15.0947 13.218V8.11309M1.59473 7.36309L8.8264 3.74725C8.92479 3.69806 8.97398 3.67346 9.02558 3.66378C9.07128 3.65521 9.11818 3.65521 9.16388 3.66378C9.21548 3.67346 9.26467 3.69806 9.36306 3.74725L16.5947 7.36309L9.36306 10.9789C9.26467 11.0281 9.21548 11.0527 9.16388 11.0624C9.11818 11.071 9.07128 11.071 9.02558 11.0624C8.97398 11.0527 8.92479 11.0281 8.8264 10.9789L1.59473 7.36309Z" stroke="#98A2B3" stroke-width="1.5" stroke-linecap="round" stroke-linejoin="round"/>
</g>
<defs>
<clipPath id="clip0_1_8622">
<rect width="18" height="18" fill="white" transform="translate(0.0952148 0.988281)"/>
</clipPath>
</defs>
</svg>
