<svg width="19" height="19" viewBox="0 0 19 19" fill="none" xmlns="http://www.w3.org/2000/svg">
<path d="M6.10303 3.23816H4.75303C3.91295 3.23816 3.49291 3.23816 3.17204 3.40165C2.8898 3.54546 2.66033 3.77493 2.51652 4.05717C2.35303 4.37804 2.35303 4.79808 2.35303 5.63816V6.98816M6.10303 16.7382H4.75303C3.91295 16.7382 3.49291 16.7382 3.17204 16.5747C2.8898 16.4309 2.66033 16.2014 2.51652 15.9191C2.35303 15.5983 2.35303 15.1782 2.35303 14.3382V12.9882M15.853 6.98816V5.63816C15.853 4.79808 15.853 4.37804 15.6895 4.05717C15.5457 3.77493 15.3163 3.54546 15.034 3.40165C14.7131 3.23816 14.2931 3.23816 13.453 3.23816H12.103M15.853 12.9882V14.3382C15.853 15.1782 15.853 15.5983 15.6895 15.9191C15.5457 16.2014 15.3163 16.4309 15.034 16.5747C14.7131 16.7382 14.2931 16.7382 13.453 16.7382H12.103M12.103 9.98816C12.103 11.645 10.7599 12.9882 9.10303 12.9882C7.44617 12.9882 6.10303 11.645 6.10303 9.98816C6.10303 8.33131 7.44617 6.98816 9.10303 6.98816C10.7599 6.98816 12.103 8.33131 12.103 9.98816Z" stroke="#98A2B3" stroke-width="1.5" stroke-linecap="round" stroke-linejoin="round"/>
</svg>
