<svg width="19" height="19" viewBox="0 0 19 19" fill="none" xmlns="http://www.w3.org/2000/svg">
<path d="M2.85449 3.23816H2.86199M2.85449 9.98816H2.86199M2.85449 16.7382H2.86199M2.85449 13.3632H2.86199M2.85449 6.61316H2.86199M6.22949 3.23816H6.23699M6.22949 9.98816H6.23699M6.22949 16.7382H6.23699M12.9795 3.23816H12.987M12.9795 9.98816H12.987M12.9795 16.7382H12.987M9.60449 3.23816H9.61199M9.60449 9.98816H9.61199M9.60449 16.7382H9.61199M9.60449 13.3632H9.61199M9.60449 6.61316H9.61199M16.3545 3.23816H16.362M16.3545 9.98816H16.362M16.3545 16.7382H16.362M16.3545 13.3632H16.362M16.3545 6.61316H16.362" stroke="#98A2B3" stroke-width="1.5" stroke-linecap="round" stroke-linejoin="round"/>
</svg>
