<svg width="19" height="19" viewBox="0 0 19 19" fill="none" xmlns="http://www.w3.org/2000/svg">
<path d="M6.23779 9.98816H6.24529M12.9878 9.98816H12.9953M9.61279 9.98816H9.62029M9.61279 13.3632H9.62029M9.61279 6.61316H9.62029M2.86279 6.83816L2.86279 13.1382C2.86279 14.3983 2.86279 15.0283 3.10803 15.5096C3.32374 15.933 3.66795 16.2772 4.09131 16.4929C4.57262 16.7382 5.20267 16.7382 6.46279 16.7382H12.7628C14.0229 16.7382 14.653 16.7382 15.1343 16.4929C15.5576 16.2772 15.9018 15.933 16.1176 15.5096C16.3628 15.0283 16.3628 14.3983 16.3628 13.1382V6.83816C16.3628 5.57804 16.3628 4.94798 16.1176 4.46668C15.9018 4.04332 15.5576 3.69911 15.1343 3.4834C14.653 3.23816 14.0229 3.23816 12.7628 3.23816L6.46279 3.23816C5.20268 3.23816 4.57262 3.23816 4.09131 3.48339C3.66795 3.69911 3.32374 4.04332 3.10803 4.46668C2.86279 4.94798 2.86279 5.57804 2.86279 6.83816Z" stroke="#98A2B3" stroke-width="1.5" stroke-linecap="round" stroke-linejoin="round"/>
</svg>
