<svg width="19" height="19" viewBox="0 0 19 19" fill="none" xmlns="http://www.w3.org/2000/svg">
<path d="M6.39912 3.23816H3.54912C3.12908 3.23816 2.91906 3.23816 2.75863 3.3199C2.61751 3.39181 2.50277 3.50654 2.43087 3.64767C2.34912 3.8081 2.34912 4.01812 2.34912 4.43816V7.28816C2.34912 7.7082 2.34912 7.91822 2.43087 8.07865C2.50277 8.21977 2.61751 8.33451 2.75863 8.40641C2.91906 8.48816 3.12908 8.48816 3.54912 8.48816H6.39912C6.81916 8.48816 7.02918 8.48816 7.18961 8.40641C7.33074 8.33451 7.44547 8.21977 7.51738 8.07865C7.59912 7.91822 7.59912 7.7082 7.59912 7.28816V4.43816C7.59912 4.01812 7.59912 3.8081 7.51738 3.64767C7.44547 3.50654 7.33074 3.39181 7.18961 3.3199C7.02918 3.23816 6.81916 3.23816 6.39912 3.23816Z" stroke="#98A2B3" stroke-width="1.5" stroke-linecap="round" stroke-linejoin="round"/>
<path d="M14.6491 3.23816H11.7991C11.3791 3.23816 11.1691 3.23816 11.0086 3.3199C10.8675 3.39181 10.7528 3.50654 10.6809 3.64767C10.5991 3.8081 10.5991 4.01812 10.5991 4.43816V7.28816C10.5991 7.7082 10.5991 7.91822 10.6809 8.07865C10.7528 8.21977 10.8675 8.33451 11.0086 8.40641C11.1691 8.48816 11.3791 8.48816 11.7991 8.48816H14.6491C15.0692 8.48816 15.2792 8.48816 15.4396 8.40641C15.5807 8.33451 15.6955 8.21977 15.7674 8.07865C15.8491 7.91822 15.8491 7.7082 15.8491 7.28816V4.43816C15.8491 4.01812 15.8491 3.8081 15.7674 3.64767C15.6955 3.50654 15.5807 3.39181 15.4396 3.3199C15.2792 3.23816 15.0692 3.23816 14.6491 3.23816Z" stroke="#98A2B3" stroke-width="1.5" stroke-linecap="round" stroke-linejoin="round"/>
<path d="M14.6491 11.4882H11.7991C11.3791 11.4882 11.1691 11.4882 11.0086 11.5699C10.8675 11.6418 10.7528 11.7565 10.6809 11.8977C10.5991 12.0581 10.5991 12.2681 10.5991 12.6882V15.5382C10.5991 15.9582 10.5991 16.1682 10.6809 16.3287C10.7528 16.4698 10.8675 16.5845 11.0086 16.6564C11.1691 16.7382 11.3791 16.7382 11.7991 16.7382H14.6491C15.0692 16.7382 15.2792 16.7382 15.4396 16.6564C15.5807 16.5845 15.6955 16.4698 15.7674 16.3287C15.8491 16.1682 15.8491 15.9582 15.8491 15.5382V12.6882C15.8491 12.2681 15.8491 12.0581 15.7674 11.8977C15.6955 11.7565 15.5807 11.6418 15.4396 11.5699C15.2792 11.4882 15.0692 11.4882 14.6491 11.4882Z" stroke="#98A2B3" stroke-width="1.5" stroke-linecap="round" stroke-linejoin="round"/>
<path d="M6.39912 11.4882H3.54912C3.12908 11.4882 2.91906 11.4882 2.75863 11.5699C2.61751 11.6418 2.50277 11.7565 2.43087 11.8977C2.34912 12.0581 2.34912 12.2681 2.34912 12.6882V15.5382C2.34912 15.9582 2.34912 16.1682 2.43087 16.3287C2.50277 16.4698 2.61751 16.5845 2.75863 16.6564C2.91906 16.7382 3.12908 16.7382 3.54912 16.7382H6.39912C6.81916 16.7382 7.02918 16.7382 7.18961 16.6564C7.33074 16.5845 7.44547 16.4698 7.51738 16.3287C7.59912 16.1682 7.59912 15.9582 7.59912 15.5382V12.6882C7.59912 12.2681 7.59912 12.0581 7.51738 11.8977C7.44547 11.7565 7.33074 11.6418 7.18961 11.5699C7.02918 11.4882 6.81916 11.4882 6.39912 11.4882Z" stroke="#98A2B3" stroke-width="1.5" stroke-linecap="round" stroke-linejoin="round"/>
</svg>
