<svg width="19" height="19" viewBox="0 0 19 19" fill="none" xmlns="http://www.w3.org/2000/svg">
<path d="M6.60156 3.23816H5.25156C4.41148 3.23816 3.99144 3.23816 3.67058 3.40165C3.38833 3.54546 3.15886 3.77493 3.01505 4.05717C2.85156 4.37804 2.85156 4.79808 2.85156 5.63816V6.98816M6.60156 16.7382H5.25156C4.41148 16.7382 3.99144 16.7382 3.67058 16.5747C3.38833 16.4309 3.15886 16.2014 3.01505 15.9191C2.85156 15.5983 2.85156 15.1782 2.85156 14.3382V12.9882M16.3516 6.98816V5.63816C16.3516 4.79808 16.3516 4.37804 16.1881 4.05717C16.0443 3.77493 15.8148 3.54546 15.5326 3.40165C15.2117 3.23816 14.7916 3.23816 13.9516 3.23816H12.6016M16.3516 12.9882V14.3382C16.3516 15.1782 16.3516 15.5983 16.1881 15.9191C16.0443 16.2014 15.8148 16.4309 15.5326 16.5747C15.2117 16.7382 14.7916 16.7382 13.9516 16.7382H12.6016M9.60156 13.7382L9.60156 6.23816M5.85156 9.98816H13.3516" stroke="#98A2B3" stroke-width="1.5" stroke-linecap="round" stroke-linejoin="round"/>
</svg>
