<svg width="19" height="19" viewBox="0 0 19 19" fill="none" xmlns="http://www.w3.org/2000/svg">
<g clip-path="url(#clip0_1_10115)">
<path d="M5.79561 9.57149V11.6548M5.79561 9.57149V4.57149C5.79561 3.88114 6.36644 3.32149 7.07061 3.32149C7.77477 3.32149 8.34561 3.88114 8.34561 4.57149M5.79561 9.57149C5.79561 8.88114 5.22477 8.32149 4.52061 8.32149C3.81644 8.32149 3.24561 8.88114 3.24561 9.57149V11.2382C3.24561 14.6899 6.09979 17.4882 9.62061 17.4882C13.1414 17.4882 15.9956 14.6899 15.9956 11.2382V7.07149C15.9956 6.38114 15.4248 5.82149 14.7206 5.82149C14.0164 5.82149 13.4456 6.38114 13.4456 7.07149M8.34561 4.57149V9.15483M8.34561 4.57149V3.73816C8.34561 3.0478 8.91644 2.48816 9.62061 2.48816C10.3248 2.48816 10.8956 3.0478 10.8956 3.73816V4.57149M10.8956 4.57149V9.15483M10.8956 4.57149C10.8956 3.88114 11.4664 3.32149 12.1706 3.32149C12.8748 3.32149 13.4456 3.88114 13.4456 4.57149V7.07149M13.4456 7.07149V9.15483" stroke="#98A2B3" stroke-width="1.5" stroke-linecap="round" stroke-linejoin="round"/>
</g>
<defs>
<clipPath id="clip0_1_10115">
<rect width="18" height="18" fill="white" transform="translate(0.621094 0.988281)"/>
</clipPath>
</defs>
</svg>
