<svg width="19" height="19" viewBox="0 0 19 19" fill="none" xmlns="http://www.w3.org/2000/svg">
<path d="M2.5 9.98816H16.75M5.125 12.9882H8.125M7.34992 3.98816H11.9001C12.7077 3.98816 13.1116 3.98816 13.4681 4.11113C13.7834 4.21988 14.0705 4.39736 14.3088 4.63072C14.5782 4.89461 14.7588 5.25581 15.12 5.97819L16.7449 9.22804C16.8867 9.51152 16.9576 9.65327 17.0075 9.80182C17.0519 9.93375 17.084 10.0695 17.1033 10.2074C17.125 10.3626 17.125 10.5211 17.125 10.838V12.3882C17.125 13.6483 17.125 14.2783 16.8798 14.7596C16.6641 15.183 16.3198 15.5272 15.8965 15.7429C15.4152 15.9882 14.7851 15.9882 13.525 15.9882H5.725C4.46488 15.9882 3.83482 15.9882 3.35352 15.7429C2.93016 15.5272 2.58595 15.183 2.37024 14.7596C2.125 14.2783 2.125 13.6483 2.125 12.3882V10.838C2.125 10.5211 2.125 10.3626 2.14673 10.2074C2.16603 10.0695 2.19808 9.93375 2.24247 9.80182C2.29245 9.65327 2.36332 9.51152 2.50506 9.22804L4.12999 5.97819C4.49118 5.2558 4.67178 4.89461 4.94121 4.63072C5.17947 4.39736 5.46664 4.21988 5.78192 4.11113C6.13844 3.98816 6.54227 3.98816 7.34992 3.98816Z" stroke="#98A2B3" stroke-width="1.5" stroke-linecap="round" stroke-linejoin="round"/>
</svg>
