<svg width="19" height="19" viewBox="0 0 19 19" fill="none" xmlns="http://www.w3.org/2000/svg">
<g clip-path="url(#clip0_1_10955)">
<path d="M16.623 9.98816H1.62305M16.623 9.98816V14.4882C16.623 14.886 16.465 15.2675 16.1837 15.5488C15.9024 15.8301 15.5209 15.9882 15.123 15.9882H3.12305C2.72522 15.9882 2.34369 15.8301 2.06239 15.5488C1.78108 15.2675 1.62305 14.886 1.62305 14.4882V9.98816M16.623 9.98816L14.0355 4.82066C13.9114 4.57075 13.7199 4.36044 13.4828 4.21337C13.2456 4.0663 12.9721 3.98831 12.693 3.98816H5.55305C5.27398 3.98831 5.0005 4.0663 4.76333 4.21337C4.52617 4.36044 4.33473 4.57075 4.21055 4.82066L1.62305 9.98816M4.62305 12.9882H4.63055M7.62305 12.9882H7.63055" stroke="#98A2B3" stroke-width="1.5" stroke-linecap="round" stroke-linejoin="round"/>
</g>
<defs>
<clipPath id="clip0_1_10955">
<rect width="18" height="18" fill="white" transform="translate(0.122559 0.988281)"/>
</clipPath>
</defs>
</svg>
