<svg width="19" height="19" viewBox="0 0 19 19" fill="none" xmlns="http://www.w3.org/2000/svg">
<path d="M2.38867 14.4882V9.98816C2.38867 8.19795 3.09983 6.48106 4.3657 5.21519C5.63157 3.94932 7.34846 3.23816 9.13867 3.23816C10.9289 3.23816 12.6458 3.94932 13.9116 5.21519C15.1775 6.48106 15.8887 8.19795 15.8887 9.98816V14.4882M15.8887 15.2382C15.8887 15.636 15.7306 16.0175 15.4493 16.2988C15.168 16.5801 14.7865 16.7382 14.3887 16.7382H13.6387C13.2408 16.7382 12.8593 16.5801 12.578 16.2988C12.2967 16.0175 12.1387 15.636 12.1387 15.2382V12.9882C12.1387 12.5903 12.2967 12.2088 12.578 11.9275C12.8593 11.6462 13.2408 11.4882 13.6387 11.4882H15.8887V15.2382ZM2.38867 15.2382C2.38867 15.636 2.54671 16.0175 2.82801 16.2988C3.10932 16.5801 3.49085 16.7382 3.88867 16.7382H4.63867C5.0365 16.7382 5.41803 16.5801 5.69933 16.2988C5.98064 16.0175 6.13867 15.636 6.13867 15.2382V12.9882C6.13867 12.5903 5.98064 12.2088 5.69933 11.9275C5.41803 11.6462 5.0365 11.4882 4.63867 11.4882H2.38867V15.2382Z" stroke="#98A2B3" stroke-width="1.5" stroke-linecap="round" stroke-linejoin="round"/>
</svg>
