<svg width="19" height="19" viewBox="0 0 19 19" fill="none" xmlns="http://www.w3.org/2000/svg">
<path d="M6.63623 6.23816V13.7382M12.6362 6.23816V13.7382M12.6362 9.98816L6.63623 9.98816M6.48623 16.7382H12.7862C14.0464 16.7382 14.6764 16.7382 15.1577 16.4929C15.5811 16.2772 15.9253 15.933 16.141 15.5096C16.3862 15.0283 16.3862 14.3983 16.3862 13.1382V6.83816C16.3862 5.57804 16.3862 4.94798 16.141 4.46668C15.9253 4.04332 15.5811 3.69911 15.1577 3.48339C14.6764 3.23816 14.0464 3.23816 12.7862 3.23816H6.48623C5.22611 3.23816 4.59605 3.23816 4.11475 3.48339C3.69139 3.69911 3.34718 4.04332 3.13147 4.46668C2.88623 4.94798 2.88623 5.57804 2.88623 6.83816V13.1382C2.88623 14.3983 2.88623 15.0283 3.13147 15.5096C3.34718 15.933 3.69139 16.2772 4.11475 16.4929C4.59605 16.7382 5.22611 16.7382 6.48623 16.7382Z" stroke="#98A2B3" stroke-width="1.5" stroke-linecap="round" stroke-linejoin="round"/>
</svg>
