<svg width="19" height="19" viewBox="0 0 19 19" fill="none" xmlns="http://www.w3.org/2000/svg">
<g clip-path="url(#clip0_1_9699)">
<path d="M16.6421 13.7382V10.7382C16.6421 6.59602 13.2842 3.23816 9.14209 3.23816C4.99996 3.23816 1.64209 6.59602 1.64209 10.7382V13.7382M5.76709 16.7382C4.73156 16.7382 3.89209 15.8987 3.89209 14.8632V12.6132C3.89209 11.5776 4.73156 10.7382 5.76709 10.7382C6.80262 10.7382 7.64209 11.5776 7.64209 12.6132V14.8632C7.64209 15.8987 6.80262 16.7382 5.76709 16.7382ZM12.5171 16.7382C11.4816 16.7382 10.6421 15.8987 10.6421 14.8632V12.6132C10.6421 11.5776 11.4816 10.7382 12.5171 10.7382C13.5526 10.7382 14.3921 11.5776 14.3921 12.6132V14.8632C14.3921 15.8987 13.5526 16.7382 12.5171 16.7382Z" stroke="#98A2B3" stroke-width="1.5" stroke-linecap="round" stroke-linejoin="round"/>
</g>
<defs>
<clipPath id="clip0_1_9699">
<rect width="18" height="18" fill="white" transform="translate(0.141602 0.988281)"/>
</clipPath>
</defs>
</svg>
