<svg width="19" height="19" viewBox="0 0 19 19" fill="none" xmlns="http://www.w3.org/2000/svg">
<path d="M16.3901 14.4882V9.98816C16.3901 6.26024 13.3681 3.23816 9.64014 3.23816C5.91222 3.23816 2.89014 6.26024 2.89014 9.98816V14.4882M4.76514 16.7382C3.7296 16.7382 2.89014 15.8987 2.89014 14.8632V13.3632C2.89014 12.3276 3.7296 11.4882 4.76514 11.4882C5.80067 11.4882 6.64014 12.3276 6.64014 13.3632V14.8632C6.64014 15.8987 5.80067 16.7382 4.76514 16.7382ZM14.5151 16.7382C13.4796 16.7382 12.6401 15.8987 12.6401 14.8632V13.3632C12.6401 12.3276 13.4796 11.4882 14.5151 11.4882C15.5507 11.4882 16.3901 12.3276 16.3901 13.3632V14.8632C16.3901 15.8987 15.5507 16.7382 14.5151 16.7382Z" stroke="#98A2B3" stroke-width="1.5" stroke-linecap="round" stroke-linejoin="round"/>
</svg>
