<svg width="19" height="19" viewBox="0 0 19 19" fill="none" xmlns="http://www.w3.org/2000/svg">
<g clip-path="url(#clip0_1_9417)">
<path d="M5.69783 2.83963C5.82754 2.70992 5.8924 2.64506 5.96808 2.59868C6.03519 2.55756 6.10835 2.52725 6.18487 2.50888C6.27119 2.48816 6.36291 2.48816 6.54635 2.48816H11.7622C11.9457 2.48816 12.0374 2.48816 12.1237 2.50888C12.2002 2.52725 12.2734 2.55756 12.3405 2.59868C12.4162 2.64506 12.4811 2.70992 12.6108 2.83963L16.3028 6.53169C16.4325 6.6614 16.4974 6.72626 16.5438 6.80195C16.5849 6.86905 16.6152 6.94221 16.6336 7.01874C16.6543 7.10505 16.6543 7.19677 16.6543 7.38022V12.5961C16.6543 12.7795 16.6543 12.8713 16.6336 12.9576C16.6152 13.0341 16.5849 13.1073 16.5438 13.1744C16.4974 13.2501 16.4325 13.3149 16.3028 13.4446L12.6108 17.1367C12.4811 17.2664 12.4162 17.3313 12.3405 17.3776C12.2734 17.4188 12.2002 17.4491 12.1237 17.4674C12.0374 17.4882 11.9457 17.4882 11.7622 17.4882H6.54635C6.36291 17.4882 6.27119 17.4882 6.18487 17.4674C6.10835 17.4491 6.03519 17.4188 5.96808 17.3776C5.8924 17.3313 5.82754 17.2664 5.69783 17.1367L2.00577 13.4446C1.87606 13.3149 1.8112 13.2501 1.76482 13.1744C1.7237 13.1073 1.69339 13.0341 1.67502 12.9576C1.6543 12.8713 1.6543 12.7795 1.6543 12.5961V7.38022C1.6543 7.19677 1.6543 7.10505 1.67502 7.01874C1.69339 6.94221 1.7237 6.86905 1.76482 6.80195C1.8112 6.72626 1.87605 6.6614 2.00577 6.53169L5.69783 2.83963Z" stroke="#98A2B3" stroke-width="1.5" stroke-linecap="round" stroke-linejoin="round"/>
<path fill-rule="evenodd" clip-rule="evenodd" d="M9.15173 7.78909C8.40197 6.91256 7.1517 6.67678 6.21231 7.47941C5.27291 8.28205 5.14066 9.62403 5.87837 10.5733C6.35088 11.1813 7.56099 12.3088 8.36997 13.0409C8.63881 13.2842 8.77323 13.4059 8.93424 13.4546C9.07264 13.4966 9.23081 13.4966 9.36922 13.4546C9.53023 13.4059 9.66465 13.2842 9.93348 13.0409C10.7425 12.3088 11.9526 11.1813 12.4251 10.5733C13.1628 9.62403 13.0467 8.27361 12.0911 7.47941C11.1356 6.68522 9.90149 6.91256 9.15173 7.78909Z" stroke="#98A2B3" stroke-width="1.5" stroke-linecap="round" stroke-linejoin="round"/>
</g>
<defs>
<clipPath id="clip0_1_9417">
<rect width="18" height="18" fill="white" transform="translate(0.154297 0.988281)"/>
</clipPath>
</defs>
</svg>
