<svg width="19" height="19" viewBox="0 0 19 19" fill="none" xmlns="http://www.w3.org/2000/svg">
<g clip-path="url(#clip0_1_9411)">
<path d="M9.64844 17.4882C13.7906 17.4882 17.1484 14.1303 17.1484 9.98816C17.1484 5.84602 13.7906 2.48816 9.64844 2.48816C5.5063 2.48816 2.14844 5.84602 2.14844 9.98816C2.14844 14.1303 5.5063 17.4882 9.64844 17.4882Z" stroke="#98A2B3" stroke-width="1.5" stroke-linecap="round" stroke-linejoin="round"/>
<path fill-rule="evenodd" clip-rule="evenodd" d="M9.64587 7.78909C8.89611 6.91256 7.64584 6.67678 6.70645 7.47941C5.76705 8.28205 5.6348 9.62403 6.37251 10.5733C6.84502 11.1813 8.05513 12.3088 8.86411 13.0409C9.13295 13.2842 9.26737 13.4059 9.42838 13.4546C9.56679 13.4966 9.72495 13.4966 9.86336 13.4546C10.0244 13.4059 10.1588 13.2842 10.4276 13.0409C11.2366 12.3088 12.4467 11.1813 12.9192 10.5733C13.6569 9.62403 13.5408 8.27361 12.5853 7.47941C11.6297 6.68522 10.3956 6.91256 9.64587 7.78909Z" stroke="#98A2B3" stroke-width="1.5" stroke-linecap="round" stroke-linejoin="round"/>
</g>
<defs>
<clipPath id="clip0_1_9411">
<rect width="18" height="18" fill="white" transform="translate(0.648438 0.988281)"/>
</clipPath>
</defs>
</svg>
