<svg width="19" height="19" viewBox="0 0 19 19" fill="none" xmlns="http://www.w3.org/2000/svg">
<path d="M2.4082 6.83816C2.4082 5.57804 2.4082 4.94798 2.65344 4.46668C2.86915 4.04332 3.21336 3.69911 3.63672 3.48339C4.11803 3.23816 4.74809 3.23816 6.0082 3.23816H12.3082C13.5683 3.23816 14.1984 3.23816 14.6797 3.48339C15.103 3.69911 15.4473 4.04332 15.663 4.46668C15.9082 4.94798 15.9082 5.57804 15.9082 6.83816V13.1382C15.9082 14.3983 15.9082 15.0283 15.663 15.5096C15.4473 15.933 15.103 16.2772 14.6797 16.4929C14.1984 16.7382 13.5683 16.7382 12.3082 16.7382H6.0082C4.74809 16.7382 4.11803 16.7382 3.63672 16.4929C3.21336 16.2772 2.86915 15.933 2.65344 15.5096C2.4082 15.0283 2.4082 14.3983 2.4082 13.1382V6.83816Z" stroke="#98A2B3" stroke-width="1.5" stroke-linecap="round" stroke-linejoin="round"/>
<path fill-rule="evenodd" clip-rule="evenodd" d="M9.15564 7.78909C8.40588 6.91256 7.15561 6.67678 6.21621 7.47941C5.27682 8.28205 5.14457 9.62403 5.88228 10.5733C6.35479 11.1813 7.56489 12.3088 8.37388 13.0409C8.64272 13.2842 8.77714 13.4059 8.93814 13.4546C9.07655 13.4966 9.23472 13.4966 9.37313 13.4546C9.53414 13.4059 9.66855 13.2842 9.93739 13.0409C10.7464 12.3088 11.9565 11.1813 12.429 10.5733C13.1667 9.62403 13.0506 8.27361 12.0951 7.47941C11.1395 6.68522 9.90539 6.91256 9.15564 7.78909Z" stroke="#98A2B3" stroke-width="1.5" stroke-linecap="round" stroke-linejoin="round"/>
</svg>
