<svg width="19" height="19" viewBox="0 0 19 19" fill="none" xmlns="http://www.w3.org/2000/svg">
<g clip-path="url(#clip0_1_11123)">
<path d="M15.7771 4.44569C15.394 4.06244 14.9392 3.75842 14.4386 3.551C13.938 3.34358 13.4014 3.23682 12.8596 3.23682C12.3177 3.23682 11.7811 3.34358 11.2805 3.551C10.78 3.75842 10.3251 4.06244 9.94206 4.44569L9.14706 5.24069L8.35206 4.44569C7.57829 3.67192 6.52884 3.23722 5.43456 3.23722C4.34029 3.23722 3.29083 3.67192 2.51706 4.44569C1.74329 5.21945 1.30859 6.26891 1.30859 7.36319C1.30859 8.45746 1.74329 9.50692 2.51706 10.2807L3.31206 11.0757L9.14706 16.9107L14.9821 11.0757L15.7771 10.2807C16.1603 9.89762 16.4643 9.4428 16.6718 8.9422C16.8792 8.44161 16.9859 7.90505 16.9859 7.36319C16.9859 6.82132 16.8792 6.28476 16.6718 5.78417C16.4643 5.28358 16.1603 4.82875 15.7771 4.44569V4.44569Z" stroke="#98A2B3" stroke-width="1.5" stroke-linecap="round" stroke-linejoin="round"/>
</g>
<defs>
<clipPath id="clip0_1_11123">
<rect width="18" height="18" fill="white" transform="translate(0.146484 0.988281)"/>
</clipPath>
</defs>
</svg>
