<svg width="19" height="19" viewBox="0 0 19 19" fill="none" xmlns="http://www.w3.org/2000/svg">
<g clip-path="url(#clip0_1_9423)">
<path d="M12.3193 8.43223C12.5998 7.93393 12.8336 7.48429 12.9778 7.14207C13.6782 5.48026 12.9857 3.56874 11.2929 2.789C9.60006 2.00927 7.90021 2.81778 7.15419 4.37885C5.72758 3.39994 3.82454 3.5437 2.77507 5.07134C1.7256 6.59897 2.05497 8.59468 3.49237 9.68369C4.14473 10.1779 5.43493 10.9063 6.64962 11.5545M12.883 9.80062C12.5665 8.09966 11.1192 6.85566 9.29689 7.19377C7.4746 7.53189 6.29631 9.17597 6.54267 10.9624C6.74059 12.3977 7.8331 15.7652 8.25496 17.0337C8.31253 17.2067 8.34131 17.2933 8.3983 17.3536C8.44795 17.4062 8.51396 17.4443 8.58431 17.461C8.66507 17.4802 8.75442 17.4619 8.93311 17.4252C10.2425 17.1563 13.7051 16.4187 15.0471 15.8724C16.7174 15.1926 17.5794 13.3513 16.9337 11.6029C16.2881 9.85456 14.5144 9.22429 12.883 9.80062Z" stroke="#98A2B3" stroke-width="1.5" stroke-linecap="round" stroke-linejoin="round"/>
</g>
<defs>
<clipPath id="clip0_1_9423">
<rect width="18" height="18" fill="white" transform="translate(0.660156 0.988281)"/>
</clipPath>
</defs>
</svg>
