<svg width="19" height="19" viewBox="0 0 19 19" fill="none" xmlns="http://www.w3.org/2000/svg">
<g clip-path="url(#clip0_1_9413)">
<path d="M4.65039 16.0536H6.60811C6.86336 16.0536 7.11705 16.0839 7.3645 16.1447L9.43306 16.6474C9.8819 16.7567 10.3495 16.7673 10.803 16.6793L13.0901 16.2343C13.6943 16.1166 14.2501 15.8273 14.6856 15.4036L16.3038 13.8295C16.7659 13.3807 16.7659 12.6525 16.3038 12.203C15.8878 11.7983 15.2289 11.7527 14.7582 12.0959L12.8723 13.4718C12.6023 13.6693 12.2736 13.7756 11.9356 13.7756H10.1145L11.2737 13.7755C11.927 13.7755 12.4563 13.2607 12.4563 12.6251V12.3951C12.4563 11.8673 12.0871 11.4072 11.5609 11.2796L9.77184 10.8445C9.48068 10.7739 9.18249 10.7382 8.88275 10.7382C8.15914 10.7382 6.84931 11.3373 6.84931 11.3373L4.65039 12.2569M1.65039 11.9382L1.65039 16.2882C1.65039 16.7082 1.65039 16.9183 1.73214 17.0787C1.80404 17.2198 1.91878 17.3346 2.0599 17.4065C2.22033 17.4882 2.43035 17.4882 2.85039 17.4882H3.45039C3.87043 17.4882 4.08045 17.4882 4.24088 17.4065C4.38201 17.3346 4.49674 17.2198 4.56865 17.0787C4.65039 16.9183 4.65039 16.7082 4.65039 16.2882V11.9382C4.65039 11.5182 4.65039 11.3081 4.56865 11.1477C4.49674 11.0066 4.38201 10.8919 4.24088 10.82C4.08045 10.7382 3.87043 10.7382 3.45039 10.7382H2.85039C2.43035 10.7382 2.22033 10.7382 2.0599 10.8199C1.91878 10.8919 1.80404 11.0066 1.73214 11.1477C1.65039 11.3081 1.65039 11.5182 1.65039 11.9382ZM13.0439 3.68239C12.5963 2.74575 11.5643 2.24954 10.5607 2.72848C9.55711 3.20742 9.12954 4.34324 9.54973 5.34032C9.80942 5.95655 10.5535 7.1532 11.084 7.97748C11.28 8.28204 11.378 8.43432 11.5211 8.5234C11.6439 8.59981 11.7976 8.641 11.9422 8.63622C12.1107 8.63065 12.2717 8.54777 12.5938 8.38203C13.4653 7.93344 14.708 7.26912 15.241 6.8653C16.1034 6.21189 16.3171 5.01089 15.6714 4.09788C15.0257 3.18488 13.8999 3.09504 13.0439 3.68239Z" stroke="#98A2B3" stroke-width="1.5" stroke-linecap="round" stroke-linejoin="round"/>
</g>
<defs>
<clipPath id="clip0_1_9413">
<rect width="18" height="18" fill="white" transform="translate(0.150391 0.988281)"/>
</clipPath>
</defs>
</svg>
