<svg width="19" height="19" viewBox="0 0 19 19" fill="none" xmlns="http://www.w3.org/2000/svg">
<g clip-path="url(#clip0_1_9415)">
<path d="M9.06957 2.81198C9.28228 2.69382 9.38863 2.63473 9.50126 2.61157C9.60094 2.59107 9.70375 2.59107 9.80343 2.61157C9.91606 2.63473 10.0224 2.69382 10.2351 2.81198L15.7851 5.89532C16.0098 6.02012 16.1221 6.08252 16.2039 6.17127C16.2762 6.24979 16.331 6.34285 16.3645 6.44423C16.4023 6.55883 16.4023 6.68732 16.4023 6.94431V13.0321C16.4023 13.2891 16.4023 13.4176 16.3645 13.5322C16.331 13.6336 16.2762 13.7267 16.2039 13.8052C16.1221 13.8939 16.0098 13.9563 15.7851 14.0811L10.2351 17.1645C10.0224 17.2826 9.91606 17.3417 9.80343 17.3649C9.70375 17.3854 9.60094 17.3854 9.50126 17.3649C9.38863 17.3417 9.28228 17.2826 9.06957 17.1645L3.51957 14.0811C3.29493 13.9563 3.18261 13.8939 3.10082 13.8052C3.02846 13.7267 2.9737 13.6336 2.94021 13.5322C2.90234 13.4176 2.90234 13.2891 2.90234 13.0321V6.94431C2.90234 6.68732 2.90234 6.55883 2.94021 6.44423C2.9737 6.34285 3.02846 6.24979 3.10082 6.17127C3.18261 6.08252 3.29493 6.02012 3.51957 5.89532L9.06957 2.81198Z" stroke="#98A2B3" stroke-width="1.5" stroke-linecap="round" stroke-linejoin="round"/>
<path fill-rule="evenodd" clip-rule="evenodd" d="M9.64978 7.78915C8.90002 6.91262 7.64975 6.67684 6.71035 7.47948C5.77096 8.28212 5.63871 9.62409 6.37642 10.5734C6.84893 11.1814 8.05903 12.3089 8.86802 13.041C9.13686 13.2843 9.27128 13.4059 9.43228 13.4547C9.57069 13.4966 9.72886 13.4966 9.86727 13.4547C10.0283 13.4059 10.1627 13.2843 10.4315 13.041C11.2405 12.3089 12.4506 11.1814 12.9231 10.5734C13.6608 9.62409 13.5447 8.27367 12.5892 7.47948C11.6337 6.68528 10.3995 6.91262 9.64978 7.78915Z" stroke="#98A2B3" stroke-width="1.5" stroke-linecap="round" stroke-linejoin="round"/>
</g>
<defs>
<clipPath id="clip0_1_9415">
<rect width="18" height="18" fill="white" transform="translate(0.652344 0.988281)"/>
</clipPath>
</defs>
</svg>
