<svg width="19" height="19" viewBox="0 0 19 19" fill="none" xmlns="http://www.w3.org/2000/svg">
<g clip-path="url(#clip0_1_9427)">
<path d="M6.98398 7.73822C7.16031 7.23697 7.50834 6.8143 7.96645 6.54506C8.42455 6.27583 8.96315 6.17742 9.48686 6.26725C10.0106 6.35708 10.4856 6.62936 10.8278 7.03586C11.17 7.44236 11.3573 7.95686 11.3565 8.48822C11.3565 9.98822 9.10648 10.7382 9.10648 10.7382M9.1665 13.7382H9.17401M2.4165 6.94431V13.0321C2.4165 13.2891 2.4165 13.4176 2.45437 13.5322C2.48786 13.6336 2.54262 13.7267 2.61498 13.8052C2.69677 13.8939 2.80909 13.9563 3.03373 14.0811L8.58373 17.1645C8.79644 17.2826 8.90279 17.3417 9.01542 17.3649C9.1151 17.3854 9.21791 17.3854 9.31759 17.3649C9.43022 17.3417 9.53657 17.2826 9.74928 17.1645L15.2993 14.0811C15.5239 13.9563 15.6362 13.8939 15.718 13.8052C15.7904 13.7267 15.8451 13.6336 15.8786 13.5322C15.9165 13.4176 15.9165 13.2891 15.9165 13.0321V6.94431C15.9165 6.68732 15.9165 6.55883 15.8786 6.44423C15.8451 6.34285 15.7904 6.24979 15.718 6.17127C15.6362 6.08252 15.5239 6.02012 15.2993 5.89532L9.74928 2.81198C9.53657 2.69382 9.43022 2.63473 9.31759 2.61157C9.21791 2.59107 9.1151 2.59107 9.01542 2.61157C8.90279 2.63473 8.79644 2.69382 8.58373 2.81198L3.03373 5.89532C2.80909 6.02012 2.69677 6.08252 2.61498 6.17127C2.54262 6.24979 2.48786 6.34285 2.45437 6.44423C2.4165 6.55883 2.4165 6.68732 2.4165 6.94431Z" stroke="#98A2B3" stroke-width="1.5" stroke-linecap="round" stroke-linejoin="round"/>
</g>
<defs>
<clipPath id="clip0_1_9427">
<rect width="18" height="18" fill="white" transform="translate(0.166016 0.988281)"/>
</clipPath>
</defs>
</svg>
