<svg width="19" height="19" viewBox="0 0 19 19" fill="none" xmlns="http://www.w3.org/2000/svg">
<g clip-path="url(#clip0_1_9425)">
<path d="M6.97961 7.73816C7.15594 7.23691 7.50397 6.81424 7.96208 6.54501C8.42018 6.27578 8.95878 6.17736 9.48249 6.26719C10.0062 6.35702 10.4812 6.6293 10.8234 7.03581C11.1656 7.44231 11.3529 7.9568 11.3521 8.48816C11.3521 9.98816 9.10211 10.7382 9.10211 10.7382M9.16211 13.7382H9.16961M16.6621 9.98816C16.6621 14.1303 13.3042 17.4882 9.16211 17.4882C5.01997 17.4882 1.66211 14.1303 1.66211 9.98816C1.66211 5.84602 5.01997 2.48816 9.16211 2.48816C13.3042 2.48816 16.6621 5.84602 16.6621 9.98816Z" stroke="#98A2B3" stroke-width="1.5" stroke-linecap="round" stroke-linejoin="round"/>
</g>
<defs>
<clipPath id="clip0_1_9425">
<rect width="18" height="18" fill="white" transform="translate(0.162109 0.988281)"/>
</clipPath>
</defs>
</svg>
