<svg width="19" height="19" viewBox="0 0 19 19" fill="none" xmlns="http://www.w3.org/2000/svg">
<g clip-path="url(#clip0_1_9429)">
<path d="M7.48544 7.73815C7.66177 7.2369 8.00981 6.81423 8.46791 6.545C8.92601 6.27577 9.46462 6.17736 9.98833 6.26719C10.512 6.35702 10.9871 6.62929 11.3293 7.0358C11.6714 7.4423 11.8587 7.95679 11.8579 8.48815C11.8579 9.98815 9.60794 10.7382 9.60794 10.7382M9.66797 13.7382H9.67547M2.16797 7.38022V12.5961C2.16797 12.7795 2.16797 12.8713 2.18869 12.9576C2.20706 13.0341 2.23737 13.1073 2.27849 13.1744C2.32487 13.2501 2.38973 13.3149 2.51944 13.4446L6.2115 17.1367C6.34121 17.2664 6.40607 17.3313 6.48176 17.3776C6.54886 17.4188 6.62202 17.4491 6.69855 17.4674C6.78486 17.4882 6.87658 17.4882 7.06003 17.4882H12.2759C12.4594 17.4882 12.5511 17.4882 12.6374 17.4674C12.7139 17.4491 12.7871 17.4188 12.8542 17.3776C12.9299 17.3313 12.9947 17.2664 13.1244 17.1367L16.8165 13.4446C16.9462 13.3149 17.0111 13.2501 17.0575 13.1744C17.0986 13.1073 17.1289 13.0341 17.1472 12.9576C17.168 12.8713 17.168 12.7795 17.168 12.5961V7.38022C17.168 7.19677 17.168 7.10505 17.1472 7.01874C17.1289 6.94221 17.0986 6.86905 17.0575 6.80195C17.0111 6.72626 16.9462 6.6614 16.8165 6.53169L13.1244 2.83963C12.9947 2.70992 12.9299 2.64506 12.8542 2.59868C12.7871 2.55756 12.7139 2.52725 12.6374 2.50888C12.5511 2.48816 12.4594 2.48816 12.2759 2.48816H7.06003C6.87658 2.48816 6.78486 2.48816 6.69855 2.50888C6.62202 2.52725 6.54886 2.55756 6.48176 2.59868C6.40607 2.64506 6.34121 2.70992 6.2115 2.83963L2.51944 6.53169C2.38973 6.6614 2.32487 6.72626 2.27849 6.80195C2.23737 6.86905 2.20706 6.94221 2.18869 7.01874C2.16797 7.10505 2.16797 7.19677 2.16797 7.38022Z" stroke="#98A2B3" stroke-width="1.5" stroke-linecap="round" stroke-linejoin="round"/>
</g>
<defs>
<clipPath id="clip0_1_9429">
<rect width="18" height="18" fill="white" transform="translate(0.667969 0.988281)"/>
</clipPath>
</defs>
</svg>
