<svg width="19" height="19" viewBox="0 0 19 19" fill="none" xmlns="http://www.w3.org/2000/svg">
<g clip-path="url(#clip0_1_10621)">
<path d="M7.48205 7.73816C7.65838 7.23691 8.00642 6.81424 8.46452 6.54501C8.92262 6.27578 9.46122 6.17736 9.98493 6.26719C10.5086 6.35702 10.9837 6.6293 11.3259 7.03581C11.6681 7.44231 11.8553 7.9568 11.8546 8.48816C11.8546 9.98816 9.60455 10.7382 9.60455 10.7382M9.66455 13.7382H9.67205M17.1646 9.98816C17.1646 14.1303 13.8067 17.4882 9.66455 17.4882C5.52242 17.4882 2.16455 14.1303 2.16455 9.98816C2.16455 5.84602 5.52242 2.48816 9.66455 2.48816C13.8067 2.48816 17.1646 5.84602 17.1646 9.98816Z" stroke="#98A2B3" stroke-width="1.5" stroke-linecap="round" stroke-linejoin="round"/>
</g>
<defs>
<clipPath id="clip0_1_10621">
<rect width="18" height="18" fill="white" transform="translate(0.664062 0.988281)"/>
</clipPath>
</defs>
</svg>
