<svg width="19" height="19" viewBox="0 0 19 19" fill="none" xmlns="http://www.w3.org/2000/svg">
<path d="M6.98742 7.73816C7.16375 7.23691 7.51179 6.81424 7.96989 6.54501C8.42799 6.27578 8.96659 6.17736 9.49031 6.26719C10.014 6.35702 10.489 6.6293 10.8312 7.03581C11.1734 7.44231 11.3607 7.9568 11.3599 8.48816C11.3599 9.98816 9.10992 10.7382 9.10992 10.7382M9.16992 13.7382H9.17742M6.01992 16.7382H12.3199C13.58 16.7382 14.2101 16.7382 14.6914 16.4929C15.1148 16.2772 15.459 15.933 15.6747 15.5096C15.9199 15.0283 15.9199 14.3983 15.9199 13.1382V6.83816C15.9199 5.57804 15.9199 4.94798 15.6747 4.46668C15.459 4.04332 15.1148 3.69911 14.6914 3.48339C14.2101 3.23816 13.58 3.23816 12.3199 3.23816H6.01992C4.7598 3.23816 4.12974 3.23816 3.64844 3.48339C3.22508 3.69911 2.88087 4.04332 2.66516 4.46668C2.41992 4.94798 2.41992 5.57804 2.41992 6.83816V13.1382C2.41992 14.3983 2.41992 15.0283 2.66516 15.5096C2.88087 15.933 3.22508 16.2772 3.64844 16.4929C4.12974 16.7382 4.7598 16.7382 6.01992 16.7382Z" stroke="#98A2B3" stroke-width="1.5" stroke-linecap="round" stroke-linejoin="round"/>
</svg>
