<svg width="19" height="19" viewBox="0 0 19 19" fill="none" xmlns="http://www.w3.org/2000/svg">
<path d="M16.8525 9.40539C16.9706 9.61809 17.0297 9.72444 17.0529 9.83707C17.0734 9.93675 17.0734 10.0396 17.0529 10.1392C17.0297 10.2519 16.9706 10.3582 16.8525 10.5709L13.7691 16.1209C13.6443 16.3456 13.5819 16.4579 13.4932 16.5397C13.4146 16.612 13.3216 16.6668 13.2202 16.7003C13.1056 16.7382 12.9771 16.7382 12.7201 16.7382H6.63229C6.37531 16.7382 6.24682 16.7382 6.13222 16.7003C6.03084 16.6668 5.93778 16.612 5.85926 16.5397C5.77051 16.4579 5.70811 16.3456 5.58331 16.1209L2.49997 10.5709C2.3818 10.3582 2.32272 10.2519 2.29956 10.1392C2.27905 10.0396 2.27905 9.93675 2.29956 9.83707C2.32272 9.72444 2.3818 9.61809 2.49997 9.40539L5.58331 3.85539C5.70811 3.63074 5.77051 3.51842 5.85926 3.43663C5.93778 3.36428 6.03084 3.30952 6.13222 3.27602C6.24682 3.23816 6.37531 3.23816 6.6323 3.23816L12.7201 3.23816C12.9771 3.23816 13.1056 3.23816 13.2202 3.27602C13.3216 3.30952 13.4146 3.36428 13.4932 3.43663C13.5819 3.51842 13.6443 3.63075 13.7691 3.85539L16.8525 9.40539Z" stroke="#98A2B3" stroke-width="1.5" stroke-linecap="round" stroke-linejoin="round"/>
</svg>
