<svg width="19" height="19" viewBox="0 0 19 19" fill="none" xmlns="http://www.w3.org/2000/svg">
<g clip-path="url(#clip0_1_9541)">
<path d="M8.59106 2.81198C8.80376 2.69382 8.91011 2.63473 9.02274 2.61157C9.12242 2.59107 9.22523 2.59107 9.32492 2.61157C9.43755 2.63473 9.5439 2.69382 9.7566 2.81198L15.3066 5.89532C15.5312 6.02012 15.6436 6.08252 15.7254 6.17127C15.7977 6.24979 15.8525 6.34285 15.886 6.44423C15.9238 6.55883 15.9238 6.68732 15.9238 6.94431V13.0321C15.9238 13.2891 15.9238 13.4176 15.886 13.5322C15.8525 13.6336 15.7977 13.7267 15.7254 13.8052C15.6436 13.8939 15.5312 13.9563 15.3066 14.0811L9.7566 17.1645C9.5439 17.2826 9.43755 17.3417 9.32492 17.3649C9.22523 17.3854 9.12242 17.3854 9.02274 17.3649C8.91011 17.3417 8.80376 17.2826 8.59106 17.1645L3.04106 14.0811C2.81641 13.9563 2.70409 13.8939 2.6223 13.8052C2.54995 13.7267 2.49519 13.6336 2.46169 13.5322C2.42383 13.4176 2.42383 13.2891 2.42383 13.0321V6.94431C2.42383 6.68732 2.42383 6.55883 2.46169 6.44423C2.49519 6.34285 2.54995 6.24979 2.6223 6.17127C2.70409 6.08252 2.81641 6.02012 3.04106 5.89532L8.59106 2.81198Z" stroke="#98A2B3" stroke-width="1.5" stroke-linecap="round" stroke-linejoin="round"/>
</g>
<defs>
<clipPath id="clip0_1_9541">
<rect width="18" height="18" fill="white" transform="translate(0.173828 0.988281)"/>
</clipPath>
</defs>
</svg>
