<svg width="19" height="19" viewBox="0 0 19 19" fill="none" xmlns="http://www.w3.org/2000/svg">
<g clip-path="url(#clip0_1_10673)">
<path d="M16.4219 12.9882V6.98821C16.4216 6.72516 16.3522 6.46682 16.2205 6.23908C16.0889 6.01134 15.8997 5.82223 15.6719 5.69071L10.4219 2.69071C10.1938 2.55906 9.93518 2.48975 9.67188 2.48975C9.40857 2.48975 9.1499 2.55906 8.92188 2.69071L3.67188 5.69071C3.44407 5.82223 3.25486 6.01134 3.12322 6.23908C2.99158 6.46682 2.92214 6.72516 2.92188 6.98821V12.9882C2.92214 13.2513 2.99158 13.5096 3.12322 13.7373C3.25486 13.9651 3.44407 14.1542 3.67188 14.2857L8.92188 17.2857C9.1499 17.4174 9.40857 17.4867 9.67188 17.4867C9.93518 17.4867 10.1938 17.4174 10.4219 17.2857L15.6719 14.2857C15.8997 14.1542 16.0889 13.9651 16.2205 13.7373C16.3522 13.5096 16.4216 13.2513 16.4219 12.9882Z" stroke="#98A2B3" stroke-width="1.5" stroke-linecap="round" stroke-linejoin="round"/>
</g>
<defs>
<clipPath id="clip0_1_10673">
<rect width="18" height="18" fill="white" transform="translate(0.671875 0.988281)"/>
</clipPath>
</defs>
</svg>
