<svg width="19" height="19" viewBox="0 0 19 19" fill="none" xmlns="http://www.w3.org/2000/svg">
<path d="M10.4242 3.06122C10.1607 2.85628 10.029 2.75381 9.88351 2.71442C9.75515 2.67967 9.61985 2.67967 9.49149 2.71442C9.34601 2.75381 9.21427 2.85628 8.95077 3.06122L3.86404 7.01756C3.52402 7.28203 3.354 7.41426 3.23152 7.57986C3.12302 7.72655 3.0422 7.89181 2.99302 8.06751C2.9375 8.26586 2.9375 8.48124 2.9375 8.91201V14.3382C2.9375 15.1783 2.9375 15.5983 3.10099 15.9192C3.2448 16.2014 3.47427 16.4309 3.75651 16.5747C4.07738 16.7382 4.49742 16.7382 5.3375 16.7382H6.8375C7.04752 16.7382 7.15253 16.7382 7.23275 16.6973C7.30331 16.6614 7.36068 16.604 7.39663 16.5335C7.4375 16.4532 7.4375 16.3482 7.4375 16.1382V11.1882C7.4375 10.7682 7.4375 10.5582 7.51925 10.3977C7.59115 10.2566 7.70589 10.1419 7.84701 10.07C8.00744 9.98821 8.21746 9.98821 8.6375 9.98821H10.7375C11.1575 9.98821 11.3676 9.98821 11.528 10.07C11.6691 10.1419 11.7839 10.2566 11.8558 10.3977C11.9375 10.5582 11.9375 10.7682 11.9375 11.1882V16.1382C11.9375 16.3482 11.9375 16.4532 11.9784 16.5335C12.0143 16.604 12.0717 16.6614 12.1423 16.6973C12.2225 16.7382 12.3275 16.7382 12.5375 16.7382H14.0375C14.8776 16.7382 15.2976 16.7382 15.6185 16.5747C15.9007 16.4309 16.1302 16.2014 16.274 15.9192C16.4375 15.5983 16.4375 15.1783 16.4375 14.3382V8.91201C16.4375 8.48124 16.4375 8.26586 16.382 8.06751C16.3328 7.89181 16.252 7.72655 16.1435 7.57986C16.021 7.41426 15.851 7.28203 15.511 7.01756L10.4242 3.06122Z" stroke="#98A2B3" stroke-width="1.5" stroke-linecap="round" stroke-linejoin="round"/>
</svg>
