<svg width="19" height="19" viewBox="0 0 19 19" fill="none" xmlns="http://www.w3.org/2000/svg">
<path d="M6.78641 11.4882C7.11944 12.7821 8.29402 13.7382 9.6919 13.7382C11.0898 13.7382 12.2644 12.7821 12.5974 11.4882M8.95517 3.06122L3.86844 7.01756C3.52841 7.28203 3.3584 7.41426 3.23591 7.57986C3.12742 7.72655 3.0466 7.89181 2.99742 8.06751C2.94189 8.26586 2.94189 8.48124 2.94189 8.91201V14.3382C2.94189 15.1783 2.94189 15.5983 3.10538 15.9192C3.24919 16.2014 3.47867 16.4309 3.76091 16.5747C4.08178 16.7382 4.50182 16.7382 5.34189 16.7382H14.0419C14.882 16.7382 15.302 16.7382 15.6229 16.5747C15.9051 16.4309 16.1346 16.2014 16.2784 15.9192C16.4419 15.5983 16.4419 15.1783 16.4419 14.3382V8.91201C16.4419 8.48124 16.4419 8.26586 16.3864 8.06751C16.3372 7.89181 16.2564 7.72655 16.1479 7.57986C16.0254 7.41426 15.8554 7.28203 15.5154 7.01756L10.4286 3.06122C10.1651 2.85628 10.0334 2.75381 9.88791 2.71442C9.75954 2.67967 9.62425 2.67967 9.49589 2.71442C9.35041 2.75381 9.21866 2.85628 8.95517 3.06122Z" stroke="#98A2B3" stroke-width="1.5" stroke-linecap="round" stroke-linejoin="round"/>
</svg>
