<svg width="19" height="19" viewBox="0 0 19 19" fill="none" xmlns="http://www.w3.org/2000/svg">
<path d="M9.18555 12.9882C10.4282 12.9882 11.4355 11.9808 11.4355 10.7382C11.4355 9.49557 10.4282 8.48821 9.18555 8.48821C7.94291 8.48821 6.93555 9.49557 6.93555 10.7382C6.93555 11.9808 7.94291 12.9882 9.18555 12.9882Z" stroke="#98A2B3" stroke-width="1.5" stroke-linecap="round" stroke-linejoin="round"/>
<path d="M2.43555 8.91201C2.43555 8.48124 2.43555 8.26586 2.49107 8.06751C2.54025 7.89181 2.62107 7.72655 2.72957 7.57986C2.85205 7.41426 3.02206 7.28203 3.36209 7.01756L8.44882 3.06122C8.71231 2.85628 8.84406 2.75381 8.98954 2.71442C9.1179 2.67967 9.2532 2.67967 9.38156 2.71442C9.52704 2.75381 9.65878 2.85628 9.92228 3.06122L15.009 7.01756C15.349 7.28203 15.519 7.41426 15.6415 7.57986C15.75 7.72655 15.8308 7.89181 15.88 8.06751C15.9355 8.26586 15.9355 8.48124 15.9355 8.91201V14.3382C15.9355 15.1783 15.9355 15.5983 15.7721 15.9192C15.6282 16.2014 15.3988 16.4309 15.1165 16.5747C14.7957 16.7382 14.3756 16.7382 13.5355 16.7382H4.83555C3.99547 16.7382 3.57543 16.7382 3.25456 16.5747C2.97232 16.4309 2.74285 16.2014 2.59904 15.9192C2.43555 15.5983 2.43555 15.1783 2.43555 14.3382V8.91201Z" stroke="#98A2B3" stroke-width="1.5" stroke-linecap="round" stroke-linejoin="round"/>
</svg>
