<svg width="19" height="19" viewBox="0 0 19 19" fill="none" xmlns="http://www.w3.org/2000/svg">
<path d="M6.93164 16.7382V11.1882C6.93164 10.7682 6.93164 10.5582 7.01339 10.3977C7.08529 10.2566 7.20003 10.1419 7.34115 10.07C7.50158 9.98821 7.7116 9.98821 8.13164 9.98821H10.2316C10.6517 9.98821 10.8617 9.98821 11.0221 10.07C11.1633 10.1419 11.278 10.2566 11.3499 10.3977C11.4316 10.5582 11.4316 10.7682 11.4316 11.1882V16.7382M8.44491 3.06122L3.35818 7.01756C3.01816 7.28203 2.84814 7.41426 2.72566 7.57986C2.61716 7.72655 2.53634 7.89181 2.48716 8.06751C2.43164 8.26586 2.43164 8.48124 2.43164 8.91201V14.3382C2.43164 15.1783 2.43164 15.5983 2.59513 15.9192C2.73894 16.2014 2.96841 16.4309 3.25065 16.5747C3.57152 16.7382 3.99156 16.7382 4.83164 16.7382H13.5316C14.3717 16.7382 14.7918 16.7382 15.1126 16.5747C15.3949 16.4309 15.6243 16.2014 15.7682 15.9192C15.9316 15.5983 15.9316 15.1783 15.9316 14.3382V8.91201C15.9316 8.48124 15.9316 8.26586 15.8761 8.06751C15.8269 7.89181 15.7461 7.72655 15.6376 7.57986C15.5151 7.41426 15.3451 7.28203 15.0051 7.01756L9.91837 3.06122C9.65488 2.85628 9.52313 2.75381 9.37765 2.71442C9.24929 2.67967 9.11399 2.67967 8.98563 2.71442C8.84015 2.75381 8.70841 2.85628 8.44491 3.06122Z" stroke="#98A2B3" stroke-width="1.5" stroke-linecap="round" stroke-linejoin="round"/>
</svg>
