<svg width="19" height="19" viewBox="0 0 19 19" fill="none" xmlns="http://www.w3.org/2000/svg">
<path d="M7.4336 16.7382V11.1882C7.4336 10.7681 7.4336 10.5581 7.51534 10.3977C7.58725 10.2565 7.70198 10.1418 7.8431 10.0699C8.00354 9.98816 8.21356 9.98816 8.6336 9.98816H10.7336C11.1536 9.98816 11.3637 9.98816 11.5241 10.0699C11.6652 10.1418 11.7799 10.2565 11.8519 10.3977C11.9336 10.5581 11.9336 10.7681 11.9336 11.1882V16.7382M2.18359 8.11316L8.9636 3.02816C9.22179 2.83451 9.35089 2.73769 9.49267 2.70037C9.61782 2.66742 9.74937 2.66742 9.87452 2.70037C10.0163 2.73769 10.1454 2.83451 10.4036 3.02816L17.1836 8.11316M3.6836 6.98816V14.3382C3.6836 15.1782 3.6836 15.5983 3.84709 15.9191C3.9909 16.2014 4.22037 16.4309 4.50261 16.5747C4.82348 16.7382 5.24352 16.7382 6.0836 16.7382H13.2836C14.1237 16.7382 14.5437 16.7382 14.8646 16.5747C15.1468 16.4309 15.3763 16.2014 15.5201 15.9191C15.6836 15.5983 15.6836 15.1782 15.6836 14.3382V6.98816L11.1236 3.56816C10.6072 3.18087 10.349 2.98722 10.0654 2.91258C9.81514 2.84669 9.55205 2.84669 9.30175 2.91258C9.01818 2.98722 8.75998 3.18087 8.2436 3.56816L3.6836 6.98816Z" stroke="#98A2B3" stroke-width="1.5" stroke-linecap="round" stroke-linejoin="round"/>
</svg>
