<svg width="19" height="19" viewBox="0 0 19 19" fill="none" xmlns="http://www.w3.org/2000/svg">
<path d="M6.18945 13.7382H12.1895M8.45273 3.06122L3.366 7.01756C3.02597 7.28203 2.85596 7.41426 2.73347 7.57986C2.62498 7.72655 2.54415 7.89181 2.49497 8.06751C2.43945 8.26586 2.43945 8.48124 2.43945 8.91201V14.3382C2.43945 15.1783 2.43945 15.5983 2.60294 15.9192C2.74675 16.2014 2.97622 16.4309 3.25847 16.5747C3.57934 16.7382 3.99937 16.7382 4.83945 16.7382H13.5395C14.3795 16.7382 14.7996 16.7382 15.1204 16.5747C15.4027 16.4309 15.6322 16.2014 15.776 15.9192C15.9395 15.5983 15.9395 15.1783 15.9395 14.3382V8.91201C15.9395 8.48124 15.9395 8.26586 15.8839 8.06751C15.8348 7.89181 15.7539 7.72655 15.6454 7.57986C15.523 7.41426 15.3529 7.28203 15.0129 7.01756L9.92618 3.06122C9.66269 2.85628 9.53094 2.75381 9.38546 2.71442C9.2571 2.67967 9.12181 2.67967 8.99344 2.71442C8.84797 2.75381 8.71622 2.85628 8.45273 3.06122Z" stroke="#98A2B3" stroke-width="1.5" stroke-linecap="round" stroke-linejoin="round"/>
</svg>
