<svg width="19" height="19" viewBox="0 0 19 19" fill="none" xmlns="http://www.w3.org/2000/svg">
<path d="M2.92969 8.91201C2.92969 8.48124 2.92969 8.26586 2.98521 8.06751C3.03439 7.89181 3.11521 7.72655 3.22371 7.57986C3.34619 7.41426 3.5162 7.28203 3.85623 7.01756L8.94296 3.06122C9.20645 2.85628 9.3382 2.75381 9.48368 2.71442C9.61204 2.67967 9.74734 2.67967 9.8757 2.71442C10.0212 2.75381 10.1529 2.85628 10.4164 3.06122L15.5031 7.01756C15.8432 7.28203 16.0132 7.41426 16.1357 7.57986C16.2442 7.72655 16.325 7.89181 16.3742 8.06751C16.4297 8.26586 16.4297 8.48124 16.4297 8.91201V14.3382C16.4297 15.1783 16.4297 15.5983 16.2662 15.9192C16.1224 16.2014 15.8929 16.4309 15.6107 16.5747C15.2898 16.7382 14.8698 16.7382 14.0297 16.7382H5.32969C4.48961 16.7382 4.06957 16.7382 3.7487 16.5747C3.46646 16.4309 3.23699 16.2014 3.09318 15.9192C2.92969 15.5983 2.92969 15.1783 2.92969 14.3382V8.91201Z" stroke="#98A2B3" stroke-width="1.5" stroke-linecap="round" stroke-linejoin="round"/>
</svg>
