<svg width="19" height="19" viewBox="0 0 19 19" fill="none" xmlns="http://www.w3.org/2000/svg">
<g clip-path="url(#clip0_1_8451)">
<path d="M9.94776 8.11316V5.56316C9.94776 5.14312 9.94776 4.9331 9.86601 4.77267C9.79411 4.63155 9.67937 4.51681 9.53825 4.4449C9.37781 4.36316 9.16779 4.36316 8.74775 4.36316H2.44775M12.9478 11.8632V9.31316C12.9478 8.89312 12.9478 8.6831 12.866 8.52267C12.7941 8.38155 12.6794 8.26681 12.5382 8.19491C12.3778 8.11316 12.1678 8.11316 11.7478 8.11316H2.44775M2.44775 2.48816L2.44775 17.4882M2.44775 15.6132H14.7478C15.1678 15.6132 15.3778 15.6132 15.5382 15.5314C15.6794 15.4595 15.7941 15.3448 15.866 15.2037C15.9478 15.0432 15.9478 14.8332 15.9478 14.4132V13.0632C15.9478 12.6431 15.9478 12.4331 15.866 12.2727C15.7941 12.1315 15.6794 12.0168 15.5382 11.9449C15.3778 11.8632 15.1678 11.8632 14.7478 11.8632L2.44775 11.8632L2.44775 15.6132Z" stroke="#98A2B3" stroke-width="1.5" stroke-linecap="round" stroke-linejoin="round"/>
</g>
<defs>
<clipPath id="clip0_1_8451">
<rect width="18" height="18" fill="white" transform="translate(0.197754 0.988281)"/>
</clipPath>
</defs>
</svg>
