<svg width="19" height="19" viewBox="0 0 19 19" fill="none" xmlns="http://www.w3.org/2000/svg">
<g clip-path="url(#clip0_1_8449)">
<path d="M13.4453 8.11316V10.6632C13.4453 11.0832 13.4453 11.2932 13.3636 11.4537C13.2917 11.5948 13.1769 11.7095 13.0358 11.7814C12.8754 11.8632 12.6654 11.8632 12.2453 11.8632L2.94531 11.8632M10.4453 11.8632V14.4132C10.4453 14.8332 10.4453 15.0432 10.3636 15.2037C10.2917 15.3448 10.1769 15.4595 10.0358 15.5314C9.87537 15.6132 9.66535 15.6132 9.24531 15.6132H2.94531M2.94531 2.48816L2.94531 17.4882M2.94531 8.11316L15.2453 8.11316C15.6654 8.11316 15.8754 8.11316 16.0358 8.03141C16.1769 7.95951 16.2917 7.84477 16.3636 7.70365C16.4453 7.54322 16.4453 7.3332 16.4453 6.91316V5.56316C16.4453 5.14312 16.4453 4.9331 16.3636 4.77267C16.2917 4.63155 16.1769 4.51681 16.0358 4.4449C15.8754 4.36316 15.6654 4.36316 15.2453 4.36316L2.94531 4.36316L2.94531 8.11316Z" stroke="#98A2B3" stroke-width="1.5" stroke-linecap="round" stroke-linejoin="round"/>
</g>
<defs>
<clipPath id="clip0_1_8449">
<rect width="18" height="18" fill="white" transform="translate(0.695312 0.988281)"/>
</clipPath>
</defs>
</svg>
