<svg width="19" height="19" viewBox="0 0 19 19" fill="none" xmlns="http://www.w3.org/2000/svg">
<g clip-path="url(#clip0_1_8447)">
<path d="M12.9434 8.11316V5.56316C12.9434 5.14312 12.9434 4.9331 12.8616 4.77267C12.7897 4.63155 12.675 4.51681 12.5339 4.4449C12.3734 4.36316 12.1634 4.36316 11.7434 4.36316H2.44336M9.94336 11.8632V14.4132C9.94336 14.8332 9.94336 15.0432 9.86162 15.2037C9.78971 15.3448 9.67498 15.4595 9.53385 15.5314C9.37342 15.6132 9.1634 15.6132 8.74336 15.6132H2.44336M2.44336 2.48816L2.44336 17.4882M2.44336 11.8632L14.7434 11.8632C15.1634 11.8632 15.3734 11.8632 15.5339 11.7814C15.675 11.7095 15.7897 11.5948 15.8616 11.4537C15.9434 11.2932 15.9434 11.0832 15.9434 10.6632V9.31316C15.9434 8.89312 15.9434 8.6831 15.8616 8.52267C15.7897 8.38155 15.675 8.26681 15.5339 8.19491C15.3734 8.11316 15.1634 8.11316 14.7434 8.11316L2.44336 8.11316L2.44336 11.8632Z" stroke="#98A2B3" stroke-width="1.5" stroke-linecap="round" stroke-linejoin="round"/>
</g>
<defs>
<clipPath id="clip0_1_8447">
<rect width="18" height="18" fill="white" transform="translate(0.193359 0.988281)"/>
</clipPath>
</defs>
</svg>
