<svg width="19" height="19" viewBox="0 0 19 19" fill="none" xmlns="http://www.w3.org/2000/svg">
<g clip-path="url(#clip0_1_10283)">
<path d="M13.8231 2.48816H4.57925C4.23237 2.48816 3.95117 2.76936 3.95117 3.11624C3.95117 5.11517 4.74524 7.03223 6.1587 8.44569L7.07309 9.36008C7.16389 9.45088 7.2093 9.49628 7.2418 9.53988C7.44008 9.80585 7.44008 10.1705 7.2418 10.4364C7.2093 10.48 7.16389 10.5254 7.07309 10.6162L6.1587 11.5306C4.74524 12.9441 3.95117 14.8611 3.95117 16.8601C3.95117 17.207 4.23237 17.4882 4.57925 17.4882H13.8231C14.17 17.4882 14.4512 17.207 14.4512 16.8601C14.4512 14.8611 13.6571 12.9441 12.2436 11.5306L11.3293 10.6162C11.2385 10.5254 11.193 10.48 11.1605 10.4364C10.9623 10.1705 10.9623 9.80585 11.1605 9.53988C11.193 9.49628 11.2385 9.45088 11.3293 9.36008L12.2436 8.44569C13.6571 7.03223 14.4512 5.11517 14.4512 3.11624C14.4512 2.76936 14.17 2.48816 13.8231 2.48816Z" stroke="#98A2B3" stroke-width="1.5" stroke-linecap="round" stroke-linejoin="round"/>
</g>
<defs>
<clipPath id="clip0_1_10283">
<rect width="18" height="18" fill="white" transform="translate(0.201172 0.988281)"/>
</clipPath>
</defs>
</svg>
