<svg width="19" height="19" viewBox="0 0 19 19" fill="none" xmlns="http://www.w3.org/2000/svg">
<g clip-path="url(#clip0_1_10285)">
<path d="M7.45361 14.8632H11.9536M5.65361 2.48816H13.7536C14.1737 2.48816 14.3837 2.48816 14.5441 2.5699C14.6852 2.64181 14.8 2.75654 14.8719 2.89767C14.9536 3.0581 14.9536 3.26812 14.9536 3.68816V5.24405C14.9536 5.61093 14.9536 5.79438 14.9122 5.96701C14.8754 6.12006 14.8148 6.26638 14.7326 6.40059C14.6398 6.55196 14.5101 6.68168 14.2507 6.9411L12.0521 9.13963C11.7551 9.43664 11.6066 9.58515 11.551 9.7564C11.502 9.90703 11.502 10.0693 11.551 10.2199C11.6066 10.3912 11.7551 10.5397 12.0521 10.8367L14.2507 13.0352C14.5101 13.2946 14.6398 13.4244 14.7326 13.5757C14.8148 13.7099 14.8754 13.8563 14.9122 14.0093C14.9536 14.1819 14.9536 14.3654 14.9536 14.7323V16.2882C14.9536 16.7082 14.9536 16.9182 14.8719 17.0787C14.8 17.2198 14.6852 17.3345 14.5441 17.4064C14.3837 17.4882 14.1737 17.4882 13.7536 17.4882H5.65361C5.23357 17.4882 5.02355 17.4882 4.86312 17.4064C4.722 17.3345 4.60726 17.2198 4.53536 17.0787C4.45361 16.9182 4.45361 16.7082 4.45361 16.2882V14.7323C4.45361 14.3654 4.45361 14.1819 4.49506 14.0093C4.5318 13.8563 4.59241 13.7099 4.67465 13.5757C4.76742 13.4244 4.89713 13.2946 5.15656 13.0352L7.35509 10.8367C7.6521 10.5397 7.8006 10.3912 7.85625 10.2199C7.90519 10.0693 7.90519 9.90703 7.85625 9.7564C7.8006 9.58515 7.65209 9.43664 7.35509 9.13963L5.15656 6.9411C4.89713 6.68168 4.76742 6.55196 4.67465 6.40059C4.59241 6.26638 4.5318 6.12006 4.49506 5.96701C4.45361 5.79438 4.45361 5.61093 4.45361 5.24405V3.68816C4.45361 3.26812 4.45361 3.0581 4.53536 2.89767C4.60726 2.75654 4.722 2.64181 4.86312 2.5699C5.02355 2.48816 5.23357 2.48816 5.65361 2.48816Z" stroke="#98A2B3" stroke-width="1.5" stroke-linecap="round" stroke-linejoin="round"/>
</g>
<defs>
<clipPath id="clip0_1_10285">
<rect width="18" height="18" fill="white" transform="translate(0.703613 0.988281)"/>
</clipPath>
</defs>
</svg>
