<svg width="19" height="19" viewBox="0 0 19 19" fill="none" xmlns="http://www.w3.org/2000/svg">
<g clip-path="url(#clip0_1_10281)">
<path d="M9.69922 9.98816L6.49455 7.31761C6.01842 6.92082 5.78035 6.72243 5.6092 6.47924C5.45755 6.26376 5.34494 6.02331 5.27648 5.76887C5.19922 5.4817 5.19922 5.1718 5.19922 4.55201V2.48816M9.69922 9.98816L12.9039 7.31761C13.38 6.92082 13.6181 6.72243 13.7892 6.47924C13.9409 6.26376 14.0535 6.02331 14.122 5.76887C14.1992 5.4817 14.1992 5.1718 14.1992 4.55201V2.48816M9.69922 9.98816L6.49455 12.6587C6.01842 13.0555 5.78035 13.2539 5.6092 13.4971C5.45755 13.7126 5.34494 13.953 5.27648 14.2074C5.19922 14.4946 5.19922 14.8045 5.19922 15.4243V17.4882M9.69922 9.98816L12.9039 12.6587C13.38 13.0555 13.6181 13.2539 13.7892 13.4971C13.9409 13.7126 14.0535 13.953 14.122 14.2074C14.1992 14.4946 14.1992 14.8045 14.1992 15.4243V17.4882M3.69922 2.48816H15.6992M3.69922 17.4882H15.6992" stroke="#98A2B3" stroke-width="1.5" stroke-linecap="round" stroke-linejoin="round"/>
</g>
<defs>
<clipPath id="clip0_1_10281">
<rect width="18" height="18" fill="white" transform="translate(0.699219 0.988281)"/>
</clipPath>
</defs>
</svg>
