<svg width="19" height="19" viewBox="0 0 19 19" fill="none" xmlns="http://www.w3.org/2000/svg">
<path d="M12.5806 16.3633C11.6404 16.5987 10.4719 16.7382 9.20557 16.7382C7.93926 16.7382 6.77069 16.5987 5.83057 16.3633M13.7056 13.3111C12.6062 13.7263 10.9976 13.9882 9.20557 13.9882C7.41353 13.9882 5.80498 13.7263 4.70557 13.3111M3.58057 9.73905C4.65414 10.408 6.7704 10.8632 9.20557 10.8632C11.6407 10.8632 13.757 10.408 14.8306 9.73905M15.9556 5.48816C15.9556 6.7308 12.9335 7.73816 9.20557 7.73816C5.47764 7.73816 2.45557 6.7308 2.45557 5.48816C2.45557 4.24552 5.47764 3.23816 9.20557 3.23816C12.9335 3.23816 15.9556 4.24552 15.9556 5.48816Z" stroke="#98A2B3" stroke-width="1.5" stroke-linecap="round" stroke-linejoin="round"/>
</svg>
