<svg width="19" height="19" viewBox="0 0 19 19" fill="none" xmlns="http://www.w3.org/2000/svg">
<path d="M14.2075 9.98816C14.2075 12.4734 12.1928 14.4882 9.70752 14.4882C7.22224 14.4882 5.20752 12.4734 5.20752 9.98816M14.2075 9.98816C14.2075 7.50288 12.1928 5.48816 9.70752 5.48816C7.22224 5.48816 5.20752 7.50288 5.20752 9.98816M14.2075 9.98816C14.2075 13.3019 11.5212 15.9882 8.20752 15.9882C4.89381 15.9882 2.20752 13.3019 2.20752 9.98816M5.20752 9.98816C5.20752 6.67445 7.89381 3.98816 11.2075 3.98816C14.5212 3.98816 17.2075 6.67445 17.2075 9.98816M10.4575 9.98816C10.4575 10.4024 10.1217 10.7382 9.70752 10.7382C9.29331 10.7382 8.95752 10.4024 8.95752 9.98816C8.95752 9.57395 9.29331 9.23816 9.70752 9.23816C10.1217 9.23816 10.4575 9.57395 10.4575 9.98816Z" stroke="#98A2B3" stroke-width="1.5" stroke-linecap="round" stroke-linejoin="round"/>
</svg>
