<svg width="19" height="19" viewBox="0 0 19 19" fill="none" xmlns="http://www.w3.org/2000/svg">
<g clip-path="url(#clip0_1_9909)">
<path d="M12.7432 4.73816L14.9932 6.98816M14.9932 6.98816L17.2432 4.73816M14.9932 6.98816V2.48816M17.2432 9.98816V13.8882C17.2432 15.1483 17.2432 15.7783 16.9979 16.2596C16.7822 16.683 16.438 17.0272 16.0146 17.2429C15.5333 17.4882 14.9033 17.4882 13.6432 17.4882H5.84316C4.58305 17.4882 3.95299 17.4882 3.47169 17.2429C3.04832 17.0272 2.70411 16.683 2.4884 16.2596C2.24316 15.7783 2.24316 15.1483 2.24316 13.8882V6.08816C2.24316 4.82804 2.24316 4.19798 2.4884 3.71668C2.70411 3.29332 3.04832 2.94911 3.47169 2.73339C3.95299 2.48816 4.58305 2.48816 5.84316 2.48816H9.74316M2.35247 15.9329C2.70433 14.6671 3.86526 13.7382 5.24316 13.7382H10.4932C11.1901 13.7382 11.5386 13.7382 11.8284 13.7958C13.0185 14.0325 13.9488 14.9628 14.1855 16.1529C14.2432 16.4427 14.2432 16.7912 14.2432 17.4882M11.2432 8.11316C11.2432 9.77001 9.90002 11.1132 8.24316 11.1132C6.58631 11.1132 5.24316 9.77001 5.24316 8.11316C5.24316 6.45631 6.58631 5.11316 8.24316 5.11316C9.90002 5.11316 11.2432 6.45631 11.2432 8.11316Z" stroke="#98A2B3" stroke-width="1.5" stroke-linecap="round" stroke-linejoin="round"/>
</g>
<defs>
<clipPath id="clip0_1_9909">
<rect width="18" height="18" fill="white" transform="translate(0.743164 0.988281)"/>
</clipPath>
</defs>
</svg>
