<svg width="19" height="19" viewBox="0 0 19 19" fill="none" xmlns="http://www.w3.org/2000/svg">
<g clip-path="url(#clip0_1_9911)">
<path d="M14.4951 6.98816L12.2451 4.73816M12.2451 4.73816L14.4951 2.48816M12.2451 4.73816L16.7451 4.73816M16.7451 9.98816V13.8882C16.7451 15.1483 16.7451 15.7783 16.4999 16.2596C16.2842 16.683 15.94 17.0272 15.5166 17.2429C15.0353 17.4882 14.4052 17.4882 13.1451 17.4882H5.34512C4.085 17.4882 3.45494 17.4882 2.97364 17.2429C2.55027 17.0272 2.20607 16.683 1.99035 16.2596C1.74512 15.7783 1.74512 15.1483 1.74512 13.8882V6.08816C1.74512 4.82804 1.74512 4.19798 1.99035 3.71668C2.20607 3.29332 2.55027 2.94911 2.97364 2.73339C3.45494 2.48816 4.085 2.48816 5.34512 2.48816H9.24512M1.85425 15.9329C2.20611 14.6671 3.36704 13.7382 4.74494 13.7382H9.99494C10.6919 13.7382 11.0404 13.7382 11.3302 13.7958C12.5203 14.0325 13.4506 14.9628 13.6873 16.1529C13.7449 16.4427 13.7449 16.7912 13.7449 17.4882M10.7451 8.11316C10.7451 9.77001 9.40197 11.1132 7.74512 11.1132C6.08826 11.1132 4.74512 9.77001 4.74512 8.11316C4.74512 6.45631 6.08826 5.11316 7.74512 5.11316C9.40197 5.11316 10.7451 6.45631 10.7451 8.11316Z" stroke="#98A2B3" stroke-width="1.5" stroke-linecap="round" stroke-linejoin="round"/>
</g>
<defs>
<clipPath id="clip0_1_9911">
<rect width="18" height="18" fill="white" transform="translate(0.245117 0.988281)"/>
</clipPath>
</defs>
</svg>
