<svg width="19" height="19" viewBox="0 0 19 19" fill="none" xmlns="http://www.w3.org/2000/svg">
<path d="M12.2373 4.73816L14.4873 2.48816M14.4873 2.48816L16.7373 4.73816M14.4873 2.48816V6.98816M9.61231 3.23816H6.0873C4.82719 3.23816 4.19713 3.23816 3.71583 3.48339C3.29246 3.69911 2.94826 4.04332 2.73254 4.46668C2.4873 4.94798 2.4873 5.57804 2.4873 6.83816V13.1382C2.4873 14.3983 2.4873 15.0283 2.73254 15.5096C2.94826 15.933 3.29246 16.2772 3.71583 16.4929C4.19713 16.7382 4.82719 16.7382 6.0873 16.7382H12.9873C13.6848 16.7382 14.0335 16.7382 14.3196 16.6615C15.0961 16.4534 15.7026 15.847 15.9106 15.0705C15.9873 14.7844 15.9873 14.4356 15.9873 13.7382M8.11231 7.36316C8.11231 8.19159 7.44073 8.86316 6.61231 8.86316C5.78388 8.86316 5.1123 8.19159 5.1123 7.36316C5.1123 6.53473 5.78388 5.86316 6.61231 5.86316C7.44073 5.86316 8.11231 6.53473 8.11231 7.36316ZM11.4798 9.92677L5.13567 15.6942C4.77883 16.0186 4.60041 16.1808 4.58463 16.3213C4.57095 16.4431 4.61765 16.5639 4.70969 16.6448C4.81589 16.7382 5.05702 16.7382 5.53927 16.7382H12.5793C13.6587 16.7382 14.1984 16.7382 14.6222 16.5568C15.1544 16.3292 15.5783 15.9052 15.806 15.3731C15.9873 14.9492 15.9873 14.4095 15.9873 13.3301C15.9873 12.967 15.9873 12.7854 15.9476 12.6163C15.8977 12.4038 15.802 12.2047 15.6672 12.033C15.56 11.8963 15.4182 11.7829 15.1346 11.556L13.0367 9.87766C12.7528 9.65059 12.6109 9.53706 12.4547 9.49699C12.3169 9.46168 12.172 9.46625 12.0367 9.51018C11.8833 9.56002 11.7488 9.68227 11.4798 9.92677Z" stroke="#98A2B3" stroke-width="1.5" stroke-linecap="round" stroke-linejoin="round"/>
</svg>
