<svg width="19" height="19" viewBox="0 0 19 19" fill="none" xmlns="http://www.w3.org/2000/svg">
<path d="M16.4771 7.92566H11.9771M16.4771 3.98816H2.97705M16.4771 12.0507H11.9771M16.4771 15.9882H2.97705M4.17705 12.9882H7.77705C8.19709 12.9882 8.40711 12.9882 8.56754 12.9064C8.70867 12.8345 8.8234 12.7198 8.89531 12.5787C8.97705 12.4182 8.97705 12.2082 8.97705 11.7882V8.18816C8.97705 7.76812 8.97705 7.5581 8.89531 7.39767C8.8234 7.25655 8.70867 7.14181 8.56754 7.0699C8.40711 6.98816 8.19709 6.98816 7.77705 6.98816H4.17705C3.75701 6.98816 3.54699 6.98816 3.38656 7.0699C3.24544 7.14181 3.1307 7.25655 3.0588 7.39767C2.97705 7.5581 2.97705 7.76812 2.97705 8.18816V11.7882C2.97705 12.2082 2.97705 12.4182 3.0588 12.5787C3.1307 12.7198 3.24544 12.8345 3.38656 12.9064C3.54699 12.9882 3.75701 12.9882 4.17705 12.9882Z" stroke="#98A2B3" stroke-width="1.5" stroke-linecap="round" stroke-linejoin="round"/>
</svg>
