<svg width="19" height="19" viewBox="0 0 19 19" fill="none" xmlns="http://www.w3.org/2000/svg">
<path d="M12.7236 4.73816L14.2236 6.23816L17.2236 3.23816M10.0986 3.23816H6.57363C5.31351 3.23816 4.68346 3.23816 4.20215 3.48339C3.77879 3.69911 3.43458 4.04332 3.21887 4.46668C2.97363 4.94798 2.97363 5.57804 2.97363 6.83816V13.1382C2.97363 14.3983 2.97363 15.0283 3.21887 15.5096C3.43458 15.933 3.77879 16.2772 4.20215 16.4929C4.68346 16.7382 5.31351 16.7382 6.57363 16.7382H13.4736C14.1711 16.7382 14.5199 16.7382 14.806 16.6615C15.5824 16.4534 16.1889 15.847 16.397 15.0705C16.4736 14.7844 16.4736 14.4356 16.4736 13.7382M8.59863 7.36316C8.59863 8.19159 7.92706 8.86316 7.09863 8.86316C6.27021 8.86316 5.59863 8.19159 5.59863 7.36316C5.59863 6.53473 6.27021 5.86316 7.09863 5.86316C7.92706 5.86316 8.59863 6.53473 8.59863 7.36316ZM11.9662 9.92677L5.62199 15.6942C5.26516 16.0186 5.08674 16.1808 5.07095 16.3213C5.05727 16.4431 5.10397 16.5639 5.19602 16.6448C5.30222 16.7382 5.54334 16.7382 6.0256 16.7382H13.0656C14.145 16.7382 14.6847 16.7382 15.1086 16.5568C15.6407 16.3292 16.0647 15.9052 16.2923 15.3731C16.4736 14.9492 16.4736 14.4095 16.4736 13.3301C16.4736 12.967 16.4736 12.7854 16.4339 12.6163C16.384 12.4038 16.2884 12.2047 16.1536 12.033C16.0463 11.8963 15.9045 11.7829 15.6209 11.556L13.523 9.87766C13.2392 9.65059 13.0973 9.53706 12.941 9.49699C12.8032 9.46168 12.6583 9.46625 12.523 9.51018C12.3696 9.56002 12.2351 9.68227 11.9662 9.92677Z" stroke="#98A2B3" stroke-width="1.5" stroke-linecap="round" stroke-linejoin="round"/>
</svg>
