<svg width="19" height="19" viewBox="0 0 19 19" fill="none" xmlns="http://www.w3.org/2000/svg">
<g clip-path="url(#clip0_1_9913)">
<path d="M14.9971 6.98816V2.48816M12.7471 4.73816H17.2471M17.2471 9.98816V13.8882C17.2471 15.1483 17.2471 15.7783 17.0018 16.2596C16.7861 16.683 16.4419 17.0272 16.0185 17.2429C15.5372 17.4882 14.9072 17.4882 13.6471 17.4882H5.84707C4.58695 17.4882 3.95689 17.4882 3.47559 17.2429C3.05223 17.0272 2.70802 16.683 2.49231 16.2596C2.24707 15.7783 2.24707 15.1483 2.24707 13.8882V6.08816C2.24707 4.82804 2.24707 4.19798 2.49231 3.71668C2.70802 3.29332 3.05223 2.94911 3.47559 2.73339C3.95689 2.48816 4.58695 2.48816 5.84707 2.48816H9.74707M2.35638 15.9329C2.70823 14.6671 3.86917 13.7382 5.24707 13.7382H10.4971C11.1941 13.7382 11.5425 13.7382 11.8323 13.7958C13.0224 14.0325 13.9527 14.9628 14.1894 16.1529C14.2471 16.4427 14.2471 16.7912 14.2471 17.4882M11.2471 8.11316C11.2471 9.77001 9.90393 11.1132 8.24707 11.1132C6.59022 11.1132 5.24707 9.77001 5.24707 8.11316C5.24707 6.45631 6.59022 5.11316 8.24707 5.11316C9.90393 5.11316 11.2471 6.45631 11.2471 8.11316Z" stroke="#98A2B3" stroke-width="1.5" stroke-linecap="round" stroke-linejoin="round"/>
</g>
<defs>
<clipPath id="clip0_1_9913">
<rect width="18" height="18" fill="white" transform="translate(0.74707 0.988281)"/>
</clipPath>
</defs>
</svg>
