<svg width="19" height="19" viewBox="0 0 19 19" fill="none" xmlns="http://www.w3.org/2000/svg">
<path d="M2.96924 6.83816C2.96924 5.57804 2.96924 4.94798 3.21447 4.46668C3.43019 4.04332 3.7744 3.69911 4.19776 3.48339C4.67906 3.23816 5.30912 3.23816 6.56924 3.23816H12.8692C14.1294 3.23816 14.7594 3.23816 15.2407 3.48339C15.6641 3.69911 16.0083 4.04332 16.224 4.46668C16.4692 4.94798 16.4692 5.57804 16.4692 6.83816V13.1382C16.4692 14.3983 16.4692 15.0283 16.224 15.5096C16.0083 15.933 15.6641 16.2772 15.2407 16.4929C14.7594 16.7382 14.1294 16.7382 12.8692 16.7382H6.56924C5.30912 16.7382 4.67906 16.7382 4.19776 16.4929C3.7744 16.2772 3.43019 15.933 3.21447 15.5096C2.96924 15.0283 2.96924 14.3983 2.96924 13.1382V6.83816Z" stroke="#98A2B3" stroke-width="1.5" stroke-linecap="round" stroke-linejoin="round"/>
<path d="M7.46924 8.11316L5.21924 12.2382H14.2192L10.8442 6.61316L8.96924 9.23816L7.46924 8.11316Z" stroke="#98A2B3" stroke-width="1.5" stroke-linecap="round" stroke-linejoin="round"/>
</svg>
