<svg width="19" height="19" viewBox="0 0 19 19" fill="none" xmlns="http://www.w3.org/2000/svg">
<path d="M14.9854 6.98816L17.2354 4.73816M17.2354 4.73816L14.9854 2.48816M17.2354 4.73816L12.7354 4.73816M10.1104 3.23816H6.58535C5.32523 3.23816 4.69517 3.23816 4.21387 3.48339C3.79051 3.69911 3.4463 4.04332 3.23059 4.46668C2.98535 4.94798 2.98535 5.57804 2.98535 6.83816V13.1382C2.98535 14.3983 2.98535 15.0283 3.23059 15.5096C3.4463 15.933 3.79051 16.2772 4.21387 16.4929C4.69517 16.7382 5.32523 16.7382 6.58535 16.7382H13.4854C14.1828 16.7382 14.5316 16.7382 14.8177 16.6615C15.5942 16.4534 16.2006 15.847 16.4087 15.0705C16.4854 14.7844 16.4854 14.4356 16.4854 13.7382M8.61035 7.36316C8.61035 8.19159 7.93878 8.86316 7.11035 8.86316C6.28192 8.86316 5.61035 8.19159 5.61035 7.36316C5.61035 6.53473 6.28192 5.86316 7.11035 5.86316C7.93878 5.86316 8.61035 6.53473 8.61035 7.36316ZM11.9779 9.92677L5.63371 15.6942C5.27687 16.0186 5.09845 16.1808 5.08267 16.3213C5.06899 16.4431 5.11569 16.5639 5.20774 16.6448C5.31394 16.7382 5.55506 16.7382 6.03732 16.7382H13.0773C14.1567 16.7382 14.6964 16.7382 15.1203 16.5568C15.6524 16.3292 16.0764 15.9052 16.304 15.3731C16.4854 14.9492 16.4854 14.4095 16.4854 13.3301C16.4854 12.967 16.4854 12.7854 16.4457 12.6163C16.3958 12.4038 16.3001 12.2047 16.1653 12.033C16.058 11.8963 15.9162 11.7829 15.6327 11.556L13.5347 9.87766C13.2509 9.65059 13.109 9.53706 12.9527 9.49699C12.815 9.46168 12.67 9.46625 12.5348 9.51018C12.3813 9.56002 12.2468 9.68227 11.9779 9.92677Z" stroke="#98A2B3" stroke-width="1.5" stroke-linecap="round" stroke-linejoin="round"/>
</svg>
