<svg width="19" height="19" viewBox="0 0 19 19" fill="none" xmlns="http://www.w3.org/2000/svg">
<path d="M12.2251 4.73816L14.4751 6.98816M14.4751 6.98816L16.7251 4.73816M14.4751 6.98816V2.48816M9.6001 3.23816H6.0751C4.81498 3.23816 4.18492 3.23816 3.70362 3.48339C3.28025 3.69911 2.93605 4.04332 2.72033 4.46668C2.4751 4.94798 2.4751 5.57804 2.4751 6.83816V13.1382C2.4751 14.3983 2.4751 15.0283 2.72033 15.5096C2.93605 15.933 3.28025 16.2772 3.70362 16.4929C4.18492 16.7382 4.81498 16.7382 6.0751 16.7382H12.9751C13.6726 16.7382 14.0213 16.7382 14.3074 16.6615C15.0839 16.4534 15.6904 15.847 15.8984 15.0705C15.9751 14.7844 15.9751 14.4356 15.9751 13.7382M8.1001 7.36316C8.1001 8.19159 7.42853 8.86316 6.6001 8.86316C5.77167 8.86316 5.1001 8.19159 5.1001 7.36316C5.1001 6.53473 5.77167 5.86316 6.6001 5.86316C7.42853 5.86316 8.1001 6.53473 8.1001 7.36316ZM11.4676 9.92677L5.12346 15.6942C4.76662 16.0186 4.5882 16.1808 4.57242 16.3213C4.55874 16.4431 4.60544 16.5639 4.69749 16.6448C4.80368 16.7382 5.04481 16.7382 5.52706 16.7382H12.5671C13.6465 16.7382 14.1861 16.7382 14.61 16.5568C15.1422 16.3292 15.5661 15.9052 15.7938 15.3731C15.9751 14.9492 15.9751 14.4095 15.9751 13.3301C15.9751 12.967 15.9751 12.7854 15.9354 12.6163C15.8855 12.4038 15.7898 12.2047 15.655 12.033C15.5478 11.8963 15.406 11.7829 15.1224 11.556L13.0245 9.87766C12.7406 9.65059 12.5987 9.53706 12.4424 9.49699C12.3047 9.46168 12.1597 9.46625 12.0245 9.51018C11.8711 9.56002 11.7366 9.68227 11.4676 9.92677Z" stroke="#98A2B3" stroke-width="1.5" stroke-linecap="round" stroke-linejoin="round"/>
</svg>
