<svg width="19" height="19" viewBox="0 0 19 19" fill="none" xmlns="http://www.w3.org/2000/svg">
<path d="M13.1299 2.86316L16.8799 6.61316M16.8799 2.86316L13.1299 6.61316M10.1299 3.23816H6.60488C5.34477 3.23816 4.71471 3.23816 4.2334 3.48339C3.81004 3.69911 3.46583 4.04332 3.25012 4.46668C3.00488 4.94798 3.00488 5.57804 3.00488 6.83816V13.1382C3.00488 14.3983 3.00488 15.0283 3.25012 15.5096C3.46583 15.933 3.81004 16.2772 4.2334 16.4929C4.71471 16.7382 5.34476 16.7382 6.60488 16.7382H13.5049C14.2024 16.7382 14.5511 16.7382 14.8372 16.6615C15.6137 16.4534 16.2202 15.847 16.4282 15.0705C16.5049 14.7844 16.5049 14.4356 16.5049 13.7382M8.62988 7.36316C8.62988 8.19159 7.95831 8.86316 7.12988 8.86316C6.30146 8.86316 5.62988 8.19159 5.62988 7.36316C5.62988 6.53473 6.30146 5.86316 7.12988 5.86316C7.95831 5.86316 8.62988 6.53473 8.62988 7.36316ZM11.9974 9.92677L5.65324 15.6942C5.29641 16.0186 5.11799 16.1808 5.1022 16.3213C5.08852 16.4431 5.13522 16.5639 5.22727 16.6448C5.33347 16.7382 5.57459 16.7382 6.05685 16.7382H13.0969C14.1762 16.7382 14.7159 16.7382 15.1398 16.5568C15.672 16.3292 16.0959 15.9052 16.3236 15.3731C16.5049 14.9492 16.5049 14.4095 16.5049 13.3301C16.5049 12.967 16.5049 12.7854 16.4652 12.6163C16.4153 12.4038 16.3196 12.2047 16.1848 12.033C16.0776 11.8963 15.9358 11.7829 15.6522 11.556L13.5543 9.87766C13.2704 9.65059 13.1285 9.53706 12.9722 9.49699C12.8345 9.46168 12.6895 9.46625 12.5543 9.51018C12.4008 9.56002 12.2664 9.68227 11.9974 9.92677Z" stroke="#98A2B3" stroke-width="1.5" stroke-linecap="round" stroke-linejoin="round"/>
</svg>
