<svg width="19" height="19" viewBox="0 0 19 19" fill="none" xmlns="http://www.w3.org/2000/svg">
<path d="M14.9805 6.98816L12.7305 4.73816M12.7305 4.73816L14.9805 2.48816M12.7305 4.73816L17.2305 4.73816M10.1055 3.23816H6.58047C5.32035 3.23816 4.69029 3.23816 4.20899 3.48339C3.78563 3.69911 3.44142 4.04332 3.2257 4.46668C2.98047 4.94798 2.98047 5.57804 2.98047 6.83816V13.1382C2.98047 14.3983 2.98047 15.0283 3.2257 15.5096C3.44142 15.933 3.78563 16.2772 4.20899 16.4929C4.69029 16.7382 5.32035 16.7382 6.58047 16.7382H13.4805C14.1779 16.7382 14.5267 16.7382 14.8128 16.6615C15.5893 16.4534 16.1958 15.847 16.4038 15.0705C16.4805 14.7844 16.4805 14.4356 16.4805 13.7382M8.60547 7.36316C8.60547 8.19159 7.9339 8.86316 7.10547 8.86316C6.27704 8.86316 5.60547 8.19159 5.60547 7.36316C5.60547 6.53473 6.27704 5.86316 7.10547 5.86316C7.9339 5.86316 8.60547 6.53473 8.60547 7.36316ZM11.973 9.92677L5.62883 15.6942C5.27199 16.0186 5.09357 16.1808 5.07779 16.3213C5.06411 16.4431 5.11081 16.5639 5.20286 16.6448C5.30905 16.7382 5.55018 16.7382 6.03243 16.7382H13.0725C14.1518 16.7382 14.6915 16.7382 15.1154 16.5568C15.6475 16.3292 16.0715 15.9052 16.2991 15.3731C16.4805 14.9492 16.4805 14.4095 16.4805 13.3301C16.4805 12.967 16.4805 12.7854 16.4408 12.6163C16.3909 12.4038 16.2952 12.2047 16.1604 12.033C16.0532 11.8963 15.9114 11.7829 15.6278 11.556L13.5298 9.87766C13.246 9.65059 13.1041 9.53706 12.9478 9.49699C12.8101 9.46168 12.6651 9.46625 12.5299 9.51018C12.3764 9.56002 12.2419 9.68227 11.973 9.92677Z" stroke="#98A2B3" stroke-width="1.5" stroke-linecap="round" stroke-linejoin="round"/>
</svg>
