<svg width="19" height="19" viewBox="0 0 19 19" fill="none" xmlns="http://www.w3.org/2000/svg">
<g clip-path="url(#clip0_1_9887)">
<path d="M3.42135 16.5341L8.36876 11.5867C8.66577 11.2897 8.81428 11.1412 8.98552 11.0855C9.13616 11.0366 9.29842 11.0366 9.44905 11.0855C9.62029 11.1412 9.76881 11.2897 10.0658 11.5867L14.9802 16.5011M10.7173 12.2382L12.8688 10.0867C13.1658 9.78968 13.3143 9.64117 13.4855 9.58553C13.6362 9.53658 13.7984 9.53658 13.949 9.58553C14.1203 9.64117 14.2688 9.78968 14.5658 10.0867L16.7173 12.2382M7.71729 7.73816C7.71729 8.56659 7.04571 9.23816 6.21729 9.23816C5.38886 9.23816 4.71729 8.56659 4.71729 7.73816C4.71729 6.90973 5.38886 6.23816 6.21729 6.23816C7.04571 6.23816 7.71729 6.90973 7.71729 7.73816ZM5.31729 16.7382H13.1173C14.3774 16.7382 15.0075 16.7382 15.4888 16.4929C15.9121 16.2772 16.2563 15.933 16.4721 15.5096C16.7173 15.0283 16.7173 14.3983 16.7173 13.1382V6.83816C16.7173 5.57804 16.7173 4.94798 16.4721 4.46668C16.2563 4.04332 15.9121 3.69911 15.4888 3.48339C15.0075 3.23816 14.3774 3.23816 13.1173 3.23816H5.31729C4.05717 3.23816 3.42711 3.23816 2.94581 3.48339C2.52244 3.69911 2.17824 4.04332 1.96252 4.46668C1.71729 4.94798 1.71729 5.57804 1.71729 6.83816V13.1382C1.71729 14.3983 1.71729 15.0283 1.96252 15.5096C2.17824 15.933 2.52244 16.2772 2.94581 16.4929C3.42711 16.7382 4.05717 16.7382 5.31729 16.7382Z" stroke="#98A2B3" stroke-width="1.5" stroke-linecap="round" stroke-linejoin="round"/>
</g>
<defs>
<clipPath id="clip0_1_9887">
<rect width="18" height="18" fill="white" transform="translate(0.217285 0.988281)"/>
</clipPath>
</defs>
</svg>
