<svg width="19" height="19" viewBox="0 0 19 19" fill="none" xmlns="http://www.w3.org/2000/svg">
<g clip-path="url(#clip0_1_9917)">
<path d="M12.751 4.73816L15.001 2.48816M15.001 2.48816L17.251 4.73816M15.001 2.48816V6.98816M17.251 9.98816V13.8882C17.251 15.1483 17.251 15.7783 17.0057 16.2596C16.79 16.683 16.4458 17.0272 16.0225 17.2429C15.5412 17.4882 14.9111 17.4882 13.651 17.4882H5.85098C4.59086 17.4882 3.9608 17.4882 3.4795 17.2429C3.05613 17.0272 2.71193 16.683 2.49621 16.2596C2.25098 15.7783 2.25098 15.1483 2.25098 13.8882V6.08816C2.25098 4.82804 2.25098 4.19798 2.49621 3.71668C2.71193 3.29332 3.05613 2.94911 3.4795 2.73339C3.9608 2.48816 4.59086 2.48816 5.85098 2.48816H9.75098M2.36011 15.9329C2.71196 14.6671 3.8729 13.7382 5.2508 13.7382H10.5008C11.1978 13.7382 11.5463 13.7382 11.8361 13.7958C13.0261 14.0325 13.9564 14.9628 14.1932 16.1529C14.2508 16.4427 14.2508 16.7912 14.2508 17.4882M11.251 8.11316C11.251 9.77001 9.90783 11.1132 8.25098 11.1132C6.59412 11.1132 5.25098 9.77001 5.25098 8.11316C5.25098 6.45631 6.59412 5.11316 8.25098 5.11316C9.90783 5.11316 11.251 6.45631 11.251 8.11316Z" stroke="#98A2B3" stroke-width="1.5" stroke-linecap="round" stroke-linejoin="round"/>
</g>
<defs>
<clipPath id="clip0_1_9917">
<rect width="18" height="18" fill="white" transform="translate(0.750977 0.988281)"/>
</clipPath>
</defs>
</svg>
