<svg width="19" height="19" viewBox="0 0 19 19" fill="none" xmlns="http://www.w3.org/2000/svg">
<path d="M9.60742 3.23816H6.08242C4.8223 3.23816 4.19224 3.23816 3.71094 3.48339C3.28758 3.69911 2.94337 4.04332 2.72766 4.46668C2.48242 4.94798 2.48242 5.57804 2.48242 6.83816V13.1382C2.48242 14.3983 2.48242 15.0283 2.72766 15.5096C2.94337 15.933 3.28758 16.2772 3.71094 16.4929C4.19224 16.7382 4.8223 16.7382 6.08242 16.7382H12.9824C13.6799 16.7382 14.0286 16.7382 14.3148 16.6615C15.0912 16.4534 15.6977 15.847 15.9058 15.0705C15.9824 14.7844 15.9824 14.4356 15.9824 13.7382M14.4824 6.98816V2.48816M12.2324 4.73816H16.7324M8.10742 7.36316C8.10742 8.19159 7.43585 8.86316 6.60742 8.86316C5.779 8.86316 5.10742 8.19159 5.10742 7.36316C5.10742 6.53473 5.779 5.86316 6.60742 5.86316C7.43585 5.86316 8.10742 6.53473 8.10742 7.36316ZM11.475 9.92677L5.13078 15.6942C4.77394 16.0186 4.59552 16.1808 4.57974 16.3213C4.56606 16.4431 4.61276 16.5639 4.70481 16.6448C4.81101 16.7382 5.05213 16.7382 5.53439 16.7382H12.5744C13.6538 16.7382 14.1935 16.7382 14.6174 16.5568C15.1495 16.3292 15.5735 15.9052 15.8011 15.3731C15.9824 14.9492 15.9824 14.4095 15.9824 13.3301C15.9824 12.967 15.9824 12.7854 15.9427 12.6163C15.8928 12.4038 15.7972 12.2047 15.6624 12.033C15.5551 11.8963 15.4133 11.7829 15.1297 11.556L13.0318 9.87766C12.748 9.65059 12.606 9.53706 12.4498 9.49699C12.312 9.46168 12.1671 9.46625 12.0318 9.51018C11.8784 9.56002 11.7439 9.68227 11.475 9.92677Z" stroke="#98A2B3" stroke-width="1.5" stroke-linecap="round" stroke-linejoin="round"/>
</svg>
