<svg width="19" height="19" viewBox="0 0 19 19" fill="none" xmlns="http://www.w3.org/2000/svg">
<g clip-path="url(#clip0_1_9891)">
<path d="M14.4711 16.7382H15.2288C15.9572 16.7382 16.3214 16.7382 16.5221 16.5863C16.697 16.454 16.8053 16.2518 16.8183 16.0329C16.8333 15.7816 16.6313 15.4786 16.2273 14.8725L13.9695 11.4859C13.6357 10.9851 13.4687 10.7347 13.2584 10.6475C13.0744 10.5712 12.8677 10.5712 12.6837 10.6475C12.4734 10.7347 12.3064 10.9851 11.9726 11.4859L11.4144 12.3231M14.4711 16.7382L8.70768 8.41329C8.37623 7.93452 8.2105 7.69514 8.00349 7.61099C7.82239 7.53737 7.61971 7.53737 7.43862 7.61099C7.2316 7.69514 7.06588 7.93452 6.73442 8.41329L2.2747 14.8551C1.85243 15.4651 1.6413 15.77 1.65332 16.0237C1.66379 16.2446 1.7712 16.4496 1.94686 16.5839C2.14855 16.7382 2.51948 16.7382 3.26133 16.7382H14.4711ZM15.9711 5.48816C15.9711 6.7308 14.9637 7.73816 13.7211 7.73816C12.4784 7.73816 11.4711 6.7308 11.4711 5.48816C11.4711 4.24552 12.4784 3.23816 13.7211 3.23816C14.9637 3.23816 15.9711 4.24552 15.9711 5.48816Z" stroke="#98A2B3" stroke-width="1.5" stroke-linecap="round" stroke-linejoin="round"/>
</g>
<defs>
<clipPath id="clip0_1_9891">
<rect width="18" height="18" fill="white" transform="translate(0.221191 0.988281)"/>
</clipPath>
</defs>
</svg>
