<svg width="19" height="19" viewBox="0 0 19 19" fill="none" xmlns="http://www.w3.org/2000/svg">
<g clip-path="url(#clip0_1_9915)">
<path d="M14.499 6.98816L16.749 4.73816M16.749 4.73816L14.499 2.48816M16.749 4.73816L12.249 4.73816M16.749 9.98816V13.8882C16.749 15.1483 16.749 15.7783 16.5038 16.2596C16.2881 16.683 15.9439 17.0272 15.5205 17.2429C15.0392 17.4882 14.4091 17.4882 13.149 17.4882H5.34902C4.08891 17.4882 3.45885 17.4882 2.97754 17.2429C2.55418 17.0272 2.20997 16.683 1.99426 16.2596C1.74902 15.7783 1.74902 15.1483 1.74902 13.8882V6.08816C1.74902 4.82804 1.74902 4.19798 1.99426 3.71668C2.20997 3.29332 2.55418 2.94911 2.97754 2.73339C3.45885 2.48816 4.08891 2.48816 5.34902 2.48816H9.24902M1.85815 15.9329C2.21001 14.6671 3.37095 13.7382 4.74885 13.7382H9.99885C10.6958 13.7382 11.0443 13.7382 11.3341 13.7958C12.5242 14.0325 13.4545 14.9628 13.6912 16.1529C13.7489 16.4427 13.7489 16.7912 13.7489 17.4882M10.749 8.11316C10.749 9.77001 9.40588 11.1132 7.74902 11.1132C6.09217 11.1132 4.74902 9.77001 4.74902 8.11316C4.74902 6.45631 6.09217 5.11316 7.74902 5.11316C9.40588 5.11316 10.749 6.45631 10.749 8.11316Z" stroke="#98A2B3" stroke-width="1.5" stroke-linecap="round" stroke-linejoin="round"/>
</g>
<defs>
<clipPath id="clip0_1_9915">
<rect width="18" height="18" fill="white" transform="translate(0.249023 0.988281)"/>
</clipPath>
</defs>
</svg>
