<svg width="19" height="19" viewBox="0 0 19 19" fill="none" xmlns="http://www.w3.org/2000/svg">
<g clip-path="url(#clip0_1_9907)">
<path d="M12.2412 4.73816L13.7412 6.23816L16.7412 3.23816M16.7412 9.98816V13.8882C16.7412 15.1483 16.7412 15.7783 16.496 16.2596C16.2803 16.683 15.9361 17.0272 15.5127 17.2429C15.0314 17.4882 14.4013 17.4882 13.1412 17.4882H5.34121C4.08109 17.4882 3.45103 17.4882 2.96973 17.2429C2.54637 17.0272 2.20216 16.683 1.98645 16.2596C1.74121 15.7783 1.74121 15.1483 1.74121 13.8882V6.08816C1.74121 4.82804 1.74121 4.19798 1.98645 3.71668C2.20216 3.29332 2.54637 2.94911 2.96973 2.73339C3.45103 2.48816 4.08109 2.48816 5.34121 2.48816H9.24121M1.85034 15.9329C2.2022 14.6671 3.36313 13.7382 4.74104 13.7382H9.99104C10.688 13.7382 11.0365 13.7382 11.3263 13.7958C12.5164 14.0325 13.4467 14.9628 13.6834 16.1529C13.741 16.4427 13.741 16.7912 13.741 17.4882M10.7412 8.11316C10.7412 9.77001 9.39807 11.1132 7.74121 11.1132C6.08436 11.1132 4.74121 9.77001 4.74121 8.11316C4.74121 6.45631 6.08436 5.11316 7.74121 5.11316C9.39807 5.11316 10.7412 6.45631 10.7412 8.11316Z" stroke="#98A2B3" stroke-width="1.5" stroke-linecap="round" stroke-linejoin="round"/>
</g>
<defs>
<clipPath id="clip0_1_9907">
<rect width="18" height="18" fill="white" transform="translate(0.241211 0.988281)"/>
</clipPath>
</defs>
</svg>
