<svg width="19" height="19" viewBox="0 0 19 19" fill="none" xmlns="http://www.w3.org/2000/svg">
<path d="M12.3634 16.7382H5.41191C4.95755 16.7382 4.73036 16.7382 4.62517 16.6483C4.53389 16.5704 4.48545 16.4534 4.49487 16.3337C4.50572 16.1958 4.66636 16.0352 4.98764 15.7139L11.3649 9.33669C11.6619 9.03968 11.8104 8.89117 11.9816 8.83553C12.1323 8.78658 12.2945 8.78658 12.4451 8.83553C12.6164 8.89117 12.7649 9.03968 13.0619 9.33669L15.9634 12.2382V13.1382M12.3634 16.7382C13.6235 16.7382 14.2536 16.7382 14.7349 16.4929C15.1582 16.2772 15.5024 15.933 15.7181 15.5096C15.9634 15.0283 15.9634 14.3983 15.9634 13.1382M12.3634 16.7382H6.06338C4.80326 16.7382 4.1732 16.7382 3.6919 16.4929C3.26854 16.2772 2.92433 15.933 2.70861 15.5096C2.46338 15.0283 2.46338 14.3983 2.46338 13.1382V6.83816C2.46338 5.57804 2.46338 4.94798 2.70861 4.46668C2.92433 4.04332 3.26854 3.69911 3.6919 3.48339C4.1732 3.23816 4.80326 3.23816 6.06338 3.23816H12.3634C13.6235 3.23816 14.2536 3.23816 14.7349 3.48339C15.1582 3.69911 15.5024 4.04332 15.7181 4.46668C15.9634 4.94798 15.9634 5.57804 15.9634 6.83816V13.1382M8.08838 7.36316C8.08838 8.19159 7.41681 8.86316 6.58838 8.86316C5.75995 8.86316 5.08838 8.19159 5.08838 7.36316C5.08838 6.53473 5.75995 5.86316 6.58838 5.86316C7.41681 5.86316 8.08838 6.53473 8.08838 7.36316Z" stroke="#98A2B3" stroke-width="1.5" stroke-linecap="round" stroke-linejoin="round"/>
</svg>
