<svg width="19" height="19" viewBox="0 0 19 19" fill="none" xmlns="http://www.w3.org/2000/svg">
<g clip-path="url(#clip0_1_9919)">
<path d="M12.6279 2.86316L16.3779 6.61316M16.3779 2.86316L12.6279 6.61316M16.7529 9.98816V13.8882C16.7529 15.1483 16.7529 15.7783 16.5077 16.2596C16.292 16.683 15.9478 17.0272 15.5244 17.2429C15.0431 17.4882 14.413 17.4882 13.1529 17.4882H5.35293C4.09281 17.4882 3.46275 17.4882 2.98145 17.2429C2.55809 17.0272 2.21388 16.683 1.99817 16.2596C1.75293 15.7783 1.75293 15.1483 1.75293 13.8882V6.08816C1.75293 4.82804 1.75293 4.19798 1.99817 3.71668C2.21388 3.29332 2.55809 2.94911 2.98145 2.73339C3.46275 2.48816 4.09281 2.48816 5.35293 2.48816H9.25293M1.86206 15.9329C2.21392 14.6671 3.37485 13.7382 4.75276 13.7382H10.0028C10.6997 13.7382 11.0482 13.7382 11.338 13.7958C12.5281 14.0325 13.4584 14.9628 13.6951 16.1529C13.7528 16.4427 13.7528 16.7912 13.7528 17.4882M10.7529 8.11316C10.7529 9.77001 9.40978 11.1132 7.75293 11.1132C6.09608 11.1132 4.75293 9.77001 4.75293 8.11316C4.75293 6.45631 6.09608 5.11316 7.75293 5.11316C9.40978 5.11316 10.7529 6.45631 10.7529 8.11316Z" stroke="#98A2B3" stroke-width="1.5" stroke-linecap="round" stroke-linejoin="round"/>
</g>
<defs>
<clipPath id="clip0_1_9919">
<rect width="18" height="18" fill="white" transform="translate(0.25293 0.988281)"/>
</clipPath>
</defs>
</svg>
