<svg width="19" height="19" viewBox="0 0 19 19" fill="none" xmlns="http://www.w3.org/2000/svg">
<path d="M15.979 3.98816H2.479M15.979 15.9882H2.479M6.979 7.92566H2.479M6.979 12.0507H2.479M11.179 12.9882H14.779C15.199 12.9882 15.4091 12.9882 15.5695 12.9064C15.7106 12.8345 15.8254 12.7198 15.8973 12.5787C15.979 12.4182 15.979 12.2082 15.979 11.7882V8.18816C15.979 7.76812 15.979 7.5581 15.8973 7.39767C15.8254 7.25655 15.7106 7.14181 15.5695 7.0699C15.4091 6.98816 15.199 6.98816 14.779 6.98816H11.179C10.759 6.98816 10.5489 6.98816 10.3885 7.0699C10.2474 7.14181 10.1327 7.25655 10.0608 7.39767C9.97901 7.5581 9.97901 7.76812 9.97901 8.18816V11.7882C9.97901 12.2082 9.97901 12.4182 10.0608 12.5787C10.1327 12.7198 10.2474 12.8345 10.3885 12.9064C10.5489 12.9882 10.759 12.9882 11.179 12.9882Z" stroke="#98A2B3" stroke-width="1.5" stroke-linecap="round" stroke-linejoin="round"/>
</svg>
