<svg width="19" height="19" viewBox="0 0 19 19" fill="none" xmlns="http://www.w3.org/2000/svg">
<g clip-path="url(#clip0_1_9905)">
<path d="M3.7383 17.3512C4.19023 17.4882 4.80065 17.4882 5.83828 17.4882H13.6383C14.6759 17.4882 15.2863 17.4882 15.7383 17.3512M3.7383 17.3512C3.6414 17.3219 3.55178 17.2862 3.4668 17.2429C3.04344 17.0272 2.69923 16.683 2.48352 16.2596C2.23828 15.7783 2.23828 15.1483 2.23828 13.8882V6.08816C2.23828 4.82804 2.23828 4.19798 2.48352 3.71668C2.69923 3.29332 3.04344 2.94911 3.4668 2.73339C3.9481 2.48816 4.57816 2.48816 5.83828 2.48816H13.6383C14.8984 2.48816 15.5285 2.48816 16.0098 2.73339C16.4331 2.94911 16.7773 3.29332 16.993 3.71668C17.2383 4.19798 17.2383 4.82804 17.2383 6.08816V13.8882C17.2383 15.1483 17.2383 15.7783 16.993 16.2596C16.7773 16.683 16.4331 17.0272 16.0098 17.2429C15.9248 17.2862 15.8352 17.3219 15.7383 17.3512M3.7383 17.3512C3.73855 16.7442 3.74219 16.4231 3.79593 16.1529C4.03265 14.9628 4.96294 14.0325 6.15301 13.7958C6.44281 13.7382 6.7913 13.7382 7.48828 13.7382H11.9883C12.6853 13.7382 13.0338 13.7382 13.3236 13.7958C14.5136 14.0325 15.4439 14.9628 15.6806 16.1529C15.7344 16.4231 15.738 16.7442 15.7383 17.3512M12.7383 8.11316C12.7383 9.77001 11.3951 11.1132 9.73828 11.1132C8.08143 11.1132 6.73828 9.77001 6.73828 8.11316C6.73828 6.45631 8.08143 5.11316 9.73828 5.11316C11.3951 5.11316 12.7383 6.45631 12.7383 8.11316Z" stroke="#98A2B3" stroke-width="1.5" stroke-linecap="round" stroke-linejoin="round"/>
</g>
<defs>
<clipPath id="clip0_1_9905">
<rect width="18" height="18" fill="white" transform="translate(0.738281 0.988281)"/>
</clipPath>
</defs>
</svg>
