<svg width="19" height="19" viewBox="0 0 19 19" fill="none" xmlns="http://www.w3.org/2000/svg">
<g clip-path="url(#clip0_1_9885)">
<path d="M5.21502 15.9885L11.8668 9.33669C12.1638 9.03968 12.3123 8.89117 12.4836 8.83553C12.6342 8.78658 12.7965 8.78658 12.9471 8.83553C13.1183 8.89117 13.2669 9.03968 13.5639 9.33669L16.7693 12.5421M8.59033 7.36316C8.59033 8.19159 7.91876 8.86316 7.09033 8.86316C6.26191 8.86316 5.59033 8.19159 5.59033 7.36316C5.59033 6.53473 6.26191 5.86316 7.09033 5.86316C7.91876 5.86316 8.59033 6.53473 8.59033 7.36316ZM17.2153 9.98816C17.2153 14.1303 13.8575 17.4882 9.71533 17.4882C5.5732 17.4882 2.21533 14.1303 2.21533 9.98816C2.21533 5.84602 5.5732 2.48816 9.71533 2.48816C13.8575 2.48816 17.2153 5.84602 17.2153 9.98816Z" stroke="#98A2B3" stroke-width="1.5" stroke-linecap="round" stroke-linejoin="round"/>
</g>
<defs>
<clipPath id="clip0_1_9885">
<rect width="18" height="18" fill="white" transform="translate(0.715332 0.988281)"/>
</clipPath>
</defs>
</svg>
