<svg width="19" height="19" viewBox="0 0 19 19" fill="none" xmlns="http://www.w3.org/2000/svg">
<path d="M4.46143 16.7382H14.9614C15.7899 16.7382 16.4614 16.0666 16.4614 15.2382V4.73816C16.4614 3.90973 15.7899 3.23816 14.9614 3.23816H4.46143C3.633 3.23816 2.96143 3.90973 2.96143 4.73816V15.2382C2.96143 16.0666 3.633 16.7382 4.46143 16.7382ZM4.46143 16.7382L12.7114 8.48816L16.4614 12.2382M8.21143 7.36316C8.21143 7.98448 7.70775 8.48816 7.08643 8.48816C6.46511 8.48816 5.96143 7.98448 5.96143 7.36316C5.96143 6.74184 6.46511 6.23816 7.08643 6.23816C7.70775 6.23816 8.21143 6.74184 8.21143 7.36316Z" stroke="#98A2B3" stroke-width="1.5" stroke-linecap="round" stroke-linejoin="round"/>
</svg>
