<svg width="19" height="19" viewBox="0 0 19 19" fill="none" xmlns="http://www.w3.org/2000/svg">
<g clip-path="url(#clip0_1_9941)">
<path d="M2.63379 9.98816H5.17026C5.68417 9.98816 6.15396 10.2785 6.38379 10.7382C6.61361 11.1978 7.08341 11.4882 7.59732 11.4882H11.9203C12.4342 11.4882 12.904 11.1978 13.1338 10.7382C13.3636 10.2785 13.8334 9.98816 14.3473 9.98816H16.8838M7.48371 3.98816H12.0339C12.8415 3.98816 13.2453 3.98816 13.6019 4.11113C13.9172 4.21988 14.2043 4.39736 14.4426 4.63072C14.712 4.89461 14.8926 5.25581 15.2538 5.97819L16.8787 9.22804C17.0205 9.51152 17.0913 9.65327 17.1413 9.80182C17.1857 9.93375 17.2178 10.0695 17.2371 10.2074C17.2588 10.3626 17.2588 10.5211 17.2588 10.838V12.3882C17.2588 13.6483 17.2588 14.2783 17.0136 14.7596C16.7978 15.183 16.4536 15.5272 16.0303 15.7429C15.549 15.9882 14.9189 15.9882 13.6588 15.9882H5.85879C4.59867 15.9882 3.96861 15.9882 3.48731 15.7429C3.06395 15.5272 2.71974 15.183 2.50402 14.7596C2.25879 14.2783 2.25879 13.6483 2.25879 12.3882V10.838C2.25879 10.5211 2.25879 10.3626 2.28052 10.2074C2.29982 10.0695 2.33187 9.93375 2.37625 9.80182C2.42623 9.65327 2.49711 9.51152 2.63885 9.22804L4.26377 5.97819C4.62497 5.2558 4.80557 4.89461 5.075 4.63072C5.31326 4.39736 5.60043 4.21988 5.91571 4.11113C6.27223 3.98816 6.67606 3.98816 7.48371 3.98816Z" stroke="#98A2B3" stroke-width="1.5" stroke-linecap="round" stroke-linejoin="round"/>
</g>
<defs>
<clipPath id="clip0_1_9941">
<rect width="18" height="18" fill="white" transform="translate(0.758789 0.988281)"/>
</clipPath>
</defs>
</svg>
