<svg width="19" height="19" viewBox="0 0 19 19" fill="none" xmlns="http://www.w3.org/2000/svg">
<path d="M16.7568 9.98816H12.2568L10.7568 12.2382H7.75684L6.25684 9.98816H1.75684M16.7568 9.98816V14.4882C16.7568 14.886 16.5988 15.2675 16.3175 15.5488C16.0362 15.8301 15.6547 15.9882 15.2568 15.9882H3.25684C2.85901 15.9882 2.47748 15.8301 2.19618 15.5488C1.91487 15.2675 1.75684 14.886 1.75684 14.4882V9.98816M16.7568 9.98816L14.1693 4.82066C14.0452 4.57075 13.8537 4.36044 13.6166 4.21337C13.3794 4.0663 13.1059 3.98831 12.8268 3.98816H5.68684C5.40777 3.98831 5.13428 4.0663 4.89712 4.21337C4.65996 4.36044 4.46852 4.57075 4.34434 4.82066L1.75684 9.98816" stroke="#98A2B3" stroke-width="1.5" stroke-linecap="round" stroke-linejoin="round"/>
</svg>
