<svg width="19" height="19" viewBox="0 0 19 19" fill="none" xmlns="http://www.w3.org/2000/svg">
<path d="M1.76074 9.98816H4.67222C5.18612 9.98816 5.65592 10.2785 5.88574 10.7382C6.11557 11.1978 6.58536 11.4882 7.09927 11.4882H11.4222C11.9361 11.4882 12.4059 11.1978 12.6357 10.7382C12.8656 10.2785 13.3354 9.98816 13.8493 9.98816H16.7607M1.76074 9.98816V7.58816C1.76074 6.32804 1.76074 5.69798 2.00598 5.21668C2.22169 4.79332 2.5659 4.44911 2.98926 4.23339C3.47057 3.98816 4.10062 3.98816 5.36074 3.98816H13.1607C14.4209 3.98816 15.0509 3.98816 15.5322 4.23339C15.9556 4.44911 16.2998 4.79332 16.5155 5.21668C16.7607 5.69798 16.7607 6.32804 16.7607 7.58816V9.98816M1.76074 9.98816V12.3882C1.76074 13.6483 1.76074 14.2783 2.00598 14.7596C2.22169 15.183 2.5659 15.5272 2.98926 15.7429C3.47057 15.9882 4.10062 15.9882 5.36074 15.9882H13.1607C14.4209 15.9882 15.0509 15.9882 15.5322 15.7429C15.9556 15.5272 16.2998 15.183 16.5155 14.7596C16.7607 14.2783 16.7607 13.6483 16.7607 12.3882V9.98816" stroke="#98A2B3" stroke-width="1.5" stroke-linecap="round" stroke-linejoin="round"/>
</svg>
