<svg width="19" height="19" viewBox="0 0 19 19" fill="none" xmlns="http://www.w3.org/2000/svg">
<g clip-path="url(#clip0_1_9451)">
<path d="M9.77051 12.9882V9.98816M9.77051 6.98816H9.77801M2.27051 7.38022V12.5961C2.27051 12.7795 2.27051 12.8713 2.29123 12.9576C2.3096 13.0341 2.33991 13.1073 2.38103 13.1744C2.42741 13.2501 2.49227 13.3149 2.62198 13.4446L6.31404 17.1367C6.44375 17.2664 6.50861 17.3313 6.58429 17.3776C6.6514 17.4188 6.72456 17.4491 6.80108 17.4674C6.8874 17.4882 6.97912 17.4882 7.16256 17.4882H12.3785C12.5619 17.4882 12.6536 17.4882 12.7399 17.4674C12.8165 17.4491 12.8896 17.4188 12.9567 17.3776C13.0324 17.3313 13.0973 17.2664 13.227 17.1367L16.919 13.4446C17.0488 13.3149 17.1136 13.2501 17.16 13.1744C17.2011 13.1073 17.2314 13.0341 17.2498 12.9576C17.2705 12.8713 17.2705 12.7795 17.2705 12.5961V7.38022C17.2705 7.19677 17.2705 7.10505 17.2498 7.01874C17.2314 6.94221 17.2011 6.86905 17.16 6.80195C17.1136 6.72626 17.0488 6.6614 16.919 6.53169L13.227 2.83963C13.0973 2.70992 13.0324 2.64506 12.9567 2.59868C12.8896 2.55756 12.8165 2.52725 12.7399 2.50888C12.6536 2.48816 12.5619 2.48816 12.3785 2.48816H7.16256C6.97912 2.48816 6.8874 2.48816 6.80108 2.50888C6.72456 2.52725 6.6514 2.55756 6.58429 2.59868C6.50861 2.64506 6.44375 2.70992 6.31404 2.83963L2.62198 6.53169C2.49227 6.6614 2.42741 6.72626 2.38103 6.80195C2.33991 6.86905 2.3096 6.94221 2.29123 7.01874C2.27051 7.10505 2.27051 7.19677 2.27051 7.38022Z" stroke="#98A2B3" stroke-width="1.5" stroke-linecap="round" stroke-linejoin="round"/>
</g>
<defs>
<clipPath id="clip0_1_9451">
<rect width="18" height="18" fill="white" transform="translate(0.770508 0.988281)"/>
</clipPath>
</defs>
</svg>
