<svg width="19" height="19" viewBox="0 0 19 19" fill="none" xmlns="http://www.w3.org/2000/svg">
<g clip-path="url(#clip0_1_9449)">
<path d="M9.26856 12.9882V9.98822M9.26856 6.98822H9.27606M2.51855 6.94431V13.0321C2.51855 13.2891 2.51855 13.4176 2.55642 13.5322C2.58992 13.6336 2.64467 13.7267 2.71703 13.8052C2.79882 13.8939 2.91114 13.9563 3.13578 14.0811L8.68578 17.1645C8.89849 17.2826 9.00484 17.3417 9.11747 17.3649C9.21715 17.3854 9.31996 17.3854 9.41964 17.3649C9.53227 17.3417 9.63862 17.2826 9.85133 17.1645L15.4013 14.0811C15.626 13.9563 15.7383 13.8939 15.8201 13.8052C15.8924 13.7267 15.9472 13.6336 15.9807 13.5322C16.0186 13.4176 16.0186 13.2891 16.0186 13.0321V6.94431C16.0186 6.68732 16.0186 6.55883 15.9807 6.44423C15.9472 6.34285 15.8924 6.24979 15.8201 6.17127C15.7383 6.08252 15.626 6.02012 15.4013 5.89532L9.85133 2.81198C9.63862 2.69382 9.53227 2.63473 9.41964 2.61157C9.31996 2.59107 9.21715 2.59107 9.11747 2.61157C9.00484 2.63473 8.89849 2.69382 8.68578 2.81198L3.13578 5.89532C2.91114 6.02012 2.79882 6.08252 2.71703 6.17127C2.64467 6.24979 2.58992 6.34285 2.55642 6.44423C2.51855 6.55883 2.51855 6.68732 2.51855 6.94431Z" stroke="#98A2B3" stroke-width="1.5" stroke-linecap="round" stroke-linejoin="round"/>
</g>
<defs>
<clipPath id="clip0_1_9449">
<rect width="18" height="18" fill="white" transform="translate(0.268555 0.988281)"/>
</clipPath>
</defs>
</svg>
