<svg width="19" height="19" viewBox="0 0 19 19" fill="none" xmlns="http://www.w3.org/2000/svg">
<path d="M9.27246 12.9882V9.98816M9.27246 6.98816H9.27996M6.12246 16.7382H12.4225C13.6826 16.7382 14.3126 16.7382 14.7939 16.4929C15.2173 16.2772 15.5615 15.933 15.7772 15.5096C16.0225 15.0283 16.0225 14.3983 16.0225 13.1382V6.83816C16.0225 5.57804 16.0225 4.94798 15.7772 4.46668C15.5615 4.04332 15.2173 3.69911 14.7939 3.48339C14.3126 3.23816 13.6826 3.23816 12.4225 3.23816H6.12246C4.86234 3.23816 4.23228 3.23816 3.75098 3.48339C3.32762 3.69911 2.98341 4.04332 2.7677 4.46668C2.52246 4.94798 2.52246 5.57804 2.52246 6.83816V13.1382C2.52246 14.3983 2.52246 15.0283 2.7677 15.5096C2.98341 15.933 3.32762 16.2772 3.75098 16.4929C4.23228 16.7382 4.86234 16.7382 6.12246 16.7382Z" stroke="#98A2B3" stroke-width="1.5" stroke-linecap="round" stroke-linejoin="round"/>
</svg>
