<svg width="19" height="19" viewBox="0 0 19 19" fill="none" xmlns="http://www.w3.org/2000/svg">
<g clip-path="url(#clip0_1_10957)">
<path d="M13.8994 5.86316H13.9069M6.02441 2.48816H13.5244C15.5955 2.48816 17.2744 4.16709 17.2744 6.23816V13.7382C17.2744 15.8092 15.5955 17.4882 13.5244 17.4882H6.02441C3.95335 17.4882 2.27441 15.8092 2.27441 13.7382V6.23816C2.27441 4.16709 3.95335 2.48816 6.02441 2.48816ZM12.7744 9.51566C12.867 10.1398 12.7604 10.7773 12.4697 11.3374C12.1791 11.8975 11.7193 12.3517 11.1556 12.6354C10.592 12.9191 9.95325 13.0179 9.33025 12.9176C8.70726 12.8174 8.13174 12.5232 7.68554 12.077C7.23935 11.6308 6.94521 11.0553 6.84497 10.4323C6.74472 9.80932 6.84346 9.17058 7.12716 8.60694C7.41086 8.0433 7.86505 7.58347 8.42515 7.29284C8.98525 7.00222 9.62273 6.8956 10.2469 6.98816C10.8836 7.08257 11.4731 7.37926 11.9282 7.83439C12.3833 8.28952 12.68 8.87897 12.7744 9.51566Z" stroke="#98A2B3" stroke-width="1.5" stroke-linecap="round" stroke-linejoin="round"/>
</g>
<defs>
<clipPath id="clip0_1_10957">
<rect width="18" height="18" fill="white" transform="translate(0.774414 0.988281)"/>
</clipPath>
</defs>
</svg>
