<svg width="19" height="19" viewBox="0 0 19 19" fill="none" xmlns="http://www.w3.org/2000/svg">
<g clip-path="url(#clip0_1_8339)">
<path d="M2.27832 4.88816C2.27832 4.04808 2.27832 3.62804 2.44181 3.30717C2.58562 3.02493 2.81509 2.79546 3.09733 2.65165C3.4182 2.48816 3.83824 2.48816 4.67832 2.48816H10.3783C11.2184 2.48816 11.6384 2.48816 11.9593 2.65165C12.2415 2.79546 12.471 3.02493 12.6148 3.30717C12.7783 3.62804 12.7783 4.04808 12.7783 4.88816V10.5882C12.7783 11.4282 12.7783 11.8483 12.6148 12.1691C12.471 12.4514 12.2415 12.6809 11.9593 12.8247C11.6384 12.9882 11.2184 12.9882 10.3783 12.9882H4.67832C3.83824 12.9882 3.4182 12.9882 3.09733 12.8247C2.81509 12.6809 2.58562 12.4514 2.44181 12.1691C2.27832 11.8483 2.27832 11.4282 2.27832 10.5882V4.88816Z" stroke="#98A2B3" stroke-width="1.5" stroke-linecap="round" stroke-linejoin="round"/>
<path d="M6.77832 9.38816C6.77832 8.54808 6.77832 8.12804 6.94181 7.80717C7.08562 7.52493 7.31509 7.29546 7.59734 7.15165C7.9182 6.98816 8.33824 6.98816 9.17832 6.98816H14.8783C15.7184 6.98816 16.1384 6.98816 16.4593 7.15165C16.7416 7.29546 16.971 7.52493 17.1148 7.80717C17.2783 8.12804 17.2783 8.54808 17.2783 9.38816V15.0882C17.2783 15.9282 17.2783 16.3483 17.1148 16.6691C16.971 16.9514 16.7416 17.1809 16.4593 17.3247C16.1384 17.4882 15.7184 17.4882 14.8783 17.4882H9.17832C8.33824 17.4882 7.9182 17.4882 7.59734 17.3247C7.31509 17.1809 7.08562 16.9514 6.94181 16.6691C6.77832 16.3483 6.77832 15.9282 6.77832 15.0882V9.38816Z" stroke="#98A2B3" stroke-width="1.5" stroke-linecap="round" stroke-linejoin="round"/>
</g>
<defs>
<clipPath id="clip0_1_8339">
<rect width="18" height="18" fill="white" transform="translate(0.77832 0.988281)"/>
</clipPath>
</defs>
</svg>
