<svg width="19" height="19" viewBox="0 0 19 19" fill="none" xmlns="http://www.w3.org/2000/svg">
<path d="M11.2861 6.23816L8.28613 13.7382M6.63613 16.7382H12.9361C14.1963 16.7382 14.8263 16.7382 15.3076 16.4929C15.731 16.2772 16.0752 15.933 16.2909 15.5096C16.5361 15.0283 16.5361 14.3983 16.5361 13.1382V6.83816C16.5361 5.57804 16.5361 4.94798 16.2909 4.46668C16.0752 4.04332 15.731 3.69911 15.3076 3.48339C14.8263 3.23816 14.1963 3.23816 12.9361 3.23816H6.63613C5.37602 3.23816 4.74596 3.23816 4.26465 3.48339C3.84129 3.69911 3.49708 4.04332 3.28137 4.46668C3.03613 4.94798 3.03613 5.57804 3.03613 6.83816V13.1382C3.03613 14.3983 3.03613 15.0283 3.28137 15.5096C3.49708 15.933 3.84129 16.2772 4.26465 16.4929C4.74596 16.7382 5.37601 16.7382 6.63613 16.7382Z" stroke="#98A2B3" stroke-width="1.5" stroke-linecap="round" stroke-linejoin="round"/>
</svg>
