<svg width="19" height="19" viewBox="0 0 19 19" fill="none" xmlns="http://www.w3.org/2000/svg">
<path d="M11.8198 7.24011H11.8273M11.8198 11.7401C14.3051 11.7401 16.3198 9.72539 16.3198 7.24011C16.3198 4.75483 14.3051 2.74011 11.8198 2.74011C9.33454 2.74011 7.31982 4.75483 7.31982 7.24011C7.31982 7.44537 7.33357 7.64742 7.36018 7.84539C7.40396 8.171 7.42585 8.3338 7.41111 8.43681C7.39576 8.5441 7.37623 8.60192 7.32334 8.69654C7.27257 8.78736 7.18311 8.87683 7.00417 9.05576L3.1713 12.8886C3.04158 13.0184 2.97673 13.0832 2.93034 13.1589C2.88922 13.226 2.85892 13.2992 2.84055 13.3757C2.81982 13.462 2.81982 13.5537 2.81982 13.7372V15.0401C2.81982 15.4602 2.81982 15.6702 2.90157 15.8306C2.97347 15.9717 3.08821 16.0865 3.22933 16.1584C3.38977 16.2401 3.59978 16.2401 4.01982 16.2401H5.32277C5.50621 16.2401 5.59793 16.2401 5.68425 16.2194C5.76078 16.201 5.83393 16.1707 5.90104 16.1296C5.97673 16.0832 6.04158 16.0184 6.1713 15.8886L10.0042 12.0558C10.1831 11.8768 10.2726 11.7874 10.3634 11.7366C10.458 11.6837 10.5158 11.6642 10.6231 11.6488C10.7261 11.6341 10.8889 11.656 11.2145 11.6998C11.4125 11.7264 11.6146 11.7401 11.8198 11.7401Z" stroke="#98A2B3" stroke-width="1.5" stroke-linecap="round" stroke-linejoin="round"/>
</svg>
