<svg width="19" height="19" viewBox="0 0 19 19" fill="none" xmlns="http://www.w3.org/2000/svg">
<path d="M13.54 7.73812C13.54 7.35425 13.3936 6.97038 13.1007 6.6775C12.8078 6.38461 12.4239 6.23816 12.04 6.23816M12.04 12.2382C14.5253 12.2382 16.54 10.2234 16.54 7.73816C16.54 5.25288 14.5253 3.23816 12.04 3.23816C9.55476 3.23816 7.54004 5.25288 7.54004 7.73816C7.54004 7.94342 7.55378 8.14547 7.5804 8.34344C7.62417 8.66905 7.64606 8.83185 7.63133 8.93485C7.61598 9.04215 7.59644 9.09997 7.54356 9.19458C7.49279 9.28541 7.40332 9.37488 7.22439 9.55381L3.39151 13.3867C3.2618 13.5164 3.19694 13.5813 3.15056 13.6569C3.10944 13.7241 3.07913 13.7972 3.06076 13.8737C3.04004 13.9601 3.04004 14.0518 3.04004 14.2352V15.5382C3.04004 15.9582 3.04004 16.1682 3.12178 16.3287C3.19369 16.4698 3.30842 16.5845 3.44955 16.6564C3.60998 16.7382 3.82 16.7382 4.24004 16.7382H6.04004V15.2382H7.54004V13.7382H9.04004L10.2244 12.5538C10.4033 12.3749 10.4928 12.2854 10.5836 12.2346C10.6782 12.1818 10.736 12.1622 10.8433 12.1469C10.9464 12.1321 11.1092 12.154 11.4348 12.1978C11.6327 12.2244 11.8348 12.2382 12.04 12.2382Z" stroke="#98A2B3" stroke-width="1.5" stroke-linecap="round" stroke-linejoin="round"/>
</svg>
