<svg width="19" height="19" viewBox="0 0 19 19" fill="none" xmlns="http://www.w3.org/2000/svg">
<path d="M11.9128 6.61316L14.5378 3.98816M16.0378 2.48816L14.5378 3.98816L16.0378 2.48816ZM8.83031 9.69566C9.21756 10.0778 9.52541 10.5327 9.73612 11.0343C9.94683 11.5358 10.0563 12.0741 10.0581 12.6181C10.0599 13.1622 9.95409 13.7012 9.74674 14.2041C9.53939 14.7071 9.2346 15.1641 8.84991 15.5488C8.46523 15.9335 8.00825 16.2382 7.50528 16.4456C7.00232 16.6529 6.4633 16.7588 5.91928 16.7569C5.37525 16.7551 4.83696 16.6457 4.3354 16.435C3.83383 16.2243 3.3789 15.9164 2.9968 15.5292C2.2454 14.7512 1.82962 13.7092 1.83902 12.6276C1.84842 11.5461 2.28224 10.5115 3.04705 9.74666C3.81186 8.98185 4.84646 8.54803 5.92802 8.53863C7.00959 8.52923 8.05157 8.94501 8.82955 9.69641L8.83031 9.69566ZM8.83031 9.69566L11.9128 6.61316L8.83031 9.69566ZM11.9128 6.61316L14.1628 8.86316L16.7878 6.23816L14.5378 3.98816L11.9128 6.61316Z" stroke="#98A2B3" stroke-width="1.5" stroke-linecap="round" stroke-linejoin="round"/>
</svg>
