<svg width="19" height="19" viewBox="0 0 19 19" fill="none" xmlns="http://www.w3.org/2000/svg">
<path d="M5.82373 11.3651H13.3237M5.07373 7.99011H5.08123M8.07373 7.99011H8.08123M11.0737 7.99011H11.0812M14.0737 7.99011H14.0812M4.47373 13.9901H14.6737C15.5138 13.9901 15.9339 13.9901 16.2547 13.8266C16.537 13.6828 16.7664 13.4533 16.9102 13.1711C17.0737 12.8502 17.0737 12.4302 17.0737 11.5901V7.39011C17.0737 6.55003 17.0737 6.12999 16.9102 5.80913C16.7664 5.52688 16.537 5.29741 16.2547 5.1536C15.9339 4.99011 15.5138 4.99011 14.6737 4.99011H4.47373C3.63365 4.99011 3.21361 4.99011 2.89274 5.1536C2.6105 5.29741 2.38103 5.52688 2.23722 5.80913C2.07373 6.12999 2.07373 6.55003 2.07373 7.39011V11.5901C2.07373 12.4302 2.07373 12.8502 2.23722 13.1711C2.38103 13.4533 2.6105 13.6828 2.89274 13.8266C3.21361 13.9901 3.63365 13.9901 4.47373 13.9901Z" stroke="#98A2B3" stroke-width="1.5" stroke-linecap="round" stroke-linejoin="round"/>
</svg>
