<svg width="19" height="19" viewBox="0 0 19 19" fill="none" xmlns="http://www.w3.org/2000/svg">
<g clip-path="url(#clip0_1_9701)">
<path d="M4.57178 7.99011H4.57928M6.07178 10.9901H6.07928M7.57178 7.99011H7.57928M9.07178 10.9901H9.07928M10.5718 7.99011H10.5793M12.0718 10.9901H12.0793M13.5718 7.99011H13.5793M3.97178 13.9901H14.1718C15.0119 13.9901 15.4319 13.9901 15.7528 13.8266C16.035 13.6828 16.2645 13.4533 16.4083 13.1711C16.5718 12.8502 16.5718 12.4302 16.5718 11.5901V7.39011C16.5718 6.55003 16.5718 6.12999 16.4083 5.80913C16.2645 5.52688 16.035 5.29741 15.7528 5.1536C15.4319 4.99011 15.0119 4.99011 14.1718 4.99011H3.97178C3.1317 4.99011 2.71166 4.99011 2.39079 5.1536C2.10855 5.29741 1.87908 5.52688 1.73527 5.80913C1.57178 6.12999 1.57178 6.55003 1.57178 7.39011V11.5901C1.57178 12.4302 1.57178 12.8502 1.73527 13.1711C1.87908 13.4533 2.10855 13.6828 2.39079 13.8266C2.71166 13.9901 3.1317 13.9901 3.97178 13.9901Z" stroke="#98A2B3" stroke-width="1.5" stroke-linecap="round" stroke-linejoin="round"/>
</g>
<defs>
<clipPath id="clip0_1_9701">
<rect width="18" height="18" fill="white" transform="translate(0.0712891 0.490234)"/>
</clipPath>
</defs>
</svg>
