<svg width="19" height="19" viewBox="0 0 19 19" fill="none" xmlns="http://www.w3.org/2000/svg">
<g clip-path="url(#clip0_1_9705)">
<path d="M2.3252 12.4901V5.89011C2.3252 5.05003 2.3252 4.62999 2.48869 4.30913C2.6325 4.02688 2.86197 3.79741 3.14421 3.6536C3.46508 3.49011 3.88512 3.49011 4.7252 3.49011H13.4252C14.2653 3.49011 14.6853 3.49011 15.0062 3.6536C15.2884 3.79741 15.5179 4.02688 15.6617 4.30913C15.8252 4.62999 15.8252 5.05003 15.8252 5.89011V12.4901H11.8223C11.6388 12.4901 11.5471 12.4901 11.4608 12.5108C11.3842 12.5292 11.3111 12.5595 11.244 12.6006C11.1683 12.647 11.1034 12.7119 10.9737 12.8416L10.9267 12.8886C10.797 13.0184 10.7321 13.0832 10.6564 13.1296C10.5893 13.1707 10.5161 13.201 10.4396 13.2194C10.3533 13.2401 10.2616 13.2401 10.0781 13.2401H8.07225C7.88881 13.2401 7.79709 13.2401 7.71077 13.2194C7.63424 13.201 7.56109 13.1707 7.49398 13.1296C7.41829 13.0832 7.35344 13.0184 7.22372 12.8886L7.17667 12.8416C7.04695 12.7119 6.9821 12.647 6.90641 12.6006C6.83931 12.5595 6.76615 12.5292 6.68962 12.5108C6.6033 12.4901 6.51158 12.4901 6.32814 12.4901H2.3252ZM2.3252 12.4901C1.91098 12.4901 1.5752 12.8259 1.5752 13.2401V13.4901C1.5752 13.9551 1.5752 14.1876 1.62631 14.3783C1.76501 14.896 2.16933 15.3003 2.68697 15.439C2.87772 15.4901 3.11021 15.4901 3.5752 15.4901H14.5752C15.0402 15.4901 15.2727 15.4901 15.4634 15.439C15.9811 15.3003 16.3854 14.896 16.5241 14.3783C16.5752 14.1876 16.5752 13.9551 16.5752 13.4901C16.5752 13.2576 16.5752 13.1414 16.5496 13.046C16.4803 12.7872 16.2781 12.585 16.0193 12.5157C15.9239 12.4901 15.8077 12.4901 15.5752 12.4901H15.0752" stroke="#98A2B3" stroke-width="1.5" stroke-linecap="round" stroke-linejoin="round"/>
</g>
<defs>
<clipPath id="clip0_1_9705">
<rect width="18" height="18" fill="white" transform="translate(0.0756836 0.490234)"/>
</clipPath>
</defs>
</svg>
