<svg width="19" height="19" viewBox="0 0 19 19" fill="none" xmlns="http://www.w3.org/2000/svg">
<path d="M16.3271 12.4901V5.89011C16.3271 5.05003 16.3271 4.62999 16.1637 4.30913C16.0198 4.02688 15.7904 3.79741 15.5081 3.6536C15.1873 3.49011 14.7672 3.49011 13.9271 3.49011H5.22715C4.38707 3.49011 3.96703 3.49011 3.64616 3.6536C3.36392 3.79741 3.13445 4.02688 2.99064 4.30913C2.82715 4.62999 2.82715 5.05003 2.82715 5.89011V12.4901M4.07715 15.4901H15.0771C15.5421 15.4901 15.7746 15.4901 15.9654 15.439C16.483 15.3003 16.8873 14.896 17.026 14.3783C17.0772 14.1876 17.0771 13.9551 17.0771 13.4901C17.0771 13.2576 17.0771 13.1414 17.0516 13.046C16.9822 12.7872 16.7801 12.585 16.5213 12.5157C16.4259 12.4901 16.3096 12.4901 16.0771 12.4901H3.07715C2.84466 12.4901 2.72841 12.4901 2.63303 12.5157C2.37422 12.585 2.17205 12.7872 2.1027 13.046C2.07715 13.1414 2.07715 13.2576 2.07715 13.4901C2.07715 13.9551 2.07715 14.1876 2.12826 14.3783C2.26696 14.896 2.67128 15.3003 3.18892 15.439C3.37967 15.4901 3.61216 15.4901 4.07715 15.4901Z" stroke="#98A2B3" stroke-width="1.5" stroke-linecap="round" stroke-linejoin="round"/>
</svg>
