<svg width="19" height="19" viewBox="0 0 19 19" fill="none" xmlns="http://www.w3.org/2000/svg">
<g clip-path="url(#clip0_1_8349)">
<path d="M5.33691 9.49016L1.58691 11.3652L8.81859 14.981C8.91697 15.0302 8.96617 15.0548 9.01777 15.0645C9.06347 15.073 9.11036 15.073 9.15606 15.0645C9.20766 15.0548 9.25686 15.0302 9.35524 14.981L16.5869 11.3652L12.8369 9.49016M1.58691 7.61516L8.81859 3.99933C8.91697 3.95013 8.96617 3.92554 9.01777 3.91585C9.06347 3.90728 9.11036 3.90728 9.15606 3.91585C9.20766 3.92554 9.25686 3.95013 9.35524 3.99933L16.5869 7.61516L9.35524 11.231C9.25686 11.2802 9.20766 11.3048 9.15606 11.3145C9.11036 11.323 9.06347 11.323 9.01777 11.3145C8.96617 11.3048 8.91697 11.2802 8.81859 11.231L1.58691 7.61516Z" stroke="#98A2B3" stroke-width="1.5" stroke-linecap="round" stroke-linejoin="round"/>
</g>
<defs>
<clipPath id="clip0_1_8349">
<rect width="18" height="18" fill="white" transform="translate(0.0874023 0.490234)"/>
</clipPath>
</defs>
</svg>
