<svg width="19" height="19" viewBox="0 0 19 19" fill="none" xmlns="http://www.w3.org/2000/svg">
<path d="M2.08105 9.49016L9.31273 13.106C9.41111 13.1552 9.46031 13.1798 9.51191 13.1895C9.55761 13.198 9.6045 13.198 9.6502 13.1895C9.7018 13.1798 9.751 13.1552 9.84938 13.106L17.0811 9.49016M2.08105 13.2402L9.31273 16.856C9.41111 16.9052 9.46031 16.9298 9.51191 16.9395C9.55761 16.948 9.6045 16.948 9.6502 16.9395C9.7018 16.9298 9.751 16.9052 9.84938 16.856L17.0811 13.2402M2.08105 5.74016L9.31273 2.12433C9.41111 2.07513 9.46031 2.05054 9.51191 2.04085C9.55761 2.03228 9.6045 2.03228 9.6502 2.04085C9.7018 2.05054 9.751 2.07513 9.84938 2.12433L17.0811 5.74016L9.84938 9.356C9.751 9.40519 9.7018 9.42979 9.6502 9.43947C9.6045 9.44804 9.55761 9.44804 9.51191 9.43947C9.46031 9.42979 9.41111 9.40519 9.31273 9.356L2.08105 5.74016Z" stroke="#98A2B3" stroke-width="1.5" stroke-linecap="round" stroke-linejoin="round"/>
</svg>
