<svg width="19" height="19" viewBox="0 0 19 19" fill="none" xmlns="http://www.w3.org/2000/svg">
<path d="M2.08496 11.3652L9.31663 14.981C9.41502 15.0302 9.46421 15.0548 9.51581 15.0645C9.56151 15.073 9.60841 15.073 9.65411 15.0645C9.70571 15.0548 9.7549 15.0302 9.85329 14.981L17.085 11.3652M2.08496 7.61516L9.31663 3.99933C9.41502 3.95013 9.46421 3.92554 9.51581 3.91585C9.56151 3.90728 9.60841 3.90728 9.65411 3.91585C9.70571 3.92554 9.7549 3.95013 9.85329 3.99933L17.085 7.61516L9.85329 11.231C9.7549 11.2802 9.70571 11.3048 9.65411 11.3145C9.60841 11.323 9.56151 11.323 9.51581 11.3145C9.46421 11.3048 9.41502 11.2802 9.31663 11.231L2.08496 7.61516Z" stroke="#98A2B3" stroke-width="1.5" stroke-linecap="round" stroke-linejoin="round"/>
</svg>
