<svg width="19" height="19" viewBox="0 0 19 19" fill="none" xmlns="http://www.w3.org/2000/svg">
<g clip-path="url(#clip0_1_8345)">
<path d="M5.33301 7.61516L1.58301 9.49016L8.81468 13.106C8.91307 13.1552 8.96226 13.1798 9.01386 13.1895C9.05956 13.198 9.10646 13.198 9.15216 13.1895C9.20376 13.1798 9.25295 13.1552 9.35134 13.106L16.583 9.49016L12.833 7.61516M5.33301 11.3652L1.58301 13.2402L8.81468 16.856C8.91307 16.9052 8.96226 16.9298 9.01386 16.9395C9.05956 16.948 9.10646 16.948 9.15216 16.9395C9.20376 16.9298 9.25295 16.9052 9.35134 16.856L16.583 13.2402L12.833 11.3652M1.58301 5.74016L8.81468 2.12433C8.91307 2.07513 8.96226 2.05054 9.01386 2.04085C9.05956 2.03228 9.10646 2.03228 9.15216 2.04085C9.20376 2.05054 9.25295 2.07513 9.35134 2.12433L16.583 5.74016L9.35134 9.356C9.25295 9.40519 9.20376 9.42979 9.15216 9.43947C9.10646 9.44804 9.05956 9.44804 9.01386 9.43947C8.96226 9.42979 8.91307 9.40519 8.81468 9.356L1.58301 5.74016Z" stroke="#98A2B3" stroke-width="1.5" stroke-linecap="round" stroke-linejoin="round"/>
</g>
<defs>
<clipPath id="clip0_1_8345">
<rect width="18" height="18" fill="white" transform="translate(0.0830078 0.490234)"/>
</clipPath>
</defs>
</svg>
