<svg width="19" height="19" viewBox="0 0 19 19" fill="none" xmlns="http://www.w3.org/2000/svg">
<path d="M13.7183 8.74011H9.96826M13.7183 11.7401H9.96826M13.7183 5.74011H9.96826M7.34326 2.74011L7.34326 16.2401M6.44326 2.74011H12.7433C14.0034 2.74011 14.6334 2.74011 15.1147 2.98535C15.5381 3.20106 15.8823 3.54527 16.098 3.96863C16.3433 4.44994 16.3433 5.07999 16.3433 6.34011V12.6401C16.3433 13.9002 16.3433 14.5303 16.098 15.0116C15.8823 15.435 15.5381 15.7792 15.1147 15.9949C14.6334 16.2401 14.0034 16.2401 12.7433 16.2401H6.44326C5.18314 16.2401 4.55308 16.2401 4.07178 15.9949C3.64842 15.7792 3.30421 15.435 3.0885 15.0116C2.84326 14.5303 2.84326 13.9002 2.84326 12.6401V6.34011C2.84326 5.07999 2.84326 4.44994 3.0885 3.96863C3.30421 3.54527 3.64842 3.20106 4.07178 2.98535C4.55308 2.74011 5.18314 2.74011 6.44326 2.74011Z" stroke="#98A2B3" stroke-width="1.5" stroke-linecap="round" stroke-linejoin="round"/>
</svg>
