<svg width="19" height="19" viewBox="0 0 19 19" fill="none" xmlns="http://www.w3.org/2000/svg">
<path d="M9.59668 9.49011L16.3467 9.49011M9.59668 2.74011L9.59668 16.2401M6.44668 2.74011H12.7467C14.0068 2.74011 14.6369 2.74011 15.1182 2.98535C15.5415 3.20106 15.8857 3.54527 16.1014 3.96863C16.3467 4.44994 16.3467 5.07999 16.3467 6.34011V12.6401C16.3467 13.9002 16.3467 14.5303 16.1014 15.0116C15.8857 15.435 15.5415 15.7792 15.1182 15.9949C14.6369 16.2401 14.0068 16.2401 12.7467 16.2401H6.44668C5.18656 16.2401 4.5565 16.2401 4.0752 15.9949C3.65184 15.7792 3.30763 15.435 3.09192 15.0116C2.84668 14.5303 2.84668 13.9002 2.84668 12.6401V6.34011C2.84668 5.07999 2.84668 4.44994 3.09192 3.96863C3.30763 3.54527 3.65184 3.20106 4.0752 2.98535C4.5565 2.74011 5.18656 2.74011 6.44668 2.74011Z" stroke="#98A2B3" stroke-width="1.5" stroke-linecap="round" stroke-linejoin="round"/>
</svg>
