<svg width="19" height="19" viewBox="0 0 19 19" fill="none" xmlns="http://www.w3.org/2000/svg">
<path d="M2.85889 7.24011H16.3589M6.45889 2.74011H12.7589C14.019 2.74011 14.6491 2.74011 15.1304 2.98535C15.5537 3.20106 15.8979 3.54527 16.1137 3.96863C16.3589 4.44994 16.3589 5.07999 16.3589 6.34011V12.6401C16.3589 13.9002 16.3589 14.5303 16.1137 15.0116C15.8979 15.435 15.5537 15.7792 15.1304 15.9949C14.6491 16.2401 14.019 16.2401 12.7589 16.2401H6.45889C5.19877 16.2401 4.56871 16.2401 4.08741 15.9949C3.66404 15.7792 3.31984 15.435 3.10412 15.0116C2.85889 14.5303 2.85889 13.9002 2.85889 12.6401V6.34011C2.85889 5.07999 2.85889 4.44994 3.10412 3.96863C3.31984 3.54527 3.66404 3.20106 4.08741 2.98535C4.56871 2.74011 5.19877 2.74011 6.45889 2.74011Z" stroke="#98A2B3" stroke-width="1.5" stroke-linecap="round" stroke-linejoin="round"/>
</svg>
