<svg width="19" height="19" viewBox="0 0 19 19" fill="none" xmlns="http://www.w3.org/2000/svg">
<path d="M2.3418 7.24011H15.8418M6.8418 7.24011L6.8418 16.2401M5.9418 2.74011H12.2418C13.5019 2.74011 14.132 2.74011 14.6133 2.98535C15.0366 3.20106 15.3808 3.54527 15.5966 3.96863C15.8418 4.44994 15.8418 5.07999 15.8418 6.34011V12.6401C15.8418 13.9002 15.8418 14.5303 15.5966 15.0116C15.3808 15.435 15.0366 15.7792 14.6133 15.9949C14.132 16.2401 13.5019 16.2401 12.2418 16.2401H5.9418C4.68168 16.2401 4.05162 16.2401 3.57032 15.9949C3.14695 15.7792 2.80275 15.435 2.58703 15.0116C2.3418 14.5303 2.3418 13.9002 2.3418 12.6401V6.34011C2.3418 5.07999 2.3418 4.44994 2.58703 3.96863C2.80275 3.54527 3.14695 3.20106 3.57032 2.98535C4.05162 2.74011 4.68168 2.74011 5.9418 2.74011Z" stroke="#98A2B3" stroke-width="1.5" stroke-linecap="round" stroke-linejoin="round"/>
</svg>
