<svg width="19" height="19" viewBox="0 0 19 19" fill="none" xmlns="http://www.w3.org/2000/svg">
<path d="M7.35449 2.74011V16.2401M6.45449 2.74011H12.7545C14.0146 2.74011 14.6447 2.74011 15.126 2.98535C15.5493 3.20106 15.8935 3.54527 16.1093 3.96863C16.3545 4.44994 16.3545 5.07999 16.3545 6.34011V12.6401C16.3545 13.9002 16.3545 14.5303 16.1093 15.0116C15.8935 15.435 15.5493 15.7792 15.126 15.9949C14.6447 16.2401 14.0146 16.2401 12.7545 16.2401H6.45449C5.19437 16.2401 4.56432 16.2401 4.08301 15.9949C3.65965 15.7792 3.31544 15.435 3.09973 15.0116C2.85449 14.5303 2.85449 13.9002 2.85449 12.6401V6.34011C2.85449 5.07999 2.85449 4.44994 3.09973 3.96863C3.31544 3.54527 3.65965 3.20106 4.08301 2.98535C4.56432 2.74011 5.19437 2.74011 6.45449 2.74011Z" stroke="#98A2B3" stroke-width="1.5" stroke-linecap="round" stroke-linejoin="round"/>
</svg>
