<svg width="19" height="19" viewBox="0 0 19 19" fill="none" xmlns="http://www.w3.org/2000/svg">
<path d="M2.34912 11.7401H15.8491M5.94912 2.74011H12.2491C13.5092 2.74011 14.1393 2.74011 14.6206 2.98535C15.044 3.20106 15.3882 3.54527 15.6039 3.96863C15.8491 4.44994 15.8491 5.07999 15.8491 6.34011V12.6401C15.8491 13.9002 15.8491 14.5303 15.6039 15.0116C15.3882 15.435 15.044 15.7792 14.6206 15.9949C14.1393 16.2401 13.5092 16.2401 12.2491 16.2401H5.94912C4.689 16.2401 4.05894 16.2401 3.57764 15.9949C3.15428 15.7792 2.81007 15.435 2.59436 15.0116C2.34912 14.5303 2.34912 13.9002 2.34912 12.6401V6.34011C2.34912 5.07999 2.34912 4.44994 2.59436 3.96863C2.81007 3.54527 3.15428 3.20106 3.57764 2.98535C4.05894 2.74011 4.689 2.74011 5.94912 2.74011Z" stroke="#98A2B3" stroke-width="1.5" stroke-linecap="round" stroke-linejoin="round"/>
</svg>
