<svg width="19" height="19" viewBox="0 0 19 19" fill="none" xmlns="http://www.w3.org/2000/svg">
<path d="M11.3569 2.74011V16.2401M5.95693 2.74011H12.2569C13.5171 2.74011 14.1471 2.74011 14.6284 2.98535C15.0518 3.20106 15.396 3.54527 15.6117 3.96863C15.8569 4.44994 15.8569 5.07999 15.8569 6.34011V12.6401C15.8569 13.9002 15.8569 14.5303 15.6117 15.0116C15.396 15.435 15.0518 15.7792 14.6284 15.9949C14.1471 16.2401 13.5171 16.2401 12.2569 16.2401H5.95693C4.69682 16.2401 4.06676 16.2401 3.58546 15.9949C3.16209 15.7792 2.81788 15.435 2.60217 15.0116C2.35693 14.5303 2.35693 13.9002 2.35693 12.6401V6.34011C2.35693 5.07999 2.35693 4.44994 2.60217 3.96863C2.81788 3.54527 3.16209 3.20106 3.58546 2.98535C4.06676 2.74011 4.69682 2.74011 5.95693 2.74011Z" stroke="#98A2B3" stroke-width="1.5" stroke-linecap="round" stroke-linejoin="round"/>
</svg>
