<svg width="19" height="19" viewBox="0 0 19 19" fill="none" xmlns="http://www.w3.org/2000/svg">
<path d="M2.35303 7.24011H15.853M2.35303 11.7401H15.853M9.10303 2.74011V16.2401M5.95303 2.74011H12.253C13.5131 2.74011 14.1432 2.74011 14.6245 2.98535C15.0479 3.20106 15.3921 3.54527 15.6078 3.96863C15.853 4.44994 15.853 5.07999 15.853 6.34011V12.6401C15.853 13.9002 15.853 14.5303 15.6078 15.0116C15.3921 15.435 15.0479 15.7792 14.6245 15.9949C14.1432 16.2401 13.5131 16.2401 12.253 16.2401H5.95303C4.69291 16.2401 4.06285 16.2401 3.58155 15.9949C3.15818 15.7792 2.81398 15.435 2.59826 15.0116C2.35303 14.5303 2.35303 13.9002 2.35303 12.6401V6.34011C2.35303 5.07999 2.35303 4.44994 2.59826 3.96863C2.81398 3.54527 3.15818 3.20106 3.58155 2.98535C4.06285 2.74011 4.69291 2.74011 5.95303 2.74011Z" stroke="#98A2B3" stroke-width="1.5" stroke-linecap="round" stroke-linejoin="round"/>
</svg>
