<svg width="19" height="19" viewBox="0 0 19 19" fill="none" xmlns="http://www.w3.org/2000/svg">
<path d="M2.85156 9.49011H16.3516M9.60156 2.74011V16.2401M6.45156 2.74011H12.7516C14.0117 2.74011 14.6417 2.74011 15.123 2.98535C15.5464 3.20106 15.8906 3.54527 16.1063 3.96863C16.3516 4.44994 16.3516 5.07999 16.3516 6.34011V12.6401C16.3516 13.9002 16.3516 14.5303 16.1063 15.0116C15.8906 15.435 15.5464 15.7792 15.123 15.9949C14.6417 16.2401 14.0117 16.2401 12.7516 16.2401H6.45156C5.19144 16.2401 4.56139 16.2401 4.08008 15.9949C3.65672 15.7792 3.31251 15.435 3.0968 15.0116C2.85156 14.5303 2.85156 13.9002 2.85156 12.6401V6.34011C2.85156 5.07999 2.85156 4.44994 3.0968 3.96863C3.31251 3.54527 3.65672 3.20106 4.08008 2.98535C4.56139 2.74011 5.19144 2.74011 6.45156 2.74011Z" stroke="#98A2B3" stroke-width="1.5" stroke-linecap="round" stroke-linejoin="round"/>
</svg>
