<svg width="19" height="19" viewBox="0 0 19 19" fill="none" xmlns="http://www.w3.org/2000/svg">
<path d="M13.2197 13.2401H4.96973M13.2197 10.2401H4.96973M2.34473 7.24011H15.8447M5.94473 2.74011H12.2447C13.5048 2.74011 14.1349 2.74011 14.6162 2.98535C15.0396 3.20106 15.3838 3.54527 15.5995 3.96863C15.8447 4.44994 15.8447 5.07999 15.8447 6.34011V12.6401C15.8447 13.9002 15.8447 14.5303 15.5995 15.0116C15.3838 15.435 15.0396 15.7792 14.6162 15.9949C14.1349 16.2401 13.5048 16.2401 12.2447 16.2401H5.94473C4.68461 16.2401 4.05455 16.2401 3.57325 15.9949C3.14988 15.7792 2.80568 15.435 2.58996 15.0116C2.34473 14.5303 2.34473 13.9002 2.34473 12.6401V6.34011C2.34473 5.07999 2.34473 4.44994 2.58996 3.96863C2.80568 3.54527 3.14988 3.20106 3.57325 2.98535C4.05455 2.74011 4.68461 2.74011 5.94473 2.74011Z" stroke="#98A2B3" stroke-width="1.5" stroke-linecap="round" stroke-linejoin="round"/>
</svg>
