<svg width="19" height="19" viewBox="0 0 19 19" fill="none" xmlns="http://www.w3.org/2000/svg">
<path d="M16.3628 7.42758H9.61279M16.3628 3.49008L9.61279 3.49008M16.3628 11.5526H2.86279M16.3628 15.4901H2.86279M3.82279 2.71008L6.72279 4.88508C6.93991 5.04792 7.04847 5.12934 7.08729 5.22915C7.12129 5.31658 7.12129 5.41358 7.08729 5.501C7.04847 5.60082 6.93991 5.68224 6.72279 5.84508L3.82279 8.02008C3.51381 8.25182 3.35932 8.36768 3.23 8.365C3.11746 8.36266 3.01193 8.30989 2.94253 8.22126C2.86279 8.11942 2.86279 7.92631 2.86279 7.54008V3.19008C2.86279 2.80385 2.86279 2.61073 2.94253 2.50889C3.01193 2.42026 3.11746 2.3675 3.23 2.36516C3.35932 2.36247 3.51381 2.47834 3.82279 2.71008Z" stroke="#98A2B3" stroke-width="1.5" stroke-linecap="round" stroke-linejoin="round"/>
</svg>
