<svg width="19" height="19" viewBox="0 0 19 19" fill="none" xmlns="http://www.w3.org/2000/svg">
<path d="M15.8613 7.42761H9.11133M15.8613 3.49011H2.36133M15.8613 11.5526H9.11133M15.8613 15.4901H2.36133M3.32133 6.91011L6.22133 9.08511C6.43845 9.24795 6.54701 9.32937 6.58583 9.42919C6.61983 9.51661 6.61983 9.61361 6.58583 9.70104C6.54701 9.80085 6.43845 9.88227 6.22133 10.0451L3.32133 12.2201C3.01234 12.4519 2.85785 12.5677 2.72853 12.565C2.616 12.5627 2.51046 12.5099 2.44107 12.4213C2.36133 12.3195 2.36133 12.1263 2.36133 11.7401V7.39011C2.36133 7.00388 2.36133 6.81077 2.44107 6.70893C2.51046 6.6203 2.616 6.56753 2.72853 6.56519C2.85785 6.5625 3.01234 6.67837 3.32133 6.91011Z" stroke="#98A2B3" stroke-width="1.5" stroke-linecap="round" stroke-linejoin="round"/>
</svg>
