<svg width="19" height="19" viewBox="0 0 19 19" fill="none" xmlns="http://www.w3.org/2000/svg">
<g clip-path="url(#clip0_1_9457)">
<path d="M6.47139 6.83847L3.81975 4.18683M3.81975 14.7934L6.47141 12.1418M11.7747 12.1418L14.4263 14.7934M14.4263 4.18679L11.7747 6.83845M16.623 9.49011C16.623 13.6322 13.2652 16.9901 9.12305 16.9901C4.98091 16.9901 1.62305 13.6322 1.62305 9.49011C1.62305 5.34798 4.98091 1.99011 9.12305 1.99011C13.2652 1.99011 16.623 5.34798 16.623 9.49011ZM12.873 9.49011C12.873 11.5612 11.1941 13.2401 9.12305 13.2401C7.05198 13.2401 5.37305 11.5612 5.37305 9.49011C5.37305 7.41904 7.05198 5.74011 9.12305 5.74011C11.1941 5.74011 12.873 7.41904 12.873 9.49011Z" stroke="#98A2B3" stroke-width="1.5" stroke-linecap="round" stroke-linejoin="round"/>
</g>
<defs>
<clipPath id="clip0_1_9457">
<rect width="18" height="18" fill="white" transform="translate(0.122559 0.490234)"/>
</clipPath>
</defs>
</svg>
