<svg width="19" height="19" viewBox="0 0 19 19" fill="none" xmlns="http://www.w3.org/2000/svg">
<g clip-path="url(#clip0_1_10675)">
<path d="M3.81615 4.18761L6.99615 7.36761M11.2412 11.6126L14.4212 14.7926M14.4212 4.18761L11.2412 7.36761L13.8887 4.72011M3.81615 14.7926L6.99615 11.6126M16.6187 9.49011C16.6187 13.6322 13.2608 16.9901 9.11865 16.9901C4.97652 16.9901 1.61865 13.6322 1.61865 9.49011C1.61865 5.34798 4.97652 1.99011 9.11865 1.99011C13.2608 1.99011 16.6187 5.34798 16.6187 9.49011ZM12.1187 9.49011C12.1187 11.147 10.7755 12.4901 9.11865 12.4901C7.4618 12.4901 6.11865 11.147 6.11865 9.49011C6.11865 7.83326 7.4618 6.49011 9.11865 6.49011C10.7755 6.49011 12.1187 7.83326 12.1187 9.49011Z" stroke="#98A2B3" stroke-width="1.5" stroke-linecap="round" stroke-linejoin="round"/>
</g>
<defs>
<clipPath id="clip0_1_10675">
<rect width="18" height="18" fill="white" transform="translate(0.118652 0.490234)"/>
</clipPath>
</defs>
</svg>
