<svg width="19" height="19" viewBox="0 0 19 19" fill="none" xmlns="http://www.w3.org/2000/svg">
<path d="M7.47329 7.34233L4.31779 4.18683M4.31779 14.7934L7.49707 11.6142M11.7669 11.6379L14.9224 14.7934M14.9224 4.18683L11.7426 7.36658M17.1211 9.49011C17.1211 13.6322 13.7632 16.9901 9.62109 16.9901C5.47896 16.9901 2.12109 13.6322 2.12109 9.49011C2.12109 5.34798 5.47896 1.99011 9.62109 1.99011C13.7632 1.99011 17.1211 5.34798 17.1211 9.49011ZM12.6211 9.49011C12.6211 11.147 11.2779 12.4901 9.62109 12.4901C7.96424 12.4901 6.62109 11.147 6.62109 9.49011C6.62109 7.83326 7.96424 6.49011 9.62109 6.49011C11.2779 6.49011 12.6211 7.83326 12.6211 9.49011Z" stroke="#98A2B3" stroke-width="1.5" stroke-linecap="round" stroke-linejoin="round"/>
</svg>
