<svg width="19" height="19" viewBox="0 0 19 19" fill="none" xmlns="http://www.w3.org/2000/svg">
<path d="M11.875 12.8651V14.7401C11.875 15.439 11.875 15.7885 11.7608 16.0641C11.6086 16.4317 11.3166 16.7237 10.949 16.8759C10.6734 16.9901 10.3239 16.9901 9.625 16.9901C8.92609 16.9901 8.57663 16.9901 8.30098 16.8759C7.93343 16.7237 7.64142 16.4317 7.48918 16.0641C7.375 15.7885 7.375 15.439 7.375 14.7401V12.8651M11.875 12.8651C13.8616 11.9971 15.25 9.92172 15.25 7.61511C15.25 4.50851 12.7316 1.99011 9.625 1.99011C6.5184 1.99011 4 4.50851 4 7.61511C4 9.92172 5.38836 11.9971 7.375 12.8651M11.875 12.8651H7.375" stroke="#98A2B3" stroke-width="1.5" stroke-linecap="round" stroke-linejoin="round"/>
</svg>
