<svg width="19" height="19" viewBox="0 0 19 19" fill="none" xmlns="http://www.w3.org/2000/svg">
<path d="M11.3234 1.99011H7.0067C6.87209 1.99011 6.80478 1.99011 6.74536 2.01061C6.69281 2.02873 6.64495 2.05831 6.60524 2.09721C6.56034 2.14119 6.53024 2.20139 6.47004 2.32178L3.32004 8.62178C3.17628 8.9093 3.1044 9.05306 3.12166 9.16992C3.13674 9.27196 3.19318 9.36329 3.27771 9.42241C3.37451 9.49011 3.53524 9.49011 3.8567 9.49011H8.51088L6.26088 16.9901L15.4057 7.50659C15.7142 7.18664 15.8685 7.02666 15.8775 6.88978C15.8853 6.77095 15.8363 6.65548 15.7453 6.57864C15.6405 6.49011 15.4183 6.49011 14.9738 6.49011H9.63588L11.3234 1.99011Z" stroke="#98A2B3" stroke-width="1.5" stroke-linecap="round" stroke-linejoin="round"/>
</svg>
