<svg width="19" height="19" viewBox="0 0 19 19" fill="none" xmlns="http://www.w3.org/2000/svg">
<g clip-path="url(#clip0_1_9711)">
<path d="M7.62647 13.7341V15.4901C7.62647 16.3185 8.29804 16.9901 9.12647 16.9901C9.95489 16.9901 10.6265 16.3185 10.6265 15.4901V13.7341M9.12647 1.99011V2.74011M2.37646 9.49011H1.62646M4.25147 4.61511L3.80139 4.16504M14.0015 4.61511L14.4517 4.16504M16.6265 9.49011H15.8765M13.6265 9.49011C13.6265 11.9754 11.6117 13.9901 9.12647 13.9901C6.64118 13.9901 4.62647 11.9754 4.62647 9.49011C4.62647 7.00483 6.64118 4.99011 9.12647 4.99011C11.6117 4.99011 13.6265 7.00483 13.6265 9.49011Z" stroke="#98A2B3" stroke-width="1.5" stroke-linecap="round" stroke-linejoin="round"/>
</g>
<defs>
<clipPath id="clip0_1_9711">
<rect width="18" height="18" fill="white" transform="translate(0.126465 0.490234)"/>
</clipPath>
</defs>
</svg>
