<svg width="19" height="19" viewBox="0 0 19 19" fill="none" xmlns="http://www.w3.org/2000/svg">
<path d="M7.75391 16.9901H11.5039M11.8789 11.9849C13.6526 11.1423 14.8789 9.33441 14.8789 7.24011C14.8789 4.34062 12.5284 1.99011 9.62891 1.99011C6.72941 1.99011 4.37891 4.34062 4.37891 7.24011C4.37891 9.33441 5.6052 11.1423 7.37891 11.9849V12.4901C7.37891 13.189 7.37891 13.5385 7.49309 13.8141C7.64533 14.1817 7.93734 14.4737 8.30488 14.6259C8.58054 14.7401 8.92999 14.7401 9.62891 14.7401C10.3278 14.7401 10.6773 14.7401 10.9529 14.6259C11.3205 14.4737 11.6125 14.1817 11.7647 13.8141C11.8789 13.5385 11.8789 13.189 11.8789 12.4901V11.9849Z" stroke="#98A2B3" stroke-width="1.5" stroke-linecap="round" stroke-linejoin="round"/>
</svg>
