<svg width="19" height="19" viewBox="0 0 19 19" fill="none" xmlns="http://www.w3.org/2000/svg">
<path d="M9.63281 1.99011V2.74011M2.88281 9.49011H2.13281M4.75781 4.61511L4.30774 4.16504M14.5078 4.61511L14.958 4.16504M17.1328 9.49011H16.3828M8.13281 10.6151H11.1328M9.63281 10.6151V14.3651M12.2578 13.1456C13.3934 12.3287 14.1328 10.9958 14.1328 9.49011C14.1328 7.00483 12.1181 4.99011 9.63281 4.99011C7.14753 4.99011 5.13281 7.00483 5.13281 9.49011C5.13281 10.9958 5.87226 12.3287 7.00781 13.1456V14.5901C7.00781 15.4302 7.00781 15.8502 7.1713 16.1711C7.31511 16.4533 7.54458 16.6828 7.82683 16.8266C8.14769 16.9901 8.56773 16.9901 9.40781 16.9901H9.85781C10.6979 16.9901 11.1179 16.9901 11.4388 16.8266C11.721 16.6828 11.9505 16.4533 12.0943 16.1711C12.2578 15.8502 12.2578 15.4302 12.2578 14.5901V13.1456Z" stroke="#98A2B3" stroke-width="1.5" stroke-linecap="round" stroke-linejoin="round"/>
</svg>
