<svg width="19" height="19" viewBox="0 0 19 19" fill="none" xmlns="http://www.w3.org/2000/svg">
<path d="M7.25537 16.9901H11.0054M7.63037 7.99011H10.6304M9.13037 7.99011L9.13037 12.4901M11.3804 11.9849C13.1541 11.1423 14.3804 9.33441 14.3804 7.24011C14.3804 4.34062 12.0299 1.99011 9.13037 1.99011C6.23088 1.99011 3.88037 4.34062 3.88037 7.24011C3.88037 9.33441 5.10666 11.1423 6.88037 11.9849V12.4901C6.88037 13.189 6.88037 13.5385 6.99455 13.8141C7.14679 14.1817 7.4388 14.4737 7.80635 14.6259C8.082 14.7401 8.43146 14.7401 9.13037 14.7401C9.82928 14.7401 10.1787 14.7401 10.4544 14.6259C10.8219 14.4737 11.114 14.1817 11.2662 13.8141C11.3804 13.5385 11.3804 13.189 11.3804 12.4901V11.9849Z" stroke="#98A2B3" stroke-width="1.5" stroke-linecap="round" stroke-linejoin="round"/>
</svg>
