<svg width="19" height="19" viewBox="0 0 19 19" fill="none" xmlns="http://www.w3.org/2000/svg">
<path d="M12.8916 11.7401L8.81587 7.66438C8.66736 7.51587 8.59311 7.44162 8.50748 7.4138C8.43217 7.38933 8.35104 7.38933 8.27572 7.4138C8.1901 7.44162 8.11584 7.51587 7.96734 7.66438L6.56587 9.06585C6.41736 9.21436 6.34311 9.28861 6.25748 9.31643C6.18217 9.3409 6.10104 9.3409 6.02572 9.31643C5.9401 9.28861 5.86584 9.21436 5.71734 9.06585L2.3916 5.74011M12.8916 11.7401H9.8916M12.8916 11.7401V8.74011M5.9916 16.2401H12.2916C13.5517 16.2401 14.1818 16.2401 14.6631 15.9949C15.0864 15.7792 15.4307 15.435 15.6464 15.0116C15.8916 14.5303 15.8916 13.9002 15.8916 12.6401V6.34011C15.8916 5.07999 15.8916 4.44994 15.6464 3.96863C15.4307 3.54527 15.0864 3.20106 14.6631 2.98535C14.1818 2.74011 13.5517 2.74011 12.2916 2.74011H5.9916C4.73148 2.74011 4.10142 2.74011 3.62012 2.98535C3.19676 3.20106 2.85255 3.54527 2.63684 3.96863C2.3916 4.44994 2.3916 5.07999 2.3916 6.34011V12.6401C2.3916 13.9002 2.3916 14.5303 2.63684 15.0116C2.85255 15.435 3.19676 15.7792 3.62012 15.9949C4.10142 16.2401 4.73148 16.2401 5.9916 16.2401Z" stroke="#98A2B3" stroke-width="1.5" stroke-linecap="round" stroke-linejoin="round"/>
</svg>
