<svg width="19" height="19" viewBox="0 0 19 19" fill="none" xmlns="http://www.w3.org/2000/svg">
<path d="M16.3984 16.2401H4.09844C3.6784 16.2401 3.46838 16.2401 3.30794 16.1584C3.16682 16.0865 3.05209 15.9717 2.98018 15.8306C2.89844 15.6702 2.89844 15.4602 2.89844 15.0401V2.74011M15.6484 6.49011L12.7093 9.62711C12.5979 9.74599 12.5422 9.80544 12.475 9.83616C12.4157 9.86328 12.3504 9.87446 12.2854 9.86861C12.2118 9.86198 12.1395 9.82444 11.9949 9.74937L9.55193 8.48086C9.40734 8.40578 9.33505 8.36825 9.26147 8.36161C9.19652 8.35576 9.13117 8.36695 9.07187 8.39407C9.00467 8.42479 8.94898 8.48423 8.83759 8.60312L5.89844 11.7401" stroke="#98A2B3" stroke-width="1.5" stroke-linecap="round" stroke-linejoin="round"/>
</svg>
