<svg width="19" height="19" viewBox="0 0 19 19" fill="none" xmlns="http://www.w3.org/2000/svg">
<path d="M14.1558 7.99011L11.58 10.5658C11.4315 10.7144 11.3573 10.7886 11.2716 10.8164C11.1963 10.8409 11.1152 10.8409 11.0399 10.8164C10.9543 10.7886 10.88 10.7144 10.7315 10.5658L8.58003 8.41438C8.43152 8.26587 8.35727 8.19162 8.27164 8.1638C8.19633 8.13933 8.1152 8.13933 8.03988 8.1638C7.95426 8.19162 7.88 8.26587 7.7315 8.41438L5.15576 10.9901M17.1558 9.49011C17.1558 13.6322 13.7979 16.9901 9.65576 16.9901C5.51363 16.9901 2.15576 13.6322 2.15576 9.49011C2.15576 5.34798 5.51363 1.99011 9.65576 1.99011C13.7979 1.99011 17.1558 5.34798 17.1558 9.49011Z" stroke="#98A2B3" stroke-width="1.5" stroke-linecap="round" stroke-linejoin="round"/>
</svg>
