<svg width="19" height="19" viewBox="0 0 19 19" fill="none" xmlns="http://www.w3.org/2000/svg">
<path d="M15.9004 16.2401H3.60039C3.18035 16.2401 2.97033 16.2401 2.8099 16.1584C2.66878 16.0865 2.55404 15.9717 2.48214 15.8306C2.40039 15.6702 2.40039 15.4602 2.40039 15.0401V2.74011M15.9004 5.74011L11.8247 9.81585C11.6761 9.96436 11.6019 10.0386 11.5163 10.0664C11.441 10.0909 11.3598 10.0909 11.2845 10.0664C11.1989 10.0386 11.1246 9.96436 10.9761 9.81585L9.57466 8.41438C9.42615 8.26587 9.3519 8.19162 9.26627 8.1638C9.19096 8.13933 9.10983 8.13933 9.03451 8.1638C8.94889 8.19162 8.87463 8.26587 8.72613 8.41438L5.40039 11.7401M15.9004 5.74011H12.9004M15.9004 5.74011V8.74011" stroke="#98A2B3" stroke-width="1.5" stroke-linecap="round" stroke-linejoin="round"/>
</svg>
