<svg width="19" height="19" viewBox="0 0 19 19" fill="none" xmlns="http://www.w3.org/2000/svg">
<path d="M15.8887 16.2401H3.58867C3.16863 16.2401 2.95861 16.2401 2.79818 16.1584C2.65706 16.0865 2.54232 15.9717 2.47042 15.8306C2.38867 15.6702 2.38867 15.4602 2.38867 15.0401V2.74011M15.1387 11.7401L12.1995 8.60312C12.0881 8.48423 12.0324 8.42479 11.9652 8.39407C11.9059 8.36695 11.8406 8.35576 11.7756 8.36162C11.7021 8.36825 11.6298 8.40578 11.4852 8.48086L9.04216 9.74937C8.89758 9.82444 8.82528 9.86198 8.7517 9.86861C8.68675 9.87446 8.6214 9.86328 8.5621 9.83616C8.49491 9.80544 8.43921 9.74599 8.32782 9.62711L5.38867 6.49011" stroke="#98A2B3" stroke-width="1.5" stroke-linecap="round" stroke-linejoin="round"/>
</svg>
