<svg width="19" height="19" viewBox="0 0 19 19" fill="none" xmlns="http://www.w3.org/2000/svg">
<path d="M15.9048 7.24011L11.0684 10.6947C10.9214 10.7996 10.848 10.8521 10.7693 10.868C10.6999 10.8819 10.628 10.876 10.5619 10.8508C10.4869 10.8222 10.4231 10.7584 10.2954 10.6307L8.01419 8.34952C7.88651 8.22183 7.82266 8.15799 7.74765 8.12944C7.68153 8.10427 7.60964 8.09832 7.54028 8.11227C7.4616 8.12811 7.38813 8.18059 7.24118 8.28554L2.40479 11.7401M6.00479 16.2401H12.3048C13.5649 16.2401 14.195 16.2401 14.6763 15.9949C15.0996 15.7792 15.4438 15.435 15.6596 15.0116C15.9048 14.5303 15.9048 13.9002 15.9048 12.6401V6.34011C15.9048 5.07999 15.9048 4.44994 15.6596 3.96863C15.4438 3.54527 15.0996 3.20106 14.6763 2.98535C14.195 2.74011 13.5649 2.74011 12.3048 2.74011H6.00479C4.74467 2.74011 4.11461 2.74011 3.63331 2.98535C3.20994 3.20106 2.86574 3.54527 2.65002 3.96863C2.40479 4.44994 2.40479 5.07999 2.40479 6.34011V12.6401C2.40479 13.9002 2.40479 14.5303 2.65002 15.0116C2.86574 15.435 3.20994 15.7792 3.63331 15.9949C4.11461 16.2401 4.74467 16.2401 6.00479 16.2401Z" stroke="#98A2B3" stroke-width="1.5" stroke-linecap="round" stroke-linejoin="round"/>
</svg>
