<svg width="19" height="19" viewBox="0 0 19 19" fill="none" xmlns="http://www.w3.org/2000/svg">
<path d="M16.3901 16.2401H4.09014C3.6701 16.2401 3.46008 16.2401 3.29964 16.1584C3.15852 16.0865 3.04379 15.9717 2.97188 15.8306C2.89014 15.6702 2.89014 15.4602 2.89014 15.0401V2.74011M16.3901 11.7401L12.3144 7.66438C12.1659 7.51587 12.0916 7.44162 12.006 7.4138C11.9307 7.38933 11.8496 7.38933 11.7743 7.4138C11.6886 7.44162 11.6144 7.51587 11.4659 7.66438L10.0644 9.06585C9.9159 9.21436 9.84164 9.28861 9.75602 9.31643C9.6807 9.3409 9.59957 9.3409 9.52426 9.31643C9.43863 9.28861 9.36438 9.21436 9.21587 9.06585L5.89014 5.74011M16.3901 11.7401H13.3901M16.3901 11.7401V8.74011" stroke="#98A2B3" stroke-width="1.5" stroke-linecap="round" stroke-linejoin="round"/>
</svg>
