<svg width="19" height="19" viewBox="0 0 19 19" fill="none" xmlns="http://www.w3.org/2000/svg">
<path d="M13.4023 7.24011L9.32661 11.3158C9.1781 11.4644 9.10385 11.5386 9.01823 11.5664C8.94291 11.5909 8.86178 11.5909 8.78646 11.5664C8.70084 11.5386 8.62659 11.4644 8.47808 11.3158L7.07661 9.91438C6.9281 9.76587 6.85385 9.69162 6.76823 9.6638C6.69291 9.63933 6.61178 9.63933 6.53646 9.6638C6.45084 9.69162 6.37659 9.76587 6.22808 9.91438L2.90234 13.2401M13.4023 7.24011H10.4023M13.4023 7.24011V10.2401M6.50234 16.2401H12.8023C14.0625 16.2401 14.6925 16.2401 15.1738 15.9949C15.5972 15.7792 15.9414 15.435 16.1571 15.0116C16.4023 14.5303 16.4023 13.9002 16.4023 12.6401V6.34011C16.4023 5.07999 16.4023 4.44994 16.1571 3.96863C15.9414 3.54527 15.5972 3.20106 15.1738 2.98535C14.6925 2.74011 14.0625 2.74011 12.8023 2.74011H6.50234C5.24223 2.74011 4.61217 2.74011 4.13087 2.98535C3.7075 3.20106 3.36329 3.54527 3.14758 3.96863C2.90234 4.44994 2.90234 5.07999 2.90234 6.34011V12.6401C2.90234 13.9002 2.90234 14.5303 3.14758 15.0116C3.36329 15.435 3.7075 15.7792 4.13087 15.9949C4.61217 16.2401 5.24223 16.2401 6.50234 16.2401Z" stroke="#98A2B3" stroke-width="1.5" stroke-linecap="round" stroke-linejoin="round"/>
</svg>
