<svg width="19" height="19" viewBox="0 0 19 19" fill="none" xmlns="http://www.w3.org/2000/svg">
<g clip-path="url(#clip0_1_8461)">
<path d="M4.64648 7.99011L7.22222 10.5658C7.37073 10.7144 7.44498 10.7886 7.5306 10.8164C7.60592 10.8409 7.68705 10.8409 7.76237 10.8164C7.84799 10.7886 7.92224 10.7144 8.07075 10.5658L10.2222 8.41438C10.3707 8.26587 10.445 8.19162 10.5306 8.1638C10.6059 8.13933 10.6871 8.13933 10.7624 8.1638C10.848 8.19162 10.9222 8.26587 11.0707 8.41438L13.6465 10.9901M16.6465 9.49011C16.6465 13.6322 13.2886 16.9901 9.14648 16.9901C5.00435 16.9901 1.64648 13.6322 1.64648 9.49011C1.64648 5.34798 5.00435 1.99011 9.14648 1.99011C13.2886 1.99011 16.6465 5.34798 16.6465 9.49011Z" stroke="#98A2B3" stroke-width="1.5" stroke-linecap="round" stroke-linejoin="round"/>
</g>
<defs>
<clipPath id="clip0_1_8461">
<rect width="18" height="18" fill="white" transform="translate(0.146484 0.490234)"/>
</clipPath>
</defs>
</svg>
