<svg width="19" height="19" viewBox="0 0 19 19" fill="none" xmlns="http://www.w3.org/2000/svg">
<path d="M8.15982 10.2401C8.48191 10.6707 8.89284 11.027 9.36473 11.2848C9.83663 11.5426 10.3584 11.6959 10.8948 11.7343C11.4312 11.7728 11.9695 11.6954 12.4733 11.5074C12.9771 11.3195 13.4347 11.0254 13.8148 10.6451L16.0648 8.39509C16.7479 7.68783 17.1259 6.74057 17.1173 5.75733C17.1088 4.77409 16.7144 3.83355 16.0191 3.13827C15.3239 2.44299 14.3833 2.0486 13.4001 2.04006C12.4168 2.03151 11.4696 2.40949 10.7623 3.09259L9.47232 4.37509M11.1598 8.74009C10.8377 8.30949 10.4268 7.9532 9.95491 7.69538C9.48301 7.43756 8.96119 7.28425 8.42483 7.24584C7.88847 7.20742 7.35013 7.28481 6.84631 7.47275C6.34249 7.66069 5.88498 7.95478 5.50482 8.33509L3.25482 10.5851C2.57173 11.2923 2.19375 12.2396 2.20229 13.2228C2.21083 14.2061 2.60522 15.1466 3.3005 15.8419C3.99578 16.5372 4.93633 16.9316 5.91956 16.9401C6.9028 16.9487 7.85006 16.5707 8.55732 15.8876L9.83982 14.6051" stroke="#98A2B3" stroke-width="1.5" stroke-linecap="round" stroke-linejoin="round"/>
</svg>
