<svg width="19" height="19" viewBox="0 0 19 19" fill="none" xmlns="http://www.w3.org/2000/svg">
<path d="M15.9277 7.24011L15.9277 2.74011M15.9277 2.74011H11.4277M15.9277 2.74011L9.92774 8.74011M7.67774 4.24011H6.02774C4.76762 4.24011 4.13756 4.24011 3.65626 4.48535C3.23289 4.70106 2.88868 5.04527 2.67297 5.46863C2.42773 5.94994 2.42773 6.57999 2.42773 7.84011V12.6401C2.42773 13.9002 2.42773 14.5303 2.67297 15.0116C2.88868 15.435 3.23289 15.7792 3.65626 15.9949C4.13756 16.2401 4.76762 16.2401 6.02774 16.2401H10.8277C12.0879 16.2401 12.7179 16.2401 13.1992 15.9949C13.6226 15.7792 13.9668 15.435 14.1825 15.0116C14.4277 14.5303 14.4277 13.9002 14.4277 12.6401V10.9901" stroke="#98A2B3" stroke-width="1.5" stroke-linecap="round" stroke-linejoin="round"/>
</svg>
