<svg width="19" height="19" viewBox="0 0 19 19" fill="none" xmlns="http://www.w3.org/2000/svg">
<path d="M16.4297 7.24012L16.4297 2.74012M16.4297 2.74012H11.9297M16.4297 2.74012L9.67969 9.49011M8.17969 2.74011H6.52969C5.26957 2.74011 4.63951 2.74011 4.15821 2.98535C3.73484 3.20106 3.39064 3.54527 3.17492 3.96863C2.92969 4.44994 2.92969 5.07999 2.92969 6.34011V12.6401C2.92969 13.9002 2.92969 14.5303 3.17492 15.0116C3.39064 15.435 3.73484 15.7792 4.15821 15.9949C4.63951 16.2401 5.26957 16.2401 6.52969 16.2401H12.8297C14.0898 16.2401 14.7199 16.2401 15.2012 15.9949C15.6245 15.7792 15.9687 15.435 16.1845 15.0116C16.4297 14.5303 16.4297 13.9002 16.4297 12.6401V10.9901" stroke="#98A2B3" stroke-width="1.5" stroke-linecap="round" stroke-linejoin="round"/>
</svg>
