<svg width="19" height="19" viewBox="0 0 19 19" fill="none" xmlns="http://www.w3.org/2000/svg">
<g clip-path="url(#clip0_1_10845)">
<path d="M12.1816 6.49011C13.3751 6.49011 14.5197 6.96422 15.3636 7.80813C16.2075 8.65205 16.6816 9.79664 16.6816 10.9901V16.2401H13.6816V10.9901C13.6816 10.5923 13.5236 10.2108 13.2423 9.92945C12.961 9.64815 12.5795 9.49011 12.1816 9.49011C11.7838 9.49011 11.4023 9.64815 11.121 9.92945C10.8397 10.2108 10.6816 10.5923 10.6816 10.9901V16.2401H7.68164V10.9901C7.68164 9.79664 8.15575 8.65205 8.99966 7.80813C9.84357 6.96422 10.9882 6.49011 12.1816 6.49011Z" stroke="#98A2B3" stroke-width="1.5" stroke-linecap="round" stroke-linejoin="round"/>
<path d="M4.68164 7.24011H1.68164V16.2401H4.68164V7.24011Z" stroke="#98A2B3" stroke-width="1.5" stroke-linecap="round" stroke-linejoin="round"/>
<path d="M3.18164 4.99011C4.01007 4.99011 4.68164 4.31854 4.68164 3.49011C4.68164 2.66169 4.01007 1.99011 3.18164 1.99011C2.35321 1.99011 1.68164 2.66169 1.68164 3.49011C1.68164 4.31854 2.35321 4.99011 3.18164 4.99011Z" stroke="#98A2B3" stroke-width="1.5" stroke-linecap="round" stroke-linejoin="round"/>
</g>
<defs>
<clipPath id="clip0_1_10845">
<rect width="18" height="18" fill="white" transform="translate(0.181641 0.490234)"/>
</clipPath>
</defs>
</svg>
