<svg width="19" height="19" viewBox="0 0 19 19" fill="none" xmlns="http://www.w3.org/2000/svg">
<g clip-path="url(#clip0_1_10731)">
<path d="M7.42188 13.2401H5.17188C4.67942 13.2401 4.19178 13.1431 3.73681 12.9547C3.28184 12.7662 2.86844 12.49 2.52022 12.1418C1.81696 11.4385 1.42188 10.4847 1.42188 9.49011C1.42188 8.49555 1.81696 7.54172 2.52022 6.83846C3.22349 6.1352 4.17731 5.74011 5.17188 5.74011H7.42188M6.67188 9.49011H12.6719M11.9219 5.74011H14.1719C14.6643 5.74011 15.152 5.83711 15.6069 6.02556C16.0619 6.21402 16.4753 6.49024 16.8235 6.83846C17.1717 7.18668 17.448 7.60008 17.6364 8.05505C17.8249 8.51002 17.9219 8.99766 17.9219 9.49011C17.9219 9.98257 17.8249 10.4702 17.6364 10.9252C17.448 11.3801 17.1717 11.7935 16.8235 12.1418C16.4753 12.49 16.0619 12.7662 15.6069 12.9547C15.152 13.1431 14.6643 13.2401 14.1719 13.2401H11.9219V5.74011Z" stroke="#98A2B3" stroke-width="1.5" stroke-linecap="round" stroke-linejoin="round"/>
</g>
<defs>
<clipPath id="clip0_1_10731">
<rect width="18" height="18" fill="white" transform="translate(0.671875 0.490234)"/>
</clipPath>
</defs>
</svg>
