<svg width="19" height="19" viewBox="0 0 19 19" fill="none" xmlns="http://www.w3.org/2000/svg">
<g clip-path="url(#clip0_1_9275)">
<path d="M6.92383 3.49011V1.99011M11.4238 15.4901V16.9901M3.17383 7.24011H1.67383M15.1738 11.7401H16.6738M3.85949 4.17577L2.79883 3.11511M14.4882 14.8045L15.5488 15.8651M9.17383 13.7328L7.58284 15.3237C6.41127 16.4953 4.51177 16.4953 3.3402 15.3237C2.16862 14.1522 2.16862 12.2527 3.3402 11.0811L4.93119 9.49011M13.4165 9.49011L15.0075 7.89912C16.179 6.72755 16.179 4.82805 15.0075 3.65648C13.8359 2.48491 11.9364 2.48491 10.7648 3.65648L9.17383 5.24747" stroke="#98A2B3" stroke-width="1.5" stroke-linecap="round" stroke-linejoin="round"/>
</g>
<defs>
<clipPath id="clip0_1_9275">
<rect width="18" height="18" fill="white" transform="translate(0.173828 0.490234)"/>
</clipPath>
</defs>
</svg>
