<svg width="19" height="19" viewBox="0 0 19 19" fill="none" xmlns="http://www.w3.org/2000/svg">
<path d="M7.05127 12.1151L12.3013 6.8651M7.42627 3.49011V1.99011M11.9263 15.4901V16.9901M3.67627 7.24011H2.17627M15.6763 11.7401H17.1763M4.36193 4.17577L3.30127 3.11511M14.9906 14.8044L16.0513 15.865M9.6763 13.7327L8.08531 15.3237C6.91373 16.4953 5.01424 16.4953 3.84266 15.3237C2.67109 14.1521 2.67109 12.2526 3.84266 11.081L5.43365 9.49005M13.9189 9.49005L15.5099 7.89906C16.6815 6.72748 16.6815 4.82799 15.5099 3.65642C14.3384 2.48484 12.4389 2.48484 11.2673 3.65642L9.6763 5.24741" stroke="#98A2B3" stroke-width="1.5" stroke-linecap="round" stroke-linejoin="round"/>
</svg>
