<svg width="19" height="19" viewBox="0 0 19 19" fill="none" xmlns="http://www.w3.org/2000/svg">
<g clip-path="url(#clip0_1_9463)">
<path d="M7.66617 10.2401C7.98826 10.6707 8.39918 11.027 8.87108 11.2848C9.34297 11.5426 9.8648 11.6959 10.4012 11.7343C10.9375 11.7728 11.4759 11.6954 11.9797 11.5074C12.4835 11.3195 12.941 11.0254 13.3212 10.6451L15.5712 8.39509C16.2543 7.68783 16.6322 6.74057 16.6237 5.75733C16.6152 4.77409 16.2208 3.83355 15.5255 3.13827C14.8302 2.44299 13.8897 2.0486 12.9064 2.04006C11.9232 2.03151 10.9759 2.40949 10.2687 3.09259L8.97867 4.37509M10.6662 8.74009C10.3441 8.30949 9.93315 7.9532 9.46125 7.69538C8.98936 7.43756 8.46754 7.28425 7.93118 7.24584C7.39482 7.20742 6.85648 7.28481 6.35266 7.47275C5.84884 7.66069 5.39133 7.95478 5.01117 8.33509L2.76117 10.5851C2.07807 11.2923 1.70009 12.2396 1.70864 13.2228C1.71718 14.2061 2.11157 15.1466 2.80685 15.8419C3.50213 16.5372 4.44267 16.9316 5.42591 16.9401C6.40915 16.9487 7.35641 16.5707 8.06367 15.8876L9.34617 14.6051" stroke="#98A2B3" stroke-width="1.5" stroke-linecap="round" stroke-linejoin="round"/>
</g>
<defs>
<clipPath id="clip0_1_9463">
<rect width="18" height="18" fill="white" transform="translate(0.166016 0.490234)"/>
</clipPath>
</defs>
</svg>
