<svg width="19" height="19" viewBox="0 0 19 19" fill="none" xmlns="http://www.w3.org/2000/svg">
<path d="M15.9355 9.49011L6.93555 9.49011M15.9355 4.99011L6.93555 4.99011M15.9355 13.9901L6.93555 13.9901M3.93555 9.49011C3.93555 9.90433 3.59976 10.2401 3.18555 10.2401C2.77133 10.2401 2.43555 9.90433 2.43555 9.49011C2.43555 9.0759 2.77133 8.74011 3.18555 8.74011C3.59976 8.74011 3.93555 9.0759 3.93555 9.49011ZM3.93555 4.99011C3.93555 5.40433 3.59976 5.74011 3.18555 5.74011C2.77133 5.74011 2.43555 5.40433 2.43555 4.99011C2.43555 4.5759 2.77133 4.24011 3.18555 4.24011C3.59976 4.24011 3.93555 4.5759 3.93555 4.99011ZM3.93555 13.9901C3.93555 14.4043 3.59976 14.7401 3.18555 14.7401C2.77133 14.7401 2.43555 14.4043 2.43555 13.9901C2.43555 13.5759 2.77133 13.2401 3.18555 13.2401C3.59976 13.2401 3.93555 13.5759 3.93555 13.9901Z" stroke="#98A2B3" stroke-width="1.5" stroke-linecap="round" stroke-linejoin="round"/>
</svg>
