<svg width="19" height="19" viewBox="0 0 19 19" fill="none" xmlns="http://www.w3.org/2000/svg">
<g clip-path="url(#clip0_1_9287)">
<path d="M2.69855 13.2399C1.75943 11.6125 2.23691 9.53844 3.79183 8.48516L3.79349 8.48349C5.04259 7.63937 6.68667 7.6677 7.90661 8.55432L10.4806 10.4259C11.6997 11.3125 13.3438 11.3408 14.5938 10.4967L14.5954 10.4951C16.1512 9.44178 16.6295 7.36605 15.6887 5.74031M12.9448 15.9846C11.3174 16.9237 9.24335 16.4462 8.19007 14.8913L8.18841 14.8896C7.34429 13.6405 7.37262 11.9965 8.25924 10.7765L10.1308 8.20249C11.0174 6.98339 11.0458 5.33931 10.2016 4.08937L10.1983 4.08771C9.14502 2.53362 7.0693 2.05448 5.44355 2.99526M14.4962 4.18687C17.4252 7.11588 17.4252 11.864 14.4962 14.793C11.5672 17.722 6.81913 17.722 3.89012 14.793C0.961106 11.864 0.961106 7.11588 3.89012 4.18687C6.81913 1.25786 11.5672 1.25786 14.4962 4.18687Z" stroke="#98A2B3" stroke-width="1.5" stroke-linecap="round" stroke-linejoin="round"/>
</g>
<defs>
<clipPath id="clip0_1_9287">
<rect width="18" height="18" fill="white" transform="translate(0.193359 0.490234)"/>
</clipPath>
</defs>
</svg>
