<svg width="19" height="19" viewBox="0 0 19 19" fill="none" xmlns="http://www.w3.org/2000/svg">
<path d="M5.45947 7.99011V6.49011C5.45947 4.41904 7.13841 2.74011 9.20947 2.74011C10.7472 2.74011 12.0688 3.66568 12.6474 4.99011M9.20947 11.3651V12.8651M6.80947 16.2401H11.6095C12.8696 16.2401 13.4997 16.2401 13.981 15.9949C14.4043 15.7792 14.7485 15.435 14.9642 15.0116C15.2095 14.5303 15.2095 13.9002 15.2095 12.6401V11.5901C15.2095 10.33 15.2095 9.69994 14.9642 9.21863C14.7485 8.79527 14.4043 8.45106 13.981 8.23535C13.4997 7.99011 12.8696 7.99011 11.6095 7.99011H6.80947C5.54935 7.99011 4.9193 7.99011 4.43799 8.23535C4.01463 8.45106 3.67042 8.79527 3.45471 9.21863C3.20947 9.69994 3.20947 10.33 3.20947 11.5901V12.6401C3.20947 13.9002 3.20947 14.5303 3.45471 15.0116C3.67042 15.435 4.01463 15.7792 4.43799 15.9949C4.9193 16.2401 5.54935 16.2401 6.80947 16.2401Z" stroke="#98A2B3" stroke-width="1.5" stroke-linecap="round" stroke-linejoin="round"/>
</svg>
