<svg width="19" height="19" viewBox="0 0 19 19" fill="none" xmlns="http://www.w3.org/2000/svg">
<path d="M12.9478 7.99011V6.49011C12.9478 4.41904 11.2688 2.74011 9.19775 2.74011C7.12669 2.74011 5.44775 4.41904 5.44775 6.49011V7.99011M9.19775 11.3651V12.8651M6.79775 16.2401H11.5978C12.8579 16.2401 13.4879 16.2401 13.9692 15.9949C14.3926 15.7792 14.7368 15.435 14.9525 15.0116C15.1978 14.5303 15.1978 13.9002 15.1978 12.6401V11.5901C15.1978 10.33 15.1978 9.69994 14.9525 9.21863C14.7368 8.79527 14.3926 8.45106 13.9692 8.23535C13.4879 7.99011 12.8579 7.99011 11.5978 7.99011H6.79775C5.53764 7.99011 4.90758 7.99011 4.42628 8.23535C4.00291 8.45106 3.6587 8.79527 3.44299 9.21863C3.19775 9.69994 3.19775 10.33 3.19775 11.5901V12.6401C3.19775 13.9002 3.19775 14.5303 3.44299 15.0116C3.6587 15.435 4.00291 15.7792 4.42628 15.9949C4.90758 16.2401 5.53764 16.2401 6.79775 16.2401Z" stroke="#98A2B3" stroke-width="1.5" stroke-linecap="round" stroke-linejoin="round"/>
</svg>
