<svg width="19" height="19" viewBox="0 0 19 19" fill="none" xmlns="http://www.w3.org/2000/svg">
<path d="M5.46338 8.74011V6.49011C5.46338 4.41904 7.14231 2.74011 9.21338 2.74011C11.0276 2.74011 12.5409 4.02843 12.8884 5.74011M6.81338 16.2401H11.6134C12.8735 16.2401 13.5036 16.2401 13.9849 15.9949C14.4082 15.7792 14.7524 15.435 14.9681 15.0116C15.2134 14.5303 15.2134 13.9002 15.2134 12.6401V12.3401C15.2134 11.08 15.2134 10.4499 14.9681 9.96863C14.7524 9.54527 14.4082 9.20106 13.9849 8.98535C13.5036 8.74011 12.8735 8.74011 11.6134 8.74011H6.81338C5.55326 8.74011 4.9232 8.74011 4.4419 8.98535C4.01854 9.20106 3.67433 9.54527 3.45861 9.96863C3.21338 10.4499 3.21338 11.08 3.21338 12.3401V12.6401C3.21338 13.9002 3.21338 14.5303 3.45861 15.0116C3.67433 15.435 4.01854 15.7792 4.4419 15.9949C4.9232 16.2401 5.55326 16.2401 6.81338 16.2401Z" stroke="#98A2B3" stroke-width="1.5" stroke-linecap="round" stroke-linejoin="round"/>
</svg>
