<svg width="19" height="19" viewBox="0 0 19 19" fill="none" xmlns="http://www.w3.org/2000/svg">
<g clip-path="url(#clip0_1_8540)">
<path d="M9.20557 16.9901C13.3477 16.9901 16.7056 13.6322 16.7056 9.49011C16.7056 5.34798 13.3477 1.99011 9.20557 1.99011C5.06343 1.99011 1.70557 5.34798 1.70557 9.49011C1.70557 13.6322 5.06343 16.9901 9.20557 16.9901Z" stroke="#98A2B3" stroke-width="1.5" stroke-linecap="round" stroke-linejoin="round"/>
<path d="M10.5042 10.3861C10.4513 10.2274 10.4249 10.148 10.4263 10.0831C10.4277 10.0148 10.4368 9.97904 10.4683 9.91841C10.4982 9.86077 10.5781 9.78639 10.738 9.63763C11.1794 9.22683 11.4556 8.64072 11.4556 7.99011C11.4556 6.74747 10.4482 5.74011 9.20557 5.74011C7.96293 5.74011 6.95557 6.74747 6.95557 7.99011C6.95557 8.64072 7.23171 9.22683 7.67317 9.63763C7.83304 9.78639 7.91297 9.86077 7.94286 9.91841C7.9743 9.97904 7.98344 10.0148 7.98488 10.0831C7.98626 10.148 7.9598 10.2274 7.90689 10.3861L7.21881 12.4504C7.12994 12.717 7.0855 12.8503 7.11214 12.9564C7.13547 13.0493 7.19345 13.1298 7.2742 13.1813C7.36644 13.2401 7.50697 13.2401 7.78802 13.2401H10.6231C10.9042 13.2401 11.0447 13.2401 11.1369 13.1813C11.2177 13.1298 11.2757 13.0493 11.299 12.9564C11.3256 12.8503 11.2812 12.717 11.1923 12.4504L10.5042 10.3861Z" stroke="#98A2B3" stroke-width="1.5" stroke-linecap="round" stroke-linejoin="round"/>
</g>
<defs>
<clipPath id="clip0_1_8540">
<rect width="18" height="18" fill="white" transform="translate(0.205566 0.490234)"/>
</clipPath>
</defs>
</svg>
