<svg width="19" height="19" viewBox="0 0 19 19" fill="none" xmlns="http://www.w3.org/2000/svg">
<path d="M5.96143 8.74011V6.49011C5.96143 4.41904 7.64036 2.74011 9.71143 2.74011C11.5256 2.74011 13.039 4.02843 13.3864 5.74011M6.56143 16.2401H12.8614C14.1215 16.2401 14.7516 16.2401 15.2329 15.9949C15.6563 15.7792 16.0005 15.435 16.2162 15.0116C16.4614 14.5303 16.4614 13.9002 16.4614 12.6401V12.3401C16.4614 11.08 16.4614 10.4499 16.2162 9.96863C16.0005 9.54527 15.6563 9.20106 15.2329 8.98535C14.7516 8.74011 14.1215 8.74011 12.8614 8.74011H6.56143C5.30131 8.74011 4.67125 8.74011 4.18995 8.98535C3.76658 9.20106 3.42238 9.54527 3.20666 9.96863C2.96143 10.4499 2.96143 11.08 2.96143 12.3401V12.6401C2.96143 13.9002 2.96143 14.5303 3.20666 15.0116C3.42238 15.435 3.76658 15.7792 4.18995 15.9949C4.67125 16.2401 5.30131 16.2401 6.56143 16.2401Z" stroke="#98A2B3" stroke-width="1.5" stroke-linecap="round" stroke-linejoin="round"/>
</svg>
