<svg width="19" height="19" viewBox="0 0 19 19" fill="none" xmlns="http://www.w3.org/2000/svg">
<path d="M12.9517 8.74011V6.49011C12.9517 4.41904 11.2727 2.74011 9.20166 2.74011C7.13059 2.74011 5.45166 4.41904 5.45166 6.49011V8.74011M6.80166 16.2401H11.6017C12.8618 16.2401 13.4918 16.2401 13.9731 15.9949C14.3965 15.7792 14.7407 15.435 14.9564 15.0116C15.2017 14.5303 15.2017 13.9002 15.2017 12.6401V12.3401C15.2017 11.08 15.2017 10.4499 14.9564 9.96863C14.7407 9.54527 14.3965 9.20106 13.9731 8.98535C13.4918 8.74011 12.8618 8.74011 11.6017 8.74011H6.80166C5.54154 8.74011 4.91148 8.74011 4.43018 8.98535C4.00682 9.20106 3.66261 9.54527 3.4469 9.96863C3.20166 10.4499 3.20166 11.08 3.20166 12.3401V12.6401C3.20166 13.9002 3.20166 14.5303 3.4469 15.0116C3.66261 15.435 4.00682 15.7792 4.43018 15.9949C4.91148 16.2401 5.54154 16.2401 6.80166 16.2401Z" stroke="#98A2B3" stroke-width="1.5" stroke-linecap="round" stroke-linejoin="round"/>
</svg>
