<svg width="19" height="19" viewBox="0 0 19 19" fill="none" xmlns="http://www.w3.org/2000/svg">
<path d="M13.4492 8.74011V6.49011C13.4492 4.41904 11.7703 2.74011 9.69922 2.74011C7.62815 2.74011 5.94922 4.41904 5.94922 6.49011V8.74011M6.54922 16.2401H12.8492C14.1093 16.2401 14.7394 16.2401 15.2207 15.9949C15.6441 15.7792 15.9883 15.435 16.204 15.0116C16.4492 14.5303 16.4492 13.9002 16.4492 12.6401V12.3401C16.4492 11.08 16.4492 10.4499 16.204 9.96863C15.9883 9.54527 15.6441 9.20106 15.2207 8.98535C14.7394 8.74011 14.1093 8.74011 12.8492 8.74011H6.54922C5.2891 8.74011 4.65904 8.74011 4.17774 8.98535C3.75438 9.20106 3.41017 9.54527 3.19445 9.96863C2.94922 10.4499 2.94922 11.08 2.94922 12.3401V12.6401C2.94922 13.9002 2.94922 14.5303 3.19445 15.0116C3.41017 15.435 3.75438 15.7792 4.17774 15.9949C4.65904 16.2401 5.2891 16.2401 6.54922 16.2401Z" stroke="#98A2B3" stroke-width="1.5" stroke-linecap="round" stroke-linejoin="round"/>
</svg>
