<svg width="19" height="19" viewBox="0 0 19 19" fill="none" xmlns="http://www.w3.org/2000/svg">
<path d="M5.94531 8.74011V5.74011C5.94531 4.74555 6.3404 3.79172 7.04366 3.08846C7.74692 2.3852 8.70075 1.99011 9.69531 1.99011C10.6899 1.99011 11.6437 2.3852 12.347 3.08846C13.0502 3.79172 13.4453 4.74555 13.4453 5.74011V8.74011M4.44531 8.74011H14.9453C15.7737 8.74011 16.4453 9.41169 16.4453 10.2401V15.4901C16.4453 16.3185 15.7737 16.9901 14.9453 16.9901H4.44531C3.61689 16.9901 2.94531 16.3185 2.94531 15.4901V10.2401C2.94531 9.41169 3.61689 8.74011 4.44531 8.74011Z" stroke="#98A2B3" stroke-width="1.5" stroke-linecap="round" stroke-linejoin="round"/>
</svg>
