<svg width="19" height="19" viewBox="0 0 19 19" fill="none" xmlns="http://www.w3.org/2000/svg">
<path d="M12.8575 16.2401C14.1176 16.2401 14.7477 16.2401 15.229 15.9949C15.6524 15.7792 15.9966 15.435 16.2123 15.0116C16.4575 14.5303 16.4575 13.9002 16.4575 12.6401V6.34011C16.4575 5.08 16.4575 4.44994 16.2123 3.96863C15.9966 3.54527 15.6524 3.20106 15.229 2.98535C14.7477 2.74011 14.1176 2.74011 12.8575 2.74011L6.55752 2.74011C5.2974 2.74011 4.66734 2.74011 4.18604 2.98535C3.76268 3.20106 3.41847 3.54527 3.20276 3.96863C2.95752 4.44994 2.95752 5.07999 2.95752 6.34011L2.95752 12.6401C2.95752 13.9002 2.95752 14.5303 3.20275 15.0116C3.41847 15.435 3.76268 15.7792 4.18604 15.9949C4.66734 16.2401 5.2974 16.2401 6.55752 16.2401H12.8575Z" stroke="#98A2B3" stroke-width="1.5" stroke-linecap="round" stroke-linejoin="round"/>
<path d="M11.0062 10.3861C10.9533 10.2274 10.9268 10.148 10.9282 10.0831C10.9297 10.0148 10.9388 9.97904 10.9702 9.91841C11.0001 9.86077 11.0801 9.78639 11.2399 9.63763C11.6814 9.22683 11.9575 8.64072 11.9575 7.99011C11.9575 6.74747 10.9502 5.74011 9.70752 5.74011C8.46488 5.74011 7.45752 6.74747 7.45752 7.99011C7.45752 8.64072 7.73366 9.22683 8.17513 9.63763C8.33499 9.78639 8.41492 9.86077 8.44482 9.91841C8.47626 9.97904 8.48539 10.0148 8.48684 10.0831C8.48821 10.148 8.46176 10.2274 8.40885 10.3861L7.72077 12.4504C7.63189 12.717 7.58745 12.8503 7.6141 12.9564C7.63742 13.0493 7.6954 13.1298 7.77615 13.1813C7.86839 13.2401 8.00892 13.2401 8.28998 13.2401H11.1251C11.4061 13.2401 11.5466 13.2401 11.6389 13.1813C11.7196 13.1298 11.7776 13.0493 11.8009 12.9564C11.8276 12.8503 11.7832 12.717 11.6943 12.4504L11.0062 10.3861Z" stroke="#98A2B3" stroke-width="1.5" stroke-linecap="round" stroke-linejoin="round"/>
</svg>
