<svg width="19" height="19" viewBox="0 0 19 19" fill="none" xmlns="http://www.w3.org/2000/svg">
<path d="M4.72119 13.2401C4.72119 13.9376 4.72119 14.2863 4.79786 14.5725C5.00591 15.3489 5.61239 15.9554 6.38885 16.1634C6.67497 16.2401 7.02371 16.2401 7.72119 16.2401H12.3712C13.6313 16.2401 14.2614 16.2401 14.7427 15.9949C15.166 15.7792 15.5102 15.435 15.726 15.0116C15.9712 14.5303 15.9712 13.9002 15.9712 12.6401V6.34011C15.9712 5.07999 15.9712 4.44994 15.726 3.96863C15.5102 3.54527 15.166 3.20106 14.7427 2.98535C14.2614 2.74011 13.6313 2.74011 12.3712 2.74011H7.72119C7.02371 2.74011 6.67497 2.74011 6.38885 2.81678C5.61239 3.02483 5.00591 3.63131 4.79786 4.40777C4.72119 4.69389 4.72119 5.04263 4.72119 5.74011M9.22119 6.49011L12.2212 9.49011M12.2212 9.49011L9.22119 12.4901M12.2212 9.49011H2.47119" stroke="#98A2B3" stroke-width="1.5" stroke-linecap="round" stroke-linejoin="round"/>
</svg>
