<svg width="19" height="19" viewBox="0 0 19 19" fill="none" xmlns="http://www.w3.org/2000/svg">
<path d="M12.2324 13.2401L15.9824 9.4901M15.9824 9.4901L12.2324 5.7401M15.9824 9.4901H6.98242M9.23242 13.2401C9.23242 13.4618 9.23242 13.5726 9.22418 13.6686C9.13854 14.6666 8.40356 15.4877 7.4212 15.6831C7.32669 15.7018 7.21644 15.7141 6.99619 15.7386L6.23013 15.8237C5.07928 15.9516 4.50383 16.0155 4.04667 15.8692C3.43712 15.6741 2.93948 15.2287 2.67831 14.6445C2.48242 14.2063 2.48242 13.6273 2.48242 12.4693V6.51087C2.48242 5.35292 2.48242 4.77395 2.67831 4.33574C2.93948 3.75146 3.43712 3.30605 4.04667 3.11099C4.50383 2.9647 5.07926 3.02864 6.23013 3.15651L6.99618 3.24163C7.21651 3.26611 7.32668 3.27835 7.4212 3.29714C8.40356 3.49247 9.13854 4.31363 9.22418 5.31155C9.23242 5.40757 9.23242 5.51842 9.23242 5.7401" stroke="#98A2B3" stroke-width="1.5" stroke-linecap="round" stroke-linejoin="round"/>
</svg>
