<svg width="19" height="19" viewBox="0 0 19 19" fill="none" xmlns="http://www.w3.org/2000/svg">
<path d="M5.22363 13.2402C5.22363 13.5037 5.22363 13.6355 5.23538 13.75C5.33294 14.7008 6.02059 15.4862 6.95018 15.7086C7.06214 15.7354 7.19276 15.7528 7.4539 15.7876L12.3978 16.4468C13.8052 16.6344 14.5088 16.7283 15.055 16.5111C15.5345 16.3205 15.9339 15.9708 16.1862 15.5207C16.4736 15.0081 16.4736 14.2982 16.4736 12.8784V6.1021C16.4736 4.68231 16.4736 3.97242 16.1862 3.45978C15.9339 3.00969 15.5345 2.66002 15.055 2.46936C14.5088 2.25221 13.8052 2.34603 12.3978 2.53367L7.4539 3.19287C7.19273 3.22769 7.06215 3.2451 6.95018 3.27189C6.02059 3.49425 5.33294 4.27967 5.23538 5.23049C5.22363 5.34502 5.22363 5.47676 5.22363 5.74024M9.72363 6.49024L12.7236 9.49024M12.7236 9.49024L9.72363 12.4902M12.7236 9.49024H2.97363" stroke="#98A2B3" stroke-width="1.5" stroke-linecap="round" stroke-linejoin="round"/>
</svg>
