<svg width="19" height="19" viewBox="0 0 19 19" fill="none" xmlns="http://www.w3.org/2000/svg">
<path d="M12.7305 13.2401L16.4805 9.49011M16.4805 9.49011L12.7305 5.74011M16.4805 9.49011H7.48047M9.73047 13.2401C9.73047 13.9376 9.73047 14.2863 9.6538 14.5725C9.44575 15.3489 8.83927 15.9554 8.06281 16.1634C7.77669 16.2401 7.42795 16.2401 6.73047 16.2401H6.35547C5.3071 16.2401 4.78292 16.2401 4.36943 16.0688C3.81812 15.8405 3.3801 15.4025 3.15174 14.8512C2.98047 14.4377 2.98047 13.9135 2.98047 12.8651V6.11511C2.98047 5.06674 2.98047 4.54256 3.15174 4.12907C3.3801 3.57776 3.81812 3.13974 4.36943 2.91138C4.78292 2.74011 5.3071 2.74011 6.35547 2.74011H6.73047C7.42795 2.74011 7.77669 2.74011 8.06281 2.81678C8.83927 3.02483 9.44575 3.63131 9.6538 4.40777C9.73047 4.69389 9.73047 5.04263 9.73047 5.74011" stroke="#98A2B3" stroke-width="1.5" stroke-linecap="round" stroke-linejoin="round"/>
</svg>
