<svg width="19" height="19" viewBox="0 0 19 19" fill="none" xmlns="http://www.w3.org/2000/svg">
<path d="M12.7383 5.74011C12.7383 5.04263 12.7383 4.69389 12.6616 4.40777C12.4536 3.63131 11.8471 3.02483 11.0706 2.81678C10.7845 2.74011 10.4358 2.74011 9.73828 2.74011C9.0408 2.74011 8.69206 2.74011 8.40594 2.81678C7.62948 3.02483 7.023 3.63131 6.81495 4.40777C6.73828 4.69389 6.73828 5.04263 6.73828 5.74011M10.3383 13.6151H14.0133C14.2233 13.6151 14.3283 13.6151 14.4085 13.5742C14.4791 13.5383 14.5365 13.4809 14.5724 13.4104C14.6133 13.3301 14.6133 13.2251 14.6133 13.0151V11.2151C14.6133 11.0051 14.6133 10.9001 14.5724 10.8199C14.5365 10.7493 14.4791 10.6919 14.4085 10.656C14.3283 10.6151 14.2233 10.6151 14.0133 10.6151H10.3383C10.1283 10.6151 10.0233 10.6151 9.94304 10.656C9.87247 10.6919 9.81511 10.7493 9.77915 10.8199C9.73828 10.9001 9.73828 11.0051 9.73828 11.2151V13.0151C9.73828 13.2251 9.73828 13.3301 9.77915 13.4104C9.81511 13.4809 9.87247 13.5383 9.94304 13.5742C10.0233 13.6151 10.1283 13.6151 10.3383 13.6151ZM5.83828 16.2401H13.6383C14.8984 16.2401 15.5285 16.2401 16.0098 15.9949C16.4331 15.7792 16.7773 15.435 16.993 15.0116C17.2383 14.5303 17.2383 13.9002 17.2383 12.6401V9.34011C17.2383 8.08 17.2383 7.44994 16.993 6.96863C16.7773 6.54527 16.4331 6.20106 16.0098 5.98535C15.5285 5.74011 14.8984 5.74011 13.6383 5.74011H5.83828C4.57816 5.74011 3.9481 5.74011 3.4668 5.98535C3.04344 6.20106 2.69923 6.54527 2.48352 6.96863C2.23828 7.44994 2.23828 8.07999 2.23828 9.34011V12.6401C2.23828 13.9002 2.23828 14.5303 2.48352 15.0116C2.69923 15.435 3.04344 15.7792 3.4668 15.9949C3.9481 16.2401 4.57816 16.2401 5.83828 16.2401Z" stroke="#98A2B3" stroke-width="1.5" stroke-linecap="round" stroke-linejoin="round"/>
</svg>
