<svg width="19" height="19" viewBox="0 0 19 19" fill="none" xmlns="http://www.w3.org/2000/svg">
<path d="M6.2373 16.9901V15.4901M7.36231 11.7401V5.74011M12.2373 16.9901V15.4901M11.1123 11.7401V5.74011M6.83731 15.4901H11.6373C12.8974 15.4901 13.5275 15.4901 14.0088 15.2449C14.4321 15.0292 14.7764 14.685 14.9921 14.2616C15.2373 13.7803 15.2373 13.1502 15.2373 11.8901V5.59011C15.2373 4.32999 15.2373 3.69994 14.9921 3.21863C14.7764 2.79527 14.4321 2.45106 14.0088 2.23535C13.5275 1.99011 12.8974 1.99011 11.6373 1.99011H6.83731C5.57719 1.99011 4.94713 1.99011 4.46583 2.23535C4.04246 2.45106 3.69826 2.79527 3.48254 3.21863C3.2373 3.69994 3.2373 4.32999 3.2373 5.59011V11.8901C3.2373 13.1502 3.2373 13.7803 3.48254 14.2616C3.69826 14.685 4.04246 15.0292 4.46583 15.2449C4.94713 15.4901 5.57719 15.4901 6.83731 15.4901Z" stroke="#98A2B3" stroke-width="1.5" stroke-linecap="round" stroke-linejoin="round"/>
</svg>
