<svg width="19" height="19" viewBox="0 0 19 19" fill="none" xmlns="http://www.w3.org/2000/svg">
<g clip-path="url(#clip0_1_10443)">
<path d="M6.24121 16.2401V5.74011C6.24121 5.04263 6.24121 4.69389 6.31788 4.40777C6.52593 3.63131 7.13241 3.02483 7.90887 2.81678C8.19499 2.74011 8.54373 2.74011 9.24121 2.74011C9.93869 2.74011 10.2874 2.74011 10.5736 2.81678C11.35 3.02483 11.9565 3.63131 12.1645 4.40777C12.2412 4.69389 12.2412 5.04263 12.2412 5.74011V10.6151M12.2412 13.6151V16.2401M5.34121 16.2401H13.1412C14.4013 16.2401 15.0314 16.2401 15.5127 15.9949C15.9361 15.7792 16.2803 15.435 16.496 15.0116C16.7412 14.5303 16.7412 13.9002 16.7412 12.6401V9.34011C16.7412 8.08 16.7412 7.44994 16.496 6.96863C16.2803 6.54527 15.9361 6.20106 15.5127 5.98535C15.0314 5.74011 14.4013 5.74011 13.1412 5.74011H5.34121C4.08109 5.74011 3.45103 5.74011 2.96973 5.98535C2.54637 6.20106 2.20216 6.54527 1.98645 6.96863C1.74121 7.44994 1.74121 8.07999 1.74121 9.34011V12.6401C1.74121 13.9002 1.74121 14.5303 1.98645 15.0116C2.20216 15.435 2.54637 15.7792 2.96973 15.9949C3.45103 16.2401 4.08109 16.2401 5.34121 16.2401ZM9.84121 13.6151H13.5162C13.7262 13.6151 13.8312 13.6151 13.9115 13.5742C13.982 13.5383 14.0394 13.4809 14.0753 13.4104C14.1162 13.3301 14.1162 13.2251 14.1162 13.0151V11.2151C14.1162 11.0051 14.1162 10.9001 14.0753 10.8199C14.0394 10.7493 13.982 10.6919 13.9115 10.656C13.8312 10.6151 13.7262 10.6151 13.5162 10.6151H9.84121C9.63119 10.6151 9.52618 10.6151 9.44596 10.656C9.3754 10.6919 9.31804 10.7493 9.28208 10.8199C9.24121 10.9001 9.24121 11.0051 9.24121 11.2151V13.0151C9.24121 13.2251 9.24121 13.3301 9.28208 13.4104C9.31804 13.4809 9.3754 13.5383 9.44596 13.5742C9.52618 13.6151 9.63119 13.6151 9.84121 13.6151Z" stroke="#98A2B3" stroke-width="1.5" stroke-linecap="round" stroke-linejoin="round"/>
</g>
<defs>
<clipPath id="clip0_1_10443">
<rect width="18" height="18" fill="white" transform="translate(0.241211 0.490234)"/>
</clipPath>
</defs>
</svg>
