<svg width="19" height="19" viewBox="0 0 19 19" fill="none" xmlns="http://www.w3.org/2000/svg">
<path d="M10.4931 10.9901L8.24305 8.74011M12.0008 3.11511V1.99011M14.9553 4.28561L15.7508 3.49011M14.9553 10.2401L15.7508 11.0356M9.00082 4.28561L8.20532 3.49011M16.1258 7.24011H17.2508M5.34158 16.1416L12.2695 9.21364C12.5665 8.91663 12.715 8.76812 12.7707 8.59688C12.8196 8.44624 12.8196 8.28398 12.7707 8.13335C12.715 7.9621 12.5665 7.8136 12.2695 7.51658L11.7166 6.96364C11.4196 6.66663 11.2711 6.51812 11.0998 6.46248C10.9492 6.41354 10.7869 6.41354 10.6363 6.46248C10.465 6.51812 10.3165 6.66663 10.0195 6.96364L3.09158 13.8916C2.79457 14.1886 2.64606 14.3371 2.59042 14.5083C2.54148 14.659 2.54148 14.8212 2.59042 14.9719C2.64606 15.1431 2.79457 15.2916 3.09158 15.5886L3.64452 16.1416C3.94154 16.4386 4.09004 16.5871 4.26129 16.6427C4.41192 16.6917 4.57418 16.6917 4.72481 16.6427C4.89606 16.5871 5.04457 16.4386 5.34158 16.1416Z" stroke="#98A2B3" stroke-width="1.5" stroke-linecap="round" stroke-linejoin="round"/>
</svg>
