<svg width="19" height="19" viewBox="0 0 19 19" fill="none" xmlns="http://www.w3.org/2000/svg">
<g clip-path="url(#clip0_1_9951)">
<path d="M11.0629 2.46545L16.7089 6.13536C16.9084 6.26504 17.0081 6.32988 17.0804 6.41636C17.1444 6.49292 17.1924 6.58148 17.2218 6.67684C17.2549 6.78457 17.2549 6.90355 17.2549 7.14149V12.6403C17.2549 13.9004 17.2549 14.5304 17.0096 15.0117C16.7939 15.4351 16.4497 15.7793 16.0264 15.995C15.5451 16.2403 14.915 16.2403 13.6549 16.2403H5.85488C4.59476 16.2403 3.96471 16.2403 3.4834 15.995C3.06004 15.7793 2.71583 15.4351 2.50012 15.0117C2.25488 14.5304 2.25488 13.9004 2.25488 12.6403V7.14149C2.25488 6.90355 2.25488 6.78457 2.28801 6.67684C2.31734 6.58148 2.36539 6.49292 2.42937 6.41636C2.50164 6.32988 2.60139 6.26504 2.8009 6.13536L8.44691 2.46545M11.0629 2.46545C10.5894 2.15772 10.3527 2.00385 10.0977 1.94399C9.8722 1.89107 9.63756 1.89107 9.41211 1.94399C9.15706 2.00385 8.92034 2.15772 8.44691 2.46545M11.0629 2.46545L16.4809 5.9872C16.7389 6.15486 16.8679 6.2387 16.9125 6.34501C16.9516 6.43791 16.9516 6.54262 16.9125 6.63553C16.8679 6.74184 16.7389 6.82567 16.4809 6.99334L11.0629 10.5151C10.5894 10.8228 10.3527 10.9767 10.0977 11.0366C9.8722 11.0895 9.63756 11.0895 9.41211 11.0366C9.15706 10.9767 8.92034 10.8228 8.44691 10.5151L3.02883 6.99333C2.77089 6.82567 2.64192 6.74184 2.59725 6.63553C2.55821 6.54262 2.55821 6.43791 2.59725 6.34501C2.64192 6.2387 2.77089 6.15487 3.02883 5.9872L8.44691 2.46545" stroke="#98A2B3" stroke-width="1.5" stroke-linecap="round" stroke-linejoin="round"/>
</g>
<defs>
<clipPath id="clip0_1_9951">
<rect width="18" height="18" fill="white" transform="translate(0.754883 0.490234)"/>
</clipPath>
</defs>
</svg>
