<svg width="19" height="19" viewBox="0 0 19 19" fill="none" xmlns="http://www.w3.org/2000/svg">
<path d="M1.75293 5.74011L5.64831 8.33703C5.87304 8.48686 5.98541 8.56177 6.10698 8.61483C6.21488 8.66194 6.32795 8.69617 6.44386 8.71684C6.57445 8.74011 6.7095 8.74011 6.97959 8.74011H11.5263C11.7964 8.74011 11.9314 8.74011 12.062 8.71684C12.1779 8.69617 12.291 8.66194 12.3989 8.61483C12.5204 8.56177 12.6328 8.48685 12.8575 8.33703L16.7529 5.74011M5.35293 15.4901H13.1529C14.413 15.4901 15.0431 15.4901 15.5244 15.2449C15.9478 15.0292 16.292 14.685 16.5077 14.2616C16.7529 13.7803 16.7529 13.1502 16.7529 11.8901V7.09011C16.7529 5.82999 16.7529 5.19994 16.5077 4.71863C16.292 4.29527 15.9478 3.95106 15.5244 3.73535C15.0431 3.49011 14.413 3.49011 13.1529 3.49011H5.35293C4.09281 3.49011 3.46275 3.49011 2.98145 3.73535C2.55809 3.95106 2.21388 4.29527 1.99817 4.71863C1.75293 5.19994 1.75293 5.82999 1.75293 7.09011V11.8901C1.75293 13.1502 1.75293 13.7803 1.99817 14.2616C2.21388 14.685 2.55809 15.0292 2.98145 15.2449C3.46275 15.4901 4.09281 15.4901 5.35293 15.4901Z" stroke="#98A2B3" stroke-width="1.5" stroke-linecap="round" stroke-linejoin="round"/>
</svg>
