<svg width="19" height="19" viewBox="0 0 19 19" fill="none" xmlns="http://www.w3.org/2000/svg">
<path d="M1.74902 5.74011L7.87271 10.0267C8.36859 10.3738 8.61653 10.5474 8.88622 10.6146C9.12445 10.674 9.3736 10.674 9.61183 10.6146C9.88152 10.5474 10.1295 10.3738 10.6253 10.0267L16.749 5.74011M5.34902 15.4901H13.149C14.4091 15.4901 15.0392 15.4901 15.5205 15.2449C15.9439 15.0292 16.2881 14.685 16.5038 14.2616C16.749 13.7803 16.749 13.1502 16.749 11.8901V7.09011C16.749 5.82999 16.749 5.19994 16.5038 4.71863C16.2881 4.29527 15.9439 3.95106 15.5205 3.73535C15.0392 3.49011 14.4091 3.49011 13.149 3.49011H5.34902C4.08891 3.49011 3.45885 3.49011 2.97754 3.73535C2.55418 3.95106 2.20997 4.29527 1.99426 4.71863C1.74902 5.19994 1.74902 5.82999 1.74902 7.09011V11.8901C1.74902 13.1502 1.74902 13.7803 1.99426 14.2616C2.20997 14.685 2.55418 15.0292 2.97754 15.2449C3.45885 15.4901 4.08891 15.4901 5.34902 15.4901Z" stroke="#98A2B3" stroke-width="1.5" stroke-linecap="round" stroke-linejoin="round"/>
</svg>
