<svg width="19" height="19" viewBox="0 0 19 19" fill="none" xmlns="http://www.w3.org/2000/svg">
<path d="M16.876 13.9901L11.8938 9.49011M7.60812 9.49011L2.626 13.9901M2.25098 5.74011L8.37467 10.0267C8.87054 10.3738 9.11848 10.5474 9.38818 10.6146C9.6264 10.674 9.87556 10.674 10.1138 10.6146C10.3835 10.5474 10.6314 10.3738 11.1273 10.0267L17.251 5.74011M5.85098 15.4901H13.651C14.9111 15.4901 15.5412 15.4901 16.0225 15.2449C16.4458 15.0292 16.79 14.685 17.0057 14.2616C17.251 13.7803 17.251 13.1502 17.251 11.8901V7.09011C17.251 5.82999 17.251 5.19994 17.0057 4.71863C16.79 4.29527 16.4458 3.95106 16.0225 3.73535C15.5412 3.49011 14.9111 3.49011 13.651 3.49011H5.85098C4.59086 3.49011 3.9608 3.49011 3.4795 3.73535C3.05613 3.95106 2.71193 4.29527 2.49621 4.71863C2.25098 5.19994 2.25098 5.82999 2.25098 7.09011V11.8901C2.25098 13.1502 2.25098 13.7803 2.49621 14.2616C2.71193 14.685 3.05613 15.0292 3.4795 15.2449C3.9608 15.4901 4.59086 15.4901 5.85098 15.4901Z" stroke="#98A2B3" stroke-width="1.5" stroke-linecap="round" stroke-linejoin="round"/>
</svg>
