<svg width="19" height="19" viewBox="0 0 19 19" fill="none" xmlns="http://www.w3.org/2000/svg">
<path d="M10.5648 2.46545L16.2108 6.13536C16.4103 6.26504 16.5101 6.32988 16.5824 6.41636C16.6463 6.49292 16.6944 6.58148 16.7237 6.67684C16.7568 6.78457 16.7568 6.90355 16.7568 7.14149V12.6403C16.7568 13.9004 16.7568 14.5304 16.5116 15.0117C16.2959 15.4351 15.9517 15.7793 15.5283 15.995C15.047 16.2403 14.417 16.2403 13.1568 16.2403H5.35684C4.09672 16.2403 3.46666 16.2403 2.98536 15.995C2.56199 15.7793 2.21779 15.4351 2.00207 15.0117C1.75684 14.5304 1.75684 13.9004 1.75684 12.6403V7.14149C1.75684 6.90355 1.75684 6.78457 1.78996 6.67684C1.81929 6.58148 1.86735 6.49292 1.93132 6.41636C2.00359 6.32988 2.10335 6.26504 2.30285 6.13536L7.94886 2.46545M10.5648 2.46545C10.0914 2.15772 9.85466 2.00385 9.59961 1.94399C9.37416 1.89107 9.13952 1.89107 8.91407 1.94399C8.65901 2.00385 8.4223 2.15772 7.94886 2.46545M10.5648 2.46545L15.2089 5.48413C15.7248 5.81946 15.9828 5.98712 16.0721 6.19975C16.1502 6.38556 16.1502 6.59498 16.0721 6.78079C15.9828 6.99341 15.7248 7.16108 15.2089 7.4964L10.5648 10.5151C10.0914 10.8228 9.85466 10.9767 9.59961 11.0366C9.37416 11.0895 9.13952 11.0895 8.91407 11.0366C8.65901 10.9767 8.4223 10.8228 7.94886 10.5151L3.30473 7.4964C2.78885 7.16108 2.5309 6.99341 2.44157 6.78079C2.36349 6.59498 2.36349 6.38556 2.44157 6.19975C2.5309 5.98712 2.78885 5.81946 3.30473 5.48414L7.94886 2.46545M16.3818 14.7403L11.3997 10.2403M7.11395 10.2403L2.13184 14.7403" stroke="#98A2B3" stroke-width="1.5" stroke-linecap="round" stroke-linejoin="round"/>
</svg>
