<svg width="19" height="19" viewBox="0 0 19 19" fill="none" xmlns="http://www.w3.org/2000/svg">
<g clip-path="url(#clip0_1_10677)">
<path d="M16.0147 7.99011C16.0147 13.2401 9.26465 17.7401 9.26465 17.7401C9.26465 17.7401 2.51465 13.2401 2.51465 7.99011C2.51465 6.1999 3.22581 4.48301 4.49168 3.21714C5.75755 1.95127 7.47444 1.24011 9.26465 1.24011C11.0549 1.24011 12.7717 1.95127 14.0376 3.21714C15.3035 4.48301 16.0147 6.1999 16.0147 7.99011Z" stroke="#98A2B3" stroke-width="1.5" stroke-linecap="round" stroke-linejoin="round"/>
<path d="M9.26465 10.2401C10.5073 10.2401 11.5146 9.23275 11.5146 7.99011C11.5146 6.74747 10.5073 5.74011 9.26465 5.74011C8.02201 5.74011 7.01465 6.74747 7.01465 7.99011C7.01465 9.23275 8.02201 10.2401 9.26465 10.2401Z" stroke="#98A2B3" stroke-width="1.5" stroke-linecap="round" stroke-linejoin="round"/>
</g>
<defs>
<clipPath id="clip0_1_10677">
<rect width="18" height="18" fill="white" transform="translate(0.264648 0.490234)"/>
</clipPath>
</defs>
</svg>
