<svg width="19" height="19" viewBox="0 0 19 19" fill="none" xmlns="http://www.w3.org/2000/svg">
<path d="M6.7627 2.74011L12.7627 16.2401M3.0127 13.2401L9.7627 9.49011M6.6127 16.2401H12.9127C14.1728 16.2401 14.8029 16.2401 15.2842 15.9949C15.7075 15.7792 16.0517 15.435 16.2675 15.0116C16.5127 14.5303 16.5127 13.9002 16.5127 12.6401V6.34011C16.5127 5.07999 16.5127 4.44994 16.2675 3.96863C16.0517 3.54527 15.7075 3.20106 15.2842 2.98535C14.8029 2.74011 14.1728 2.74011 12.9127 2.74011H6.6127C5.35258 2.74011 4.72252 2.74011 4.24122 2.98535C3.81785 3.20106 3.47365 3.54527 3.25793 3.96863C3.0127 4.44994 3.0127 5.07999 3.0127 6.34011V12.6401C3.0127 13.9002 3.0127 14.5303 3.25793 15.0116C3.47365 15.435 3.81785 15.7792 4.24122 15.9949C4.72252 16.2401 5.35258 16.2401 6.6127 16.2401Z" stroke="#98A2B3" stroke-width="1.5" stroke-linecap="round" stroke-linejoin="round"/>
</svg>
