<svg width="19" height="19" viewBox="0 0 19 19" fill="none" xmlns="http://www.w3.org/2000/svg">
<g clip-path="url(#clip0_1_10461)">
<path d="M12.7783 10.5209C15.4272 11.0417 17.2783 12.2311 17.2783 13.6151C17.2783 15.4791 13.9205 16.9901 9.77832 16.9901C5.63618 16.9901 2.27832 15.4791 2.27832 13.6151C2.27832 12.2311 4.12946 11.0417 6.77832 10.5209M9.77832 13.2401V7.24011M9.77832 7.24011C11.021 7.24011 12.0283 6.23275 12.0283 4.99011C12.0283 3.74747 11.021 2.74011 9.77832 2.74011C8.53568 2.74011 7.52832 3.74747 7.52832 4.99011C7.52832 6.23275 8.53568 7.24011 9.77832 7.24011Z" stroke="#98A2B3" stroke-width="1.5" stroke-linecap="round" stroke-linejoin="round"/>
</g>
<defs>
<clipPath id="clip0_1_10461">
<rect width="18" height="18" fill="white" transform="translate(0.77832 0.490234)"/>
</clipPath>
</defs>
</svg>
