<svg width="19" height="19" viewBox="0 0 19 19" fill="none" xmlns="http://www.w3.org/2000/svg">
<g clip-path="url(#clip0_1_10457)">
<path d="M4.52441 11.2049C3.13589 11.8174 2.27441 12.671 2.27441 13.6151C2.27441 15.4791 5.63228 16.9901 9.77441 16.9901C13.9166 16.9901 17.2744 15.4791 17.2744 13.6151C17.2744 12.671 16.4129 11.8174 15.0244 11.2049M14.2744 6.49011C14.2744 9.53789 10.8994 10.9901 9.77441 13.2401C8.64941 10.9901 5.27441 9.53789 5.27441 6.49011C5.27441 4.00483 7.28913 1.99011 9.77441 1.99011C12.2597 1.99011 14.2744 4.00483 14.2744 6.49011ZM10.5244 6.49011C10.5244 6.90433 10.1886 7.24011 9.77441 7.24011C9.3602 7.24011 9.02441 6.90433 9.02441 6.49011C9.02441 6.0759 9.3602 5.74011 9.77441 5.74011C10.1886 5.74011 10.5244 6.0759 10.5244 6.49011Z" stroke="#98A2B3" stroke-width="1.5" stroke-linecap="round" stroke-linejoin="round"/>
</g>
<defs>
<clipPath id="clip0_1_10457">
<rect width="18" height="18" fill="white" transform="translate(0.774414 0.490234)"/>
</clipPath>
</defs>
</svg>
