<svg width="19" height="19" viewBox="0 0 19 19" fill="none" xmlns="http://www.w3.org/2000/svg">
<g clip-path="url(#clip0_1_10449)">
<path d="M15.7666 9.49011C15.7666 12.8038 13.0803 15.4901 9.7666 15.4901M15.7666 9.49011C15.7666 6.1764 13.0803 3.49011 9.7666 3.49011M15.7666 9.49011H17.2666M9.7666 15.4901C6.45289 15.4901 3.7666 12.8038 3.7666 9.49011M9.7666 15.4901V16.9901M3.7666 9.49011C3.7666 6.1764 6.45289 3.49011 9.7666 3.49011M3.7666 9.49011H2.2666M9.7666 3.49011V1.99011M12.0166 9.49011C12.0166 10.7328 11.0092 11.7401 9.7666 11.7401C8.52396 11.7401 7.5166 10.7328 7.5166 9.49011C7.5166 8.24747 8.52396 7.24011 9.7666 7.24011C11.0092 7.24011 12.0166 8.24747 12.0166 9.49011Z" stroke="#98A2B3" stroke-width="1.5" stroke-linecap="round" stroke-linejoin="round"/>
</g>
<defs>
<clipPath id="clip0_1_10449">
<rect width="18" height="18" fill="white" transform="translate(0.766602 0.490234)"/>
</clipPath>
</defs>
</svg>
