<svg width="19" height="19" viewBox="0 0 19 19" fill="none" xmlns="http://www.w3.org/2000/svg">
<path d="M6.28027 2.74011H4.03027C3.63245 2.74011 3.25092 2.89815 2.96961 3.17945C2.68831 3.46076 2.53027 3.84229 2.53027 4.24011V6.49011M16.0303 6.49011V4.24011C16.0303 3.84229 15.8722 3.46076 15.5909 3.17945C15.3096 2.89815 14.9281 2.74011 14.5303 2.74011H12.2803M12.2803 16.2401H14.5303C14.9281 16.2401 15.3096 16.0821 15.5909 15.8008C15.8722 15.5195 16.0303 15.1379 16.0303 14.7401V12.4901M2.53027 12.4901V14.7401C2.53027 15.1379 2.68831 15.5195 2.96961 15.8008C3.25092 16.0821 3.63245 16.2401 4.03027 16.2401H6.28027" stroke="#98A2B3" stroke-width="1.5" stroke-linecap="round" stroke-linejoin="round"/>
</svg>
