<svg width="19" height="19" viewBox="0 0 19 19" fill="none" xmlns="http://www.w3.org/2000/svg">
<path d="M6.28418 2.74011H6.13418C4.87406 2.74011 4.244 2.74011 3.7627 2.98535C3.33934 3.20106 2.99513 3.54527 2.77942 3.96863C2.53418 4.44994 2.53418 5.07999 2.53418 6.34011V6.49011M6.28418 16.2401H6.13418C4.87406 16.2401 4.244 16.2401 3.7627 15.9949C3.33934 15.7792 2.99513 15.435 2.77942 15.0116C2.53418 14.5303 2.53418 13.9002 2.53418 12.6401V12.4901M16.0342 6.49011V6.34011C16.0342 5.07999 16.0342 4.44994 15.7889 3.96863C15.5732 3.54527 15.229 3.20106 14.8057 2.98535C14.3244 2.74011 13.6943 2.74011 12.4342 2.74011H12.2842M16.0342 12.4901V12.6401C16.0342 13.9002 16.0342 14.5303 15.7889 15.0116C15.5732 15.435 15.229 15.7792 14.8057 15.9949C14.3244 16.2401 13.6943 16.2401 12.4342 16.2401H12.2842" stroke="#98A2B3" stroke-width="1.5" stroke-linecap="round" stroke-linejoin="round"/>
</svg>
