<svg width="19" height="18" viewBox="0 0 19 18" fill="none" xmlns="http://www.w3.org/2000/svg">
<path d="M2.81982 5.84219C2.81982 4.58207 2.81982 3.95201 3.06506 3.47071C3.28077 3.04734 3.62498 2.70314 4.04835 2.48742C4.52965 2.24219 5.15971 2.24219 6.41982 2.24219H12.7198C13.9799 2.24219 14.61 2.24219 15.0913 2.48742C15.5147 2.70314 15.8589 3.04734 16.0746 3.47071C16.3198 3.95201 16.3198 4.58207 16.3198 5.84219V12.1422C16.3198 13.4023 16.3198 14.0324 16.0746 14.5137C15.8589 14.937 15.5147 15.2812 15.0913 15.497C14.61 15.7422 13.9799 15.7422 12.7198 15.7422H6.41982C5.15971 15.7422 4.52965 15.7422 4.04835 15.497C3.62498 15.2812 3.28077 14.937 3.06506 14.5137C2.81982 14.0324 2.81982 13.4023 2.81982 12.1422V5.84219Z" stroke="#98A2B3" stroke-width="1.5" stroke-linecap="round" stroke-linejoin="round"/>
<path d="M10.9448 5.46719C10.9448 5.25717 10.9448 5.15216 10.904 5.07194C10.868 5.00138 10.8106 4.94401 10.7401 4.90806C10.6599 4.86719 10.5548 4.86719 10.3448 4.86719H8.79483C8.58481 4.86719 8.4798 4.86719 8.39958 4.90806C8.32902 4.94401 8.27165 5.00138 8.2357 5.07194C8.19482 5.15216 8.19483 5.25717 8.19483 5.46719V7.01719C8.19483 7.22721 8.19483 7.33222 8.15395 7.41243C8.118 7.483 8.06063 7.54036 7.99007 7.57632C7.90985 7.61719 7.80484 7.61719 7.59482 7.61719H6.04482C5.83481 7.61719 5.7298 7.61719 5.64958 7.65806C5.57902 7.69401 5.52165 7.75138 5.4857 7.82194C5.44482 7.90216 5.44482 8.00717 5.44482 8.21719V9.76719C5.44482 9.97721 5.44482 10.0822 5.4857 10.1624C5.52165 10.233 5.57902 10.2904 5.64958 10.3263C5.7298 10.3672 5.83481 10.3672 6.04483 10.3672H7.59483C7.80484 10.3672 7.90985 10.3672 7.99007 10.4081C8.06063 10.444 8.118 10.5014 8.15395 10.5719C8.19483 10.6522 8.19483 10.7572 8.19483 10.9672V12.5172C8.19483 12.7272 8.19482 12.8322 8.2357 12.9124C8.27165 12.983 8.32902 13.0404 8.39958 13.0763C8.4798 13.1172 8.58481 13.1172 8.79483 13.1172H10.3448C10.5548 13.1172 10.6599 13.1172 10.7401 13.0763C10.8106 13.0404 10.868 12.983 10.904 12.9124C10.9448 12.8322 10.9448 12.7272 10.9448 12.5172V10.9672C10.9448 10.7572 10.9448 10.6522 10.9857 10.5719C11.0217 10.5014 11.079 10.444 11.1496 10.4081C11.2298 10.3672 11.3348 10.3672 11.5448 10.3672H13.0948C13.3048 10.3672 13.4099 10.3672 13.4901 10.3263C13.5606 10.2904 13.618 10.233 13.654 10.1624C13.6948 10.0822 13.6948 9.97721 13.6948 9.76719V8.21719C13.6948 8.00717 13.6948 7.90216 13.654 7.82194C13.618 7.75138 13.5606 7.69401 13.4901 7.65806C13.4099 7.61719 13.3048 7.61719 13.0948 7.61719H11.5448C11.3348 7.61719 11.2298 7.61719 11.1496 7.57632C11.079 7.54036 11.0217 7.483 10.9857 7.41243C10.9448 7.33222 10.9448 7.22721 10.9448 7.01719V5.46719Z" stroke="#98A2B3" stroke-width="1.5" stroke-linecap="round" stroke-linejoin="round"/>
</svg>
