<svg width="19" height="19" viewBox="0 0 19 19" fill="none" xmlns="http://www.w3.org/2000/svg">
<path d="M9.28809 16.9901C13.4302 16.9901 16.7881 13.6322 16.7881 9.49011C16.7881 5.34798 13.4302 1.99011 9.28809 1.99011C5.14595 1.99011 1.78809 5.34798 1.78809 9.49011C1.78809 13.6322 5.14595 16.9901 9.28809 16.9901Z" stroke="#98A2B3" stroke-width="1.5" stroke-linecap="round" stroke-linejoin="round"/>
<path d="M10.6631 5.96511C10.6631 5.75509 10.6631 5.65008 10.6222 5.56987C10.5863 5.49931 10.5289 5.44194 10.4583 5.40599C10.3781 5.36511 10.2731 5.36511 10.0631 5.36511H8.51309C8.30307 5.36511 8.19806 5.36511 8.11784 5.40599C8.04728 5.44194 7.98991 5.49931 7.95396 5.56987C7.91309 5.65008 7.91309 5.75509 7.91309 5.96511V7.51511C7.91309 7.72513 7.91309 7.83014 7.87221 7.91036C7.83626 7.98092 7.77889 8.03829 7.70833 8.07424C7.62812 8.11511 7.52311 8.11511 7.31309 8.11511H5.76309C5.55307 8.11511 5.44806 8.11511 5.36784 8.15598C5.29728 8.19194 5.23991 8.2493 5.20396 8.31987C5.16309 8.40008 5.16309 8.50509 5.16309 8.71511V10.2651C5.16309 10.4751 5.16309 10.5801 5.20396 10.6604C5.23991 10.7309 5.29728 10.7883 5.36784 10.8242C5.44806 10.8651 5.55307 10.8651 5.76309 10.8651H7.31309C7.52311 10.8651 7.62812 10.8651 7.70833 10.906C7.77889 10.9419 7.83626 10.9993 7.87221 11.0699C7.91309 11.1501 7.91309 11.2551 7.91309 11.4651V13.0151C7.91309 13.2251 7.91309 13.3301 7.95396 13.4104C7.98991 13.4809 8.04728 13.5383 8.11784 13.5742C8.19806 13.6151 8.30307 13.6151 8.51309 13.6151H10.0631C10.2731 13.6151 10.3781 13.6151 10.4583 13.5742C10.5289 13.5383 10.5863 13.4809 10.6222 13.4104C10.6631 13.3301 10.6631 13.2251 10.6631 13.0151V11.4651C10.6631 11.2551 10.6631 11.1501 10.704 11.0699C10.7399 10.9993 10.7973 10.9419 10.8678 10.906C10.9481 10.8651 11.0531 10.8651 11.2631 10.8651H12.8131C13.0231 10.8651 13.1281 10.8651 13.2083 10.8242C13.2789 10.7883 13.3363 10.7309 13.3722 10.6604C13.4131 10.5801 13.4131 10.4751 13.4131 10.2651V8.71511C13.4131 8.50509 13.4131 8.40008 13.3722 8.31987C13.3363 8.24931 13.2789 8.19194 13.2083 8.15599C13.1281 8.11511 13.0231 8.11511 12.8131 8.11511H11.2631C11.0531 8.11511 10.9481 8.11511 10.8678 8.07424C10.7973 8.03829 10.7399 7.98092 10.704 7.91036C10.6631 7.83014 10.6631 7.72513 10.6631 7.51511V5.96511Z" stroke="#98A2B3" stroke-width="1.5" stroke-linecap="round" stroke-linejoin="round"/>
</svg>
