<svg width="19" height="19" viewBox="0 0 19 19" fill="none" xmlns="http://www.w3.org/2000/svg">
<path d="M12.04 3.94011C12.04 3.52007 12.04 3.31005 11.9583 3.14962C11.8864 3.0085 11.7717 2.89376 11.6305 2.82186C11.4701 2.74011 11.2601 2.74011 10.84 2.74011H8.74004C8.32 2.74011 8.10998 2.74011 7.94955 2.82186C7.80843 2.89376 7.69369 3.0085 7.62178 3.14962C7.54004 3.31005 7.54004 3.52007 7.54004 3.94011V6.04011C7.54004 6.46015 7.54004 6.67017 7.45829 6.83061C7.38639 6.97173 7.27165 7.08646 7.13053 7.15837C6.9701 7.24011 6.76008 7.24011 6.34004 7.24011H4.24004C3.82 7.24011 3.60998 7.24011 3.44955 7.32186C3.30842 7.39376 3.19369 7.5085 3.12178 7.64962C3.04004 7.81005 3.04004 8.02007 3.04004 8.44011V10.5401C3.04004 10.9602 3.04004 11.1702 3.12178 11.3306C3.19369 11.4717 3.30842 11.5865 3.44955 11.6584C3.60998 11.7401 3.82 11.7401 4.24004 11.7401H6.34004C6.76008 11.7401 6.9701 11.7401 7.13053 11.8219C7.27165 11.8938 7.38639 12.0085 7.45829 12.1496C7.54004 12.3101 7.54004 12.5201 7.54004 12.9401V15.0401C7.54004 15.4602 7.54004 15.6702 7.62178 15.8306C7.69369 15.9717 7.80843 16.0865 7.94955 16.1584C8.10998 16.2401 8.32 16.2401 8.74004 16.2401H10.84C11.2601 16.2401 11.4701 16.2401 11.6305 16.1584C11.7717 16.0865 11.8864 15.9717 11.9583 15.8306C12.04 15.6702 12.04 15.4602 12.04 15.0401V12.9401C12.04 12.5201 12.04 12.3101 12.1218 12.1496C12.1937 12.0085 12.3084 11.8938 12.4495 11.8219C12.61 11.7401 12.82 11.7401 13.24 11.7401H15.34C15.7601 11.7401 15.9701 11.7401 16.1305 11.6584C16.2717 11.5865 16.3864 11.4717 16.4583 11.3306C16.54 11.1702 16.54 10.9602 16.54 10.5401V8.44011C16.54 8.02007 16.54 7.81005 16.4583 7.64962C16.3864 7.5085 16.2717 7.39376 16.1305 7.32186C15.9701 7.24011 15.7601 7.24011 15.34 7.24011L13.24 7.24011C12.82 7.24011 12.61 7.24011 12.4495 7.15837C12.3084 7.08646 12.1937 6.97173 12.1218 6.83061C12.04 6.67017 12.04 6.46015 12.04 6.04011V3.94011Z" stroke="#98A2B3" stroke-width="1.5" stroke-linecap="round" stroke-linejoin="round"/>
</svg>
