<svg width="19" height="18" viewBox="0 0 19 18" fill="none" xmlns="http://www.w3.org/2000/svg">
<path d="M9.11817 10.1172V5.61719M6.86816 7.86719H11.3682M5.36816 13.4922V15.2438C5.36816 15.6435 5.36816 15.8433 5.45009 15.9459C5.52133 16.0352 5.62937 16.0871 5.74357 16.087C5.87488 16.0868 6.03092 15.962 6.34298 15.7123L8.13207 14.2811C8.49755 13.9887 8.68029 13.8425 8.88378 13.7385C9.06431 13.6463 9.25649 13.5789 9.45508 13.5381C9.67892 13.4922 9.91294 13.4922 10.381 13.4922H12.2682C13.5283 13.4922 14.1583 13.4922 14.6396 13.247C15.063 13.0312 15.4072 12.687 15.6229 12.2637C15.8682 11.7824 15.8682 11.1523 15.8682 9.89219V5.84219C15.8682 4.58207 15.8682 3.95201 15.6229 3.47071C15.4072 3.04734 15.063 2.70314 14.6396 2.48742C14.1583 2.24219 13.5283 2.24219 12.2682 2.24219H5.96816C4.70805 2.24219 4.07799 2.24219 3.59669 2.48742C3.17332 2.70314 2.82911 3.04734 2.6134 3.47071C2.36816 3.95201 2.36816 4.58207 2.36816 5.84219V10.4922C2.36816 11.1897 2.36816 11.5384 2.44483 11.8245C2.65288 12.601 3.25936 13.2075 4.03582 13.4155C4.32195 13.4922 4.67069 13.4922 5.36816 13.4922Z" stroke="#98A2B3" stroke-width="1.5" stroke-linecap="round" stroke-linejoin="round"/>
</svg>
