<svg width="19" height="18" viewBox="0 0 19 18" fill="none" xmlns="http://www.w3.org/2000/svg">
<path d="M2.88232 5.84219C2.88232 4.58207 2.88232 3.95201 3.12756 3.47071C3.34327 3.04734 3.68748 2.70314 4.11085 2.48742C4.59215 2.24219 5.22221 2.24219 6.48232 2.24219H12.7823C14.0424 2.24219 14.6725 2.24219 15.1538 2.48742C15.5772 2.70314 15.9214 3.04734 16.1371 3.47071C16.3823 3.95201 16.3823 4.58207 16.3823 5.84219V9.89219C16.3823 11.1523 16.3823 11.7824 16.1371 12.2637C15.9214 12.687 15.5772 13.0312 15.1538 13.247C14.6725 13.4922 14.0424 13.4922 12.7823 13.4922H10.8951C10.4271 13.4922 10.1931 13.4922 9.96924 13.5381C9.77065 13.5789 9.57847 13.6463 9.39794 13.7385C9.19445 13.8425 9.01171 13.9887 8.64623 14.2811L6.85714 15.7123C6.54508 15.962 6.38905 16.0868 6.25773 16.087C6.14353 16.0871 6.03549 16.0352 5.96425 15.9459C5.88232 15.8433 5.88232 15.6435 5.88232 15.2438V13.4922C5.18485 13.4922 4.83611 13.4922 4.54998 13.4155C3.77352 13.2075 3.16704 12.601 2.95899 11.8245C2.88232 11.5384 2.88232 11.1897 2.88232 10.4922V5.84219Z" stroke="#98A2B3" stroke-width="1.5" stroke-linecap="round" stroke-linejoin="round"/>
</svg>
