<svg width="19" height="18" viewBox="0 0 19 18" fill="none" xmlns="http://www.w3.org/2000/svg">
<path d="M6.13424 7.11719H9.13424M6.13424 9.74219H11.3842M9.50924 14.9922C13.0301 14.9922 15.8842 12.138 15.8842 8.61719C15.8842 5.09637 13.0301 2.24219 9.50924 2.24219C5.98843 2.24219 3.13424 5.09637 3.13424 8.61719C3.13424 9.32968 3.25113 10.0149 3.46677 10.6546C3.54792 10.8954 3.58849 11.0158 3.59581 11.1083C3.60304 11.1996 3.59758 11.2636 3.57498 11.3524C3.5521 11.4423 3.50159 11.5358 3.40056 11.7228L2.17382 13.9935C1.99883 14.3173 1.91134 14.4793 1.93092 14.6043C1.94798 14.7131 2.01205 14.809 2.10612 14.8664C2.21412 14.9322 2.39721 14.9133 2.7634 14.8755L6.60416 14.4784C6.72047 14.4664 6.77863 14.4604 6.83164 14.4624C6.88377 14.4644 6.92057 14.4693 6.97142 14.4811C7.02311 14.493 7.08811 14.518 7.21811 14.5681C7.92915 14.842 8.70166 14.9922 9.50924 14.9922Z" stroke="#98A2B3" stroke-width="1.5" stroke-linecap="round" stroke-linejoin="round"/>
</svg>
