<svg width="19" height="18" viewBox="0 0 19 18" fill="none" xmlns="http://www.w3.org/2000/svg">
<path d="M7.62256 5.99387C7.75471 5.61821 8.01554 5.30144 8.35886 5.09967C8.70218 4.8979 9.10583 4.82414 9.49832 4.89146C9.89081 4.95879 10.2468 5.16284 10.5033 5.46749C10.7597 5.77214 10.9001 6.15772 10.8995 6.55595C10.8995 7.68011 9.21325 8.24219 9.21325 8.24219M9.23499 10.4922H9.24249M5.37256 13.4922V15.2438C5.37256 15.6435 5.37256 15.8433 5.45448 15.9459C5.52573 16.0352 5.63376 16.0871 5.74796 16.087C5.87928 16.0868 6.03531 15.962 6.34738 15.7123L8.13647 14.2811C8.50195 13.9887 8.68469 13.8425 8.88817 13.7385C9.06871 13.6463 9.26088 13.5789 9.45947 13.5381C9.68331 13.4922 9.91733 13.4922 10.3854 13.4922H12.2726C13.5327 13.4922 14.1627 13.4922 14.644 13.247C15.0674 13.0312 15.4116 12.687 15.6273 12.2637C15.8726 11.7824 15.8726 11.1523 15.8726 9.89219V5.84219C15.8726 4.58207 15.8726 3.95201 15.6273 3.47071C15.4116 3.04734 15.0674 2.70314 14.644 2.48742C14.1627 2.24219 13.5327 2.24219 12.2726 2.24219H5.97256C4.71244 2.24219 4.08238 2.24219 3.60108 2.48742C3.17772 2.70314 2.83351 3.04734 2.61779 3.47071C2.37256 3.95201 2.37256 4.58207 2.37256 5.84219V10.4922C2.37256 11.1897 2.37256 11.5384 2.44923 11.8245C2.65728 12.601 3.26376 13.2075 4.04022 13.4155C4.32634 13.4922 4.67508 13.4922 5.37256 13.4922Z" stroke="#98A2B3" stroke-width="1.5" stroke-linecap="round" stroke-linejoin="round"/>
</svg>
