<svg width="19" height="18" viewBox="0 0 19 18" fill="none" xmlns="http://www.w3.org/2000/svg">
<path d="M16.3589 8.61719C16.3589 12.138 13.5047 14.9922 9.98385 14.9922C9.17627 14.9922 8.40376 14.842 7.69272 14.5681C7.56272 14.518 7.49772 14.493 7.44602 14.4811C7.39518 14.4693 7.35838 14.4644 7.30625 14.4624C7.25324 14.4604 7.19508 14.4664 7.07877 14.4784L3.23801 14.8755C2.87182 14.9133 2.68873 14.9322 2.58073 14.8664C2.48666 14.809 2.42259 14.7131 2.40553 14.6043C2.38595 14.4793 2.47344 14.3173 2.64843 13.9935L3.87517 11.7228C3.9762 11.5358 4.02671 11.4423 4.04959 11.3524C4.07218 11.2636 4.07765 11.1996 4.07042 11.1083C4.0631 11.0158 4.02253 10.8954 3.94138 10.6546C3.72574 10.0149 3.60885 9.32968 3.60885 8.61719C3.60885 5.09637 6.46304 2.24219 9.98385 2.24219C13.5047 2.24219 16.3589 5.09637 16.3589 8.61719Z" stroke="#98A2B3" stroke-width="1.5" stroke-linecap="round" stroke-linejoin="round"/>
<path fill-rule="evenodd" clip-rule="evenodd" d="M9.98154 6.70413C9.30676 5.92499 8.18151 5.7154 7.33606 6.42886C6.4906 7.14232 6.37158 8.33518 7.03552 9.17899C7.44685 9.70176 8.47927 10.6566 9.20532 11.3074C9.47201 11.5465 9.60536 11.666 9.7654 11.7142C9.90268 11.7555 10.0604 11.7555 10.1977 11.7142C10.3577 11.666 10.4911 11.5465 10.7578 11.3074C11.4838 10.6566 12.5162 9.70176 12.9276 9.17899C13.5915 8.33518 13.487 7.13481 12.627 6.42886C11.767 5.72291 10.6563 5.92499 9.98154 6.70413Z" stroke="#98A2B3" stroke-width="1.5" stroke-linecap="round" stroke-linejoin="round"/>
</svg>
