<svg width="19" height="18" viewBox="0 0 19 18" fill="none" xmlns="http://www.w3.org/2000/svg">
<path d="M8.49557 6.74387C8.62772 6.36821 8.88855 6.05144 9.23187 5.84967C9.57519 5.6479 9.97884 5.57414 10.3713 5.64146C10.7638 5.70879 11.1198 5.91284 11.3763 6.21749C11.6327 6.52214 11.7731 6.90772 11.7725 7.30595C11.7725 8.43011 10.0863 8.99219 10.0863 8.99219M10.108 11.2422H10.1155M9.99557 14.9922C13.5164 14.9922 16.3706 12.138 16.3706 8.61719C16.3706 5.09637 13.5164 2.24219 9.99557 2.24219C6.47475 2.24219 3.62057 5.09637 3.62057 8.61719C3.62057 9.32968 3.73745 10.0149 3.9531 10.6546C4.03425 10.8954 4.07482 11.0158 4.08214 11.1083C4.08937 11.1996 4.0839 11.2636 4.06131 11.3524C4.03843 11.4423 3.98792 11.5358 3.88689 11.7228L2.66015 13.9935C2.48516 14.3173 2.39767 14.4793 2.41725 14.6043C2.43431 14.7131 2.49838 14.809 2.59245 14.8664C2.70045 14.9322 2.88354 14.9133 3.24972 14.8755L7.09049 14.4784C7.2068 14.4664 7.26496 14.4604 7.31796 14.4624C7.3701 14.4644 7.4069 14.4693 7.45774 14.4811C7.50943 14.493 7.57443 14.518 7.70444 14.5681C8.41547 14.842 9.18799 14.9922 9.99557 14.9922Z" stroke="#98A2B3" stroke-width="1.5" stroke-linecap="round" stroke-linejoin="round"/>
</svg>
