<svg width="19" height="18" viewBox="0 0 19 18" fill="none" xmlns="http://www.w3.org/2000/svg">
<path d="M7.21969 8.61719L8.71969 10.1172L12.0947 6.74219M9.46969 14.9922C12.9905 14.9922 15.8447 12.138 15.8447 8.61719C15.8447 5.09637 12.9905 2.24219 9.46969 2.24219C5.94887 2.24219 3.09469 5.09637 3.09469 8.61719C3.09469 9.32968 3.21158 10.0149 3.42722 10.6546C3.50837 10.8954 3.54894 11.0158 3.55626 11.1083C3.56349 11.1996 3.55802 11.2636 3.53543 11.3524C3.51255 11.4423 3.46204 11.5358 3.36101 11.7228L2.13427 13.9935C1.95928 14.3173 1.87179 14.4793 1.89137 14.6043C1.90843 14.7131 1.9725 14.809 2.06657 14.8664C2.17457 14.9322 2.35766 14.9133 2.72385 14.8755L6.56461 14.4784C6.68092 14.4664 6.73908 14.4604 6.79209 14.4624C6.84422 14.4644 6.88102 14.4693 6.93186 14.4811C6.98356 14.493 7.04856 14.518 7.17856 14.5681C7.8896 14.842 8.66211 14.9922 9.46969 14.9922Z" stroke="#98A2B3" stroke-width="1.5" stroke-linecap="round" stroke-linejoin="round"/>
</svg>
