<svg width="19" height="18" viewBox="0 0 19 18" fill="none" xmlns="http://www.w3.org/2000/svg">
<path d="M16.3506 8.61719C16.3506 12.138 13.4964 14.9922 9.97555 14.9922C9.16797 14.9922 8.39545 14.842 7.68442 14.5681C7.55441 14.518 7.48941 14.493 7.43772 14.4811C7.38688 14.4693 7.35008 14.4644 7.29794 14.4624C7.24494 14.4604 7.18678 14.4664 7.07047 14.4784L3.2297 14.8755C2.86352 14.9133 2.68043 14.9322 2.57243 14.8664C2.47836 14.809 2.41429 14.7131 2.39723 14.6043C2.37765 14.4793 2.46514 14.3173 2.64013 13.9935L3.86687 11.7228C3.9679 11.5358 4.01841 11.4423 4.04129 11.3524C4.06388 11.2636 4.06935 11.1996 4.06212 11.1083C4.0548 11.0158 4.01423 10.8954 3.93308 10.6546C3.71743 10.0149 3.60055 9.32968 3.60055 8.61719C3.60055 5.09637 6.45473 2.24219 9.97555 2.24219C13.4964 2.24219 16.3506 5.09637 16.3506 8.61719Z" stroke="#98A2B3" stroke-width="1.5" stroke-linecap="round" stroke-linejoin="round"/>
</svg>
