<svg width="19" height="18" viewBox="0 0 19 18" fill="none" xmlns="http://www.w3.org/2000/svg">
<path d="M9.99215 10.8672V6.36719M7.74215 8.61719H12.2422M9.99215 14.9922C13.513 14.9922 16.3672 12.138 16.3672 8.61719C16.3672 5.09637 13.513 2.24219 9.99215 2.24219C6.47134 2.24219 3.61715 5.09637 3.61715 8.61719C3.61715 9.32968 3.73404 10.0149 3.94968 10.6546C4.03083 10.8954 4.0714 11.0158 4.07872 11.1083C4.08595 11.1996 4.08049 11.2636 4.05789 11.3524C4.03501 11.4423 3.9845 11.5358 3.88347 11.7228L2.65673 13.9935C2.48174 14.3173 2.39425 14.4793 2.41383 14.6043C2.43089 14.7131 2.49496 14.809 2.58903 14.8664C2.69703 14.9322 2.88012 14.9133 3.24631 14.8755L7.08707 14.4784C7.20338 14.4664 7.26154 14.4604 7.31455 14.4624C7.36668 14.4644 7.40348 14.4693 7.45433 14.4811C7.50602 14.493 7.57102 14.518 7.70102 14.5681C8.41206 14.842 9.18457 14.9922 9.99215 14.9922Z" stroke="#98A2B3" stroke-width="1.5" stroke-linecap="round" stroke-linejoin="round"/>
</svg>
