<svg width="19" height="18" viewBox="0 0 19 18" fill="none" xmlns="http://www.w3.org/2000/svg">
<path d="M5.38867 6.36719H9.13867M5.38867 8.99219H11.3887M7.40148 13.4922H12.2887C13.5488 13.4922 14.1789 13.4922 14.6602 13.247C15.0835 13.0312 15.4277 12.687 15.6434 12.2637C15.8887 11.7824 15.8887 11.1523 15.8887 9.89219V5.84219C15.8887 4.58207 15.8887 3.95201 15.6434 3.47071C15.4277 3.04734 15.0835 2.70314 14.6602 2.48742C14.1789 2.24219 13.5488 2.24219 12.2887 2.24219H5.98867C4.72855 2.24219 4.09849 2.24219 3.61719 2.48742C3.19383 2.70314 2.84962 3.04734 2.63391 3.47071C2.38867 3.95201 2.38867 4.58207 2.38867 5.84219V15.2438C2.38867 15.6435 2.38867 15.8433 2.47059 15.9459C2.54184 16.0352 2.64987 16.0871 2.76408 16.087C2.89539 16.0868 3.05142 15.962 3.36349 15.7123L5.15258 14.2811C5.51806 13.9887 5.7008 13.8425 5.90429 13.7385C6.08482 13.6463 6.27699 13.5789 6.47558 13.5381C6.69942 13.4922 6.93344 13.4922 7.40148 13.4922Z" stroke="#98A2B3" stroke-width="1.5" stroke-linecap="round" stroke-linejoin="round"/>
</svg>
