<svg width="19" height="18" viewBox="0 0 19 18" fill="none" xmlns="http://www.w3.org/2000/svg">
<path d="M6.63623 7.11719H9.63623M6.63623 9.74219H11.8862M9.63623 15.7422C13.3642 15.7422 16.3862 12.7201 16.3862 8.99219C16.3862 5.26427 13.3642 2.24219 9.63623 2.24219C5.90831 2.24219 2.88623 5.26427 2.88623 8.99219C2.88623 9.89005 3.06153 10.747 3.37978 11.5306C3.44069 11.6805 3.47114 11.7555 3.48473 11.8161C3.49802 11.8754 3.50288 11.9193 3.50289 11.9801C3.50289 12.0422 3.49162 12.1099 3.46906 12.2452L3.02433 14.9136C2.97775 15.1931 2.95447 15.3328 2.9978 15.4338C3.03573 15.5222 3.10619 15.5927 3.19462 15.6306C3.29565 15.674 3.43537 15.6507 3.7148 15.6041L6.38322 15.1594C6.51855 15.1368 6.58621 15.1255 6.64833 15.1255C6.7091 15.1255 6.75298 15.1304 6.81227 15.1437C6.87289 15.1573 6.94787 15.1877 7.09785 15.2486C7.88146 15.5669 8.73837 15.7422 9.63623 15.7422Z" stroke="#98A2B3" stroke-width="1.5" stroke-linecap="round" stroke-linejoin="round"/>
</svg>
