<svg width="19" height="18" viewBox="0 0 19 18" fill="none" xmlns="http://www.w3.org/2000/svg">
<path d="M2.38037 5.84219C2.38037 4.58207 2.38037 3.95201 2.62561 3.47071C2.84132 3.04734 3.18553 2.70314 3.60889 2.48742C4.09019 2.24219 4.72025 2.24219 5.98037 2.24219H12.2804C13.5405 2.24219 14.1705 2.24219 14.6519 2.48742C15.0752 2.70314 15.4194 3.04734 15.6351 3.47071C15.8804 3.95201 15.8804 4.58207 15.8804 5.84219V9.89219C15.8804 11.1523 15.8804 11.7824 15.6351 12.2637C15.4194 12.687 15.0752 13.0312 14.6519 13.247C14.1705 13.4922 13.5405 13.4922 12.2804 13.4922H7.39318C6.92514 13.4922 6.69112 13.4922 6.46728 13.5381C6.26869 13.5789 6.07652 13.6463 5.89599 13.7385C5.6925 13.8425 5.50976 13.9887 5.14428 14.2811L3.35519 15.7123C3.04312 15.962 2.88709 16.0868 2.75578 16.087C2.64157 16.0871 2.53354 16.0352 2.46229 15.9459C2.38037 15.8433 2.38037 15.6435 2.38037 15.2438V5.84219Z" stroke="#98A2B3" stroke-width="1.5" stroke-linecap="round" stroke-linejoin="round"/>
</svg>
