<svg width="19" height="18" viewBox="0 0 19 18" fill="none" xmlns="http://www.w3.org/2000/svg">
<g clip-path="url(#clip0_1_9959)">
<path d="M4.66208 8.41378C4.61547 8.11336 4.59128 7.80558 4.59128 7.49219C4.59128 4.17848 7.29525 1.49219 10.6308 1.49219C13.9663 1.49219 16.6702 4.17848 16.6702 7.49219C16.6702 8.24074 16.5322 8.95728 16.2802 9.61807C16.2278 9.7553 16.2016 9.82392 16.1898 9.8775C16.178 9.93058 16.1734 9.96792 16.1722 10.0223C16.1709 10.0771 16.1783 10.1376 16.1932 10.2584L16.4951 12.7111C16.5278 12.9766 16.5442 13.1093 16.5 13.2059C16.4613 13.2904 16.3926 13.3576 16.3071 13.3943C16.2096 13.4362 16.0773 13.4168 15.8126 13.378L13.4236 13.0279C13.2989 13.0096 13.2365 13.0004 13.1797 13.0008C13.1235 13.0011 13.0847 13.0052 13.0297 13.0168C12.9741 13.0285 12.9031 13.0551 12.761 13.1083C12.0986 13.3564 11.3806 13.4922 10.6308 13.4922C10.3171 13.4922 10.0091 13.4684 9.70831 13.4226M5.81499 16.4922C8.03867 16.4922 9.84131 14.6454 9.84131 12.3672C9.84131 10.089 8.03867 8.24219 5.81499 8.24219C3.59132 8.24219 1.78868 10.089 1.78868 12.3672C1.78868 12.8251 1.86152 13.2656 1.99597 13.6772C2.05281 13.8512 2.08122 13.9382 2.09055 13.9976C2.10029 14.0597 2.10199 14.0945 2.09837 14.1572C2.09489 14.2173 2.07987 14.2852 2.04982 14.4209L1.59131 16.4922L3.83741 16.1854C3.96001 16.1687 4.02131 16.1603 4.07484 16.1607C4.1312 16.1611 4.16111 16.1641 4.21639 16.1751C4.26889 16.1856 4.34693 16.2132 4.50301 16.2682C4.91425 16.4134 5.35564 16.4922 5.81499 16.4922Z" stroke="#98A2B3" stroke-width="1.5" stroke-linecap="round" stroke-linejoin="round"/>
</g>
<defs>
<clipPath id="clip0_1_9959">
<rect width="18" height="18" fill="white" transform="translate(0.0913086 -0.0078125)"/>
</clipPath>
</defs>
</svg>
