<svg width="19" height="18" viewBox="0 0 19 18" fill="none" xmlns="http://www.w3.org/2000/svg">
<path d="M8.36475 2.99219H5.96475C4.70463 2.99219 4.07457 2.99219 3.59327 3.23742C3.1699 3.45314 2.8257 3.79734 2.60998 4.22071C2.36475 4.70201 2.36475 5.33207 2.36475 6.59219V10.4922C2.36475 11.1897 2.36475 11.5384 2.44141 11.8245C2.64946 12.601 3.25595 13.2075 4.0324 13.4155C4.31853 13.4922 4.66727 13.4922 5.36475 13.4922V15.2438C5.36475 15.6435 5.36475 15.8433 5.44667 15.9459C5.51791 16.0352 5.62595 16.0871 5.74015 16.087C5.87147 16.0868 6.0275 15.962 6.33956 15.7123L8.12866 14.2811C8.49413 13.9887 8.67687 13.8425 8.88036 13.7385C9.0609 13.6463 9.25307 13.5789 9.45166 13.5381C9.6755 13.4922 9.90952 13.4922 10.3776 13.4922H11.5147C12.7749 13.4922 13.4049 13.4922 13.8862 13.247C14.3096 13.0312 14.6538 12.687 14.8695 12.2637C15.1147 11.7824 15.1147 11.1523 15.1147 9.89219V9.74219M15.2057 2.9012C16.0844 3.77988 16.0844 5.2045 15.2057 6.08318C14.3271 6.96186 12.9024 6.96186 12.0238 6.08318C11.1451 5.2045 11.1451 3.77988 12.0238 2.9012C12.9024 2.02252 14.3271 2.02252 15.2057 2.9012Z" stroke="#98A2B3" stroke-width="1.5" stroke-linecap="round" stroke-linejoin="round"/>
</svg>
