<svg width="19" height="18" viewBox="0 0 19 18" fill="none" xmlns="http://www.w3.org/2000/svg">
<path d="M15.8491 8.61721C15.8517 9.60711 15.6204 10.5836 15.1741 11.4672C14.6449 12.526 13.8314 13.4166 12.8247 14.0392C11.818 14.6618 10.6578 14.9918 9.47412 14.9922C8.48422 14.9948 7.50771 14.7635 6.62412 14.3172L2.34912 15.7422L3.77412 11.4672C3.32782 10.5836 3.09654 9.60711 3.09912 8.61721C3.09958 7.43353 3.42958 6.27335 4.05216 5.26662C4.67474 4.2599 5.56531 3.44638 6.62412 2.91721C7.50771 2.47091 8.48422 2.23963 9.47412 2.24221H9.84912C11.4124 2.32845 12.8889 2.98828 13.996 4.09535C15.1031 5.20243 15.7629 6.67895 15.8491 8.24221V8.61721Z" stroke="#98A2B3" stroke-width="1.5" stroke-linecap="round" stroke-linejoin="round"/>
</svg>
