<svg width="19" height="18" viewBox="0 0 19 18" fill="none" xmlns="http://www.w3.org/2000/svg">
<path d="M9.58936 7.86719V5.24219M9.58936 10.4922H9.59686M5.83936 13.4922V15.2438C5.83936 15.6435 5.83936 15.8433 5.92128 15.9459C5.99252 16.0352 6.10056 16.0871 6.21476 16.087C6.34608 16.0868 6.50211 15.962 6.81417 15.7123L8.60327 14.2811C8.96874 13.9887 9.15148 13.8425 9.35497 13.7385C9.53551 13.6463 9.72768 13.5789 9.92627 13.5381C10.1501 13.4922 10.3841 13.4922 10.8522 13.4922H12.7394C13.9995 13.4922 14.6295 13.4922 15.1108 13.247C15.5342 13.0312 15.8784 12.687 16.0941 12.2637C16.3394 11.7824 16.3394 11.1523 16.3394 9.89219V5.84219C16.3394 4.58207 16.3394 3.95201 16.0941 3.47071C15.8784 3.04734 15.5342 2.70314 15.1108 2.48742C14.6295 2.24219 13.9995 2.24219 12.7394 2.24219H6.43936C5.17924 2.24219 4.54918 2.24219 4.06788 2.48742C3.64451 2.70314 3.30031 3.04734 3.08459 3.47071C2.83936 3.95201 2.83936 4.58207 2.83936 5.84219V10.4922C2.83936 11.1897 2.83936 11.5384 2.91602 11.8245C3.12407 12.601 3.73056 13.2075 4.50701 13.4155C4.79314 13.4922 5.14188 13.4922 5.83936 13.4922Z" stroke="#98A2B3" stroke-width="1.5" stroke-linecap="round" stroke-linejoin="round"/>
</svg>
