<svg width="19" height="18" viewBox="0 0 19 18" fill="none" xmlns="http://www.w3.org/2000/svg">
<path d="M5.73193 7.86719H5.73943M9.10693 7.86719H9.11443M12.4819 7.86719H12.4894M5.35693 13.4922V15.2438C5.35693 15.6435 5.35693 15.8433 5.43886 15.9459C5.5101 16.0352 5.61814 16.0871 5.73234 16.087C5.86365 16.0868 6.01969 15.962 6.33175 15.7123L8.12084 14.2811C8.48632 13.9887 8.66906 13.8425 8.87255 13.7385C9.05308 13.6463 9.24526 13.5789 9.44385 13.5381C9.66769 13.4922 9.90171 13.4922 10.3697 13.4922H12.2569C13.5171 13.4922 14.1471 13.4922 14.6284 13.247C15.0518 13.0312 15.396 12.687 15.6117 12.2637C15.8569 11.7824 15.8569 11.1523 15.8569 9.89219V5.84219C15.8569 4.58207 15.8569 3.95201 15.6117 3.47071C15.396 3.04734 15.0518 2.70314 14.6284 2.48742C14.1471 2.24219 13.5171 2.24219 12.2569 2.24219H5.95693C4.69682 2.24219 4.06676 2.24219 3.58546 2.48742C3.16209 2.70314 2.81788 3.04734 2.60217 3.47071C2.35693 3.95201 2.35693 4.58207 2.35693 5.84219V10.4922C2.35693 11.1897 2.35693 11.5384 2.4336 11.8245C2.64165 12.601 3.24813 13.2075 4.02459 13.4155C4.31072 13.4922 4.65946 13.4922 5.35693 13.4922ZM6.10693 7.86719C6.10693 8.07429 5.93904 8.24219 5.73193 8.24219C5.52483 8.24219 5.35693 8.07429 5.35693 7.86719C5.35693 7.66008 5.52483 7.49219 5.73193 7.49219C5.93904 7.49219 6.10693 7.66008 6.10693 7.86719ZM9.48193 7.86719C9.48193 8.07429 9.31404 8.24219 9.10693 8.24219C8.89983 8.24219 8.73193 8.07429 8.73193 7.86719C8.73193 7.66008 8.89983 7.49219 9.10693 7.49219C9.31404 7.49219 9.48193 7.66008 9.48193 7.86719ZM12.8569 7.86719C12.8569 8.07429 12.689 8.24219 12.4819 8.24219C12.2748 8.24219 12.1069 8.07429 12.1069 7.86719C12.1069 7.66008 12.2748 7.49219 12.4819 7.49219C12.689 7.49219 12.8569 7.66008 12.8569 7.86719Z" stroke="#98A2B3" stroke-width="1.5" stroke-linecap="round" stroke-linejoin="round"/>
</svg>
