<svg width="19" height="18" viewBox="0 0 19 18" fill="none" xmlns="http://www.w3.org/2000/svg">
<path d="M15.853 8.99219C15.853 12.7201 12.831 15.7422 9.10303 15.7422C8.20517 15.7422 7.34826 15.5669 6.56465 15.2486C6.41467 15.1877 6.33968 15.1573 6.27907 15.1437C6.21977 15.1304 6.17589 15.1255 6.11513 15.1255C6.05301 15.1255 5.98534 15.1368 5.85002 15.1594L3.1816 15.6041C2.90216 15.6507 2.76245 15.674 2.66142 15.6306C2.57299 15.5927 2.50252 15.5222 2.4646 15.4338C2.42126 15.3328 2.44455 15.1931 2.49112 14.9136L2.93586 12.2452C2.95841 12.1099 2.96969 12.0422 2.96968 11.9801C2.96967 11.9193 2.96481 11.8754 2.95152 11.8161C2.93794 11.7555 2.90748 11.6805 2.84657 11.5306C2.52833 10.747 2.35303 9.89005 2.35303 8.99219C2.35303 5.26427 5.37511 2.24219 9.10303 2.24219C12.831 2.24219 15.853 5.26427 15.853 8.99219Z" stroke="#98A2B3" stroke-width="1.5" stroke-linecap="round" stroke-linejoin="round"/>
</svg>
