<svg width="19" height="18" viewBox="0 0 19 18" fill="none" xmlns="http://www.w3.org/2000/svg">
<path d="M9.46188 8.24219V5.61719M9.46188 10.8672H9.46938M9.46188 14.9922C12.9827 14.9922 15.8369 12.138 15.8369 8.61719C15.8369 5.09637 12.9827 2.24219 9.46188 2.24219C5.94106 2.24219 3.08688 5.09637 3.08688 8.61719C3.08688 9.32968 3.20376 10.0149 3.4194 10.6546C3.50055 10.8954 3.54113 11.0158 3.54845 11.1083C3.55568 11.1996 3.55021 11.2636 3.52762 11.3524C3.50474 11.4423 3.45422 11.5358 3.3532 11.7228L2.12645 13.9935C1.95147 14.3173 1.86398 14.4793 1.88356 14.6043C1.90062 14.7131 1.96469 14.809 2.05876 14.8664C2.16676 14.9322 2.34985 14.9133 2.71603 14.8755L6.5568 14.4784C6.67311 14.4664 6.73127 14.4604 6.78427 14.4624C6.83641 14.4644 6.87321 14.4693 6.92405 14.4811C6.97574 14.493 7.04074 14.518 7.17074 14.5681C7.88178 14.842 8.65429 14.9922 9.46188 14.9922Z" stroke="#98A2B3" stroke-width="1.5" stroke-linecap="round" stroke-linejoin="round"/>
</svg>
