<svg width="19" height="18" viewBox="0 0 19 18" fill="none" xmlns="http://www.w3.org/2000/svg">
<g clip-path="url(#clip0_1_9961)">
<path d="M8.09277 11.2422L5.78633 13.5775C5.46461 13.9032 5.30375 14.0661 5.16549 14.0776C5.04553 14.0875 4.92809 14.0393 4.84974 13.9479C4.75944 13.8426 4.75944 13.6137 4.75944 13.1558V11.9859C4.75944 11.5752 4.42308 11.278 4.01668 11.2184V11.2184C3.03308 11.0744 2.26061 10.3019 2.11653 9.31829C2.09277 9.1561 2.09277 8.96258 2.09277 8.57552V5.09219C2.09277 3.83207 2.09277 3.20201 2.33801 2.72071C2.55372 2.29734 2.89793 1.95314 3.32129 1.73742C3.8026 1.49219 4.43266 1.49219 5.69277 1.49219H11.2428C12.5029 1.49219 13.133 1.49219 13.6143 1.73742C14.0376 1.95314 14.3818 2.29734 14.5975 2.72071C14.8428 3.20201 14.8428 3.83207 14.8428 5.09219V8.24219M14.8428 16.4922L13.2105 15.3573C12.981 15.1978 12.8663 15.1181 12.7414 15.0615C12.6306 15.0113 12.5141 14.9748 12.3945 14.9527C12.2597 14.9279 12.1199 14.9279 11.8405 14.9279H10.4928C9.6527 14.9279 9.23266 14.9279 8.91179 14.7644C8.62955 14.6206 8.40007 14.3911 8.25626 14.1089C8.09277 13.788 8.09277 13.368 8.09277 12.5279V10.6422C8.09277 9.80211 8.09277 9.38207 8.25626 9.0612C8.40007 8.77896 8.62955 8.54949 8.91179 8.40568C9.23266 8.24219 9.6527 8.24219 10.4928 8.24219H14.6928C15.5329 8.24219 15.9529 8.24219 16.2738 8.40568C16.556 8.54949 16.7855 8.77896 16.9293 9.0612C17.0928 9.38207 17.0928 9.80211 17.0928 10.6422V12.6779C17.0928 13.3768 17.0928 13.7263 16.9786 14.0019C16.8264 14.3695 16.5343 14.6615 16.1668 14.8137C15.8911 14.9279 15.5417 14.9279 14.8428 14.9279V16.4922Z" stroke="#98A2B3" stroke-width="1.5" stroke-linecap="round" stroke-linejoin="round"/>
</g>
<defs>
<clipPath id="clip0_1_9961">
<rect width="18" height="18" fill="white" transform="translate(0.59375 -0.0078125)"/>
</clipPath>
</defs>
</svg>
