<svg width="19" height="18" viewBox="0 0 19 18" fill="none" xmlns="http://www.w3.org/2000/svg">
<path d="M2.36133 5.84219C2.36133 4.58207 2.36133 3.95201 2.60656 3.47071C2.82228 3.04734 3.16648 2.70314 3.58985 2.48742C4.07115 2.24219 4.70121 2.24219 5.96133 2.24219H12.2613C13.5214 2.24219 14.1515 2.24219 14.6328 2.48742C15.0562 2.70314 15.4004 3.04734 15.6161 3.47071C15.8613 3.95201 15.8613 4.58207 15.8613 5.84219V9.89219C15.8613 11.1523 15.8613 11.7824 15.6161 12.2637C15.4004 12.687 15.0562 13.0312 14.6328 13.247C14.1515 13.4922 13.5214 13.4922 12.2613 13.4922H10.3741C9.9061 13.4922 9.67208 13.4922 9.44824 13.5381C9.24965 13.5789 9.05748 13.6463 8.87694 13.7385C8.67346 13.8425 8.49072 13.9887 8.12524 14.2811L6.33615 15.7123C6.02408 15.962 5.86805 16.0868 5.73673 16.087C5.62253 16.0871 5.5145 16.0352 5.44325 15.9459C5.36133 15.8433 5.36133 15.6435 5.36133 15.2438V13.4922C4.66385 13.4922 4.31511 13.4922 4.02899 13.4155C3.25253 13.2075 2.64605 12.601 2.438 11.8245C2.36133 11.5384 2.36133 11.1897 2.36133 10.4922V5.84219Z" stroke="#98A2B3" stroke-width="1.5" stroke-linecap="round" stroke-linejoin="round"/>
<path fill-rule="evenodd" clip-rule="evenodd" d="M9.10902 5.76663C8.43424 4.98749 7.30899 4.7779 6.46354 5.49136C5.61808 6.20482 5.49906 7.39768 6.163 8.24149C6.57433 8.76426 7.60674 9.71905 8.3328 10.3699C8.59949 10.609 8.73284 10.7285 8.89288 10.7767C9.03016 10.818 9.18788 10.818 9.32516 10.7767C9.4852 10.7285 9.61854 10.609 9.88524 10.3699C10.6113 9.71905 11.6437 8.76426 12.055 8.24149C12.719 7.39768 12.6145 6.19731 11.7545 5.49136C10.8945 4.78541 9.7838 4.98749 9.10902 5.76663Z" stroke="#98A2B3" stroke-width="1.5" stroke-linecap="round" stroke-linejoin="round"/>
</svg>
