<svg width="19" height="18" viewBox="0 0 19 18" fill="none" xmlns="http://www.w3.org/2000/svg">
<path d="M7.64205 6.74219L11.3921 10.4922M11.3921 6.74219L7.64205 10.4922M9.51705 14.9922C13.0379 14.9922 15.8921 12.138 15.8921 8.61719C15.8921 5.09637 13.0379 2.24219 9.51705 2.24219C5.99624 2.24219 3.14205 5.09637 3.14205 8.61719C3.14205 9.32968 3.25894 10.0149 3.47458 10.6546C3.55573 10.8954 3.59631 11.0158 3.60362 11.1083C3.61085 11.1996 3.60539 11.2636 3.58279 11.3524C3.55991 11.4423 3.5094 11.5358 3.40837 11.7228L2.18163 13.9935C2.00665 14.3173 1.91915 14.4793 1.93874 14.6043C1.95579 14.7131 2.01986 14.809 2.11393 14.8664C2.22194 14.9322 2.40503 14.9133 2.77121 14.8755L6.61198 14.4784C6.72829 14.4664 6.78644 14.4604 6.83945 14.4624C6.89158 14.4644 6.92839 14.4693 6.97923 14.4811C7.03092 14.493 7.09592 14.518 7.22592 14.5681C7.93696 14.842 8.70947 14.9922 9.51705 14.9922Z" stroke="#98A2B3" stroke-width="1.5" stroke-linecap="round" stroke-linejoin="round"/>
</svg>
