<svg width="19" height="18" viewBox="0 0 19 18" fill="none" xmlns="http://www.w3.org/2000/svg">
<path d="M7.76904 5.99219L11.519 9.74219M11.519 5.99219L7.76904 9.74219M5.89404 13.4922V15.2438C5.89404 15.6435 5.89404 15.8433 5.97596 15.9459C6.04721 16.0352 6.15525 16.0871 6.26945 16.087C6.40076 16.0868 6.5568 15.962 6.86886 15.7123L8.65795 14.2811C9.02343 13.9887 9.20617 13.8425 9.40966 13.7385C9.59019 13.6463 9.78236 13.5789 9.98096 13.5381C10.2048 13.4922 10.4388 13.4922 10.9069 13.4922H12.794C14.0542 13.4922 14.6842 13.4922 15.1655 13.247C15.5889 13.0312 15.9331 12.687 16.1488 12.2637C16.394 11.7824 16.394 11.1523 16.394 9.89219V5.84219C16.394 4.58207 16.394 3.95201 16.1488 3.47071C15.9331 3.04734 15.5889 2.70314 15.1655 2.48742C14.6842 2.24219 14.0542 2.24219 12.794 2.24219H6.49404C5.23393 2.24219 4.60387 2.24219 4.12256 2.48742C3.6992 2.70314 3.35499 3.04734 3.13928 3.47071C2.89404 3.95201 2.89404 4.58207 2.89404 5.84219V10.4922C2.89404 11.1897 2.89404 11.5384 2.97071 11.8245C3.17876 12.601 3.78524 13.2075 4.5617 13.4155C4.84783 13.4922 5.19656 13.4922 5.89404 13.4922Z" stroke="#98A2B3" stroke-width="1.5" stroke-linecap="round" stroke-linejoin="round"/>
</svg>
