<svg width="19" height="18" viewBox="0 0 19 18" fill="none" xmlns="http://www.w3.org/2000/svg">
<path d="M5.89014 6.36719H9.64014M5.89014 8.99219H11.8901M5.89014 13.4922V15.2438C5.89014 15.6435 5.89014 15.8433 5.97206 15.9459C6.0433 16.0352 6.15134 16.0871 6.26554 16.087C6.39686 16.0868 6.55289 15.962 6.86495 15.7123L8.65405 14.2811C9.01953 13.9887 9.20226 13.8425 9.40575 13.7385C9.58629 13.6463 9.77846 13.5789 9.97705 13.5381C10.2009 13.4922 10.4349 13.4922 10.9029 13.4922H12.7901C14.0503 13.4922 14.6803 13.4922 15.1616 13.247C15.585 13.0312 15.9292 12.687 16.1449 12.2637C16.3901 11.7824 16.3901 11.1523 16.3901 9.89219V5.84219C16.3901 4.58207 16.3901 3.95201 16.1449 3.47071C15.9292 3.04734 15.585 2.70314 15.1616 2.48742C14.6803 2.24219 14.0503 2.24219 12.7901 2.24219H6.49014C5.23002 2.24219 4.59996 2.24219 4.11866 2.48742C3.69529 2.70314 3.35109 3.04734 3.13537 3.47071C2.89014 3.95201 2.89014 4.58207 2.89014 5.84219V10.4922C2.89014 11.1897 2.89014 11.5384 2.9668 11.8245C3.17485 12.601 3.78134 13.2075 4.55779 13.4155C4.84392 13.4922 5.19266 13.4922 5.89014 13.4922Z" stroke="#98A2B3" stroke-width="1.5" stroke-linecap="round" stroke-linejoin="round"/>
</svg>
