<svg width="19" height="18" viewBox="0 0 19 18" fill="none" xmlns="http://www.w3.org/2000/svg">
<path d="M6.50147 9.36719C6.50147 9.36719 7.48584 10.4922 9.12647 10.4922C10.7671 10.4922 11.7515 9.36719 11.7515 9.36719M11.189 5.61719H11.1965M7.06397 5.61719H7.07147M5.37647 13.4922V15.2438C5.37647 15.6435 5.37647 15.8433 5.45839 15.9459C5.52963 16.0352 5.63767 16.0871 5.75187 16.087C5.88319 16.0868 6.03922 15.962 6.35128 15.7123L8.14038 14.2811C8.50585 13.9887 8.68859 13.8425 8.89208 13.7385C9.07262 13.6463 9.26479 13.5789 9.46338 13.5381C9.68722 13.4922 9.92124 13.4922 10.3893 13.4922H12.2765C13.5366 13.4922 14.1666 13.4922 14.6479 13.247C15.0713 13.0312 15.4155 12.687 15.6312 12.2637C15.8765 11.7824 15.8765 11.1523 15.8765 9.89219V5.84219C15.8765 4.58207 15.8765 3.95201 15.6312 3.47071C15.4155 3.04734 15.0713 2.70314 14.6479 2.48742C14.1666 2.24219 13.5366 2.24219 12.2765 2.24219H5.97647C4.71635 2.24219 4.08629 2.24219 3.60499 2.48742C3.18162 2.70314 2.83742 3.04734 2.6217 3.47071C2.37646 3.95201 2.37646 4.58207 2.37646 5.84219V10.4922C2.37646 11.1897 2.37646 11.5384 2.45313 11.8245C2.66118 12.601 3.26767 13.2075 4.04412 13.4155C4.33025 13.4922 4.67899 13.4922 5.37647 13.4922ZM11.564 5.61719C11.564 5.82429 11.3961 5.99219 11.189 5.99219C10.9819 5.99219 10.814 5.82429 10.814 5.61719C10.814 5.41008 10.9819 5.24219 11.189 5.24219C11.3961 5.24219 11.564 5.41008 11.564 5.61719ZM7.43897 5.61719C7.43897 5.82429 7.27107 5.99219 7.06397 5.99219C6.85686 5.99219 6.68897 5.82429 6.68897 5.61719C6.68897 5.41008 6.85686 5.24219 7.06397 5.24219C7.27107 5.24219 7.43897 5.41008 7.43897 5.61719Z" stroke="#98A2B3" stroke-width="1.5" stroke-linecap="round" stroke-linejoin="round"/>
</svg>
