<svg width="19" height="18" viewBox="0 0 19 18" fill="none" xmlns="http://www.w3.org/2000/svg">
<path d="M9.3928 2.26954C6.15071 2.56935 3.61227 5.29682 3.61227 8.61719C3.61227 9.32968 3.72915 10.0149 3.9448 10.6546C4.02594 10.8954 4.06652 11.0158 4.07384 11.1083C4.08107 11.1996 4.0756 11.2636 4.05301 11.3524C4.03013 11.4423 3.97961 11.5358 3.87859 11.7228L2.65184 13.9935C2.47686 14.3173 2.38937 14.4793 2.40895 14.6043C2.42601 14.7131 2.49008 14.809 2.58415 14.8664C2.69215 14.9322 2.87524 14.9133 3.24142 14.8755L7.08219 14.4784C7.19846 14.4664 7.25667 14.4604 7.30966 14.4624C7.3618 14.4644 7.3986 14.4693 7.44944 14.4811C7.50113 14.493 7.56613 14.518 7.69613 14.5681C8.40717 14.842 9.17969 14.9922 9.98727 14.9922C13.3104 14.9922 16.0396 12.4496 16.3357 9.20364M15.7033 2.9012C16.5819 3.77988 16.5819 5.2045 15.7033 6.08318C14.8246 6.96186 13.4 6.96186 12.5213 6.08318C11.6426 5.2045 11.6426 3.77988 12.5213 2.9012C13.4 2.02252 14.8246 2.02252 15.7033 2.9012Z" stroke="#98A2B3" stroke-width="1.5" stroke-linecap="round" stroke-linejoin="round"/>
</svg>
