<svg width="19" height="18" viewBox="0 0 19 18" fill="none" xmlns="http://www.w3.org/2000/svg">
<path d="M7.37399 10.4922C7.37399 10.4922 8.35836 11.6172 9.99899 11.6172C11.6396 11.6172 12.624 10.4922 12.624 10.4922M12.0615 6.74219H12.069M7.93649 6.74219H7.94399M9.99899 14.9922C13.5198 14.9922 16.374 12.138 16.374 8.61719C16.374 5.09637 13.5198 2.24219 9.99899 2.24219C6.47817 2.24219 3.62399 5.09637 3.62399 8.61719C3.62399 9.32968 3.74087 10.0149 3.95651 10.6546C4.03766 10.8954 4.07824 11.0158 4.08556 11.1083C4.09278 11.1996 4.08732 11.2636 4.06473 11.3524C4.04185 11.4423 3.99133 11.5358 3.89031 11.7228L2.66356 13.9935C2.48858 14.3173 2.40109 14.4793 2.42067 14.6043C2.43773 14.7131 2.5018 14.809 2.59587 14.8664C2.70387 14.9322 2.88696 14.9133 3.25314 14.8755L7.09391 14.4784C7.21022 14.4664 7.26838 14.4604 7.32138 14.4624C7.37352 14.4644 7.41032 14.4693 7.46116 14.4811C7.51285 14.493 7.57785 14.518 7.70785 14.5681C8.41889 14.842 9.1914 14.9922 9.99899 14.9922ZM12.4365 6.74219C12.4365 6.9493 12.2686 7.11719 12.0615 7.11719C11.8544 7.11719 11.6865 6.9493 11.6865 6.74219C11.6865 6.53508 11.8544 6.36719 12.0615 6.36719C12.2686 6.36719 12.4365 6.53508 12.4365 6.74219ZM8.31149 6.74219C8.31149 6.9493 8.14359 7.11719 7.93649 7.11719C7.72938 7.11719 7.56149 6.9493 7.56149 6.74219C7.56149 6.53508 7.72938 6.36719 7.93649 6.36719C8.14359 6.36719 8.31149 6.53508 8.31149 6.74219Z" stroke="#98A2B3" stroke-width="1.5" stroke-linecap="round" stroke-linejoin="round"/>
</svg>
