<svg width="19" height="18" viewBox="0 0 19 18" fill="none" xmlns="http://www.w3.org/2000/svg">
<path d="M6.22949 8.99219H6.23699M9.60449 8.99219H9.61199M12.9795 8.99219H12.987M9.60449 15.7422C13.3324 15.7422 16.3545 12.7201 16.3545 8.99219C16.3545 5.26427 13.3324 2.24219 9.60449 2.24219C5.87657 2.24219 2.85449 5.26427 2.85449 8.99219C2.85449 9.89005 3.02979 10.747 3.34804 11.5306C3.40895 11.6805 3.4394 11.7555 3.45299 11.8161C3.46628 11.8754 3.47114 11.9193 3.47115 11.9801C3.47116 12.0422 3.45988 12.1099 3.43732 12.2452L2.99259 14.9136C2.94602 15.1931 2.92273 15.3328 2.96606 15.4338C3.00399 15.5222 3.07445 15.5927 3.16288 15.6306C3.26391 15.674 3.40363 15.6507 3.68306 15.6041L6.35148 15.1594C6.48681 15.1368 6.55447 15.1255 6.61659 15.1255C6.67736 15.1255 6.72124 15.1304 6.78053 15.1437C6.84115 15.1573 6.91614 15.1877 7.06611 15.2486C7.84972 15.5669 8.70664 15.7422 9.60449 15.7422ZM6.60449 8.99219C6.60449 9.1993 6.4366 9.36719 6.22949 9.36719C6.02239 9.36719 5.85449 9.1993 5.85449 8.99219C5.85449 8.78508 6.02239 8.61719 6.22949 8.61719C6.4366 8.61719 6.60449 8.78508 6.60449 8.99219ZM9.97949 8.99219C9.97949 9.1993 9.8116 9.36719 9.60449 9.36719C9.39739 9.36719 9.22949 9.1993 9.22949 8.99219C9.22949 8.78508 9.39739 8.61719 9.60449 8.61719C9.8116 8.61719 9.97949 8.78508 9.97949 8.99219ZM13.3545 8.99219C13.3545 9.1993 13.1866 9.36719 12.9795 9.36719C12.7724 9.36719 12.6045 9.1993 12.6045 8.99219C12.6045 8.78508 12.7724 8.61719 12.9795 8.61719C13.1866 8.61719 13.3545 8.78508 13.3545 8.99219Z" stroke="#98A2B3" stroke-width="1.5" stroke-linecap="round" stroke-linejoin="round"/>
</svg>
