<svg width="19" height="18" viewBox="0 0 19 18" fill="none" xmlns="http://www.w3.org/2000/svg">
<path d="M7.34668 7.86719L8.84668 9.36719L12.2217 5.99219M5.84668 13.4922V15.2438C5.84668 15.6435 5.84668 15.8433 5.9286 15.9459C5.99985 16.0352 6.10788 16.0871 6.22209 16.087C6.3534 16.0868 6.50943 15.962 6.8215 15.7123L8.61059 14.2811C8.97607 13.9887 9.15881 13.8425 9.3623 13.7385C9.54283 13.6463 9.735 13.5789 9.93359 13.5381C10.1574 13.4922 10.3915 13.4922 10.8595 13.4922H12.7467C14.0068 13.4922 14.6369 13.4922 15.1182 13.247C15.5415 13.0312 15.8857 12.687 16.1014 12.2637C16.3467 11.7824 16.3467 11.1523 16.3467 9.89219V5.84219C16.3467 4.58207 16.3467 3.95201 16.1014 3.47071C15.8857 3.04734 15.5415 2.70314 15.1182 2.48742C14.6369 2.24219 14.0068 2.24219 12.7467 2.24219H6.44668C5.18656 2.24219 4.5565 2.24219 4.0752 2.48742C3.65184 2.70314 3.30763 3.04734 3.09192 3.47071C2.84668 3.95201 2.84668 4.58207 2.84668 5.84219V10.4922C2.84668 11.1897 2.84668 11.5384 2.92335 11.8245C3.1314 12.601 3.73788 13.2075 4.51434 13.4155C4.80046 13.4922 5.1492 13.4922 5.84668 13.4922Z" stroke="#98A2B3" stroke-width="1.5" stroke-linecap="round" stroke-linejoin="round"/>
</svg>
