<svg width="19" height="18" viewBox="0 0 19 18" fill="none" xmlns="http://www.w3.org/2000/svg">
<g clip-path="url(#clip0_1_11133)">
<path d="M1.39844 0.742134L17.8984 17.2421M11.8984 6.99714V2.99213C11.899 2.43416 11.6922 1.89587 11.3182 1.48178C10.9442 1.06769 10.4297 0.807341 9.87456 0.751265C9.31941 0.695188 8.76322 0.847391 8.31398 1.17833C7.86473 1.50926 7.55447 1.99532 7.44344 2.54213M13.3984 12.7046C12.6663 13.452 11.7275 13.9635 10.7026 14.1736C9.67775 14.3837 8.61346 14.2828 7.64631 13.8838C6.67916 13.4849 5.85326 12.8061 5.27457 11.9345C4.69587 11.0629 4.39078 10.0383 4.39844 8.99214V7.49214M14.8984 7.49214V8.99214C14.8982 9.30147 14.8706 9.61017 14.8159 9.91464M9.64844 14.2421V17.2421M6.64844 17.2421H12.6484M7.39844 6.74214V8.99214C7.39883 9.43686 7.531 9.87149 7.77826 10.2411C8.02552 10.6108 8.37678 10.8989 8.78767 11.069C9.19856 11.2391 9.65065 11.2837 10.0868 11.197C10.523 11.1104 10.9238 10.8964 11.2384 10.5821L7.39844 6.74214Z" stroke="#98A2B3" stroke-width="1.5" stroke-linecap="round" stroke-linejoin="round"/>
</g>
<defs>
<clipPath id="clip0_1_11133">
<rect width="18" height="18" fill="white" transform="translate(0.648438 -0.0078125)"/>
</clipPath>
</defs>
</svg>
