<svg width="19" height="18" viewBox="0 0 19 18" fill="none" xmlns="http://www.w3.org/2000/svg">
<g clip-path="url(#clip0_1_10627)">
<path d="M14.3965 7.49219V8.99219C14.3965 10.3846 13.8434 11.7199 12.8588 12.7045C11.8742 13.6891 10.5389 14.2422 9.14648 14.2422M9.14648 14.2422C7.7541 14.2422 6.41874 13.6891 5.43417 12.7045C4.44961 11.7199 3.89648 10.3846 3.89648 8.99219V7.49219M9.14648 14.2422V17.2422M6.14648 17.2422H12.1465M9.14648 0.742188C8.54975 0.742188 7.97745 0.97924 7.55549 1.4012C7.13354 1.82315 6.89648 2.39545 6.89648 2.99219V8.99219C6.89648 9.58893 7.13354 10.1612 7.55549 10.5832C7.97745 11.0051 8.54975 11.2422 9.14648 11.2422C9.74322 11.2422 10.3155 11.0051 10.7375 10.5832C11.1594 10.1612 11.3965 9.58893 11.3965 8.99219V2.99219C11.3965 2.39545 11.1594 1.82315 10.7375 1.4012C10.3155 0.97924 9.74322 0.742188 9.14648 0.742188Z" stroke="#98A2B3" stroke-width="1.5" stroke-linecap="round" stroke-linejoin="round"/>
</g>
<defs>
<clipPath id="clip0_1_10627">
<rect width="18" height="18" fill="white" transform="translate(0.146484 -0.0078125)"/>
</clipPath>
</defs>
</svg>
