<svg width="19" height="18" viewBox="0 0 19 18" fill="none" xmlns="http://www.w3.org/2000/svg">
<g clip-path="url(#clip0_1_8624)">
<path d="M2.4082 16.4922H9.1582M8.4082 4.68121C8.88763 4.55782 9.39025 4.49219 9.9082 4.49219C13.2219 4.49219 15.9082 7.17848 15.9082 10.4922C15.9082 13.0102 14.3571 15.166 12.1582 16.0561M4.2832 9.74219H7.2832C7.6317 9.74219 7.80594 9.74219 7.95084 9.77101C8.54588 9.88937 9.01102 10.3545 9.12938 10.9496C9.1582 11.0945 9.1582 11.2687 9.1582 11.6172C9.1582 11.9657 9.1582 12.1399 9.12938 12.2848C9.01102 12.8799 8.54588 13.345 7.95084 13.4634C7.80594 13.4922 7.6317 13.4922 7.2832 13.4922H4.2832C3.93471 13.4922 3.76047 13.4922 3.61557 13.4634C3.02053 13.345 2.55539 12.8799 2.43703 12.2848C2.4082 12.1399 2.4082 11.9657 2.4082 11.6172C2.4082 11.2687 2.4082 11.0945 2.43703 10.9496C2.55539 10.3545 3.02053 9.88937 3.61557 9.77101C3.76047 9.74219 3.93471 9.74219 4.2832 9.74219ZM3.1582 4.11719V9.74219H8.4082V4.11719C8.4082 2.66744 7.23295 1.49219 5.7832 1.49219C4.33346 1.49219 3.1582 2.66744 3.1582 4.11719Z" stroke="#98A2B3" stroke-width="1.5" stroke-linecap="round" stroke-linejoin="round"/>
</g>
<defs>
<clipPath id="clip0_1_8624">
<rect width="18" height="18" fill="white" transform="translate(0.158203 -0.0078125)"/>
</clipPath>
</defs>
</svg>
