<svg width="19" height="18" viewBox="0 0 19 18" fill="none" xmlns="http://www.w3.org/2000/svg">
<g clip-path="url(#clip0_1_9723)">
<path d="M11.4043 7.04219V3.74219C11.4043 2.49955 10.3969 1.49219 9.1543 1.49219C8.27109 1.49219 7.50673 2.00108 7.13845 2.74164M9.1543 14.2422V16.4922M9.1543 14.2422C6.2548 14.2422 3.9043 11.8917 3.9043 8.99219V7.49219M9.1543 14.2422C12.0538 14.2422 14.4043 11.8917 14.4043 8.99219V7.49219M6.1543 16.4922H12.1543M1.6543 1.49219L16.6543 16.4922M9.1543 11.2422C7.91166 11.2422 6.9043 10.2348 6.9043 8.99219V6.74219L10.7463 10.5822C10.339 10.99 9.77611 11.2422 9.1543 11.2422Z" stroke="#98A2B3" stroke-width="1.5" stroke-linecap="round" stroke-linejoin="round"/>
</g>
<defs>
<clipPath id="clip0_1_9723">
<rect width="18" height="18" fill="white" transform="translate(0.154297 -0.0078125)"/>
</clipPath>
</defs>
</svg>
