<svg width="19" height="18" viewBox="0 0 19 18" fill="none" xmlns="http://www.w3.org/2000/svg">
<path d="M2.91406 5.99219H3.06406C4.32418 5.99219 4.95424 5.99219 5.43554 5.74695C5.85891 5.53124 6.20311 5.18703 6.41883 4.76367C6.66406 4.28237 6.66406 3.65231 6.66406 2.39219V2.24219M2.91406 11.9922H3.06406C4.32418 11.9922 4.95424 11.9922 5.43554 12.2374C5.85891 12.4531 6.20311 12.7973 6.41883 13.2207C6.66406 13.702 6.66406 14.3321 6.66406 15.5922V15.7422M12.6641 2.24219V2.39219C12.6641 3.65231 12.6641 4.28237 12.9093 4.76367C13.125 5.18703 13.4692 5.53124 13.8926 5.74695C14.3739 5.99219 15.0039 5.99219 16.2641 5.99219H16.4141M12.6641 15.7422V15.5922C12.6641 14.3321 12.6641 13.702 12.9093 13.2207C13.125 12.7973 13.4692 12.4531 13.8926 12.2374C14.3739 11.9922 15.0039 11.9922 16.2641 11.9922H16.4141" stroke="#98A2B3" stroke-width="1.5" stroke-linecap="round" stroke-linejoin="round"/>
</svg>
