<svg width="19" height="18" viewBox="0 0 19 18" fill="none" xmlns="http://www.w3.org/2000/svg">
<path d="M6.65967 2.24219V4.49219C6.65967 4.89001 6.50163 5.27154 6.22033 5.55285C5.93902 5.83415 5.55749 5.99219 5.15967 5.99219H2.90967M16.4097 5.99219H14.1597C13.7618 5.99219 13.3803 5.83415 13.099 5.55285C12.8177 5.27154 12.6597 4.89001 12.6597 4.49219V2.24219M12.6597 15.7422V13.4922C12.6597 13.0944 12.8177 12.7128 13.099 12.4315C13.3803 12.1502 13.7618 11.9922 14.1597 11.9922H16.4097M2.90967 11.9922H5.15967C5.55749 11.9922 5.93902 12.1502 6.22033 12.4315C6.50163 12.7128 6.65967 13.0944 6.65967 13.4922V15.7422" stroke="#98A2B3" stroke-width="1.5" stroke-linecap="round" stroke-linejoin="round"/>
</svg>
