<svg width="19" height="18" viewBox="0 0 19 18" fill="none" xmlns="http://www.w3.org/2000/svg">
<path d="M6.17773 8.99219H12.1777M6.02773 15.7422H12.3277C13.5879 15.7422 14.2179 15.7422 14.6992 15.497C15.1226 15.2812 15.4668 14.937 15.6825 14.5137C15.9277 14.0324 15.9277 13.4023 15.9277 12.1422V5.84219C15.9277 4.58207 15.9277 3.95201 15.6825 3.47071C15.4668 3.04734 15.1226 2.70314 14.6992 2.48742C14.2179 2.24219 13.5879 2.24219 12.3277 2.24219H6.02774C4.76762 2.24219 4.13756 2.24219 3.65626 2.48742C3.23289 2.70314 2.88868 3.04734 2.67297 3.47071C2.42773 3.95201 2.42773 4.58207 2.42773 5.84219V12.1422C2.42773 13.4023 2.42773 14.0324 2.67297 14.5137C2.88868 14.937 3.23289 15.2812 3.65626 15.497C4.13756 15.7422 4.76762 15.7422 6.02773 15.7422Z" stroke="#98A2B3" stroke-width="1.5" stroke-linecap="round" stroke-linejoin="round"/>
</svg>
