<svg width="19" height="18" viewBox="0 0 19 18" fill="none" xmlns="http://www.w3.org/2000/svg">
<g clip-path="url(#clip0_1_9729)">
<path d="M4.83537 7.91053C4.47616 6.56933 4.74714 5.09448 5.64831 3.95493M13.5283 7.91049C13.8875 6.56929 13.6165 5.09445 12.7153 3.9549M1.9382 8.69185C1.30973 6.3483 1.8359 3.75957 3.51671 1.82654M16.4228 8.69188C17.0513 6.34833 16.5251 3.7596 14.8443 1.82657M9.18181 11.2421V6.74213M4.30681 13.8671H7.30681M4.08181 16.4921H14.2818C15.1219 16.4921 15.5419 16.4921 15.8628 16.3286C16.145 16.1848 16.3745 15.9554 16.5183 15.6731C16.6818 15.3522 16.6818 14.9322 16.6818 14.0921V13.6421C16.6818 12.8021 16.6818 12.382 16.5183 12.0611C16.3745 11.7789 16.145 11.5494 15.8628 11.4056C15.5419 11.2421 15.1219 11.2421 14.2818 11.2421H4.08181C3.24173 11.2421 2.82169 11.2421 2.50082 11.4056C2.21858 11.5494 1.98911 11.7789 1.8453 12.0611C1.68181 12.382 1.68181 12.8021 1.68181 13.6421V14.0921C1.68181 14.9322 1.68181 15.3522 1.8453 15.6731C1.98911 15.9554 2.21858 16.1848 2.50082 16.3286C2.82169 16.4921 3.24173 16.4921 4.08181 16.4921Z" stroke="#98A2B3" stroke-width="1.5" stroke-linecap="round" stroke-linejoin="round"/>
</g>
<defs>
<clipPath id="clip0_1_9729">
<rect width="18" height="18" fill="white" transform="translate(0.181641 -0.0078125)"/>
</clipPath>
</defs>
</svg>
