<svg width="19" height="18" viewBox="0 0 19 18" fill="none" xmlns="http://www.w3.org/2000/svg">
<g clip-path="url(#clip0_1_9727)">
<path d="M12.8619 3.56012C14.6192 5.31748 14.6192 8.16672 12.8619 9.92408M6.49787 9.92408C4.74051 8.16672 4.74051 5.31748 6.49787 3.56012M4.32359 11.9921C1.44756 9.05916 1.46516 4.35007 4.37639 1.43884M14.9833 1.43884C17.8945 4.35007 17.9121 9.05916 15.0361 11.9921M9.67985 11.9921V6.74213M4.42985 16.4921H14.9299C15.6288 16.4921 15.9782 16.4921 16.2539 16.3779C16.6214 16.2257 16.9134 15.9337 17.0657 15.5662C17.1799 15.2905 17.1799 14.941 17.1799 14.2421C17.1799 13.5432 17.1799 13.1938 17.0657 12.9181C16.9134 12.5506 16.6214 12.2585 16.2539 12.1063C15.9782 11.9921 15.6288 11.9921 14.9299 11.9921H4.42985C3.73094 11.9921 3.38149 11.9921 3.10583 12.1063C2.73829 12.2585 2.44628 12.5506 2.29403 12.9181C2.17985 13.1938 2.17985 13.5432 2.17985 14.2421C2.17985 14.941 2.17985 15.2905 2.29403 15.5662C2.44628 15.9337 2.73829 16.2257 3.10583 16.3779C3.38149 16.4921 3.73094 16.4921 4.42985 16.4921Z" stroke="#98A2B3" stroke-width="1.5" stroke-linecap="round" stroke-linejoin="round"/>
</g>
<defs>
<clipPath id="clip0_1_9727">
<rect width="18" height="18" fill="white" transform="translate(0.679688 -0.0078125)"/>
</clipPath>
</defs>
</svg>
