<svg width="19" height="18" viewBox="0 0 19 18" fill="none" xmlns="http://www.w3.org/2000/svg">
<path d="M11.9419 12.7422V15.7422H7.44189V12.7422M4.5919 12.7422H14.7919C15.632 12.7422 16.052 12.7422 16.3729 12.5787C16.6551 12.4349 16.8846 12.2054 17.0284 11.9232C17.1919 11.6023 17.1919 11.1823 17.1919 10.3422V4.64219C17.1919 3.80211 17.1919 3.38207 17.0284 3.0612C16.8846 2.77896 16.6551 2.54949 16.3729 2.40568C16.052 2.24219 15.632 2.24219 14.7919 2.24219H4.59189C3.75182 2.24219 3.33178 2.24219 3.01091 2.40568C2.72867 2.54949 2.49919 2.77896 2.35538 3.0612C2.19189 3.38207 2.19189 3.80211 2.19189 4.64219V10.3422C2.19189 11.1823 2.19189 11.6023 2.35538 11.9232C2.49919 12.2054 2.72867 12.4349 3.01091 12.5787C3.33178 12.7422 3.75182 12.7422 4.5919 12.7422Z" stroke="#98A2B3" stroke-width="1.5" stroke-linecap="round" stroke-linejoin="round"/>
</svg>
