<svg width="19" height="18" viewBox="0 0 19 18" fill="none" xmlns="http://www.w3.org/2000/svg">
<path d="M6.36636 15.7422C7.36746 15.262 8.49498 14.9922 9.6875 14.9922C10.88 14.9922 12.0075 15.262 13.0086 15.7422M5.7875 12.7422H13.5875C14.8476 12.7422 15.4777 12.7422 15.959 12.497C16.3823 12.2812 16.7266 11.937 16.9423 11.5137C17.1875 11.0324 17.1875 10.4023 17.1875 9.14219V5.84219C17.1875 4.58207 17.1875 3.95201 16.9423 3.47071C16.7266 3.04734 16.3823 2.70314 15.959 2.48742C15.4777 2.24219 14.8476 2.24219 13.5875 2.24219H5.7875C4.52738 2.24219 3.89732 2.24219 3.41602 2.48742C2.99266 2.70314 2.64845 3.04734 2.43274 3.47071C2.1875 3.95201 2.1875 4.58207 2.1875 5.84219V9.14219C2.1875 10.4023 2.1875 11.0324 2.43274 11.5137C2.64845 11.937 2.99266 12.2812 3.41602 12.497C3.89732 12.7422 4.52738 12.7422 5.7875 12.7422Z" stroke="#98A2B3" stroke-width="1.5" stroke-linecap="round" stroke-linejoin="round"/>
</svg>
