<svg width="19" height="18" viewBox="0 0 19 18" fill="none" xmlns="http://www.w3.org/2000/svg">
<g clip-path="url(#clip0_1_9731)">
<path d="M6.18604 15.7422H12.186M9.18604 12.7422V15.7422M5.28604 12.7422H13.086C14.3462 12.7422 14.9762 12.7422 15.4575 12.497C15.8809 12.2812 16.2251 11.937 16.4408 11.5137C16.686 11.0324 16.686 10.4023 16.686 9.14219V5.84219C16.686 4.58207 16.686 3.95201 16.4408 3.47071C16.2251 3.04734 15.8809 2.70314 15.4575 2.48742C14.9762 2.24219 14.3462 2.24219 13.086 2.24219H5.28604C4.02592 2.24219 3.39586 2.24219 2.91456 2.48742C2.49119 2.70314 2.14699 3.04734 1.93127 3.47071C1.68604 3.95201 1.68604 4.58207 1.68604 5.84219V9.14219C1.68604 10.4023 1.68604 11.0324 1.93127 11.5137C2.14699 11.937 2.49119 12.2812 2.91456 12.497C3.39586 12.7422 4.02592 12.7422 5.28604 12.7422Z" stroke="#98A2B3" stroke-width="1.5" stroke-linecap="round" stroke-linejoin="round"/>
</g>
<defs>
<clipPath id="clip0_1_9731">
<rect width="18" height="18" fill="white" transform="translate(0.186035 -0.0078125)"/>
</clipPath>
</defs>
</svg>
