<svg width="19" height="18" viewBox="0 0 19 18" fill="none" xmlns="http://www.w3.org/2000/svg">
<g clip-path="url(#clip0_1_9739)">
<path d="M4.31836 14.9922H6.19336M12.9434 6.74219H12.9509M6.19336 4.49219H4.09336C3.25328 4.49219 2.83324 4.49219 2.51237 4.65568C2.23013 4.79949 2.00066 5.02896 1.85685 5.3112C1.69336 5.63207 1.69336 6.05211 1.69336 6.89219V9.59219C1.69336 10.4323 1.69336 10.8523 1.85685 11.1732C2.00066 11.4554 2.23013 11.6849 2.51237 11.8287C2.83324 11.9922 3.25328 11.9922 4.09336 11.9922H6.19336M11.5934 14.9922H14.2934C15.1334 14.9922 15.5535 14.9922 15.8743 14.8287C16.1566 14.6849 16.3861 14.4554 16.5299 14.1732C16.6934 13.8523 16.6934 13.4323 16.6934 12.5922V5.39219C16.6934 4.55211 16.6934 4.13207 16.5299 3.8112C16.3861 3.52896 16.1566 3.29949 15.8743 3.15568C15.5535 2.99219 15.1334 2.99219 14.2934 2.99219H11.5934C10.7533 2.99219 10.3332 2.99219 10.0124 3.15568C9.73013 3.29949 9.50066 3.52896 9.35685 3.8112C9.19336 4.13207 9.19336 4.55211 9.19336 5.39219V12.5922C9.19336 13.4323 9.19336 13.8523 9.35685 14.1732C9.50066 14.4554 9.73013 14.6849 10.0124 14.8287C10.3332 14.9922 10.7533 14.9922 11.5934 14.9922ZM13.6934 11.2422C13.6934 11.6564 13.3576 11.9922 12.9434 11.9922C12.5291 11.9922 12.1934 11.6564 12.1934 11.2422C12.1934 10.828 12.5291 10.4922 12.9434 10.4922C13.3576 10.4922 13.6934 10.828 13.6934 11.2422Z" stroke="#98A2B3" stroke-width="1.5" stroke-linecap="round" stroke-linejoin="round"/>
</g>
<defs>
<clipPath id="clip0_1_9739">
<rect width="18" height="18" fill="white" transform="translate(0.193359 -0.0078125)"/>
</clipPath>
</defs>
</svg>
