<svg width="19" height="18" viewBox="0 0 19 18" fill="none" xmlns="http://www.w3.org/2000/svg">
<g clip-path="url(#clip0_1_9735)">
<path d="M1.68945 10.4922L16.6895 10.4922M6.18945 15.7422H12.1895M5.28945 13.4922H13.0895C14.3496 13.4922 14.9796 13.4922 15.4609 13.247C15.8843 13.0312 16.2285 12.687 16.4442 12.2637C16.6895 11.7824 16.6895 11.1523 16.6895 9.89219V5.84219C16.6895 4.58207 16.6895 3.95201 16.4442 3.47071C16.2285 3.04734 15.8843 2.70314 15.4609 2.48742C14.9796 2.24219 14.3496 2.24219 13.0895 2.24219H5.28945C4.02934 2.24219 3.39928 2.24219 2.91797 2.48742C2.49461 2.70314 2.1504 3.04734 1.93469 3.47071C1.68945 3.95201 1.68945 4.58207 1.68945 5.84219V9.89219C1.68945 11.1523 1.68945 11.7824 1.93469 12.2637C2.1504 12.687 2.49461 13.0312 2.91797 13.247C3.39928 13.4922 4.02934 13.4922 5.28945 13.4922Z" stroke="#98A2B3" stroke-width="1.5" stroke-linecap="round" stroke-linejoin="round"/>
</g>
<defs>
<clipPath id="clip0_1_9735">
<rect width="18" height="18" fill="white" transform="translate(0.189453 -0.0078125)"/>
</clipPath>
</defs>
</svg>
