<svg width="19" height="18" viewBox="0 0 19 18" fill="none" xmlns="http://www.w3.org/2000/svg">
<path d="M16.445 9.58469C16.327 10.8613 15.8479 12.078 15.0637 13.0923C14.2795 14.1066 13.2226 14.8765 12.0168 15.3121C10.8109 15.7477 9.50598 15.8308 8.25462 15.5518C7.00326 15.2727 5.85724 14.6431 4.95066 13.7365C4.04409 12.8299 3.41445 11.6839 3.13543 10.4326C2.8564 9.1812 2.93953 7.87625 3.37509 6.67041C3.81065 5.46457 4.58062 4.40771 5.5949 3.6235C6.60919 2.83929 7.82584 2.36017 9.1025 2.24219C8.35505 3.25339 7.99538 4.49927 8.08889 5.75325C8.18241 7.00722 8.72289 8.18598 9.61205 9.07514C10.5012 9.96429 11.68 10.5048 12.9339 10.5983C14.1879 10.6918 15.4338 10.3321 16.445 9.58469Z" stroke="#98A2B3" stroke-width="1.5" stroke-linecap="round" stroke-linejoin="round"/>
</svg>
