<svg width="19" height="18" viewBox="0 0 19 18" fill="none" xmlns="http://www.w3.org/2000/svg">
<g clip-path="url(#clip0_1_10549)">
<path d="M14.2036 1.49219L14.667 2.41887C14.8661 2.81711 14.9656 3.01623 15.0986 3.18877C15.2167 3.34188 15.3539 3.47914 15.507 3.59716C15.6796 3.73017 15.8787 3.82973 16.2769 4.02884L17.2036 4.49219L16.2769 4.95553C15.8787 5.15465 15.6796 5.25421 15.507 5.38721C15.3539 5.50523 15.2167 5.64249 15.0986 5.7956C14.9656 5.96815 14.8661 6.16727 14.667 6.5655L14.2036 7.49219L13.7403 6.5655C13.5412 6.16727 13.4416 5.96815 13.3086 5.7956C13.1906 5.64249 13.0533 5.50523 12.9002 5.38721C12.7277 5.25421 12.5285 5.15465 12.1303 4.95553L11.2036 4.49219L12.1303 4.02884C12.5285 3.82973 12.7277 3.73017 12.9002 3.59716C13.0533 3.47914 13.1906 3.34188 13.3086 3.18877C13.4416 3.01623 13.5412 2.81711 13.7403 2.41887L14.2036 1.49219Z" stroke="#98A2B3" stroke-width="1.5" stroke-linecap="round" stroke-linejoin="round"/>
<path d="M16.4536 10.0342C15.4703 11.7589 13.6145 12.9218 11.4871 12.9218C8.33193 12.9218 5.77418 10.3641 5.77418 7.20894C5.77418 5.08134 6.93723 3.22539 8.66224 2.24219C5.03846 2.58578 2.20361 5.63738 2.20361 9.35109C2.20361 13.295 5.4008 16.4922 9.34474 16.4922C13.0583 16.4922 16.1098 13.6577 16.4536 10.0342Z" stroke="#98A2B3" stroke-width="1.5" stroke-linecap="round" stroke-linejoin="round"/>
</g>
<defs>
<clipPath id="clip0_1_10549">
<rect width="18" height="18" fill="white" transform="translate(0.703613 -0.0078125)"/>
</clipPath>
</defs>
</svg>
