<svg width="19" height="18" viewBox="0 0 19 18" fill="none" xmlns="http://www.w3.org/2000/svg">
<g clip-path="url(#clip0_1_10547)">
<path d="M15.2025 4.49235C17.2012 7.15098 17.2007 10.8355 15.2012 13.4937M9.20117 16.4922C10.3795 16.4922 11.4943 16.2205 12.4864 15.7363C12.3918 15.7402 12.2967 15.7422 12.2012 15.7422C8.47325 15.7422 5.45117 12.7201 5.45117 8.99219C5.45117 5.26427 8.47325 2.24219 12.2012 2.24219C12.2967 2.24219 12.3918 2.24417 12.4864 2.24811C11.4943 1.76391 10.3795 1.49219 9.20117 1.49219C5.05904 1.49219 1.70117 4.85005 1.70117 8.99219C1.70117 13.1343 5.05904 16.4922 9.20117 16.4922Z" stroke="#98A2B3" stroke-width="1.5" stroke-linecap="round" stroke-linejoin="round"/>
</g>
<defs>
<clipPath id="clip0_1_10547">
<rect width="18" height="18" fill="white" transform="translate(0.201172 -0.0078125)"/>
</clipPath>
</defs>
</svg>
