<svg width="19" height="18" viewBox="0 0 19 18" fill="none" xmlns="http://www.w3.org/2000/svg">
<path d="M9.20508 9.74219C9.61929 9.74219 9.95508 9.4064 9.95508 8.99219C9.95508 8.57797 9.61929 8.24219 9.20508 8.24219C8.79086 8.24219 8.45508 8.57797 8.45508 8.99219C8.45508 9.4064 8.79086 9.74219 9.20508 9.74219Z" stroke="#98A2B3" stroke-width="1.5" stroke-linecap="round" stroke-linejoin="round"/>
<path d="M14.4551 9.74219C14.8693 9.74219 15.2051 9.4064 15.2051 8.99219C15.2051 8.57797 14.8693 8.24219 14.4551 8.24219C14.0409 8.24219 13.7051 8.57797 13.7051 8.99219C13.7051 9.4064 14.0409 9.74219 14.4551 9.74219Z" stroke="#98A2B3" stroke-width="1.5" stroke-linecap="round" stroke-linejoin="round"/>
<path d="M3.95508 9.74219C4.36929 9.74219 4.70508 9.4064 4.70508 8.99219C4.70508 8.57797 4.36929 8.24219 3.95508 8.24219C3.54086 8.24219 3.20508 8.57797 3.20508 8.99219C3.20508 9.4064 3.54086 9.74219 3.95508 9.74219Z" stroke="#98A2B3" stroke-width="1.5" stroke-linecap="round" stroke-linejoin="round"/>
</svg>
