<svg width="19" height="18" viewBox="0 0 19 18" fill="none" xmlns="http://www.w3.org/2000/svg">
<path d="M9.70752 9.74219C10.1217 9.74219 10.4575 9.4064 10.4575 8.99219C10.4575 8.57797 10.1217 8.24219 9.70752 8.24219C9.29331 8.24219 8.95752 8.57797 8.95752 8.99219C8.95752 9.4064 9.29331 9.74219 9.70752 9.74219Z" stroke="#98A2B3" stroke-width="1.5" stroke-linecap="round" stroke-linejoin="round"/>
<path d="M9.70752 4.49219C10.1217 4.49219 10.4575 4.1564 10.4575 3.74219C10.4575 3.32797 10.1217 2.99219 9.70752 2.99219C9.29331 2.99219 8.95752 3.32797 8.95752 3.74219C8.95752 4.1564 9.29331 4.49219 9.70752 4.49219Z" stroke="#98A2B3" stroke-width="1.5" stroke-linecap="round" stroke-linejoin="round"/>
<path d="M9.70752 14.9922C10.1217 14.9922 10.4575 14.6564 10.4575 14.2422C10.4575 13.828 10.1217 13.4922 9.70752 13.4922C9.29331 13.4922 8.95752 13.828 8.95752 14.2422C8.95752 14.6564 9.29331 14.9922 9.70752 14.9922Z" stroke="#98A2B3" stroke-width="1.5" stroke-linecap="round" stroke-linejoin="round"/>
</svg>
