<svg width="19" height="18" viewBox="0 0 19 18" fill="none" xmlns="http://www.w3.org/2000/svg">
<path d="M7.46924 13.4922V4.75871C7.46924 4.39756 7.46924 4.21698 7.53494 4.07053C7.59286 3.94142 7.68611 3.83134 7.80394 3.75299C7.9376 3.6641 8.11572 3.63441 8.47196 3.57504L15.072 2.47504C15.5527 2.39492 15.7931 2.35486 15.9804 2.42444C16.1448 2.48549 16.2826 2.60222 16.3698 2.75434C16.4692 2.92767 16.4692 3.17135 16.4692 3.65871V11.9922M7.46924 13.4922C7.46924 14.7348 6.46188 15.7422 5.21924 15.7422C3.9766 15.7422 2.96924 14.7348 2.96924 13.4922C2.96924 12.2495 3.9766 11.2422 5.21924 11.2422C6.46188 11.2422 7.46924 12.2495 7.46924 13.4922ZM16.4692 11.9922C16.4692 13.2348 15.4619 14.2422 14.2192 14.2422C12.9766 14.2422 11.9692 13.2348 11.9692 11.9922C11.9692 10.7495 12.9766 9.74216 14.2192 9.74216C15.4619 9.74216 16.4692 10.7495 16.4692 11.9922Z" stroke="#98A2B3" stroke-width="1.5" stroke-linecap="round" stroke-linejoin="round"/>
</svg>
