<svg width="19" height="18" viewBox="0 0 19 18" fill="none" xmlns="http://www.w3.org/2000/svg">
<path d="M6.96729 13.4922V3.74219L15.9673 2.24219V11.9922M6.96729 13.4922C6.96729 14.7348 5.95993 15.7422 4.71729 15.7422C3.47464 15.7422 2.46729 14.7348 2.46729 13.4922C2.46729 12.2495 3.47464 11.2422 4.71729 11.2422C5.95993 11.2422 6.96729 12.2495 6.96729 13.4922ZM15.9673 11.9922C15.9673 13.2348 14.9599 14.2422 13.7173 14.2422C12.4746 14.2422 11.4673 13.2348 11.4673 11.9922C11.4673 10.7495 12.4746 9.74219 13.7173 9.74219C14.9599 9.74219 15.9673 10.7495 15.9673 11.9922Z" stroke="#98A2B3" stroke-width="1.5" stroke-linecap="round" stroke-linejoin="round"/>
</svg>
