<svg width="19" height="18" viewBox="0 0 19 18" fill="none" xmlns="http://www.w3.org/2000/svg">
<g clip-path="url(#clip0_1_10469)">
<path d="M8.58878 4.09902L9.18265 2.74501C9.35635 2.34896 9.44321 2.15093 9.56464 2.09032C9.67009 2.03768 9.79415 2.03768 9.8996 2.09032C10.021 2.15093 10.1079 2.34896 10.2816 2.74502L12.6608 8.16965M7.44536 6.70584L3.72153 15.1962C3.5291 15.6349 3.43289 15.8543 3.47542 15.9888C3.51229 16.1054 3.60369 16.1967 3.72033 16.2334C3.85488 16.2758 4.07414 16.1793 4.51265 15.9864L9.49039 13.7961C9.5794 13.757 9.62391 13.7374 9.67014 13.7297C9.71112 13.7228 9.75295 13.7228 9.79392 13.7297C9.84015 13.7374 9.88466 13.757 9.97367 13.7961L14.9514 15.9864C15.3899 16.1793 15.6092 16.2758 15.7437 16.2334C15.8604 16.1967 15.9518 16.1054 15.9886 15.9888C16.0312 15.8543 15.935 15.6349 15.7425 15.1962L15.5894 14.8471M17.2354 16.4922L2.23535 1.49219" stroke="#98A2B3" stroke-width="1.5" stroke-linecap="round" stroke-linejoin="round"/>
</g>
<defs>
<clipPath id="clip0_1_10469">
<rect width="18" height="18" fill="white" transform="translate(0.735352 -0.0078125)"/>
</clipPath>
</defs>
</svg>
