<svg width="19" height="18" viewBox="0 0 19 18" fill="none" xmlns="http://www.w3.org/2000/svg">
<path d="M4.5081 15.9862C4.06959 16.1791 3.85033 16.2756 3.71578 16.2332C3.59915 16.1965 3.50774 16.1052 3.47087 15.9886C3.42834 15.8541 3.52456 15.6347 3.71699 15.196L9.17801 2.74483C9.35172 2.34878 9.43858 2.15075 9.56 2.09014C9.66545 2.0375 9.78952 2.0375 9.89497 2.09014C10.0164 2.15075 10.1033 2.34878 10.277 2.74484L15.738 15.196C15.9304 15.6347 16.0266 15.8541 15.9841 15.9886C15.9472 16.1052 15.8558 16.1965 15.7392 16.2332C15.6046 16.2756 15.3854 16.1791 14.9469 15.9862L9.96913 13.796C9.88012 13.7568 9.83561 13.7372 9.78938 13.7295C9.7484 13.7226 9.70657 13.7226 9.6656 13.7295C9.61936 13.7372 9.57486 13.7568 9.48584 13.796L4.5081 15.9862Z" stroke="#98A2B3" stroke-width="1.5" stroke-linecap="round" stroke-linejoin="round"/>
</svg>
