<svg width="19" height="18" viewBox="0 0 19 18" fill="none" xmlns="http://www.w3.org/2000/svg">
<path d="M8.73566 4.61305L15.4582 1.98964C15.861 1.83242 16.0625 1.75381 16.1912 1.79681C16.303 1.83415 16.3907 1.92188 16.4281 2.03367C16.4711 2.16239 16.3925 2.36383 16.2352 2.76672L13.6034 9.5107M12.5222 12.2815L11.2925 15.4325C11.1183 15.8788 11.0312 16.102 10.906 16.167C10.7975 16.2234 10.6683 16.2233 10.5599 16.1668C10.4348 16.1016 10.348 15.8784 10.1743 15.4319L8.20324 10.3634C8.16799 10.2727 8.15037 10.2274 8.12315 10.1893C8.09902 10.1554 8.06944 10.1258 8.03562 10.1017C7.99746 10.0745 7.95214 10.0569 7.8615 10.0216L2.793 8.05055C2.34649 7.87691 2.12324 7.79008 2.05806 7.66498C2.00155 7.55653 2.00148 7.42735 2.05785 7.31883C2.12289 7.19365 2.34604 7.10657 2.79234 6.9324L5.94602 5.70169M15.9826 15.7423L2.48255 2.24232" stroke="#98A2B3" stroke-width="1.5" stroke-linecap="round" stroke-linejoin="round"/>
</svg>
