<svg width="19" height="18" viewBox="0 0 19 18" fill="none" xmlns="http://www.w3.org/2000/svg">
<path d="M2.78909 8.05055C2.34258 7.87691 2.11933 7.79008 2.05415 7.66498C1.99765 7.55653 1.99757 7.42735 2.05395 7.31883C2.11898 7.19365 2.34213 7.10657 2.78844 6.9324L15.4543 1.98964C15.8571 1.83242 16.0586 1.75381 16.1873 1.79681C16.2991 1.83415 16.3868 1.92188 16.4242 2.03367C16.4672 2.16239 16.3885 2.36383 16.2313 2.76672L11.2886 15.4325C11.1144 15.8788 11.0273 16.102 10.9021 16.167C10.7936 16.2234 10.6644 16.2233 10.556 16.1668C10.4309 16.1016 10.3441 15.8784 10.1704 15.4319L8.19933 10.3634C8.16408 10.2727 8.14646 10.2274 8.11924 10.1893C8.09511 10.1554 8.06554 10.1258 8.03171 10.1017C7.99355 10.0745 7.94823 10.0569 7.8576 10.0216L2.78909 8.05055Z" stroke="#98A2B3" stroke-width="1.5" stroke-linecap="round" stroke-linejoin="round"/>
</svg>
