<svg width="19" height="18" viewBox="0 0 19 18" fill="none" xmlns="http://www.w3.org/2000/svg">
<path d="M8.49121 2.99219H6.09121C4.83109 2.99219 4.20103 2.99219 3.71973 3.23742C3.29637 3.45314 2.95216 3.79734 2.73645 4.22071C2.49121 4.70201 2.49121 5.33207 2.49121 6.59219V12.1422C2.49121 13.4023 2.49121 14.0324 2.73645 14.5137C2.95216 14.937 3.29637 15.2812 3.71973 15.497C4.20103 15.7422 4.83109 15.7422 6.09121 15.7422H11.6412C12.9013 15.7422 13.5314 15.7422 14.0127 15.497C14.4361 15.2812 14.7803 14.937 14.996 14.5137C15.2412 14.0324 15.2412 13.4023 15.2412 12.1422V9.74219M9.99121 12.7422H5.49121M11.4912 9.74219H5.49121M15.3322 2.9012C16.2109 3.77988 16.2109 5.2045 15.3322 6.08318C14.4535 6.96186 13.0289 6.96186 12.1502 6.08318C11.2715 5.2045 11.2715 3.77988 12.1502 2.9012C13.0289 2.02252 14.4535 2.02252 15.3322 2.9012Z" stroke="#98A2B3" stroke-width="1.5" stroke-linecap="round" stroke-linejoin="round"/>
</svg>
