<svg width="19" height="18" viewBox="0 0 19 18" fill="none" xmlns="http://www.w3.org/2000/svg">
<path d="M8.48731 2.99219H6.08731C4.82719 2.99219 4.19713 2.99219 3.71583 3.23742C3.29246 3.45314 2.94826 3.79734 2.73254 4.22071C2.4873 4.70201 2.4873 5.33207 2.4873 6.59219V12.1422C2.4873 13.4023 2.4873 14.0324 2.73254 14.5137C2.94826 14.937 3.29246 15.2812 3.71583 15.497C4.19713 15.7422 4.82719 15.7422 6.08731 15.7422H11.6373C12.8974 15.7422 13.5275 15.7422 14.0088 15.497C14.4321 15.2812 14.7764 14.937 14.9921 14.5137C15.2373 14.0324 15.2373 13.4023 15.2373 12.1422V9.74219M15.3283 2.9012C16.207 3.77988 16.207 5.2045 15.3283 6.08318C14.4496 6.96186 13.025 6.96186 12.1463 6.08318C11.2676 5.2045 11.2676 3.77988 12.1463 2.9012C13.025 2.02252 14.4496 2.02252 15.3283 2.9012Z" stroke="#98A2B3" stroke-width="1.5" stroke-linecap="round" stroke-linejoin="round"/>
</svg>
