<svg width="19" height="18" viewBox="0 0 19 18" fill="none" xmlns="http://www.w3.org/2000/svg">
<path d="M8.98828 2.99219H6.58828C5.32816 2.99219 4.6981 2.99219 4.2168 3.23742C3.79344 3.45314 3.44923 3.79734 3.23352 4.22071C2.98828 4.70201 2.98828 5.33207 2.98828 6.59219V10.4922C2.98828 11.1897 2.98828 11.5384 3.06495 11.8245C3.273 12.601 3.87948 13.2075 4.65594 13.4155C4.94206 13.4922 5.2908 13.4922 5.98828 13.4922V15.2438C5.98828 15.6435 5.98828 15.8433 6.0702 15.9459C6.14145 16.0352 6.24948 16.0871 6.36369 16.087C6.495 16.0868 6.65103 15.962 6.9631 15.7123L8.75219 14.2811C9.11767 13.9887 9.30041 13.8425 9.5039 13.7385C9.68443 13.6463 9.8766 13.5789 10.0752 13.5381C10.299 13.4922 10.5331 13.4922 11.0011 13.4922H12.1383C13.3984 13.4922 14.0285 13.4922 14.5098 13.247C14.9331 13.0312 15.2773 12.687 15.493 12.2637C15.7383 11.7824 15.7383 11.1523 15.7383 9.89219V9.74219M15.8293 2.9012C16.708 3.77988 16.708 5.2045 15.8293 6.08318C14.9506 6.96186 13.526 6.96186 12.6473 6.08318C11.7686 5.2045 11.7686 3.77988 12.6473 2.9012C13.526 2.02252 14.9506 2.02252 15.8293 2.9012Z" stroke="#98A2B3" stroke-width="1.5" stroke-linecap="round" stroke-linejoin="round"/>
</svg>
