<svg width="19" height="18" viewBox="0 0 19 18" fill="none" xmlns="http://www.w3.org/2000/svg">
<g clip-path="url(#clip0_1_9545)">
<path d="M5.78865 1.84366C5.91836 1.71395 5.98322 1.64909 6.0589 1.60271C6.12601 1.56159 6.19917 1.53128 6.27569 1.51291C6.36201 1.49219 6.45373 1.49219 6.63717 1.49219H11.8531C12.0365 1.49219 12.1282 1.49219 12.2145 1.51291C12.2911 1.53128 12.3642 1.56159 12.4313 1.60271C12.507 1.64909 12.5719 1.71395 12.7016 1.84366L16.3936 5.53572C16.5234 5.66543 16.5882 5.73029 16.6346 5.80597C16.6757 5.87308 16.706 5.94624 16.7244 6.02276C16.7451 6.10908 16.7451 6.2008 16.7451 6.38424V11.6001C16.7451 11.7836 16.7451 11.8753 16.7244 11.9616C16.706 12.0381 16.6757 12.1113 16.6346 12.1784C16.5882 12.2541 16.5234 12.3189 16.3936 12.4487L12.7016 16.1407C12.5719 16.2704 12.507 16.3353 12.4313 16.3817C12.3642 16.4228 12.2911 16.4531 12.2145 16.4715C12.1282 16.4922 12.0365 16.4922 11.8531 16.4922H6.63717C6.45373 16.4922 6.36201 16.4922 6.27569 16.4715C6.19917 16.4531 6.12601 16.4228 6.0589 16.3817C5.98322 16.3353 5.91836 16.2704 5.78865 16.1407L2.09659 12.4487C1.96688 12.3189 1.90202 12.2541 1.85564 12.1784C1.81452 12.1113 1.78421 12.0381 1.76584 11.9616C1.74512 11.8753 1.74512 11.7836 1.74512 11.6001V6.38424C1.74512 6.2008 1.74512 6.10908 1.76584 6.02276C1.78421 5.94624 1.81452 5.87308 1.85564 5.80597C1.90202 5.73029 1.96688 5.66543 2.09659 5.53572L5.78865 1.84366Z" stroke="#98A2B3" stroke-width="1.5" stroke-linecap="round" stroke-linejoin="round"/>
</g>
<defs>
<clipPath id="clip0_1_9545">
<rect width="18" height="18" fill="white" transform="translate(0.245117 -0.0078125)"/>
</clipPath>
</defs>
</svg>
