<svg width="19" height="18" viewBox="0 0 19 18" fill="none" xmlns="http://www.w3.org/2000/svg">
<g clip-path="url(#clip0_1_10967)">
<path d="M13.1221 7.04224L6.37207 3.14974M3.19957 5.21224L9.74707 8.99974L16.2946 5.21224M9.74707 16.5522V8.99224M16.4971 11.9922V5.99224C16.4968 5.72919 16.4274 5.47084 16.2957 5.24311C16.1641 5.01537 15.9749 4.82626 15.7471 4.69474L10.4971 1.69474C10.269 1.56308 10.0104 1.49377 9.74707 1.49377C9.48377 1.49377 9.2251 1.56308 8.99707 1.69474L3.74707 4.69474C3.51927 4.82626 3.33006 5.01537 3.19842 5.24311C3.06678 5.47084 2.99734 5.72919 2.99707 5.99224V11.9922C2.99734 12.2553 3.06678 12.5136 3.19842 12.7414C3.33006 12.9691 3.51927 13.1582 3.74707 13.2897L8.99707 16.2897C9.2251 16.4214 9.48377 16.4907 9.74707 16.4907C10.0104 16.4907 10.269 16.4214 10.4971 16.2897L15.7471 13.2897C15.9749 13.1582 16.1641 12.9691 16.2957 12.7414C16.4274 12.5136 16.4968 12.2553 16.4971 11.9922Z" stroke="#98A2B3" stroke-width="1.5" stroke-linecap="round" stroke-linejoin="round"/>
</g>
<defs>
<clipPath id="clip0_1_10967">
<rect width="18" height="18" fill="white" transform="translate(0.74707 -0.0078125)"/>
</clipPath>
</defs>
</svg>
