<svg width="19" height="18" viewBox="0 0 19 18" fill="none" xmlns="http://www.w3.org/2000/svg">
<g clip-path="url(#clip0_1_8711)">
<path d="M15.6279 5.45056L9.25291 8.99223M9.25291 8.99223L2.87791 5.45056M9.25291 8.99223L9.25293 16.1173M10.7529 15.6589L9.8357 16.1685C9.623 16.2867 9.51665 16.3457 9.40402 16.3689C9.30434 16.3894 9.20153 16.3894 9.10184 16.3689C8.98921 16.3457 8.88286 16.2867 8.67016 16.1685L3.12016 13.0852C2.89552 12.9604 2.78319 12.898 2.7014 12.8092C2.62905 12.7307 2.57429 12.6376 2.54079 12.5362C2.50293 12.4216 2.50293 12.2932 2.50293 12.0362V5.94834C2.50293 5.69135 2.50293 5.56286 2.54079 5.44826C2.57429 5.34688 2.62905 5.25382 2.7014 5.1753C2.78319 5.08655 2.89552 5.02415 3.12016 4.89935L8.67016 1.81601C8.88286 1.69785 8.98922 1.63876 9.10184 1.6156C9.20153 1.59509 9.30434 1.59509 9.40402 1.6156C9.51665 1.63876 9.623 1.69784 9.8357 1.81601L15.3857 4.89935C15.6103 5.02415 15.7227 5.08655 15.8045 5.1753C15.8768 5.25382 15.9316 5.34688 15.9651 5.44826C16.0029 5.56286 16.0029 5.69135 16.0029 5.94834V9.74225M5.87793 3.36725L12.6279 7.11725M12.2529 13.4923H16.7529" stroke="#98A2B3" stroke-width="1.5" stroke-linecap="round" stroke-linejoin="round"/>
</g>
<defs>
<clipPath id="clip0_1_8711">
<rect width="18" height="18" fill="white" transform="translate(0.25293 -0.0078125)"/>
</clipPath>
</defs>
</svg>
