<svg width="19" height="18" viewBox="0 0 19 18" fill="none" xmlns="http://www.w3.org/2000/svg">
<g clip-path="url(#clip0_1_8717)">
<path d="M15.6318 5.45056L9.25681 8.99223M9.25681 8.99223L2.88181 5.45056M9.25681 8.99223L9.25684 16.1173M16.0068 8.99225V5.94834C16.0068 5.69135 16.0068 5.56286 15.969 5.44826C15.9355 5.34688 15.8807 5.25382 15.8084 5.1753C15.7266 5.08655 15.6143 5.02415 15.3896 4.89935L9.83961 1.81601C9.62691 1.69784 9.52055 1.63876 9.40793 1.6156C9.30824 1.59509 9.20543 1.59509 9.10575 1.6156C8.99312 1.63876 8.88676 1.69785 8.67407 1.81601L3.12406 4.89935C2.89942 5.02415 2.7871 5.08655 2.70531 5.1753C2.63295 5.25382 2.5782 5.34688 2.5447 5.44826C2.50684 5.56286 2.50684 5.69135 2.50684 5.94834V12.0362C2.50684 12.2932 2.50684 12.4216 2.5447 12.5362C2.5782 12.6376 2.63295 12.7307 2.70531 12.8092C2.7871 12.898 2.89943 12.9604 3.12407 13.0852L8.67407 16.1685C8.88677 16.2867 8.99312 16.3457 9.10575 16.3689C9.20543 16.3894 9.30824 16.3894 9.40793 16.3689C9.52055 16.3457 9.62691 16.2867 9.83961 16.1685L10.0068 16.0756M5.88184 3.36725L12.6318 7.11725M16.7568 16.1173L16.0068 15.3673M16.7568 13.4923C16.7568 14.7349 15.7495 15.7423 14.5068 15.7423C13.2642 15.7423 12.2568 14.7349 12.2568 13.4923C12.2568 12.2496 13.2642 11.2423 14.5068 11.2423C15.7495 11.2423 16.7568 12.2496 16.7568 13.4923Z" stroke="#98A2B3" stroke-width="1.5" stroke-linecap="round" stroke-linejoin="round"/>
</g>
<defs>
<clipPath id="clip0_1_8717">
<rect width="18" height="18" fill="white" transform="translate(0.256836 -0.0078125)"/>
</clipPath>
</defs>
</svg>
