<svg width="19" height="18" viewBox="0 0 19 18" fill="none" xmlns="http://www.w3.org/2000/svg">
<g clip-path="url(#clip0_1_8708)">
<path d="M15.624 5.45056L9.249 8.99223M9.249 8.99223L2.874 5.45056M9.249 8.99223L9.24902 16.1173M15.999 12.0362V5.94834C15.999 5.69135 15.999 5.56286 15.9612 5.44826C15.9277 5.34688 15.8729 5.25382 15.8006 5.1753C15.7188 5.08655 15.6064 5.02415 15.3818 4.89935L9.8318 1.81601C9.61909 1.69784 9.51274 1.63876 9.40011 1.6156C9.30043 1.59509 9.19762 1.59509 9.09794 1.6156C8.98531 1.63876 8.87896 1.69784 8.66625 1.81601L3.11625 4.89935C2.89161 5.02415 2.77929 5.08655 2.6975 5.1753C2.62514 5.25382 2.57038 5.34688 2.53689 5.44826C2.49902 5.56286 2.49902 5.69135 2.49902 5.94834V12.0362C2.49902 12.2932 2.49902 12.4216 2.53689 12.5362C2.57038 12.6376 2.62514 12.7307 2.6975 12.8092C2.77929 12.898 2.89161 12.9604 3.11625 13.0852L8.66625 16.1685C8.87896 16.2867 8.98531 16.3457 9.09794 16.3689C9.19762 16.3894 9.30043 16.3894 9.40011 16.3689C9.51274 16.3457 9.61909 16.2867 9.8318 16.1685L15.3818 13.0852C15.6064 12.9604 15.7188 12.898 15.8006 12.8092C15.8729 12.7307 15.9277 12.6376 15.9612 12.5362C15.999 12.4216 15.999 12.2932 15.999 12.0362Z" stroke="#98A2B3" stroke-width="1.5" stroke-linecap="round" stroke-linejoin="round"/>
<path d="M12.624 7.11719L5.87402 3.36719" stroke="#98A2B3" stroke-width="1.5" stroke-linecap="round" stroke-linejoin="round"/>
</g>
<defs>
<clipPath id="clip0_1_8708">
<rect width="18" height="18" fill="white" transform="translate(0.249023 -0.0078125)"/>
</clipPath>
</defs>
</svg>
