<svg width="19" height="18" viewBox="0 0 19 18" fill="none" xmlns="http://www.w3.org/2000/svg">
<g clip-path="url(#clip0_1_8719)">
<path d="M16.1338 5.45056L9.75877 8.99223M9.75877 8.99223L3.38376 5.45056M9.75877 8.99223L9.75879 16.1173M16.5088 9.36725L16.5088 5.94834C16.5088 5.69135 16.5088 5.56286 16.4709 5.44826C16.4374 5.34688 16.3827 5.25382 16.3103 5.1753C16.2285 5.08655 16.1162 5.02415 15.8916 4.89935L10.3416 1.81601C10.1289 1.69784 10.0225 1.63876 9.90988 1.6156C9.8102 1.59509 9.70739 1.59509 9.6077 1.6156C9.49508 1.63876 9.38872 1.69785 9.17602 1.81601L3.62602 4.89935C3.40138 5.02415 3.28905 5.08655 3.20726 5.1753C3.13491 5.25382 3.08015 5.34688 3.04665 5.44826C3.00879 5.56286 3.00879 5.69135 3.00879 5.94834V12.0362C3.00879 12.2932 3.00879 12.4216 3.04665 12.5362C3.08015 12.6376 3.13491 12.7307 3.20726 12.8092C3.28905 12.898 3.40138 12.9604 3.62602 13.0852L9.17602 16.1685C9.38872 16.2867 9.49507 16.3457 9.6077 16.3689C9.70739 16.3894 9.8102 16.3894 9.90988 16.3689C10.0225 16.3457 10.1289 16.2867 10.3416 16.1685L10.5088 16.0756M6.38379 3.36725L13.1338 7.11725M13.1338 11.9923L16.8838 15.7423M16.8838 11.9923L13.1338 15.7423" stroke="#98A2B3" stroke-width="1.5" stroke-linecap="round" stroke-linejoin="round"/>
</g>
<defs>
<clipPath id="clip0_1_8719">
<rect width="18" height="18" fill="white" transform="translate(0.758789 -0.0078125)"/>
</clipPath>
</defs>
</svg>
