<svg width="19" height="18" viewBox="0 0 19 18" fill="none" xmlns="http://www.w3.org/2000/svg">
<g clip-path="url(#clip0_1_8713)">
<path d="M16.126 5.45056L9.75095 8.99223M9.75095 8.99223L3.37595 5.45056M9.75095 8.99223L9.75098 16.1173M11.251 15.6589L10.3338 16.1685C10.121 16.2867 10.0147 16.3457 9.90207 16.3689C9.80238 16.3894 9.69957 16.3894 9.59989 16.3689C9.48726 16.3457 9.38091 16.2867 9.16821 16.1685L3.61821 13.0852C3.39357 12.9604 3.28124 12.898 3.19945 12.8092C3.12709 12.7307 3.07234 12.6376 3.03884 12.5362C3.00098 12.4216 3.00098 12.2932 3.00098 12.0362V5.94834C3.00098 5.69135 3.00098 5.56286 3.03884 5.44826C3.07234 5.34688 3.12709 5.25382 3.19945 5.1753C3.28124 5.08655 3.39356 5.02415 3.6182 4.89935L9.16821 1.81601C9.38091 1.69785 9.48726 1.63876 9.59989 1.6156C9.69957 1.59509 9.80238 1.59509 9.90207 1.6156C10.0147 1.63876 10.121 1.69784 10.3338 1.81601L15.8838 4.89935C16.1084 5.02415 16.2207 5.08655 16.3025 5.1753C16.3749 5.25382 16.4296 5.34688 16.4631 5.44826C16.501 5.56286 16.501 5.69135 16.501 5.94834L16.501 9.36725M6.37598 3.36725L13.126 7.11725M12.751 13.4923L14.251 14.9923L17.251 11.9923" stroke="#98A2B3" stroke-width="1.5" stroke-linecap="round" stroke-linejoin="round"/>
</g>
<defs>
<clipPath id="clip0_1_8713">
<rect width="18" height="18" fill="white" transform="translate(0.750977 -0.0078125)"/>
</clipPath>
</defs>
</svg>
