<svg width="19" height="18" viewBox="0 0 19 18" fill="none" xmlns="http://www.w3.org/2000/svg">
<g clip-path="url(#clip0_1_8715)">
<path d="M16.1299 5.45056L9.75486 8.99223M9.75486 8.99223L3.37986 5.45056M9.75486 8.99223L9.75488 16.1173M11.2549 15.6589L10.3377 16.1685C10.125 16.2867 10.0186 16.3457 9.90597 16.3689C9.80629 16.3894 9.70348 16.3894 9.6038 16.3689C9.49117 16.3457 9.38482 16.2867 9.17211 16.1685L3.62211 13.0852C3.39748 12.9604 3.28515 12.898 3.20336 12.8092C3.131 12.7307 3.07624 12.6376 3.04275 12.5362C3.00488 12.4216 3.00488 12.2932 3.00488 12.0362V5.94834C3.00488 5.69135 3.00488 5.56286 3.04275 5.44826C3.07624 5.34688 3.131 5.25382 3.20336 5.1753C3.28515 5.08655 3.39747 5.02415 3.62211 4.89935L9.17211 1.81601C9.38481 1.69785 9.49117 1.63876 9.6038 1.6156C9.70348 1.59509 9.80629 1.59509 9.90597 1.6156C10.0186 1.63876 10.125 1.69784 10.3377 1.81601L15.8877 4.89935C16.1123 5.02415 16.2246 5.08655 16.3064 5.1753C16.3788 5.25382 16.4335 5.34688 16.467 5.44826C16.5049 5.56286 16.5049 5.69135 16.5049 5.94834L16.5049 9.36725M6.37988 3.36725L13.1299 7.11725M15.0049 15.7423V11.2423M12.7549 13.4923H17.2549" stroke="#98A2B3" stroke-width="1.5" stroke-linecap="round" stroke-linejoin="round"/>
</g>
<defs>
<clipPath id="clip0_1_8715">
<rect width="18" height="18" fill="white" transform="translate(0.754883 -0.0078125)"/>
</clipPath>
</defs>
</svg>
