<svg width="19" height="18" viewBox="0 0 19 18" fill="none" xmlns="http://www.w3.org/2000/svg">
<g clip-path="url(#clip0_1_10149)">
<path d="M2.5104 9.74219H15.2604M9.2604 2.61719L8.1354 1.49219M8.8854 2.24219L15.5369 8.89366C15.8339 9.19067 15.9824 9.33918 16.038 9.51043C16.087 9.66106 16.087 9.82332 16.038 9.97395C15.9824 10.1452 15.8339 10.2937 15.5369 10.5907L11.431 14.6966C10.5399 15.5876 10.0944 16.0332 9.58069 16.2001C9.12879 16.3469 8.64201 16.3469 8.19011 16.2001C7.67638 16.0332 7.23086 15.5876 6.33982 14.6966L3.93098 12.2878C3.03995 11.3967 2.59443 10.9512 2.42751 10.4375C2.28068 9.98558 2.28068 9.4988 2.42751 9.0469C2.59443 8.53316 3.03995 8.08764 3.93099 7.1966L8.8854 2.24219Z" stroke="#98A2B3" stroke-width="1.5" stroke-linecap="round" stroke-linejoin="round"/>
</g>
<defs>
<clipPath id="clip0_1_10149">
<rect width="18" height="18" fill="white" transform="translate(0.260742 -0.0078125)"/>
</clipPath>
</defs>
</svg>
