<svg width="19" height="18" viewBox="0 0 19 18" fill="none" xmlns="http://www.w3.org/2000/svg">
<g clip-path="url(#clip0_1_10151)">
<path d="M12.7625 8.24219L2.26247 8.24219M8.26247 2.99219L6.76247 1.49219M11.2625 16.4922L2.26247 16.4922M17.2625 11.9922C17.2625 12.8206 16.5909 13.4922 15.7625 13.4922C14.934 13.4922 14.2625 12.8206 14.2625 11.9922C14.2625 11.1638 15.7625 9.74219 15.7625 9.74219C15.7625 9.74219 17.2625 11.1638 17.2625 11.9922ZM7.51247 2.24219L12.6639 7.39366C12.961 7.69067 13.1095 7.83918 13.1651 8.01043C13.214 8.16106 13.214 8.32332 13.1651 8.47395C13.1095 8.6452 12.961 8.7937 12.6639 9.09072L9.20952 12.5451C8.6155 13.1392 8.31849 13.4362 7.97599 13.5475C7.67473 13.6453 7.35021 13.6453 7.04894 13.5475C6.70645 13.4362 6.40944 13.1392 5.81541 12.5451L3.20952 9.93924C2.6155 9.34522 2.31849 9.04821 2.2072 8.70571C2.10932 8.40445 2.10932 8.07993 2.2072 7.77866C2.31849 7.43617 2.6155 7.13916 3.20953 6.54513L7.51247 2.24219Z" stroke="#98A2B3" stroke-width="1.5" stroke-linecap="round" stroke-linejoin="round"/>
</g>
<defs>
<clipPath id="clip0_1_10151">
<rect width="18" height="18" fill="white" transform="translate(0.762695 -0.0078125)"/>
</clipPath>
</defs>
</svg>
