<svg width="19" height="18" viewBox="0 0 19 18" fill="none" xmlns="http://www.w3.org/2000/svg">
<g clip-path="url(#clip0_1_10153)">
<path d="M1.76465 8.99219C1.76465 13.1343 5.12251 16.4922 9.26465 16.4922C10.5073 16.4922 11.5146 15.4848 11.5146 14.2422V13.8672C11.5146 13.5189 11.5146 13.3447 11.5339 13.1985C11.6668 12.1889 12.4613 11.3944 13.471 11.2614C13.6172 11.2422 13.7913 11.2422 14.1396 11.2422H14.5146C15.7573 11.2422 16.7646 10.2348 16.7646 8.99219C16.7646 4.85005 13.4068 1.49219 9.26465 1.49219C5.12251 1.49219 1.76465 4.85005 1.76465 8.99219Z" stroke="#98A2B3" stroke-width="1.5" stroke-linecap="round" stroke-linejoin="round"/>
<path d="M5.51465 9.74219C5.92886 9.74219 6.26465 9.4064 6.26465 8.99219C6.26465 8.57797 5.92886 8.24219 5.51465 8.24219C5.10044 8.24219 4.76465 8.57797 4.76465 8.99219C4.76465 9.4064 5.10044 9.74219 5.51465 9.74219Z" stroke="#98A2B3" stroke-width="1.5" stroke-linecap="round" stroke-linejoin="round"/>
<path d="M12.2646 6.74219C12.6789 6.74219 13.0146 6.4064 13.0146 5.99219C13.0146 5.57797 12.6789 5.24219 12.2646 5.24219C11.8504 5.24219 11.5146 5.57797 11.5146 5.99219C11.5146 6.4064 11.8504 6.74219 12.2646 6.74219Z" stroke="#98A2B3" stroke-width="1.5" stroke-linecap="round" stroke-linejoin="round"/>
<path d="M7.76465 5.99219C8.17886 5.99219 8.51465 5.6564 8.51465 5.24219C8.51465 4.82797 8.17886 4.49219 7.76465 4.49219C7.35044 4.49219 7.01465 4.82797 7.01465 5.24219C7.01465 5.6564 7.35044 5.99219 7.76465 5.99219Z" stroke="#98A2B3" stroke-width="1.5" stroke-linecap="round" stroke-linejoin="round"/>
</g>
<defs>
<clipPath id="clip0_1_10153">
<rect width="18" height="18" fill="white" transform="translate(0.264648 -0.0078125)"/>
</clipPath>
</defs>
</svg>
