<svg width="19" height="18" viewBox="0 0 19 18" fill="none" xmlns="http://www.w3.org/2000/svg">
<g clip-path="url(#clip0_1_11021)">
<path d="M16.3483 8.27963L9.45578 15.1721C8.6114 16.0165 7.46617 16.4909 6.27203 16.4909C5.0779 16.4909 3.93267 16.0165 3.08828 15.1721C2.2439 14.3277 1.76953 13.1825 1.76953 11.9884C1.76953 10.7942 2.2439 9.64901 3.08828 8.80463L9.98078 1.91213C10.5437 1.34921 11.3072 1.03296 12.1033 1.03296C12.8994 1.03296 13.6629 1.34921 14.2258 1.91213C14.7887 2.47505 15.105 3.23853 15.105 4.03463C15.105 4.83072 14.7887 5.59421 14.2258 6.15713L7.32578 13.0496C7.04432 13.3311 6.66258 13.4892 6.26453 13.4892C5.86649 13.4892 5.48475 13.3311 5.20328 13.0496C4.92182 12.7682 4.7637 12.3864 4.7637 11.9884C4.7637 11.5903 4.92182 11.2086 5.20328 10.9271L11.5708 4.56713" stroke="#98A2B3" stroke-width="1.5" stroke-linecap="round" stroke-linejoin="round"/>
</g>
<defs>
<clipPath id="clip0_1_11021">
<rect width="18" height="18" fill="white" transform="translate(0.268555 -0.0078125)"/>
</clipPath>
</defs>
</svg>
