<svg width="19" height="18" viewBox="0 0 19 18" fill="none" xmlns="http://www.w3.org/2000/svg">
<path d="M16.7764 8.24219V6.14219C16.7764 5.30211 16.7764 4.88207 16.6129 4.5612C16.4691 4.27896 16.2396 4.04949 15.9574 3.90568C15.6365 3.74219 15.2164 3.74219 14.3764 3.74219H4.17637C3.33629 3.74219 2.91625 3.74219 2.59538 3.90568C2.31314 4.04949 2.08367 4.27896 1.93986 4.5612C1.77637 4.88207 1.77637 5.30211 1.77637 6.14219V8.84219C1.77637 9.68227 1.77637 10.1023 1.93986 10.4232C2.08367 10.7054 2.31314 10.9349 2.59538 11.0787C2.91625 11.2422 3.33629 11.2422 4.17637 11.2422H8.52637M9.27637 7.49219H9.28012M13.0264 7.49219H13.0301M5.52637 7.49219H5.53012M14.7139 12.7422V11.4297C14.7139 10.7048 14.1262 10.1172 13.4014 10.1172C12.6765 10.1172 12.0889 10.7048 12.0889 11.4297V12.7422M9.46387 7.49219C9.46387 7.59574 9.37992 7.67969 9.27637 7.67969C9.17281 7.67969 9.08887 7.59574 9.08887 7.49219C9.08887 7.38863 9.17281 7.30469 9.27637 7.30469C9.37992 7.30469 9.46387 7.38863 9.46387 7.49219ZM13.2139 7.49219C13.2139 7.59574 13.1299 7.67969 13.0264 7.67969C12.9228 7.67969 12.8389 7.59574 12.8389 7.49219C12.8389 7.38863 12.9228 7.30469 13.0264 7.30469C13.1299 7.30469 13.2139 7.38863 13.2139 7.49219ZM5.71387 7.49219C5.71387 7.59574 5.62992 7.67969 5.52637 7.67969C5.42281 7.67969 5.33887 7.59574 5.33887 7.49219C5.33887 7.38863 5.42281 7.30469 5.52637 7.30469C5.62992 7.30469 5.71387 7.38863 5.71387 7.49219ZM11.9764 15.7422H14.8264C15.2464 15.7422 15.4564 15.7422 15.6169 15.6604C15.758 15.5885 15.8727 15.4738 15.9446 15.3327C16.0264 15.1722 16.0264 14.9622 16.0264 14.5422V13.9422C16.0264 13.5221 16.0264 13.3121 15.9446 13.1517C15.8727 13.0106 15.758 12.8958 15.6169 12.8239C15.4564 12.7422 15.2464 12.7422 14.8264 12.7422H11.9764C11.5563 12.7422 11.3463 12.7422 11.1859 12.8239C11.0448 12.8958 10.93 13.0106 10.8581 13.1517C10.7764 13.3121 10.7764 13.5221 10.7764 13.9422V14.5422C10.7764 14.9622 10.7764 15.1722 10.8581 15.3327C10.93 15.4738 11.0448 15.5885 11.1859 15.6604C11.3463 15.7422 11.5563 15.7422 11.9764 15.7422Z" stroke="#98A2B3" stroke-width="1.5" stroke-linecap="round" stroke-linejoin="round"/>
</svg>
