<svg width="19" height="18" viewBox="0 0 19 18" fill="none" xmlns="http://www.w3.org/2000/svg">
<g clip-path="url(#clip0_1_8552)">
<path d="M9.77441 8.99219H9.77816M13.5244 8.99219H13.5282M6.02441 8.99219H6.02816M4.67441 5.24219H14.8744C15.7145 5.24219 16.1345 5.24219 16.4554 5.40568C16.7376 5.54949 16.9671 5.77896 17.1109 6.0612C17.2744 6.38207 17.2744 6.80211 17.2744 7.64219V10.3422C17.2744 11.1823 17.2744 11.6023 17.1109 11.9232C16.9671 12.2054 16.7376 12.4349 16.4554 12.5787C16.1345 12.7422 15.7145 12.7422 14.8744 12.7422H4.67441C3.83434 12.7422 3.4143 12.7422 3.09343 12.5787C2.81119 12.4349 2.58171 12.2054 2.4379 11.9232C2.27441 11.6023 2.27441 11.1823 2.27441 10.3422V7.64219C2.27441 6.80211 2.27441 6.38207 2.4379 6.0612C2.58171 5.77896 2.81119 5.54949 3.09343 5.40568C3.4143 5.24219 3.83434 5.24219 4.67441 5.24219ZM9.96191 8.99219C9.96191 9.09574 9.87797 9.17969 9.77441 9.17969C9.67086 9.17969 9.58691 9.09574 9.58691 8.99219C9.58691 8.88863 9.67086 8.80469 9.77441 8.80469C9.87797 8.80469 9.96191 8.88863 9.96191 8.99219ZM13.7119 8.99219C13.7119 9.09574 13.628 9.17969 13.5244 9.17969C13.4209 9.17969 13.3369 9.09574 13.3369 8.99219C13.3369 8.88863 13.4209 8.80469 13.5244 8.80469C13.628 8.80469 13.7119 8.88863 13.7119 8.99219ZM6.21191 8.99219C6.21191 9.09574 6.12797 9.17969 6.02441 9.17969C5.92086 9.17969 5.83691 9.09574 5.83691 8.99219C5.83691 8.88863 5.92086 8.80469 6.02441 8.80469C6.12797 8.80469 6.21191 8.88863 6.21191 8.99219Z" stroke="#98A2B3" stroke-width="1.5" stroke-linecap="round" stroke-linejoin="round"/>
</g>
<defs>
<clipPath id="clip0_1_8552">
<rect width="18" height="18" fill="white" transform="translate(0.774414 -0.0078125)"/>
</clipPath>
</defs>
</svg>
