<svg width="19" height="18" viewBox="0 0 19 18" fill="none" xmlns="http://www.w3.org/2000/svg">
<g clip-path="url(#clip0_1_10471)">
<path d="M8.27832 11.9922H11.2783M7.37832 16.4922H12.1783C13.4384 16.4922 14.0685 16.4922 14.5498 16.247C14.9732 16.0312 15.3174 15.687 15.5331 15.2637C15.7783 14.7824 15.7783 14.1523 15.7783 12.8922V5.09219C15.7783 3.83207 15.7783 3.20201 15.5331 2.72071C15.3174 2.29734 14.9732 1.95314 14.5498 1.73742C14.0685 1.49219 13.4384 1.49219 12.1783 1.49219H7.37832C6.1182 1.49219 5.48814 1.49219 5.00684 1.73742C4.58348 1.95314 4.23927 2.29734 4.02356 2.72071C3.77832 3.20201 3.77832 3.83207 3.77832 5.09219V12.8922C3.77832 14.1523 3.77832 14.7824 4.02356 15.2637C4.23927 15.687 4.58348 16.0312 5.00684 16.247C5.48814 16.4922 6.1182 16.4922 7.37832 16.4922ZM12.0283 6.74219C12.0283 7.98483 11.021 8.99219 9.77832 8.99219C8.53568 8.99219 7.52832 7.98483 7.52832 6.74219C7.52832 5.49955 8.53568 4.49219 9.77832 4.49219C11.021 4.49219 12.0283 5.49955 12.0283 6.74219Z" stroke="#98A2B3" stroke-width="1.5" stroke-linecap="round" stroke-linejoin="round"/>
</g>
<defs>
<clipPath id="clip0_1_10471">
<rect width="18" height="18" fill="white" transform="translate(0.77832 -0.0078125)"/>
</clipPath>
</defs>
</svg>
