<svg width="19" height="18" viewBox="0 0 19 18" fill="none" xmlns="http://www.w3.org/2000/svg">
<path d="M7.91113 11.2422V6.74219M11.6611 11.2422V6.74219M6.63613 15.7422H12.9361C14.1963 15.7422 14.8263 15.7422 15.3076 15.497C15.731 15.2812 16.0752 14.937 16.2909 14.5137C16.5361 14.0324 16.5361 13.4023 16.5361 12.1422V5.84219C16.5361 4.58207 16.5361 3.95201 16.2909 3.47071C16.0752 3.04734 15.731 2.70314 15.3076 2.48742C14.8263 2.24219 14.1963 2.24219 12.9361 2.24219H6.63613C5.37602 2.24219 4.74596 2.24219 4.26465 2.48742C3.84129 2.70314 3.49708 3.04734 3.28137 3.47071C3.03613 3.95201 3.03613 4.58207 3.03613 5.84219V12.1422C3.03613 13.4023 3.03613 14.0324 3.28137 14.5137C3.49708 14.937 3.84129 15.2812 4.26465 15.497C4.74596 15.7422 5.37601 15.7422 6.63613 15.7422Z" stroke="#98A2B3" stroke-width="1.5" stroke-linecap="round" stroke-linejoin="round"/>
</svg>
