<svg width="19" height="19" viewBox="0 0 19 19" fill="none" xmlns="http://www.w3.org/2000/svg">
<g clip-path="url(#clip0_1_10163)">
<path d="M2.06934 4.24403H6.56934M11.8193 5.74403L7.19519 7.06521C6.96651 7.13055 6.85217 7.16322 6.75772 7.22463C6.67411 7.27899 6.60218 7.34948 6.54614 7.43198C6.48283 7.52517 6.44786 7.63883 6.37792 7.86614L3.56934 16.994M3.56934 16.994L12.6972 14.1854C12.9245 14.1155 13.0382 14.0805 13.1314 14.0172C13.2139 13.9612 13.2844 13.8893 13.3387 13.8057C13.4001 13.7112 13.4328 13.5969 13.4982 13.3682L14.8193 8.74403M3.56934 16.994L8.50884 12.0545M16.9708 6.3955L14.1679 3.59256C13.8709 3.29554 13.7223 3.14704 13.5511 3.0914C13.4005 3.04245 13.2382 3.04245 13.0876 3.0914C12.9163 3.14704 12.7678 3.29554 12.4708 3.59256L11.9179 4.1455C11.6209 4.44251 11.4723 4.59102 11.4167 4.76226C11.3678 4.9129 11.3678 5.07516 11.4167 5.22579C11.4723 5.39704 11.6209 5.54554 11.9179 5.84256L14.7208 8.6455C15.0178 8.94251 15.1663 9.09102 15.3376 9.14666C15.4882 9.1956 15.6505 9.1956 15.8011 9.14666C15.9723 9.09102 16.1209 8.94251 16.4179 8.6455L16.9708 8.09256C17.2678 7.79554 17.4163 7.64704 17.472 7.47579C17.5209 7.32516 17.5209 7.1629 17.472 7.01226C17.4163 6.84102 17.2678 6.69251 16.9708 6.3955ZM9.56934 9.49403C10.3978 9.49403 11.0693 10.1656 11.0693 10.994C11.0693 11.8225 10.3978 12.494 9.56934 12.494C8.74091 12.494 8.06934 11.8225 8.06934 10.994C8.06934 10.1656 8.74091 9.49403 9.56934 9.49403Z" stroke="#98A2B3" stroke-width="1.5" stroke-linecap="round" stroke-linejoin="round"/>
</g>
<defs>
<clipPath id="clip0_1_10163">
<rect width="18" height="18" fill="white" transform="translate(0.569824 0.494019)"/>
</clipPath>
</defs>
</svg>
