<svg width="19" height="18" viewBox="0 0 19 18" fill="none" xmlns="http://www.w3.org/2000/svg">
<g clip-path="url(#clip0_1_10161)">
<path d="M10.54 4.4922L5.66641 5.46692C5.39416 5.52137 5.25803 5.5486 5.14718 5.6148C5.04918 5.67332 4.96583 5.75345 4.90349 5.84906C4.83296 5.95722 4.80039 6.09216 4.73525 6.36205L2.29004 16.4922M2.29004 16.4922L12.4202 14.047C12.6901 13.9818 12.825 13.9493 12.9332 13.8787C13.0288 13.8164 13.1089 13.7331 13.1674 13.6351C13.2336 13.5242 13.2609 13.3881 13.3153 13.1158L14.29 8.2422M2.29004 16.4922L7.97954 10.8027M16.4415 5.89367L12.8886 2.34072C12.5916 2.04371 12.443 1.89521 12.2718 1.83956C12.1212 1.79062 11.9589 1.79062 11.8083 1.83956C11.637 1.89521 11.4885 2.04371 11.1915 2.34072L10.6386 2.89367C10.3416 3.19068 10.193 3.33919 10.1374 3.51043C10.0885 3.66107 10.0885 3.82333 10.1374 3.97396C10.193 4.14521 10.3416 4.29371 10.6386 4.59072L14.1915 8.14367C14.4885 8.44068 14.637 8.58919 14.8083 8.64483C14.9589 8.69377 15.1212 8.69377 15.2718 8.64483C15.443 8.58919 15.5916 8.44068 15.8886 8.14367L16.4415 7.59072C16.7385 7.29371 16.887 7.14521 16.9427 6.97396C16.9916 6.82333 16.9916 6.66107 16.9427 6.51043C16.887 6.33919 16.7385 6.19068 16.4415 5.89367ZM9.04004 8.2422C9.86847 8.2422 10.54 8.91377 10.54 9.7422C10.54 10.5706 9.86847 11.2422 9.04004 11.2422C8.21161 11.2422 7.54004 10.5706 7.54004 9.7422C7.54004 8.91377 8.21161 8.2422 9.04004 8.2422Z" stroke="#98A2B3" stroke-width="1.5" stroke-linecap="round" stroke-linejoin="round"/>
</g>
<defs>
<clipPath id="clip0_1_10161">
<rect width="18" height="18" fill="white" transform="translate(0.790039 -0.0078125)"/>
</clipPath>
</defs>
</svg>
