<svg width="19" height="18" viewBox="0 0 19 18" fill="none" xmlns="http://www.w3.org/2000/svg">
<path d="M13.7881 9.74219L12.8134 4.86855C12.7589 4.59631 12.7317 4.46018 12.6655 4.34933C12.607 4.25133 12.5268 4.16798 12.4312 4.10564C12.3231 4.03511 12.1881 4.00254 11.9182 3.93739L1.78809 1.49219M1.78809 1.49219L4.23329 11.6223C4.29844 11.8922 4.33101 12.0272 4.40153 12.1353C4.46388 12.2309 4.54723 12.3111 4.64523 12.3696C4.75608 12.4358 4.89221 12.463 5.16445 12.5175L10.0381 13.4922M1.78809 1.49219L7.47759 7.18169M12.3866 15.6437L15.9396 12.0907C16.2366 11.7937 16.3851 11.6452 16.4407 11.474C16.4897 11.3233 16.4897 11.1611 16.4407 11.0104C16.3851 10.8392 16.2366 10.6907 15.9396 10.3937L15.3866 9.84072C15.0896 9.5437 14.9411 9.3952 14.7698 9.33956C14.6192 9.29061 14.457 9.29061 14.3063 9.33956C14.1351 9.3952 13.9866 9.5437 13.6896 9.84071L10.1366 13.3937C9.8396 13.6907 9.69109 13.8392 9.63545 14.0104C9.58651 14.1611 9.58651 14.3233 9.63545 14.474C9.69109 14.6452 9.8396 14.7937 10.1366 15.0907L10.6896 15.6437C10.9866 15.9407 11.1351 16.0892 11.3063 16.1448C11.457 16.1938 11.6192 16.1938 11.7698 16.1448C11.9411 16.0892 12.0896 15.9407 12.3866 15.6437ZM10.0381 8.24219C10.0381 9.07061 9.36651 9.74219 8.53809 9.74219C7.70966 9.74219 7.03809 9.07061 7.03809 8.24219C7.03809 7.41376 7.70966 6.74219 8.53809 6.74219C9.36651 6.74219 10.0381 7.41376 10.0381 8.24219Z" stroke="#98A2B3" stroke-width="1.5" stroke-linecap="round" stroke-linejoin="round"/>
</svg>
