<svg width="19" height="19" viewBox="0 0 19 19" fill="none" xmlns="http://www.w3.org/2000/svg">
<g clip-path="url(#clip0_1_10165)">
<path d="M11.3218 5.74414L6.69763 7.06533C6.46895 7.13066 6.35461 7.16333 6.26016 7.22474C6.17655 7.2791 6.10462 7.34959 6.04858 7.43209C5.98527 7.52528 5.9503 7.63894 5.88036 7.86625L3.07178 16.9941M3.07178 16.9941L12.1997 14.1856C12.427 14.1156 12.5406 14.0806 12.6338 14.0173C12.7163 13.9613 12.7868 13.8894 12.8412 13.8058C12.9026 13.7113 12.9353 13.597 13.0006 13.3683L14.3218 8.74414M3.07178 16.9941L8.01128 12.0546M3.82178 6.49414V1.99414M1.57178 4.24414H6.07178M16.4733 6.39561L13.6703 3.59267C13.3733 3.29566 13.2248 3.14715 13.0535 3.09151C12.9029 3.04257 12.7406 3.04257 12.59 3.09151C12.4188 3.14715 12.2703 3.29566 11.9733 3.59267L11.4203 4.14561C11.1233 4.44263 10.9748 4.59113 10.9191 4.76238C10.8702 4.91301 10.8702 5.07527 10.9191 5.2259C10.9748 5.39715 11.1233 5.54566 11.4203 5.84267L14.2233 8.64561C14.5203 8.94263 14.6688 9.09113 14.84 9.14677C14.9906 9.19572 15.1529 9.19572 15.3035 9.14677C15.4748 9.09113 15.6233 8.94263 15.9203 8.64561L16.4733 8.09267C16.7703 7.79566 16.9188 7.64715 16.9744 7.4759C17.0234 7.32527 17.0234 7.16301 16.9744 7.01238C16.9188 6.84113 16.7703 6.69263 16.4733 6.39561ZM9.07178 9.49414C9.90021 9.49414 10.5718 10.1657 10.5718 10.9941C10.5718 11.8226 9.90021 12.4941 9.07178 12.4941C8.24335 12.4941 7.57178 11.8226 7.57178 10.9941C7.57178 10.1657 8.24335 9.49414 9.07178 9.49414Z" stroke="#98A2B3" stroke-width="1.5" stroke-linecap="round" stroke-linejoin="round"/>
</g>
<defs>
<clipPath id="clip0_1_10165">
<rect width="18" height="18" fill="white" transform="translate(0.0712891 0.494019)"/>
</clipPath>
</defs>
</svg>
