<svg width="19" height="19" viewBox="0 0 19 19" fill="none" xmlns="http://www.w3.org/2000/svg">
<path d="M16.3277 16.244H10.3277M2.45264 16.619L6.61459 15.0183C6.88079 14.9159 7.0139 14.8647 7.13843 14.7978C7.24904 14.7385 7.35449 14.6699 7.45367 14.593C7.56533 14.5063 7.66617 14.4055 7.86785 14.2038L16.3277 5.744C17.1561 4.91558 17.1561 3.57243 16.3277 2.744C15.4992 1.91557 14.1561 1.91557 13.3277 2.744L4.86785 11.2038C4.66617 11.4055 4.56533 11.5063 4.47868 11.618C4.40172 11.7172 4.33319 11.8226 4.27381 11.9332C4.20697 12.0577 4.15577 12.1908 4.05339 12.4571L2.45264 16.619ZM2.45264 16.619L3.99623 12.6057C4.10668 12.3185 4.16191 12.1749 4.25664 12.1092C4.33943 12.0517 4.44186 12.0299 4.54086 12.0489C4.65414 12.0705 4.76292 12.1793 4.9805 12.3968L6.67482 14.0912C6.89239 14.3087 7.00118 14.4175 7.02281 14.5308C7.04171 14.6298 7.01998 14.7322 6.9625 14.815C6.89672 14.9097 6.75313 14.965 6.46594 15.0754L2.45264 16.619Z" stroke="#98A2B3" stroke-width="1.5" stroke-linecap="round" stroke-linejoin="round"/>
</svg>
