<svg width="19" height="19" viewBox="0 0 19 19" fill="none" xmlns="http://www.w3.org/2000/svg">
<path d="M2.44873 16.619L6.61068 15.0183C6.87689 14.9159 7.00999 14.8647 7.13452 14.7978C7.24513 14.7385 7.35058 14.6699 7.44976 14.593C7.56142 14.5063 7.66226 14.4055 7.86394 14.2038L16.3237 5.744C17.1522 4.91558 17.1522 3.57243 16.3237 2.744C15.4953 1.91557 14.1522 1.91557 13.3238 2.744L4.86394 11.2038C4.66226 11.4055 4.56142 11.5063 4.47477 11.618C4.39781 11.7172 4.32928 11.8226 4.26991 11.9332C4.20306 12.0577 4.15187 12.1908 4.04948 12.4571L2.44873 16.619ZM2.44873 16.619L3.99232 12.6057C4.10278 12.3185 4.15801 12.1749 4.25274 12.1092C4.33552 12.0517 4.43796 12.0299 4.53695 12.0489C4.65023 12.0705 4.75902 12.1793 4.97659 12.3968L6.67091 14.0912C6.88848 14.3087 6.99727 14.4175 7.0189 14.5308C7.03781 14.6298 7.01607 14.7322 6.95859 14.815C6.89282 14.9097 6.74922 14.965 6.46203 15.0754L2.44873 16.619Z" stroke="#98A2B3" stroke-width="1.5" stroke-linecap="round" stroke-linejoin="round"/>
</svg>
