<svg width="19" height="19" viewBox="0 0 19 19" fill="none" xmlns="http://www.w3.org/2000/svg">
<g clip-path="url(#clip0_1_10169)">
<path d="M13.5752 1.99414L16.5752 4.99414M1.5752 16.9941L2.5325 13.484C2.59495 13.255 2.62618 13.1405 2.67412 13.0338C2.71668 12.9389 2.76899 12.8488 2.83018 12.7648C2.89911 12.6702 2.98303 12.5863 3.15087 12.4185L10.9009 4.6684C11.0494 4.5199 11.1237 4.44565 11.2093 4.41782C11.2846 4.39335 11.3658 4.39335 11.4411 4.41782C11.5267 4.44565 11.601 4.5199 11.7495 4.6684L13.9009 6.81988C14.0494 6.96838 14.1237 7.04264 14.1515 7.12826C14.176 7.20358 14.176 7.28471 14.1515 7.36002C14.1237 7.44565 14.0494 7.5199 13.9009 7.66841L6.15087 15.4185C5.98303 15.5863 5.89911 15.6702 5.80451 15.7392C5.72051 15.8004 5.63039 15.8527 5.53558 15.8952C5.42881 15.9432 5.3143 15.9744 5.0853 16.0368L1.5752 16.9941Z" stroke="#98A2B3" stroke-width="1.5" stroke-linecap="round" stroke-linejoin="round"/>
</g>
<defs>
<clipPath id="clip0_1_10169">
<rect width="18" height="18" fill="white" transform="translate(0.0756836 0.494019)"/>
</clipPath>
</defs>
</svg>
