<svg width="19" height="19" viewBox="0 0 19 19" fill="none" xmlns="http://www.w3.org/2000/svg">
<g clip-path="url(#clip0_1_9547)">
<path d="M8.37523 2.6931C8.62857 2.50925 8.75523 2.41732 8.8937 2.3818C9.01596 2.35044 9.14416 2.35044 9.26642 2.3818C9.40489 2.41732 9.53156 2.50925 9.78489 2.6931L15.8738 7.11205C16.1276 7.29625 16.2545 7.38835 16.3313 7.50921C16.399 7.61593 16.4387 7.73804 16.4467 7.86421C16.4556 8.0071 16.4071 8.15621 16.3101 8.45443L13.9849 15.6028C13.888 15.9007 13.8396 16.0496 13.7484 16.1598C13.6678 16.2571 13.5641 16.3325 13.4466 16.3789C13.3136 16.4316 13.157 16.4316 12.8438 16.4316H5.31636C5.00311 16.4316 4.84649 16.4316 4.7135 16.3789C4.59607 16.3325 4.49228 16.2571 4.41175 16.1598C4.32055 16.0496 4.2721 15.9007 4.17521 15.6028L1.84999 8.45443C1.75298 8.15621 1.70448 8.0071 1.71346 7.86421C1.72139 7.73804 1.76108 7.61593 1.82885 7.50921C1.90559 7.38835 2.0325 7.29625 2.28631 7.11205L8.37523 2.6931Z" stroke="#98A2B3" stroke-width="1.5" stroke-linecap="round" stroke-linejoin="round"/>
</g>
<defs>
<clipPath id="clip0_1_9547">
<rect width="18" height="18" fill="white" transform="translate(0.0795898 0.494019)"/>
</clipPath>
</defs>
</svg>
