<svg width="19" height="19" viewBox="0 0 19 19" fill="none" xmlns="http://www.w3.org/2000/svg">
<g clip-path="url(#clip0_1_9331)">
<path d="M6.83691 7.24414H6.84441M11.3369 11.7441H11.3444M12.0869 6.49414L6.08691 12.4941M7.21191 7.24414C7.21191 7.45125 7.04402 7.61914 6.83691 7.61914C6.62981 7.61914 6.46191 7.45125 6.46191 7.24414C6.46191 7.03703 6.62981 6.86914 6.83691 6.86914C7.04402 6.86914 7.21191 7.03703 7.21191 7.24414ZM11.7119 11.7441C11.7119 11.9512 11.544 12.1191 11.3369 12.1191C11.1298 12.1191 10.9619 11.9512 10.9619 11.7441C10.9619 11.537 11.1298 11.3691 11.3369 11.3691C11.544 11.3691 11.7119 11.537 11.7119 11.7441ZM16.5869 9.49414C16.5869 13.6363 13.2291 16.9941 9.08691 16.9941C4.94478 16.9941 1.58691 13.6363 1.58691 9.49414C1.58691 5.35201 4.94478 1.99414 9.08691 1.99414C13.2291 1.99414 16.5869 5.35201 16.5869 9.49414Z" stroke="#98A2B3" stroke-width="1.5" stroke-linecap="round" stroke-linejoin="round"/>
</g>
<defs>
<clipPath id="clip0_1_9331">
<rect width="18" height="18" fill="white" transform="translate(0.0874023 0.494019)"/>
</clipPath>
</defs>
</svg>
