<svg width="19" height="19" viewBox="0 0 19 19" fill="none" xmlns="http://www.w3.org/2000/svg">
<path d="M14.8394 7.24402V11.744M4.33936 5.74402V13.244M13.3394 5.52973L5.83936 4.4583M13.3394 13.4583L5.83936 14.5297M4.03936 5.74402H4.63936C5.0594 5.74402 5.26941 5.74402 5.42985 5.66227C5.57097 5.59037 5.68571 5.47563 5.75761 5.33451C5.83936 5.17408 5.83936 4.96406 5.83936 4.54402V3.94402C5.83936 3.52398 5.83936 3.31396 5.75761 3.15353C5.68571 3.0124 5.57097 2.89767 5.42985 2.82576C5.26941 2.74402 5.0594 2.74402 4.63936 2.74402H4.03936C3.61932 2.74402 3.4093 2.74402 3.24886 2.82576C3.10774 2.89767 2.99301 3.0124 2.9211 3.15353C2.83936 3.31396 2.83936 3.52398 2.83936 3.94402V4.54402C2.83936 4.96406 2.83936 5.17408 2.9211 5.33451C2.99301 5.47563 3.10774 5.59037 3.24886 5.66227C3.4093 5.74402 3.61932 5.74402 4.03936 5.74402ZM4.03936 16.244H4.63936C5.0594 16.244 5.26941 16.244 5.42985 16.1623C5.57097 16.0904 5.68571 15.9756 5.75761 15.8345C5.83936 15.6741 5.83936 15.4641 5.83936 15.044V14.444C5.83936 14.024 5.83936 13.814 5.75761 13.6535C5.68571 13.5124 5.57097 13.3977 5.42985 13.3258C5.26941 13.244 5.0594 13.244 4.63936 13.244H4.03936C3.61932 13.244 3.4093 13.244 3.24886 13.3258C3.10774 13.3977 2.99301 13.5124 2.9211 13.6535C2.83936 13.814 2.83936 14.024 2.83936 14.444V15.044C2.83936 15.4641 2.83936 15.6741 2.9211 15.8345C2.99301 15.9756 3.10774 16.0904 3.24886 16.1623C3.4093 16.244 3.61932 16.244 4.03936 16.244ZM14.5394 7.24402H15.1394C15.5594 7.24402 15.7694 7.24402 15.9299 7.16227C16.071 7.09037 16.1857 6.97563 16.2576 6.83451C16.3394 6.67408 16.3394 6.46406 16.3394 6.04402V5.44402C16.3394 5.02398 16.3394 4.81396 16.2576 4.65353C16.1857 4.5124 16.071 4.39767 15.9299 4.32576C15.7694 4.24402 15.5594 4.24402 15.1394 4.24402H14.5394C14.1193 4.24402 13.9093 4.24402 13.7489 4.32576C13.6077 4.39767 13.493 4.5124 13.4211 4.65353C13.3394 4.81396 13.3394 5.02398 13.3394 5.44402V6.04402C13.3394 6.46406 13.3394 6.67408 13.4211 6.83451C13.493 6.97563 13.6077 7.09037 13.7489 7.16227C13.9093 7.24402 14.1193 7.24402 14.5394 7.24402ZM14.5394 14.744H15.1394C15.5594 14.744 15.7694 14.744 15.9299 14.6623C16.071 14.5904 16.1857 14.4756 16.2576 14.3345C16.3394 14.1741 16.3394 13.9641 16.3394 13.544V12.944C16.3394 12.524 16.3394 12.314 16.2576 12.1535C16.1857 12.0124 16.071 11.8977 15.9299 11.8258C15.7694 11.744 15.5594 11.744 15.1394 11.744H14.5394C14.1193 11.744 13.9093 11.744 13.7489 11.8258C13.6077 11.8977 13.493 12.0124 13.4211 12.1535C13.3394 12.314 13.3394 12.524 13.3394 12.944V13.544C13.3394 13.9641 13.3394 14.1741 13.4211 14.3345C13.493 14.4756 13.6077 14.5904 13.7489 14.6623C13.9093 14.744 14.1193 14.744 14.5394 14.744Z" stroke="#98A2B3" stroke-width="1.5" stroke-linecap="round" stroke-linejoin="round"/>
</svg>
