<svg width="19" height="19" viewBox="0 0 19 19" fill="none" xmlns="http://www.w3.org/2000/svg">
<path d="M12.0918 4.24407L12.0918 14.7441M7.5918 3.49407L7.5918 15.4941M2.3418 9.49407H15.8418M2.3418 4.98595L2.3418 14.0022C2.3418 15.0252 2.3418 15.5367 2.5528 15.8913C2.73782 16.2022 3.02895 16.4357 3.37255 16.5489C3.76443 16.6779 4.26376 16.567 5.26243 16.345L13.9624 14.4117C14.633 14.2627 14.9683 14.1882 15.2186 14.0079C15.4394 13.8488 15.6127 13.6327 15.7201 13.3827C15.8418 13.0993 15.8418 12.7558 15.8418 12.0689V6.91928C15.8418 6.23233 15.8418 5.88886 15.7201 5.60542C15.6127 5.35541 15.4394 5.13932 15.2186 4.98028C14.9683 4.79996 14.633 4.72545 13.9624 4.57643L5.26243 2.6431C4.26376 2.42117 3.76443 2.31021 3.37255 2.43928C3.02895 2.55245 2.73782 2.78599 2.5528 3.09686C2.3418 3.45141 2.3418 3.96292 2.3418 4.98595Z" stroke="#98A2B3" stroke-width="1.5" stroke-linecap="round" stroke-linejoin="round"/>
</svg>
