<svg width="19" height="19" viewBox="0 0 19 19" fill="none" xmlns="http://www.w3.org/2000/svg">
<g clip-path="url(#clip0_1_10739)">
<path d="M11.8882 4.24414C12.6207 4.38706 13.2939 4.74533 13.8217 5.27309C14.3495 5.80085 14.7077 6.47409 14.8507 7.20664M11.8882 1.24414C13.4101 1.41322 14.8294 2.09477 15.9128 3.1769C16.9963 4.25902 17.6797 5.6774 17.8507 7.19914M17.1007 13.1841V15.4341C17.1015 15.643 17.0587 15.8498 16.975 16.0412C16.8914 16.2325 16.7686 16.4043 16.6147 16.5455C16.4608 16.6867 16.2791 16.7943 16.0812 16.8612C15.8834 16.9281 15.6737 16.9529 15.4657 16.9341C13.1578 16.6834 10.9409 15.8947 8.99316 14.6316C7.18103 13.4801 5.64466 11.9438 4.49316 10.1316C3.22564 8.17504 2.43684 5.94739 2.19066 3.62914C2.17192 3.42174 2.19656 3.21271 2.26303 3.01536C2.3295 2.81801 2.43634 2.63666 2.57673 2.48286C2.71713 2.32906 2.88801 2.20617 3.0785 2.12203C3.26899 2.03789 3.47491 1.99434 3.68316 1.99414H5.93316C6.29714 1.99056 6.65 2.11945 6.92598 2.35679C7.20196 2.59413 7.38222 2.92373 7.43316 3.28414C7.52813 4.00419 7.70425 4.71119 7.95816 5.39164C8.05907 5.66008 8.08091 5.95183 8.02109 6.2323C7.96127 6.51278 7.82231 6.77022 7.62066 6.97414L6.66816 7.92664C7.73583 9.8043 9.2905 11.359 11.1682 12.4266L12.1207 11.4741C12.3246 11.2725 12.582 11.1335 12.8625 11.0737C13.143 11.0139 13.4347 11.0357 13.7032 11.1366C14.3836 11.3906 15.0906 11.5667 15.8107 11.6616C16.175 11.713 16.5077 11.8965 16.7456 12.1773C16.9834 12.458 17.1098 12.8163 17.1007 13.1841Z" stroke="#98A2B3" stroke-width="1.5" stroke-linecap="round" stroke-linejoin="round"/>
</g>
<defs>
<clipPath id="clip0_1_10739">
<rect width="18" height="18" fill="white" transform="translate(0.600586 0.494019)"/>
</clipPath>
</defs>
</svg>
