<svg width="19" height="19" viewBox="0 0 19 19" fill="none" xmlns="http://www.w3.org/2000/svg">
<g clip-path="url(#clip0_1_10795)">
<path d="M14.357 1.24414L17.357 4.24414M17.357 4.24414L14.357 7.24414M17.357 4.24414H11.357M16.607 13.1841V15.4341C16.6079 15.643 16.5651 15.8498 16.4814 16.0412C16.3977 16.2325 16.275 16.4043 16.1211 16.5455C15.9671 16.6867 15.7854 16.7943 15.5876 16.8612C15.3897 16.9281 15.18 16.9529 14.972 16.9341C12.6641 16.6834 10.4473 15.8947 8.49951 14.6316C6.68738 13.4801 5.15101 11.9438 3.99951 10.1316C2.73199 8.17504 1.94319 5.94739 1.69701 3.62914C1.67826 3.42174 1.70291 3.21271 1.76938 3.01536C1.83585 2.81801 1.94268 2.63666 2.08308 2.48286C2.22348 2.32906 2.39436 2.20617 2.58485 2.12203C2.77534 2.03789 2.98126 1.99434 3.18951 1.99414H5.43951C5.80349 1.99056 6.15635 2.11945 6.43233 2.35679C6.7083 2.59413 6.88856 2.92373 6.93951 3.28414C7.03447 4.00419 7.21059 4.71119 7.46451 5.39164C7.56541 5.66008 7.58725 5.95183 7.52744 6.2323C7.46762 6.51278 7.32865 6.77022 7.12701 6.97414L6.17451 7.92664C7.24217 9.8043 8.79685 11.359 10.6745 12.4266L11.627 11.4741C11.8309 11.2725 12.0884 11.1335 12.3688 11.0737C12.6493 11.0139 12.9411 11.0357 13.2095 11.1366C13.89 11.3906 14.597 11.5667 15.317 11.6616C15.6813 11.713 16.0141 11.8965 16.2519 12.1773C16.4898 12.458 16.6161 12.8163 16.607 13.1841Z" stroke="#98A2B3" stroke-width="1.5" stroke-linecap="round" stroke-linejoin="round"/>
</g>
<defs>
<clipPath id="clip0_1_10795">
<rect width="18" height="18" fill="white" transform="translate(0.106934 0.494019)"/>
</clipPath>
</defs>
</svg>
