<svg width="19" height="19" viewBox="0 0 19 19" fill="none" xmlns="http://www.w3.org/2000/svg">
<g clip-path="url(#clip0_1_11023)">
<path d="M17.8707 5.74414V1.24414M17.8707 1.24414H13.3707M17.8707 1.24414L12.6207 6.49414M17.1207 13.1841V15.4341C17.1215 15.643 17.0787 15.8498 16.9951 16.0412C16.9114 16.2325 16.7887 16.4043 16.6347 16.5455C16.4808 16.6867 16.2991 16.7943 16.1012 16.8612C15.9034 16.9281 15.6937 16.9529 15.4857 16.9341C13.1778 16.6834 10.9609 15.8947 9.01318 14.6316C7.20105 13.4801 5.66468 11.9438 4.51318 10.1316C3.24566 8.17504 2.45686 5.94739 2.21068 3.62914C2.19194 3.42174 2.21658 3.21271 2.28305 3.01536C2.34952 2.81801 2.45636 2.63666 2.59675 2.48286C2.73715 2.32906 2.90803 2.20617 3.09852 2.12203C3.28901 2.03789 3.49493 1.99434 3.70318 1.99414H5.95318C6.31716 1.99056 6.67002 2.11945 6.946 2.35679C7.22198 2.59413 7.40224 2.92373 7.45318 3.28414C7.54814 4.00419 7.72427 4.71119 7.97818 5.39164C8.07909 5.66008 8.10092 5.95183 8.04111 6.2323C7.98129 6.51278 7.84233 6.77022 7.64068 6.97414L6.68818 7.92664C7.75584 9.8043 9.31052 11.359 11.1882 12.4266L12.1407 11.4741C12.3446 11.2725 12.602 11.1335 12.8825 11.0737C13.163 11.0139 13.4547 11.0357 13.7232 11.1366C14.4036 11.3906 15.1106 11.5667 15.8307 11.6616C16.195 11.713 16.5277 11.8965 16.7656 12.1773C17.0034 12.458 17.1298 12.8163 17.1207 13.1841Z" stroke="#98A2B3" stroke-width="1.5" stroke-linecap="round" stroke-linejoin="round"/>
</g>
<defs>
<clipPath id="clip0_1_11023">
<rect width="18" height="18" fill="white" transform="translate(0.621094 0.494019)"/>
</clipPath>
</defs>
</svg>
