<svg width="19" height="19" viewBox="0 0 19 19" fill="none" xmlns="http://www.w3.org/2000/svg">
<path d="M11.863 3.49402V7.24402M11.863 7.24402L15.613 7.24402M11.863 7.24402L16.363 2.74402M8.28326 10.8913C7.38208 9.99014 6.67049 8.97116 6.14849 7.88394C6.10359 7.79042 6.08114 7.74366 6.06389 7.6845C6.0026 7.47423 6.04663 7.21604 6.17413 7.03796C6.21001 6.98786 6.25288 6.94499 6.33862 6.85925C6.60082 6.59705 6.73192 6.46595 6.81764 6.33411C7.14088 5.83695 7.14088 5.19601 6.81764 4.69884C6.73192 4.56701 6.60082 4.43591 6.33862 4.1737L6.19246 4.02755C5.79388 3.62897 5.59459 3.42968 5.38055 3.32142C4.95488 3.10612 4.45219 3.10612 4.02651 3.32142C3.81248 3.42968 3.61319 3.62897 3.21461 4.02755L3.09638 4.14578C2.69916 4.54299 2.50055 4.7416 2.34887 5.01163C2.18055 5.31126 2.05953 5.77662 2.06055 6.12029C2.06147 6.43 2.12155 6.64167 2.24171 7.065C2.88744 9.34005 4.10579 11.4868 5.89678 13.2778C7.68776 15.0688 9.83453 16.2871 12.1096 16.9329C12.5329 17.053 12.7446 17.1131 13.0543 17.114C13.398 17.1151 13.8633 16.994 14.163 16.8257C14.433 16.674 14.6316 16.4754 15.0288 16.0782L15.147 15.96C15.5456 15.5614 15.7449 15.3621 15.8532 15.1481C16.0685 14.7224 16.0685 14.2197 15.8532 13.794C15.7449 13.58 15.5456 13.3807 15.147 12.9821L15.0009 12.836C14.7387 12.5738 14.6076 12.4427 14.4757 12.3569C13.9786 12.0337 13.3376 12.0337 12.8405 12.3569C12.7086 12.4427 12.5775 12.5738 12.3153 12.836C12.2296 12.9217 12.1867 12.9646 12.1366 13.0004C11.9585 13.128 11.7004 13.172 11.4901 13.1107C11.4309 13.0934 11.3842 13.071 11.2906 13.0261C10.2034 12.5041 9.18445 11.7925 8.28326 10.8913Z" stroke="#98A2B3" stroke-width="1.5" stroke-linecap="round" stroke-linejoin="round"/>
</svg>
