<svg width="19" height="19" viewBox="0 0 19 19" fill="none" xmlns="http://www.w3.org/2000/svg">
<g clip-path="url(#clip0_1_11079)">
<path d="M16.5948 13.1841V15.4341C16.5956 15.643 16.5529 15.8497 16.4692 16.0411C16.3855 16.2325 16.2628 16.4043 16.1089 16.5455C15.9549 16.6867 15.7732 16.7942 15.5754 16.8611C15.3775 16.928 15.1678 16.9529 14.9598 16.9341C12.6519 16.6833 10.435 15.8947 8.4873 14.6316C6.67517 13.4801 5.1388 11.9437 3.9873 10.1316C2.71978 8.175 1.93098 5.94734 1.6848 3.62909C1.66606 3.42169 1.6907 3.21266 1.75717 3.01531C1.82364 2.81796 1.93048 2.63661 2.07087 2.48281C2.21127 2.32901 2.38215 2.20612 2.57264 2.12198C2.76313 2.03784 2.96905 1.99429 3.1773 1.99409H5.4273C5.79128 1.99051 6.14414 2.1194 6.42012 2.35674C6.6961 2.59408 6.87636 2.92368 6.9273 3.28409C7.02227 4.00414 7.19839 4.71114 7.4523 5.39159C7.55321 5.66003 7.57505 5.95178 7.51523 6.23225C7.45541 6.51273 7.31645 6.77017 7.1148 6.97409L6.1623 7.92659C7.22997 9.80425 8.78464 11.3589 10.6623 12.4266L11.6148 11.4741C11.8187 11.2724 12.0762 11.1335 12.3566 11.0737C12.6371 11.0138 12.9289 11.0357 13.1973 11.1366C13.8778 11.3905 14.5848 11.5666 15.3048 11.6616C15.6691 11.713 16.0019 11.8965 16.2397 12.1772C16.4775 12.4579 16.6039 12.8163 16.5948 13.1841Z" stroke="#98A2B3" stroke-width="1.5" stroke-linecap="round" stroke-linejoin="round"/>
</g>
<defs>
<clipPath id="clip0_1_11079">
<rect width="18" height="18" fill="white" transform="translate(0.0952148 0.494019)"/>
</clipPath>
</defs>
</svg>
