<svg width="19" height="19" viewBox="0 0 19 19" fill="none" xmlns="http://www.w3.org/2000/svg">
<path d="M11.3486 1.99414V3.04414C11.3486 3.46418 11.3486 3.6742 11.2669 3.83463C11.195 3.97576 11.0802 4.09049 10.9391 4.1624C10.7787 4.24414 10.5687 4.24414 10.1486 4.24414H8.04863C7.62859 4.24414 7.41857 4.24414 7.25814 4.1624C7.11702 4.09049 7.00228 3.97576 6.93038 3.83463C6.84863 3.6742 6.84863 3.46418 6.84863 3.04414V1.99414M6.24863 16.9941H11.9486C12.7887 16.9941 13.2088 16.9941 13.5296 16.8307C13.8119 16.6868 14.0413 16.4574 14.1851 16.1751C14.3486 15.8543 14.3486 15.4342 14.3486 14.5941V4.39414C14.3486 3.55406 14.3486 3.13402 14.1851 2.81315C14.0413 2.53091 13.8119 2.30144 13.5296 2.15763C13.2088 1.99414 12.7887 1.99414 11.9486 1.99414H6.24863C5.40855 1.99414 4.98851 1.99414 4.66765 2.15763C4.3854 2.30144 4.15593 2.53091 4.01212 2.81315C3.84863 3.13402 3.84863 3.55406 3.84863 4.39414V14.5941C3.84863 15.4342 3.84863 15.8543 4.01212 16.1751C4.15593 16.4574 4.3854 16.6868 4.66765 16.8307C4.98851 16.9941 5.40855 16.9941 6.24863 16.9941Z" stroke="#98A2B3" stroke-width="1.5" stroke-linecap="round" stroke-linejoin="round"/>
</svg>
