<svg width="19" height="19" viewBox="0 0 19 19" fill="none" xmlns="http://www.w3.org/2000/svg">
<g clip-path="url(#clip0_1_10853)">
<path d="M12.1104 1.99414V6.49414M12.1104 6.49414H16.6104M12.1104 6.49414L17.3604 1.24414M16.6104 13.1841V15.4341C16.6113 15.643 16.5685 15.8498 16.4848 16.0412C16.4011 16.2325 16.2784 16.4043 16.1245 16.5455C15.9706 16.6867 15.7889 16.7943 15.591 16.8612C15.3931 16.9281 15.1835 16.9529 14.9754 16.9341C12.6675 16.6834 10.4507 15.8947 8.50292 14.6316C6.69079 13.4801 5.15443 11.9438 4.00292 10.1316C2.73541 8.17504 1.94661 5.94739 1.70042 3.62914C1.68168 3.42174 1.70633 3.21271 1.7728 3.01536C1.83927 2.81801 1.9461 2.63666 2.0865 2.48286C2.22689 2.32906 2.39778 2.20617 2.58827 2.12203C2.77876 2.03789 2.98468 1.99434 3.19292 1.99414H5.44292C5.8069 1.99056 6.15977 2.11945 6.43575 2.35679C6.71172 2.59413 6.89198 2.92373 6.94292 3.28414C7.03789 4.00419 7.21401 4.71119 7.46792 5.39164C7.56883 5.66008 7.59067 5.95183 7.53085 6.2323C7.47104 6.51278 7.33207 6.77022 7.13042 6.97414L6.17792 7.92664C7.24559 9.8043 8.80026 11.359 10.6779 12.4266L11.6304 11.4741C11.8343 11.2725 12.0918 11.1335 12.3723 11.0737C12.6527 11.0139 12.9445 11.0357 13.2129 11.1366C13.8934 11.3906 14.6004 11.5667 15.3204 11.6616C15.6847 11.713 16.0175 11.8965 16.2553 12.1773C16.4932 12.458 16.6196 12.8163 16.6104 13.1841Z" stroke="#98A2B3" stroke-width="1.5" stroke-linecap="round" stroke-linejoin="round"/>
</g>
<defs>
<clipPath id="clip0_1_10853">
<rect width="18" height="18" fill="white" transform="translate(0.111328 0.494019)"/>
</clipPath>
</defs>
</svg>
