<svg width="19" height="19" viewBox="0 0 19 19" fill="none" xmlns="http://www.w3.org/2000/svg">
<g clip-path="url(#clip0_1_10027)">
<path d="M15.1262 7.99402V2.74402M11.3762 7.99402V2.74402M7.79645 10.8913C6.89526 9.99014 6.18367 8.97116 5.66167 7.88394C5.61677 7.79042 5.59432 7.74366 5.57708 7.6845C5.51578 7.47423 5.55981 7.21604 5.68732 7.03796C5.7232 6.98786 5.76606 6.94499 5.8518 6.85925C6.114 6.59705 6.24511 6.46595 6.33082 6.33411C6.65407 5.83695 6.65407 5.19601 6.33082 4.69884C6.24511 4.56701 6.114 4.43591 5.8518 4.1737L5.70565 4.02755C5.30706 3.62897 5.10777 3.42968 4.89374 3.32142C4.46807 3.10612 3.96537 3.10612 3.5397 3.32142C3.32566 3.42968 3.12637 3.62897 2.72779 4.02755L2.60956 4.14578C2.21235 4.54299 2.01374 4.7416 1.86205 5.01163C1.69374 5.31126 1.57271 5.77662 1.57374 6.12029C1.57466 6.43 1.63474 6.64167 1.75489 7.065C2.40062 9.34005 3.61897 11.4868 5.40996 13.2778C7.20095 15.0688 9.34772 16.2871 11.6228 16.9329C12.0461 17.053 12.2578 17.1131 12.5675 17.114C12.9111 17.1151 13.3765 16.994 13.6761 16.8257C13.9462 16.674 14.1448 16.4754 14.542 16.0782L14.6602 15.96C15.0588 15.5614 15.2581 15.3621 15.3663 15.1481C15.5817 14.7224 15.5817 14.2197 15.3663 13.794C15.2581 13.58 15.0588 13.3807 14.6602 12.9821L14.5141 12.836C14.2519 12.5738 14.1208 12.4427 13.9889 12.3569C13.4918 12.0337 12.8508 12.0337 12.3537 12.3569C12.2218 12.4427 12.0907 12.5738 11.8285 12.836C11.7428 12.9217 11.6999 12.9646 11.6498 13.0004C11.4717 13.128 11.2135 13.172 11.0033 13.1107C10.9441 13.0934 10.8973 13.071 10.8038 13.0261C9.71661 12.5041 8.69763 11.7925 7.79645 10.8913Z" stroke="#98A2B3" stroke-width="1.5" stroke-linecap="round" stroke-linejoin="round"/>
</g>
<defs>
<clipPath id="clip0_1_10027">
<rect width="18" height="18" fill="white" transform="translate(0.126465 0.494019)"/>
</clipPath>
</defs>
</svg>
