<svg width="19" height="19" viewBox="0 0 19 19" fill="none" xmlns="http://www.w3.org/2000/svg">
<g clip-path="url(#clip0_1_10969)">
<path d="M4.01115 10.1016C2.74804 8.15389 1.95942 5.93702 1.70865 3.62914C1.68991 3.42174 1.71456 3.21271 1.78103 3.01536C1.8475 2.81801 1.95433 2.63666 2.09473 2.48286C2.23512 2.32906 2.40601 2.20617 2.5965 2.12203C2.78699 2.03789 2.99291 1.99434 3.20115 1.99414H5.45115C5.81513 1.99056 6.168 2.11945 6.44397 2.35679C6.71995 2.59413 6.90021 2.92373 6.95115 3.28414C7.04612 4.00419 7.22224 4.71119 7.47615 5.39164C7.57706 5.66008 7.5989 5.95183 7.53908 6.2323C7.47927 6.51278 7.3403 6.77022 7.13865 6.97414L6.18615 7.92664M17.3687 1.24414L0.868652 17.7441M8.12865 10.4766C8.88979 11.2385 9.75002 11.8943 10.6862 12.4266L11.6387 11.4741C11.8426 11.2725 12.1 11.1335 12.3805 11.0737C12.661 11.0139 12.9527 11.0357 13.2212 11.1366C13.9016 11.3906 14.6086 11.5667 15.3287 11.6616C15.6891 11.7126 16.0187 11.8928 16.256 12.1688C16.4933 12.4448 16.6222 12.7977 16.6187 13.1616V15.4116C16.6195 15.6205 16.5767 15.8273 16.493 16.0187C16.4094 16.21 16.2866 16.3818 16.1327 16.523C15.9788 16.6642 15.7971 16.7718 15.5992 16.8387C15.4013 16.9056 15.1917 16.9304 14.9837 16.9116C12.6758 16.6609 10.4589 15.8722 8.51115 14.6091C7.60761 14.0354 6.77005 13.3639 6.01365 12.6066L8.12865 10.4766Z" stroke="#98A2B3" stroke-width="1.5" stroke-linecap="round" stroke-linejoin="round"/>
</g>
<defs>
<clipPath id="clip0_1_10969">
<rect width="18" height="18" fill="white" transform="translate(0.118652 0.494019)"/>
</clipPath>
</defs>
</svg>
