<svg width="19" height="19" viewBox="0 0 19 19" fill="none" xmlns="http://www.w3.org/2000/svg">
<path d="M6.87798 7.13403C7.39998 8.22125 8.11157 9.24023 9.01275 10.1414C9.91394 11.0426 10.9329 11.7542 12.0201 12.2762C12.1137 12.3211 12.1604 12.3435 12.2196 12.3608C12.4298 12.4221 12.688 12.3781 12.8661 12.2505C12.9162 12.2147 12.9591 12.1718 13.0448 12.0861C13.307 11.8239 13.4381 11.6928 13.57 11.607C14.0671 11.2838 14.7081 11.2838 15.2052 11.607C15.3371 11.6928 15.4682 11.8239 15.7304 12.0861L15.8765 12.2322C16.2751 12.6308 16.4744 12.8301 16.5827 13.0441C16.798 13.4698 16.798 13.9725 16.5827 14.3982C16.4744 14.6122 16.2751 14.8115 15.8765 15.2101L15.7583 15.3283C15.3611 15.7255 15.1625 15.9241 14.8924 16.0758C14.5928 16.2441 14.1275 16.3651 13.7838 16.3641C13.4741 16.3632 13.2624 16.3031 12.8391 16.183C10.564 15.5372 8.41725 14.3189 6.62627 12.5279C4.83528 10.7369 3.61693 8.59014 2.9712 6.3151C2.85104 5.89176 2.79097 5.68009 2.79005 5.37038C2.78902 5.02672 2.91004 4.56135 3.07836 4.26172C3.23005 3.99169 3.42865 3.79309 3.82587 3.39587L3.9441 3.27764C4.34268 2.87906 4.54197 2.67977 4.75601 2.57151C5.18168 2.35621 5.68438 2.35621 6.11005 2.57151C6.32408 2.67977 6.52337 2.87906 6.92196 3.27764L7.06811 3.42379C7.33031 3.686 7.46141 3.8171 7.54713 3.94893C7.87037 4.4461 7.87038 5.08704 7.54713 5.58421C7.46141 5.71604 7.33031 5.84714 7.06811 6.10935C6.98237 6.19508 6.93951 6.23795 6.90363 6.28806C6.77612 6.46613 6.73209 6.72432 6.79338 6.93459C6.81063 6.99376 6.83308 7.04052 6.87798 7.13403Z" stroke="#98A2B3" stroke-width="1.5" stroke-linecap="round" stroke-linejoin="round"/>
</svg>
