<svg width="19" height="19" viewBox="0 0 19 19" fill="none" xmlns="http://www.w3.org/2000/svg">
<path d="M4.24799 4.99402C5.60918 3.6055 7.50602 2.74402 9.60406 2.74402C11.7021 2.74402 13.5989 3.6055 14.9601 4.99402M12.9582 7.24402C12.1342 6.3234 10.9368 5.74402 9.60404 5.74402C8.27129 5.74402 7.07386 6.3234 6.24988 7.24402M9.604 13.244C10.7369 13.244 11.8246 13.4372 12.836 13.7925C12.8697 13.8043 12.8865 13.8102 12.913 13.8219C13.1535 13.9278 13.3381 14.1884 13.3584 14.4503C13.3606 14.4792 13.3606 14.5048 13.3606 14.556C13.3606 14.7306 13.3606 14.8179 13.3679 14.8914C13.4382 15.6033 14.0013 16.1665 14.7132 16.2368C14.7867 16.244 14.874 16.244 15.0486 16.244H15.2323C15.5777 16.244 15.7504 16.244 15.8941 16.2157C16.4912 16.098 16.958 15.6312 17.0757 15.0341C17.104 14.8904 17.104 14.7177 17.104 14.3723V14.2237C17.104 13.8672 17.104 13.689 17.0659 13.4847C16.9808 13.0279 16.6489 12.4627 16.2915 12.1658C16.1316 12.0331 16.0232 11.9726 15.8064 11.8517C13.9705 10.8276 11.8554 10.244 9.604 10.244C7.3526 10.244 5.23748 10.8276 3.40166 11.8517C3.18483 11.9726 3.07641 12.0331 2.91655 12.1658C2.55907 12.4627 2.22716 13.0279 2.14206 13.4847C2.104 13.689 2.104 13.8672 2.104 14.2237V14.3723C2.104 14.7177 2.104 14.8904 2.13232 15.0341C2.25002 15.6312 2.71682 16.098 3.31391 16.2157C3.45758 16.244 3.63028 16.244 3.9757 16.244H4.15943C4.334 16.244 4.42128 16.244 4.4948 16.2368C5.20667 16.1665 5.76985 15.6033 5.84015 14.8914C5.8474 14.8179 5.8474 14.7306 5.8474 14.556C5.8474 14.5048 5.8474 14.4792 5.84964 14.4503C5.86992 14.1884 6.05456 13.9278 6.29499 13.8219C6.32151 13.8102 6.33833 13.8043 6.37196 13.7925C7.38341 13.4372 8.47115 13.244 9.604 13.244Z" stroke="#98A2B3" stroke-width="1.5" stroke-linecap="round" stroke-linejoin="round"/>
</svg>
