<svg width="19" height="19" viewBox="0 0 19 19" fill="none" xmlns="http://www.w3.org/2000/svg">
<g clip-path="url(#clip0_1_10023)">
<path d="M15.8728 6.49402V2.74402M15.8728 2.74402H12.1228M15.8728 2.74402L11.3728 7.24402M7.79303 10.8913C6.89184 9.99014 6.18025 8.97116 5.65825 7.88394C5.61335 7.79042 5.59091 7.74366 5.57366 7.6845C5.51236 7.47423 5.55639 7.21604 5.6839 7.03796C5.71978 6.98786 5.76265 6.94499 5.84838 6.85925C6.11059 6.59705 6.24169 6.46595 6.3274 6.33411C6.65065 5.83695 6.65065 5.19601 6.3274 4.69884C6.24169 4.56701 6.11059 4.43591 5.84838 4.1737L5.70223 4.02755C5.30365 3.62897 5.10436 3.42968 4.89032 3.32142C4.46465 3.10612 3.96195 3.10612 3.53628 3.32142C3.32224 3.42968 3.12295 3.62897 2.72437 4.02755L2.60614 4.14578C2.20893 4.54299 2.01032 4.7416 1.85863 5.01163C1.69032 5.31126 1.5693 5.77662 1.57032 6.12029C1.57124 6.43 1.63132 6.64167 1.75147 7.065C2.3972 9.34005 3.61556 11.4868 5.40654 13.2778C7.19753 15.0688 9.3443 16.2871 11.6193 16.9329C12.0427 17.053 12.2543 17.1131 12.5641 17.114C12.9077 17.1151 13.3731 16.994 13.6727 16.8257C13.9427 16.674 14.1414 16.4754 14.5386 16.0782L14.6568 15.96C15.0554 15.5614 15.2547 15.3621 15.3629 15.1481C15.5782 14.7224 15.5782 14.2197 15.3629 13.794C15.2547 13.58 15.0554 13.3807 14.6568 12.9821L14.5106 12.836C14.2484 12.5738 14.1173 12.4427 13.9855 12.3569C13.4883 12.0337 12.8474 12.0337 12.3502 12.3569C12.2184 12.4427 12.0873 12.5738 11.8251 12.836C11.7394 12.9217 11.6965 12.9646 11.6464 13.0004C11.4683 13.128 11.2101 13.172 10.9999 13.1107C10.9407 13.0934 10.8939 13.071 10.8004 13.0261C9.71319 12.5041 8.69421 11.7925 7.79303 10.8913Z" stroke="#98A2B3" stroke-width="1.5" stroke-linecap="round" stroke-linejoin="round"/>
</g>
<defs>
<clipPath id="clip0_1_10023">
<rect width="18" height="18" fill="white" transform="translate(0.122559 0.494019)"/>
</clipPath>
</defs>
</svg>
