<svg width="19" height="19" viewBox="0 0 19 19" fill="none" xmlns="http://www.w3.org/2000/svg">
<path d="M13.3786 8.74402V2.74402M10.3786 5.74402H16.3786M8.29889 10.8913C7.3977 9.99014 6.68611 8.97116 6.16411 7.88394C6.11921 7.79042 6.09676 7.74366 6.07952 7.6845C6.01822 7.47423 6.06225 7.21604 6.18976 7.03796C6.22564 6.98786 6.26851 6.94499 6.35424 6.85925C6.61645 6.59705 6.74755 6.46595 6.83326 6.33411C7.15651 5.83695 7.15651 5.19601 6.83326 4.69884C6.74755 4.56701 6.61645 4.43591 6.35424 4.1737L6.20809 4.02755C5.80951 3.62897 5.61022 3.42968 5.39618 3.32142C4.97051 3.10612 4.46781 3.10612 4.04214 3.32142C3.8281 3.42968 3.62881 3.62897 3.23023 4.02755L3.112 4.14578C2.71479 4.54299 2.51618 4.7416 2.36449 5.01163C2.19618 5.31126 2.07516 5.77662 2.07618 6.12029C2.0771 6.43 2.13718 6.64167 2.25733 7.065C2.90306 9.34005 4.12142 11.4868 5.9124 13.2778C7.70339 15.0688 9.85016 16.2871 12.1252 16.9329C12.5485 17.053 12.7602 17.1131 13.0699 17.114C13.4136 17.1151 13.879 16.994 14.1786 16.8257C14.4486 16.674 14.6472 16.4754 15.0444 16.0782L15.1627 15.96C15.5612 15.5614 15.7605 15.3621 15.8688 15.1481C16.0841 14.7224 16.0841 14.2197 15.8688 13.794C15.7605 13.58 15.5612 13.3807 15.1627 12.9821L15.0165 12.836C14.7543 12.5738 14.6232 12.4427 14.4914 12.3569C13.9942 12.0337 13.3533 12.0337 12.8561 12.3569C12.7243 12.4427 12.5932 12.5738 12.331 12.836C12.2452 12.9217 12.2024 12.9646 12.1522 13.0004C11.9742 13.128 11.716 13.172 11.5057 13.1107C11.4465 13.0934 11.3998 13.071 11.3063 13.0261C10.2191 12.5041 9.20007 11.7925 8.29889 10.8913Z" stroke="#98A2B3" stroke-width="1.5" stroke-linecap="round" stroke-linejoin="round"/>
</svg>
