<svg width="19" height="19" viewBox="0 0 19 19" fill="none" xmlns="http://www.w3.org/2000/svg">
<g clip-path="url(#clip0_1_10021)">
<path d="M12.4895 2.74402L9.86446 5.36902M9.86446 5.36902L12.4895 7.99402M9.86446 5.36902H15.8645M7.78473 10.8913C6.88354 9.99014 6.17195 8.97116 5.64995 7.88394C5.60505 7.79042 5.5826 7.74366 5.56536 7.6845C5.50406 7.47423 5.54809 7.21604 5.6756 7.03796C5.71148 6.98786 5.75435 6.94499 5.84008 6.85925C6.10229 6.59705 6.23339 6.46595 6.3191 6.33411C6.64235 5.83695 6.64235 5.19601 6.3191 4.69884C6.23339 4.56701 6.10229 4.43591 5.84008 4.1737L5.69393 4.02755C5.29535 3.62897 5.09606 3.42968 4.88202 3.32142C4.45635 3.10612 3.95365 3.10612 3.52798 3.32142C3.31394 3.42968 3.11465 3.62897 2.71607 4.02755L2.59784 4.14578C2.20063 4.54299 2.00202 4.7416 1.85033 5.01163C1.68202 5.31126 1.561 5.77662 1.56202 6.12029C1.56294 6.43 1.62302 6.64167 1.74317 7.065C2.3889 9.34005 3.60726 11.4868 5.39824 13.2778C7.18923 15.0688 9.336 16.2871 11.611 16.9329C12.0344 17.053 12.246 17.1131 12.5558 17.114C12.8994 17.1151 13.3648 16.994 13.6644 16.8257C13.9344 16.674 14.1331 16.4754 14.5303 16.0782L14.6485 15.96C15.0471 15.5614 15.2464 15.3621 15.3546 15.1481C15.5699 14.7224 15.5699 14.2197 15.3546 13.794C15.2464 13.58 15.0471 13.3807 14.6485 12.9821L14.5023 12.836C14.2401 12.5738 14.109 12.4427 13.9772 12.3569C13.48 12.0337 12.8391 12.0337 12.3419 12.3569C12.2101 12.4427 12.079 12.5738 11.8168 12.836C11.7311 12.9217 11.6882 12.9646 11.6381 13.0004C11.46 13.128 11.2018 13.172 10.9916 13.1107C10.9324 13.0934 10.8856 13.071 10.7921 13.0261C9.70489 12.5041 8.68591 11.7925 7.78473 10.8913Z" stroke="#98A2B3" stroke-width="1.5" stroke-linecap="round" stroke-linejoin="round"/>
</g>
<defs>
<clipPath id="clip0_1_10021">
<rect width="18" height="18" fill="white" transform="translate(0.114746 0.494019)"/>
</clipPath>
</defs>
</svg>
