<svg width="19" height="19" viewBox="0 0 19 19" fill="none" xmlns="http://www.w3.org/2000/svg">
<g clip-path="url(#clip0_1_10031)">
<path d="M15.8801 2.74402L11.3801 7.24402M11.3801 2.74402L15.8801 7.24402M7.80035 10.8913C6.89917 9.99014 6.18758 8.97116 5.66558 7.88394C5.62068 7.79042 5.59823 7.74366 5.58098 7.6845C5.51969 7.47423 5.56372 7.21604 5.69122 7.03796C5.7271 6.98786 5.76997 6.94499 5.85571 6.85925C6.11791 6.59705 6.24901 6.46595 6.33473 6.33411C6.65797 5.83695 6.65797 5.19601 6.33473 4.69884C6.24901 4.56701 6.11791 4.43591 5.85571 4.1737L5.70955 4.02755C5.31097 3.62897 5.11168 3.42968 4.89764 3.32142C4.47197 3.10612 3.96928 3.10612 3.5436 3.32142C3.32957 3.42968 3.13028 3.62897 2.7317 4.02755L2.61347 4.14578C2.21625 4.54299 2.01764 4.7416 1.86596 5.01163C1.69764 5.31126 1.57662 5.77662 1.57764 6.12029C1.57856 6.43 1.63864 6.64167 1.7588 7.065C2.40453 9.34005 3.62288 11.4868 5.41387 13.2778C7.20485 15.0688 9.35162 16.2871 11.6267 16.9329C12.05 17.053 12.2617 17.1131 12.5714 17.114C12.9151 17.1151 13.3804 16.994 13.68 16.8257C13.9501 16.674 14.1487 16.4754 14.5459 16.0782L14.6641 15.96C15.0627 15.5614 15.262 15.3621 15.3703 15.1481C15.5856 14.7224 15.5856 14.2197 15.3703 13.794C15.262 13.58 15.0627 13.3807 14.6641 12.9821L14.518 12.836C14.2558 12.5738 14.1247 12.4427 13.9928 12.3569C13.4957 12.0337 12.8547 12.0337 12.3576 12.3569C12.2257 12.4427 12.0946 12.5738 11.8324 12.836C11.7467 12.9217 11.7038 12.9646 11.6537 13.0004C11.4756 13.128 11.2174 13.172 11.0072 13.1107C10.948 13.0934 10.9013 13.071 10.8077 13.0261C9.72052 12.5041 8.70154 11.7925 7.80035 10.8913Z" stroke="#98A2B3" stroke-width="1.5" stroke-linecap="round" stroke-linejoin="round"/>
</g>
<defs>
<clipPath id="clip0_1_10031">
<rect width="18" height="18" fill="white" transform="translate(0.130859 0.494019)"/>
</clipPath>
</defs>
</svg>
