<svg width="19" height="19" viewBox="0 0 19 19" fill="none" xmlns="http://www.w3.org/2000/svg">
<g clip-path="url(#clip0_1_10013)">
<path d="M10.6403 4.99414C11.3728 5.13707 12.0461 5.49533 12.5738 6.02309C13.1016 6.55085 13.4599 7.22409 13.6028 7.95664M10.6403 1.99414C12.1622 2.16322 13.5815 2.84477 14.665 3.9269C15.7484 5.00902 16.4318 6.4274 16.6028 7.94914M7.77301 10.8914C6.87183 9.99026 6.16023 8.97128 5.63824 7.88406C5.59334 7.79055 5.57089 7.74379 5.55364 7.68462C5.49234 7.47435 5.53637 7.21616 5.66388 7.03809C5.69976 6.98798 5.74263 6.94511 5.82836 6.85938C6.09057 6.59717 6.22167 6.46607 6.30738 6.33424C6.63063 5.83707 6.63063 5.19613 6.30738 4.69896C6.22167 4.56713 6.09057 4.43603 5.82836 4.17382L5.68221 4.02767C5.28363 3.62909 5.08434 3.4298 4.8703 3.32154C4.44463 3.10624 3.94193 3.10624 3.51626 3.32154C3.30222 3.4298 3.10293 3.62909 2.70435 4.02767L2.58613 4.1459C2.18891 4.54312 1.9903 4.74172 1.83861 5.01175C1.6703 5.31138 1.54928 5.77675 1.5503 6.12041C1.55122 6.43012 1.6113 6.64179 1.73145 7.06513C2.37718 9.34017 3.59554 11.4869 5.38652 13.2779C7.17751 15.0689 9.32428 16.2873 11.5993 16.933C12.0227 17.0532 12.2343 17.1132 12.544 17.1142C12.8877 17.1152 13.3531 16.9942 13.6527 16.8258C13.9227 16.6742 14.1213 16.4755 14.5186 16.0783L14.6368 15.9601C15.0354 15.5615 15.2347 15.3622 15.3429 15.1482C15.5582 14.7225 15.5582 14.2198 15.3429 13.7942C15.2347 13.5801 15.0354 13.3808 14.6368 12.9822L14.4906 12.8361C14.2284 12.5739 14.0973 12.4428 13.9655 12.3571C13.4683 12.0338 12.8274 12.0338 12.3302 12.3571C12.1984 12.4428 12.0673 12.5739 11.8051 12.8361C11.7193 12.9218 11.6765 12.9647 11.6264 13.0006C11.4483 13.1281 11.1901 13.1721 10.9798 13.1108C10.9207 13.0936 10.8739 13.0711 10.7804 13.0262C9.69317 12.5042 8.67419 11.7926 7.77301 10.8914Z" stroke="#98A2B3" stroke-width="1.5" stroke-linecap="round" stroke-linejoin="round"/>
</g>
<defs>
<clipPath id="clip0_1_10013">
<rect width="18" height="18" fill="white" transform="translate(0.103027 0.494019)"/>
</clipPath>
</defs>
</svg>
