<svg width="19" height="19" viewBox="0 0 19 19" fill="none" xmlns="http://www.w3.org/2000/svg">
<g clip-path="url(#clip0_1_10907)">
<path d="M17.8668 1.24414L13.3668 5.74414M13.3668 1.24414L17.8668 5.74414M17.1168 13.1841V15.4341C17.1176 15.643 17.0748 15.8498 16.9912 16.0412C16.9075 16.2325 16.7847 16.4043 16.6308 16.5455C16.4769 16.6867 16.2952 16.7943 16.0973 16.8612C15.8995 16.9281 15.6898 16.9529 15.4818 16.9341C13.1739 16.6834 10.957 15.8947 9.00927 14.6316C7.19714 13.4801 5.66077 11.9438 4.50927 10.1316C3.24175 8.17504 2.45295 5.94739 2.20677 3.62914C2.18803 3.42174 2.21268 3.21271 2.27915 3.01536C2.34562 2.81801 2.45245 2.63666 2.59285 2.48286C2.73324 2.32906 2.90412 2.20617 3.09461 2.12203C3.2851 2.03789 3.49103 1.99434 3.69927 1.99414H5.94927C6.31325 1.99056 6.66612 2.11945 6.94209 2.35679C7.21807 2.59413 7.39833 2.92373 7.44927 3.28414C7.54424 4.00419 7.72036 4.71119 7.97427 5.39164C8.07518 5.66008 8.09702 5.95183 8.0372 6.2323C7.97738 6.51278 7.83842 6.77022 7.63677 6.97414L6.68427 7.92664C7.75194 9.8043 9.30661 11.359 11.1843 12.4266L12.1368 11.4741C12.3407 11.2725 12.5981 11.1335 12.8786 11.0737C13.1591 11.0139 13.4508 11.0357 13.7193 11.1366C14.3997 11.3906 15.1067 11.5667 15.8268 11.6616C16.1911 11.713 16.5238 11.8965 16.7617 12.1773C16.9995 12.458 17.1259 12.8163 17.1168 13.1841Z" stroke="#98A2B3" stroke-width="1.5" stroke-linecap="round" stroke-linejoin="round"/>
</g>
<defs>
<clipPath id="clip0_1_10907">
<rect width="18" height="18" fill="white" transform="translate(0.617188 0.494019)"/>
</clipPath>
</defs>
</svg>
