<svg width="19" height="19" viewBox="0 0 19 19" fill="none" xmlns="http://www.w3.org/2000/svg">
<path d="M4.71545 10.1414C3.94225 8.94078 3.36621 7.65002 2.98731 6.3151C2.86716 5.89176 2.80708 5.68009 2.80616 5.37038C2.80514 5.02672 2.92616 4.56135 3.09447 4.26172C3.24616 3.99169 3.44477 3.79309 3.84199 3.39587L3.96021 3.27764C4.35879 2.87906 4.55808 2.67977 4.77212 2.57151C5.19779 2.35621 5.70049 2.35621 6.12616 2.57151C6.3402 2.67977 6.53949 2.87906 6.93807 3.27764L7.08422 3.42379C7.34643 3.686 7.47753 3.8171 7.56324 3.94894C7.88649 4.4461 7.88649 5.08704 7.56324 5.58421C7.47753 5.71604 7.34643 5.84714 7.08422 6.10935C6.99849 6.19508 6.95562 6.23795 6.91974 6.28806C6.79223 6.46613 6.7482 6.72433 6.8095 6.93459C6.82674 6.99376 6.8492 7.04052 6.8941 7.13404C6.98472 7.32279 7.08106 7.50949 7.18311 7.69386M8.99516 10.1076L9.02887 10.1414C9.93005 11.0426 10.949 11.7542 12.0362 12.2762C12.1298 12.3211 12.1765 12.3435 12.2357 12.3608C12.446 12.4221 12.7042 12.3781 12.8822 12.2505C12.9323 12.2147 12.9752 12.1718 13.0609 12.0861C13.3231 11.8239 13.4542 11.6928 13.5861 11.607C14.0832 11.2838 14.7242 11.2838 15.2213 11.607C15.3532 11.6928 15.4843 11.8239 15.7465 12.0861L15.8926 12.2322C16.2912 12.6308 16.4905 12.8301 16.5988 13.0441C16.8141 13.4698 16.8141 13.9725 16.5988 14.3982C16.4905 14.6122 16.2912 14.8115 15.8926 15.2101L15.7744 15.3283C15.3772 15.7255 15.1786 15.9241 14.9086 16.0758C14.6089 16.2441 14.1436 16.3651 13.7999 16.3641C13.4902 16.3632 13.2785 16.3031 12.8552 16.183C10.5801 15.5372 8.43337 14.3189 6.64238 12.5279L6.60871 12.4941M16.3586 2.74411L2.8586 16.2441" stroke="#98A2B3" stroke-width="1.5" stroke-linecap="round" stroke-linejoin="round"/>
</svg>
