<svg width="19" height="19" viewBox="0 0 19 19" fill="none" xmlns="http://www.w3.org/2000/svg">
<path d="M9.59717 13.6191H9.60467M6.74717 16.9941H12.4472C13.2872 16.9941 13.7073 16.9941 14.0282 16.8307C14.3104 16.6868 14.5399 16.4574 14.6837 16.1751C14.8472 15.8543 14.8472 15.4342 14.8472 14.5941V4.39414C14.8472 3.55406 14.8472 3.13402 14.6837 2.81315C14.5399 2.53091 14.3104 2.30144 14.0282 2.15763C13.7073 1.99414 13.2872 1.99414 12.4472 1.99414H6.74717C5.90709 1.99414 5.48705 1.99414 5.16618 2.15763C4.88394 2.30144 4.65447 2.53091 4.51066 2.81315C4.34717 3.13402 4.34717 3.55406 4.34717 4.39414V14.5941C4.34717 15.4342 4.34717 15.8543 4.51066 16.1751C4.65447 16.4574 4.88394 16.6868 5.16618 16.8307C5.48705 16.9941 5.90709 16.9941 6.74717 16.9941ZM9.97217 13.6191C9.97217 13.8262 9.80428 13.9941 9.59717 13.9941C9.39006 13.9941 9.22217 13.8262 9.22217 13.6191C9.22217 13.412 9.39006 13.2441 9.59717 13.2441C9.80428 13.2441 9.97217 13.412 9.97217 13.6191Z" stroke="#98A2B3" stroke-width="1.5" stroke-linecap="round" stroke-linejoin="round"/>
</svg>
