<svg width="19" height="19" viewBox="0 0 19 19" fill="none" xmlns="http://www.w3.org/2000/svg">
<path d="M13.7492 2.74402L16.3742 5.36902M16.3742 5.36902L13.7492 7.99402M16.3742 5.36902H10.3742M8.29449 10.8913C7.39331 9.99014 6.68172 8.97116 6.15972 7.88394C6.11482 7.79042 6.09237 7.74366 6.07512 7.6845C6.01383 7.47423 6.05786 7.21604 6.18536 7.03796C6.22125 6.98786 6.26411 6.94499 6.34985 6.85925C6.61205 6.59705 6.74315 6.46595 6.82887 6.33411C7.15211 5.83695 7.15211 5.19601 6.82887 4.69884C6.74315 4.56701 6.61205 4.43591 6.34985 4.1737L6.20369 4.02755C5.80511 3.62897 5.60582 3.42968 5.39179 3.32142C4.96612 3.10612 4.46342 3.10612 4.03774 3.32142C3.82371 3.42968 3.62442 3.62897 3.22584 4.02755L3.10761 4.14578C2.71039 4.54299 2.51178 4.7416 2.3601 5.01163C2.19178 5.31126 2.07076 5.77662 2.07178 6.12029C2.0727 6.43 2.13278 6.64167 2.25294 7.065C2.89867 9.34005 4.11702 11.4868 5.90801 13.2778C7.69899 15.0688 9.84576 16.2871 12.1208 16.9329C12.5441 17.053 12.7558 17.1131 13.0655 17.114C13.4092 17.1151 13.8746 16.994 14.1742 16.8257C14.4442 16.674 14.6428 16.4754 15.04 16.0782L15.1583 15.96C15.5568 15.5614 15.7561 15.3621 15.8644 15.1481C16.0797 14.7224 16.0797 14.2197 15.8644 13.794C15.7561 13.58 15.5568 13.3807 15.1583 12.9821L15.0121 12.836C14.7499 12.5738 14.6188 12.4427 14.487 12.3569C13.9898 12.0337 13.3489 12.0337 12.8517 12.3569C12.7199 12.4427 12.5888 12.5738 12.3266 12.836C12.2408 12.9217 12.198 12.9646 12.1479 13.0004C11.9698 13.128 11.7116 13.172 11.5013 13.1107C11.4422 13.0934 11.3954 13.071 11.3019 13.0261C10.2147 12.5041 9.19568 11.7925 8.29449 10.8913Z" stroke="#98A2B3" stroke-width="1.5" stroke-linecap="round" stroke-linejoin="round"/>
</svg>
