<svg width="19" height="19" viewBox="0 0 19 19" fill="none" xmlns="http://www.w3.org/2000/svg">
<path d="M16.5406 12.4116C16.0635 13.5399 15.3172 14.5342 14.367 15.3075C13.4168 16.0809 12.2917 16.6096 11.0899 16.8477C9.88819 17.0857 8.64643 17.0257 7.47323 16.6729C6.30002 16.3202 5.23108 15.6854 4.35988 14.8241C3.48868 13.9628 2.84173 12.9011 2.47559 11.732C2.10946 10.5629 2.03529 9.32194 2.25956 8.11755C2.48384 6.91316 2.99974 5.78204 3.76215 4.82309C4.52456 3.86414 5.51028 3.10656 6.63312 2.61657M16.5622 6.62395C16.8625 7.34879 17.0466 8.11509 17.1091 8.8947C17.1246 9.0873 17.1323 9.1836 17.094 9.27035C17.0621 9.34281 16.9988 9.41138 16.9291 9.44902C16.8457 9.49407 16.7415 9.49407 16.5331 9.49407H10.2331C10.0231 9.49407 9.91809 9.49407 9.83787 9.4532C9.76731 9.41725 9.70994 9.35988 9.67399 9.28932C9.63312 9.2091 9.63312 9.10409 9.63312 8.89407V2.59407C9.63312 2.38567 9.63312 2.28147 9.67817 2.19806C9.71581 2.12838 9.78438 2.06509 9.85684 2.03314C9.94358 1.9949 10.0399 2.00262 10.2325 2.01806C11.0121 2.08056 11.7784 2.26473 12.5032 2.56497C13.4132 2.94188 14.24 3.49433 14.9364 4.19077C15.6329 4.88721 16.1853 5.714 16.5622 6.62395Z" stroke="#98A2B3" stroke-width="1.5" stroke-linecap="round" stroke-linejoin="round"/>
</svg>
