<svg width="19" height="19" viewBox="0 0 19 19" fill="none" xmlns="http://www.w3.org/2000/svg">
<g clip-path="url(#clip0_1_8479)">
<path d="M9.13819 9.49414L1.88702 7.5783C1.42049 9.34403 1.61428 11.2193 2.43204 12.8523C3.24979 14.4854 4.6353 15.7639 6.32864 16.448L9.13819 9.49414ZM9.13819 9.49414L9.21673 1.99455C7.55237 1.97712 5.92949 2.51384 4.6037 3.52017C3.27791 4.5265 2.32454 5.94526 1.89375 7.553L9.13819 9.49414ZM16.6382 9.49414C16.6382 13.6363 13.2803 16.9941 9.13819 16.9941C4.99606 16.9941 1.63819 13.6363 1.63819 9.49414C1.63819 5.35201 4.99606 1.99414 9.13819 1.99414C13.2803 1.99414 16.6382 5.35201 16.6382 9.49414Z" stroke="#98A2B3" stroke-width="1.5" stroke-linecap="round" stroke-linejoin="round"/>
</g>
<defs>
<clipPath id="clip0_1_8479">
<rect width="18" height="18" fill="white" transform="translate(0.138672 0.494019)"/>
</clipPath>
</defs>
</svg>
