<svg width="19" height="19" viewBox="0 0 19 19" fill="none" xmlns="http://www.w3.org/2000/svg">
<path d="M9.63623 1.99414C10.6211 1.99414 11.5964 2.18813 12.5064 2.56504C13.4163 2.94196 14.2431 3.4944 14.9395 4.19084C15.636 4.88728 16.1884 5.71408 16.5653 6.62402C16.9422 7.53396 17.1362 8.50923 17.1362 9.49415M9.63623 1.99414V9.49414M9.63623 1.99414C5.49409 1.99414 2.13623 5.35201 2.13623 9.49414C2.13623 13.6363 5.49409 16.9941 9.63623 16.9941C13.7784 16.9941 17.1362 13.6363 17.1362 9.49415M9.63623 1.99414C13.7784 1.99414 17.1362 5.35201 17.1362 9.49415M17.1362 9.49415L9.63623 9.49414M17.1362 9.49415C17.1362 10.6777 16.8561 11.8445 16.3188 12.8991C15.7814 13.9536 15.0022 14.8661 14.0446 15.5618L9.63623 9.49414" stroke="#98A2B3" stroke-width="1.5" stroke-linecap="round" stroke-linejoin="round"/>
</svg>
