<svg width="19" height="19" viewBox="0 0 19 19" fill="none" xmlns="http://www.w3.org/2000/svg">
<g clip-path="url(#clip0_1_8475)">
<path d="M13.0348 10.994C13.2425 10.994 13.3464 10.994 13.4306 11.0402C13.5 11.0782 13.5647 11.1497 13.5956 11.2226C13.6331 11.3109 13.6237 11.405 13.6048 11.593C13.507 12.5681 13.1714 13.5076 12.6236 14.3274C11.9643 15.3141 11.0272 16.0832 9.93087 16.5373C8.83451 16.9914 7.62811 17.1102 6.46423 16.8787C5.30034 16.6472 4.23124 16.0758 3.39213 15.2367C2.55301 14.3975 1.98157 13.3285 1.75006 12.1646C1.51855 11.0007 1.63737 9.79428 2.09149 8.69792C2.54562 7.60157 3.31465 6.6645 4.30135 6.00521C5.12119 5.45741 6.06071 5.12183 7.03575 5.024C7.22382 5.00513 7.31785 4.99569 7.40623 5.03319C7.47913 5.06412 7.55059 5.12876 7.58864 5.19821C7.63477 5.2824 7.63477 5.38628 7.63477 5.59402V10.394C7.63477 10.604 7.63477 10.7091 7.67564 10.7893C7.71159 10.8598 7.76896 10.9172 7.83952 10.9532C7.91974 10.994 8.02475 10.994 8.23477 10.994H13.0348Z" stroke="#98A2B3" stroke-width="1.5" stroke-linecap="round" stroke-linejoin="round"/>
<path d="M10.6348 2.59402C10.6348 2.38627 10.6348 2.28239 10.6809 2.1982C10.7189 2.12875 10.7904 2.06411 10.8633 2.03318C10.9517 1.99569 11.0457 2.00512 11.2338 2.02398C12.6051 2.16153 13.8943 2.76825 14.8774 3.75138C15.8605 4.73452 16.4673 6.0237 16.6048 7.395C16.6237 7.58308 16.6331 7.67712 16.5956 7.76549C16.5647 7.83839 16.5 7.90984 16.4306 7.94789C16.3464 7.99402 16.2425 7.99402 16.0348 7.99402L11.2348 7.99402C11.0247 7.99402 10.9197 7.99402 10.8395 7.95315C10.769 7.9172 10.7116 7.85983 10.6756 7.78927C10.6348 7.70905 10.6348 7.60404 10.6348 7.39402V2.59402Z" stroke="#98A2B3" stroke-width="1.5" stroke-linecap="round" stroke-linejoin="round"/>
</g>
<defs>
<clipPath id="clip0_1_8475">
<rect width="18" height="18" fill="white" transform="translate(0.134277 0.494019)"/>
</clipPath>
</defs>
</svg>
