<svg width="19" height="19" viewBox="0 0 19 19" fill="none" xmlns="http://www.w3.org/2000/svg">
<path d="M4.39057 10.244C4.39057 11.4803 4.88912 12.6002 5.69613 13.4135C5.77396 13.4919 5.81288 13.5311 5.83585 13.5689C5.85776 13.6049 5.87053 13.6358 5.88031 13.6768C5.89057 13.7198 5.89057 13.7686 5.89057 13.8664V15.644C5.89057 15.854 5.89057 15.959 5.93145 16.0393C5.9674 16.1098 6.02477 16.1672 6.09533 16.2031C6.17554 16.244 6.28055 16.244 6.49057 16.244H7.91557C8.12559 16.244 8.2306 16.244 8.31082 16.2031C8.38138 16.1672 8.43875 16.1098 8.4747 16.0393C8.51557 15.959 8.51557 15.854 8.51557 15.644V15.344C8.51557 15.134 8.51557 15.029 8.55645 14.9488C8.5924 14.8782 8.64977 14.8208 8.72033 14.7849C8.80054 14.744 8.90555 14.744 9.11557 14.744H10.1656C10.3756 14.744 10.4806 14.744 10.5608 14.7849C10.6314 14.8208 10.6887 14.8782 10.7247 14.9488C10.7656 15.029 10.7656 15.134 10.7656 15.344V15.644C10.7656 15.854 10.7656 15.959 10.8064 16.0393C10.8424 16.1098 10.8998 16.1672 10.9703 16.2031C11.0505 16.244 11.1556 16.244 11.3656 16.244H12.7906C13.0006 16.244 13.1057 16.244 13.1859 16.2031C13.2564 16.1672 13.3138 16.1098 13.3498 16.0393C13.3906 15.959 13.3906 15.854 13.3906 15.644V14.9123C13.3906 14.7607 13.3906 14.6849 13.4122 14.6241C13.4329 14.5658 13.4589 14.525 13.5031 14.4817C13.5492 14.4365 13.6273 14.4003 13.7834 14.3278C14.5201 13.9858 15.1487 13.4503 15.604 12.7866C15.684 12.6699 15.7241 12.6116 15.7668 12.5771C15.8077 12.5441 15.8444 12.5248 15.8947 12.5098C15.9473 12.494 16.0098 12.494 16.1347 12.494H16.5406C16.7506 12.494 16.8557 12.494 16.9359 12.4531C17.0064 12.4172 17.0638 12.3598 17.0998 12.2893C17.1406 12.209 17.1406 12.104 17.1406 11.894V9.33333C17.1406 9.13339 17.1406 9.03342 17.1035 8.95629C17.0666 8.87977 17.0049 8.81802 16.9284 8.78116C16.8512 8.74402 16.7513 8.74402 16.5513 8.74402C16.4066 8.74402 16.3342 8.74402 16.2759 8.72437C16.2131 8.70319 16.169 8.67501 16.1234 8.62685C16.0811 8.58219 16.0466 8.5075 15.9776 8.35813C15.756 7.87869 15.4525 7.44485 15.0851 7.07455C15.0072 6.99611 14.9683 6.95689 14.9454 6.91917C14.9234 6.88319 14.9107 6.85221 14.9009 6.81123C14.8906 6.76827 14.8906 6.7194 14.8906 6.62165V5.78945C14.8906 5.51942 14.8906 5.3844 14.8344 5.29365C14.7851 5.21415 14.7079 5.15593 14.618 5.1304C14.5153 5.10126 14.3854 5.13835 14.1258 5.21254L12.3464 5.72093C12.3161 5.72957 12.301 5.73389 12.2856 5.73693C12.272 5.73962 12.2582 5.74155 12.2443 5.74271C12.2287 5.74402 12.213 5.74402 12.1815 5.74402H11.8599M4.39057 10.244C4.39057 8.51597 5.36461 7.01542 6.7936 6.26145M4.39057 10.244H3.64063C2.8122 10.244 2.14062 9.57245 2.14062 8.74402C2.14062 8.18881 2.44227 7.70405 2.89063 7.44469M11.8906 5.36902C11.8906 6.81877 10.7154 7.99402 9.26563 7.99402C7.81588 7.99402 6.64063 6.81877 6.64063 5.36902C6.64063 3.91927 7.81588 2.74402 9.26563 2.74402C10.7154 2.74402 11.8906 3.91927 11.8906 5.36902Z" stroke="#98A2B3" stroke-width="1.5" stroke-linecap="round" stroke-linejoin="round"/>
</svg>
