<svg width="19" height="19" viewBox="0 0 19 19" fill="none" xmlns="http://www.w3.org/2000/svg">
<g clip-path="url(#clip0_1_9039)">
<path d="M3.89204 10.244C3.89204 7.75874 5.90676 5.74402 8.39204 5.74402M3.89204 10.244C3.89204 11.4803 4.39058 12.6002 5.19759 13.4135C5.27543 13.4919 5.31434 13.5311 5.33731 13.5689C5.35923 13.6049 5.37199 13.6358 5.38178 13.6768C5.39204 13.7198 5.39204 13.7686 5.39204 13.8664V15.644C5.39204 15.854 5.39204 15.959 5.43291 16.0393C5.46886 16.1098 5.52623 16.1672 5.59679 16.2031C5.67701 16.244 5.78202 16.244 5.99204 16.244H7.41704C7.62706 16.244 7.73207 16.244 7.81228 16.2031C7.88285 16.1672 7.94021 16.1098 7.97617 16.0393C8.01704 15.959 8.01704 15.854 8.01704 15.644V15.344C8.01704 15.134 8.01704 15.029 8.05791 14.9488C8.09386 14.8782 8.15123 14.8208 8.22179 14.7849C8.30201 14.744 8.40702 14.744 8.61704 14.744H9.66704C9.87706 14.744 9.98207 14.744 10.0623 14.7849C10.1328 14.8208 10.1902 14.8782 10.2262 14.9488C10.267 15.029 10.267 15.134 10.267 15.344V15.644C10.267 15.854 10.267 15.959 10.3079 16.0393C10.3439 16.1098 10.4012 16.1672 10.4718 16.2031C10.552 16.244 10.657 16.244 10.867 16.244H12.2921C12.5021 16.244 12.6071 16.244 12.6873 16.2031C12.7579 16.1672 12.8153 16.1098 12.8512 16.0393C12.8921 15.959 12.8921 15.854 12.8921 15.644V14.9123C12.8921 14.7607 12.8921 14.6849 12.9137 14.6241C12.9343 14.5658 12.9604 14.525 13.0046 14.4817C13.0506 14.4365 13.1287 14.4003 13.2849 14.3278C14.0215 13.9858 14.6501 13.4503 15.1054 12.7866C15.1855 12.6699 15.2255 12.6116 15.2683 12.5771C15.3092 12.5441 15.3458 12.5248 15.3961 12.5098C15.4488 12.494 15.5112 12.494 15.6361 12.494H16.0421C16.2521 12.494 16.3571 12.494 16.4373 12.4531C16.5079 12.4172 16.5653 12.3598 16.6012 12.2893C16.6421 12.209 16.6421 12.104 16.6421 11.894V9.33333C16.6421 9.13339 16.6421 9.03342 16.6049 8.95629C16.5681 8.87977 16.5063 8.81802 16.4298 8.78116C16.3527 8.74402 16.2527 8.74402 16.0528 8.74402C15.9081 8.74402 15.8357 8.74402 15.7774 8.72437C15.7146 8.70319 15.6705 8.67501 15.6249 8.62685C15.5826 8.58219 15.5481 8.5075 15.479 8.35813C15.2574 7.87869 14.954 7.44485 14.5865 7.07455C14.5087 6.99611 14.4698 6.95689 14.4468 6.91917C14.4249 6.88319 14.4121 6.85221 14.4024 6.81123C14.3921 6.76827 14.3921 6.7194 14.3921 6.62165V5.78945C14.3921 5.51942 14.3921 5.3844 14.3359 5.29365C14.2866 5.21415 14.2094 5.15593 14.1194 5.1304C14.0167 5.10126 13.8869 5.13835 13.6273 5.21254L11.8478 5.72093C11.8176 5.72957 11.8025 5.73389 11.7871 5.73693C11.7735 5.73962 11.7597 5.74155 11.7458 5.74271C11.7302 5.74402 11.7143 5.74402 11.6826 5.74402H8.39204M3.89204 10.244H3.14209C2.31366 10.244 1.64209 9.57245 1.64209 8.74402C1.64209 8.18881 1.94374 7.70405 2.39209 7.44469M8.39204 5.74402H11.3655C11.383 5.62154 11.3921 5.49634 11.3921 5.36902C11.3921 3.91927 10.2168 2.74402 8.76709 2.74402C7.31734 2.74402 6.14209 3.91927 6.14209 5.36902C6.14209 5.68192 6.19684 5.98204 6.29728 6.26031C6.92295 5.93062 7.63567 5.74402 8.39204 5.74402Z" stroke="#98A2B3" stroke-width="1.5" stroke-linecap="round" stroke-linejoin="round"/>
</g>
<defs>
<clipPath id="clip0_1_9039">
<rect width="18" height="18" fill="white" transform="translate(0.141602 0.494019)"/>
</clipPath>
</defs>
</svg>
