<svg width="19" height="19" viewBox="0 0 19 19" fill="none" xmlns="http://www.w3.org/2000/svg">
<path d="M11.8984 13.244V5.74402H8.89844C7.6558 5.74402 6.64844 6.75138 6.64844 7.99402C6.64844 9.23666 7.6558 10.244 8.89844 10.244H11.8984M6.49844 16.244H12.7984C14.0586 16.244 14.6886 16.244 15.1699 15.9988C15.5933 15.7831 15.9375 15.4389 16.1532 15.0155C16.3984 14.5342 16.3984 13.9041 16.3984 12.644V6.34402C16.3984 5.0839 16.3984 4.45384 16.1532 3.97254C15.9375 3.54918 15.5933 3.20497 15.1699 2.98925C14.6886 2.74402 14.0586 2.74402 12.7984 2.74402H6.49844C5.23832 2.74402 4.60826 2.74402 4.12696 2.98925C3.70359 3.20497 3.35939 3.54918 3.14367 3.97254C2.89844 4.45384 2.89844 5.0839 2.89844 6.34402V12.644C2.89844 13.9041 2.89844 14.5342 3.14367 15.0155C3.35939 15.4389 3.70359 15.7831 4.12696 15.9988C4.60826 16.244 5.23832 16.244 6.49844 16.244Z" stroke="#98A2B3" stroke-width="1.5" stroke-linecap="round" stroke-linejoin="round"/>
</svg>
