<svg width="19" height="19" viewBox="0 0 19 19" fill="none" xmlns="http://www.w3.org/2000/svg">
<path d="M6.93502 12.2064L2.69238 16.449M9.42329 5.47553L8.25262 6.6462C8.15713 6.74169 8.10938 6.78944 8.05499 6.82738C8.0067 6.86105 7.95462 6.88893 7.89982 6.91042C7.83807 6.93464 7.77186 6.94788 7.63944 6.97437L4.89109 7.52404C4.17686 7.66688 3.81975 7.7383 3.65267 7.92659C3.50713 8.09063 3.44066 8.31015 3.47078 8.52737C3.50534 8.77671 3.76286 9.03422 4.2779 9.54926L9.5922 14.8636C10.1072 15.3786 10.3648 15.6361 10.6141 15.6707C10.8313 15.7008 11.0508 15.6343 11.2149 15.4888C11.4032 15.3217 11.4746 14.9646 11.6174 14.2504L12.1671 11.502C12.1936 11.3696 12.2068 11.3034 12.231 11.2416C12.2525 11.1868 12.2804 11.1348 12.3141 11.0865C12.352 11.0321 12.3998 10.9843 12.4953 10.8888L13.6659 9.71817C13.727 9.65712 13.7575 9.62659 13.7911 9.59994C13.8209 9.57626 13.8524 9.55489 13.8855 9.536C13.9227 9.51475 13.9624 9.49774 14.0418 9.46373L15.9125 8.66197C16.4583 8.42807 16.7312 8.31111 16.8551 8.12213C16.9635 7.95686 17.0023 7.75548 16.9631 7.56178C16.9182 7.34027 16.7082 7.13034 16.2883 6.71047L12.431 2.85311C12.0111 2.43324 11.8012 2.22331 11.5797 2.17841C11.386 2.13914 11.1846 2.17792 11.0193 2.28632C10.8303 2.41028 10.7134 2.68316 10.4795 3.22894L9.67774 5.09971C9.64372 5.17907 9.62672 5.21875 9.60546 5.25596C9.58658 5.28902 9.5652 5.32058 9.54152 5.35039C9.51487 5.38395 9.48434 5.41448 9.42329 5.47553Z" stroke="#98A2B3" stroke-width="1.5" stroke-linecap="round" stroke-linejoin="round"/>
</svg>
