<svg width="19" height="19" viewBox="0 0 19 19" fill="none" xmlns="http://www.w3.org/2000/svg">
<path d="M9.15047 11.7441L9.15047 16.9941M6.15047 5.97524V7.5732C6.15047 7.72922 6.15047 7.80722 6.13516 7.88184C6.12157 7.94803 6.0991 8.01209 6.06836 8.07227C6.0337 8.1401 5.98497 8.20101 5.88751 8.32284L4.71018 9.79451C4.21087 10.4186 3.96122 10.7307 3.96094 10.9933C3.96069 11.2217 4.06454 11.4378 4.24305 11.5803C4.44831 11.7441 4.84794 11.7441 5.64722 11.7441H12.6537C13.453 11.7441 13.8526 11.7441 14.0579 11.5803C14.2364 11.4378 14.3402 11.2217 14.34 10.9933C14.3397 10.7307 14.0901 10.4186 13.5908 9.79451L12.4134 8.32284C12.316 8.20101 12.2672 8.1401 12.2326 8.07227C12.2018 8.01209 12.1794 7.94803 12.1658 7.88184C12.1505 7.80722 12.1505 7.72922 12.1505 7.5732V5.97524C12.1505 5.8889 12.1505 5.84572 12.1554 5.80315C12.1597 5.76533 12.1669 5.72789 12.1769 5.69117C12.1882 5.64982 12.2042 5.60974 12.2363 5.52957L12.9922 3.63981C13.2127 3.08849 13.323 2.81284 13.277 2.59155C13.2368 2.39804 13.1218 2.22822 12.9571 2.11902C12.7687 1.99414 12.4718 1.99414 11.878 1.99414H6.42291C5.82912 1.99414 5.53223 1.99414 5.34385 2.11902C5.17911 2.22822 5.06414 2.39804 5.02393 2.59155C4.97795 2.81284 5.08821 3.08849 5.30874 3.63981L6.06464 5.52957C6.09671 5.60974 6.11274 5.64982 6.12402 5.69117C6.13404 5.72789 6.14125 5.76533 6.14559 5.80315C6.15047 5.84572 6.15047 5.8889 6.15047 5.97524Z" stroke="#98A2B3" stroke-width="1.5" stroke-linecap="round" stroke-linejoin="round"/>
</svg>
