<svg width="19" height="19" viewBox="0 0 19 19" fill="none" xmlns="http://www.w3.org/2000/svg">
<path d="M13.9643 2.60363C14.6879 1.85627 15.8834 1.84661 16.619 2.58217C17.3344 3.29757 17.3477 4.4533 16.6489 5.185L14.565 7.36733C14.4016 7.53838 14.3199 7.62391 14.2696 7.72408C14.225 7.81275 14.1985 7.90939 14.1916 8.00839C14.1838 8.12021 14.2104 8.23545 14.2635 8.46591L15.5595 14.0816C15.614 14.3181 15.6413 14.4364 15.6325 14.5508C15.6247 14.6521 15.5964 14.7507 15.5494 14.8407C15.4962 14.9424 15.4104 15.0283 15.2387 15.1999L14.9606 15.478C14.506 15.9326 14.2787 16.1599 14.0461 16.2011C13.8429 16.237 13.634 16.1877 13.4683 16.0647C13.2787 15.9238 13.177 15.6189 12.9737 15.009L11.4664 10.487L8.95738 12.996C8.80761 13.1458 8.73273 13.2206 8.68264 13.3088C8.63826 13.3869 8.60829 13.4724 8.59414 13.5611C8.57816 13.6613 8.58986 13.7665 8.61325 13.977L8.75103 15.2171C8.77442 15.4276 8.78611 15.5328 8.77014 15.633C8.75599 15.7217 8.72601 15.8072 8.68163 15.8853C8.63154 15.9735 8.55666 16.0484 8.4069 16.1981L8.25877 16.3462C7.90397 16.701 7.72658 16.8784 7.52944 16.9298C7.35653 16.9749 7.17321 16.9567 7.0125 16.8786C6.82926 16.7896 6.6901 16.5808 6.41178 16.1634L5.23554 14.399C5.18581 14.3244 5.16095 14.2871 5.13208 14.2533C5.10644 14.2232 5.07847 14.1953 5.04842 14.1696C5.0146 14.1408 4.97731 14.1159 4.90272 14.0662L3.13835 12.8899C2.72087 12.6116 2.51213 12.4725 2.42309 12.2892C2.34499 12.1285 2.32684 11.9452 2.3719 11.7723C2.42327 11.5751 2.60067 11.3977 2.95547 11.0429L3.10359 10.8948C3.25336 10.7451 3.32824 10.6702 3.41643 10.6201C3.49455 10.5757 3.58001 10.5457 3.66873 10.5316C3.76889 10.5156 3.87414 10.5273 4.08464 10.5507L5.32468 10.6885C5.53519 10.7119 5.64044 10.7236 5.74059 10.7076C5.82931 10.6934 5.91477 10.6635 5.9929 10.6191C6.08108 10.569 6.15596 10.4941 6.30573 10.3443L8.81472 7.83534L4.29276 6.32803C3.68284 6.12472 3.37788 6.02306 3.23703 5.83338C3.11405 5.66775 3.06471 5.45878 3.10064 5.25563C3.14179 5.02299 3.3691 4.79569 3.82371 4.34108L4.10178 4.063C4.27345 3.89133 4.35929 3.80549 4.46098 3.75233C4.55099 3.70527 4.64962 3.67698 4.75089 3.66918C4.8653 3.66037 4.98358 3.68767 5.22014 3.74226L10.8145 5.03326C11.047 5.08691 11.1632 5.11373 11.2754 5.10575C11.3838 5.09805 11.4891 5.0669 11.5843 5.01446C11.6828 4.96015 11.7658 4.87445 11.9317 4.70305L13.9643 2.60363Z" stroke="#98A2B3" stroke-width="1.5" stroke-linecap="round" stroke-linejoin="round"/>
</svg>
