<svg width="19" height="19" viewBox="0 0 19 19" fill="none" xmlns="http://www.w3.org/2000/svg">
<path d="M9.66455 16.9941C13.8067 16.9941 17.1646 13.6363 17.1646 9.49414C17.1646 5.35201 13.8067 1.99414 9.66455 1.99414C5.52242 1.99414 2.16455 5.35201 2.16455 9.49414C2.16455 13.6363 5.52242 16.9941 9.66455 16.9941Z" stroke="#98A2B3" stroke-width="1.5" stroke-linecap="round" stroke-linejoin="round"/>
<path d="M7.78955 7.21814C7.78955 6.86018 7.78955 6.68119 7.86436 6.58127C7.92955 6.4942 8.02934 6.43972 8.13784 6.43197C8.26234 6.42308 8.41289 6.51986 8.71401 6.71343L12.2545 8.98943C12.5157 9.15741 12.6464 9.24139 12.6915 9.34818C12.7309 9.44149 12.7309 9.54679 12.6915 9.6401C12.6464 9.74689 12.5157 9.83088 12.2545 9.99885L8.71401 12.2748C8.41289 12.4684 8.26234 12.5652 8.13784 12.5563C8.02934 12.5486 7.92955 12.4941 7.86436 12.407C7.78955 12.3071 7.78955 12.1281 7.78955 11.7701V7.21814Z" stroke="#98A2B3" stroke-width="1.5" stroke-linecap="round" stroke-linejoin="round"/>
</svg>
