<svg width="19" height="19" viewBox="0 0 19 19" fill="none" xmlns="http://www.w3.org/2000/svg">
<path d="M7.2915 7.21802C7.2915 6.86005 7.2915 6.68107 7.36631 6.58115C7.4315 6.49408 7.53129 6.4396 7.63979 6.43185C7.76429 6.42295 7.91485 6.51974 8.21596 6.71331L11.7564 8.98931C12.0177 9.15728 12.1483 9.24127 12.1935 9.34806C12.2329 9.44137 12.2329 9.54667 12.1935 9.63998C12.1483 9.74677 12.0177 9.83076 11.7564 9.99873L8.21596 12.2747C7.91485 12.4683 7.76429 12.5651 7.63979 12.5562C7.53129 12.5484 7.4315 12.494 7.36631 12.4069C7.2915 12.307 7.2915 12.128 7.2915 11.77V7.21802Z" stroke="#98A2B3" stroke-width="1.5" stroke-linecap="round" stroke-linejoin="round"/>
<path d="M2.4165 6.34402C2.4165 5.0839 2.4165 4.45384 2.66174 3.97254C2.87745 3.54918 3.22166 3.20497 3.64503 2.98925C4.12633 2.74402 4.75639 2.74402 6.0165 2.74402H12.3165C13.5766 2.74402 14.2067 2.74402 14.688 2.98925C15.1113 3.20497 15.4556 3.54918 15.6713 3.97254C15.9165 4.45384 15.9165 5.0839 15.9165 6.34402V12.644C15.9165 13.9041 15.9165 14.5342 15.6713 15.0155C15.4556 15.4389 15.1113 15.7831 14.688 15.9988C14.2067 16.244 13.5766 16.244 12.3165 16.244H6.0165C4.75639 16.244 4.12633 16.244 3.64503 15.9988C3.22166 15.7831 2.87745 15.4389 2.66174 15.0155C2.4165 14.5342 2.4165 13.9041 2.4165 12.644V6.34402Z" stroke="#98A2B3" stroke-width="1.5" stroke-linecap="round" stroke-linejoin="round"/>
</svg>
