<svg width="19" height="19" viewBox="0 0 19 19" fill="none" xmlns="http://www.w3.org/2000/svg">
<path d="M4.40967 4.23627C4.40967 3.5079 4.40967 3.14372 4.56154 2.94296C4.69384 2.76807 4.89606 2.65985 5.11497 2.64677C5.36624 2.63177 5.66927 2.83379 6.27531 3.23781L14.162 8.49559C14.6627 8.82944 14.9131 8.99636 15.0004 9.20675C15.0767 9.39069 15.0767 9.59742 15.0004 9.78136C14.9131 9.99175 14.6627 10.1587 14.162 10.4925L6.27531 15.7503C5.66927 16.1543 5.36624 16.3563 5.11497 16.3413C4.89606 16.3283 4.69384 16.22 4.56154 16.0451C4.40967 15.8444 4.40967 15.4802 4.40967 14.7518V4.23627Z" stroke="#98A2B3" stroke-width="1.5" stroke-linecap="round" stroke-linejoin="round"/>
</svg>
