<svg width="19" height="19" viewBox="0 0 19 19" fill="none" xmlns="http://www.w3.org/2000/svg">
<path d="M9.17774 6.49402V12.494M6.17773 9.49402H12.1777M6.02773 16.244H12.3277C13.5879 16.244 14.2179 16.244 14.6992 15.9988C15.1226 15.7831 15.4668 15.4389 15.6825 15.0155C15.9277 14.5342 15.9277 13.9041 15.9277 12.644V6.34402C15.9277 5.0839 15.9277 4.45384 15.6825 3.97254C15.4668 3.54918 15.1226 3.20497 14.6992 2.98925C14.2179 2.74402 13.5879 2.74402 12.3277 2.74402H6.02774C4.76762 2.74402 4.13756 2.74402 3.65626 2.98925C3.23289 3.20497 2.88868 3.54918 2.67297 3.97254C2.42773 4.45384 2.42773 5.0839 2.42773 6.34402V12.644C2.42773 13.9041 2.42773 14.5342 2.67297 15.0155C2.88868 15.4389 3.23289 15.7831 3.65626 15.9988C4.13756 16.244 4.76762 16.244 6.02773 16.244Z" stroke="#98A2B3" stroke-width="1.5" stroke-linecap="round" stroke-linejoin="round"/>
</svg>
