<svg width="19" height="19" viewBox="0 0 19 19" fill="none" xmlns="http://www.w3.org/2000/svg">
<path d="M6.67969 7.99402L9.67969 10.994L12.6797 7.99402M3.67969 2.74402H15.6797C16.0775 2.74402 16.459 2.90205 16.7403 3.18336C17.0217 3.46466 17.1797 3.84619 17.1797 4.24402V8.74402C17.1797 10.7331 16.3895 12.6408 14.983 14.0473C13.5765 15.4538 11.6688 16.244 9.67969 16.244C8.69477 16.244 7.7195 16.05 6.80956 15.6731C5.89962 15.2962 5.07283 14.7438 4.37639 14.0473C2.96986 12.6408 2.17969 10.7331 2.17969 8.74402V4.24402C2.17969 3.84619 2.33772 3.46466 2.61903 3.18336C2.90033 2.90205 3.28186 2.74402 3.67969 2.74402Z" stroke="#98A2B3" stroke-width="1.5" stroke-linecap="round" stroke-linejoin="round"/>
</svg>
