<svg width="19" height="19" viewBox="0 0 19 19" fill="none" xmlns="http://www.w3.org/2000/svg">
<path d="M13.0208 13.9941C14.7784 12.8055 15.9316 10.8276 15.9316 8.58286C15.9316 4.94411 12.9095 1.99414 9.18164 1.99414C5.45382 1.99414 2.43164 4.94411 2.43164 8.58286C2.43164 10.8276 3.58492 12.8055 5.34249 13.9941M6.45139 10.9941C5.8207 10.3567 5.43164 9.50063 5.43164 8.55705C5.43164 6.58947 7.11075 4.99414 9.18164 4.99414C11.2525 4.99414 12.9316 6.58947 12.9316 8.55705C12.9316 9.50128 12.5426 10.3567 11.9119 10.9941M9.18164 16.9941C8.35321 16.9941 7.68164 16.3226 7.68164 15.4941V13.9941C7.68164 13.1657 8.35321 12.4941 9.18164 12.4941C10.0101 12.4941 10.6816 13.1657 10.6816 13.9941V15.4941C10.6816 16.3226 10.0101 16.9941 9.18164 16.9941ZM9.93164 8.74414C9.93164 9.15835 9.59586 9.49414 9.18164 9.49414C8.76743 9.49414 8.43164 9.15835 8.43164 8.74414C8.43164 8.32993 8.76743 7.99414 9.18164 7.99414C9.59586 7.99414 9.93164 8.32993 9.93164 8.74414Z" stroke="#98A2B3" stroke-width="1.5" stroke-linecap="round" stroke-linejoin="round"/>
</svg>
