<svg width="19" height="19" viewBox="0 0 19 19" fill="none" xmlns="http://www.w3.org/2000/svg">
<path d="M9.6919 12.494V16.244M9.6919 12.494L14.1919 16.244M9.6919 12.494L5.19189 16.244M16.4419 2.74402V8.89402C16.4419 10.1541 16.4419 10.7842 16.1967 11.2655C15.9809 11.6889 15.6367 12.0331 15.2134 12.2488C14.7321 12.494 14.102 12.494 12.8419 12.494H6.54189C5.28178 12.494 4.65172 12.494 4.17042 12.2488C3.74705 12.0331 3.40285 11.6889 3.18713 11.2655C2.94189 10.7842 2.94189 10.1541 2.94189 8.89402V2.74402M6.69189 7.24402V9.49402M9.6919 5.74402V9.49402M12.6919 8.74402V9.49402M17.1919 2.74402H2.19189" stroke="#98A2B3" stroke-width="1.5" stroke-linecap="round" stroke-linejoin="round"/>
</svg>
