<svg width="19" height="19" viewBox="0 0 19 19" fill="none" xmlns="http://www.w3.org/2000/svg">
<g clip-path="url(#clip0_1_8483)">
<path d="M9.19336 12.494V16.244M13.6934 16.244L10.7298 13.7744C10.1832 13.3189 9.90993 13.0912 9.60486 13.0041C9.33589 12.9274 9.05083 12.9274 8.78186 13.0041C8.47679 13.0912 8.2035 13.3189 7.65692 13.7744L4.69336 16.244M6.19336 8.74402V9.49402M9.19336 7.24402V9.49402M12.1934 5.74402V9.49402M16.6934 2.74402H1.69336M2.44336 2.74402H15.9434V8.89402C15.9434 10.1541 15.9434 10.7842 15.6981 11.2655C15.4824 11.6889 15.1382 12.0331 14.7148 12.2488C14.2335 12.494 13.6035 12.494 12.3434 12.494H6.04336C4.78324 12.494 4.15318 12.494 3.67188 12.2488C3.24852 12.0331 2.90431 11.6889 2.68859 11.2655C2.44336 10.7842 2.44336 10.1541 2.44336 8.89402V2.74402Z" stroke="#98A2B3" stroke-width="1.5" stroke-linecap="round" stroke-linejoin="round"/>
</g>
<defs>
<clipPath id="clip0_1_8483">
<rect width="18" height="18" fill="white" transform="translate(0.193359 0.494019)"/>
</clipPath>
</defs>
</svg>
