<svg width="19" height="19" viewBox="0 0 19 19" fill="none" xmlns="http://www.w3.org/2000/svg">
<path d="M9.69531 12.494V16.244M9.69531 12.494L14.1953 16.244M9.69531 12.494L5.19531 16.244M6.69531 5.74402V9.49402M9.69531 7.24402V9.49402M12.6953 8.74402V9.49402M17.1953 2.74402H2.19531M2.94531 2.74402H16.4453V8.89402C16.4453 10.1541 16.4453 10.7842 16.2001 11.2655C15.9844 11.6889 15.6402 12.0331 15.2168 12.2488C14.7355 12.494 14.1054 12.494 12.8453 12.494H6.54531C5.28519 12.494 4.65514 12.494 4.17383 12.2488C3.75047 12.0331 3.40626 11.6889 3.19055 11.2655C2.94531 10.7842 2.94531 10.1541 2.94531 8.89402V2.74402Z" stroke="#98A2B3" stroke-width="1.5" stroke-linecap="round" stroke-linejoin="round"/>
</svg>
