<svg width="19" height="19" viewBox="0 0 19 19" fill="none" xmlns="http://www.w3.org/2000/svg">
<path d="M5.19922 7.24414V1.99414H14.1992V7.24414M5.19922 13.9941H3.69922C3.30139 13.9941 2.91986 13.8361 2.63856 13.5548C2.35725 13.2735 2.19922 12.892 2.19922 12.4941V8.74414C2.19922 8.34632 2.35725 7.96479 2.63856 7.68348C2.91986 7.40218 3.30139 7.24414 3.69922 7.24414H15.6992C16.097 7.24414 16.4786 7.40218 16.7599 7.68348C17.0412 7.96479 17.1992 8.34632 17.1992 8.74414V12.4941C17.1992 12.892 17.0412 13.2735 16.7599 13.5548C16.4786 13.8361 16.097 13.9941 15.6992 13.9941H14.1992M5.19922 10.9941H14.1992V16.9941H5.19922V10.9941Z" stroke="#98A2B3" stroke-width="1.5" stroke-linecap="round" stroke-linejoin="round"/>
</svg>
