<svg width="19" height="19" viewBox="0 0 19 19" fill="none" xmlns="http://www.w3.org/2000/svg">
<g clip-path="url(#clip0_1_9771)">
<path d="M13.6978 5.74414V4.39414C13.6978 3.55406 13.6978 3.13402 13.5343 2.81315C13.3905 2.53091 13.161 2.30144 12.8787 2.15763C12.5579 1.99414 12.1378 1.99414 11.2978 1.99414H7.09775C6.25768 1.99414 5.83764 1.99414 5.51677 2.15763C5.23453 2.30144 5.00505 2.53091 4.86124 2.81315C4.69775 3.13402 4.69775 3.55406 4.69775 4.39414V5.74414M4.69775 13.9941C4.00028 13.9941 3.65154 13.9941 3.36541 13.9175C2.58895 13.7094 1.98247 13.1029 1.77442 12.3265C1.69775 12.0404 1.69775 11.6916 1.69775 10.9941V9.34414C1.69775 8.08402 1.69775 7.45396 1.94299 6.97266C2.1587 6.5493 2.50291 6.20509 2.92628 5.98938C3.40758 5.74414 4.03764 5.74414 5.29775 5.74414H13.0978C14.3579 5.74414 14.9879 5.74414 15.4692 5.98938C15.8926 6.20509 16.2368 6.5493 16.4525 6.97266C16.6978 7.45396 16.6978 8.08402 16.6978 9.34414V10.9941C16.6978 11.6916 16.6978 12.0404 16.6211 12.3265C16.413 13.1029 15.8066 13.7094 15.0301 13.9175C14.744 13.9941 14.3952 13.9941 13.6978 13.9941M11.4478 8.36914H13.6978M7.09775 16.9941H11.2978C12.1378 16.9941 12.5579 16.9941 12.8787 16.8307C13.161 16.6868 13.3905 16.4574 13.5343 16.1751C13.6978 15.8543 13.6978 15.4342 13.6978 14.5941V13.3941C13.6978 12.5541 13.6978 12.134 13.5343 11.8132C13.3905 11.5309 13.161 11.3014 12.8787 11.1576C12.5579 10.9941 12.1378 10.9941 11.2978 10.9941H7.09775C6.25768 10.9941 5.83764 10.9941 5.51677 11.1576C5.23453 11.3014 5.00505 11.5309 4.86124 11.8132C4.69775 12.134 4.69775 12.5541 4.69775 13.3941V14.5941C4.69775 15.4342 4.69775 15.8543 4.86124 16.1751C5.00505 16.4574 5.23453 16.6868 5.51677 16.8307C5.83764 16.9941 6.25768 16.9941 7.09775 16.9941Z" stroke="#98A2B3" stroke-width="1.5" stroke-linecap="round" stroke-linejoin="round"/>
</g>
<defs>
<clipPath id="clip0_1_9771">
<rect width="18" height="18" fill="white" transform="translate(0.197754 0.494019)"/>
</clipPath>
</defs>
</svg>
