<svg width="19" height="19" viewBox="0 0 19 19" fill="none" xmlns="http://www.w3.org/2000/svg">
<g clip-path="url(#clip0_1_8721)">
<path d="M5.82617 3.86914C5.82617 2.83361 6.66564 1.99414 7.70117 1.99414C8.73671 1.99414 9.57617 2.83361 9.57617 3.86914V4.99414H10.3262C11.3745 4.99414 11.8987 4.99414 12.3122 5.16541C12.8635 5.39377 13.3015 5.83179 13.5299 6.3831C13.7012 6.79659 13.7012 7.32077 13.7012 8.36914H14.8262C15.8617 8.36914 16.7012 9.20861 16.7012 10.2441C16.7012 11.2797 15.8617 12.1191 14.8262 12.1191H13.7012V13.3941C13.7012 14.6543 13.7012 15.2843 13.4559 15.7656C13.2402 16.189 12.896 16.5332 12.4727 16.7489C11.9914 16.9941 11.3613 16.9941 10.1012 16.9941H9.57617V15.6816C9.57617 14.7497 8.82065 13.9941 7.88867 13.9941C6.95669 13.9941 6.20117 14.7497 6.20117 15.6816V16.9941H5.30117C4.04105 16.9941 3.41099 16.9941 2.92969 16.7489C2.50633 16.5332 2.16212 16.189 1.94641 15.7656C1.70117 15.2843 1.70117 14.6543 1.70117 13.3941V12.1191H2.82617C3.86171 12.1191 4.70117 11.2797 4.70117 10.2441C4.70117 9.20861 3.86171 8.36914 2.82617 8.36914H1.70117C1.70117 7.32077 1.70117 6.79659 1.87244 6.3831C2.1008 5.83179 2.53882 5.39377 3.09013 5.16541C3.50362 4.99414 4.0278 4.99414 5.07617 4.99414H5.82617V3.86914Z" stroke="#98A2B3" stroke-width="1.5" stroke-linecap="round" stroke-linejoin="round"/>
</g>
<defs>
<clipPath id="clip0_1_8721">
<rect width="18" height="18" fill="white" transform="translate(0.201172 0.494019)"/>
</clipPath>
</defs>
</svg>
