<svg width="19" height="19" viewBox="0 0 19 19" fill="none" xmlns="http://www.w3.org/2000/svg">
<path d="M5.58252 5.36902H5.59002M13.8325 5.36902H13.84M5.58252 13.619H5.59002M10.4575 10.244H10.465M13.8325 13.619H13.84M13.4575 16.244H16.4575V13.244M11.2075 12.869V16.244M16.4575 10.994H13.0825M12.4075 7.99402H15.2575C15.6776 7.99402 15.8876 7.99402 16.048 7.91227C16.1891 7.84037 16.3039 7.72563 16.3758 7.58451C16.4575 7.42408 16.4575 7.21406 16.4575 6.79402V3.94402C16.4575 3.52398 16.4575 3.31396 16.3758 3.15353C16.3039 3.0124 16.1891 2.89767 16.048 2.82576C15.8876 2.74402 15.6776 2.74402 15.2575 2.74402H12.4075C11.9875 2.74402 11.7775 2.74402 11.617 2.82576C11.4759 2.89767 11.3612 3.0124 11.2893 3.15353C11.2075 3.31396 11.2075 3.52398 11.2075 3.94402V6.79402C11.2075 7.21406 11.2075 7.42408 11.2893 7.58451C11.3612 7.72563 11.4759 7.84037 11.617 7.91227C11.7775 7.99402 11.9875 7.99402 12.4075 7.99402ZM4.15752 7.99402H7.00752C7.42756 7.99402 7.63758 7.99402 7.79801 7.91227C7.93913 7.84037 8.05387 7.72563 8.12578 7.58451C8.20752 7.42408 8.20752 7.21406 8.20752 6.79402V3.94402C8.20752 3.52398 8.20752 3.31396 8.12578 3.15353C8.05387 3.0124 7.93913 2.89767 7.79801 2.82576C7.63758 2.74402 7.42756 2.74402 7.00752 2.74402H4.15752C3.73748 2.74402 3.52746 2.74402 3.36703 2.82576C3.22591 2.89767 3.11117 3.0124 3.03926 3.15353C2.95752 3.31396 2.95752 3.52398 2.95752 3.94402V6.79402C2.95752 7.21406 2.95752 7.42408 3.03926 7.58451C3.11117 7.72563 3.22591 7.84037 3.36703 7.91227C3.52746 7.99402 3.73748 7.99402 4.15752 7.99402ZM4.15752 16.244H7.00752C7.42756 16.244 7.63758 16.244 7.79801 16.1623C7.93913 16.0904 8.05387 15.9756 8.12578 15.8345C8.20752 15.6741 8.20752 15.4641 8.20752 15.044V12.194C8.20752 11.774 8.20752 11.564 8.12578 11.4035C8.05387 11.2624 7.93913 11.1477 7.79801 11.0758C7.63758 10.994 7.42756 10.994 7.00752 10.994H4.15752C3.73748 10.994 3.52746 10.994 3.36703 11.0758C3.22591 11.1477 3.11117 11.2624 3.03926 11.4035C2.95752 11.564 2.95752 11.774 2.95752 12.194V15.044C2.95752 15.4641 2.95752 15.6741 3.03926 15.8345C3.11117 15.9756 3.22591 16.0904 3.36703 16.1623C3.52746 16.244 3.73748 16.244 4.15752 16.244Z" stroke="#98A2B3" stroke-width="1.5" stroke-linecap="round" stroke-linejoin="round"/>
</svg>
