<svg width="19" height="19" viewBox="0 0 19 19" fill="none" xmlns="http://www.w3.org/2000/svg">
<path d="M5.45557 9.49414H9.20557V13.2441M2.46307 9.49414H2.45557M6.21307 13.2441H6.20557M9.21307 16.2441H9.20557M15.9631 9.49414H15.9556M2.45557 13.2441H3.58057M11.8306 9.49414H13.3306M2.45557 16.2441H6.20557M9.20557 1.99414V6.49414M13.4056 16.2441H14.7556C15.1756 16.2441 15.3856 16.2441 15.5461 16.1624C15.6872 16.0905 15.8019 15.9758 15.8738 15.8346C15.9556 15.6742 15.9556 15.4642 15.9556 15.0441V13.6941C15.9556 13.2741 15.9556 13.0641 15.8738 12.9036C15.8019 12.7625 15.6872 12.6478 15.5461 12.5759C15.3856 12.4941 15.1756 12.4941 14.7556 12.4941H13.4056C12.9855 12.4941 12.7755 12.4941 12.6151 12.5759C12.474 12.6478 12.3592 12.7625 12.2873 12.9036C12.2056 13.0641 12.2056 13.2741 12.2056 13.6941V15.0441C12.2056 15.4642 12.2056 15.6742 12.2873 15.8346C12.3592 15.9758 12.474 16.0905 12.6151 16.1624C12.7755 16.2441 12.9855 16.2441 13.4056 16.2441ZM13.4056 6.49414H14.7556C15.1756 6.49414 15.3856 6.49414 15.5461 6.4124C15.6872 6.34049 15.8019 6.22576 15.8738 6.08463C15.9556 5.9242 15.9556 5.71418 15.9556 5.29414V3.94414C15.9556 3.5241 15.9556 3.31408 15.8738 3.15365C15.8019 3.01253 15.6872 2.89779 15.5461 2.82589C15.3856 2.74414 15.1756 2.74414 14.7556 2.74414H13.4056C12.9855 2.74414 12.7755 2.74414 12.6151 2.82589C12.474 2.89779 12.3592 3.01253 12.2873 3.15365C12.2056 3.31408 12.2056 3.5241 12.2056 3.94414V5.29414C12.2056 5.71418 12.2056 5.9242 12.2873 6.08463C12.3592 6.22576 12.474 6.34049 12.6151 6.4124C12.7755 6.49414 12.9855 6.49414 13.4056 6.49414ZM3.65557 6.49414H5.00557C5.42561 6.49414 5.63563 6.49414 5.79606 6.4124C5.93718 6.34049 6.05192 6.22576 6.12382 6.08463C6.20557 5.9242 6.20557 5.71418 6.20557 5.29414V3.94414C6.20557 3.5241 6.20557 3.31408 6.12382 3.15365C6.05192 3.01253 5.93718 2.89779 5.79606 2.82589C5.63563 2.74414 5.42561 2.74414 5.00557 2.74414H3.65557C3.23553 2.74414 3.02551 2.74414 2.86507 2.82589C2.72395 2.89779 2.60922 3.01253 2.53731 3.15365C2.45557 3.31408 2.45557 3.5241 2.45557 3.94414V5.29414C2.45557 5.71418 2.45557 5.9242 2.53731 6.08463C2.60922 6.22576 2.72395 6.34049 2.86507 6.4124C3.02551 6.49414 3.23553 6.49414 3.65557 6.49414Z" stroke="#98A2B3" stroke-width="1.5" stroke-linecap="round" stroke-linejoin="round"/>
</svg>
