<svg width="19" height="19" viewBox="0 0 19 19" fill="none" xmlns="http://www.w3.org/2000/svg">
<g clip-path="url(#clip0_1_11081)">
<path d="M12.3898 6.31403C12.8082 6.73196 13.1401 7.22826 13.3666 7.77455C13.5931 8.32084 13.7096 8.90641 13.7096 9.49778C13.7096 10.0891 13.5931 10.6747 13.3666 11.221C13.1401 11.7673 12.8082 12.2636 12.3898 12.6815M6.02983 12.674C5.61143 12.2561 5.27952 11.7598 5.05306 11.2135C4.8266 10.6672 4.71003 10.0816 4.71003 9.49028C4.71003 8.89891 4.8266 8.31334 5.05306 7.76705C5.27952 7.22076 5.61143 6.72446 6.02983 6.30653M14.5123 4.19153C15.9184 5.59799 16.7082 7.5053 16.7082 9.49403C16.7082 11.4828 15.9184 13.3901 14.5123 14.7965M3.90732 14.7965C2.50129 13.3901 1.71143 11.4828 1.71143 9.49403C1.71143 7.5053 2.50129 5.59799 3.90732 4.19153M10.7098 9.49403C10.7098 10.3225 10.0383 10.994 9.20983 10.994C8.3814 10.994 7.70983 10.3225 7.70983 9.49403C7.70983 8.6656 8.3814 7.99403 9.20983 7.99403C10.0383 7.99403 10.7098 8.6656 10.7098 9.49403Z" stroke="#98A2B3" stroke-width="1.5" stroke-linecap="round" stroke-linejoin="round"/>
</g>
<defs>
<clipPath id="clip0_1_11081">
<rect width="18" height="18" fill="white" transform="translate(0.209473 0.494019)"/>
</clipPath>
</defs>
</svg>
