<svg width="51" height="20" viewBox="0 0 51 20" fill="none" xmlns="http://www.w3.org/2000/svg">
<path d="M41.0002 14.4447C42.2298 14.4447 43.2781 14.0112 44.1451 13.1442C45.0121 12.2773 45.4453 11.2293 45.4447 10.0002C45.4447 8.77059 45.0112 7.72229 44.1442 6.85533C43.2773 5.98836 42.2293 5.55518 41.0002 5.55577C39.7706 5.55577 38.7223 5.98925 37.8553 6.85622C36.9884 7.72318 36.5552 8.77118 36.5558 10.0002C36.5558 11.2298 36.9893 12.2781 37.8562 13.1451C38.7232 14.0121 39.7712 14.4453 41.0002 14.4447ZM41.0002 18.8891C39.7706 18.8891 38.615 18.6556 37.5336 18.1887C36.4521 17.7217 35.5113 17.0885 34.7113 16.2891C33.9113 15.4891 33.2781 14.5484 32.8118 13.4669C32.3454 12.3854 32.1119 11.2298 32.1113 10.0002C32.1113 8.77059 32.3448 7.61503 32.8118 6.53355C33.2787 5.45207 33.9119 4.51133 34.7113 3.71133C35.5113 2.91133 36.4521 2.27814 37.5336 1.81177C38.615 1.3454 39.7706 1.11192 41.0002 1.11133C42.2298 1.11133 43.3854 1.34481 44.4669 1.81177C45.5484 2.27874 46.4891 2.91192 47.2891 3.71133C48.0891 4.51133 48.7226 5.45207 49.1895 6.53355C49.6565 7.61503 49.8897 8.77059 49.8891 10.0002C49.8891 11.2298 49.6556 12.3854 49.1887 13.4669C48.7217 14.5484 48.0885 15.4891 47.2891 16.2891C46.4891 17.0891 45.5484 17.7226 44.4669 18.1895C43.3854 18.6565 42.2298 18.8897 41.0002 18.8891ZM41.0002 17.1113C42.9854 17.1113 44.6669 16.4224 46.0447 15.0447C47.4224 13.6669 48.1113 11.9854 48.1113 10.0002C48.1113 8.01503 47.4224 6.33355 46.0447 4.95577C44.6669 3.57799 42.9854 2.88911 41.0002 2.88911C39.015 2.88911 37.3335 3.57799 35.9558 4.95577C34.578 6.33355 33.8891 8.01503 33.8891 10.0002C33.8891 11.9854 34.578 13.6669 35.9558 15.0447C37.3335 16.4224 39.015 17.1113 41.0002 17.1113Z" fill="#98A2B3"/>
<path d="M4.23226 14.3223V5.67179H2.91146L1 7.16734V8.54199L2.84508 7.11535H2.91258V14.3223H4.23339H4.23226ZM7.84705 8.1684V8.09223C7.84705 7.34506 8.34207 6.6789 9.19261 6.6789C9.95314 6.6789 10.5134 7.21086 10.5134 8.01607C10.5134 8.77049 10.0409 9.34719 9.6055 9.86102L6.61399 13.4228V14.3223H11.9917V13.1254H8.4737V13.0419L10.4617 10.6408C11.1929 9.76551 11.8533 9.03043 11.8533 7.89637C11.8522 6.52656 10.8138 5.50011 9.22186 5.50011C7.45215 5.50011 6.56674 6.7865 6.56674 8.09949V8.1684H7.84705ZM15.2262 10.445H16.1105C17.0364 10.445 17.6563 11.0265 17.662 11.8704C17.6732 12.7252 17.0432 13.3406 16.0633 13.3333C15.197 13.3273 14.5715 12.8267 14.5118 12.1811H13.2799C13.3272 13.4542 14.3352 14.5 16.052 14.5C17.7148 14.5 19.0244 13.4856 18.9997 11.9079C18.9772 10.526 17.9624 9.9118 17.2547 9.83563V9.75946C17.8566 9.65065 18.7701 8.96151 18.7465 7.73074C18.7173 6.45765 17.6968 5.48802 16.0925 5.50011C14.405 5.50616 13.4858 6.56404 13.4509 7.79482H14.7065C14.7425 7.19273 15.2667 6.65351 16.0633 6.65351C16.8542 6.65351 17.4201 7.17943 17.4201 7.94715C17.4257 8.72092 16.8531 9.28432 16.07 9.28432H15.2262V10.445Z" fill="#306CFE"/>
</svg>
