<svg width="19" height="19" viewBox="0 0 19 19" fill="none" xmlns="http://www.w3.org/2000/svg">
<path d="M6.96338 8.36902L8.46338 9.86902L11.8384 6.49402M15.2134 16.244V6.34402C15.2134 5.0839 15.2134 4.45384 14.9681 3.97254C14.7524 3.54918 14.4082 3.20497 13.9849 2.98925C13.5036 2.74402 12.8735 2.74402 11.6134 2.74402H6.81338C5.55326 2.74402 4.9232 2.74402 4.4419 2.98925C4.01854 3.20497 3.67433 3.54918 3.45861 3.97254C3.21338 4.45384 3.21338 5.0839 3.21338 6.34402V16.244L5.27588 14.744L7.15088 16.244L9.21338 14.744L11.2759 16.244L13.1509 14.744L15.2134 16.244Z" stroke="#98A2B3" stroke-width="1.5" stroke-linecap="round" stroke-linejoin="round"/>
</svg>
