<svg width="19" height="19" viewBox="0 0 19 19" fill="none" xmlns="http://www.w3.org/2000/svg">
<g clip-path="url(#clip0_1_10183)">
<path d="M9.22119 2.74402V4.99402M9.22119 8.36902V10.619M9.22119 13.994V16.244M2.68702 6.48696L5.97795 9.01845C6.18832 9.18027 6.2935 9.26118 6.3313 9.3598C6.36443 9.44621 6.36443 9.54183 6.3313 9.62824C6.2935 9.72686 6.18832 9.80777 5.97795 9.96959L2.68702 12.5011C2.37681 12.7397 2.2217 12.859 2.0916 12.8574C1.9784 12.856 1.8719 12.8036 1.80178 12.7147C1.72119 12.6126 1.72119 12.4169 1.72119 12.0255V6.96254C1.72119 6.57116 1.72119 6.37548 1.80178 6.27333C1.8719 6.18445 1.9784 6.13201 2.0916 6.13062C2.2217 6.12903 2.37681 6.24834 2.68702 6.48696ZM15.7554 6.48696L12.4644 9.01845C12.2541 9.18027 12.1489 9.26118 12.1111 9.3598C12.078 9.44621 12.078 9.54183 12.1111 9.62824C12.1489 9.72686 12.2541 9.80777 12.4644 9.96959L15.7554 12.5011C16.0656 12.7397 16.2207 12.859 16.3508 12.8574C16.464 12.856 16.5705 12.8036 16.6406 12.7147C16.7212 12.6126 16.7212 12.4169 16.7212 12.0255V6.96254C16.7212 6.57116 16.7212 6.37548 16.6406 6.27333C16.5705 6.18445 16.464 6.13201 16.3508 6.13062C16.2207 6.12903 16.0656 6.24834 15.7554 6.48696Z" stroke="#98A2B3" stroke-width="1.5" stroke-linecap="round" stroke-linejoin="round"/>
</g>
<defs>
<clipPath id="clip0_1_10183">
<rect width="18" height="18" fill="white" transform="translate(0.221191 0.494019)"/>
</clipPath>
</defs>
</svg>
