<svg width="19" height="19" viewBox="0 0 19 19" fill="none" xmlns="http://www.w3.org/2000/svg">
<g clip-path="url(#clip0_1_10633)">
<path d="M17.4873 3.49408V7.99408M17.4873 7.99408H12.9873M17.4873 7.99408L14.0073 4.72408C13.2012 3.91761 12.204 3.32848 11.1087 3.01166C10.0134 2.69483 8.85564 2.66064 7.74352 2.91227C6.6314 3.1639 5.60116 3.69315 4.74891 4.45064C3.89665 5.20813 3.25018 6.16916 2.8698 7.24408M0.987305 15.4941V10.9941M0.987305 10.9941H5.48731M0.987305 10.9941L4.4673 14.2641C5.27337 15.0705 6.27059 15.6597 7.36591 15.9765C8.46124 16.2933 9.61897 16.3275 10.7311 16.0759C11.8432 15.8243 12.8735 15.295 13.7257 14.5375C14.578 13.78 15.2244 12.819 15.6048 11.7441" stroke="#98A2B3" stroke-width="1.5" stroke-linecap="round" stroke-linejoin="round"/>
</g>
<defs>
<clipPath id="clip0_1_10633">
<rect width="18" height="18" fill="white" transform="translate(0.237305 0.494019)"/>
</clipPath>
</defs>
</svg>
