<svg width="19" height="19" viewBox="0 0 19 19" fill="none" xmlns="http://www.w3.org/2000/svg">
<g clip-path="url(#clip0_1_11139)">
<path d="M0.975098 3.49408V7.99408M0.975098 7.99408H5.4751M0.975098 7.99408L4.4551 4.72408C5.26116 3.91761 6.25838 3.32848 7.35371 3.01166C8.44903 2.69483 9.60677 2.66064 10.7189 2.91227C11.831 3.1639 12.8612 3.69315 13.7135 4.45064C14.5657 5.20813 15.2122 6.16916 15.5926 7.24408M17.4751 15.4941V10.9941M17.4751 10.9941H12.9751M17.4751 10.9941L13.9951 14.2641C13.189 15.0705 12.1918 15.6597 11.0965 15.9765C10.0012 16.2933 8.84343 16.3275 7.73131 16.0759C6.6192 15.8243 5.58895 15.295 4.7367 14.5375C3.88445 13.78 3.23797 12.819 2.8576 11.7441" stroke="#98A2B3" stroke-width="1.5" stroke-linecap="round" stroke-linejoin="round"/>
</g>
<defs>
<clipPath id="clip0_1_11139">
<rect width="18" height="18" fill="white" transform="translate(0.225098 0.494019)"/>
</clipPath>
</defs>
</svg>
