<svg width="19" height="19" viewBox="0 0 19 19" fill="none" xmlns="http://www.w3.org/2000/svg">
<path d="M8.50293 1.99414L10.7529 4.24414M10.7529 4.24414L8.50293 6.49414M10.7529 4.24414H5.35293C4.09281 4.24414 3.46275 4.24414 2.98145 4.48938C2.55809 4.70509 2.21388 5.0493 1.99817 5.47266C1.75293 5.95396 1.75293 6.58402 1.75293 7.84414V12.1191C1.75293 12.4675 1.75293 12.6416 1.77218 12.7878C1.9051 13.7975 2.6996 14.592 3.70925 14.7249C3.85546 14.7441 4.02961 14.7441 4.37793 14.7441M7.75293 14.7441H13.1529C14.413 14.7441 15.0431 14.7441 15.5244 14.4989C15.9478 14.2832 16.292 13.939 16.5077 13.5156C16.7529 13.0343 16.7529 12.4043 16.7529 11.1441V6.86914C16.7529 6.52083 16.7529 6.34667 16.7337 6.20046C16.6008 5.19081 15.8063 4.39631 14.7966 4.26339C14.6504 4.24414 14.4762 4.24414 14.1279 4.24414M7.75293 14.7441L10.0029 16.9941M7.75293 14.7441L10.0029 12.4941" stroke="#98A2B3" stroke-width="1.5" stroke-linecap="round" stroke-linejoin="round"/>
</svg>
