<svg width="19" height="19" viewBox="0 0 19 19" fill="none" xmlns="http://www.w3.org/2000/svg">
<path d="M13.501 1.99414L16.501 4.99414M16.501 4.99414L13.501 7.99414M16.501 4.99414H6.60098C5.34086 4.99414 4.7108 4.99414 4.2295 5.23938C3.80613 5.45509 3.46193 5.7993 3.24621 6.22266C3.00098 6.70396 3.00098 7.33402 3.00098 8.59414V8.74414M3.00098 13.9941H12.901C14.1611 13.9941 14.7912 13.9941 15.2725 13.7489C15.6958 13.5332 16.04 13.189 16.2557 12.7656C16.501 12.2843 16.501 11.6543 16.501 10.3941V10.2441M3.00098 13.9941L6.00098 16.9941M3.00098 13.9941L6.00098 10.9941" stroke="#98A2B3" stroke-width="1.5" stroke-linecap="round" stroke-linejoin="round"/>
</svg>
