<svg width="19" height="19" viewBox="0 0 19 19" fill="none" xmlns="http://www.w3.org/2000/svg">
<path d="M16.0147 3.49402H2.51465M16.0147 15.494H2.51465M9.26465 7.43152H2.51465M9.26465 11.5565H2.51465M15.0546 6.83902L12.1547 9.01402C11.9375 9.17686 11.829 9.25828 11.7902 9.35809C11.7561 9.44552 11.7561 9.54252 11.7902 9.62995C11.829 9.72976 11.9375 9.81118 12.1547 9.97402L15.0546 12.149C15.3636 12.3808 15.5181 12.4966 15.6474 12.4939C15.76 12.4916 15.8655 12.4388 15.9349 12.3502C16.0146 12.2484 16.0147 12.0552 16.0147 11.669V7.31902C16.0147 6.93279 16.0146 6.73967 15.9349 6.63783C15.8655 6.54921 15.76 6.49644 15.6474 6.4941C15.5181 6.49141 15.3636 6.60728 15.0546 6.83902Z" stroke="#98A2B3" stroke-width="1.5" stroke-linecap="round" stroke-linejoin="round"/>
</svg>
