<svg width="19" height="19" viewBox="0 0 19 19" fill="none" xmlns="http://www.w3.org/2000/svg">
<path d="M9.7666 7.43161H3.0166M9.7666 3.49411L3.0166 3.49411M16.5166 11.5566H3.0166M16.5166 15.4941H3.0166M15.5566 2.71411L12.6566 4.88911C12.4395 5.05194 12.3309 5.13336 12.2921 5.23318C12.2581 5.32061 12.2581 5.4176 12.2921 5.50503C12.3309 5.60485 12.4395 5.68627 12.6566 5.84911L15.5566 8.02411C15.8656 8.25584 16.0201 8.37171 16.1494 8.36902C16.2619 8.36669 16.3675 8.31392 16.4369 8.22529C16.5166 8.12345 16.5166 7.93034 16.5166 7.54411V3.19411C16.5166 2.80787 16.5166 2.61476 16.4369 2.51292C16.3675 2.42429 16.2619 2.37153 16.1494 2.36919C16.0201 2.3665 15.8656 2.48237 15.5566 2.71411Z" stroke="#98A2B3" stroke-width="1.5" stroke-linecap="round" stroke-linejoin="round"/>
</svg>
