<svg width="19" height="19" viewBox="0 0 19 19" fill="none" xmlns="http://www.w3.org/2000/svg">
<path d="M10.2621 8.50056L4.349 14.4137M4.98715 10.1223L2.0908 9.43813C1.77214 9.36286 1.66006 8.96726 1.8909 8.73558L4.19427 6.43222C4.349 6.27749 4.55892 6.18883 4.77889 6.18716L7.37582 6.16458M10.6469 3.19296C12.5797 4.51108 14.2516 6.18298 15.5697 8.11583M8.63958 13.7756L9.32373 16.6719C9.399 16.9906 9.7946 17.1026 10.0263 16.8718L12.3296 14.5684C12.4844 14.4137 12.573 14.2038 12.5747 13.9838L12.5973 11.3869M16.0657 6.75673L16.7415 3.50492C16.9255 2.62004 16.1427 1.8372 15.2578 2.0212L12.006 2.69699C11.0483 2.89604 10.1701 3.37027 9.47929 4.06194L6.81127 6.72913C5.79341 7.74699 5.131 9.06679 4.92191 10.4911L4.91271 10.5522C4.78056 11.4613 5.085 12.3788 5.73403 13.0287C6.38305 13.6777 7.30138 13.9821 8.21052 13.8492L8.27157 13.84C9.69591 13.6317 11.0157 12.9685 12.0336 11.9506L14.7008 9.28341C15.3924 8.59256 15.8667 7.71437 16.0657 6.75673Z" stroke="#98A2B3" stroke-width="1.5" stroke-linecap="round" stroke-linejoin="round"/>
</svg>
