<svg width="19" height="19" viewBox="0 0 19 19" fill="none" xmlns="http://www.w3.org/2000/svg">
<path d="M10.52 8.74395L3.39499 15.869M11.2838 3.1478C12.1973 3.75395 13.0754 4.46857 13.8959 5.28907C14.7234 6.11664 15.4433 7.00275 16.0528 7.92476M7.71122 6.41606L5.55506 5.69734C5.30675 5.61457 5.03325 5.66724 4.83344 5.83631L2.69057 7.64951C2.25187 8.02071 2.37651 8.72714 2.91574 8.9258L4.94614 9.67385M9.53078 14.2583L10.2788 16.2887C10.4775 16.828 11.1839 16.9526 11.5551 16.5139L13.3683 14.3711C13.5374 14.1712 13.5901 13.8977 13.5073 13.6494L12.7886 11.4933M15.2814 2.19699L11.6016 2.8103C11.2042 2.87653 10.8398 3.07183 10.5646 3.36601L5.60477 8.66787C4.31915 10.0421 4.35491 12.1883 5.6856 13.519C7.01628 14.8497 9.16247 14.8855 10.5367 13.5999L15.8386 8.64005C16.1328 8.36485 16.3281 8.00039 16.3943 7.60304L17.0076 3.92318C17.1768 2.90795 16.2967 2.02779 15.2814 2.19699Z" stroke="#98A2B3" stroke-width="1.5" stroke-linecap="round" stroke-linejoin="round"/>
</svg>
