<svg width="19" height="19" viewBox="0 0 19 19" fill="none" xmlns="http://www.w3.org/2000/svg">
<path d="M9.27246 11.7441L7.02246 9.49408M9.27246 11.7441C10.3201 11.3456 11.3251 10.8431 12.2725 10.2441M9.27246 11.7441V15.4941C9.27246 15.4941 11.545 15.0816 12.2725 13.9941C13.0825 12.7791 12.2725 10.2441 12.2725 10.2441M7.02246 9.49408C7.42157 8.45866 7.92412 7.46613 8.52246 6.53158C9.39635 5.13432 10.6132 3.98387 12.0572 3.18965C13.5012 2.39543 15.1245 1.98386 16.7725 1.99408C16.7725 4.03408 16.1875 7.61908 12.2725 10.2441M7.02246 9.49408H3.27246C3.27246 9.49408 3.68496 7.22158 4.77246 6.49408C5.98746 5.68408 8.52246 6.49408 8.52246 6.49408M3.64746 12.8691C2.52246 13.8141 2.14746 16.6191 2.14746 16.6191C2.14746 16.6191 4.95246 16.2441 5.89746 15.1191C6.42996 14.4891 6.42246 13.5216 5.82996 12.9366C5.53844 12.6583 5.15443 12.4976 4.75163 12.4851C4.34883 12.4726 3.95562 12.6094 3.64746 12.8691Z" stroke="#98A2B3" stroke-width="1.5" stroke-linecap="round" stroke-linejoin="round"/>
</svg>
