<svg width="19" height="19" viewBox="0 0 19 19" fill="none" xmlns="http://www.w3.org/2000/svg">
<g clip-path="url(#clip0_1_10191)">
<path d="M15.0244 3.86914C15.0244 4.21763 15.0244 4.39188 14.9956 4.53678C14.8772 5.13181 14.4121 5.59696 13.8171 5.71532C13.6722 5.74414 13.4979 5.74414 13.1494 5.74414H4.89941C4.55092 5.74414 4.37668 5.74414 4.23178 5.71532C3.63674 5.59696 3.1716 5.13181 3.05324 4.53678C3.02441 4.39188 3.02441 4.21763 3.02441 3.86914C3.02441 3.52065 3.02441 3.3464 3.05324 3.20151C3.1716 2.60647 3.63674 2.14132 4.23178 2.02296C4.37668 1.99414 4.55092 1.99414 4.89941 1.99414H13.1494C13.4979 1.99414 13.6722 1.99414 13.8171 2.02296C14.4121 2.14132 14.8772 2.60647 14.9956 3.20151C15.0244 3.3464 15.0244 3.52065 15.0244 3.86914ZM15.0244 3.86914C15.7233 3.86914 16.0728 3.86914 16.3484 3.98332C16.716 4.13556 17.008 4.42757 17.1602 4.79512C17.2744 5.07077 17.2744 5.42023 17.2744 6.11914V6.34414C17.2744 7.18422 17.2744 7.60426 17.1109 7.92513C16.9671 8.20737 16.7376 8.43684 16.4554 8.58065C16.1345 8.74414 15.7145 8.74414 14.8744 8.74414H12.1744C11.3343 8.74414 10.9143 8.74414 10.5934 8.90763C10.3112 9.05144 10.0817 9.28091 9.9379 9.56316C9.77441 9.88402 9.77441 10.3041 9.77441 11.1441V11.7441M9.47441 16.9941H10.0744C10.4945 16.9941 10.7045 16.9941 10.8649 16.9124C11.006 16.8405 11.1208 16.7258 11.1927 16.5846C11.2744 16.4242 11.2744 16.2142 11.2744 15.7941V12.9441C11.2744 12.5241 11.2744 12.3141 11.1927 12.1536C11.1208 12.0125 11.006 11.8978 10.8649 11.8259C10.7045 11.7441 10.4945 11.7441 10.0744 11.7441H9.47441C9.05438 11.7441 8.84436 11.7441 8.68392 11.8259C8.5428 11.8978 8.42806 12.0125 8.35616 12.1536C8.27441 12.3141 8.27441 12.5241 8.27441 12.9441V15.7941C8.27441 16.2142 8.27441 16.4242 8.35616 16.5846C8.42806 16.7258 8.5428 16.8405 8.68392 16.9124C8.84436 16.9941 9.05438 16.9941 9.47441 16.9941Z" stroke="#98A2B3" stroke-width="1.5" stroke-linecap="round" stroke-linejoin="round"/>
</g>
<defs>
<clipPath id="clip0_1_10191">
<rect width="18" height="18" fill="white" transform="translate(0.774414 0.494019)"/>
</clipPath>
</defs>
</svg>
