<svg width="19" height="19" viewBox="0 0 19 19" fill="none" xmlns="http://www.w3.org/2000/svg">
<g clip-path="url(#clip0_1_10857)">
<path d="M18.0282 3.49403V7.99403M18.0282 7.99403H13.5282M18.0282 7.99403L14.5557 4.72403C13.5212 3.68883 12.1782 3.01792 10.7292 2.81239C9.28018 2.60685 7.80361 2.87784 6.522 3.58451C5.24038 4.29118 4.22317 5.39524 3.62363 6.73033C3.02409 8.06542 2.87471 9.5592 3.198 10.9866C3.5213 12.4139 4.29975 13.6976 5.41605 14.644C6.53235 15.5905 7.92602 16.1485 9.38705 16.234C10.8481 16.3194 12.2973 15.9277 13.5163 15.1179C14.7354 14.3081 15.6582 13.124 16.1457 11.744" stroke="#98A2B3" stroke-width="1.5" stroke-linecap="round" stroke-linejoin="round"/>
</g>
<defs>
<clipPath id="clip0_1_10857">
<rect width="18" height="18" fill="white" transform="translate(0.77832 0.494019)"/>
</clipPath>
</defs>
</svg>
