<svg width="19" height="19" viewBox="0 0 19 19" fill="none" xmlns="http://www.w3.org/2000/svg">
<g clip-path="url(#clip0_1_10799)">
<path d="M1.02637 3.4941V7.9941M1.02637 7.9941H5.52637M1.02637 7.9941L4.50637 4.7241C5.54205 3.69017 6.88571 3.02083 8.33488 2.81694C9.78405 2.61305 11.2602 2.88565 12.541 3.59368C13.8218 4.3017 14.8377 5.40678 15.4358 6.74243C16.0339 8.07807 16.1818 9.57191 15.857 10.9989C15.5323 12.4258 14.7526 13.7086 13.6355 14.6539C12.5183 15.5992 11.1242 16.1559 9.66316 16.24C8.20213 16.324 6.75335 15.931 5.53511 15.1201C4.31687 14.3092 3.39516 13.1244 2.90887 11.7441" stroke="#98A2B3" stroke-width="1.5" stroke-linecap="round" stroke-linejoin="round"/>
</g>
<defs>
<clipPath id="clip0_1_10799">
<rect width="18" height="18" fill="white" transform="translate(0.276367 0.494019)"/>
</clipPath>
</defs>
</svg>
