<svg width="19" height="19" viewBox="0 0 19 19" fill="none" xmlns="http://www.w3.org/2000/svg">
<path d="M8.90527 4.24414H9.23107C11.5165 4.24414 12.6592 4.24414 13.093 4.65461C13.468 5.00942 13.6341 5.5321 13.5329 6.0383C13.4158 6.6239 12.4829 7.28378 10.617 8.60354L7.56856 10.7597C5.7027 12.0795 4.76976 12.7394 4.65265 13.325C4.55142 13.8312 4.71759 14.3539 5.09255 14.7087C5.52633 15.1191 6.66904 15.1191 8.95448 15.1191H9.65527M6.28027 4.24414C6.28027 5.48678 5.27291 6.49414 4.03027 6.49414C2.78763 6.49414 1.78027 5.48678 1.78027 4.24414C1.78027 3.0015 2.78763 1.99414 4.03027 1.99414C5.27291 1.99414 6.28027 3.0015 6.28027 4.24414ZM16.7803 14.7441C16.7803 15.9868 15.7729 16.9941 14.5303 16.9941C13.2876 16.9941 12.2803 15.9868 12.2803 14.7441C12.2803 13.5015 13.2876 12.4941 14.5303 12.4941C15.7729 12.4941 16.7803 13.5015 16.7803 14.7441Z" stroke="#98A2B3" stroke-width="1.5" stroke-linecap="round" stroke-linejoin="round"/>
</svg>
