<svg width="19" height="19" viewBox="0 0 19 19" fill="none" xmlns="http://www.w3.org/2000/svg">
<path d="M3.03613 7.24402H16.5361M3.03613 11.744H16.5361M6.63613 2.74402H12.9361C14.1963 2.74402 14.8263 2.74402 15.3076 2.98925C15.731 3.20497 16.0752 3.54918 16.2909 3.97254C16.5361 4.45384 16.5361 5.0839 16.5361 6.34402V12.644C16.5361 13.9041 16.5361 14.5342 16.2909 15.0155C16.0752 15.4389 15.731 15.7831 15.3076 15.9988C14.8263 16.244 14.1963 16.244 12.9361 16.244H6.63613C5.37601 16.244 4.74596 16.244 4.26465 15.9988C3.84129 15.7831 3.49708 15.4389 3.28137 15.0155C3.03613 14.5342 3.03613 13.9041 3.03613 12.644V6.34402C3.03613 5.0839 3.03613 4.45384 3.28137 3.97254C3.49708 3.54918 3.84129 3.20497 4.26465 2.98925C4.74596 2.74402 5.37602 2.74402 6.63613 2.74402Z" stroke="#98A2B3" stroke-width="1.5" stroke-linecap="round" stroke-linejoin="round"/>
</svg>
