<svg width="19" height="19" viewBox="0 0 19 19" fill="none" xmlns="http://www.w3.org/2000/svg">
<path d="M14.1322 7.99402C14.9723 7.99402 15.3923 7.99402 15.7132 7.83053C15.9955 7.68672 16.2249 7.45725 16.3687 7.17501C16.5322 6.85414 16.5322 6.4341 16.5322 5.59402V5.14402C16.5322 4.30394 16.5322 3.8839 16.3687 3.56303C16.2249 3.28079 15.9955 3.05132 15.7132 2.90751C15.3923 2.74402 14.9723 2.74402 14.1322 2.74402L5.43223 2.74402C4.59215 2.74402 4.17211 2.74402 3.85124 2.90751C3.569 3.05132 3.33953 3.28079 3.19572 3.56303C3.03223 3.8839 3.03223 4.30394 3.03223 5.14402L3.03223 5.59402C3.03223 6.4341 3.03223 6.85414 3.19572 7.175C3.33953 7.45725 3.569 7.68672 3.85124 7.83053C4.17211 7.99402 4.59215 7.99402 5.43223 7.99402L14.1322 7.99402Z" stroke="#98A2B3" stroke-width="1.5" stroke-linecap="round" stroke-linejoin="round"/>
<path d="M14.1322 16.244C14.9723 16.244 15.3923 16.244 15.7132 16.0805C15.9955 15.9367 16.2249 15.7073 16.3687 15.425C16.5322 15.1041 16.5322 14.6841 16.5322 13.844V13.394C16.5322 12.5539 16.5322 12.1339 16.3687 11.813C16.2249 11.5308 15.9955 11.3013 15.7132 11.1575C15.3923 10.994 14.9723 10.994 14.1322 10.994L5.43223 10.994C4.59215 10.994 4.17211 10.994 3.85124 11.1575C3.569 11.3013 3.33953 11.5308 3.19572 11.813C3.03223 12.1339 3.03223 12.5539 3.03223 13.394L3.03223 13.844C3.03223 14.6841 3.03223 15.1041 3.19572 15.425C3.33953 15.7072 3.569 15.9367 3.85124 16.0805C4.17211 16.244 4.59215 16.244 5.43223 16.244H14.1322Z" stroke="#98A2B3" stroke-width="1.5" stroke-linecap="round" stroke-linejoin="round"/>
</svg>
