<svg width="19" height="19" viewBox="0 0 19 19" fill="none" xmlns="http://www.w3.org/2000/svg">
<path d="M2.53418 9.49402H16.0342M6.13418 2.74402H12.4342C13.6943 2.74402 14.3244 2.74402 14.8057 2.98925C15.229 3.20497 15.5732 3.54918 15.7889 3.97254C16.0342 4.45384 16.0342 5.0839 16.0342 6.34402V12.644C16.0342 13.9041 16.0342 14.5342 15.7889 15.0155C15.5732 15.4389 15.229 15.7831 14.8057 15.9988C14.3244 16.244 13.6943 16.244 12.4342 16.244H6.13418C4.87406 16.244 4.244 16.244 3.7627 15.9988C3.33934 15.7831 2.99513 15.4389 2.77942 15.0155C2.53418 14.5342 2.53418 13.9041 2.53418 12.644V6.34402C2.53418 5.0839 2.53418 4.45384 2.77942 3.97254C2.99513 3.54918 3.33934 3.20497 3.7627 2.98925C4.244 2.74402 4.87406 2.74402 6.13418 2.74402Z" stroke="#98A2B3" stroke-width="1.5" stroke-linecap="round" stroke-linejoin="round"/>
</svg>
