<svg width="19" height="18" viewBox="0 0 19 18" fill="none" xmlns="http://www.w3.org/2000/svg">
<g clip-path="url(#clip0_1_8626)">
<path d="M10.9468 4.12101L12.0718 5.24601M8.69675 6.37101L9.82175 7.49601M6.44675 8.62101L7.57175 9.74601M4.19675 10.871L5.32175 11.996M1.99598 13.1703L4.89746 16.0718C5.04596 16.2203 5.12022 16.2945 5.20584 16.3224C5.28116 16.3468 5.36229 16.3468 5.4376 16.3224C5.52323 16.2945 5.59748 16.2203 5.74598 16.0718L16.1475 5.6703C16.296 5.52179 16.3702 5.44754 16.398 5.36192C16.4225 5.2866 16.4225 5.20547 16.398 5.13016C16.3702 5.04453 16.296 4.97028 16.1475 4.82177L13.246 1.9203C13.0975 1.77179 13.0232 1.69754 12.9376 1.66972C12.8623 1.64525 12.7812 1.64525 12.7058 1.66972C12.6202 1.69754 12.546 1.77179 12.3975 1.9203L1.99598 12.3218C1.84748 12.4703 1.77323 12.5445 1.7454 12.6302C1.72093 12.7055 1.72093 12.7866 1.7454 12.8619C1.77323 12.9475 1.84748 13.0218 1.99598 13.1703Z" stroke="#98A2B3" stroke-width="1.5" stroke-linecap="round" stroke-linejoin="round"/>
</g>
<defs>
<clipPath id="clip0_1_8626">
<rect width="18" height="18" fill="white" transform="translate(0.0712891 -0.00390625)"/>
</clipPath>
</defs>
</svg>
