<svg width="19" height="18" viewBox="0 0 19 18" fill="none" xmlns="http://www.w3.org/2000/svg">
<path d="M5.07324 15.7461H7.32324M11.8232 15.7461H14.0732M13.6982 4.87109V10.8711M2.82324 4.64609L2.82324 11.0961C2.82324 11.9362 2.82324 12.3562 2.98673 12.6771C3.13054 12.9593 3.36001 13.1888 3.64226 13.3326C3.96312 13.4961 4.38316 13.4961 5.22324 13.4961L13.9232 13.4961C14.7633 13.4961 15.1834 13.4961 15.5042 13.3326C15.7865 13.1888 16.0159 12.9593 16.1598 12.6771C16.3232 12.3562 16.3232 11.9362 16.3232 11.0961V4.6461C16.3232 3.80602 16.3232 3.38598 16.1598 3.06511C16.0159 2.78287 15.7865 2.5534 15.5042 2.40959C15.1834 2.24609 14.7633 2.24609 13.9232 2.24609L5.22324 2.24609C4.38316 2.24609 3.96312 2.24609 3.64226 2.40958C3.36001 2.55339 3.13054 2.78286 2.98673 3.06511C2.82324 3.38598 2.82324 3.80601 2.82324 4.64609ZM9.19824 7.87109C9.19824 8.90663 8.35878 9.74609 7.32324 9.74609C6.28771 9.74609 5.44824 8.90663 5.44824 7.87109C5.44824 6.83556 6.28771 5.99609 7.32324 5.99609C8.35878 5.99609 9.19824 6.83556 9.19824 7.87109Z" stroke="#98A2B3" stroke-width="1.5" stroke-linecap="round" stroke-linejoin="round"/>
</svg>
