<svg width="19" height="18" viewBox="0 0 19 18" fill="none" xmlns="http://www.w3.org/2000/svg">
<g clip-path="url(#clip0_1_9047)">
<path d="M6.8252 6.74609H6.8327M11.3252 11.2461H11.3327M12.0752 5.99609L6.0752 11.9961M16.5752 8.99609C16.5752 13.1382 13.2173 16.4961 9.0752 16.4961C4.93306 16.4961 1.5752 13.1382 1.5752 8.99609C1.5752 4.85396 4.93306 1.49609 9.0752 1.49609C13.2173 1.49609 16.5752 4.85396 16.5752 8.99609ZM7.2002 6.74609C7.2002 6.9532 7.0323 7.12109 6.8252 7.12109C6.61809 7.12109 6.4502 6.9532 6.4502 6.74609C6.4502 6.53899 6.61809 6.37109 6.8252 6.37109C7.0323 6.37109 7.2002 6.53899 7.2002 6.74609ZM11.7002 11.2461C11.7002 11.4532 11.5323 11.6211 11.3252 11.6211C11.1181 11.6211 10.9502 11.4532 10.9502 11.2461C10.9502 11.039 11.1181 10.8711 11.3252 10.8711C11.5323 10.8711 11.7002 11.039 11.7002 11.2461Z" stroke="#98A2B3" stroke-width="1.5" stroke-linecap="round" stroke-linejoin="round"/>
</g>
<defs>
<clipPath id="clip0_1_9047">
<rect width="18" height="18" fill="white" transform="translate(0.0756836 -0.00390625)"/>
</clipPath>
</defs>
</svg>
