<svg width="19" height="18" viewBox="0 0 19 18" fill="none" xmlns="http://www.w3.org/2000/svg">
<g clip-path="url(#clip0_1_9049)">
<path d="M7.32715 6.74609H7.33465M11.8271 11.2461H11.8346M12.5771 5.99609L6.57715 11.9961M6.07747 2.86012C6.68035 2.81201 7.25268 2.57494 7.713 2.18266C8.78719 1.26724 10.3671 1.26724 11.4413 2.18266C11.9016 2.57494 12.4739 2.81201 13.0768 2.86012C14.4837 2.97238 15.6009 4.08955 15.7131 5.49642C15.7612 6.0993 15.9983 6.67163 16.3906 7.13195C17.306 8.20614 17.306 9.78605 16.3906 10.8602C15.9983 11.3206 15.7612 11.8929 15.7131 12.4958C15.6009 13.9026 14.4837 15.0198 13.0768 15.1321C12.4739 15.1802 11.9016 15.4173 11.4413 15.8095C10.3671 16.7249 8.78719 16.7249 7.713 15.8095C7.25268 15.4173 6.68035 15.1802 6.07747 15.1321C4.67061 15.0198 3.55344 13.9026 3.44117 12.4958C3.39306 11.8929 3.15599 11.3206 2.76371 10.8602C1.84829 9.78605 1.84829 8.20614 2.76371 7.13195C3.15599 6.67163 3.39306 6.0993 3.44117 5.49642C3.55344 4.08955 4.67061 2.97238 6.07747 2.86012ZM7.70215 6.74609C7.70215 6.9532 7.53426 7.12109 7.32715 7.12109C7.12004 7.12109 6.95215 6.9532 6.95215 6.74609C6.95215 6.53899 7.12004 6.37109 7.32715 6.37109C7.53426 6.37109 7.70215 6.53899 7.70215 6.74609ZM12.2021 11.2461C12.2021 11.4532 12.0343 11.6211 11.8271 11.6211C11.62 11.6211 11.4521 11.4532 11.4521 11.2461C11.4521 11.039 11.62 10.8711 11.8271 10.8711C12.0343 10.8711 12.2021 11.039 12.2021 11.2461Z" stroke="#98A2B3" stroke-width="1.5" stroke-linecap="round" stroke-linejoin="round"/>
</g>
<defs>
<clipPath id="clip0_1_9049">
<rect width="18" height="18" fill="white" transform="translate(0.577148 -0.00390625)"/>
</clipPath>
</defs>
</svg>
