<svg width="19" height="18" viewBox="0 0 19 18" fill="none" xmlns="http://www.w3.org/2000/svg">
<g clip-path="url(#clip0_1_9053)">
<path d="M7.33106 6.74609H7.33856M11.8311 11.2461H11.8386M12.5811 5.99609L6.58106 11.9961M7.48248 15.4467C7.72829 15.4143 7.97661 15.4809 8.17242 15.6317L9.07485 16.3242C9.37316 16.5534 9.78812 16.5534 10.0856 16.3242L11.0222 15.6051C11.1972 15.4709 11.418 15.4118 11.6363 15.4409L12.8079 15.5951C13.1803 15.6442 13.5395 15.4368 13.6836 15.0893L14.1344 13.9993C14.2186 13.7951 14.3802 13.6335 14.5844 13.5493L15.6743 13.0985C16.0218 12.9552 16.2293 12.5952 16.1801 12.2227L16.0318 11.0935C15.9993 10.8477 16.0659 10.5994 16.2168 10.4036L16.9092 9.50108C17.1383 9.20276 17.1383 8.78777 16.9092 8.49028L16.1901 7.55363C16.0559 7.37864 15.9968 7.15781 16.0259 6.93948L16.1801 5.76785C16.2293 5.39536 16.0218 5.0362 15.6743 4.89204L14.5844 4.44122C14.3802 4.35706 14.2186 4.19539 14.1344 3.99123L13.6836 2.90126C13.5403 2.55377 13.1803 2.34628 12.8079 2.39544L11.6363 2.54961C11.418 2.57961 11.1972 2.52044 11.023 2.38711L10.0864 1.66796C9.78812 1.4388 9.37316 1.4388 9.07568 1.66796L8.13909 2.38711C7.96411 2.52044 7.74329 2.57961 7.52498 2.55127L6.35341 2.39711C5.98094 2.34794 5.6218 2.55544 5.47765 2.90293L5.02768 3.9929C4.94269 4.19623 4.78104 4.35789 4.57772 4.44289L3.48781 4.89288C3.14034 5.03704 2.93286 5.39619 2.98202 5.76868L3.13617 6.94032C3.16451 7.15865 3.10534 7.37947 2.97202 7.55363L2.25292 8.49028C2.02377 8.7886 2.02377 9.20359 2.25292 9.50108L2.97202 10.4377C3.10618 10.6127 3.16534 10.8335 3.13617 11.0519L2.98202 12.2235C2.93286 12.596 3.14034 12.9552 3.48781 13.0993L4.57772 13.5501C4.78187 13.6343 4.94352 13.796 5.02768 14.0001L5.47848 15.0901C5.6218 15.4376 5.98177 15.6451 6.35424 15.5959L7.48248 15.4467ZM7.70606 6.74609C7.70606 6.9532 7.53816 7.12109 7.33106 7.12109C7.12395 7.12109 6.95606 6.9532 6.95606 6.74609C6.95606 6.53899 7.12395 6.37109 7.33106 6.37109C7.53816 6.37109 7.70606 6.53899 7.70606 6.74609ZM12.2061 11.2461C12.2061 11.4532 12.0382 11.6211 11.8311 11.6211C11.6239 11.6211 11.4561 11.4532 11.4561 11.2461C11.4561 11.039 11.6239 10.8711 11.8311 10.8711C12.0382 10.8711 12.2061 11.039 12.2061 11.2461Z" stroke="#98A2B3" stroke-width="1.5" stroke-linecap="round" stroke-linejoin="round"/>
</g>
<defs>
<clipPath id="clip0_1_9053">
<rect width="18" height="18" fill="white" transform="translate(0.581055 -0.00390625)"/>
</clipPath>
</defs>
</svg>
