<svg width="19" height="18" viewBox="0 0 19 18" fill="none" xmlns="http://www.w3.org/2000/svg">
<g clip-path="url(#clip0_1_9051)">
<path d="M6.82959 6.74609H6.83709M11.3296 11.2461H11.3371M12.0796 5.99609L6.07959 11.9961M13.5055 3.74497C13.6599 4.11849 13.9564 4.41539 14.3296 4.5704L15.6385 5.11258C16.0121 5.26731 16.3088 5.56409 16.4636 5.93764C16.6183 6.31119 16.6183 6.7309 16.4636 7.10445L15.9218 8.41245C15.767 8.78616 15.7668 9.2063 15.9223 9.57983L16.4631 10.8874C16.5398 11.0725 16.5793 11.2708 16.5793 11.4711C16.5794 11.6713 16.5399 11.8697 16.4633 12.0547C16.3866 12.2397 16.2743 12.4079 16.1327 12.5495C15.991 12.6911 15.8229 12.8034 15.6378 12.88L14.3299 13.4217C13.9563 13.5762 13.6595 13.8726 13.5045 14.2459L12.9623 15.5549C12.8076 15.9284 12.5108 16.2252 12.1373 16.3799C11.7637 16.5347 11.344 16.5347 10.9705 16.3799L9.66255 15.8381C9.28901 15.6838 8.86946 15.6841 8.49615 15.839L7.18726 16.3804C6.81393 16.5348 6.3946 16.5347 6.02137 16.38C5.64814 16.2254 5.35153 15.929 5.1967 15.5559L4.65438 14.2465C4.49994 13.873 4.2035 13.5761 3.83023 13.4211L2.52134 12.8789C2.14797 12.7243 1.85128 12.4277 1.6965 12.0543C1.54172 11.681 1.54151 11.2615 1.69592 10.888L2.23769 9.58001C2.39203 9.20645 2.39172 8.78688 2.23681 8.41356L1.69582 7.10368C1.61912 6.91867 1.57962 6.72035 1.57959 6.52007C1.57956 6.31978 1.61899 6.12146 1.69563 5.93642C1.77227 5.75138 1.88463 5.58326 2.02627 5.44166C2.16791 5.30006 2.33606 5.18776 2.52111 5.11117L3.82906 4.56938C4.20224 4.41507 4.49895 4.11899 4.65407 3.74614L5.19623 2.4372C5.35095 2.06365 5.64772 1.76687 6.02126 1.61214C6.39479 1.45741 6.81449 1.45741 7.18803 1.61214L8.49598 2.15393C8.86952 2.30828 9.28907 2.30796 9.66238 2.15305L10.9718 1.61298C11.3453 1.45834 11.7649 1.45837 12.1384 1.61307C12.5118 1.76777 12.8086 2.06447 12.9633 2.43792L13.5056 3.74724L13.5055 3.74497ZM7.20459 6.74609C7.20459 6.9532 7.0367 7.12109 6.82959 7.12109C6.62248 7.12109 6.45459 6.9532 6.45459 6.74609C6.45459 6.53899 6.62248 6.37109 6.82959 6.37109C7.0367 6.37109 7.20459 6.53899 7.20459 6.74609ZM11.7046 11.2461C11.7046 11.4532 11.5367 11.6211 11.3296 11.6211C11.1225 11.6211 10.9546 11.4532 10.9546 11.2461C10.9546 11.039 11.1225 10.8711 11.3296 10.8711C11.5367 10.8711 11.7046 11.039 11.7046 11.2461Z" stroke="#98A2B3" stroke-width="1.5" stroke-linecap="round" stroke-linejoin="round"/>
</g>
<defs>
<clipPath id="clip0_1_9051">
<rect width="18" height="18" fill="white" transform="translate(0.0795898 -0.00390625)"/>
</clipPath>
</defs>
</svg>
