<svg width="19" height="18" viewBox="0 0 19 18" fill="none" xmlns="http://www.w3.org/2000/svg">
<path d="M11.3374 5.99609H6.5374C6.11736 5.99609 5.90734 5.99609 5.74691 5.91435C5.60579 5.84244 5.49105 5.72771 5.41915 5.58659C5.3374 5.42615 5.3374 5.21613 5.3374 4.79609V2.24609M12.8374 15.7461V10.9461C12.8374 10.5261 12.8374 10.316 12.7557 10.1556C12.6838 10.0145 12.569 9.89975 12.4279 9.82784C12.2675 9.74609 12.0574 9.74609 11.6374 9.74609H6.5374C6.11736 9.74609 5.90734 9.74609 5.74691 9.82784C5.60579 9.89975 5.49105 10.0145 5.41915 10.1556C5.3374 10.316 5.3374 10.5261 5.3374 10.9461V15.7461M15.8374 6.99021V12.1461C15.8374 13.4062 15.8374 14.0363 15.5922 14.5176C15.3765 14.9409 15.0322 15.2851 14.6089 15.5009C14.1276 15.7461 13.4975 15.7461 12.2374 15.7461H5.9374C4.67728 15.7461 4.04723 15.7461 3.56592 15.5009C3.14256 15.2851 2.79835 14.9409 2.58264 14.5176C2.3374 14.0363 2.3374 13.4062 2.3374 12.1461V5.84609C2.3374 4.58598 2.3374 3.95592 2.58264 3.47462C2.79835 3.05125 3.14256 2.70704 3.56592 2.49133C4.04723 2.24609 4.67728 2.24609 5.9374 2.24609H11.0933C11.4602 2.24609 11.6436 2.24609 11.8163 2.28754C11.9693 2.32428 12.1156 2.38489 12.2498 2.46713C12.4012 2.5599 12.5309 2.68961 12.7903 2.94904L15.1345 5.29315C15.3939 5.55258 15.5236 5.68229 15.6164 5.83367C15.6986 5.96788 15.7592 6.11419 15.796 6.26725C15.8374 6.43988 15.8374 6.62332 15.8374 6.99021Z" stroke="#98A2B3" stroke-width="1.5" stroke-linecap="round" stroke-linejoin="round"/>
</svg>
