<svg width="19" height="18" viewBox="0 0 19 18" fill="none" xmlns="http://www.w3.org/2000/svg">
<path d="M5.83496 2.24609V4.79609C5.83496 5.21613 5.83496 5.42615 5.91671 5.58659C5.98861 5.72771 6.10335 5.84244 6.24447 5.91435C6.4049 5.99609 6.61492 5.99609 7.03496 5.99609H12.135C12.555 5.99609 12.765 5.99609 12.9255 5.91435C13.0666 5.84244 13.1813 5.72771 13.2532 5.58659C13.335 5.42615 13.335 5.21613 13.335 4.79609V2.99609M13.335 15.7461V10.9461C13.335 10.5261 13.335 10.316 13.2532 10.1556C13.1813 10.0145 13.0666 9.89975 12.9255 9.82784C12.765 9.74609 12.555 9.74609 12.135 9.74609H7.03496C6.61492 9.74609 6.4049 9.74609 6.24447 9.82784C6.10335 9.89975 5.98861 10.0145 5.91671 10.1556C5.83496 10.316 5.83496 10.5261 5.83496 10.9461V15.7461M16.335 6.99021V12.1461C16.335 13.4062 16.335 14.0363 16.0897 14.5176C15.874 14.9409 15.5298 15.2851 15.1064 15.5009C14.6251 15.7461 13.9951 15.7461 12.735 15.7461H6.43496C5.17484 15.7461 4.54478 15.7461 4.06348 15.5009C3.64012 15.2851 3.29591 14.9409 3.0802 14.5176C2.83496 14.0363 2.83496 13.4062 2.83496 12.1461V5.84609C2.83496 4.58598 2.83496 3.95592 3.0802 3.47462C3.29591 3.05125 3.64012 2.70704 4.06348 2.49133C4.54478 2.24609 5.17484 2.24609 6.43496 2.24609H11.5908C11.9577 2.24609 12.1412 2.24609 12.3138 2.28754C12.4669 2.32428 12.6132 2.38489 12.7474 2.46713C12.8988 2.5599 13.0285 2.68961 13.2879 2.94904L15.632 5.29315C15.8914 5.55258 16.0212 5.68229 16.1139 5.83367C16.1962 5.96788 16.2568 6.11419 16.2935 6.26725C16.335 6.43988 16.335 6.62332 16.335 6.99021Z" stroke="#98A2B3" stroke-width="1.5" stroke-linecap="round" stroke-linejoin="round"/>
</svg>
