<svg width="19" height="18" viewBox="0 0 19 18" fill="none" xmlns="http://www.w3.org/2000/svg">
<path d="M5.83936 2.24609H11.5952C11.9621 2.24609 12.1456 2.24609 12.3182 2.28754C12.4713 2.32428 12.6176 2.38489 12.7518 2.46713C12.9032 2.5599 13.0329 2.68961 13.2923 2.94904L15.6364 5.29315C15.8958 5.55258 16.0256 5.68229 16.1183 5.83367C16.2006 5.96788 16.2612 6.11419 16.2979 6.26725C16.3394 6.43988 16.3394 6.62332 16.3394 6.99021V12.7461M9.96436 7.49609H7.03936C6.61932 7.49609 6.4093 7.49609 6.24886 7.41435C6.10774 7.34244 5.99301 7.22771 5.9211 7.08659C5.83936 6.92615 5.83936 6.71613 5.83936 6.29609V4.87109M10.7144 15.7461V12.4461C10.7144 12.0261 10.7144 11.816 10.6326 11.6556C10.5607 11.5145 10.446 11.3997 10.3048 11.3278C10.1444 11.2461 9.9344 11.2461 9.51436 11.2461H7.03936C6.61932 11.2461 6.4093 11.2461 6.24886 11.3278C6.10774 11.3997 5.99301 11.5145 5.9211 11.6556C5.83936 11.816 5.83936 12.0261 5.83936 12.4461V15.7461M13.7144 7.61815V13.3461C13.7144 14.1862 13.7144 14.6062 13.5509 14.9271C13.4071 15.2093 13.1776 15.4388 12.8953 15.5826C12.5745 15.7461 12.1544 15.7461 11.3144 15.7461H5.23936C4.39928 15.7461 3.97924 15.7461 3.65837 15.5826C3.37613 15.4388 3.14666 15.2093 3.00285 14.9271C2.83936 14.6062 2.83936 14.1862 2.83936 13.3461V7.27109C2.83936 6.43102 2.83936 6.01098 3.00285 5.69011C3.14666 5.40787 3.37613 5.17839 3.65837 5.03458C3.97924 4.87109 4.39928 4.87109 5.23936 4.87109H10.9673C11.1507 4.87109 11.2425 4.87109 11.3288 4.89182C11.4053 4.91019 11.4785 4.94049 11.5456 4.98161C11.6213 5.028 11.6861 5.09285 11.8158 5.22257L13.3629 6.76962C13.4926 6.89934 13.5575 6.96419 13.6038 7.03988C13.645 7.10699 13.6753 7.18014 13.6936 7.25667C13.7144 7.34299 13.7144 7.43471 13.7144 7.61815Z" stroke="#98A2B3" stroke-width="1.5" stroke-linecap="round" stroke-linejoin="round"/>
</svg>
