<svg width="19" height="18" viewBox="0 0 19 18" fill="none" xmlns="http://www.w3.org/2000/svg">
<path d="M12.2447 2.24609H5.94473C4.68461 2.24609 4.05455 2.24609 3.57325 2.49133C3.14988 2.70704 2.80568 3.05125 2.58996 3.47462C2.34473 3.95592 2.34473 4.58598 2.34473 5.84609V12.1461C2.34473 13.4062 2.34473 14.0363 2.58996 14.5176C2.80568 14.9409 3.14988 15.2851 3.57325 15.5009C4.05455 15.7461 4.68461 15.7461 5.94473 15.7461H12.2447C13.5048 15.7461 14.1349 15.7461 14.6162 15.5009C15.0396 15.2851 15.3838 14.9409 15.5995 14.5176C15.8447 14.0363 15.8447 13.4062 15.8447 12.1461V5.84609M12.2447 2.24609C13.5048 2.24609 14.1349 2.24609 14.6162 2.49133C15.0396 2.70704 15.3838 3.05125 15.5995 3.47462C15.8447 3.95592 15.8447 4.58598 15.8447 5.84609M12.2447 2.24609H11.4947C10.6546 2.24609 10.2346 2.24609 9.91374 2.40958C9.6315 2.55339 9.40203 2.78286 9.25822 3.06511C9.09473 3.38598 9.09473 3.80602 9.09473 4.64609V6.59609C9.09473 7.43617 9.09473 7.85621 9.25822 8.17708C9.40203 8.45932 9.6315 8.68879 9.91374 8.8326C10.2346 8.99609 10.6546 8.99609 11.4947 8.99609H13.4447C14.2848 8.99609 14.7048 8.99609 15.0257 8.8326C15.308 8.68879 15.5374 8.45932 15.6812 8.17708C15.8447 7.85621 15.8447 7.43617 15.8447 6.59609V5.84609M9.46973 8.62109L5.34473 12.7461M5.34473 12.7461H9.09473M5.34473 12.7461L5.34473 8.99609" stroke="#98A2B3" stroke-width="1.5" stroke-linecap="round" stroke-linejoin="round"/>
</svg>
