<svg width="19" height="18" viewBox="0 0 19 18" fill="none" xmlns="http://www.w3.org/2000/svg">
<g clip-path="url(#clip0_1_9057)">
<path d="M1.97472 9.74609H6.47472M11.7247 9.74609H16.2247M9.09972 5.24609V15.7461M9.09972 5.24609C10.1353 5.24609 10.9747 4.40663 10.9747 3.37109M9.09972 5.24609C8.06419 5.24609 7.22472 4.40663 7.22472 3.37109M3.09972 15.7461L15.0997 15.7461M3.09972 3.3711L7.22472 3.37109M7.22472 3.37109C7.22472 2.33556 8.06419 1.49609 9.09972 1.49609C10.1353 1.49609 10.9747 2.33556 10.9747 3.37109M10.9747 3.37109L15.0997 3.37109M6.76005 10.7484C6.45953 11.899 5.4383 12.7461 4.22472 12.7461C3.01114 12.7461 1.98991 11.899 1.68939 10.7484C1.66484 10.6543 1.65256 10.6073 1.65138 10.4195C1.65065 10.3044 1.69344 10.0389 1.73031 9.92978C1.79045 9.75183 1.85555 9.65138 1.98575 9.4505L4.22472 5.99609L6.46369 9.4505C6.59389 9.65139 6.65899 9.75183 6.71914 9.92978C6.756 10.0389 6.79879 10.3044 6.79807 10.4195C6.79688 10.6073 6.78461 10.6543 6.76005 10.7484ZM16.5101 10.7484C16.2095 11.899 15.1883 12.7461 13.9747 12.7461C12.7611 12.7461 11.7399 11.899 11.4394 10.7484C11.4148 10.6543 11.4026 10.6073 11.4014 10.4195C11.4007 10.3044 11.4434 10.0389 11.4803 9.92978C11.5405 9.75183 11.6056 9.65138 11.7358 9.4505L13.9747 5.99609L16.2137 9.4505C16.3439 9.65139 16.409 9.75183 16.4691 9.92978C16.506 10.0389 16.5488 10.3044 16.5481 10.4195C16.5469 10.6073 16.5346 10.6543 16.5101 10.7484Z" stroke="#98A2B3" stroke-width="1.5" stroke-linecap="round" stroke-linejoin="round"/>
</g>
<defs>
<clipPath id="clip0_1_9057">
<rect width="18" height="18" fill="white" transform="translate(0.0996094 -0.00390625)"/>
</clipPath>
</defs>
</svg>
