<svg width="19" height="18" viewBox="0 0 19 18" fill="none" xmlns="http://www.w3.org/2000/svg">
<path d="M2.09766 12.7461V12.6334C2.09766 12.3961 2.09766 12.2774 2.11581 12.1618C2.13193 12.0591 2.15868 11.9584 2.19562 11.8613C2.23722 11.7519 2.29611 11.6488 2.41387 11.4427L5.09766 6.74609M2.09766 12.7461C2.09766 14.403 3.4408 15.7461 5.09766 15.7461C6.75451 15.7461 8.09766 14.403 8.09766 12.7461M2.09766 12.7461V12.5961C2.09766 12.3861 2.09766 12.2811 2.13853 12.2008C2.17448 12.1303 2.23185 12.0729 2.30241 12.037C2.38263 11.9961 2.48764 11.9961 2.69766 11.9961H7.49766C7.70768 11.9961 7.81269 11.9961 7.8929 12.037C7.96346 12.0729 8.02083 12.1303 8.05678 12.2008C8.09766 12.2811 8.09766 12.3861 8.09766 12.5961V12.7461M5.09766 6.74609L7.78144 11.4427C7.89921 11.6488 7.95809 11.7519 7.9997 11.8613C8.03664 11.9584 8.06338 12.0591 8.0795 12.1618C8.09766 12.2774 8.09766 12.3961 8.09766 12.6334V12.7461M5.09766 6.74609L14.0977 5.24609M11.0977 11.2461V11.1334C11.0977 10.8961 11.0977 10.7774 11.1158 10.6618C11.1319 10.5591 11.1587 10.4584 11.1956 10.3613C11.2372 10.2519 11.2961 10.1488 11.4139 9.94272L14.0977 5.24609M11.0977 11.2461C11.0977 12.9029 12.4408 14.2461 14.0977 14.2461C15.7545 14.2461 17.0977 12.9029 17.0977 11.2461M11.0977 11.2461V11.0961C11.0977 10.8861 11.0977 10.7811 11.1385 10.7008C11.1745 10.6303 11.2318 10.5729 11.3024 10.537C11.3826 10.4961 11.4876 10.4961 11.6977 10.4961H16.4977C16.7077 10.4961 16.8127 10.4961 16.8929 10.537C16.9635 10.5729 17.0208 10.6303 17.0568 10.7008C17.0977 10.7811 17.0977 10.8861 17.0977 11.0961V11.2461M14.0977 5.24609L16.7814 9.94272C16.8992 10.1488 16.9581 10.2519 16.9997 10.3613C17.0366 10.4584 17.0634 10.5591 17.0795 10.6618C17.0977 10.7774 17.0977 10.8961 17.0977 11.1334V11.2461M9.59766 2.24609V5.99609" stroke="#98A2B3" stroke-width="1.5" stroke-linecap="round" stroke-linejoin="round"/>
</svg>
