<svg width="19" height="18" viewBox="0 0 19 18" fill="none" xmlns="http://www.w3.org/2000/svg">
<path d="M12.5933 15.7461H12.7433C14.0034 15.7461 14.6334 15.7461 15.1147 15.5009C15.5381 15.2851 15.8823 14.9409 16.098 14.5176C16.3433 14.0363 16.3433 13.4062 16.3433 12.1461V5.84609C16.3433 4.58598 16.3433 3.95592 16.098 3.47462C15.8823 3.05125 15.5381 2.70704 15.1147 2.49133C14.6334 2.24609 14.0034 2.24609 12.7433 2.24609H6.44326C5.18314 2.24609 4.55308 2.24609 4.07178 2.49133C3.64842 2.70704 3.30421 3.05125 3.0885 3.47462C2.84326 3.95592 2.84326 4.58598 2.84326 5.84609V5.99609M9.21826 9.37109L13.3433 5.24609M13.3433 5.24609H9.59326M13.3433 5.24609V8.99609M5.24326 15.7461H7.19326C8.03334 15.7461 8.45338 15.7461 8.77425 15.5826C9.05649 15.4388 9.28596 15.2093 9.42977 14.9271C9.59326 14.6062 9.59326 14.1862 9.59326 13.3461V11.3961C9.59326 10.556 9.59326 10.136 9.42977 9.81511C9.28596 9.53287 9.05649 9.3034 8.77425 9.15959C8.45338 8.99609 8.03334 8.99609 7.19326 8.99609H5.24326C4.40318 8.99609 3.98314 8.99609 3.66228 9.15959C3.38003 9.3034 3.15056 9.53287 3.00675 9.81511C2.84326 10.136 2.84326 10.556 2.84326 11.3961V13.3461C2.84326 14.1862 2.84326 14.6062 3.00675 14.9271C3.15056 15.2093 3.38003 15.4388 3.66228 15.5826C3.98314 15.7461 4.40318 15.7461 5.24326 15.7461Z" stroke="#98A2B3" stroke-width="1.5" stroke-linecap="round" stroke-linejoin="round"/>
</svg>
