<svg width="19" height="18" viewBox="0 0 19 18" fill="none" xmlns="http://www.w3.org/2000/svg">
<g clip-path="url(#clip0_1_10193)">
<path d="M10.5913 16.4961H5.19131M5.19131 16.4961C3.93119 16.4961 3.30113 16.4961 2.81983 16.2509C2.39647 16.0351 2.05226 15.6909 1.83654 15.2676C1.59131 14.7863 1.59131 14.1562 1.59131 12.8961M5.19131 16.4961H5.49131C6.75143 16.4961 7.38149 16.4961 7.86279 16.2509C8.28615 16.0351 8.63036 15.6909 8.84607 15.2676C9.09131 14.7863 9.09131 14.1562 9.09131 12.8961V12.5961C9.09131 11.336 9.09131 10.7059 8.84607 10.2246C8.63036 9.80125 8.28615 9.45704 7.86279 9.24133C7.38149 8.99609 6.75143 8.99609 5.49131 8.99609H5.19131C3.93119 8.99609 3.30113 8.99609 2.81983 9.24133C2.39647 9.45704 2.05226 9.80125 1.83654 10.2246C1.59131 10.7059 1.59131 11.336 1.59131 12.5961V12.8961M1.59131 12.8961V7.49609M7.59131 1.49609H10.5913M16.5913 7.49609V10.4961M13.5913 16.4961C14.2888 16.4961 14.6375 16.4961 14.9237 16.4194C15.7001 16.2114 16.3066 15.6049 16.5146 14.8284C16.5913 14.5423 16.5913 14.1936 16.5913 13.4961M16.5913 4.49609C16.5913 3.79862 16.5913 3.44988 16.5146 3.16375C16.3066 2.38729 15.7001 1.78081 14.9237 1.57276C14.6375 1.49609 14.2888 1.49609 13.5913 1.49609M4.59131 1.49609C3.89383 1.49609 3.54509 1.49609 3.25897 1.57276C2.48251 1.78081 1.87603 2.38729 1.66798 3.16375C1.59131 3.44988 1.59131 3.79862 1.59131 4.49609" stroke="#98A2B3" stroke-width="1.5" stroke-linecap="round" stroke-linejoin="round"/>
</g>
<defs>
<clipPath id="clip0_1_10193">
<rect width="18" height="18" fill="white" transform="translate(0.0913086 -0.00390625)"/>
</clipPath>
</defs>
</svg>
