<svg width="19" height="18" viewBox="0 0 19 18" fill="none" xmlns="http://www.w3.org/2000/svg">
<path d="M6.60156 2.24609H6.45156C5.19144 2.24609 4.56139 2.24609 4.08008 2.49133C3.65672 2.70704 3.31251 3.05125 3.0968 3.47462C2.85156 3.95592 2.85156 4.58598 2.85156 5.84609V5.99609M6.60156 15.7461H6.45156C5.19144 15.7461 4.56139 15.7461 4.08008 15.5009C3.65672 15.2851 3.31251 14.9409 3.0968 14.5176C2.85156 14.0363 2.85156 13.4062 2.85156 12.1461V11.9961M16.3516 5.99609V5.84609C16.3516 4.58598 16.3516 3.95592 16.1063 3.47462C15.8906 3.05125 15.5464 2.70704 15.123 2.49133C14.6417 2.24609 14.0117 2.24609 12.7516 2.24609H12.6016M16.3516 11.9961V12.1461C16.3516 13.4062 16.3516 14.0363 16.1063 14.5176C15.8906 14.9409 15.5464 15.2851 15.123 15.5009C14.6417 15.7461 14.0117 15.7461 12.7516 15.7461H12.6016M2.85156 8.99609H2.85906M6.22656 8.99609H6.23406M12.9766 8.99609H12.9841M9.60156 8.99609H9.60906M16.3516 8.99609H16.3591" stroke="#98A2B3" stroke-width="1.5" stroke-linecap="round" stroke-linejoin="round"/>
</svg>
