<svg width="19" height="18" viewBox="0 0 19 18" fill="none" xmlns="http://www.w3.org/2000/svg">
<path d="M15.6089 2.99609L6.98389 11.6211M6.98389 6.37109L15.6089 14.9961M13.7339 8.99609H13.7414M17.1089 8.99609H17.1164M5.10889 2.24609C6.35153 2.24609 7.35889 3.25345 7.35889 4.49609C7.35889 5.73873 6.35153 6.74609 5.10889 6.74609C3.86625 6.74609 2.85889 5.73874 2.85889 4.49609C2.85889 3.25345 3.86625 2.24609 5.10889 2.24609ZM5.10889 11.2461C6.35153 11.2461 7.35889 12.2535 7.35889 13.4961C7.35889 14.7387 6.35153 15.7461 5.10889 15.7461C3.86625 15.7461 2.85889 14.7387 2.85889 13.4961C2.85889 12.2535 3.86625 11.2461 5.10889 11.2461Z" stroke="#98A2B3" stroke-width="1.5" stroke-linecap="round" stroke-linejoin="round"/>
</svg>
