<svg width="19" height="18" viewBox="0 0 19 18" fill="none" xmlns="http://www.w3.org/2000/svg">
<path d="M15.103 2.99609L6.19303 11.9061M10.9555 10.8561L15.103 14.9961M6.19303 6.08609L9.10303 8.99609M6.85303 4.49609C6.85303 5.73873 5.84567 6.74609 4.60303 6.74609C3.36039 6.74609 2.35303 5.73873 2.35303 4.49609C2.35303 3.25345 3.36039 2.24609 4.60303 2.24609C5.84567 2.24609 6.85303 3.25345 6.85303 4.49609ZM6.85303 13.4961C6.85303 14.7387 5.84567 15.7461 4.60303 15.7461C3.36039 15.7461 2.35303 14.7387 2.35303 13.4961C2.35303 12.2535 3.36039 11.2461 4.60303 11.2461C5.84567 11.2461 6.85303 12.2535 6.85303 13.4961Z" stroke="#98A2B3" stroke-width="1.5" stroke-linecap="round" stroke-linejoin="round"/>
</svg>
