<svg width="19" height="18" viewBox="0 0 19 18" fill="none" xmlns="http://www.w3.org/2000/svg">
<path d="M3.48193 6.44609L15.8569 12.7461M15.8569 5.24609L3.48193 11.5461M4.60693 2.24609C5.84957 2.24609 6.85693 3.25345 6.85693 4.49609C6.85693 5.73873 5.84957 6.74609 4.60693 6.74609C3.36429 6.74609 2.35693 5.73874 2.35693 4.49609C2.35693 3.25345 3.36429 2.24609 4.60693 2.24609ZM4.60693 11.2461C5.84957 11.2461 6.85693 12.2535 6.85693 13.4961C6.85693 14.7387 5.84957 15.7461 4.60693 15.7461C3.36429 15.7461 2.35693 14.7387 2.35693 13.4961C2.35693 12.2535 3.36429 11.2461 4.60693 11.2461Z" stroke="#98A2B3" stroke-width="1.5" stroke-linecap="round" stroke-linejoin="round"/>
</svg>
