<svg width="19" height="18" viewBox="0 0 19 18" fill="none" xmlns="http://www.w3.org/2000/svg">
<path d="M15.6045 2.99609L6.97949 11.6211M6.97949 6.37109L15.6045 14.9961M5.10449 2.24609C6.34713 2.24609 7.35449 3.25345 7.35449 4.49609C7.35449 5.73873 6.34713 6.74609 5.10449 6.74609C3.86185 6.74609 2.85449 5.73874 2.85449 4.49609C2.85449 3.25345 3.86185 2.24609 5.10449 2.24609ZM5.10449 11.2461C6.34713 11.2461 7.35449 12.2535 7.35449 13.4961C7.35449 14.7387 6.34713 15.7461 5.10449 15.7461C3.86185 15.7461 2.85449 14.7387 2.85449 13.4961C2.85449 12.2535 3.86185 11.2461 5.10449 11.2461Z" stroke="#98A2B3" stroke-width="1.5" stroke-linecap="round" stroke-linejoin="round"/>
</svg>
