<svg width="19" height="18" viewBox="0 0 19 18" fill="none" xmlns="http://www.w3.org/2000/svg">
<path d="M3.48633 6.44609L15.8613 12.7461M15.8613 5.24609L3.48633 11.5461M13.2363 8.99609H13.2438M16.6113 8.99609H16.6188M4.61133 2.24609C5.85397 2.24609 6.86133 3.25345 6.86133 4.49609C6.86133 5.73873 5.85397 6.74609 4.61133 6.74609C3.36869 6.74609 2.36133 5.73874 2.36133 4.49609C2.36133 3.25345 3.36869 2.24609 4.61133 2.24609ZM4.61133 11.2461C5.85397 11.2461 6.86133 12.2535 6.86133 13.4961C6.86133 14.7387 5.85397 15.7461 4.61133 15.7461C3.36869 15.7461 2.36133 14.7387 2.36133 13.4961C2.36133 12.2535 3.36869 11.2461 4.61133 11.2461Z" stroke="#98A2B3" stroke-width="1.5" stroke-linecap="round" stroke-linejoin="round"/>
</svg>
