<svg width="19" height="18" viewBox="0 0 19 18" fill="none" xmlns="http://www.w3.org/2000/svg">
<path d="M8.50398 8.99606H4.37898M4.31549 9.21469L2.5643 14.4457C2.42672 14.8567 2.35794 15.0621 2.4073 15.1887C2.45017 15.2986 2.54224 15.3819 2.65586 15.4136C2.78668 15.4501 2.98428 15.3612 3.37948 15.1833L15.9131 9.54322C16.2988 9.36963 16.4917 9.28284 16.5513 9.16227C16.6031 9.05751 16.6031 8.93461 16.5513 8.82986C16.4917 8.70929 16.2988 8.62249 15.9131 8.44891L3.37511 2.80685C2.9811 2.62955 2.7841 2.5409 2.6534 2.57726C2.5399 2.60885 2.44784 2.69193 2.40482 2.80162C2.35528 2.92791 2.42334 3.13295 2.55944 3.54301L4.31598 8.83521C4.33935 8.90564 4.35104 8.94085 4.35566 8.97687C4.35975 9.00883 4.35971 9.04118 4.35553 9.07313C4.35083 9.10913 4.33905 9.14432 4.31549 9.21469Z" stroke="#98A2B3" stroke-width="1.5" stroke-linecap="round" stroke-linejoin="round"/>
</svg>
