<svg width="19" height="18" viewBox="0 0 19 18" fill="none" xmlns="http://www.w3.org/2000/svg">
<path d="M8.49964 10.1211L16.3746 2.2461M8.59533 10.3672L10.5664 15.4357C10.7401 15.8822 10.8269 16.1054 10.952 16.1706C11.0604 16.2271 11.1896 16.2272 11.2981 16.1708C11.4233 16.1058 11.5104 15.8826 11.6846 15.4363L16.6273 2.7705C16.7845 2.36761 16.8632 2.16617 16.8202 2.03745C16.7828 1.92566 16.6951 1.83794 16.5833 1.80059C16.4546 1.75759 16.2531 1.8362 15.8502 1.99343L3.18443 6.93618C2.73813 7.11035 2.51497 7.19744 2.44994 7.32261C2.39357 7.43113 2.39364 7.56032 2.45015 7.66877C2.51533 7.79387 2.73858 7.88069 3.18509 8.05433L8.25359 10.0254C8.34423 10.0607 8.38955 10.0783 8.42771 10.1055C8.46153 10.1296 8.49111 10.1592 8.51524 10.193C8.54246 10.2312 8.56008 10.2765 8.59533 10.3672Z" stroke="#98A2B3" stroke-width="1.5" stroke-linecap="round" stroke-linejoin="round"/>
</svg>
