<svg width="19" height="18" viewBox="0 0 19 18" fill="none" xmlns="http://www.w3.org/2000/svg">
<path d="M9.12729 14.2461V8.99609M9.34592 14.3096L14.5798 16.0617C14.99 16.199 15.1951 16.2677 15.3215 16.2184C15.4313 16.1756 15.5147 16.0837 15.5465 15.9702C15.5831 15.8395 15.4947 15.6422 15.3178 15.2474L9.70146 2.71287C9.5285 2.32684 9.44201 2.13383 9.32154 2.07402C9.21687 2.02206 9.09396 2.02187 8.98913 2.07349C8.86846 2.13291 8.78136 2.32564 8.60716 2.71111L2.94128 15.2481C2.76301 15.6426 2.67387 15.8398 2.71012 15.9707C2.7416 16.0843 2.82468 16.1765 2.93442 16.2196C3.06079 16.2692 3.26621 16.2011 3.67705 16.0647L8.96644 14.3091C9.03687 14.2857 9.07209 14.274 9.1081 14.2694C9.14006 14.2653 9.17241 14.2654 9.20436 14.2695C9.24037 14.2742 9.27555 14.286 9.34592 14.3096Z" stroke="#98A2B3" stroke-width="1.5" stroke-linecap="round" stroke-linejoin="round"/>
</svg>
