<svg width="19" height="18" viewBox="0 0 19 18" fill="none" xmlns="http://www.w3.org/2000/svg">
<g clip-path="url(#clip0_1_8739)">
<path d="M15.6406 8.99609C15.6406 12.3098 12.9543 14.9961 9.64063 14.9961M15.6406 8.99609C15.6406 5.68239 12.9543 2.99609 9.64063 2.99609M15.6406 8.99609H3.64063M9.64063 14.9961C6.32692 14.9961 3.64063 12.3098 3.64063 8.99609M9.64063 14.9961C11.1414 13.3531 11.9947 11.2209 12.041 8.99609C11.9947 6.77131 11.1414 4.63911 9.64063 2.99609M9.64063 14.9961C8.13986 13.3531 7.28739 11.2209 7.24104 8.99609C7.28739 6.77131 8.13986 4.63911 9.64063 2.99609M3.64063 8.99609C3.64063 5.68239 6.32692 2.99609 9.64063 2.99609M5.14063 14.9961C5.14063 15.8245 4.46905 16.4961 3.64063 16.4961C2.8122 16.4961 2.14062 15.8245 2.14062 14.9961C2.14062 14.1677 2.8122 13.4961 3.64063 13.4961C4.46905 13.4961 5.14063 14.1677 5.14063 14.9961ZM17.1406 14.9961C17.1406 15.8245 16.4691 16.4961 15.6406 16.4961C14.8122 16.4961 14.1406 15.8245 14.1406 14.9961C14.1406 14.1677 14.8122 13.4961 15.6406 13.4961C16.4691 13.4961 17.1406 14.1677 17.1406 14.9961ZM5.14063 2.99609C5.14063 3.82452 4.46905 4.49609 3.64063 4.49609C2.8122 4.49609 2.14062 3.82452 2.14062 2.99609C2.14062 2.16767 2.8122 1.49609 3.64063 1.49609C4.46905 1.49609 5.14063 2.16767 5.14063 2.99609ZM17.1406 2.99609C17.1406 3.82452 16.4691 4.49609 15.6406 4.49609C14.8122 4.49609 14.1406 3.82452 14.1406 2.99609C14.1406 2.16767 14.8122 1.49609 15.6406 1.49609C16.4691 1.49609 17.1406 2.16767 17.1406 2.99609Z" stroke="#98A2B3" stroke-width="1.5" stroke-linecap="round" stroke-linejoin="round"/>
</g>
<defs>
<clipPath id="clip0_1_8739">
<rect width="18" height="18" fill="white" transform="translate(0.640625 -0.00390625)"/>
</clipPath>
</defs>
</svg>
