<svg width="19" height="18" viewBox="0 0 19 18" fill="none" xmlns="http://www.w3.org/2000/svg">
<g clip-path="url(#clip0_1_8733)">
<path d="M16.6348 13.1211L16.116 5.59841C16.0345 4.41737 15.9938 3.82685 15.7378 3.37921C15.5125 2.98509 15.1731 2.66837 14.7644 2.47066C14.3003 2.24609 13.7083 2.24609 12.5245 2.24609H5.74504C4.5612 2.24609 3.96928 2.24609 3.50509 2.47066C3.0964 2.66837 2.75708 2.98509 2.53172 3.37921C2.27575 3.82685 2.23502 4.41737 2.15357 5.5984L1.63477 13.1211M16.6348 13.1211C16.6348 14.5708 15.4595 15.7461 14.0098 15.7461H4.25977C2.81002 15.7461 1.63477 14.5708 1.63477 13.1211M16.6348 13.1211C16.6348 11.6713 15.4595 10.4961 14.0098 10.4961H4.25977C2.81002 10.4961 1.63477 11.6713 1.63477 13.1211M4.63477 13.1211H4.64227M9.13477 13.1211H13.6348" stroke="#98A2B3" stroke-width="1.5" stroke-linecap="round" stroke-linejoin="round"/>
</g>
<defs>
<clipPath id="clip0_1_8733">
<rect width="18" height="18" fill="white" transform="translate(0.134277 -0.00390625)"/>
</clipPath>
</defs>
</svg>
