<svg width="19" height="18" viewBox="0 0 19 18" fill="none" xmlns="http://www.w3.org/2000/svg">
<g clip-path="url(#clip0_1_8737)">
<path d="M14.3887 6.74609C14.3887 9.64559 12.0382 11.9961 9.13867 11.9961M14.3887 6.74609C14.3887 3.8466 12.0382 1.49609 9.13867 1.49609M14.3887 6.74609H3.88867M9.13867 11.9961C6.23918 11.9961 3.88867 9.64559 3.88867 6.74609M9.13867 11.9961C10.4518 10.5585 11.1988 8.69278 11.2394 6.74609C11.1988 4.79941 10.4518 2.93373 9.13867 1.49609M9.13867 11.9961C7.8255 10.5585 7.07991 8.69278 7.03936 6.74609C7.07991 4.79941 7.8255 2.93373 9.13867 1.49609M9.13867 11.9961V13.4961M3.88867 6.74609C3.88867 3.8466 6.23918 1.49609 9.13867 1.49609M10.6387 14.9961C10.6387 15.8245 9.9671 16.4961 9.13867 16.4961C8.31025 16.4961 7.63867 15.8245 7.63867 14.9961M10.6387 14.9961C10.6387 14.1677 9.9671 13.4961 9.13867 13.4961M10.6387 14.9961H15.8887M7.63867 14.9961C7.63867 14.1677 8.31025 13.4961 9.13867 13.4961M7.63867 14.9961H2.38867" stroke="#98A2B3" stroke-width="1.5" stroke-linecap="round" stroke-linejoin="round"/>
</g>
<defs>
<clipPath id="clip0_1_8737">
<rect width="18" height="18" fill="white" transform="translate(0.138672 -0.00390625)"/>
</clipPath>
</defs>
</svg>
