<svg width="19" height="18" viewBox="0 0 19 18" fill="none" xmlns="http://www.w3.org/2000/svg">
<path d="M17.1362 7.87109L16.7804 5.02457C16.6409 3.90811 16.5711 3.34986 16.3083 2.92919C16.0769 2.55856 15.7424 2.26335 15.346 2.07963C14.896 1.87109 14.3334 1.87109 13.2082 1.87109H6.06425C4.93909 1.87109 4.37651 1.87109 3.9265 2.07963C3.53001 2.26335 3.19561 2.55856 2.96412 2.92919C2.70138 3.34986 2.6316 3.9081 2.49205 5.02457L2.13623 7.87109M4.76123 10.8711H14.5112M4.76123 10.8711C3.31148 10.8711 2.13623 9.69584 2.13623 8.24609C2.13623 6.79635 3.31148 5.62109 4.76123 5.62109H14.5112C15.961 5.62109 17.1362 6.79635 17.1362 8.24609C17.1362 9.69584 15.961 10.8711 14.5112 10.8711M4.76123 10.8711C3.31148 10.8711 2.13623 12.0463 2.13623 13.4961C2.13623 14.9458 3.31148 16.1211 4.76123 16.1211H14.5112C15.961 16.1211 17.1362 14.9458 17.1362 13.4961C17.1362 12.0463 15.961 10.8711 14.5112 10.8711M5.13623 8.24609H5.14373M5.13623 13.4961H5.14373M9.63623 8.24609H14.1362M9.63623 13.4961H14.1362" stroke="#98A2B3" stroke-width="1.5" stroke-linecap="round" stroke-linejoin="round"/>
</svg>
