<svg width="19" height="18" viewBox="0 0 19 18" fill="none" xmlns="http://www.w3.org/2000/svg">
<path d="M5.13281 5.99609H5.14031M5.13281 11.9961H5.14031M5.13281 8.99609H14.1328M5.13281 8.99609C3.47596 8.99609 2.13281 7.65295 2.13281 5.99609C2.13281 4.33924 3.47596 2.99609 5.13281 2.99609H14.1328C15.7897 2.99609 17.1328 4.33924 17.1328 5.99609C17.1328 7.65295 15.7897 8.99609 14.1328 8.99609M5.13281 8.99609C3.47596 8.99609 2.13281 10.3392 2.13281 11.9961C2.13281 13.6529 3.47596 14.9961 5.13281 14.9961H14.1328C15.7897 14.9961 17.1328 13.6529 17.1328 11.9961C17.1328 10.3392 15.7897 8.99609 14.1328 8.99609" stroke="#98A2B3" stroke-width="1.5" stroke-linecap="round" stroke-linejoin="round"/>
</svg>
