<svg width="19" height="18" viewBox="0 0 19 18" fill="none" xmlns="http://www.w3.org/2000/svg">
<g clip-path="url(#clip0_1_8729)">
<path d="M4.63037 4.49609H4.63787M4.63037 13.4961H4.63787M4.03037 7.49609H14.2304C15.0705 7.49609 15.4905 7.49609 15.8114 7.3326C16.0936 7.18879 16.3231 6.95932 16.4669 6.67708C16.6304 6.35621 16.6304 5.93617 16.6304 5.09609V3.89609C16.6304 3.05602 16.6304 2.63598 16.4669 2.31511C16.3231 2.03286 16.0936 1.80339 15.8114 1.65958C15.4905 1.49609 15.0705 1.49609 14.2304 1.49609H4.03037C3.19029 1.49609 2.77025 1.49609 2.44939 1.65958C2.16714 1.80339 1.93767 2.03286 1.79386 2.31511C1.63037 2.63598 1.63037 3.05602 1.63037 3.89609V5.09609C1.63037 5.93617 1.63037 6.35621 1.79386 6.67708C1.93767 6.95932 2.16714 7.18879 2.44939 7.3326C2.77025 7.49609 3.19029 7.49609 4.03037 7.49609ZM4.03037 16.4961H14.2304C15.0705 16.4961 15.4905 16.4961 15.8114 16.3326C16.0936 16.1888 16.3231 15.9593 16.4669 15.6771C16.6304 15.3562 16.6304 14.9362 16.6304 14.0961V12.8961C16.6304 12.056 16.6304 11.636 16.4669 11.3151C16.3231 11.0329 16.0936 10.8034 15.8114 10.6596C15.4905 10.4961 15.0705 10.4961 14.2304 10.4961H4.03037C3.19029 10.4961 2.77025 10.4961 2.44939 10.6596C2.16714 10.8034 1.93767 11.0329 1.79386 11.3151C1.63037 11.636 1.63037 12.056 1.63037 12.8961V14.0961C1.63037 14.9362 1.63037 15.3562 1.79386 15.6771C1.93767 15.9593 2.16714 16.1888 2.44939 16.3326C2.77025 16.4961 3.19029 16.4961 4.03037 16.4961Z" stroke="#98A2B3" stroke-width="1.5" stroke-linecap="round" stroke-linejoin="round"/>
</g>
<defs>
<clipPath id="clip0_1_8729">
<rect width="18" height="18" fill="white" transform="translate(0.130859 -0.00390625)"/>
</clipPath>
</defs>
</svg>
