<svg width="19" height="18" viewBox="0 0 19 18" fill="none" xmlns="http://www.w3.org/2000/svg">
<g clip-path="url(#clip0_1_10689)">
<path d="M9.14209 11.2461C10.3847 11.2461 11.3921 10.2387 11.3921 8.99609C11.3921 7.75345 10.3847 6.74609 9.14209 6.74609C7.89945 6.74609 6.89209 7.75345 6.89209 8.99609C6.89209 10.2387 7.89945 11.2461 9.14209 11.2461Z" stroke="#98A2B3" stroke-width="1.5" stroke-linecap="round" stroke-linejoin="round"/>
<path d="M14.6921 11.2461C14.5923 11.4723 14.5625 11.7232 14.6066 11.9665C14.6507 12.2098 14.7667 12.4343 14.9396 12.6111L14.9846 12.6561C15.1241 12.7954 15.2347 12.9608 15.3102 13.1429C15.3857 13.325 15.4245 13.5202 15.4245 13.7173C15.4245 13.9145 15.3857 14.1097 15.3102 14.2918C15.2347 14.4739 15.1241 14.6393 14.9846 14.7786C14.8453 14.9181 14.6798 15.0287 14.4978 15.1042C14.3157 15.1797 14.1205 15.2185 13.9233 15.2185C13.7262 15.2185 13.531 15.1797 13.3489 15.1042C13.1668 15.0287 13.0014 14.9181 12.8621 14.7786L12.8171 14.7336C12.6403 14.5607 12.4158 14.4447 12.1725 14.4006C11.9292 14.3565 11.6783 14.3863 11.4521 14.4861C11.2303 14.5812 11.0411 14.739 10.9078 14.9402C10.7746 15.1415 10.7031 15.3773 10.7021 15.6186V15.7461C10.7021 16.1439 10.5441 16.5255 10.2628 16.8068C9.98145 17.0881 9.59992 17.2461 9.20209 17.2461C8.80427 17.2461 8.42274 17.0881 8.14143 16.8068C7.86013 16.5255 7.70209 16.1439 7.70209 15.7461V15.6786C7.69628 15.4303 7.61593 15.1896 7.47147 14.9876C7.32702 14.7856 7.12514 14.6318 6.89209 14.5461C6.66588 14.4463 6.41495 14.4165 6.17165 14.4606C5.92835 14.5047 5.70385 14.6207 5.52709 14.7936L5.48209 14.8386C5.34278 14.9781 5.17735 15.0887 4.99525 15.1642C4.81315 15.2397 4.61796 15.2785 4.42084 15.2785C4.22372 15.2785 4.02853 15.2397 3.84643 15.1642C3.66433 15.0887 3.4989 14.9781 3.35959 14.8386C3.22013 14.6993 3.10949 14.5339 3.034 14.3518C2.95851 14.1697 2.91966 13.9745 2.91966 13.7773C2.91966 13.5802 2.95851 13.385 3.034 13.2029C3.10949 13.0208 3.22013 12.8554 3.35959 12.7161L3.40459 12.6711C3.57749 12.4943 3.69348 12.2698 3.73759 12.0265C3.78171 11.7832 3.75193 11.5323 3.65209 11.3061C3.55702 11.0843 3.39916 10.8951 3.19794 10.7618C2.99672 10.6286 2.76093 10.5571 2.51959 10.5561H2.39209C1.99427 10.5561 1.61273 10.3981 1.33143 10.1168C1.05013 9.83545 0.89209 9.45392 0.89209 9.05609C0.89209 8.65827 1.05013 8.27674 1.33143 7.99543C1.61273 7.71413 1.99427 7.55609 2.39209 7.55609H2.45959C2.70784 7.55029 2.94859 7.46993 3.15056 7.32548C3.35254 7.18102 3.50638 6.97915 3.59209 6.74609C3.69193 6.51988 3.72171 6.26895 3.67759 6.02565C3.63348 5.78236 3.51749 5.55785 3.34459 5.38109L3.29959 5.33609C3.16013 5.19678 3.04949 5.03135 2.974 4.84925C2.89851 4.66716 2.85966 4.47197 2.85966 4.27484C2.85966 4.07772 2.89851 3.88253 2.974 3.70043C3.04949 3.51834 3.16013 3.3529 3.29959 3.21359C3.4389 3.07413 3.60433 2.96349 3.78643 2.888C3.96853 2.81252 4.16372 2.77366 4.36084 2.77366C4.55796 2.77366 4.75315 2.81252 4.93525 2.888C5.11735 2.96349 5.28278 3.07413 5.42209 3.21359L5.46709 3.25859C5.64385 3.4315 5.86835 3.54748 6.11165 3.5916C6.35495 3.63571 6.60588 3.60593 6.83209 3.50609H6.89209C7.11392 3.41102 7.3031 3.25316 7.43636 3.05194C7.56962 2.85073 7.64113 2.61493 7.64209 2.37359V2.24609C7.64209 1.84827 7.80013 1.46674 8.08143 1.18543C8.36274 0.904129 8.74427 0.746094 9.14209 0.746094C9.53992 0.746094 9.92145 0.904129 10.2028 1.18543C10.4841 1.46674 10.6421 1.84827 10.6421 2.24609V2.31359C10.6431 2.55493 10.7146 2.79073 10.8478 2.99194C10.9811 3.19316 11.1703 3.35102 11.3921 3.44609C11.6183 3.54593 11.8692 3.57571 12.1125 3.5316C12.3558 3.48748 12.5803 3.3715 12.7571 3.19859L12.8021 3.15359C12.9414 3.01413 13.1068 2.90349 13.2889 2.828C13.471 2.75252 13.6662 2.71366 13.8633 2.71366C14.0605 2.71366 14.2557 2.75252 14.4378 2.828C14.6198 2.90349 14.7853 3.01413 14.9246 3.15359C15.0641 3.2929 15.1747 3.45834 15.2502 3.64043C15.3257 3.82253 15.3645 4.01772 15.3645 4.21484C15.3645 4.41197 15.3257 4.60716 15.2502 4.78925C15.1747 4.97135 15.0641 5.13678 14.9246 5.27609L14.8796 5.32109C14.7067 5.49785 14.5907 5.72236 14.5466 5.96565C14.5025 6.20895 14.5323 6.45988 14.6321 6.68609V6.74609C14.7272 6.96792 14.885 7.15711 15.0862 7.29036C15.2875 7.42362 15.5233 7.49513 15.7646 7.49609H15.8921C16.2899 7.49609 16.6714 7.65413 16.9528 7.93543C17.2341 8.21674 17.3921 8.59827 17.3921 8.99609C17.3921 9.39392 17.2341 9.77545 16.9528 10.0568C16.6714 10.3381 16.2899 10.4961 15.8921 10.4961H15.8246C15.5833 10.4971 15.3475 10.5686 15.1462 10.7018C14.945 10.8351 14.7872 11.0243 14.6921 11.2461Z" stroke="#98A2B3" stroke-width="1.5" stroke-linecap="round" stroke-linejoin="round"/>
</g>
<defs>
<clipPath id="clip0_1_10689">
<rect width="18" height="18" fill="white" transform="translate(0.141602 -0.00390625)"/>
</clipPath>
</defs>
</svg>
