<svg width="19" height="18" viewBox="0 0 19 18" fill="none" xmlns="http://www.w3.org/2000/svg">
<path d="M2.40039 5.99609L11.4004 5.99609M11.4004 5.99609C11.4004 7.23874 12.4078 8.24609 13.6504 8.24609C14.893 8.24609 15.9004 7.23873 15.9004 5.99609C15.9004 4.75345 14.893 3.74609 13.6504 3.74609C12.4078 3.74609 11.4004 4.75345 11.4004 5.99609ZM6.90039 11.9961L15.9004 11.9961M6.90039 11.9961C6.90039 13.2387 5.89303 14.2461 4.65039 14.2461C3.40775 14.2461 2.40039 13.2387 2.40039 11.9961C2.40039 10.7535 3.40775 9.74609 4.65039 9.74609C5.89303 9.74609 6.90039 10.7535 6.90039 11.9961Z" stroke="#98A2B3" stroke-width="1.5" stroke-linecap="round" stroke-linejoin="round"/>
</svg>
