<svg width="19" height="18" viewBox="0 0 19 18" fill="none" xmlns="http://www.w3.org/2000/svg">
<path d="M11.9363 6.74609H4.77344C3.7379 6.74609 2.89844 5.90663 2.89844 4.87109C2.89844 3.83556 3.7379 2.99609 4.77344 2.99609H11.9363M7.36056 14.9961H14.5234C15.559 14.9961 16.3984 14.1566 16.3984 13.1211C16.3984 12.0856 15.559 11.2461 14.5234 11.2461H7.36056M2.89844 13.1211C2.89844 14.5708 4.07369 15.7461 5.52344 15.7461C6.97319 15.7461 8.14844 14.5708 8.14844 13.1211C8.14844 11.6713 6.97319 10.4961 5.52344 10.4961C4.07369 10.4961 2.89844 11.6713 2.89844 13.1211ZM16.3984 4.87109C16.3984 6.32084 15.2232 7.49609 13.7734 7.49609C12.3237 7.49609 11.1484 6.32084 11.1484 4.87109C11.1484 3.42135 12.3237 2.24609 13.7734 2.24609C15.2232 2.24609 16.3984 3.42135 16.3984 4.87109Z" stroke="#98A2B3" stroke-width="1.5" stroke-linecap="round" stroke-linejoin="round"/>
</svg>
