<svg width="19" height="18" viewBox="0 0 19 18" fill="none" xmlns="http://www.w3.org/2000/svg">
<g clip-path="url(#clip0_1_9361)">
<path d="M7.19277 14.5244L7.6311 15.5103C7.7614 15.8037 7.97406 16.0531 8.24327 16.228C8.51248 16.403 8.82668 16.4961 9.14777 16.4961C9.46885 16.4961 9.78305 16.403 10.0523 16.228C10.3215 16.0531 10.5341 15.8037 10.6644 15.5103L11.1028 14.5244C11.2588 14.1746 11.5213 13.883 11.8528 13.6911C12.1864 13.4987 12.5723 13.4167 12.9553 13.4569L14.0278 13.5711C14.347 13.6049 14.6692 13.5453 14.9553 13.3996C15.2413 13.2539 15.479 13.0283 15.6394 12.7503C15.8001 12.4724 15.8766 12.1538 15.8597 11.8333C15.8429 11.5127 15.7333 11.2039 15.5444 10.9444L14.9094 10.0719C14.6833 9.75894 14.5625 9.38221 14.5644 8.99609C14.5644 8.61104 14.6863 8.23586 14.9128 7.92443L15.5478 7.05193C15.7367 6.79241 15.8462 6.48365 15.8631 6.1631C15.8799 5.84255 15.8034 5.524 15.6428 5.24609C15.4823 4.96802 15.2447 4.74246 14.9586 4.59676C14.6725 4.45107 14.3504 4.39149 14.0311 4.42526L12.9586 4.53943C12.5756 4.57965 12.1897 4.49768 11.8561 4.30526C11.5239 4.11228 11.2614 3.81911 11.1061 3.46776L10.6644 2.48193C10.5341 2.18847 10.3215 1.93913 10.0523 1.76414C9.78305 1.58916 9.46885 1.49604 9.14777 1.49609C8.82668 1.49604 8.51248 1.58916 8.24327 1.76414C7.97406 1.93913 7.7614 2.18847 7.6311 2.48193L7.19277 3.46776C7.03746 3.81911 6.77492 4.11228 6.44277 4.30526C6.10918 4.49768 5.72327 4.57965 5.34027 4.53943L4.26443 4.42526C3.94518 4.39149 3.62299 4.45107 3.33692 4.59676C3.05085 4.74246 2.81319 4.96802 2.65277 5.24609C2.49213 5.524 2.4156 5.84255 2.43247 6.1631C2.44933 6.48365 2.55886 6.79241 2.74777 7.05193L3.38277 7.92443C3.60922 8.23586 3.73117 8.61104 3.7311 8.99609C3.73117 9.38115 3.60922 9.75633 3.38277 10.0678L2.74777 10.9403C2.55886 11.1998 2.44933 11.5085 2.43247 11.8291C2.4156 12.1496 2.49213 12.4682 2.65277 12.7461C2.81335 13.024 3.05104 13.2495 3.33706 13.3951C3.62309 13.5408 3.9452 13.6005 4.26443 13.5669L5.33693 13.4528C5.71993 13.4125 6.10584 13.4945 6.43943 13.6869C6.77283 13.8794 7.03659 14.1726 7.19277 14.5244Z" stroke="#98A2B3" stroke-width="1.5" stroke-linecap="round" stroke-linejoin="round"/>
<path d="M9.14643 11.2461C10.3891 11.2461 11.3964 10.2387 11.3964 8.99609C11.3964 7.75345 10.3891 6.74609 9.14643 6.74609C7.90379 6.74609 6.89643 7.75345 6.89643 8.99609C6.89643 10.2387 7.90379 11.2461 9.14643 11.2461Z" stroke="#98A2B3" stroke-width="1.5" stroke-linecap="round" stroke-linejoin="round"/>
</g>
<defs>
<clipPath id="clip0_1_9361">
<rect width="18" height="18" fill="white" transform="translate(0.146484 -0.00390625)"/>
</clipPath>
</defs>
</svg>
