<svg width="19" height="18" viewBox="0 0 19 18" fill="none" xmlns="http://www.w3.org/2000/svg">
<g clip-path="url(#clip0_1_9359)">
<path d="M9.64404 11.2461C10.8867 11.2461 11.894 10.2387 11.894 8.99609C11.894 7.75345 10.8867 6.74609 9.64404 6.74609C8.4014 6.74609 7.39404 7.75345 7.39404 8.99609C7.39404 10.2387 8.4014 11.2461 9.64404 11.2461Z" stroke="#98A2B3" stroke-width="1.5" stroke-linecap="round" stroke-linejoin="round"/>
<path d="M14.6895 11.0415C14.5987 11.2472 14.5717 11.4753 14.6118 11.6965C14.6519 11.9177 14.7573 12.1218 14.9145 12.2825L14.9554 12.3234C15.0822 12.45 15.1828 12.6004 15.2514 12.7659C15.32 12.9315 15.3553 13.1089 15.3553 13.2881C15.3553 13.4673 15.32 13.6448 15.2514 13.8103C15.1828 13.9759 15.0822 14.1263 14.9554 14.2529C14.8288 14.3797 14.6784 14.4803 14.5128 14.5489C14.3473 14.6175 14.1698 14.6528 13.9906 14.6528C13.8114 14.6528 13.634 14.6175 13.4684 14.5489C13.3029 14.4803 13.1525 14.3797 13.0259 14.2529L12.985 14.212C12.8243 14.0548 12.6202 13.9494 12.399 13.9093C12.1778 13.8692 11.9497 13.8962 11.744 13.987C11.5424 14.0734 11.3704 14.2169 11.2493 14.3999C11.1281 14.5828 11.0631 14.7971 11.0622 15.0165V15.1325C11.0622 15.4941 10.9186 15.841 10.6628 16.0967C10.4071 16.3524 10.0602 16.4961 9.69859 16.4961C9.33693 16.4961 8.99008 16.3524 8.73435 16.0967C8.47862 15.841 8.33495 15.4941 8.33495 15.1325V15.0711C8.32967 14.8454 8.25662 14.6265 8.1253 14.4429C7.99398 14.2593 7.81045 14.1195 7.59859 14.0415C7.39294 13.9508 7.16482 13.9237 6.94364 13.9638C6.72246 14.0039 6.51837 14.1094 6.35768 14.2665L6.31677 14.3075C6.19013 14.4342 6.03973 14.5348 5.87419 14.6034C5.70865 14.6721 5.5312 14.7074 5.352 14.7074C5.17279 14.7074 4.99535 14.6721 4.82981 14.6034C4.66426 14.5348 4.51387 14.4342 4.38722 14.3075C4.26044 14.1808 4.15986 14.0304 4.09123 13.8649C4.02261 13.6993 3.98729 13.5219 3.98729 13.3427C3.98729 13.1635 4.02261 12.986 4.09123 12.8205C4.15986 12.655 4.26044 12.5046 4.38722 12.3779L4.42813 12.337C4.58532 12.1763 4.69076 11.9722 4.73086 11.751C4.77097 11.5299 4.74389 11.3017 4.65313 11.0961C4.5667 10.8944 4.42319 10.7224 4.24027 10.6013C4.05734 10.4802 3.84299 10.4152 3.62359 10.4143H3.50768C3.14602 10.4143 2.79917 10.2706 2.54344 10.0149C2.28771 9.75914 2.14404 9.4123 2.14404 9.05064C2.14404 8.68898 2.28771 8.34213 2.54344 8.0864C2.79917 7.83067 3.14602 7.687 3.50768 7.687H3.56904C3.79472 7.68172 4.01359 7.60868 4.1972 7.47735C4.38081 7.34603 4.52067 7.1625 4.59859 6.95064C4.68935 6.74499 4.71642 6.51687 4.67632 6.29569C4.63622 6.07451 4.53077 5.87042 4.37359 5.70973L4.33268 5.66882C4.20589 5.54218 4.10531 5.39178 4.03669 5.22624C3.96806 5.0607 3.93274 4.88325 3.93274 4.70405C3.93274 4.52485 3.96806 4.3474 4.03669 4.18186C4.10531 4.01631 4.20589 3.86592 4.33268 3.73928C4.45932 3.61249 4.60972 3.51191 4.77526 3.44329C4.9408 3.37466 5.11825 3.33934 5.29745 3.33934C5.47666 3.33934 5.6541 3.37466 5.81964 3.44329C5.98519 3.51191 6.13558 3.61249 6.26223 3.73928L6.30313 3.78018C6.46382 3.93737 6.66792 4.04281 6.8891 4.08292C7.11027 4.12302 7.3384 4.09595 7.54404 4.00518H7.59859C7.80025 3.91876 7.97224 3.77525 8.09338 3.59232C8.21452 3.4094 8.27953 3.19504 8.28041 2.97564V2.85973C8.28041 2.49807 8.42408 2.15123 8.67981 1.89549C8.93554 1.63976 9.28238 1.49609 9.64404 1.49609C10.0057 1.49609 10.3525 1.63976 10.6083 1.89549C10.864 2.15123 11.0077 2.49807 11.0077 2.85973V2.92109C11.0086 3.14049 11.0736 3.35485 11.1947 3.53778C11.3159 3.7207 11.4878 3.86421 11.6895 3.95064C11.8951 4.0414 12.1233 4.06847 12.3444 4.02837C12.5656 3.98827 12.7697 3.88282 12.9304 3.72564L12.9713 3.68473C13.098 3.55794 13.2484 3.45736 13.4139 3.38874C13.5794 3.32012 13.7569 3.28479 13.9361 3.28479C14.1153 3.28479 14.2927 3.32012 14.4583 3.38874C14.6238 3.45736 14.7742 3.55794 14.9009 3.68473C15.0276 3.81138 15.1282 3.96177 15.1969 4.12731C15.2655 4.29285 15.3008 4.4703 15.3008 4.6495C15.3008 4.82871 15.2655 5.00615 15.1969 5.17169C15.1282 5.33724 15.0276 5.48763 14.9009 5.61428L14.86 5.65518C14.7028 5.81588 14.5973 6.01997 14.5572 6.24115C14.5171 6.46233 14.5442 6.69045 14.635 6.89609V6.95064C14.7214 7.1523 14.8649 7.32429 15.0478 7.44543C15.2307 7.56657 15.4451 7.63158 15.6645 7.63246H15.7804C16.1421 7.63246 16.4889 7.77613 16.7446 8.03186C17.0004 8.28759 17.144 8.63444 17.144 8.99609C17.144 9.35775 17.0004 9.7046 16.7446 9.96033C16.4889 10.2161 16.1421 10.3597 15.7804 10.3597H15.719C15.4996 10.3606 15.2853 10.4256 15.1024 10.5468C14.9194 10.6679 14.7759 10.8399 14.6895 11.0415Z" stroke="#98A2B3" stroke-width="1.5" stroke-linecap="round" stroke-linejoin="round"/>
</g>
<defs>
<clipPath id="clip0_1_9359">
<rect width="18" height="18" fill="white" transform="translate(0.644531 -0.00390625)"/>
</clipPath>
</defs>
</svg>
