<svg width="19" height="18" viewBox="0 0 19 18" fill="none" xmlns="http://www.w3.org/2000/svg">
<path d="M15.9121 4.49609H13.5121C12.252 4.49609 11.6219 4.49609 11.1406 4.74133C10.7173 4.95704 10.3731 5.30125 10.1573 5.72462C9.91211 6.20592 9.91211 6.83598 9.91211 8.09609V8.99609M15.9121 4.49609L13.6621 2.24609M15.9121 4.49609L13.6621 6.74609M7.66211 2.24609H6.01211C4.75199 2.24609 4.12193 2.24609 3.64063 2.49133C3.21727 2.70704 2.87306 3.05125 2.65734 3.47462C2.41211 3.95592 2.41211 4.58598 2.41211 5.84609V12.1461C2.41211 13.4062 2.41211 14.0363 2.65734 14.5176C2.87306 14.9409 3.21727 15.2851 3.64063 15.5009C4.12193 15.7461 4.75199 15.7461 6.01211 15.7461H12.3121C13.5722 15.7461 14.2023 15.7461 14.6836 15.5009C15.107 15.2851 15.4512 14.9409 15.6669 14.5176C15.9121 14.0363 15.9121 13.4062 15.9121 12.1461V10.4961" stroke="#98A2B3" stroke-width="1.5" stroke-linecap="round" stroke-linejoin="round"/>
</svg>
