<svg width="19" height="18" viewBox="0 0 19 18" fill="none" xmlns="http://www.w3.org/2000/svg">
<g clip-path="url(#clip0_1_10745)">
<path d="M7.11047 10.1286L12.233 13.1136M12.2255 4.87859L7.11047 7.86359M16.418 3.74609C16.418 4.98873 15.4106 5.99609 14.168 5.99609C12.9253 5.99609 11.918 4.98873 11.918 3.74609C11.918 2.50345 12.9253 1.49609 14.168 1.49609C15.4106 1.49609 16.418 2.50345 16.418 3.74609ZM7.41797 8.99609C7.41797 10.2387 6.41061 11.2461 5.16797 11.2461C3.92533 11.2461 2.91797 10.2387 2.91797 8.99609C2.91797 7.75345 3.92533 6.74609 5.16797 6.74609C6.41061 6.74609 7.41797 7.75345 7.41797 8.99609ZM16.418 14.2461C16.418 15.4887 15.4106 16.4961 14.168 16.4961C12.9253 16.4961 11.918 15.4887 11.918 14.2461C11.918 13.0035 12.9253 11.9961 14.168 11.9961C15.4106 11.9961 16.418 13.0035 16.418 14.2461Z" stroke="#98A2B3" stroke-width="1.5" stroke-linecap="round" stroke-linejoin="round"/>
</g>
<defs>
<clipPath id="clip0_1_10745">
<rect width="18" height="18" fill="white" transform="translate(0.667969 -0.00390625)"/>
</clipPath>
</defs>
</svg>
