<svg width="19" height="18" viewBox="0 0 19 18" fill="none" xmlns="http://www.w3.org/2000/svg">
<path d="M16.2576 9.45162C16.4407 9.29469 16.5322 9.21622 16.5658 9.12285C16.5952 9.04089 16.5952 8.95125 16.5658 8.86929C16.5322 8.77592 16.4407 8.69745 16.2576 8.54051L9.90454 3.09505C9.58937 2.8249 9.43178 2.68983 9.29836 2.68652C9.18241 2.68364 9.07165 2.73458 8.99838 2.82449C8.91406 2.92794 8.91406 3.13549 8.91406 3.5506V6.77204C7.31305 7.05213 5.84776 7.86339 4.75884 9.08147C3.57168 10.4095 2.91499 12.128 2.91406 13.9093V14.3683C3.70107 13.4202 4.68369 12.6535 5.79463 12.1205C6.77409 11.6506 7.83287 11.3723 8.91406 11.299V14.4415C8.91406 14.8566 8.91406 15.0642 8.99838 15.1676C9.07165 15.2576 9.18241 15.3085 9.29836 15.3056C9.43178 15.3023 9.58937 15.1672 9.90454 14.8971L16.2576 9.45162Z" stroke="#98A2B3" stroke-width="1.5" stroke-linecap="round" stroke-linejoin="round"/>
</svg>
