<svg width="19" height="18" viewBox="0 0 19 18" fill="none" xmlns="http://www.w3.org/2000/svg">
<path d="M15.9082 6.7461L15.9082 2.2461M15.9082 2.2461H11.4082M15.9082 2.2461L9.1582 8.99609M7.6582 2.24609H6.0082C4.74809 2.24609 4.11803 2.24609 3.63672 2.49133C3.21336 2.70704 2.86915 3.05125 2.65344 3.47462C2.4082 3.95592 2.4082 4.58598 2.4082 5.84609V12.1461C2.4082 13.4062 2.4082 14.0363 2.65344 14.5176C2.86915 14.9409 3.21336 15.2851 3.63672 15.5009C4.11803 15.7461 4.74809 15.7461 6.0082 15.7461H12.3082C13.5683 15.7461 14.1984 15.7461 14.6797 15.5009C15.103 15.2851 15.4473 14.9409 15.663 14.5176C15.9082 14.0363 15.9082 13.4062 15.9082 12.1461V10.4961" stroke="#98A2B3" stroke-width="1.5" stroke-linecap="round" stroke-linejoin="round"/>
</svg>
