<svg width="19" height="18" viewBox="0 0 19 18" fill="none" xmlns="http://www.w3.org/2000/svg">
<path d="M5.90625 8.24609C5.20877 8.24609 4.86003 8.24609 4.57391 8.32276C3.79745 8.53081 3.19097 9.1373 2.98292 9.91375C2.90625 10.1999 2.90625 10.5486 2.90625 11.2461V12.1461C2.90625 13.4062 2.90625 14.0363 3.15149 14.5176C3.3672 14.9409 3.71141 15.2851 4.13477 15.5009C4.61607 15.7461 5.24613 15.7461 6.50625 15.7461H12.8063C14.0664 15.7461 14.6964 15.7461 15.1777 15.5009C15.6011 15.2851 15.9453 14.9409 16.161 14.5176C16.4063 14.0363 16.4063 13.4062 16.4063 12.1461V11.2461C16.4063 10.5486 16.4063 10.1999 16.3296 9.91375C16.1215 9.1373 15.5151 8.53081 14.7386 8.32276C14.4525 8.24609 14.1037 8.24609 13.4063 8.24609M12.6563 5.24609L9.65625 2.24609M9.65625 2.24609L6.65625 5.24609M9.65625 2.24609V11.2461" stroke="#98A2B3" stroke-width="1.5" stroke-linecap="round" stroke-linejoin="round"/>
</svg>
