<svg width="19" height="18" viewBox="0 0 19 18" fill="none" xmlns="http://www.w3.org/2000/svg">
<path d="M16.4097 6.74609L16.4097 2.24609M16.4097 2.24609H11.9097M16.4097 2.24609L10.4097 8.24609M8.15967 3.74609H6.50967C5.24955 3.74609 4.61949 3.74609 4.13819 3.99133C3.71482 4.20704 3.37062 4.55125 3.1549 4.97462C2.90967 5.45592 2.90967 6.08598 2.90967 7.34609V12.1461C2.90967 13.4062 2.90967 14.0363 3.1549 14.5176C3.37062 14.9409 3.71482 15.2851 4.13819 15.5009C4.61949 15.7461 5.24955 15.7461 6.50967 15.7461H11.3097C12.5698 15.7461 13.1998 15.7461 13.6811 15.5009C14.1045 15.2851 14.4487 14.9409 14.6644 14.5176C14.9097 14.0363 14.9097 13.4062 14.9097 12.1461V10.4961" stroke="#98A2B3" stroke-width="1.5" stroke-linecap="round" stroke-linejoin="round"/>
</svg>
