<svg width="19" height="18" viewBox="0 0 19 18" fill="none" xmlns="http://www.w3.org/2000/svg">
<g clip-path="url(#clip0_1_9187)">
<path d="M6.609 10.1286L11.7315 13.1136M11.724 4.87859L6.609 7.86359M15.9165 3.74609C15.9165 4.98873 14.9091 5.99609 13.6665 5.99609C12.4239 5.99609 11.4165 4.98873 11.4165 3.74609C11.4165 2.50345 12.4239 1.49609 13.6665 1.49609C14.9091 1.49609 15.9165 2.50345 15.9165 3.74609ZM6.9165 8.99609C6.9165 10.2387 5.90915 11.2461 4.6665 11.2461C3.42386 11.2461 2.4165 10.2387 2.4165 8.99609C2.4165 7.75345 3.42386 6.74609 4.6665 6.74609C5.90915 6.74609 6.9165 7.75345 6.9165 8.99609ZM15.9165 14.2461C15.9165 15.4887 14.9091 16.4961 13.6665 16.4961C12.4239 16.4961 11.4165 15.4887 11.4165 14.2461C11.4165 13.0035 12.4239 11.9961 13.6665 11.9961C14.9091 11.9961 15.9165 13.0035 15.9165 14.2461Z" stroke="#98A2B3" stroke-width="1.5" stroke-linecap="round" stroke-linejoin="round"/>
</g>
<defs>
<clipPath id="clip0_1_9187">
<rect width="18" height="18" fill="white" transform="translate(0.166016 -0.00390625)"/>
</clipPath>
</defs>
</svg>
