<svg width="19" height="18" viewBox="0 0 19 18" fill="none" xmlns="http://www.w3.org/2000/svg">
<g clip-path="url(#clip0_1_8566)">
<path d="M6.93555 8.62112L8.43555 10.1211L11.8105 6.74612M15.1855 8.99612C15.1855 12.6775 11.1701 15.3549 9.70904 16.2073C9.543 16.3041 9.45998 16.3526 9.34281 16.3777C9.25188 16.3972 9.11922 16.3972 9.02829 16.3777C8.91112 16.3526 8.8281 16.3041 8.66205 16.2073C7.20102 15.3549 3.18555 12.6775 3.18555 8.99612V5.40932C3.18555 4.80969 3.18555 4.50987 3.28362 4.25215C3.37025 4.02447 3.51103 3.82133 3.69379 3.66027C3.90067 3.47795 4.1814 3.37268 4.74285 3.16213L8.7642 1.65412C8.92012 1.59565 8.99808 1.56642 9.07829 1.55483C9.14942 1.54455 9.22167 1.54455 9.29281 1.55483C9.37301 1.56642 9.45097 1.59565 9.6069 1.65412L13.6282 3.16213C14.1897 3.37268 14.4704 3.47795 14.6773 3.66027C14.8601 3.82133 15.0008 4.02447 15.0875 4.25215C15.1855 4.50987 15.1855 4.80969 15.1855 5.40932V8.99612Z" stroke="#98A2B3" stroke-width="1.5" stroke-linecap="round" stroke-linejoin="round"/>
</g>
<defs>
<clipPath id="clip0_1_8566">
<rect width="18" height="18" fill="white" transform="translate(0.186035 -0.00390625)"/>
</clipPath>
</defs>
</svg>
