<svg width="19" height="18" viewBox="0 0 19 18" fill="none" xmlns="http://www.w3.org/2000/svg">
<g clip-path="url(#clip0_1_8572)">
<path d="M8.64985 16.2073C8.81589 16.3042 8.89891 16.3526 9.01608 16.3777C9.10701 16.3972 9.23967 16.3972 9.3306 16.3777C9.44777 16.3526 9.53079 16.3042 9.69683 16.2073C11.1579 15.3549 15.1733 12.6775 15.1733 8.99614V6.14614C15.1733 5.34072 15.1733 4.93801 15.0492 4.65215C14.923 4.3616 14.7973 4.20703 14.5385 4.02432C14.2839 3.84456 13.7848 3.74076 12.7866 3.53316C11.6864 3.30435 10.8415 2.89117 10.0691 2.29363C9.69872 2.00709 9.51352 1.86383 9.36859 1.82475C9.21567 1.78351 9.13101 1.78351 8.97809 1.82475C8.83316 1.86383 8.64796 2.0071 8.27756 2.29363C7.50513 2.89117 6.66024 3.30435 5.56006 3.53316C4.56187 3.74076 4.06277 3.84456 3.80817 4.02432C3.54941 4.20703 3.42368 4.3616 3.29749 4.65215C3.17334 4.93801 3.17334 5.34072 3.17334 6.14614V8.99614C3.17334 12.6775 7.18881 15.3549 8.64985 16.2073Z" stroke="#98A2B3" stroke-width="1.5" stroke-linecap="round" stroke-linejoin="round"/>
</g>
<defs>
<clipPath id="clip0_1_8572">
<rect width="18" height="18" fill="white" transform="translate(0.173828 -0.00390625)"/>
</clipPath>
</defs>
</svg>
