<svg width="19" height="18" viewBox="0 0 19 18" fill="none" xmlns="http://www.w3.org/2000/svg">
<g clip-path="url(#clip0_1_8564)">
<path d="M9.68408 10.8711V6.37112M7.43408 8.62112H11.9341M15.6841 8.99612C15.6841 12.6775 11.6686 15.3549 10.2076 16.2073C10.0415 16.3041 9.95851 16.3526 9.84134 16.3777C9.75041 16.3972 9.61775 16.3972 9.52682 16.3777C9.40966 16.3526 9.32663 16.3041 9.16059 16.2073C7.69955 15.3549 3.68408 12.6775 3.68408 8.99612V5.40932C3.68408 4.80969 3.68408 4.50987 3.78215 4.25215C3.86879 4.02447 4.00957 3.82133 4.19233 3.66027C4.3992 3.47795 4.67993 3.37268 5.24139 3.16213L9.26273 1.65412C9.41866 1.59565 9.49662 1.56642 9.57682 1.55483C9.64796 1.54455 9.72021 1.54455 9.79134 1.55483C9.87155 1.56642 9.94951 1.59565 10.1054 1.65412L14.1268 3.16213C14.6882 3.37268 14.969 3.47795 15.1758 3.66027C15.3586 3.82133 15.4994 4.02447 15.586 4.25215C15.6841 4.50987 15.6841 4.80969 15.6841 5.40932V8.99612Z" stroke="#98A2B3" stroke-width="1.5" stroke-linecap="round" stroke-linejoin="round"/>
</g>
<defs>
<clipPath id="clip0_1_8564">
<rect width="18" height="18" fill="white" transform="translate(0.683594 -0.00390625)"/>
</clipPath>
</defs>
</svg>
