<svg width="19" height="18" viewBox="0 0 19 18" fill="none" xmlns="http://www.w3.org/2000/svg">
<g clip-path="url(#clip0_1_8560)">
<path d="M7.08794 10.8711C7.3221 11.317 7.78964 11.6211 8.32822 11.6211H9.92822C10.7567 11.6211 11.4282 10.9495 11.4282 10.1211C11.4282 9.29269 10.7567 8.62112 9.92822 8.62112H8.42822C7.5998 8.62112 6.92822 7.94955 6.92822 7.12112C6.92822 6.29269 7.5998 5.62112 8.42822 5.62112H10.0282C10.5668 5.62112 11.0343 5.92524 11.2685 6.37112M9.17822 4.49612V5.62112M9.17822 11.6211V12.7461M15.1782 8.99612C15.1782 12.6775 11.1628 15.3549 9.70172 16.2073C9.53567 16.3041 9.45265 16.3526 9.33548 16.3777C9.24455 16.3972 9.11189 16.3972 9.02096 16.3777C8.9038 16.3526 8.82077 16.3041 8.65473 16.2073C7.19369 15.3549 3.17822 12.6775 3.17822 8.99612V5.40932C3.17822 4.80969 3.17822 4.50987 3.27629 4.25215C3.36293 4.02447 3.50371 3.82133 3.68647 3.66027C3.89334 3.47795 4.17407 3.37268 4.73553 3.16213L8.75687 1.65412C8.9128 1.59565 8.99076 1.56642 9.07096 1.55483C9.1421 1.54455 9.21435 1.54455 9.28549 1.55483C9.36569 1.56642 9.44365 1.59565 9.59957 1.65412L13.6209 3.16213C14.1824 3.37268 14.4631 3.47795 14.67 3.66027C14.8527 3.82133 14.9935 4.02447 15.0802 4.25215C15.1782 4.50987 15.1782 4.80969 15.1782 5.40932V8.99612Z" stroke="#98A2B3" stroke-width="1.5" stroke-linecap="round" stroke-linejoin="round"/>
</g>
<defs>
<clipPath id="clip0_1_8560">
<rect width="18" height="18" fill="white" transform="translate(0.177734 -0.00390625)"/>
</clipPath>
</defs>
</svg>
