<svg width="19" height="18" viewBox="0 0 19 18" fill="none" xmlns="http://www.w3.org/2000/svg">
<g clip-path="url(#clip0_1_8562)">
<path d="M6.78815 2.39368L8.76029 1.65412C8.91621 1.59565 8.99418 1.56642 9.07438 1.55483C9.14552 1.54455 9.21776 1.54455 9.2889 1.55483C9.36911 1.56642 9.44707 1.59565 9.60299 1.65412L13.6243 3.16213C14.1858 3.37268 14.4665 3.47795 14.6734 3.66027C14.8562 3.82133 14.9969 4.02447 15.0836 4.25215C15.1816 4.50987 15.1816 4.80969 15.1816 5.40932V8.99612C15.1816 9.53635 15.0952 10.055 14.943 10.5494M13.398 13.2154C12.1338 14.6856 10.5226 15.7303 9.70637 16.2066C9.53955 16.3039 9.45614 16.3526 9.33897 16.3777C9.24804 16.3972 9.11535 16.3972 9.02442 16.3777C8.90724 16.3526 8.82421 16.3042 8.65815 16.2073C7.19711 15.3549 3.18164 12.6775 3.18164 8.99612V4.32835C3.18164 3.97814 3.39888 3.66465 3.7268 3.54168M2.43164 2.24612L15.9316 15.7461" stroke="#98A2B3" stroke-width="1.5" stroke-linecap="round" stroke-linejoin="round"/>
</g>
<defs>
<clipPath id="clip0_1_8562">
<rect width="18" height="18" fill="white" transform="translate(0.181641 -0.00390625)"/>
</clipPath>
</defs>
</svg>
