<svg width="19" height="18" viewBox="0 0 19 18" fill="none" xmlns="http://www.w3.org/2000/svg">
<g clip-path="url(#clip0_1_8558)">
<path d="M9.67578 1.87112V16.1211M15.6758 8.99612C15.6758 12.6775 11.6603 15.3549 10.1993 16.2073C10.0332 16.3041 9.95021 16.3526 9.83304 16.3777C9.74211 16.3972 9.60945 16.3972 9.51852 16.3777C9.40135 16.3526 9.31833 16.3041 9.15229 16.2073C7.69125 15.3549 3.67578 12.6775 3.67578 8.99612V5.40932C3.67578 4.80969 3.67578 4.50987 3.77385 4.25215C3.86049 4.02447 4.00127 3.82133 4.18402 3.66027C4.3909 3.47795 4.67163 3.37268 5.23308 3.16213L9.25443 1.65412C9.41036 1.59565 9.48832 1.56642 9.56852 1.55483C9.63966 1.54455 9.7119 1.54455 9.78304 1.55483C9.86325 1.56642 9.94121 1.59565 10.0971 1.65412L14.1185 3.16213C14.6799 3.37268 14.9607 3.47795 15.1675 3.66027C15.3503 3.82133 15.4911 4.02447 15.5777 4.25215C15.6758 4.50987 15.6758 4.80969 15.6758 5.40932V8.99612Z" stroke="#98A2B3" stroke-width="1.5" stroke-linecap="round" stroke-linejoin="round"/>
</g>
<defs>
<clipPath id="clip0_1_8558">
<rect width="18" height="18" fill="white" transform="translate(0.675781 -0.00390625)"/>
</clipPath>
</defs>
</svg>
