<svg width="19" height="18" viewBox="0 0 19 18" fill="none" xmlns="http://www.w3.org/2000/svg">
<g clip-path="url(#clip0_1_8568)">
<path d="M10.4375 5.62112L8.1875 7.87112L11.1875 9.37112L8.9375 11.6211M15.6875 8.99612C15.6875 12.6775 11.672 15.3549 10.211 16.2073C10.0449 16.3041 9.96193 16.3526 9.84476 16.3777C9.75383 16.3972 9.62117 16.3972 9.53024 16.3777C9.41307 16.3526 9.33005 16.3041 9.16401 16.2073C7.70297 15.3549 3.6875 12.6775 3.6875 8.99612V5.40932C3.6875 4.80969 3.6875 4.50987 3.78557 4.25215C3.87221 4.02447 4.01299 3.82133 4.19574 3.66027C4.40262 3.47795 4.68335 3.37268 5.2448 3.16213L9.26615 1.65412C9.42207 1.59565 9.50003 1.56642 9.58024 1.55483C9.65138 1.54455 9.72362 1.54455 9.79476 1.55483C9.87497 1.56642 9.95293 1.59565 10.1088 1.65412L14.1302 3.16213C14.6917 3.37268 14.9724 3.47795 15.1793 3.66027C15.362 3.82133 15.5028 4.02447 15.5894 4.25215C15.6875 4.50987 15.6875 4.80969 15.6875 5.40932V8.99612Z" stroke="#98A2B3" stroke-width="1.5" stroke-linecap="round" stroke-linejoin="round"/>
</g>
<defs>
<clipPath id="clip0_1_8568">
<rect width="18" height="18" fill="white" transform="translate(0.6875 -0.00390625)"/>
</clipPath>
</defs>
</svg>
