<svg width="19" height="18" viewBox="0 0 19 18" fill="none" xmlns="http://www.w3.org/2000/svg">
<g clip-path="url(#clip0_1_8570)">
<path d="M9.14887 16.2073C9.31491 16.3041 9.39794 16.3526 9.5151 16.3777C9.60603 16.3972 9.7387 16.3972 9.82962 16.3777C9.94679 16.3526 10.0298 16.3041 10.1959 16.2073C11.6569 15.3549 15.6724 12.6775 15.6724 8.99612V5.40932C15.6724 4.80969 15.6724 4.50987 15.5743 4.25215C15.4877 4.02447 15.3469 3.82133 15.1641 3.66027C14.9572 3.47795 14.6765 3.37268 14.1151 3.16213L10.0937 1.65412C9.93779 1.59565 9.85983 1.56642 9.77963 1.55483C9.70849 1.54455 9.63624 1.54455 9.5651 1.55483C9.4849 1.56642 9.40694 1.59565 9.25102 1.65412L5.22967 3.16213C4.66821 3.37268 4.38748 3.47795 4.18061 3.66027C3.99785 3.82133 3.85707 4.02447 3.77043 4.25215C3.67236 4.50987 3.67236 4.80969 3.67236 5.40932V8.99612C3.67236 12.6775 7.68783 15.3549 9.14887 16.2073Z" stroke="#98A2B3" stroke-width="1.5" stroke-linecap="round" stroke-linejoin="round"/>
</g>
<defs>
<clipPath id="clip0_1_8570">
<rect width="18" height="18" fill="white" transform="translate(0.671875 -0.00390625)"/>
</clipPath>
</defs>
</svg>
