<svg width="19" height="18" viewBox="0 0 19 18" fill="none" xmlns="http://www.w3.org/2000/svg">
<g clip-path="url(#clip0_1_9065)">
<path d="M2.19922 1.49609H3.17884C3.36336 1.49609 3.45561 1.49609 3.52986 1.53002C3.59528 1.55992 3.65073 1.60801 3.68958 1.66855C3.73367 1.73725 3.74672 1.82858 3.77281 2.01124L4.12779 4.49609M4.12779 4.49609L4.91671 10.2946C5.01682 11.0305 5.06688 11.3984 5.24279 11.6754C5.3978 11.9194 5.62003 12.1134 5.88273 12.2341C6.18087 12.3711 6.55218 12.3711 7.2948 12.3711H13.7132C14.4201 12.3711 14.7736 12.3711 15.0624 12.2439C15.3171 12.1318 15.5356 11.951 15.6934 11.7218C15.8724 11.4618 15.9386 11.1146 16.0708 10.4202L17.0636 5.20836C17.1101 4.96395 17.1334 4.84174 17.0996 4.74622C17.0701 4.66242 17.0117 4.59186 16.9349 4.54711C16.8474 4.49609 16.723 4.49609 16.4741 4.49609H4.12779ZM8.19922 15.7461C8.19922 16.1603 7.86343 16.4961 7.44922 16.4961C7.03501 16.4961 6.69922 16.1603 6.69922 15.7461C6.69922 15.3319 7.03501 14.9961 7.44922 14.9961C7.86343 14.9961 8.19922 15.3319 8.19922 15.7461ZM14.1992 15.7461C14.1992 16.1603 13.8634 16.4961 13.4492 16.4961C13.035 16.4961 12.6992 16.1603 12.6992 15.7461C12.6992 15.3319 13.035 14.9961 13.4492 14.9961C13.8634 14.9961 14.1992 15.3319 14.1992 15.7461Z" stroke="#98A2B3" stroke-width="1.5" stroke-linecap="round" stroke-linejoin="round"/>
</g>
<defs>
<clipPath id="clip0_1_9065">
<rect width="18" height="18" fill="white" transform="translate(0.699219 -0.00390625)"/>
</clipPath>
</defs>
</svg>
