<svg width="19" height="18" viewBox="0 0 19 18" fill="none" xmlns="http://www.w3.org/2000/svg">
<g clip-path="url(#clip0_1_9059)">
<path d="M4.83189 1.97609L3.6619 3.53609C3.43016 3.84508 3.31429 3.99957 3.31698 4.12889C3.31932 4.24142 3.37208 4.34696 3.46071 4.41635C3.56255 4.49609 3.75566 4.49609 4.1419 4.49609H15.2419C15.6281 4.49609 15.8212 4.49609 15.9231 4.41635C16.0117 4.34696 16.0645 4.24142 16.0668 4.12889C16.0695 3.99957 15.9536 3.84508 15.7219 3.53609L14.5519 1.97609M4.83189 1.97609C4.96389 1.80009 5.02989 1.71209 5.11354 1.64863C5.18762 1.59241 5.27151 1.55047 5.36093 1.52493C5.4619 1.49609 5.5719 1.49609 5.79189 1.49609H13.5919C13.8119 1.49609 13.9219 1.49609 14.0229 1.52493C14.1123 1.55047 14.1962 1.59241 14.2703 1.64863C14.3539 1.71209 14.4199 1.80009 14.5519 1.97609M4.83189 1.97609L3.42189 3.85609C3.2438 4.09355 3.15475 4.21228 3.09152 4.34304C3.03541 4.45906 2.99449 4.58183 2.96976 4.70831C2.94189 4.85085 2.94189 4.99927 2.94189 5.29609L2.94189 14.0961C2.94189 14.9362 2.94189 15.3562 3.10538 15.6771C3.24919 15.9593 3.47867 16.1888 3.76091 16.3326C4.08178 16.4961 4.50182 16.4961 5.34189 16.4961L14.0419 16.4961C14.882 16.4961 15.302 16.4961 15.6229 16.3326C15.9051 16.1888 16.1346 15.9593 16.2784 15.6771C16.4419 15.3562 16.4419 14.9362 16.4419 14.0961V5.29609C16.4419 4.99927 16.4419 4.85085 16.414 4.70831C16.3893 4.58183 16.3484 4.45906 16.2923 4.34304C16.229 4.21228 16.14 4.09355 15.9619 3.85609L14.5519 1.97609M12.6919 7.49609C12.6919 8.29174 12.3758 9.0548 11.8132 9.61741C11.2506 10.18 10.4875 10.4961 9.6919 10.4961C8.89625 10.4961 8.13318 10.18 7.57057 9.61741C7.00797 9.0548 6.6919 8.29174 6.6919 7.49609" stroke="#98A2B3" stroke-width="1.5" stroke-linecap="round" stroke-linejoin="round"/>
</g>
<defs>
<clipPath id="clip0_1_9059">
<rect width="18" height="18" fill="white" transform="translate(0.691895 -0.00390625)"/>
</clipPath>
</defs>
</svg>
