<svg width="19" height="18" viewBox="0 0 19 18" fill="none" xmlns="http://www.w3.org/2000/svg">
<path d="M12.6952 5.99609C12.6952 6.79174 12.3792 7.55481 11.8166 8.11741C11.254 8.68002 10.4909 8.99609 9.69525 8.99609C8.8996 8.99609 8.13654 8.68002 7.57393 8.11741C7.01132 7.55481 6.69525 6.79174 6.69525 5.99609M3.42016 5.54713L2.89516 11.8471C2.78238 13.2005 2.72599 13.8772 2.95476 14.3992C3.15576 14.8579 3.50402 15.2364 3.94439 15.4748C4.4456 15.7461 5.12464 15.7461 6.48273 15.7461H12.9078C14.2659 15.7461 14.9449 15.7461 15.4461 15.4748C15.8865 15.2364 16.2347 14.8579 16.4357 14.3992C16.6645 13.8772 16.6081 13.2005 16.4953 11.8471L15.9703 5.54713C15.8733 4.38266 15.8248 3.80042 15.5669 3.35974C15.3398 2.97167 15.0017 2.66055 14.5961 2.46648C14.1355 2.24609 13.5513 2.24609 12.3828 2.24609L7.00773 2.24609C5.83922 2.24609 5.25496 2.24609 4.79439 2.46648C4.38881 2.66054 4.05067 2.97167 3.82359 3.35974C3.56572 3.80042 3.5172 4.38266 3.42016 5.54713Z" stroke="#98A2B3" stroke-width="1.5" stroke-linecap="round" stroke-linejoin="round"/>
</svg>
