<svg width="19" height="18" viewBox="0 0 19 18" fill="none" xmlns="http://www.w3.org/2000/svg">
<g clip-path="url(#clip0_1_10975)">
<path d="M2.43945 4.49609L4.68945 1.49609H13.6895L15.9395 4.49609M2.43945 4.49609V14.9961C2.43945 15.3939 2.59749 15.7755 2.87879 16.0568C3.1601 16.3381 3.54163 16.4961 3.93945 16.4961H14.4395C14.8373 16.4961 15.2188 16.3381 15.5001 16.0568C15.7814 15.7755 15.9395 15.3939 15.9395 14.9961V4.49609M2.43945 4.49609H15.9395M12.1895 7.49609C12.1895 8.29174 11.8734 9.05481 11.3108 9.61741C10.7482 10.18 9.9851 10.4961 9.18945 10.4961C8.3938 10.4961 7.63074 10.18 7.06813 9.61741C6.50552 9.05481 6.18945 8.29174 6.18945 7.49609" stroke="#98A2B3" stroke-width="1.5" stroke-linecap="round" stroke-linejoin="round"/>
</g>
<defs>
<clipPath id="clip0_1_10975">
<rect width="18" height="18" fill="white" transform="translate(0.189453 -0.00390625)"/>
</clipPath>
</defs>
</svg>
