<svg width="19" height="18" viewBox="0 0 19 18" fill="none" xmlns="http://www.w3.org/2000/svg">
<g clip-path="url(#clip0_1_11029)">
<path d="M0.947266 0.746094H3.94727L5.95727 10.7886C6.02585 11.1339 6.2137 11.4441 6.48793 11.6648C6.76215 11.8856 7.10529 12.0028 7.45727 11.9961H14.7473C15.0992 12.0028 15.4424 11.8856 15.7166 11.6648C15.9908 11.4441 16.1787 11.1339 16.2473 10.7886L17.4473 4.49609H4.69727M7.69727 15.7461C7.69727 16.1603 7.36148 16.4961 6.94727 16.4961C6.53305 16.4961 6.19727 16.1603 6.19727 15.7461C6.19727 15.3319 6.53305 14.9961 6.94727 14.9961C7.36148 14.9961 7.69727 15.3319 7.69727 15.7461ZM15.9473 15.7461C15.9473 16.1603 15.6115 16.4961 15.1973 16.4961C14.7831 16.4961 14.4473 16.1603 14.4473 15.7461C14.4473 15.3319 14.7831 14.9961 15.1973 14.9961C15.6115 14.9961 15.9473 15.3319 15.9473 15.7461Z" stroke="#98A2B3" stroke-width="1.5" stroke-linecap="round" stroke-linejoin="round"/>
</g>
<defs>
<clipPath id="clip0_1_11029">
<rect width="18" height="18" fill="white" transform="translate(0.197754 -0.00390625)"/>
</clipPath>
</defs>
</svg>
