<svg width="19" height="18" viewBox="0 0 19 18" fill="none" xmlns="http://www.w3.org/2000/svg">
<g clip-path="url(#clip0_1_9067)">
<path d="M5.07628 12.7461H13.1982C13.9107 12.7461 14.2669 12.7461 14.5572 12.6174C14.8132 12.5039 15.0323 12.3211 15.1897 12.0895C15.3683 11.8269 15.432 11.4764 15.5595 10.7754L16.5726 5.20343C16.6167 4.96048 16.6388 4.839 16.6047 4.74415C16.5748 4.66093 16.5164 4.59098 16.4399 4.54663C16.3526 4.49609 16.2292 4.49609 15.9822 4.49609H3.95128M1.70117 1.49609H2.68848C2.87049 1.49609 2.9615 1.49609 3.0351 1.52934C3.09998 1.55864 3.15517 1.60581 3.19423 1.66532C3.23855 1.73283 3.25275 1.82273 3.28113 2.00252L5.37121 15.2397C5.3996 15.4195 5.41379 15.5094 5.45811 15.5769C5.49717 15.6364 5.55237 15.6835 5.61724 15.7128C5.69084 15.7461 5.78185 15.7461 5.96387 15.7461H14.4512" stroke="#98A2B3" stroke-width="1.5" stroke-linecap="round" stroke-linejoin="round"/>
</g>
<defs>
<clipPath id="clip0_1_9067">
<rect width="18" height="18" fill="white" transform="translate(0.201172 -0.00390625)"/>
</clipPath>
</defs>
</svg>
