<svg width="19" height="18" viewBox="0 0 19 18" fill="none" xmlns="http://www.w3.org/2000/svg">
<g clip-path="url(#clip0_1_9061)">
<path d="M12.1936 6.74609V4.49609C12.1936 2.83924 10.8505 1.49609 9.19364 1.49609C7.53678 1.49609 6.19364 2.83924 6.19364 4.49609V6.74609M2.88764 7.76007L2.43764 12.5601C2.30969 13.9248 2.24572 14.6072 2.47217 15.1343C2.67111 15.5973 3.01973 15.9801 3.46215 16.2214C3.96578 16.4961 4.65116 16.4961 6.02192 16.4961H12.3653C13.7361 16.4961 14.4215 16.4961 14.9251 16.2214C15.3675 15.9801 15.7162 15.5973 15.9151 15.1343C16.1416 14.6072 16.0776 13.9248 15.9496 12.5601L15.4996 7.76007C15.3916 6.6076 15.3376 6.03137 15.0784 5.59572C14.8501 5.21203 14.5129 4.90493 14.1096 4.71348C13.6516 4.4961 13.0729 4.49609 11.9154 4.49609L6.47192 4.49609C5.3144 4.49609 4.73564 4.49609 4.2777 4.71348C3.87439 4.90493 3.53714 5.21203 3.30888 5.59572C3.0497 6.03137 2.99568 6.6076 2.88764 7.76007Z" stroke="#98A2B3" stroke-width="1.5" stroke-linecap="round" stroke-linejoin="round"/>
</g>
<defs>
<clipPath id="clip0_1_9061">
<rect width="18" height="18" fill="white" transform="translate(0.193359 -0.00390625)"/>
</clipPath>
</defs>
</svg>
