<svg width="19" height="18" viewBox="0 0 19 18" fill="none" xmlns="http://www.w3.org/2000/svg">
<g clip-path="url(#clip0_1_9069)">
<path d="M4.45372 10.4961H14.3055C15.0651 10.4961 15.4449 10.4961 15.7473 10.3545C16.0137 10.2297 16.2374 10.0294 16.3909 9.77846C16.565 9.49359 16.6069 9.11609 16.6908 8.36113L17.1296 4.41235C17.1552 4.18176 17.168 4.06646 17.1309 3.97721C17.0984 3.89884 17.0402 3.83382 16.9659 3.7928C16.8813 3.74609 16.7653 3.74609 16.5333 3.74609H4.07872M2.20361 1.49609H3.13994C3.33841 1.49609 3.43764 1.49609 3.51528 1.53384C3.58363 1.56706 3.64027 1.62027 3.67769 1.68642C3.7202 1.76155 3.72639 1.86059 3.73877 2.05867L4.41845 12.9335C4.43083 13.1316 4.43702 13.2306 4.47954 13.3058C4.51696 13.3719 4.5736 13.4251 4.64195 13.4584C4.71958 13.4961 4.81882 13.4961 5.01728 13.4961H14.9536M6.32861 16.1211H6.33611M13.0786 16.1211H13.0861M6.70361 16.1211C6.70361 16.3282 6.53572 16.4961 6.32861 16.4961C6.12151 16.4961 5.95361 16.3282 5.95361 16.1211C5.95361 15.914 6.12151 15.7461 6.32861 15.7461C6.53572 15.7461 6.70361 15.914 6.70361 16.1211ZM13.4536 16.1211C13.4536 16.3282 13.2857 16.4961 13.0786 16.4961C12.8715 16.4961 12.7036 16.3282 12.7036 16.1211C12.7036 15.914 12.8715 15.7461 13.0786 15.7461C13.2857 15.7461 13.4536 15.914 13.4536 16.1211Z" stroke="#98A2B3" stroke-width="1.5" stroke-linecap="round" stroke-linejoin="round"/>
</g>
<defs>
<clipPath id="clip0_1_9069">
<rect width="18" height="18" fill="white" transform="translate(0.703613 -0.00390625)"/>
</clipPath>
</defs>
</svg>
