<svg width="19" height="18" viewBox="0 0 19 18" fill="none" xmlns="http://www.w3.org/2000/svg">
<path d="M14.2075 11.2461L16.4575 13.4961M16.4575 13.4961L14.2075 15.7461M16.4575 13.4961H14.6342C13.9298 13.4961 13.5776 13.4961 13.2579 13.399C12.9748 13.3131 12.7115 13.1721 12.483 12.9843C12.2249 12.7722 12.0295 12.4791 11.6388 11.893L11.4575 11.6211M14.2075 2.24609L16.4575 4.49609M16.4575 4.49609L14.2075 6.74609M16.4575 4.49609H14.6342C13.9298 4.49609 13.5776 4.49609 13.2579 4.59318C12.9748 4.67914 12.7115 4.82005 12.483 5.00787C12.2249 5.22002 12.0295 5.51307 11.6388 6.09917L7.77624 11.893C7.3855 12.4791 7.19014 12.7722 6.93201 12.9843C6.7035 13.1721 6.4402 13.3131 6.15717 13.399C5.83747 13.4961 5.48527 13.4961 4.78086 13.4961H2.95752M2.95752 4.49609H4.78086C5.48527 4.49609 5.83747 4.49609 6.15717 4.59318C6.4402 4.67914 6.7035 4.82005 6.93201 5.00787C7.19014 5.22002 7.38551 5.51307 7.77624 6.09917L7.95752 6.37109" stroke="#98A2B3" stroke-width="1.5" stroke-linecap="round" stroke-linejoin="round"/>
</svg>
