<svg width="19" height="18" viewBox="0 0 19 18" fill="none" xmlns="http://www.w3.org/2000/svg">
<path d="M12.8975 4.31415C14.6549 6.07151 14.6549 8.92075 12.8975 10.6781M6.53352 10.6781C4.77616 8.92075 4.77616 6.07151 6.53352 4.31415M4.41203 12.7995C1.4831 9.87054 1.4831 5.1218 4.41203 2.19287M15.019 2.19287C17.9479 5.1218 17.9479 9.87054 15.019 12.7995M9.7155 8.99616C10.5439 8.99616 11.2155 8.32458 11.2155 7.49616C11.2155 6.66773 10.5439 5.99616 9.7155 5.99616C8.88707 5.99616 8.2155 6.66773 8.2155 7.49616C8.2155 8.32458 8.88707 8.99616 9.7155 8.99616ZM9.7155 8.99616V15.7462" stroke="#98A2B3" stroke-width="1.5" stroke-linecap="round" stroke-linejoin="round"/>
</svg>
