<svg width="19" height="18" viewBox="0 0 19 18" fill="none" xmlns="http://www.w3.org/2000/svg">
<g clip-path="url(#clip0_1_9795)">
<path d="M12.3954 5.81419C14.1527 7.57155 14.1527 10.4208 12.3954 12.1782M6.0314 12.1781C4.27404 10.4208 4.27404 7.57152 6.0314 5.81417M3.91008 14.2995C0.981146 11.3705 0.981146 6.6218 3.91008 3.69287M14.5167 3.69291C17.4456 6.62184 17.4456 11.3706 14.5167 14.2995M10.7134 8.99617C10.7134 9.8246 10.0418 10.4962 9.21338 10.4962C8.38495 10.4962 7.71338 9.8246 7.71338 8.99617C7.71338 8.16774 8.38495 7.49617 9.21338 7.49617C10.0418 7.49617 10.7134 8.16774 10.7134 8.99617Z" stroke="#98A2B3" stroke-width="1.5" stroke-linecap="round" stroke-linejoin="round"/>
</g>
<defs>
<clipPath id="clip0_1_9795">
<rect width="18" height="18" fill="white" transform="translate(0.213379 -0.00390625)"/>
</clipPath>
</defs>
</svg>
