<svg width="19" height="18" viewBox="0 0 19 18" fill="none" xmlns="http://www.w3.org/2000/svg">
<g clip-path="url(#clip0_1_9799)">
<path d="M8.15663 10.0568C7.57084 9.47097 7.57084 8.52122 8.15663 7.93543C8.74241 7.34965 9.69216 7.34965 10.2779 7.93543C10.8637 8.52122 10.8637 9.47097 10.2779 10.0568M6.0353 12.1781C4.27795 10.4207 4.27795 7.57147 6.0353 5.81411C7.79266 4.05675 10.6419 4.05675 12.3993 5.81411C14.1566 7.57147 14.1566 10.4207 12.3993 12.1781M3.91398 14.2994C0.985052 11.3705 0.985052 6.62173 3.91398 3.69279C6.84292 0.763861 11.5917 0.763861 14.5206 3.69279C17.4495 6.62173 17.4495 11.3705 14.5206 14.2994" stroke="#98A2B3" stroke-width="1.5" stroke-linecap="round" stroke-linejoin="round"/>
</g>
<defs>
<clipPath id="clip0_1_9799">
<rect width="18" height="18" fill="white" transform="translate(0.217285 -0.00390625)"/>
</clipPath>
</defs>
</svg>
