<svg width="19" height="18" viewBox="0 0 19 18" fill="none" xmlns="http://www.w3.org/2000/svg">
<g clip-path="url(#clip0_1_9801)">
<path d="M3.71973 5.09609C3.71973 3.83598 3.71973 3.20592 3.96496 2.72462C4.18068 2.30125 4.52488 1.95704 4.94825 1.74133C5.42955 1.49609 6.05961 1.49609 7.31973 1.49609H9.72856C10.2789 1.49609 10.5541 1.49609 10.813 1.55826C11.0426 1.61338 11.2621 1.70429 11.4634 1.82765C11.6904 1.9668 11.885 2.16137 12.2741 2.55051L14.6653 4.94168C15.0545 5.33082 15.249 5.52539 15.3882 5.75245C15.5115 5.95377 15.6024 6.17324 15.6576 6.40282C15.7197 6.66177 15.7197 6.93693 15.7197 7.48726V12.8961C15.7197 14.1562 15.7197 14.7863 15.4745 15.2676C15.2588 15.6909 14.9146 16.0351 14.4912 16.2509C14.0099 16.4961 13.3798 16.4961 12.1197 16.4961H7.31973C6.05961 16.4961 5.42955 16.4961 4.94825 16.2509C4.52488 16.0351 4.18068 15.6909 3.96496 15.2676C3.71973 14.7863 3.71973 14.1562 3.71973 12.8961V5.09609Z" stroke="#98A2B3" stroke-width="1.5" stroke-linecap="round" stroke-linejoin="round"/>
<path d="M6.71973 10.3461C6.71973 10.1361 6.71973 10.0311 6.7606 9.95085C6.79655 9.88029 6.85392 9.82292 6.92448 9.78697C7.0047 9.74609 7.10971 9.74609 7.31973 9.74609H12.1197C12.3297 9.74609 12.4348 9.74609 12.515 9.78697C12.5855 9.82292 12.6429 9.88029 12.6789 9.95085C12.7197 10.0311 12.7197 10.1361 12.7197 10.3461V12.8961C12.7197 13.1061 12.7197 13.2111 12.6789 13.2913C12.6429 13.3619 12.5855 13.4193 12.515 13.4552C12.4348 13.4961 12.3297 13.4961 12.1197 13.4961H7.31973C7.10971 13.4961 7.0047 13.4961 6.92448 13.4552C6.85392 13.4193 6.79655 13.3619 6.7606 13.2913C6.71973 13.2111 6.71973 13.1061 6.71973 12.8961V10.3461Z" stroke="#98A2B3" stroke-width="1.5" stroke-linecap="round" stroke-linejoin="round"/>
</g>
<defs>
<clipPath id="clip0_1_9801">
<rect width="18" height="18" fill="white" transform="translate(0.719238 -0.00390625)"/>
</clipPath>
</defs>
</svg>
