<svg width="19" height="18" viewBox="0 0 19 18" fill="none" xmlns="http://www.w3.org/2000/svg">
<g clip-path="url(#clip0_1_10207)">
<path d="M15.0068 5.24602L13.9354 12.746M4.82833 5.24609L3.48905 12.7461M13.7212 3.74609L6.22119 3.74609M12.2212 14.2461L4.72119 14.2461M4.42119 5.24609H5.02119C5.44123 5.24609 5.65125 5.24609 5.81168 5.16435C5.95281 5.09244 6.06754 4.97771 6.13945 4.83659C6.22119 4.67615 6.22119 4.46613 6.22119 4.04609V3.44609C6.22119 3.02605 6.22119 2.81603 6.13945 2.6556C6.06754 2.51448 5.95281 2.39974 5.81168 2.32784C5.65125 2.24609 5.44123 2.24609 5.02119 2.24609H4.42119C4.00115 2.24609 3.79113 2.24609 3.6307 2.32784C3.48958 2.39974 3.37484 2.51448 3.30294 2.6556C3.22119 2.81603 3.22119 3.02605 3.22119 3.44609V4.04609C3.22119 4.46613 3.22119 4.67615 3.30294 4.83659C3.37484 4.97771 3.48958 5.09244 3.6307 5.16435C3.79113 5.24609 4.00115 5.24609 4.42119 5.24609ZM2.92119 15.7461H3.52119C3.94123 15.7461 4.15125 15.7461 4.31168 15.6644C4.45281 15.5924 4.56754 15.4777 4.63945 15.3366C4.72119 15.1762 4.72119 14.9661 4.72119 14.5461V13.9461C4.72119 13.5261 4.72119 13.316 4.63945 13.1556C4.56754 13.0145 4.45281 12.8997 4.31168 12.8278C4.15125 12.7461 3.94123 12.7461 3.52119 12.7461H2.92119C2.50115 12.7461 2.29113 12.7461 2.1307 12.8278C1.98958 12.8997 1.87484 13.0145 1.80294 13.1556C1.72119 13.316 1.72119 13.5261 1.72119 13.9461V14.5461C1.72119 14.9661 1.72119 15.1762 1.80294 15.3366C1.87484 15.4777 1.98958 15.5924 2.1307 15.6644C2.29113 15.7461 2.50115 15.7461 2.92119 15.7461ZM14.9212 5.24609H15.5212C15.9412 5.24609 16.1513 5.24609 16.3117 5.16435C16.4528 5.09244 16.5675 4.97771 16.6394 4.83659C16.7212 4.67615 16.7212 4.46613 16.7212 4.04609V3.44609C16.7212 3.02605 16.7212 2.81603 16.6394 2.6556C16.5675 2.51448 16.4528 2.39974 16.3117 2.32784C16.1513 2.24609 15.9412 2.24609 15.5212 2.24609H14.9212C14.5012 2.24609 14.2911 2.24609 14.1307 2.32784C13.9896 2.39974 13.8748 2.51448 13.8029 2.6556C13.7212 2.81603 13.7212 3.02605 13.7212 3.44609V4.04609C13.7212 4.46613 13.7212 4.67615 13.8029 4.83659C13.8748 4.97771 13.9896 5.09244 14.1307 5.16435C14.2911 5.24609 14.5012 5.24609 14.9212 5.24609ZM13.4212 15.7461H14.0212C14.4412 15.7461 14.6513 15.7461 14.8117 15.6644C14.9528 15.5924 15.0675 15.4777 15.1394 15.3366C15.2212 15.1762 15.2212 14.9661 15.2212 14.5461V13.9461C15.2212 13.5261 15.2212 13.316 15.1394 13.1556C15.0675 13.0145 14.9528 12.8997 14.8117 12.8278C14.6513 12.7461 14.4412 12.7461 14.0212 12.7461H13.4212C13.0012 12.7461 12.7911 12.7461 12.6307 12.8278C12.4896 12.8997 12.3748 13.0145 12.3029 13.1556C12.2212 13.316 12.2212 13.5261 12.2212 13.9461V14.5461C12.2212 14.9661 12.2212 15.1762 12.3029 15.3366C12.3748 15.4777 12.4896 15.5924 12.6307 15.6644C12.7911 15.7461 13.0012 15.7461 13.4212 15.7461Z" stroke="#98A2B3" stroke-width="1.5" stroke-linecap="round" stroke-linejoin="round"/>
</g>
<defs>
<clipPath id="clip0_1_10207">
<rect width="18" height="18" fill="white" transform="translate(0.221191 -0.00390625)"/>
</clipPath>
</defs>
</svg>
