<svg width="19" height="18" viewBox="0 0 19 18" fill="none" xmlns="http://www.w3.org/2000/svg">
<path d="M14.479 3.74609V14.2461M5.92864 13.4364L10.3077 9.93314C10.7081 9.61283 10.9083 9.45268 10.9808 9.25919C11.0443 9.08955 11.0443 8.90264 10.9808 8.733C10.9083 8.53951 10.7081 8.37936 10.3077 8.05905L5.92864 4.5558C5.30451 4.0565 4.99244 3.80685 4.72981 3.80656C4.50141 3.80632 4.28534 3.91016 4.14285 4.08867C3.979 4.29393 3.979 4.69357 3.979 5.49284V12.4993C3.979 13.2986 3.979 13.6983 4.14285 13.9035C4.28534 14.082 4.50141 14.1859 4.72981 14.1856C4.99244 14.1853 5.30451 13.9357 5.92864 13.4364Z" stroke="#98A2B3" stroke-width="1.5" stroke-linecap="round" stroke-linejoin="round"/>
</svg>
