<svg width="19" height="18" viewBox="0 0 19 18" fill="none" xmlns="http://www.w3.org/2000/svg">
<path d="M3.9751 14.2461V3.74609M12.5255 4.5558L8.1464 8.05905C7.74602 8.37936 7.54582 8.53951 7.47335 8.733C7.4098 8.90264 7.4098 9.08955 7.47335 9.25919C7.54582 9.45268 7.74602 9.61283 8.1464 9.93314L12.5255 13.4364C13.1496 13.9357 13.4617 14.1853 13.7243 14.1856C13.9527 14.1859 14.1688 14.082 14.3113 13.9035C14.4751 13.6983 14.4751 13.2986 14.4751 12.4993V5.49284C14.4751 4.69357 14.4751 4.29393 14.3113 4.08867C14.1688 3.91016 13.9527 3.80632 13.7243 3.80656C13.4617 3.80685 13.1496 4.0565 12.5255 4.5558Z" stroke="#98A2B3" stroke-width="1.5" stroke-linecap="round" stroke-linejoin="round"/>
</svg>
