<svg width="19" height="18" viewBox="0 0 19 18" fill="none" xmlns="http://www.w3.org/2000/svg">
<g clip-path="url(#clip0_1_10747)">
<path d="M11.6055 7.49609C10.983 7.49609 10.4805 6.99359 10.4805 6.37109V2.62109C10.4805 1.99859 10.983 1.49609 11.6055 1.49609C12.228 1.49609 12.7305 1.99859 12.7305 2.62109V6.37109C12.7305 6.99359 12.228 7.49609 11.6055 7.49609Z" stroke="#98A2B3" stroke-width="1.5" stroke-linecap="round" stroke-linejoin="round"/>
<path d="M16.1055 7.49609H14.9805V6.37109C14.9805 5.74859 15.483 5.24609 16.1055 5.24609C16.728 5.24609 17.2305 5.74859 17.2305 6.37109C17.2305 6.99359 16.728 7.49609 16.1055 7.49609Z" stroke="#98A2B3" stroke-width="1.5" stroke-linecap="round" stroke-linejoin="round"/>
<path d="M7.85547 10.4961C8.47797 10.4961 8.98047 10.9986 8.98047 11.6211V15.3711C8.98047 15.9936 8.47797 16.4961 7.85547 16.4961C7.23297 16.4961 6.73047 15.9936 6.73047 15.3711V11.6211C6.73047 10.9986 7.23297 10.4961 7.85547 10.4961Z" stroke="#98A2B3" stroke-width="1.5" stroke-linecap="round" stroke-linejoin="round"/>
<path d="M3.35547 10.4961H4.48047V11.6211C4.48047 12.2436 3.97797 12.7461 3.35547 12.7461C2.73297 12.7461 2.23047 12.2436 2.23047 11.6211C2.23047 10.9986 2.73297 10.4961 3.35547 10.4961Z" stroke="#98A2B3" stroke-width="1.5" stroke-linecap="round" stroke-linejoin="round"/>
<path d="M11.2305 10.8711C11.2305 10.2486 11.733 9.74609 12.3555 9.74609H16.1055C16.728 9.74609 17.2305 10.2486 17.2305 10.8711C17.2305 11.4936 16.728 11.9961 16.1055 11.9961H12.3555C11.733 11.9961 11.2305 11.4936 11.2305 10.8711Z" stroke="#98A2B3" stroke-width="1.5" stroke-linecap="round" stroke-linejoin="round"/>
<path d="M12.3555 14.2461H11.2305V15.3711C11.2305 15.9936 11.733 16.4961 12.3555 16.4961C12.978 16.4961 13.4805 15.9936 13.4805 15.3711C13.4805 14.7486 12.978 14.2461 12.3555 14.2461Z" stroke="#98A2B3" stroke-width="1.5" stroke-linecap="round" stroke-linejoin="round"/>
<path d="M8.23047 7.12109C8.23047 6.49859 7.72797 5.99609 7.10547 5.99609H3.35547C2.73297 5.99609 2.23047 6.49859 2.23047 7.12109C2.23047 7.74359 2.73297 8.24609 3.35547 8.24609H7.10547C7.72797 8.24609 8.23047 7.74359 8.23047 7.12109Z" stroke="#98A2B3" stroke-width="1.5" stroke-linecap="round" stroke-linejoin="round"/>
<path d="M7.10547 3.74609H8.23047V2.62109C8.23047 1.99859 7.72797 1.49609 7.10547 1.49609C6.48297 1.49609 5.98047 1.99859 5.98047 2.62109C5.98047 3.24359 6.48297 3.74609 7.10547 3.74609Z" stroke="#98A2B3" stroke-width="1.5" stroke-linecap="round" stroke-linejoin="round"/>
</g>
<defs>
<clipPath id="clip0_1_10747">
<rect width="18" height="18" fill="white" transform="translate(0.730469 -0.00390625)"/>
</clipPath>
</defs>
</svg>
