<svg width="19" height="18" viewBox="0 0 19 18" fill="none" xmlns="http://www.w3.org/2000/svg">
<g clip-path="url(#clip0_1_9195)">
<path d="M4.44066 3.69359L15.0457 14.2986M2.24316 6.38815V11.604C2.24316 11.7875 2.24316 11.8792 2.26389 11.9655C2.28226 12.042 2.31256 12.1152 2.35368 12.1823C2.40007 12.258 2.46492 12.3229 2.59464 12.4526L6.28669 16.1446C6.41641 16.2743 6.48126 16.3392 6.55695 16.3856C6.62406 16.4267 6.69721 16.457 6.77374 16.4754C6.86006 16.4961 6.95178 16.4961 7.13522 16.4961H12.3511C12.5346 16.4961 12.6263 16.4961 12.7126 16.4754C12.7891 16.457 12.8623 16.4267 12.9294 16.3856C13.0051 16.3392 13.0699 16.2743 13.1996 16.1446L16.8917 12.4526C17.0214 12.3229 17.0863 12.258 17.1326 12.1823C17.1738 12.1152 17.2041 12.042 17.2224 11.9655C17.2432 11.8792 17.2432 11.7875 17.2432 11.604V6.38815C17.2432 6.20471 17.2432 6.11299 17.2224 6.02667C17.2041 5.95014 17.1738 5.87698 17.1326 5.80988C17.0863 5.73419 17.0214 5.66934 16.8917 5.53962L13.1996 1.84757C13.0699 1.71785 13.0051 1.65299 12.9294 1.60661C12.8623 1.56549 12.7891 1.53519 12.7126 1.51682C12.6263 1.49609 12.5346 1.49609 12.3511 1.49609H7.13522C6.95178 1.49609 6.86006 1.49609 6.77374 1.51682C6.69721 1.53519 6.62406 1.56549 6.55695 1.60661C6.48126 1.65299 6.41641 1.71785 6.28669 1.84757L2.59464 5.53962C2.46492 5.66934 2.40007 5.73419 2.35368 5.80988C2.31256 5.87698 2.28226 5.95014 2.26389 6.02667C2.24316 6.11299 2.24316 6.20471 2.24316 6.38815Z" stroke="#98A2B3" stroke-width="1.5" stroke-linecap="round" stroke-linejoin="round"/>
</g>
<defs>
<clipPath id="clip0_1_9195">
<rect width="18" height="18" fill="white" transform="translate(0.743164 -0.00390625)"/>
</clipPath>
</defs>
</svg>
