<svg width="19" height="18" viewBox="0 0 19 18" fill="none" xmlns="http://www.w3.org/2000/svg">
<path d="M12.0389 6.74609H4.87598C3.84044 6.74609 3.00098 5.90663 3.00098 4.87109C3.00098 3.83556 3.84044 2.99609 4.87598 2.99609H12.0389M7.4631 14.9961H14.626C15.6615 14.9961 16.501 14.1566 16.501 13.1211C16.501 12.0856 15.6615 11.2461 14.626 11.2461H7.4631M3.00098 13.1211C3.00098 14.5708 4.17623 15.7461 5.62598 15.7461C7.07572 15.7461 8.25098 14.5708 8.25098 13.1211C8.25098 11.6713 7.07572 10.4961 5.62598 10.4961C4.17623 10.4961 3.00098 11.6713 3.00098 13.1211ZM16.501 4.87109C16.501 6.32084 15.3257 7.49609 13.876 7.49609C12.4262 7.49609 11.251 6.32084 11.251 4.87109C11.251 3.42135 12.4262 2.24609 13.876 2.24609C15.3257 2.24609 16.501 3.42135 16.501 4.87109Z" stroke="#98A2B3" stroke-width="1.5" stroke-linecap="round" stroke-linejoin="round"/>
</svg>
