<svg width="19" height="18" viewBox="0 0 19 18" fill="none" xmlns="http://www.w3.org/2000/svg">
<path d="M2.50293 5.99609L11.5029 5.99609M11.5029 5.99609C11.5029 7.23874 12.5103 8.24609 13.7529 8.24609C14.9956 8.24609 16.0029 7.23873 16.0029 5.99609C16.0029 4.75345 14.9956 3.74609 13.7529 3.74609C12.5103 3.74609 11.5029 4.75345 11.5029 5.99609ZM7.00293 11.9961L16.0029 11.9961M7.00293 11.9961C7.00293 13.2387 5.99557 14.2461 4.75293 14.2461C3.51029 14.2461 2.50293 13.2387 2.50293 11.9961C2.50293 10.7535 3.51029 9.74609 4.75293 9.74609C5.99557 9.74609 7.00293 10.7535 7.00293 11.9961Z" stroke="#98A2B3" stroke-width="1.5" stroke-linecap="round" stroke-linejoin="round"/>
</svg>
