<svg width="19" height="18" viewBox="0 0 19 18" fill="none" xmlns="http://www.w3.org/2000/svg">
<path d="M3.99902 15.7461L3.99902 11.2461M3.99902 11.2461C4.82745 11.2461 5.49902 10.5745 5.49902 9.74609C5.49902 8.91767 4.82745 8.24609 3.99902 8.24609C3.1706 8.24609 2.49902 8.91767 2.49902 9.74609C2.49902 10.5745 3.1706 11.2461 3.99902 11.2461ZM3.99902 5.24609V2.24609M9.24902 15.7461V11.2461M9.24902 5.24609V2.24609M9.24902 5.24609C8.4206 5.24609 7.74902 5.91767 7.74902 6.74609C7.74902 7.57452 8.4206 8.24609 9.24902 8.24609C10.0775 8.24609 10.749 7.57452 10.749 6.74609C10.749 5.91767 10.0775 5.24609 9.24902 5.24609ZM14.499 15.7461V12.7461M14.499 12.7461C15.3275 12.7461 15.999 12.0745 15.999 11.2461C15.999 10.4177 15.3275 9.74609 14.499 9.74609C13.6706 9.74609 12.999 10.4177 12.999 11.2461C12.999 12.0745 13.6706 12.7461 14.499 12.7461ZM14.499 6.74609V2.24609" stroke="#98A2B3" stroke-width="1.5" stroke-linecap="round" stroke-linejoin="round"/>
</svg>
