<svg width="19" height="18" viewBox="0 0 19 18" fill="none" xmlns="http://www.w3.org/2000/svg">
<g clip-path="url(#clip0_1_10551)">
<path d="M14.3055 6.37109L5.21223 11.6211M14.3055 6.37109L15.1291 3.29754M14.3055 6.37109L17.3791 7.19465M5.21223 11.6211L2.13867 10.7975M5.21223 11.6211L4.38867 14.6947M14.3054 11.621L5.21217 6.37099M14.3054 11.621L17.3791 10.7974M14.3054 11.621L15.1291 14.6946M5.21217 6.37099L4.38878 3.29762M5.21217 6.37099L2.13878 7.19473M9.75886 3.74609L9.75886 14.2461M9.75886 3.74609L7.50886 1.49609M9.75886 3.74609L12.0089 1.49609M9.75886 14.2461L7.50886 16.4961M9.75886 14.2461L12.0089 16.4961" stroke="#98A2B3" stroke-width="1.5" stroke-linecap="round" stroke-linejoin="round"/>
</g>
<defs>
<clipPath id="clip0_1_10551">
<rect width="18" height="18" fill="white" transform="translate(0.758789 -0.00390625)"/>
</clipPath>
</defs>
</svg>
