<svg width="19" height="18" viewBox="0 0 19 18" fill="none" xmlns="http://www.w3.org/2000/svg">
<g clip-path="url(#clip0_1_9815)">
<path d="M9.27246 4.49609H9.27996M6.87246 16.4961H11.6725C12.9326 16.4961 13.5626 16.4961 14.0439 16.2509C14.4673 16.0351 14.8115 15.6909 15.0272 15.2676C15.2725 14.7863 15.2725 14.1562 15.2725 12.8961V5.09609C15.2725 3.83598 15.2725 3.20592 15.0272 2.72462C14.8115 2.30125 14.4673 1.95704 14.0439 1.74133C13.5626 1.49609 12.9326 1.49609 11.6725 1.49609H6.87246C5.61234 1.49609 4.98228 1.49609 4.50098 1.74133C4.07762 1.95704 3.73341 2.30125 3.5177 2.72462C3.27246 3.20592 3.27246 3.83598 3.27246 5.09609V12.8961C3.27246 14.1562 3.27246 14.7863 3.5177 15.2676C3.73341 15.6909 4.07762 16.0351 4.50098 16.2509C4.98228 16.4961 5.61234 16.4961 6.87246 16.4961ZM9.64746 4.49609C9.64746 4.7032 9.47957 4.87109 9.27246 4.87109C9.06535 4.87109 8.89746 4.7032 8.89746 4.49609C8.89746 4.28899 9.06535 4.12109 9.27246 4.12109C9.47957 4.12109 9.64746 4.28899 9.64746 4.49609ZM12.2725 10.4961C12.2725 12.1529 10.9293 13.4961 9.27246 13.4961C7.61561 13.4961 6.27246 12.1529 6.27246 10.4961C6.27246 8.83924 7.61561 7.49609 9.27246 7.49609C10.9293 7.49609 12.2725 8.83924 12.2725 10.4961Z" stroke="#98A2B3" stroke-width="1.5" stroke-linecap="round" stroke-linejoin="round"/>
</g>
<defs>
<clipPath id="clip0_1_9815">
<rect width="18" height="18" fill="white" transform="translate(0.272461 -0.00390625)"/>
</clipPath>
</defs>
</svg>
