<svg width="19" height="18" viewBox="0 0 19 18" fill="none" xmlns="http://www.w3.org/2000/svg">
<g clip-path="url(#clip0_1_9819)">
<path d="M13.7764 13.4961V15.2961C13.7764 15.7161 13.7764 15.9262 13.6946 16.0866C13.6227 16.2277 13.508 16.3424 13.3669 16.4143C13.2064 16.4961 12.9964 16.4961 12.5764 16.4961H5.97637C5.55633 16.4961 5.34631 16.4961 5.18587 16.4143C5.04475 16.3424 4.93002 16.2277 4.85811 16.0866C4.77637 15.9262 4.77637 15.7161 4.77637 15.2961V13.4961M9.27637 7.49609H9.28387M6.12637 13.4961H12.4264C13.6865 13.4961 14.3165 13.4961 14.7978 13.2509C15.2212 13.0351 15.5654 12.6909 15.7811 12.2676C16.0264 11.7863 16.0264 11.1562 16.0264 9.89609V5.09609C16.0264 3.83598 16.0264 3.20592 15.7811 2.72462C15.5654 2.30125 15.2212 1.95704 14.7978 1.74133C14.3165 1.49609 13.6865 1.49609 12.4264 1.49609H6.12637C4.86625 1.49609 4.23619 1.49609 3.75489 1.74133C3.33152 1.95704 2.98732 2.30125 2.7716 2.72462C2.52637 3.20592 2.52637 3.83598 2.52637 5.09609V9.89609C2.52637 11.1562 2.52637 11.7863 2.7716 12.2676C2.98732 12.6909 3.33152 13.0351 3.75489 13.2509C4.23619 13.4961 4.86625 13.4961 6.12637 13.4961ZM13.0264 7.49609C13.0264 9.56716 11.3474 11.2461 9.27637 11.2461C7.2053 11.2461 5.52637 9.56716 5.52637 7.49609C5.52637 5.42503 7.2053 3.74609 9.27637 3.74609C11.3474 3.74609 13.0264 5.42503 13.0264 7.49609ZM9.65137 7.49609C9.65137 7.7032 9.48348 7.87109 9.27637 7.87109C9.06926 7.87109 8.90137 7.7032 8.90137 7.49609C8.90137 7.28899 9.06926 7.12109 9.27637 7.12109C9.48348 7.12109 9.65137 7.28899 9.65137 7.49609Z" stroke="#98A2B3" stroke-width="1.5" stroke-linecap="round" stroke-linejoin="round"/>
</g>
<defs>
<clipPath id="clip0_1_9819">
<rect width="18" height="18" fill="white" transform="translate(0.276367 -0.00390625)"/>
</clipPath>
</defs>
</svg>
