<svg width="19" height="18" viewBox="0 0 19 18" fill="none" xmlns="http://www.w3.org/2000/svg">
<g clip-path="url(#clip0_1_9817)">
<path d="M9.77441 8.99609H9.78191M14.2744 4.49609H14.2819M5.27441 4.49609H5.28191M14.2744 13.4961H14.2819M5.27441 13.4961H5.28191M5.87441 16.4961H13.6744C14.9345 16.4961 15.5646 16.4961 16.0459 16.2509C16.4693 16.0351 16.8135 15.6909 17.0292 15.2676C17.2744 14.7863 17.2744 14.1562 17.2744 12.8961V5.09609C17.2744 3.83598 17.2744 3.20592 17.0292 2.72462C16.8135 2.30125 16.4693 1.95704 16.0459 1.74133C15.5646 1.49609 14.9345 1.49609 13.6744 1.49609H5.87441C4.6143 1.49609 3.98424 1.49609 3.50294 1.74133C3.07957 1.95704 2.73536 2.30125 2.51965 2.72462C2.27441 3.20592 2.27441 3.83598 2.27441 5.09609V12.8961C2.27441 14.1562 2.27441 14.7863 2.51965 15.2676C2.73536 15.6909 3.07957 16.0351 3.50294 16.2509C3.98424 16.4961 4.6143 16.4961 5.87441 16.4961ZM10.1494 8.99609C10.1494 9.2032 9.98152 9.37109 9.77441 9.37109C9.56731 9.37109 9.39941 9.2032 9.39941 8.99609C9.39941 8.78899 9.56731 8.62109 9.77441 8.62109C9.98152 8.62109 10.1494 8.78899 10.1494 8.99609ZM13.5244 8.99609C13.5244 11.0672 11.8455 12.7461 9.77441 12.7461C7.70335 12.7461 6.02441 11.0672 6.02441 8.99609C6.02441 6.92503 7.70335 5.24609 9.77441 5.24609C11.8455 5.24609 13.5244 6.92503 13.5244 8.99609Z" stroke="#98A2B3" stroke-width="1.5" stroke-linecap="round" stroke-linejoin="round"/>
</g>
<defs>
<clipPath id="clip0_1_9817">
<rect width="18" height="18" fill="white" transform="translate(0.774414 -0.00390625)"/>
</clipPath>
</defs>
</svg>
