<svg width="19" height="18" viewBox="0 0 19 18" fill="none" xmlns="http://www.w3.org/2000/svg">
<g clip-path="url(#clip0_1_11031)">
<path d="M9.77051 4.49609H9.77801M5.27051 1.49609H14.2705C15.0989 1.49609 15.7705 2.16767 15.7705 2.99609V14.9961C15.7705 15.8245 15.0989 16.4961 14.2705 16.4961H5.27051C4.44208 16.4961 3.77051 15.8245 3.77051 14.9961V2.99609C3.77051 2.16767 4.44208 1.49609 5.27051 1.49609ZM12.7705 10.4961C12.7705 12.1529 11.4274 13.4961 9.77051 13.4961C8.11365 13.4961 6.77051 12.1529 6.77051 10.4961C6.77051 8.83924 8.11365 7.49609 9.77051 7.49609C11.4274 7.49609 12.7705 8.83924 12.7705 10.4961Z" stroke="#98A2B3" stroke-width="1.5" stroke-linecap="round" stroke-linejoin="round"/>
</g>
<defs>
<clipPath id="clip0_1_11031">
<rect width="18" height="18" fill="white" transform="translate(0.770508 -0.00390625)"/>
</clipPath>
</defs>
</svg>
