<svg width="19" height="18" viewBox="0 0 19 18" fill="none" xmlns="http://www.w3.org/2000/svg">
<g clip-path="url(#clip0_1_9201)">
<path d="M4.53223 8.99609C4.53223 6.0966 6.88273 3.74609 9.78223 3.74609M13.1572 5.62109L9.78216 8.99609M17.2822 8.99609C17.2822 13.1382 13.9244 16.4961 9.78223 16.4961C5.64009 16.4961 2.28223 13.1382 2.28223 8.99609C2.28223 4.85396 5.64009 1.49609 9.78223 1.49609C13.9244 1.49609 17.2822 4.85396 17.2822 8.99609ZM10.5322 8.99609C10.5322 9.41031 10.1964 9.74609 9.78223 9.74609C9.36801 9.74609 9.03223 9.41031 9.03223 8.99609C9.03223 8.58188 9.36801 8.24609 9.78223 8.24609C10.1964 8.24609 10.5322 8.58188 10.5322 8.99609Z" stroke="#98A2B3" stroke-width="1.5" stroke-linecap="round" stroke-linejoin="round"/>
</g>
<defs>
<clipPath id="clip0_1_9201">
<rect width="18" height="18" fill="white" transform="translate(0.782227 -0.00390625)"/>
</clipPath>
</defs>
</svg>
