<svg width="19" height="18" viewBox="0 0 19 18" fill="none" xmlns="http://www.w3.org/2000/svg">
<g clip-path="url(#clip0_1_9197)">
<path d="M9.77832 1.49609V3.37109M9.77832 1.49609C5.63618 1.49609 2.27832 4.85396 2.27832 8.99609M9.77832 1.49609C13.9205 1.49609 17.2783 4.85396 17.2783 8.99609M9.77832 14.6211V16.4961M9.77832 16.4961C13.9205 16.4961 17.2783 13.1382 17.2783 8.99609M9.77832 16.4961C5.63618 16.4961 2.27832 13.1382 2.27832 8.99609M4.15332 8.99609H2.27832M17.2783 8.99609H15.4033M15.0871 14.3049L13.7568 12.9746M4.46954 14.3049L5.80118 12.9733M4.46954 3.74609L5.77188 5.04843M15.0871 3.74609L10.9033 7.87109M11.2783 8.99609C11.2783 9.82452 10.6067 10.4961 9.77832 10.4961C8.94989 10.4961 8.27832 9.82452 8.27832 8.99609C8.27832 8.16767 8.94989 7.49609 9.77832 7.49609C10.6067 7.49609 11.2783 8.16767 11.2783 8.99609Z" stroke="#98A2B3" stroke-width="1.5" stroke-linecap="round" stroke-linejoin="round"/>
</g>
<defs>
<clipPath id="clip0_1_9197">
<rect width="18" height="18" fill="white" transform="translate(0.77832 -0.00390625)"/>
</clipPath>
</defs>
</svg>
