<svg width="19" height="18" viewBox="0 0 19 18" fill="none" xmlns="http://www.w3.org/2000/svg">
<g clip-path="url(#clip0_1_9199)">
<path d="M16.7803 8.99609C16.7803 13.1382 13.4224 16.4961 9.28027 16.4961C5.13814 16.4961 1.78027 13.1382 1.78027 8.99609M16.7803 8.99609C16.7803 4.85396 13.4224 1.49609 9.28027 1.49609M16.7803 8.99609H14.9053M1.78027 8.99609C1.78027 4.85396 5.13814 1.49609 9.28027 1.49609M1.78027 8.99609H3.65527M9.28027 1.49609V3.37109M14.5891 3.74609L10.4052 7.87109M14.5891 14.3049L14.4362 14.152C13.9173 13.6331 13.6579 13.3737 13.3551 13.1882C13.0867 13.0237 12.7941 12.9025 12.488 12.829C12.1427 12.7461 11.7758 12.7461 11.042 12.7461L7.51849 12.7461C6.78472 12.7461 6.41784 12.7461 6.07258 12.829C5.76647 12.9025 5.47384 13.0237 5.20542 13.1882C4.90267 13.3737 4.64325 13.6332 4.12439 14.152L3.9715 14.3049M3.9715 3.74609L5.27383 5.04843M10.7803 8.99609C10.7803 9.82452 10.1087 10.4961 9.28027 10.4961C8.45185 10.4961 7.78027 9.82452 7.78027 8.99609C7.78027 8.16767 8.45185 7.49609 9.28027 7.49609C10.1087 7.49609 10.7803 8.16767 10.7803 8.99609Z" stroke="#98A2B3" stroke-width="1.5" stroke-linecap="round" stroke-linejoin="round"/>
</g>
<defs>
<clipPath id="clip0_1_9199">
<rect width="18" height="18" fill="white" transform="translate(0.280273 -0.00390625)"/>
</clipPath>
</defs>
</svg>
