<svg width="19" height="18" viewBox="0 0 19 18" fill="none" xmlns="http://www.w3.org/2000/svg">
<g clip-path="url(#clip0_1_9203)">
<path d="M13.5932 11.9961C14.1863 11.1457 14.5342 10.1115 14.5342 8.99609C14.5342 8.60993 14.4925 8.2335 14.4134 7.87106M4.9752 11.9961C4.38204 11.1457 4.03418 10.1115 4.03418 8.99609C4.03418 6.0966 6.38469 3.74609 9.28418 3.74609C9.60078 3.74609 9.91084 3.77412 10.212 3.82782M12.6591 5.62109L9.28411 8.99609M16.7842 8.99609C16.7842 13.1382 13.4263 16.4961 9.28418 16.4961C5.14204 16.4961 1.78418 13.1382 1.78418 8.99609C1.78418 4.85396 5.14204 1.49609 9.28418 1.49609C13.4263 1.49609 16.7842 4.85396 16.7842 8.99609ZM10.0342 8.99609C10.0342 9.41031 9.69839 9.74609 9.28418 9.74609C8.86997 9.74609 8.53418 9.41031 8.53418 8.99609C8.53418 8.58188 8.86997 8.24609 9.28418 8.24609C9.69839 8.24609 10.0342 8.58188 10.0342 8.99609Z" stroke="#98A2B3" stroke-width="1.5" stroke-linecap="round" stroke-linejoin="round"/>
</g>
<defs>
<clipPath id="clip0_1_9203">
<rect width="18" height="18" fill="white" transform="translate(0.28418 -0.00390625)"/>
</clipPath>
</defs>
</svg>
