<svg width="19" height="18" viewBox="0 0 19 18" fill="none" xmlns="http://www.w3.org/2000/svg">
<path d="M2.53809 5.84609C2.53809 4.58598 2.53809 3.95592 2.78332 3.47462C2.99904 3.05125 3.34324 2.70704 3.76661 2.49133C4.24791 2.24609 4.87797 2.24609 6.13809 2.24609H12.4381C13.6982 2.24609 14.3283 2.24609 14.8096 2.49133C15.2329 2.70704 15.5771 3.05125 15.7929 3.47462C16.0381 3.95592 16.0381 4.58598 16.0381 5.84609V12.1461C16.0381 13.4062 16.0381 14.0363 15.7929 14.5176C15.5771 14.9409 15.2329 15.2851 14.8096 15.5009C14.3283 15.7461 13.6982 15.7461 12.4381 15.7461H6.13809C4.87797 15.7461 4.24791 15.7461 3.76661 15.5009C3.34324 15.2851 2.99904 14.9409 2.78332 14.5176C2.53809 14.0363 2.53809 13.4062 2.53809 12.1461V5.84609Z" stroke="#98A2B3" stroke-width="1.5" stroke-linecap="round" stroke-linejoin="round"/>
</svg>
