<svg width="19" height="18" viewBox="0 0 19 18" fill="none" xmlns="http://www.w3.org/2000/svg">
<g clip-path="url(#clip0_1_8628)">
<path d="M7.54004 12.7461L3.79004 16.4961M12.04 12.7461L15.79 16.4961M9.79004 1.49609V2.99609M9.79004 16.4961V12.7461M4.69004 12.7461H14.89C15.7301 12.7461 16.1502 12.7461 16.471 12.5826C16.7533 12.4388 16.9827 12.2093 17.1265 11.9271C17.29 11.6062 17.29 11.1862 17.29 10.3461V5.39609C17.29 4.55602 17.29 4.13598 17.1265 3.81511C16.9827 3.53287 16.7533 3.30339 16.471 3.15958C16.1502 2.99609 15.7301 2.99609 14.89 2.99609H4.69004C3.84996 2.99609 3.42992 2.99609 3.10905 3.15958C2.82681 3.30339 2.59734 3.53287 2.45353 3.81511C2.29004 4.13598 2.29004 4.55602 2.29004 5.39609V10.3461C2.29004 11.1862 2.29004 11.6062 2.45353 11.9271C2.59734 12.2093 2.82681 12.4388 3.10905 12.5826C3.42992 12.7461 3.84996 12.7461 4.69004 12.7461Z" stroke="#98A2B3" stroke-width="1.5" stroke-linecap="round" stroke-linejoin="round"/>
</g>
<defs>
<clipPath id="clip0_1_8628">
<rect width="18" height="18" fill="white" transform="translate(0.790039 -0.00390625)"/>
</clipPath>
</defs>
</svg>
