<svg width="19" height="19" viewBox="0 0 19 19" fill="none" xmlns="http://www.w3.org/2000/svg">
<g clip-path="url(#clip0_1_10557)">
<path d="M3.46191 16.998V13.248M3.46191 5.74805V1.99805M1.58691 3.87305H5.33691M1.58691 15.123H5.33691M9.83691 2.74805L8.53628 6.12969C8.32477 6.67962 8.21902 6.95458 8.05456 7.18586C7.90881 7.39085 7.72971 7.56994 7.52473 7.71569C7.29344 7.88015 7.01848 7.98591 6.46856 8.19741L3.08691 9.49805L6.46856 10.7987C7.01848 11.0102 7.29345 11.1159 7.52473 11.2804C7.72971 11.4262 7.90881 11.6052 8.05456 11.8102C8.21902 12.0415 8.32477 12.3165 8.53628 12.8664L9.83692 16.248L11.1375 12.8664C11.3491 12.3165 11.4548 12.0415 11.6193 11.8102C11.765 11.6052 11.9441 11.4262 12.1491 11.2804C12.3804 11.1159 12.6553 11.0102 13.2053 10.7987L16.5869 9.49805L13.2053 8.19741C12.6553 7.9859 12.3804 7.88015 12.1491 7.71569C11.9441 7.56994 11.765 7.39085 11.6193 7.18586C11.4548 6.95458 11.3491 6.67962 11.1375 6.12969L9.83691 2.74805Z" stroke="#98A2B3" stroke-width="1.5" stroke-linecap="round" stroke-linejoin="round"/>
</g>
<defs>
<clipPath id="clip0_1_10557">
<rect width="18" height="18" fill="white" transform="translate(0.0874023 0.498047)"/>
</clipPath>
</defs>
</svg>
