<svg width="19" height="19" viewBox="0 0 19 19" fill="none" xmlns="http://www.w3.org/2000/svg">
<path d="M8.54267 3.02283C8.71494 2.69125 8.80107 2.52547 8.91651 2.47159C9.01704 2.42467 9.13318 2.42467 9.2337 2.47159C9.34914 2.52547 9.43527 2.69125 9.60754 3.02283L10.7423 5.20703C10.8166 5.35005 10.8538 5.42156 10.9095 5.46907C10.9587 5.511 11.0179 5.53951 11.0813 5.55183C11.1532 5.56578 11.2323 5.55024 11.3904 5.51916L13.8056 5.04452C14.1723 4.97247 14.3556 4.93645 14.4697 4.99311C14.5691 5.04245 14.6415 5.13325 14.6675 5.2411C14.6973 5.36495 14.6214 5.53565 14.4696 5.87707L13.4694 8.1261C13.4039 8.27336 13.3712 8.34699 13.3688 8.42018C13.3667 8.48479 13.3813 8.54884 13.4112 8.60613C13.4451 8.67104 13.5066 8.72317 13.6295 8.82743L15.5064 10.4198C15.7913 10.6615 15.9338 10.7824 15.9606 10.9069C15.984 11.0154 15.9582 11.1286 15.8901 11.2161C15.8118 11.3167 15.631 11.3638 15.2695 11.4579L12.8875 12.0782C12.7315 12.1188 12.6536 12.1392 12.5948 12.1829C12.543 12.2215 12.502 12.2729 12.4759 12.332C12.4463 12.399 12.4439 12.4796 12.439 12.6407L12.3643 15.1009C12.3529 15.4744 12.3473 15.6611 12.2666 15.7598C12.1964 15.8457 12.0918 15.896 11.9809 15.8974C11.8535 15.8989 11.7039 15.7869 11.4049 15.5629L9.43479 14.0874C9.3058 13.9908 9.2413 13.9425 9.17047 13.9239C9.10796 13.9074 9.04225 13.9074 8.97974 13.9239C8.90892 13.9425 8.84442 13.9908 8.71542 14.0874L6.74534 15.5629C6.44627 15.7869 6.29674 15.8989 6.16935 15.8974C6.05842 15.896 5.95379 15.8457 5.88357 15.7598C5.80294 15.6611 5.79727 15.4744 5.78593 15.1009L5.71123 12.6407C5.70634 12.4796 5.7039 12.399 5.6743 12.332C5.64817 12.2729 5.60721 12.2215 5.55538 12.1829C5.49666 12.1392 5.41868 12.1188 5.26271 12.0782L2.88076 11.4579C2.51916 11.3638 2.33837 11.3167 2.26015 11.2161C2.19204 11.1286 2.1662 11.0154 2.18957 10.9069C2.21641 10.7824 2.35887 10.6615 2.6438 10.4198L4.52074 8.82743C4.64364 8.72317 4.70508 8.67104 4.739 8.60613C4.76894 8.54884 4.78356 8.48479 4.78144 8.42018C4.77905 8.34699 4.7463 8.27336 4.68081 8.1261L3.68065 5.87707C3.52882 5.53565 3.4529 5.36495 3.48276 5.2411C3.50875 5.13325 3.58116 5.04245 3.68052 4.99311C3.79462 4.93645 3.97794 4.97247 4.34458 5.04452L6.75978 5.51916C6.91792 5.55024 6.99699 5.56578 7.06888 5.55183C7.13234 5.53951 7.19153 5.511 7.24073 5.46907C7.29645 5.42156 7.33361 5.35005 7.40791 5.20703L8.54267 3.02283Z" stroke="#98A2B3" stroke-width="1.5" stroke-linecap="round" stroke-linejoin="round"/>
</svg>
