<svg width="19" height="19" viewBox="0 0 19 19" fill="none" xmlns="http://www.w3.org/2000/svg">
<g clip-path="url(#clip0_1_9559)">
<path d="M9.07959 1.99805L8.10347 5.90254C7.91299 6.66443 7.81776 7.04538 7.6194 7.35536C7.44395 7.62955 7.2111 7.86241 6.93691 8.03786C6.62692 8.23621 6.24598 8.33145 5.48408 8.52192L1.57959 9.49805L5.48408 10.4742C6.24598 10.6646 6.62692 10.7599 6.93691 10.9582C7.2111 11.1337 7.44395 11.3665 7.6194 11.6407C7.81776 11.9507 7.91299 12.3317 8.10347 13.0936L9.07959 16.998L10.0557 13.0936C10.2462 12.3317 10.3414 11.9507 10.5398 11.6407C10.7152 11.3665 10.9481 11.1337 11.2223 10.9582C11.5323 10.7599 11.9132 10.6646 12.6751 10.4742L16.5796 9.49805L12.6751 8.52192C11.9132 8.33145 11.5323 8.23621 11.2223 8.03786C10.9481 7.86241 10.7152 7.62955 10.5398 7.35536C10.3414 7.04538 10.2462 6.66443 10.0557 5.90254L9.07959 1.99805Z" stroke="#98A2B3" stroke-width="1.5" stroke-linecap="round" stroke-linejoin="round"/>
</g>
<defs>
<clipPath id="clip0_1_9559">
<rect width="18" height="18" fill="white" transform="translate(0.0795898 0.498047)"/>
</clipPath>
</defs>
</svg>
