<svg width="19" height="19" viewBox="0 0 19 19" fill="none" xmlns="http://www.w3.org/2000/svg">
<path d="M3.95605 16.998V13.248M3.95605 5.74805V1.99805M2.08105 3.87305H5.83105M2.08105 15.123H5.83105M10.3311 2.74805L9.03042 6.12969C8.81891 6.67962 8.71316 6.95458 8.5487 7.18586C8.40295 7.39085 8.22385 7.56994 8.01887 7.7157C7.78759 7.88015 7.51262 7.98591 6.9627 8.19741L3.58105 9.49805L6.9627 10.7987C7.51262 11.0102 7.78759 11.1159 8.01887 11.2804C8.22385 11.4262 8.40295 11.6052 8.5487 11.8102C8.71316 12.0415 8.81891 12.3165 9.03042 12.8664L10.3311 16.248L11.6317 12.8664C11.8432 12.3165 11.949 12.0415 12.1134 11.8102C12.2592 11.6052 12.4383 11.4262 12.6432 11.2804C12.8745 11.1159 13.1495 11.0102 13.6994 10.7987L17.0811 9.49805L13.6994 8.19741C13.1495 7.9859 12.8745 7.88015 12.6432 7.71569C12.4383 7.56994 12.2592 7.39085 12.1134 7.18586C11.949 6.95458 11.8432 6.67962 11.6317 6.12969L10.3311 2.74805Z" stroke="#98A2B3" stroke-width="1.5" stroke-linecap="round" stroke-linejoin="round"/>
</svg>
