<svg width="19" height="19" viewBox="0 0 19 19" fill="none" xmlns="http://www.w3.org/2000/svg">
<path d="M9.57715 1.99805L11.0861 5.92136C11.2976 6.47128 11.4034 6.74624 11.5678 6.97753C11.7136 7.18251 11.8927 7.36161 12.0977 7.50736C12.329 7.67182 12.6039 7.77757 13.1538 7.98908L17.0771 9.49805L13.1538 11.007C12.6039 11.2185 12.329 11.3243 12.0977 11.4887C11.8927 11.6345 11.7136 11.8136 11.5678 12.0186C11.4034 12.2499 11.2976 12.5248 11.0861 13.0747L9.57715 16.998L8.06818 13.0747C7.85667 12.5248 7.75092 12.2499 7.58646 12.0186C7.44071 11.8136 7.26161 11.6345 7.05663 11.4887C6.82535 11.3243 6.55039 11.2185 6.00046 11.007L2.07715 9.49805L6.00046 7.98908C6.55038 7.77757 6.82535 7.67182 7.05663 7.50736C7.26161 7.36161 7.44071 7.18251 7.58646 6.97753C7.75092 6.74624 7.85667 6.47128 8.06818 5.92136L9.57715 1.99805Z" stroke="#98A2B3" stroke-width="1.5" stroke-linecap="round" stroke-linejoin="round"/>
</svg>
