<svg width="19" height="19" viewBox="0 0 19 19" fill="none" xmlns="http://www.w3.org/2000/svg">
<path d="M14.4644 6.49805V2.74805M4.71436 16.248V12.498M12.5894 4.62305H16.3394M2.83936 14.373H6.58936M5.46436 1.99805L4.87601 3.17473C4.67689 3.57297 4.57734 3.77209 4.44433 3.94463C4.32631 4.09774 4.18905 4.235 4.03594 4.35302C3.86339 4.48603 3.66428 4.58559 3.26604 4.7847L2.08936 5.37305L3.26604 5.96139C3.66428 6.16051 3.86339 6.26007 4.03594 6.39307C4.18905 6.51109 4.32631 6.64835 4.44433 6.80146C4.57734 6.97401 4.67689 7.17313 4.87601 7.57136L5.46436 8.74805L6.0527 7.57136C6.25182 7.17313 6.35138 6.97401 6.48438 6.80146C6.6024 6.64835 6.73966 6.51109 6.89277 6.39307C7.06532 6.26007 7.26443 6.16051 7.66267 5.96139L8.83936 5.37305L7.66267 4.7847C7.26443 4.58559 7.06532 4.48603 6.89277 4.35302C6.73966 4.235 6.6024 4.09774 6.48438 3.94463C6.35138 3.77209 6.25182 3.57297 6.0527 3.17473L5.46436 1.99805ZM13.3394 9.49805L12.626 10.9247C12.4269 11.323 12.3273 11.5221 12.1943 11.6946C12.0763 11.8477 11.9391 11.985 11.7859 12.103C11.6134 12.236 11.4143 12.3356 11.016 12.5347L9.58936 13.248L11.016 13.9614C11.4143 14.1605 11.6134 14.2601 11.7859 14.3931C11.9391 14.5111 12.0763 14.6484 12.1943 14.8015C12.3273 14.974 12.4269 15.1731 12.626 15.5714L13.3394 16.998L14.0527 15.5714C14.2518 15.1731 14.3514 14.974 14.4844 14.8015C14.6024 14.6484 14.7397 14.5111 14.8928 14.3931C15.0653 14.2601 15.2644 14.1605 15.6627 13.9614L17.0894 13.248L15.6627 12.5347C15.2644 12.3356 15.0653 12.236 14.8928 12.103C14.7397 11.985 14.6024 11.8477 14.4844 11.6946C14.3514 11.5221 14.2518 11.323 14.0527 10.9247L13.3394 9.49805Z" stroke="#98A2B3" stroke-width="1.5" stroke-linecap="round" stroke-linejoin="round"/>
</svg>
