<svg width="19" height="19" viewBox="0 0 19 19" fill="none" xmlns="http://www.w3.org/2000/svg">
<path d="M5.45996 10.248L6.0483 11.4247C6.24742 11.823 6.34698 12.0221 6.47998 12.1946C6.59801 12.3477 6.73527 12.485 6.88838 12.603C7.06092 12.736 7.26004 12.8356 7.65827 13.0347L8.83496 13.623L7.65827 14.2114C7.26004 14.4105 7.06092 14.5101 6.88838 14.6431C6.73527 14.7611 6.59801 14.8984 6.47998 15.0515C6.34698 15.224 6.24742 15.4231 6.0483 15.8214L5.45996 16.998L4.87162 15.8214C4.6725 15.4231 4.57294 15.224 4.43994 15.0515C4.32192 14.8984 4.18466 14.7611 4.03155 14.6431C3.859 14.5101 3.65988 14.4105 3.26165 14.2114L2.08496 13.623L3.26165 13.0347C3.65988 12.8356 3.859 12.736 4.03155 12.603C4.18466 12.485 4.32192 12.3477 4.43994 12.1946C4.57294 12.0221 4.6725 11.823 4.87162 11.4247L5.45996 10.248Z" stroke="#98A2B3" stroke-width="1.5" stroke-linecap="round" stroke-linejoin="round"/>
<path d="M11.835 1.99805L12.7189 4.29636C12.9304 4.84628 13.0362 5.12124 13.2006 5.35253C13.3464 5.55751 13.5255 5.73661 13.7305 5.88236C13.9618 6.04682 14.2367 6.15257 14.7866 6.36408L17.085 7.24805L14.7866 8.13201C14.2367 8.34352 13.9618 8.44928 13.7305 8.61373C13.5255 8.75949 13.3464 8.93858 13.2006 9.14357C13.0362 9.37485 12.9304 9.64981 12.7189 10.1997L11.835 12.498L10.951 10.1997C10.7395 9.64981 10.6337 9.37485 10.4693 9.14357C10.3235 8.93858 10.1444 8.75949 9.93944 8.61373C9.70816 8.44928 9.4332 8.34352 8.88328 8.13201L6.58496 7.24805L8.88327 6.36408C9.4332 6.15257 9.70816 6.04682 9.93944 5.88236C10.1444 5.73661 10.3235 5.55751 10.4693 5.35253C10.6337 5.12124 10.7395 4.84628 10.951 4.29636L11.835 1.99805Z" stroke="#98A2B3" stroke-width="1.5" stroke-linecap="round" stroke-linejoin="round"/>
</svg>
