<svg width="19" height="19" viewBox="0 0 19 19" fill="none" xmlns="http://www.w3.org/2000/svg">
<path d="M8.53377 3.08797C8.70663 2.73777 8.79306 2.56267 8.9104 2.50672C9.01249 2.45805 9.13109 2.45805 9.23318 2.50672C9.35052 2.56267 9.43695 2.73777 9.60981 3.08797L11.2498 6.41045C11.3009 6.51384 11.3264 6.56553 11.3637 6.60567C11.3967 6.6412 11.4363 6.67 11.4803 6.69045C11.5299 6.71355 11.587 6.72189 11.7011 6.73857L15.3695 7.27477C15.7558 7.33123 15.949 7.35946 16.0384 7.45381C16.1161 7.53591 16.1527 7.64871 16.1379 7.76082C16.1209 7.88967 15.9811 8.02587 15.7014 8.29827L13.0479 10.8828C12.9651 10.9634 12.9238 11.0037 12.8971 11.0516C12.8735 11.094 12.8583 11.1406 12.8525 11.1889C12.8459 11.2433 12.8556 11.3002 12.8751 11.414L13.5012 15.0646C13.5673 15.4496 13.6003 15.6421 13.5383 15.7564C13.4843 15.8558 13.3883 15.9255 13.2771 15.9461C13.1492 15.9698 12.9764 15.8789 12.6306 15.697L9.35106 13.9724C9.24888 13.9186 9.19779 13.8918 9.14396 13.8812C9.0963 13.8719 9.04728 13.8719 8.99962 13.8812C8.9458 13.8918 8.8947 13.9186 8.79252 13.9724L5.51297 15.697C5.16721 15.8789 4.99434 15.9698 4.86651 15.9461C4.75529 15.9255 4.65932 15.8558 4.60533 15.7564C4.54328 15.6421 4.5763 15.4496 4.64233 15.0646L5.26844 11.414C5.28796 11.3002 5.29772 11.2433 5.29112 11.1889C5.28527 11.1406 5.27011 11.094 5.24648 11.0516C5.21979 11.0037 5.17843 10.9634 5.09572 10.8828L2.4422 8.29827C2.16252 8.02587 2.02269 7.88967 2.00567 7.76082C1.99087 7.64871 2.02744 7.53591 2.10522 7.45381C2.1946 7.35946 2.38776 7.33123 2.77406 7.27477L6.44251 6.73857C6.5566 6.72189 6.61364 6.71355 6.66332 6.69045C6.7073 6.67 6.7469 6.6412 6.77992 6.60567C6.81721 6.56553 6.84272 6.51384 6.89376 6.41045L8.53377 3.08797Z" stroke="#98A2B3" stroke-width="1.5" stroke-linecap="round" stroke-linejoin="round"/>
</svg>
