<svg width="19" height="19" viewBox="0 0 19 19" fill="none" xmlns="http://www.w3.org/2000/svg">
<path d="M9.05332 2.90324C9.22394 2.60635 9.30924 2.45791 9.42074 2.40815C9.51799 2.36476 9.6291 2.36476 9.72635 2.40815C9.83785 2.45791 9.92315 2.60635 10.0938 2.90325L11.5601 5.45499C11.6233 5.56489 11.6549 5.61984 11.6992 5.65978C11.7383 5.69511 11.7845 5.72178 11.8347 5.73804C11.8914 5.75642 11.9548 5.75629 12.0816 5.75604L15.0246 5.75008C15.3671 5.74939 15.5383 5.74904 15.6371 5.82073C15.7233 5.88325 15.7789 5.97948 15.7899 6.08539C15.8026 6.20683 15.7167 6.35493 15.5449 6.65113L14.0682 9.19692C14.0046 9.30657 13.9728 9.36139 13.9603 9.41971C13.9493 9.4713 13.9493 9.52464 13.9603 9.57624C13.9728 9.63455 14.0046 9.68937 14.0682 9.79902L15.5449 12.3448C15.7167 12.641 15.8026 12.7891 15.7899 12.9105C15.7789 13.0165 15.7233 13.1127 15.6371 13.1752C15.5383 13.2469 15.3671 13.2466 15.0246 13.2459L12.0816 13.2399C11.9548 13.2396 11.8914 13.2395 11.8347 13.2579C11.7845 13.2742 11.7383 13.3008 11.6992 13.3362C11.6549 13.3761 11.6233 13.4311 11.5601 13.541L10.0938 16.0927C9.92315 16.3896 9.83785 16.538 9.72635 16.5878C9.6291 16.6312 9.51799 16.6312 9.42074 16.5878C9.30924 16.538 9.22394 16.3896 9.05332 16.0927L7.58695 13.541C7.52379 13.4311 7.49221 13.3761 7.44793 13.3362C7.40876 13.3008 7.36257 13.2742 7.31238 13.2579C7.25565 13.2395 7.19227 13.2396 7.06551 13.2399L4.12245 13.2459C3.78003 13.2466 3.60882 13.2469 3.50998 13.1752C3.42378 13.1127 3.36823 13.0165 3.35718 12.9105C3.34452 12.7891 3.43042 12.641 3.60223 12.3448L5.07892 9.79902C5.14252 9.68937 5.17432 9.63455 5.18677 9.57624C5.19778 9.52464 5.19778 9.4713 5.18677 9.41971C5.17432 9.36139 5.14252 9.30657 5.07892 9.19692L3.60223 6.65113C3.43042 6.35493 3.34452 6.20683 3.35718 6.08539C3.36823 5.97948 3.42378 5.88325 3.50998 5.82073C3.60882 5.74904 3.78003 5.74939 4.12245 5.75008L7.06552 5.75604C7.19227 5.75629 7.25565 5.75642 7.31238 5.73804C7.36257 5.72178 7.40876 5.69511 7.44793 5.65978C7.49221 5.61984 7.52379 5.56489 7.58695 5.45499L9.05332 2.90324Z" stroke="#98A2B3" stroke-width="1.5" stroke-linecap="round" stroke-linejoin="round"/>
</svg>
