<svg width="19" height="19" viewBox="0 0 19 19" fill="none" xmlns="http://www.w3.org/2000/svg">
<path d="M10.3433 3.12305V5.14805C10.3433 6.40817 10.3433 7.03822 10.5885 7.51953C10.8042 7.94289 11.1484 8.2871 11.5718 8.50281C12.0531 8.74805 12.6831 8.74805 13.9433 8.74805H15.9683M16.3433 10.2392V12.648C16.3433 13.9082 16.3433 14.5382 16.098 15.0195C15.8823 15.4429 15.5381 15.7871 15.1147 16.0028C14.6334 16.248 14.0034 16.248 12.7433 16.248H6.44326C5.18314 16.248 4.55308 16.248 4.07178 16.0028C3.64842 15.7871 3.30421 15.4429 3.0885 15.0195C2.84326 14.5382 2.84326 13.9082 2.84326 12.648V6.34805C2.84326 5.08793 2.84326 4.45787 3.0885 3.97657C3.30421 3.5532 3.64842 3.209 4.07178 2.99328C4.55308 2.74805 5.18314 2.74805 6.44326 2.74805H8.85209C9.40242 2.74805 9.67759 2.74805 9.93653 2.81021C10.1661 2.86533 10.3856 2.95624 10.5869 3.07961C10.814 3.21875 11.0085 3.41332 11.3977 3.80246L15.2888 7.69363C15.678 8.08277 15.8726 8.27734 16.0117 8.50441C16.1351 8.70572 16.226 8.9252 16.2811 9.15478C16.3433 9.41372 16.3433 9.68889 16.3433 10.2392Z" stroke="#98A2B3" stroke-width="1.5" stroke-linecap="round" stroke-linejoin="round"/>
</svg>
