<svg width="19" height="19" viewBox="0 0 19 19" fill="none" xmlns="http://www.w3.org/2000/svg">
<g clip-path="url(#clip0_1_10403)">
<path d="M16.5918 9.5859C16.5918 5.39524 13.1946 1.99805 9.00392 1.99805C5.60266 1.99805 2.72408 4.23593 1.76029 7.3196C1.69856 7.51713 1.66769 7.6159 1.6706 7.7394C1.67297 7.83983 1.70349 7.96389 1.74799 8.05395C1.80271 8.16471 1.88721 8.2492 2.0562 8.41818L10.172 16.5336C10.3409 16.7025 10.4254 16.787 10.5362 16.8418C10.6263 16.8863 10.7503 16.9168 10.8508 16.9191C10.9743 16.922 11.073 16.8912 11.2706 16.8294C14.354 15.8655 16.5918 12.987 16.5918 9.5859Z" stroke="#98A2B3" stroke-width="1.5" stroke-linecap="round" stroke-linejoin="round"/>
<path d="M2.67641 7.79862C2.85678 7.78579 3.03891 7.77927 3.22255 7.77927C7.4132 7.77927 10.8104 11.1765 10.8104 15.3671C10.8104 15.5508 10.8039 15.7329 10.791 15.9133C10.7686 16.2284 10.7574 16.386 10.6656 16.4833C10.591 16.5623 10.4636 16.6099 10.3555 16.599C10.2223 16.5857 10.1012 16.4646 9.85903 16.2224L2.36729 8.73064C2.12509 8.48844 2.00399 8.36734 1.99065 8.23418C1.97982 8.12603 2.02733 7.99871 2.10637 7.9241C2.20369 7.83224 2.36126 7.82103 2.67641 7.79862Z" stroke="#98A2B3" stroke-width="1.5" stroke-linecap="round" stroke-linejoin="round"/>
</g>
<defs>
<clipPath id="clip0_1_10403">
<rect width="18" height="18" fill="white" transform="translate(0.0913086 0.498047)"/>
</clipPath>
</defs>
</svg>
