<svg width="19" height="19" viewBox="0 0 19 19" fill="none" xmlns="http://www.w3.org/2000/svg">
<path d="M2.85156 6.34805C2.85156 5.08793 2.85156 4.45787 3.0968 3.97657C3.31251 3.5532 3.65672 3.209 4.08008 2.99328C4.56139 2.74805 5.19144 2.74805 6.45156 2.74805H12.7516C14.0117 2.74805 14.6417 2.74805 15.123 2.99328C15.5464 3.209 15.8906 3.5532 16.1063 3.97657C16.3516 4.45787 16.3516 5.08793 16.3516 6.34805V12.648C16.3516 13.9082 16.3516 14.5382 16.1063 15.0195C15.8906 15.4429 15.5464 15.7871 15.123 16.0028C14.6417 16.248 14.0117 16.248 12.7516 16.248H6.45156C5.19144 16.248 4.56139 16.248 4.08008 16.0028C3.65672 15.7871 3.31251 15.4429 3.0968 15.0195C2.85156 14.5382 2.85156 13.9082 2.85156 12.648V6.34805Z" stroke="#98A2B3" stroke-width="1.5" stroke-linecap="round" stroke-linejoin="round"/>
<path d="M6.60156 7.69805C6.60156 7.27801 6.60156 7.06799 6.68331 6.90755C6.75521 6.76643 6.86995 6.6517 7.01107 6.57979C7.1715 6.49805 7.38152 6.49805 7.80156 6.49805H11.4016C11.8216 6.49805 12.0316 6.49805 12.1921 6.57979C12.3332 6.6517 12.4479 6.76643 12.5198 6.90755C12.6016 7.06799 12.6016 7.27801 12.6016 7.69805V11.298C12.6016 11.7181 12.6016 11.9281 12.5198 12.0885C12.4479 12.2297 12.3332 12.3444 12.1921 12.4163C12.0316 12.498 11.8216 12.498 11.4016 12.498H7.80156C7.38152 12.498 7.1715 12.498 7.01107 12.4163C6.86995 12.3444 6.75521 12.2297 6.68331 12.0885C6.60156 11.9281 6.60156 11.7181 6.60156 11.298V7.69805Z" stroke="#98A2B3" stroke-width="1.5" stroke-linecap="round" stroke-linejoin="round"/>
</svg>
