<svg width="19" height="19" viewBox="0 0 19 19" fill="none" xmlns="http://www.w3.org/2000/svg">
<path d="M2.34473 6.34805C2.34473 5.08793 2.34473 4.45787 2.58996 3.97657C2.80568 3.5532 3.14988 3.209 3.57325 2.99328C4.05455 2.74805 4.68461 2.74805 5.94473 2.74805H12.2447C13.5048 2.74805 14.1349 2.74805 14.6162 2.99328C15.0396 3.209 15.3838 3.5532 15.5995 3.97657C15.8447 4.45787 15.8447 5.08793 15.8447 6.34805V12.648C15.8447 13.9082 15.8447 14.5382 15.5995 15.0195C15.3838 15.4429 15.0396 15.7871 14.6162 16.0028C14.1349 16.248 13.5048 16.248 12.2447 16.248H5.94473C4.68461 16.248 4.05455 16.248 3.57325 16.0028C3.14988 15.7871 2.80568 15.4429 2.58996 15.0195C2.34473 14.5382 2.34473 13.9082 2.34473 12.648V6.34805Z" stroke="#98A2B3" stroke-width="1.5" stroke-linecap="round" stroke-linejoin="round"/>
</svg>
