<svg width="19" height="19" viewBox="0 0 19 19" fill="none" xmlns="http://www.w3.org/2000/svg">
<g clip-path="url(#clip0_1_9823)">
<path d="M9.09912 16.998C13.2413 16.998 16.5991 13.6402 16.5991 9.49805C16.5991 5.35591 13.2413 1.99805 9.09912 1.99805C4.95699 1.99805 1.59912 5.35591 1.59912 9.49805C1.59912 13.6402 4.95699 16.998 9.09912 16.998Z" stroke="#98A2B3" stroke-width="1.5" stroke-linecap="round" stroke-linejoin="round"/>
<path d="M6.09912 7.69805C6.09912 7.27801 6.09912 7.06799 6.18087 6.90755C6.25277 6.76643 6.36751 6.6517 6.50863 6.57979C6.66906 6.49805 6.87908 6.49805 7.29912 6.49805H10.8991C11.3192 6.49805 11.5292 6.49805 11.6896 6.57979C11.8307 6.6517 11.9455 6.76643 12.0174 6.90755C12.0991 7.06799 12.0991 7.27801 12.0991 7.69805V11.298C12.0991 11.7181 12.0991 11.9281 12.0174 12.0885C11.9455 12.2297 11.8307 12.3444 11.6896 12.4163C11.5292 12.498 11.3192 12.498 10.8991 12.498H7.29912C6.87908 12.498 6.66906 12.498 6.50863 12.4163C6.36751 12.3444 6.25277 12.2297 6.18087 12.0885C6.09912 11.9281 6.09912 11.7181 6.09912 11.298V7.69805Z" stroke="#98A2B3" stroke-width="1.5" stroke-linecap="round" stroke-linejoin="round"/>
</g>
<defs>
<clipPath id="clip0_1_9823">
<rect width="18" height="18" fill="white" transform="translate(0.0996094 0.498047)"/>
</clipPath>
</defs>
</svg>
