<svg width="19" height="19" viewBox="0 0 19 19" fill="none" xmlns="http://www.w3.org/2000/svg">
<path d="M5.10449 12.498C5.10449 14.1549 6.44764 15.498 8.10449 15.498H11.1045C12.7613 15.498 14.1045 14.1549 14.1045 12.498C14.1045 10.8412 12.7613 9.49805 11.1045 9.49805M8.47949 15.498C10.1363 15.498 11.4795 14.1549 11.4795 12.498C11.4795 10.8412 10.1363 9.49805 8.47949 9.49805M14.1045 6.49805C14.1045 4.84119 12.7613 3.49805 11.1045 3.49805H8.10449C6.44764 3.49805 5.10449 4.84119 5.10449 6.49805M10.7295 3.49805C9.07264 3.49805 7.72949 4.84119 7.72949 6.49805M2.85449 9.49805H16.3545" stroke="#98A2B3" stroke-width="1.5" stroke-linecap="round" stroke-linejoin="round"/>
</svg>
