<svg width="19" height="19" viewBox="0 0 19 19" fill="none" xmlns="http://www.w3.org/2000/svg">
<path d="M4.60693 9.49805H13.6069M8.35693 9.49805H9.85693C10.8925 9.49805 11.7319 10.3375 11.7319 11.373C11.7319 12.4086 10.8925 13.248 9.85693 13.248H8.23193C7.48564 13.248 6.84845 12.7809 6.59684 12.123M11.617 6.87305C11.3654 6.2152 10.7282 5.74805 9.98193 5.74805H8.35693C7.58806 5.74805 6.92728 6.21083 6.63795 6.87305M5.95693 16.248H12.2569C13.5171 16.248 14.1471 16.248 14.6284 16.0028C15.0518 15.7871 15.396 15.4429 15.6117 15.0195C15.8569 14.5382 15.8569 13.9082 15.8569 12.648V6.34805C15.8569 5.08793 15.8569 4.45787 15.6117 3.97657C15.396 3.5532 15.0518 3.209 14.6284 2.99328C14.1471 2.74805 13.5171 2.74805 12.2569 2.74805H5.95693C4.69682 2.74805 4.06676 2.74805 3.58546 2.99328C3.16209 3.209 2.81788 3.5532 2.60217 3.97657C2.35693 4.45787 2.35693 5.08793 2.35693 6.34805V12.648C2.35693 13.9082 2.35693 14.5382 2.60217 15.0195C2.81788 15.4429 3.16209 15.7871 3.58546 16.0028C4.06676 16.248 4.69682 16.248 5.95693 16.248Z" stroke="#98A2B3" stroke-width="1.5" stroke-linecap="round" stroke-linejoin="round"/>
</svg>
