<svg width="19" height="19" viewBox="0 0 19 19" fill="none" xmlns="http://www.w3.org/2000/svg">
<g clip-path="url(#clip0_1_10693)">
<path d="M9.61279 1.24805V2.74805M9.61279 16.248V17.748M3.77779 3.66305L4.84279 4.72805M14.3828 14.268L15.4478 15.333M1.36279 9.49805H2.86279M16.3628 9.49805H17.8628M3.77779 15.333L4.84279 14.268M14.3828 4.72805L15.4478 3.66305M13.3628 9.49805C13.3628 11.5691 11.6839 13.248 9.61279 13.248C7.54173 13.248 5.86279 11.5691 5.86279 9.49805C5.86279 7.42698 7.54173 5.74805 9.61279 5.74805C11.6839 5.74805 13.3628 7.42698 13.3628 9.49805Z" stroke="#98A2B3" stroke-width="1.5" stroke-linecap="round" stroke-linejoin="round"/>
</g>
<defs>
<clipPath id="clip0_1_10693">
<rect width="18" height="18" fill="white" transform="translate(0.612793 0.498047)"/>
</clipPath>
</defs>
</svg>
