<svg width="19" height="19" viewBox="0 0 19 19" fill="none" xmlns="http://www.w3.org/2000/svg">
<g clip-path="url(#clip0_1_10567)">
<path d="M4.6637 16.1824C5.5712 16.5949 6.7262 16.5949 7.6337 16.1824C8.5412 15.7699 9.6962 15.7699 10.6037 16.1824C11.5112 16.5949 12.6662 16.5949 13.5737 16.1824M9.11865 2.74805V4.24805M3.11865 10.248H1.61865M4.85424 5.98363L3.79358 4.92297M13.3828 5.98363L14.4435 4.92297M16.6187 10.248H15.1187M5.36865 10.248C5.36865 8.17698 7.04758 6.49805 9.11865 6.49805C11.1897 6.49805 12.8687 8.17698 12.8687 10.248M1.69373 13.5574C2.60123 13.1449 3.75623 13.1449 4.66373 13.5574C5.57123 13.9699 6.72623 13.9699 7.63373 13.5574C8.54123 13.1449 9.69623 13.1449 10.6037 13.5574C11.5112 13.9699 12.6662 13.9699 13.5737 13.5574C14.4812 13.1449 15.6362 13.1449 16.5437 13.5574" stroke="#98A2B3" stroke-width="1.5" stroke-linecap="round" stroke-linejoin="round"/>
</g>
<defs>
<clipPath id="clip0_1_10567">
<rect width="18" height="18" fill="white" transform="translate(0.118652 0.498047)"/>
</clipPath>
</defs>
</svg>
