<svg width="19" height="19" viewBox="0 0 19 19" fill="none" xmlns="http://www.w3.org/2000/svg">
<g clip-path="url(#clip0_1_10561)">
<path d="M9.11084 1.99805V3.49805M9.11084 15.498V16.998M3.11084 9.49805H1.61084M4.84643 5.23363L3.78577 4.17297M13.3753 5.23363L14.4359 4.17297M4.84643 13.7655L3.78577 14.8262M13.3753 13.7655L14.4359 14.8262M16.6108 9.49805H15.1108M12.8608 9.49805C12.8608 11.5691 11.1819 13.248 9.11084 13.248C7.03977 13.248 5.36084 11.5691 5.36084 9.49805C5.36084 7.42698 7.03977 5.74805 9.11084 5.74805C11.1819 5.74805 12.8608 7.42698 12.8608 9.49805Z" stroke="#98A2B3" stroke-width="1.5" stroke-linecap="round" stroke-linejoin="round"/>
</g>
<defs>
<clipPath id="clip0_1_10561">
<rect width="18" height="18" fill="white" transform="translate(0.111328 0.498047)"/>
</clipPath>
</defs>
</svg>
