<svg width="19" height="19" viewBox="0 0 19 19" fill="none" xmlns="http://www.w3.org/2000/svg">
<g clip-path="url(#clip0_1_10749)">
<path d="M13.3711 13.998C13.3711 13.0035 12.976 12.0497 12.2727 11.3464C11.5695 10.6431 10.6157 10.248 9.62109 10.248C8.62653 10.248 7.67271 10.6431 6.96944 11.3464C6.26618 12.0497 5.87109 13.0035 5.87109 13.998M9.62109 1.99805V7.24805M9.62109 1.99805L6.62109 4.99805M9.62109 1.99805L12.6211 4.99805M3.78609 8.16305L4.85109 9.22805M1.37109 13.998H2.87109M16.3711 13.998H17.8711M14.3911 9.22805L15.4561 8.16305M17.8711 16.998H1.37109" stroke="#98A2B3" stroke-width="1.5" stroke-linecap="round" stroke-linejoin="round"/>
</g>
<defs>
<clipPath id="clip0_1_10749">
<rect width="18" height="18" fill="white" transform="translate(0.621094 0.498047)"/>
</clipPath>
</defs>
</svg>
