<svg width="19" height="19" viewBox="0 0 19 19" fill="none" xmlns="http://www.w3.org/2000/svg">
<g clip-path="url(#clip0_1_10805)">
<path d="M13.3745 13.998C13.3745 13.0035 12.9794 12.0497 12.2762 11.3464C11.5729 10.6431 10.6191 10.248 9.62451 10.248C8.62995 10.248 7.67612 10.6431 6.97286 11.3464C6.2696 12.0497 5.87451 13.0035 5.87451 13.998M9.62451 7.24805V1.99805M9.62451 7.24805L12.6245 4.24805M9.62451 7.24805L6.62451 4.24805M3.78951 8.16305L4.85451 9.22805M1.37451 13.998H2.87451M16.3745 13.998H17.8745M14.3945 9.22805L15.4595 8.16305M17.8745 16.998H1.37451" stroke="#98A2B3" stroke-width="1.5" stroke-linecap="round" stroke-linejoin="round"/>
</g>
<defs>
<clipPath id="clip0_1_10805">
<rect width="18" height="18" fill="white" transform="translate(0.624023 0.498047)"/>
</clipPath>
</defs>
</svg>
