<svg width="19" height="19" viewBox="0 0 19 19" fill="none" xmlns="http://www.w3.org/2000/svg">
<path d="M2.88623 7.24805L16.3862 7.24805M7.38623 2.74805L7.38623 16.248M6.48623 2.74805H12.7862C14.0464 2.74805 14.6764 2.74805 15.1577 2.99328C15.5811 3.209 15.9253 3.5532 16.141 3.97657C16.3862 4.45787 16.3862 5.08793 16.3862 6.34805V12.648C16.3862 13.9082 16.3862 14.5382 16.141 15.0195C15.9253 15.4429 15.5811 15.7871 15.1577 16.0028C14.6764 16.248 14.0464 16.248 12.7862 16.248H6.48623C5.22611 16.248 4.59605 16.248 4.11475 16.0028C3.69139 15.7871 3.34718 15.4429 3.13147 15.0195C2.88623 14.5382 2.88623 13.9082 2.88623 12.648V6.34805C2.88623 5.08793 2.88623 4.45787 3.13147 3.97657C3.34718 3.5532 3.69139 3.209 4.11475 2.99328C4.59605 2.74805 5.22611 2.74805 6.48623 2.74805Z" stroke="#98A2B3" stroke-width="1.5" stroke-linecap="round" stroke-linejoin="round"/>
</svg>
