<svg width="19" height="19" viewBox="0 0 19 19" fill="none" xmlns="http://www.w3.org/2000/svg">
<path d="M11.3926 1.99805V3.04805C11.3926 3.46809 11.3926 3.67811 11.3108 3.83854C11.2389 3.97966 11.1242 4.0944 10.9831 4.1663C10.8226 4.24805 10.6126 4.24805 10.1926 4.24805H8.09258C7.67254 4.24805 7.46252 4.24805 7.30209 4.1663C7.16096 4.0944 7.04623 3.97966 6.97432 3.83854C6.89258 3.67811 6.89258 3.46809 6.89258 3.04805V1.99805M5.54258 16.998H12.7426C13.5827 16.998 14.0027 16.998 14.3236 16.8346C14.6058 16.6907 14.8353 16.4613 14.9791 16.179C15.1426 15.8582 15.1426 15.4381 15.1426 14.598V4.39805C15.1426 3.55797 15.1426 3.13793 14.9791 2.81706C14.8353 2.53482 14.6058 2.30535 14.3236 2.16154C14.0027 1.99805 13.5827 1.99805 12.7426 1.99805H5.54258C4.7025 1.99805 4.28246 1.99805 3.96159 2.16154C3.67935 2.30535 3.44988 2.53482 3.30607 2.81706C3.14258 3.13793 3.14258 3.55797 3.14258 4.39805V14.598C3.14258 15.4381 3.14258 15.8582 3.30607 16.179C3.44988 16.4613 3.67935 16.6907 3.96159 16.8346C4.28246 16.998 4.7025 16.998 5.54258 16.998Z" stroke="#98A2B3" stroke-width="1.5" stroke-linecap="round" stroke-linejoin="round"/>
</svg>
