<svg width="19" height="19" viewBox="0 0 19 19" fill="none" xmlns="http://www.w3.org/2000/svg">
<path d="M9.64014 13.623H9.64764M6.04014 16.998H13.2401C14.0802 16.998 14.5003 16.998 14.8211 16.8346C15.1034 16.6907 15.3328 16.4613 15.4766 16.179C15.6401 15.8582 15.6401 15.4381 15.6401 14.598V4.39805C15.6401 3.55797 15.6401 3.13793 15.4766 2.81706C15.3328 2.53482 15.1034 2.30535 14.8211 2.16154C14.5003 1.99805 14.0802 1.99805 13.2401 1.99805H6.04014C5.20006 1.99805 4.78002 1.99805 4.45915 2.16154C4.17691 2.30535 3.94744 2.53482 3.80363 2.81706C3.64014 3.13793 3.64014 3.55797 3.64014 4.39805V14.598C3.64014 15.4381 3.64014 15.8582 3.80363 16.179C3.94744 16.4613 4.17691 16.6907 4.45915 16.8346C4.78002 16.998 5.20006 16.998 6.04014 16.998ZM10.0151 13.623C10.0151 13.8302 9.84724 13.998 9.64014 13.998C9.43303 13.998 9.26514 13.8302 9.26514 13.623C9.26514 13.4159 9.43303 13.248 9.64014 13.248C9.84724 13.248 10.0151 13.4159 10.0151 13.623Z" stroke="#98A2B3" stroke-width="1.5" stroke-linecap="round" stroke-linejoin="round"/>
</svg>
