<svg width="19" height="19" viewBox="0 0 19 19" fill="none" xmlns="http://www.w3.org/2000/svg">
<g clip-path="url(#clip0_1_9071)">
<path d="M6.14649 6.49805H6.15399M1.64648 4.39805L1.64648 7.75393C1.64648 8.12082 1.64648 8.30426 1.68793 8.47689C1.72467 8.62995 1.78528 8.77627 1.86752 8.91047C1.96029 9.06185 2.09 9.19156 2.34943 9.45099L8.1009 15.2025C8.99194 16.0935 9.43746 16.539 9.9512 16.7059C10.4031 16.8528 10.8899 16.8528 11.3418 16.7059C11.8555 16.539 12.301 16.0935 13.1921 15.2025L14.8509 13.5436C15.7419 12.6526 16.1875 12.2071 16.3544 11.6933C16.5012 11.2414 16.5012 10.7547 16.3544 10.3028C16.1875 9.78902 15.7419 9.3435 14.8509 8.45246L9.09943 2.70099C8.84 2.44156 8.71029 2.31185 8.55891 2.21909C8.4247 2.13684 8.27839 2.07624 8.12533 2.03949C7.9527 1.99805 7.76926 1.99805 7.40237 1.99805L4.04648 1.99805C3.20641 1.99805 2.78637 1.99805 2.4655 2.16154C2.18326 2.30535 1.95379 2.53482 1.80998 2.81706C1.64648 3.13793 1.64648 3.55797 1.64648 4.39805ZM6.52149 6.49805C6.52149 6.70515 6.35359 6.87305 6.14649 6.87305C5.93938 6.87305 5.77149 6.70515 5.77149 6.49805C5.77149 6.29094 5.93938 6.12305 6.14649 6.12305C6.35359 6.12305 6.52149 6.29094 6.52149 6.49805Z" stroke="#98A2B3" stroke-width="1.5" stroke-linecap="round" stroke-linejoin="round"/>
</g>
<defs>
<clipPath id="clip0_1_9071">
<rect width="18" height="18" fill="white" transform="translate(0.146484 0.498047)"/>
</clipPath>
</defs>
</svg>
