<svg width="19" height="19" viewBox="0 0 19 19" fill="none" xmlns="http://www.w3.org/2000/svg">
<path d="M6.64844 6.49805H6.65594M4.07049 2.70099L2.85138 3.9201C2.59195 4.17953 2.46224 4.30924 2.36948 4.46062C2.28723 4.59483 2.22663 4.74114 2.18988 4.8942C2.14844 5.06683 2.14844 5.25027 2.14844 5.61716L2.14844 7.75393C2.14844 8.12082 2.14844 8.30426 2.18988 8.4769C2.22663 8.62995 2.28723 8.77627 2.36948 8.91047C2.46224 9.06185 2.59195 9.19156 2.85138 9.45099L8.60285 15.2025C9.49389 16.0935 9.93941 16.539 10.4531 16.7059C10.905 16.8528 11.3918 16.8528 11.8437 16.7059C12.3575 16.539 12.803 16.0935 13.694 15.2025L15.3528 13.5436C16.2439 12.6526 16.6894 12.2071 16.8563 11.6933C17.0032 11.2414 17.0032 10.7547 16.8563 10.3028C16.6894 9.78902 16.2439 9.3435 15.3528 8.45246L9.60138 2.70099C9.34195 2.44156 9.21224 2.31185 9.06086 2.21909C8.92666 2.13684 8.78034 2.07624 8.62728 2.03949C8.45465 1.99805 8.27121 1.99805 7.90432 1.99805L5.76755 1.99805C5.40066 1.99805 5.21722 1.99805 5.04459 2.03949C4.89154 2.07624 4.74522 2.13684 4.61101 2.21909C4.45964 2.31185 4.32992 2.44156 4.07049 2.70099ZM7.02344 6.49805C7.02344 6.70515 6.85555 6.87305 6.64844 6.87305C6.44133 6.87305 6.27344 6.70515 6.27344 6.49805C6.27344 6.29094 6.44133 6.12305 6.64844 6.12305C6.85555 6.12305 7.02344 6.29094 7.02344 6.49805Z" stroke="#98A2B3" stroke-width="1.5" stroke-linecap="round" stroke-linejoin="round"/>
</svg>
