<svg width="19" height="19" viewBox="0 0 19 19" fill="none" xmlns="http://www.w3.org/2000/svg">
<path d="M15.9004 8.74805L10.2048 3.05246C9.81566 2.66332 9.62109 2.46875 9.39403 2.32961C9.19272 2.20624 8.97324 2.11533 8.74366 2.06021C8.48472 1.99805 8.20955 1.99805 7.65922 1.99805L4.65039 1.99805M2.40039 7.02305L2.40039 8.50393C2.40039 8.87082 2.40039 9.05426 2.44184 9.22689C2.47858 9.37995 2.53919 9.52627 2.62143 9.66047C2.71419 9.81185 2.84391 9.94156 3.10334 10.201L8.95334 16.051C9.54736 16.645 9.84437 16.942 10.1869 17.0533C10.4881 17.1512 10.8127 17.1512 11.1139 17.0533C11.4564 16.942 11.7534 16.645 12.3474 16.051L14.2033 14.1951C14.7974 13.6011 15.0944 13.3041 15.2057 12.9616C15.3035 12.6603 15.3035 12.3358 15.2057 12.0345C15.0944 11.692 14.7974 11.395 14.2033 10.801L8.72834 5.32599C8.46891 5.06656 8.33919 4.93685 8.18782 4.84409C8.05361 4.76184 7.90729 4.70124 7.75424 4.66449C7.58161 4.62305 7.39817 4.62305 7.03128 4.62305H4.80039C3.96031 4.62305 3.54027 4.62305 3.21941 4.78654C2.93716 4.93035 2.70769 5.15982 2.56388 5.44206C2.40039 5.76293 2.40039 6.18297 2.40039 7.02305Z" stroke="#98A2B3" stroke-width="1.5" stroke-linecap="round" stroke-linejoin="round"/>
</svg>
