<svg width="19" height="19" viewBox="0 0 19 19" fill="none" xmlns="http://www.w3.org/2000/svg">
<path d="M9.65283 16.998C13.795 16.998 17.1528 13.6402 17.1528 9.49805C17.1528 5.35591 13.795 1.99805 9.65283 1.99805C5.5107 1.99805 2.15283 5.35591 2.15283 9.49805C2.15283 13.6402 5.5107 16.998 9.65283 16.998Z" stroke="#98A2B3" stroke-width="1.5" stroke-linecap="round" stroke-linejoin="round"/>
<path d="M9.65283 13.998C12.1381 13.998 14.1528 11.9833 14.1528 9.49805C14.1528 7.01277 12.1381 4.99805 9.65283 4.99805C7.16755 4.99805 5.15283 7.01277 5.15283 9.49805C5.15283 11.9833 7.16755 13.998 9.65283 13.998Z" stroke="#98A2B3" stroke-width="1.5" stroke-linecap="round" stroke-linejoin="round"/>
<path d="M9.65283 10.998C10.4813 10.998 11.1528 10.3265 11.1528 9.49805C11.1528 8.66962 10.4813 7.99805 9.65283 7.99805C8.82441 7.99805 8.15283 8.66962 8.15283 9.49805C8.15283 10.3265 8.82441 10.998 9.65283 10.998Z" stroke="#98A2B3" stroke-width="1.5" stroke-linecap="round" stroke-linejoin="round"/>
</svg>
