<svg width="19" height="19" viewBox="0 0 19 19" fill="none" xmlns="http://www.w3.org/2000/svg">
<g clip-path="url(#clip0_1_9209)">
<path d="M16.6582 9.49805H13.6582M4.6582 9.49805H1.6582M9.1582 4.99805V1.99805M9.1582 16.998V13.998M15.1582 9.49805C15.1582 12.8118 12.4719 15.498 9.1582 15.498C5.8445 15.498 3.1582 12.8118 3.1582 9.49805C3.1582 6.18434 5.8445 3.49805 9.1582 3.49805C12.4719 3.49805 15.1582 6.18434 15.1582 9.49805ZM11.4082 9.49805C11.4082 10.7407 10.4008 11.748 9.1582 11.748C7.91556 11.748 6.9082 10.7407 6.9082 9.49805C6.9082 8.25541 7.91556 7.24805 9.1582 7.24805C10.4008 7.24805 11.4082 8.25541 11.4082 9.49805Z" stroke="#98A2B3" stroke-width="1.5" stroke-linecap="round" stroke-linejoin="round"/>
</g>
<defs>
<clipPath id="clip0_1_9209">
<rect width="18" height="18" fill="white" transform="translate(0.158203 0.498047)"/>
</clipPath>
</defs>
</svg>
