<svg width="19" height="19" viewBox="0 0 19 19" fill="none" xmlns="http://www.w3.org/2000/svg">
<g clip-path="url(#clip0_1_9213)">
<path d="M9.16211 16.998C13.3042 16.998 16.6621 13.6402 16.6621 9.49805C16.6621 5.35591 13.3042 1.99805 9.16211 1.99805C5.01997 1.99805 1.66211 5.35591 1.66211 9.49805C1.66211 13.6402 5.01997 16.998 9.16211 16.998Z" stroke="#98A2B3" stroke-width="1.5" stroke-linecap="round" stroke-linejoin="round"/>
<path d="M9.16211 13.998C11.6474 13.998 13.6621 11.9833 13.6621 9.49805C13.6621 7.01277 11.6474 4.99805 9.16211 4.99805C6.67683 4.99805 4.66211 7.01277 4.66211 9.49805C4.66211 11.9833 6.67683 13.998 9.16211 13.998Z" stroke="#98A2B3" stroke-width="1.5" stroke-linecap="round" stroke-linejoin="round"/>
<path d="M9.16211 10.998C9.99054 10.998 10.6621 10.3265 10.6621 9.49805C10.6621 8.66962 9.99054 7.99805 9.16211 7.99805C8.33368 7.99805 7.66211 8.66962 7.66211 9.49805C7.66211 10.3265 8.33368 10.998 9.16211 10.998Z" stroke="#98A2B3" stroke-width="1.5" stroke-linecap="round" stroke-linejoin="round"/>
</g>
<defs>
<clipPath id="clip0_1_9213">
<rect width="18" height="18" fill="white" transform="translate(0.162109 0.498047)"/>
</clipPath>
</defs>
</svg>
