<svg width="19" height="19" viewBox="0 0 19 19" fill="none" xmlns="http://www.w3.org/2000/svg">
<g clip-path="url(#clip0_1_8630)">
<path d="M10.5054 11.6315L14.1644 16.998M8.82334 11.6315L5.16437 16.998M11.1644 10.398C11.1644 11.2265 10.4928 11.898 9.66437 11.898C8.83594 11.898 8.16437 11.2265 8.16437 10.398C8.16437 9.5696 8.83594 8.89803 9.66437 8.89803C10.4928 8.89803 11.1644 9.5696 11.1644 10.398ZM13.5257 3.89723L4.68753 6.26543C4.48466 6.31978 4.38323 6.34696 4.31633 6.4072C4.25748 6.46019 4.21691 6.53045 4.20045 6.60792C4.18173 6.69598 4.20891 6.79741 4.26326 7.00027L4.92325 9.46338C4.97761 9.66625 5.00479 9.76768 5.06503 9.83458C5.11802 9.89344 5.18828 9.934 5.26574 9.95047C5.3538 9.96918 5.45524 9.94201 5.6581 9.88765L14.4963 7.51945L13.5257 3.89723ZM17.0087 7.62273C16.1972 7.84016 15.7915 7.94888 15.4392 7.874C15.1294 7.80814 14.8483 7.64588 14.6364 7.41048C14.3954 7.14286 14.2867 6.73713 14.0693 5.92568L13.9528 5.49101C13.7354 4.67956 13.6267 4.27383 13.7015 3.92158C13.7674 3.61173 13.9297 3.33069 14.1651 3.11873C14.4327 2.87777 14.8384 2.76905 15.6499 2.55162C15.8527 2.49727 15.9542 2.47009 16.0422 2.48881C16.1197 2.50527 16.1899 2.54584 16.2429 2.60469C16.3032 2.67159 16.3303 2.77302 16.3847 2.97589L17.4329 6.88789C17.4873 7.09075 17.5145 7.19218 17.4957 7.28024C17.4793 7.35771 17.4387 7.42797 17.3799 7.48096C17.313 7.5412 17.2115 7.56838 17.0087 7.62273ZM3.29065 9.74555L4.30487 9.47379C4.50774 9.41943 4.60917 9.39225 4.67607 9.33201C4.73492 9.27902 4.77549 9.20876 4.79195 9.1313C4.81067 9.04324 4.78349 8.9418 4.72914 8.73894L4.45738 7.72472C4.40302 7.52185 4.37584 7.42042 4.3156 7.35352C4.26261 7.29467 4.19235 7.2541 4.11489 7.23764C4.02683 7.21892 3.92539 7.2461 3.72253 7.30045L2.70831 7.57221C2.50545 7.62657 2.40401 7.65375 2.33711 7.71399C2.27826 7.76698 2.23769 7.83724 2.22123 7.9147C2.20251 8.00277 2.22969 8.1042 2.28404 8.30706L2.5558 9.32128C2.61016 9.52415 2.63734 9.62558 2.69758 9.69248C2.75057 9.75133 2.82083 9.7919 2.89829 9.80836C2.98636 9.82708 3.08779 9.7999 3.29065 9.74555Z" stroke="#98A2B3" stroke-width="1.5" stroke-linecap="round" stroke-linejoin="round"/>
</g>
<defs>
<clipPath id="clip0_1_8630">
<rect width="18" height="18" fill="white" transform="translate(0.664062 0.498047)"/>
</clipPath>
</defs>
</svg>
