<svg width="19" height="19" viewBox="0 0 19 19" fill="none" xmlns="http://www.w3.org/2000/svg">
<path d="M5.42383 11.748L7.67383 9.49805L5.42383 7.24805M9.92383 11.748H12.9238M6.02383 16.248H12.3238C13.5839 16.248 14.214 16.248 14.6953 16.0028C15.1187 15.7871 15.4629 15.4429 15.6786 15.0195C15.9238 14.5382 15.9238 13.9082 15.9238 12.648V6.34805C15.9238 5.08793 15.9238 4.45787 15.6786 3.97657C15.4629 3.5532 15.1187 3.209 14.6953 2.99328C14.214 2.74805 13.5839 2.74805 12.3238 2.74805H6.02383C4.76371 2.74805 4.13365 2.74805 3.65235 2.99328C3.22898 3.209 2.88478 3.5532 2.66906 3.97657C2.42383 4.45787 2.42383 5.08793 2.42383 6.34805V12.648C2.42383 13.9082 2.42383 14.5382 2.66906 15.0195C2.88478 15.4429 3.22898 15.7871 3.65235 16.0028C4.13365 16.248 4.76371 16.248 6.02383 16.248Z" stroke="#98A2B3" stroke-width="1.5" stroke-linecap="round" stroke-linejoin="round"/>
</svg>
