<svg width="19" height="19" viewBox="0 0 19 19" fill="none" xmlns="http://www.w3.org/2000/svg">
<g clip-path="url(#clip0_1_8743)">
<path d="M16.6699 7.24805H1.66992M4.66992 13.623L6.54492 11.748L4.66992 9.87305M8.41992 13.623L11.4199 13.623M1.66992 6.34805L1.66992 12.648C1.66992 13.9082 1.66992 14.5382 1.91516 15.0195C2.13087 15.4429 2.47508 15.7871 2.89844 16.0028C3.37974 16.248 4.0098 16.248 5.26992 16.248H13.0699C14.33 16.248 14.9601 16.248 15.4414 16.0028C15.8648 15.7871 16.209 15.4429 16.4247 15.0195C16.6699 14.5382 16.6699 13.9082 16.6699 12.648V6.34805C16.6699 5.08793 16.6699 4.45787 16.4247 3.97657C16.209 3.5532 15.8648 3.209 15.4414 2.99328C14.9601 2.74805 14.33 2.74805 13.0699 2.74805L5.26992 2.74805C4.0098 2.74805 3.37975 2.74805 2.89844 2.99328C2.47508 3.209 2.13087 3.5532 1.91516 3.97657C1.66992 4.45787 1.66992 5.08793 1.66992 6.34805Z" stroke="#98A2B3" stroke-width="1.5" stroke-linecap="round" stroke-linejoin="round"/>
</g>
<defs>
<clipPath id="clip0_1_8743">
<rect width="18" height="18" fill="white" transform="translate(0.169922 0.498047)"/>
</clipPath>
</defs>
</svg>
