<svg width="19" height="19" viewBox="0 0 19 19" fill="none" xmlns="http://www.w3.org/2000/svg">
<path d="M10.4263 5.74805H4.57627C3.73619 5.74805 3.31615 5.74805 2.99528 5.91154C2.71304 6.05535 2.48357 6.28482 2.33976 6.56706C2.17627 6.88793 2.17627 7.30797 2.17627 8.14805V10.848C2.17627 11.6881 2.17627 12.1082 2.33976 12.429C2.48357 12.7113 2.71304 12.9407 2.99528 13.0846C3.31615 13.248 3.73619 13.248 4.57627 13.248H10.4263M13.4263 5.74805H14.7763C15.6163 5.74805 16.0364 5.74805 16.3573 5.91154C16.6395 6.05535 16.869 6.28482 17.0128 6.56706C17.1763 6.88793 17.1763 7.30797 17.1763 8.14805V10.848C17.1763 11.6881 17.1763 12.1082 17.0128 12.429C16.869 12.7113 16.6395 12.9407 16.3573 13.0846C16.0364 13.248 15.6163 13.248 14.7763 13.248H13.4263M13.4263 16.248L13.4263 2.74805M15.3013 2.74805L11.5513 2.74805M15.3013 16.2481L11.5513 16.248" stroke="#98A2B3" stroke-width="1.5" stroke-linecap="round" stroke-linejoin="round"/>
</svg>
