<svg width="19" height="19" viewBox="0 0 19 19" fill="none" xmlns="http://www.w3.org/2000/svg">
<path d="M16.4336 2.74805L11.9336 2.74805M16.4336 5.74805L11.9336 5.74805M16.4336 8.74805L11.9336 8.74805M4.80859 10.8164V3.87305C4.80859 2.83751 5.64806 1.99805 6.68359 1.99805C7.71913 1.99805 8.55859 2.83751 8.55859 3.87305V10.8164C9.46308 11.4218 10.0586 12.4529 10.0586 13.623C10.0586 15.487 8.54756 16.998 6.68359 16.998C4.81963 16.998 3.30859 15.487 3.30859 13.623C3.30859 12.4529 3.9041 11.4218 4.80859 10.8164ZM7.43359 13.623C7.43359 14.0373 7.09781 14.373 6.68359 14.373C6.26938 14.373 5.93359 14.0373 5.93359 13.623C5.93359 13.2088 6.26938 12.873 6.68359 12.873C7.09781 12.873 7.43359 13.2088 7.43359 13.623Z" stroke="#98A2B3" stroke-width="1.5" stroke-linecap="round" stroke-linejoin="round"/>
</svg>
