<svg width="19" height="19" viewBox="0 0 19 19" fill="none" xmlns="http://www.w3.org/2000/svg">
<path d="M11.0566 3.87305C11.0566 2.83751 10.2172 1.99805 9.18164 1.99805C8.14611 1.99805 7.30664 2.83751 7.30664 3.87305V10.8164C6.40215 11.4218 5.80664 12.4529 5.80664 13.623C5.80664 15.487 7.31768 16.998 9.18164 16.998C11.0456 16.998 12.5566 15.487 12.5566 13.623C12.5566 12.4529 11.9611 11.4218 11.0566 10.8164V3.87305Z" stroke="#98A2B3" stroke-width="1.5" stroke-linecap="round" stroke-linejoin="round"/>
<path d="M9.18164 14.373C9.59585 14.373 9.93164 14.0373 9.93164 13.623C9.93164 13.2088 9.59585 12.873 9.18164 12.873C8.76743 12.873 8.43164 13.2088 8.43164 13.623C8.43164 14.0373 8.76743 14.373 9.18164 14.373Z" stroke="#98A2B3" stroke-width="1.5" stroke-linecap="round" stroke-linejoin="round"/>
</svg>
