<svg width="19" height="19" viewBox="0 0 19 19" fill="none" xmlns="http://www.w3.org/2000/svg">
<g clip-path="url(#clip0_1_11089)">
<path d="M10.6777 11.568V3.12305C10.6777 2.62577 10.4802 2.14885 10.1286 1.79722C9.77693 1.44559 9.30002 1.24805 8.80273 1.24805C8.30545 1.24805 7.82854 1.44559 7.47691 1.79722C7.12528 2.14885 6.92773 2.62577 6.92773 3.12305V11.568C6.32569 11.9703 5.86898 12.5555 5.62504 13.2372C5.3811 13.919 5.36287 14.6611 5.57305 15.354C5.78323 16.0469 6.21067 16.6538 6.79224 17.0851C7.37381 17.5164 8.07867 17.7493 8.80273 17.7493C9.5268 17.7493 10.2317 17.5164 10.8132 17.0851C11.3948 16.6538 11.8222 16.0469 12.0324 15.354C12.2426 14.6611 12.2244 13.919 11.9804 13.2372C11.7365 12.5555 11.2798 11.9703 10.6777 11.568Z" stroke="#98A2B3" stroke-width="1.5" stroke-linecap="round" stroke-linejoin="round"/>
</g>
<defs>
<clipPath id="clip0_1_11089">
<rect width="18" height="18" fill="white" transform="translate(0.177734 0.498047)"/>
</clipPath>
</defs>
</svg>
