<svg width="19" height="19" viewBox="0 0 19 19" fill="none" xmlns="http://www.w3.org/2000/svg">
<g clip-path="url(#clip0_1_10579)">
<path d="M1.68604 9.49805H9.18604M6.93604 3.49805V15.498M2.43604 7.24805L4.68604 9.49805L2.43604 11.748M9.18604 4.99805L6.93604 7.24805L4.68604 4.99805M4.68604 13.998L6.93604 11.748L8.06104 12.873M15.186 11.3994V3.49805C15.186 2.66962 14.5145 1.99805 13.686 1.99805C12.8576 1.99805 12.186 2.66962 12.186 3.49805V11.3994C11.2893 11.9181 10.686 12.8876 10.686 13.998C10.686 15.6549 12.0292 16.998 13.686 16.998C15.3429 16.998 16.686 15.6549 16.686 13.998C16.686 12.8876 16.0827 11.9181 15.186 11.3994Z" stroke="#98A2B3" stroke-width="1.5" stroke-linecap="round" stroke-linejoin="round"/>
</g>
<defs>
<clipPath id="clip0_1_10579">
<rect width="18" height="18" fill="white" transform="translate(0.186035 0.498047)"/>
</clipPath>
</defs>
</svg>
