<svg width="19" height="19" viewBox="0 0 19 19" fill="none" xmlns="http://www.w3.org/2000/svg">
<path d="M9.6875 7.24805C9.01829 7.23726 8.36469 7.45057 7.83068 7.85404C7.29667 8.25751 6.91291 8.82797 6.74046 9.47467C6.56801 10.1214 6.61676 10.8072 6.87897 11.423C7.14118 12.0388 7.60178 12.5492 8.1875 12.873M9.6875 2.74805V4.24805M5.6375 14.298L4.5875 15.348M3.6875 10.248H2.1875M5.6375 6.19805L4.5875 5.14805M15.6875 11.3994V3.49805C15.6875 2.66962 15.0159 1.99805 14.1875 1.99805C13.3591 1.99805 12.6875 2.66962 12.6875 3.49805V11.3994C11.7908 11.9181 11.1875 12.8876 11.1875 13.998C11.1875 15.6549 12.5306 16.998 14.1875 16.998C15.8444 16.998 17.1875 15.6549 17.1875 13.998C17.1875 12.8876 16.5842 11.9181 15.6875 11.3994Z" stroke="#98A2B3" stroke-width="1.5" stroke-linecap="round" stroke-linejoin="round"/>
</svg>
