<svg width="19" height="19" viewBox="0 0 19 19" fill="none" xmlns="http://www.w3.org/2000/svg">
<path d="M12.9393 1.99805V10.248M16.6893 7.84805V4.39805C16.6893 3.55797 16.6893 3.13793 16.5258 2.81706C16.382 2.53482 16.1525 2.30535 15.8702 2.16154C15.5494 1.99805 15.1293 1.99805 14.2893 1.99805H6.27776C5.18165 1.99805 4.63359 1.99805 4.19093 2.19862C3.8008 2.3754 3.46922 2.65986 3.23518 3.01858C2.96963 3.42559 2.88629 3.96727 2.71962 5.05064L2.32731 7.60064C2.10748 9.02953 1.99757 9.74398 2.2096 10.2999C2.39571 10.7878 2.74574 11.1958 3.19969 11.4539C3.7169 11.748 4.43975 11.748 5.88545 11.748H6.48925C6.90929 11.748 7.11931 11.748 7.27974 11.8298C7.42086 11.9017 7.5356 12.0164 7.6075 12.1576C7.68925 12.318 7.68925 12.528 7.68925 12.948V15.1487C7.68925 16.1701 8.51725 16.998 9.53863 16.998C9.78225 16.998 10.003 16.8546 10.102 16.632L12.6225 10.9607C12.7372 10.7027 12.7945 10.5738 12.8851 10.4792C12.9652 10.3956 13.0635 10.3317 13.1725 10.2924C13.2957 10.248 13.4368 10.248 13.7191 10.248H14.2893C15.1293 10.248 15.5494 10.248 15.8702 10.0846C16.1525 9.94075 16.382 9.71128 16.5258 9.42903C16.6893 9.10817 16.6893 8.68813 16.6893 7.84805Z" stroke="#98A2B3" stroke-width="1.5" stroke-linecap="round" stroke-linejoin="round"/>
</svg>
