<svg width="19" height="19" viewBox="0 0 19 19" fill="none" xmlns="http://www.w3.org/2000/svg">
<path d="M5.94189 16.998V8.74805M2.19189 10.248V15.498C2.19189 16.3265 2.86347 16.998 3.69189 16.998H13.7616C14.8721 16.998 15.8165 16.1878 15.9854 15.0902L16.7931 9.84018C17.0028 8.47722 15.9483 7.24805 14.5693 7.24805H11.9419C11.5277 7.24805 11.1919 6.91226 11.1919 6.49805V3.84743C11.1919 2.82604 10.3639 1.99805 9.34252 1.99805C9.0989 1.99805 8.87813 2.14152 8.77919 2.36414L6.13985 8.30265C6.01947 8.5735 5.75088 8.74805 5.45449 8.74805H3.69189C2.86347 8.74805 2.19189 9.41962 2.19189 10.248Z" stroke="#98A2B3" stroke-width="1.5" stroke-linecap="round" stroke-linejoin="round"/>
</svg>
