<svg width="19" height="19" viewBox="0 0 19 19" fill="none" xmlns="http://www.w3.org/2000/svg">
<g clip-path="url(#clip0_1_10481)">
<path d="M7.69336 6.49805V5.74805M7.69336 9.87305V9.12305M7.69336 13.248V12.498M4.09336 3.49805H14.2934C15.1334 3.49805 15.5535 3.49805 15.8743 3.66154C16.1566 3.80535 16.3861 4.03482 16.5299 4.31706C16.6934 4.63793 16.6934 5.05797 16.6934 5.89805V6.87305C15.2436 6.87305 14.0684 8.0483 14.0684 9.49805C14.0684 10.9478 15.2436 12.123 16.6934 12.123V13.098C16.6934 13.9381 16.6934 14.3582 16.5299 14.679C16.3861 14.9613 16.1566 15.1907 15.8743 15.3346C15.5535 15.498 15.1334 15.498 14.2934 15.498H4.09336C3.25328 15.498 2.83324 15.498 2.51237 15.3346C2.23013 15.1907 2.00066 14.9613 1.85685 14.679C1.69336 14.3582 1.69336 13.9381 1.69336 13.098V12.123C3.14311 12.123 4.31836 10.9478 4.31836 9.49805C4.31836 8.0483 3.14311 6.87305 1.69336 6.87305V5.89805C1.69336 5.05797 1.69336 4.63793 1.85685 4.31706C2.00066 4.03482 2.23013 3.80535 2.51237 3.66154C2.83324 3.49805 3.25328 3.49805 4.09336 3.49805Z" stroke="#98A2B3" stroke-width="1.5" stroke-linecap="round" stroke-linejoin="round"/>
</g>
<defs>
<clipPath id="clip0_1_10481">
<rect width="18" height="18" fill="white" transform="translate(0.193359 0.498047)"/>
</clipPath>
</defs>
</svg>
