<svg width="19" height="19" viewBox="0 0 19 19" fill="none" xmlns="http://www.w3.org/2000/svg">
<path d="M6.69531 6.49805V5.74805M6.69531 9.87305V9.12305M6.69531 13.248V12.498M5.79531 15.498H13.5953C14.8554 15.498 15.4855 15.498 15.9668 15.2528C16.3902 15.0371 16.7344 14.6929 16.9501 14.2695C17.1953 13.7882 17.1953 13.1582 17.1953 11.898V7.09805C17.1953 5.83793 17.1953 5.20787 16.9501 4.72657C16.7344 4.3032 16.3902 3.959 15.9668 3.74328C15.4855 3.49805 14.8554 3.49805 13.5953 3.49805H5.79531C4.53519 3.49805 3.90514 3.49805 3.42383 3.74328C3.00047 3.959 2.65626 4.3032 2.44055 4.72657C2.19531 5.20787 2.19531 5.83793 2.19531 7.09805V11.898C2.19531 13.1582 2.19531 13.7882 2.44055 14.2695C2.65626 14.6929 3.00047 15.0371 3.42383 15.2528C3.90514 15.498 4.53519 15.498 5.79531 15.498Z" stroke="#98A2B3" stroke-width="1.5" stroke-linecap="round" stroke-linejoin="round"/>
</svg>
