<svg width="19" height="19" viewBox="0 0 19 19" fill="none" xmlns="http://www.w3.org/2000/svg">
<g clip-path="url(#clip0_1_10695)">
<path d="M12.2095 4.24792H6.20947C3.30998 4.24792 0.959473 6.59843 0.959473 9.49793C0.959473 12.3974 3.30998 14.7479 6.20947 14.7479H12.2095C15.109 14.7479 17.4595 12.3974 17.4595 9.49793C17.4595 6.59843 15.109 4.24792 12.2095 4.24792Z" stroke="#98A2B3" stroke-width="1.5" stroke-linecap="round" stroke-linejoin="round"/>
<path d="M6.20947 11.7479C7.45211 11.7479 8.45947 10.7406 8.45947 9.49793C8.45947 8.25528 7.45211 7.24793 6.20947 7.24793C4.96683 7.24793 3.95947 8.25528 3.95947 9.49793C3.95947 10.7406 4.96683 11.7479 6.20947 11.7479Z" stroke="#98A2B3" stroke-width="1.5" stroke-linecap="round" stroke-linejoin="round"/>
</g>
<defs>
<clipPath id="clip0_1_10695">
<rect width="18" height="18" fill="white" transform="translate(0.209473 0.498047)"/>
</clipPath>
</defs>
</svg>
