<svg width="19" height="19" viewBox="0 0 19 19" fill="none" xmlns="http://www.w3.org/2000/svg">
<g clip-path="url(#clip0_1_9223)">
<path d="M1.70557 9.49805C1.70557 7.01277 3.72029 4.99805 6.20557 4.99805H12.2056C14.6908 4.99805 16.7056 7.01277 16.7056 9.49805C16.7056 11.9833 14.6908 13.998 12.2056 13.998H6.20557C3.72029 13.998 1.70557 11.9833 1.70557 9.49805Z" stroke="#98A2B3" stroke-width="1.5" stroke-linecap="round" stroke-linejoin="round"/>
<path d="M6.20557 11.373C7.2411 11.373 8.08057 10.5336 8.08057 9.49805C8.08057 8.46251 7.2411 7.62305 6.20557 7.62305C5.17003 7.62305 4.33057 8.46251 4.33057 9.49805C4.33057 10.5336 5.17003 11.373 6.20557 11.373Z" stroke="#98A2B3" stroke-width="1.5" stroke-linecap="round" stroke-linejoin="round"/>
</g>
<defs>
<clipPath id="clip0_1_9223">
<rect width="18" height="18" fill="white" transform="translate(0.205566 0.498047)"/>
</clipPath>
</defs>
</svg>
