<svg width="19" height="19" viewBox="0 0 19 19" fill="none" xmlns="http://www.w3.org/2000/svg">
<path d="M11.2384 5.22297C11.101 5.36317 11.024 5.55166 11.024 5.74797C11.024 5.94429 11.101 6.13277 11.2384 6.27297L12.4384 7.47297C12.5786 7.61039 12.7671 7.68736 12.9634 7.68736C13.1597 7.68736 13.3482 7.61039 13.4884 7.47297L16.3159 4.64547C16.693 5.47886 16.8072 6.4074 16.6432 7.30733C16.4793 8.20726 16.0449 9.03585 15.3981 9.68268C14.7513 10.3295 13.9227 10.7638 13.0228 10.9278C12.1228 11.0918 11.1943 10.9776 10.3609 10.6005L5.17839 15.783C4.88002 16.0813 4.47535 16.249 4.05339 16.249C3.63144 16.249 3.22676 16.0813 2.92839 15.783C2.63002 15.4846 2.4624 15.0799 2.4624 14.658C2.4624 14.236 2.63002 13.8313 2.92839 13.533L8.11089 8.35047C7.73377 7.51708 7.61958 6.58855 7.78355 5.68861C7.94752 4.78868 8.38186 3.96009 9.02868 3.31326C9.67551 2.66644 10.5041 2.2321 11.404 2.06813C12.304 1.90416 13.2325 2.01834 14.0659 2.39547L11.2459 5.21547L11.2384 5.22297Z" stroke="#98A2B3" stroke-width="1.5" stroke-linecap="round" stroke-linejoin="round"/>
</svg>
