<svg width="19" height="19" viewBox="0 0 19 19" fill="none" xmlns="http://www.w3.org/2000/svg">
<path d="M12.439 6.22158C12.142 5.92456 11.9935 5.77606 11.9379 5.60481C11.8889 5.45418 11.8889 5.29192 11.9379 5.14128C11.9935 4.97004 12.142 4.82153 12.439 4.52452L14.5678 2.39574C14.0029 2.14026 13.3758 1.99805 12.7155 1.99805C10.2302 1.99805 8.2155 4.01277 8.2155 6.49805C8.2155 6.86633 8.25974 7.22427 8.3432 7.56686C8.43257 7.93373 8.47725 8.11716 8.46932 8.23304C8.46101 8.35437 8.44293 8.41891 8.38698 8.52688C8.33354 8.63001 8.23115 8.7324 8.02637 8.93718L3.3405 13.623C2.71918 14.2444 2.71918 15.2517 3.3405 15.873C3.96182 16.4944 4.96918 16.4944 5.5905 15.873L10.2764 11.1872C10.4811 10.9824 10.5835 10.88 10.6867 10.8266C10.7946 10.7706 10.8592 10.7525 10.9805 10.7442C11.0964 10.7363 11.2798 10.781 11.6467 10.8704C11.9893 10.9538 12.3472 10.998 12.7155 10.998C15.2008 10.998 17.2155 8.98333 17.2155 6.49805C17.2155 5.83774 17.0733 5.21065 16.8178 4.64574L14.689 6.77452C14.392 7.07153 14.2435 7.22004 14.0723 7.27568C13.9216 7.32462 13.7594 7.32462 13.6087 7.27568C13.4375 7.22004 13.289 7.07153 12.992 6.77452L12.439 6.22158Z" stroke="#98A2B3" stroke-width="1.5" stroke-linecap="round" stroke-linejoin="round"/>
</svg>
