<svg width="19" height="19" viewBox="0 0 19 19" fill="none" xmlns="http://www.w3.org/2000/svg">
<g clip-path="url(#clip0_1_9229)">
<path d="M4.71729 4.99805L8.09229 8.37305M4.71729 4.99805H2.46729L1.71729 2.74805L2.46729 1.99805L4.71729 2.74805V4.99805ZM14.6615 2.55381L12.6908 4.52452C12.3938 4.82153 12.2453 4.97004 12.1897 5.14128C12.1407 5.29192 12.1407 5.45418 12.1897 5.60481C12.2453 5.77606 12.3938 5.92456 12.6908 6.22157L12.8688 6.39952C13.1658 6.69653 13.3143 6.84504 13.4855 6.90068C13.6362 6.94962 13.7984 6.94962 13.949 6.90068C14.1203 6.84504 14.2688 6.69653 14.5658 6.39952L16.4092 4.55608C16.6078 5.03921 16.7173 5.56834 16.7173 6.12305C16.7173 8.40122 14.8705 10.248 12.5923 10.248C12.3176 10.248 12.0492 10.2212 11.7896 10.17C11.425 10.0981 11.2427 10.0621 11.1322 10.0731C11.0147 10.0849 10.9568 10.1025 10.8527 10.1582C10.7547 10.2106 10.6565 10.3088 10.4601 10.5053L5.09229 15.873C4.47097 16.4944 3.46361 16.4944 2.84229 15.873C2.22097 15.2517 2.22097 14.2444 2.84229 13.623L8.21006 8.25527C8.40652 8.05882 8.50474 7.96059 8.55715 7.86266C8.61286 7.75856 8.63048 7.70065 8.64218 7.58315C8.6532 7.47264 8.61724 7.29033 8.54533 6.92573C8.49413 6.66609 8.46729 6.3977 8.46729 6.12305C8.46729 3.84487 10.3141 1.99805 12.5923 1.99805C13.3464 1.99805 14.0533 2.20041 14.6615 2.55381ZM9.21732 11.748L13.3423 15.873C13.9636 16.4943 14.971 16.4943 15.5923 15.873C16.2136 15.2516 16.2136 14.2443 15.5923 13.623L12.1988 10.2295C11.9585 10.2068 11.7243 10.1634 11.4979 10.1013C11.2061 10.0212 10.886 10.0793 10.672 10.2933L9.21732 11.748Z" stroke="#98A2B3" stroke-width="1.5" stroke-linecap="round" stroke-linejoin="round"/>
</g>
<defs>
<clipPath id="clip0_1_9229">
<rect width="18" height="18" fill="white" transform="translate(0.217285 0.498047)"/>
</clipPath>
</defs>
</svg>
