<svg width="19" height="19" viewBox="0 0 19 19" fill="none" xmlns="http://www.w3.org/2000/svg">
<path d="M7.84473 16.998H11.5947M6.71973 1.99805H12.7197M9.71973 4.24805V1.99805M3.71973 9.49805H15.7197M13.4697 14.748L14.5947 16.998M5.96973 14.748L4.84473 16.998M7.09473 12.123H7.10223M12.3447 12.123H12.3522M7.31973 14.748H12.1197C13.3798 14.748 14.0099 14.748 14.4912 14.5028C14.9146 14.2871 15.2588 13.9429 15.4745 13.5195C15.7197 13.0382 15.7197 12.4082 15.7197 11.148V7.84805C15.7197 6.58793 15.7197 5.95787 15.4745 5.47657C15.2588 5.0532 14.9146 4.709 14.4912 4.49328C14.0099 4.24805 13.3798 4.24805 12.1197 4.24805H7.31973C6.05961 4.24805 5.42955 4.24805 4.94825 4.49328C4.52488 4.709 4.18068 5.0532 3.96496 5.47657C3.71973 5.95787 3.71973 6.58793 3.71973 7.84805V11.148C3.71973 12.4082 3.71973 13.0382 3.96496 13.5195C4.18068 13.9429 4.52488 14.2871 4.94825 14.5028C5.42955 14.748 6.05961 14.748 7.31973 14.748ZM7.46973 12.123C7.46973 12.3302 7.30183 12.498 7.09473 12.498C6.88762 12.498 6.71973 12.3302 6.71973 12.123C6.71973 11.9159 6.88762 11.748 7.09473 11.748C7.30183 11.748 7.46973 11.9159 7.46973 12.123ZM12.7197 12.123C12.7197 12.3302 12.5518 12.498 12.3447 12.498C12.1376 12.498 11.9697 12.3302 11.9697 12.123C11.9697 11.9159 12.1376 11.748 12.3447 11.748C12.5518 11.748 12.7197 11.9159 12.7197 12.123Z" stroke="#98A2B3" stroke-width="1.5" stroke-linecap="round" stroke-linejoin="round"/>
</svg>
