<svg width="19" height="19" viewBox="0 0 19 19" fill="none" xmlns="http://www.w3.org/2000/svg">
<path d="M14.0962 2.74805L13.3563 2.37811C13.0728 2.23636 12.9311 2.16549 12.7825 2.11551C12.6506 2.07113 12.5148 2.03908 12.377 2.01978C12.2218 1.99805 12.0633 1.99805 11.7463 1.99805H6.69604C6.37909 1.99805 6.22061 1.99805 6.06539 2.01978C5.92754 2.03908 5.79178 2.07113 5.65985 2.11551C5.5113 2.16549 5.36956 2.23636 5.08607 2.37811L4.34619 2.74805M8.47119 4.99805L6.97119 1.99805M9.97118 4.99805L11.4712 1.99805M3.22119 10.248H15.2212M12.9712 15.498L13.7212 16.998M5.47119 15.498L4.72131 16.998M6.59619 12.873H6.60369M11.8462 12.873H11.8537M6.82119 15.498H11.6212C12.8813 15.498 13.5114 15.498 13.9927 15.2528C14.416 15.0371 14.7602 14.6929 14.976 14.2695C15.2212 13.7882 15.2212 13.1582 15.2212 11.898V8.59805C15.2212 7.33793 15.2212 6.70787 14.976 6.22657C14.7602 5.8032 14.416 5.459 13.9927 5.24328C13.5114 4.99805 12.8813 4.99805 11.6212 4.99805H6.82119C5.56107 4.99805 4.93101 4.99805 4.44971 5.24328C4.02635 5.459 3.68214 5.8032 3.46643 6.22657C3.22119 6.70787 3.22119 7.33793 3.22119 8.59805V11.898C3.22119 13.1582 3.22119 13.7882 3.46643 14.2695C3.68214 14.6929 4.02635 15.0371 4.44971 15.2528C4.93101 15.498 5.56107 15.498 6.82119 15.498ZM6.97119 12.873C6.97119 13.0802 6.8033 13.248 6.59619 13.248C6.38908 13.248 6.22119 13.0802 6.22119 12.873C6.22119 12.6659 6.38908 12.498 6.59619 12.498C6.8033 12.498 6.97119 12.6659 6.97119 12.873ZM12.2212 12.873C12.2212 13.0802 12.0533 13.248 11.8462 13.248C11.6391 13.248 11.4712 13.0802 11.4712 12.873C11.4712 12.6659 11.6391 12.498 11.8462 12.498C12.0533 12.498 12.2212 12.6659 12.2212 12.873Z" stroke="#98A2B3" stroke-width="1.5" stroke-linecap="round" stroke-linejoin="round"/>
</svg>
