<svg width="19" height="19" viewBox="0 0 19 19" fill="none" xmlns="http://www.w3.org/2000/svg">
<g clip-path="url(#clip0_1_9231)">
<path d="M9.90988 13.248H15.2903M9.90988 13.248L8.4751 16.248M9.90988 13.248L12.0588 8.75482C12.232 8.39275 12.3186 8.21172 12.437 8.15451C12.5401 8.10476 12.6601 8.10476 12.7632 8.15451C12.8816 8.21172 12.9682 8.39275 13.1414 8.75482L15.2903 13.248M15.2903 13.248L16.7251 16.248M1.7251 4.24805H6.2251M6.2251 4.24805H8.8501M6.2251 4.24805V2.74805M8.8501 4.24805H10.7251M8.8501 4.24805C8.47799 6.46601 7.61454 8.47518 6.34926 10.1614M7.7251 10.998C7.2657 10.7917 6.79708 10.5046 6.34926 10.1614M6.34926 10.1614C5.33486 9.38387 4.42717 8.31803 3.9751 7.24805M6.34926 10.1614C5.14574 11.7652 3.57867 13.0769 1.7251 13.998" stroke="#98A2B3" stroke-width="1.5" stroke-linecap="round" stroke-linejoin="round"/>
</g>
<defs>
<clipPath id="clip0_1_9231">
<rect width="18" height="18" fill="white" transform="translate(0.225098 0.498047)"/>
</clipPath>
</defs>
</svg>
