<svg width="19" height="19" viewBox="0 0 19 19" fill="none" xmlns="http://www.w3.org/2000/svg">
<path d="M14.9736 5.74805V13.248M4.47363 5.74805V13.248M13.4736 4.24805L5.97363 4.24805M13.4736 14.748H5.97363M4.17363 5.74805H4.77363C5.19367 5.74805 5.40369 5.74805 5.56413 5.6663C5.70525 5.5944 5.81998 5.47966 5.89189 5.33854C5.97363 5.17811 5.97363 4.96809 5.97363 4.54805V3.94805C5.97363 3.52801 5.97363 3.31799 5.89189 3.15755C5.81998 3.01643 5.70525 2.9017 5.56413 2.82979C5.40369 2.74805 5.19367 2.74805 4.77363 2.74805H4.17363C3.75359 2.74805 3.54357 2.74805 3.38314 2.82979C3.24202 2.9017 3.12728 3.01643 3.05538 3.15755C2.97363 3.31799 2.97363 3.52801 2.97363 3.94805V4.54805C2.97363 4.96809 2.97363 5.17811 3.05538 5.33854C3.12728 5.47966 3.24202 5.5944 3.38314 5.6663C3.54357 5.74805 3.75359 5.74805 4.17363 5.74805ZM4.17363 16.248H4.77363C5.19367 16.248 5.40369 16.248 5.56413 16.1663C5.70525 16.0944 5.81998 15.9797 5.89189 15.8385C5.97363 15.6781 5.97363 15.4681 5.97363 15.048V14.448C5.97363 14.028 5.97363 13.818 5.89189 13.6576C5.81998 13.5164 5.70525 13.4017 5.56413 13.3298C5.40369 13.248 5.19367 13.248 4.77363 13.248H4.17363C3.75359 13.248 3.54357 13.248 3.38314 13.3298C3.24202 13.4017 3.12728 13.5164 3.05538 13.6576C2.97363 13.818 2.97363 14.028 2.97363 14.448V15.048C2.97363 15.4681 2.97363 15.6781 3.05538 15.8385C3.12728 15.9797 3.24202 16.0944 3.38314 16.1663C3.54357 16.248 3.75359 16.248 4.17363 16.248ZM14.6736 5.74805H15.2736C15.6937 5.74805 15.9037 5.74805 16.0641 5.6663C16.2052 5.5944 16.32 5.47966 16.3919 5.33854C16.4736 5.17811 16.4736 4.96809 16.4736 4.54805V3.94805C16.4736 3.52801 16.4736 3.31799 16.3919 3.15755C16.32 3.01643 16.2052 2.9017 16.0641 2.82979C15.9037 2.74805 15.6937 2.74805 15.2736 2.74805H14.6736C14.2536 2.74805 14.0436 2.74805 13.8831 2.82979C13.742 2.9017 13.6273 3.01643 13.5554 3.15755C13.4736 3.31799 13.4736 3.52801 13.4736 3.94805V4.54805C13.4736 4.96809 13.4736 5.17811 13.5554 5.33854C13.6273 5.47966 13.742 5.5944 13.8831 5.6663C14.0436 5.74805 14.2536 5.74805 14.6736 5.74805ZM14.6736 16.248H15.2736C15.6937 16.248 15.9037 16.248 16.0641 16.1663C16.2052 16.0944 16.32 15.9797 16.3919 15.8385C16.4736 15.6781 16.4736 15.4681 16.4736 15.048V14.448C16.4736 14.028 16.4736 13.818 16.3919 13.6576C16.32 13.5164 16.2052 13.4017 16.0641 13.3298C15.9037 13.248 15.6937 13.248 15.2736 13.248H14.6736C14.2536 13.248 14.0436 13.248 13.8831 13.3298C13.742 13.4017 13.6273 13.5164 13.5554 13.6576C13.4736 13.818 13.4736 14.028 13.4736 14.448V15.048C13.4736 15.4681 13.4736 15.6781 13.5554 15.8385C13.6273 15.9797 13.742 16.0944 13.8831 16.1663C14.0436 16.248 14.2536 16.248 14.6736 16.248Z" stroke="#98A2B3" stroke-width="1.5" stroke-linecap="round" stroke-linejoin="round"/>
</svg>
