<svg width="19" height="19" viewBox="0 0 19 19" fill="none" xmlns="http://www.w3.org/2000/svg">
<path d="M2.479 4.99805H3.979M3.979 4.99805H15.979M3.979 4.99805V15.498C3.979 15.8959 4.13704 16.2774 4.41834 16.5587C4.69965 16.84 5.08118 16.998 5.479 16.998H12.979C13.3768 16.998 13.7584 16.84 14.0397 16.5587C14.321 16.2774 14.479 15.8959 14.479 15.498V4.99805H3.979ZM6.229 4.99805V3.49805C6.229 3.10022 6.38704 2.71869 6.66834 2.43739C6.94965 2.15608 7.33118 1.99805 7.729 1.99805H10.729C11.1268 1.99805 11.5084 2.15608 11.7897 2.43739C12.071 2.71869 12.229 3.10022 12.229 3.49805V4.99805" stroke="#98A2B3" stroke-width="1.5" stroke-linecap="round" stroke-linejoin="round"/>
</svg>
