<svg width="19" height="19" viewBox="0 0 19 19" fill="none" xmlns="http://www.w3.org/2000/svg">
<path d="M12.2324 4.99805V4.39805C12.2324 3.55797 12.2324 3.13793 12.0689 2.81706C11.9251 2.53482 11.6957 2.30535 11.4134 2.16154C11.0925 1.99805 10.6725 1.99805 9.83242 1.99805H8.63242C7.79234 1.99805 7.3723 1.99805 7.05144 2.16154C6.76919 2.30535 6.53972 2.53482 6.39591 2.81706C6.23242 3.13793 6.23242 3.55797 6.23242 4.39805V4.99805M2.48242 4.99805H15.9824M14.4824 4.99805V13.398C14.4824 14.6582 14.4824 15.2882 14.2372 15.7695C14.0215 16.1929 13.6773 16.5371 13.2539 16.7528C12.7726 16.998 12.1425 16.998 10.8824 16.998H7.58242C6.3223 16.998 5.69225 16.998 5.21094 16.7528C4.78758 16.5371 4.44337 16.1929 4.22766 15.7695C3.98242 15.2882 3.98242 14.6582 3.98242 13.398V4.99805" stroke="#98A2B3" stroke-width="1.5" stroke-linecap="round" stroke-linejoin="round"/>
</svg>
