<svg width="19" height="19" viewBox="0 0 19 19" fill="none" xmlns="http://www.w3.org/2000/svg">
<path d="M12.7305 4.99805V4.39805C12.7305 3.55797 12.7305 3.13793 12.567 2.81706C12.4232 2.53482 12.1937 2.30535 11.9115 2.16154C11.5906 1.99805 11.1705 1.99805 10.3305 1.99805H9.13047C8.29039 1.99805 7.87035 1.99805 7.54948 2.16154C7.26724 2.30535 7.03777 2.53482 6.89396 2.81706C6.73047 3.13793 6.73047 3.55797 6.73047 4.39805V4.99805M8.23047 9.12305V12.873M11.2305 9.12305V12.873M2.98047 4.99805H16.4805M14.9805 4.99805V13.398C14.9805 14.6582 14.9805 15.2882 14.7352 15.7695C14.5195 16.1929 14.1753 16.5371 13.7519 16.7528C13.2706 16.998 12.6406 16.998 11.3805 16.998H8.08047C6.82035 16.998 6.19029 16.998 5.70899 16.7528C5.28563 16.5371 4.94142 16.1929 4.7257 15.7695C4.48047 15.2882 4.48047 14.6582 4.48047 13.398V4.99805" stroke="#98A2B3" stroke-width="1.5" stroke-linecap="round" stroke-linejoin="round"/>
</svg>
