<svg width="19" height="19" viewBox="0 0 19 19" fill="none" xmlns="http://www.w3.org/2000/svg">
<path d="M2.98828 4.99805H4.48828M4.48828 4.99805H16.4883M4.48828 4.99805V15.498C4.48828 15.8959 4.64632 16.2774 4.92762 16.5587C5.20893 16.84 5.59046 16.998 5.98828 16.998H13.4883C13.8861 16.998 14.2676 16.84 14.5489 16.5587C14.8302 16.2774 14.9883 15.8959 14.9883 15.498V4.99805H4.48828ZM6.73828 4.99805V3.49805C6.73828 3.10022 6.89632 2.71869 7.17762 2.43739C7.45893 2.15608 7.84046 1.99805 8.23828 1.99805H11.2383C11.6361 1.99805 12.0176 2.15608 12.2989 2.43739C12.5802 2.71869 12.7383 3.10022 12.7383 3.49805V4.99805M8.23828 8.74805V13.248M11.2383 8.74805V13.248" stroke="#98A2B3" stroke-width="1.5" stroke-linecap="round" stroke-linejoin="round"/>
</svg>
