<svg width="19" height="19" viewBox="0 0 19 19" fill="none" xmlns="http://www.w3.org/2000/svg">
<g clip-path="url(#clip0_1_11147)">
<path d="M8.47246 3.39308L2.11996 13.9981C1.98899 14.2249 1.91968 14.4821 1.91895 14.744C1.91822 15.0059 1.98608 15.2634 2.11578 15.491C2.24548 15.7185 2.4325 15.9081 2.65824 16.041C2.88398 16.1738 3.14056 16.2452 3.40246 16.2481H16.1075C16.3694 16.2452 16.6259 16.1738 16.8517 16.041C17.0774 15.9081 17.2644 15.7185 17.3941 15.491C17.5238 15.2634 17.5917 15.0059 17.591 14.744C17.5902 14.4821 17.5209 14.2249 17.39 13.9981L11.0375 3.39308C10.9038 3.17266 10.7155 2.99042 10.4909 2.86394C10.2662 2.73746 10.0128 2.67102 9.75496 2.67102C9.49716 2.67102 9.24371 2.73746 9.01906 2.86394C8.79442 2.99042 8.60616 3.17266 8.47246 3.39308V3.39308Z" stroke="#98A2B3" stroke-width="1.5" stroke-linecap="round" stroke-linejoin="round"/>
</g>
<defs>
<clipPath id="clip0_1_11147">
<rect width="18" height="18" fill="white" transform="translate(0.754883 0.498047)"/>
</clipPath>
</defs>
</svg>
