<svg width="19" height="19" viewBox="0 0 19 19" fill="none" xmlns="http://www.w3.org/2000/svg">
<g clip-path="url(#clip0_1_9565)">
<path d="M2.04996 14.0717L8.21863 3.41677C8.55956 2.82789 8.73002 2.53346 8.95242 2.43457C9.14641 2.34831 9.36787 2.34831 9.56187 2.43457C9.78426 2.53346 9.95473 2.82789 10.2957 3.41677L16.4643 14.0717C16.8065 14.6627 16.9775 14.9582 16.9523 15.2007C16.9302 15.4123 16.8194 15.6045 16.6474 15.7296C16.4501 15.873 16.1087 15.873 15.4258 15.873H3.08848C2.40558 15.873 2.06414 15.873 1.86692 15.7296C1.6949 15.6045 1.58407 15.4123 1.56202 15.2007C1.53673 14.9582 1.70781 14.6627 2.04996 14.0717Z" stroke="#98A2B3" stroke-width="1.5" stroke-linecap="round" stroke-linejoin="round"/>
</g>
<defs>
<clipPath id="clip0_1_9565">
<rect width="18" height="18" fill="white" transform="translate(0.256836 0.498047)"/>
</clipPath>
</defs>
</svg>
