<svg width="19" height="19" viewBox="0 0 19 19" fill="none" xmlns="http://www.w3.org/2000/svg">
<path d="M10.7646 5.74805H12.5176C12.701 5.74805 12.7928 5.74805 12.8791 5.76877C12.9556 5.78714 13.0288 5.81745 13.0959 5.85857C13.1716 5.90495 13.2364 5.96981 13.3661 6.09952L16.4132 9.14658C16.5429 9.27629 16.6077 9.34115 16.6541 9.41683C16.6953 9.48394 16.7256 9.5571 16.7439 9.63362C16.7646 9.71994 16.7646 9.81166 16.7646 9.9951V12.123C16.7646 12.4725 16.7646 12.6472 16.7076 12.7851C16.6314 12.9688 16.4854 13.1148 16.3017 13.191C16.1638 13.248 15.9891 13.248 15.6396 13.248M11.8896 13.248H10.7646M10.7646 13.248V5.89805C10.7646 5.05797 10.7646 4.63793 10.6012 4.31706C10.4573 4.03482 10.2279 3.80535 9.94563 3.66154C9.62477 3.49805 9.20473 3.49805 8.36465 3.49805H4.16465C3.32457 3.49805 2.90453 3.49805 2.58366 3.66154C2.30142 3.80535 2.07195 4.03482 1.92814 4.31706C1.76465 4.63793 1.76465 5.05797 1.76465 5.89805V11.748C1.76465 12.5765 2.43622 13.248 3.26465 13.248M10.7646 13.248H7.76465M7.76465 13.248C7.76465 14.4907 6.75729 15.498 5.51465 15.498C4.27201 15.498 3.26465 14.4907 3.26465 13.248M7.76465 13.248C7.76465 12.0054 6.75729 10.998 5.51465 10.998C4.27201 10.998 3.26465 12.0054 3.26465 13.248M15.6396 13.623C15.6396 14.6586 14.8002 15.498 13.7646 15.498C12.7291 15.498 11.8896 14.6586 11.8896 13.623C11.8896 12.5875 12.7291 11.748 13.7646 11.748C14.8002 11.748 15.6396 12.5875 15.6396 13.623Z" stroke="#98A2B3" stroke-width="1.5" stroke-linecap="round" stroke-linejoin="round"/>
</svg>
