<svg width="19" height="19" viewBox="0 0 19 19" fill="none" xmlns="http://www.w3.org/2000/svg">
<g clip-path="url(#clip0_1_10639)">
<path d="M12.7627 12.498V2.74805H1.5127V12.498H12.7627ZM12.7627 12.498H18.0127V8.74805L15.7627 6.49805H12.7627V12.498ZM6.7627 14.373C6.7627 15.4086 5.92323 16.248 4.8877 16.248C3.85216 16.248 3.0127 15.4086 3.0127 14.373C3.0127 13.3375 3.85216 12.498 4.8877 12.498C5.92323 12.498 6.7627 13.3375 6.7627 14.373ZM16.5127 14.373C16.5127 15.4086 15.6732 16.248 14.6377 16.248C13.6022 16.248 12.7627 15.4086 12.7627 14.373C12.7627 13.3375 13.6022 12.498 14.6377 12.498C15.6732 12.498 16.5127 13.3375 16.5127 14.373Z" stroke="#98A2B3" stroke-width="1.5" stroke-linecap="round" stroke-linejoin="round"/>
</g>
<defs>
<clipPath id="clip0_1_10639">
<rect width="18" height="18" fill="white" transform="translate(0.762695 0.498047)"/>
</clipPath>
</defs>
</svg>
