<svg width="19" height="19" viewBox="0 0 19 19" fill="none" xmlns="http://www.w3.org/2000/svg">
<g clip-path="url(#clip0_1_10491)">
<path d="M12.7666 12.498V5.14805C12.7666 4.30797 12.7666 3.88793 12.6031 3.56706C12.4593 3.28482 12.2298 3.05535 11.9476 2.91154C11.6267 2.74805 11.2067 2.74805 10.3666 2.74805H4.6666C3.82652 2.74805 3.40648 2.74805 3.08562 2.91154C2.80337 3.05535 2.5739 3.28482 2.43009 3.56706C2.2666 3.88793 2.2666 4.30797 2.2666 5.14805V10.098C2.2666 10.9381 2.2666 11.3582 2.43009 11.679C2.5739 11.9613 2.80337 12.1907 3.08562 12.3346C3.40648 12.498 3.82652 12.498 4.6666 12.498H12.7666ZM12.7666 12.498H16.0666C16.4866 12.498 16.6967 12.498 16.8571 12.4163C16.9982 12.3444 17.113 12.2297 17.1849 12.0885C17.2666 11.9281 17.2666 11.7181 17.2666 11.298V9.2451C17.2666 9.06166 17.2666 8.96994 17.2459 8.88362C17.2275 8.8071 17.1972 8.73394 17.1561 8.66683C17.1097 8.59115 17.0448 8.52629 16.9151 8.39658L15.3681 6.84952C15.2384 6.71981 15.1735 6.65495 15.0978 6.60857C15.0307 6.56745 14.9576 6.53714 14.881 6.51877C14.7947 6.49805 14.703 6.49805 14.5195 6.49805H12.7666M7.5166 14.373C7.5166 15.4086 6.67714 16.248 5.6416 16.248C4.60607 16.248 3.7666 15.4086 3.7666 14.373C3.7666 13.3375 4.60607 12.498 5.6416 12.498C6.67714 12.498 7.5166 13.3375 7.5166 14.373ZM15.7666 14.373C15.7666 15.4086 14.9271 16.248 13.8916 16.248C12.8561 16.248 12.0166 15.4086 12.0166 14.373C12.0166 13.3375 12.8561 12.498 13.8916 12.498C14.9271 12.498 15.7666 13.3375 15.7666 14.373Z" stroke="#98A2B3" stroke-width="1.5" stroke-linecap="round" stroke-linejoin="round"/>
</g>
<defs>
<clipPath id="clip0_1_10491">
<rect width="18" height="18" fill="white" transform="translate(0.766602 0.498047)"/>
</clipPath>
</defs>
</svg>
