<svg width="19" height="19" viewBox="0 0 19 19" fill="none" xmlns="http://www.w3.org/2000/svg">
<path d="M13.0225 16.248L9.27246 13.248L5.52246 16.248M5.37246 13.248H13.1725C14.4326 13.248 15.0626 13.248 15.5439 13.0028C15.9673 12.7871 16.3115 12.4429 16.5272 12.0195C16.7725 11.5382 16.7725 10.9082 16.7725 9.64805V6.34805C16.7725 5.08793 16.7725 4.45787 16.5272 3.97657C16.3115 3.5532 15.9673 3.209 15.5439 2.99328C15.0626 2.74805 14.4326 2.74805 13.1725 2.74805H5.37246C4.11234 2.74805 3.48228 2.74805 3.00098 2.99328C2.57762 3.209 2.23341 3.5532 2.0177 3.97657C1.77246 4.45787 1.77246 5.08793 1.77246 6.34805V9.64805C1.77246 10.9082 1.77246 11.5382 2.0177 12.0195C2.23341 12.4429 2.57762 12.7871 3.00098 13.0028C3.48228 13.248 4.11234 13.248 5.37246 13.248Z" stroke="#98A2B3" stroke-width="1.5" stroke-linecap="round" stroke-linejoin="round"/>
</svg>
