<svg width="19" height="19" viewBox="0 0 19 19" fill="none" xmlns="http://www.w3.org/2000/svg">
<g clip-path="url(#clip0_1_9831)">
<path d="M14.2705 13.248V15.048C14.2705 15.4681 14.2705 15.6781 14.1888 15.8385C14.1169 15.9797 14.0021 16.0944 13.861 16.1663C13.7006 16.248 13.4905 16.248 13.0705 16.248H6.47051C6.05047 16.248 5.84045 16.248 5.68002 16.1663C5.53889 16.0944 5.42416 15.9797 5.35225 15.8385C5.27051 15.6781 5.27051 15.4681 5.27051 15.048V13.248M5.87051 13.248H13.6705C14.9306 13.248 15.5607 13.248 16.042 13.0028C16.4654 12.7871 16.8096 12.4429 17.0253 12.0195C17.2705 11.5382 17.2705 10.9082 17.2705 9.64805V6.34805C17.2705 5.08793 17.2705 4.45787 17.0253 3.97657C16.8096 3.5532 16.4654 3.209 16.042 2.99328C15.5607 2.74805 14.9306 2.74805 13.6705 2.74805H5.87051C4.61039 2.74805 3.98033 2.74805 3.49903 2.99328C3.07566 3.209 2.73146 3.5532 2.51574 3.97657C2.27051 4.45787 2.27051 5.08793 2.27051 6.34805V9.64805C2.27051 10.9082 2.27051 11.5382 2.51574 12.0195C2.73146 12.4429 3.07566 12.7871 3.49903 13.0028C3.98033 13.248 4.61039 13.248 5.87051 13.248Z" stroke="#98A2B3" stroke-width="1.5" stroke-linecap="round" stroke-linejoin="round"/>
</g>
<defs>
<clipPath id="clip0_1_9831">
<rect width="18" height="18" fill="white" transform="translate(0.770508 0.498047)"/>
</clipPath>
</defs>
</svg>
