<svg width="19" height="19" viewBox="0 0 19 19" fill="none" xmlns="http://www.w3.org/2000/svg">
<g clip-path="url(#clip0_1_9835)">
<path d="M13.5244 2.74805L9.77441 5.74805L6.02441 2.74805M5.87441 16.248H13.6744C14.9345 16.248 15.5646 16.248 16.0459 16.0028C16.4693 15.7871 16.8135 15.4429 17.0292 15.0195C17.2744 14.5382 17.2744 13.9082 17.2744 12.648V9.34805C17.2744 8.08793 17.2744 7.45787 17.0292 6.97657C16.8135 6.5532 16.4693 6.209 16.0459 5.99328C15.5646 5.74805 14.9345 5.74805 13.6744 5.74805H5.87441C4.6143 5.74805 3.98424 5.74805 3.50294 5.99328C3.07957 6.209 2.73536 6.5532 2.51965 6.97657C2.27441 7.45787 2.27441 8.08793 2.27441 9.34805V12.648C2.27441 13.9082 2.27441 14.5382 2.51965 15.0195C2.73536 15.4429 3.07957 15.7871 3.50294 16.0028C3.98424 16.248 4.6143 16.248 5.87441 16.248Z" stroke="#98A2B3" stroke-width="1.5" stroke-linecap="round" stroke-linejoin="round"/>
</g>
<defs>
<clipPath id="clip0_1_9835">
<rect width="18" height="18" fill="white" transform="translate(0.774414 0.498047)"/>
</clipPath>
</defs>
</svg>
