<svg width="19" height="19" viewBox="0 0 19 19" fill="none" xmlns="http://www.w3.org/2000/svg">
<g clip-path="url(#clip0_1_10809)">
<path d="M18.0283 2.74802C17.3101 3.25463 16.5149 3.6421 15.6733 3.89552C15.2216 3.37615 14.6213 3.00804 13.9536 2.84096C13.2859 2.67389 12.5829 2.71592 11.9399 2.96136C11.2968 3.2068 10.7447 3.64382 10.3581 4.21331C9.97146 4.78279 9.76909 5.45727 9.77832 6.14552V6.89552C8.4603 6.9297 7.15428 6.63738 5.97658 6.0446C4.79888 5.45183 3.78606 4.577 3.02832 3.49802C3.02832 3.49802 0.0283202 10.248 6.77832 13.248C5.23372 14.2965 3.39369 14.8222 1.52832 14.748C8.27832 18.498 16.5283 14.748 16.5283 6.12302C16.5276 5.91411 16.5075 5.70572 16.4683 5.50052C17.2338 4.74564 17.7739 3.79255 18.0283 2.74802Z" stroke="#98A2B3" stroke-width="1.5" stroke-linecap="round" stroke-linejoin="round"/>
</g>
<defs>
<clipPath id="clip0_1_10809">
<rect width="18" height="18" fill="white" transform="translate(0.77832 0.498047)"/>
</clipPath>
</defs>
</svg>
