<svg width="19" height="19" viewBox="0 0 19 19" fill="none" xmlns="http://www.w3.org/2000/svg">
<path d="M6.78613 5.74805H12.7861M9.78613 5.74805V13.248M6.63613 16.248H12.9361C14.1963 16.248 14.8263 16.248 15.3076 16.0028C15.731 15.7871 16.0752 15.4429 16.2909 15.0195C16.5361 14.5382 16.5361 13.9082 16.5361 12.648V6.34805C16.5361 5.08793 16.5361 4.45787 16.2909 3.97657C16.0752 3.5532 15.731 3.209 15.3076 2.99328C14.8263 2.74805 14.1963 2.74805 12.9361 2.74805H6.63613C5.37602 2.74805 4.74596 2.74805 4.26465 2.99328C3.84129 3.209 3.49708 3.5532 3.28137 3.97657C3.03613 4.45787 3.03613 5.08793 3.03613 6.34805V12.648C3.03613 13.9082 3.03613 14.5382 3.28137 15.0195C3.49708 15.4429 3.84129 15.7871 4.26465 16.0028C4.74596 16.248 5.37601 16.248 6.63613 16.248Z" stroke="#98A2B3" stroke-width="1.5" stroke-linecap="round" stroke-linejoin="round"/>
</svg>
