<svg width="19" height="18" viewBox="0 0 19 18" fill="none" xmlns="http://www.w3.org/2000/svg">
<g clip-path="url(#clip0_1_10583)">
<path d="M12.8214 14.55C12.8214 15.627 11.982 16.5 10.9464 16.5C9.91091 16.5 9.07145 15.627 9.07145 14.55V9M1.66618 7.8047C2.23858 4.23068 5.33612 1.5 9.07145 1.5C12.8068 1.5 15.9043 4.23068 16.4767 7.8047C16.5326 8.15354 16.5605 8.32796 16.4904 8.51426C16.4346 8.66248 16.2979 8.82274 16.1604 8.90128C15.9875 9 15.7822 9 15.3714 9H2.77145C2.36071 9 2.15535 9 1.98248 8.90128C1.84495 8.82274 1.70832 8.66248 1.65251 8.51426C1.58237 8.32796 1.61031 8.15354 1.66618 7.8047Z" stroke="#98A2B3" stroke-width="1.5" stroke-linecap="round" stroke-linejoin="round"/>
</g>
<defs>
<clipPath id="clip0_1_10583">
<rect width="18" height="18" fill="white" transform="translate(0.0712891)"/>
</clipPath>
</defs>
</svg>
