<svg width="19" height="18" viewBox="0 0 19 18" fill="none" xmlns="http://www.w3.org/2000/svg">
<path d="M5.82373 14.55C5.82373 15.627 6.6632 16.5 7.69873 16.5C8.73426 16.5 9.57373 15.627 9.57373 14.55V8.25M9.57373 8.25C8.3661 8.25 6.57373 9 6.57373 9C6.57373 9 5.53136 8.25 4.32373 8.25C3.1161 8.25 2.07373 9 2.07373 9C2.07373 4.85786 5.43159 1.5 9.57373 1.5C13.7159 1.5 17.0737 4.85786 17.0737 9C17.0737 9 16.0314 8.25 14.8237 8.25C13.6161 8.25 12.5737 9 12.5737 9C12.5737 9 10.7814 8.25 9.57373 8.25Z" stroke="#98A2B3" stroke-width="1.5" stroke-linecap="round" stroke-linejoin="round"/>
</svg>
