<svg width="19" height="18" viewBox="0 0 19 18" fill="none" xmlns="http://www.w3.org/2000/svg">
<g clip-path="url(#clip0_1_10587)">
<path d="M4.7627 16.4695L9.0752 9.00003M12.8252 2.50484C9.59031 0.637179 5.54242 1.45325 3.2597 4.26223C3.03689 4.5364 2.92549 4.67349 2.89308 4.8699C2.8673 5.02617 2.9055 5.23327 2.98533 5.37006C3.08568 5.54198 3.26353 5.64467 3.61924 5.85003L14.5312 12.15C14.8869 12.3554 15.0647 12.4581 15.2638 12.459C15.4222 12.4598 15.6206 12.3893 15.7431 12.2888C15.8969 12.1626 15.96 11.9975 16.086 11.6675C17.3773 8.28611 16.0601 4.3725 12.8252 2.50484ZM12.8252 2.50484C11.3903 1.67641 8.54819 3.91284 6.47712 7.50003M12.8252 2.50484C14.2601 3.33327 13.7443 6.91284 11.6733 10.5M16.5752 16.5H1.5752" stroke="#98A2B3" stroke-width="1.5" stroke-linecap="round" stroke-linejoin="round"/>
</g>
<defs>
<clipPath id="clip0_1_10587">
<rect width="18" height="18" fill="white" transform="translate(0.0756836)"/>
</clipPath>
</defs>
</svg>
