<svg width="19" height="18" viewBox="0 0 19 18" fill="none" xmlns="http://www.w3.org/2000/svg">
<path d="M11.7085 5.25V7.875C11.7085 9.32475 10.5332 10.5 9.0835 10.5C7.63375 10.5 6.4585 9.32475 6.4585 7.875V5.25M6.0835 12.75H12.0835M5.9335 15.75H12.2335C13.4936 15.75 14.1237 15.75 14.605 15.5048C15.0283 15.2891 15.3725 14.9448 15.5883 14.5215C15.8335 14.0402 15.8335 13.4101 15.8335 12.15V5.85C15.8335 4.58988 15.8335 3.95982 15.5883 3.47852C15.3725 3.05516 15.0283 2.71095 14.605 2.49524C14.1237 2.25 13.4936 2.25 12.2335 2.25H5.9335C4.67338 2.25 4.04332 2.25 3.56202 2.49524C3.13865 2.71095 2.79445 3.05516 2.57873 3.47852C2.3335 3.95982 2.3335 4.58988 2.3335 5.85V12.15C2.3335 13.4101 2.3335 14.0402 2.57873 14.5215C2.79445 14.9448 3.13865 15.2891 3.56202 15.5048C4.04332 15.75 4.67338 15.75 5.9335 15.75Z" stroke="#98A2B3" stroke-width="1.5" stroke-linecap="round" stroke-linejoin="round"/>
</svg>
