<svg width="19" height="18" viewBox="0 0 19 18" fill="none" xmlns="http://www.w3.org/2000/svg">
<g clip-path="url(#clip0_1_11093)">
<path d="M12.5973 12L9.59726 8.99999M9.59726 8.99999L6.59726 12M9.59726 8.99999V15.75M15.8898 13.7925C16.6213 13.3937 17.1991 12.7626 17.5322 11.999C17.8652 11.2353 17.9344 10.3824 17.7289 9.57501C17.5234 8.7676 17.0549 8.05162 16.3973 7.54007C15.7397 7.02852 14.9304 6.75054 14.0973 6.74999H13.1523C12.9252 5.87192 12.5021 5.05674 11.9147 4.36573C11.3273 3.67473 10.5909 3.12588 9.76084 2.76044C8.93078 2.39501 8.02867 2.22251 7.12235 2.2559C6.21602 2.28929 5.32906 2.52771 4.52814 2.95324C3.72723 3.37876 3.03319 3.98032 2.49823 4.71267C1.96326 5.44503 1.60128 6.28914 1.4395 7.18153C1.27771 8.07393 1.32034 8.99139 1.56417 9.86493C1.808 10.7385 2.24669 11.5454 2.84726 12.225" stroke="#98A2B3" stroke-width="1.5" stroke-linecap="round" stroke-linejoin="round"/>
</g>
<defs>
<clipPath id="clip0_1_11093">
<rect width="18" height="18" fill="white" transform="translate(0.597168)"/>
</clipPath>
</defs>
</svg>
