<svg width="19" height="18" viewBox="0 0 19 18" fill="none" xmlns="http://www.w3.org/2000/svg">
<path d="M13.6035 6.75V2.7C13.6035 2.27996 13.6035 2.06994 13.5218 1.90951C13.4499 1.76839 13.3351 1.65365 13.194 1.58175C13.0336 1.5 12.8236 1.5 12.4035 1.5H5.80352C5.38348 1.5 5.17346 1.5 5.01302 1.58175C4.8719 1.65365 4.75717 1.76839 4.68526 1.90951C4.60352 2.06994 4.60352 2.27996 4.60352 2.7V6.75M7.60352 4.5V3.75M10.6035 4.5V3.75M6.70352 16.5H11.5035C12.7636 16.5 13.3937 16.5 13.875 16.2548C14.2984 16.0391 14.6426 15.6948 14.8583 15.2715C15.1035 14.7902 15.1035 14.1601 15.1035 12.9V9.15C15.1035 8.30992 15.1035 7.88988 14.94 7.56901C14.7962 7.28677 14.5667 7.0573 14.2845 6.91349C13.9636 6.75 13.5436 6.75 12.7035 6.75H5.50352C4.66344 6.75 4.2434 6.75 3.92253 6.91349C3.64029 7.0573 3.41082 7.28677 3.26701 7.56901C3.10352 7.88988 3.10352 8.30992 3.10352 9.15V12.9C3.10352 14.1601 3.10352 14.7902 3.34875 15.2715C3.56447 15.6948 3.90867 16.0391 4.33204 16.2548C4.81334 16.5 5.4434 16.5 6.70352 16.5Z" stroke="#98A2B3" stroke-width="1.5" stroke-linecap="round" stroke-linejoin="round"/>
</svg>
