<svg width="19" height="18" viewBox="0 0 19 18" fill="none" xmlns="http://www.w3.org/2000/svg">
<g clip-path="url(#clip0_1_9631)">
<path d="M12.166 13.5L13.666 15L16.666 12M9.16602 11.25H6.16602C4.76819 11.25 4.06928 11.25 3.51797 11.4784C2.78288 11.7828 2.19886 12.3669 1.89438 13.102C1.66602 13.6533 1.66602 14.3522 1.66602 15.75M11.791 2.46807C12.8905 2.91311 13.666 3.99098 13.666 5.25C13.666 6.50902 12.8905 7.58689 11.791 8.03193M10.291 5.25C10.291 6.90685 8.94787 8.25 7.29102 8.25C5.63416 8.25 4.29102 6.90685 4.29102 5.25C4.29102 3.59315 5.63416 2.25 7.29102 2.25C8.94787 2.25 10.291 3.59315 10.291 5.25Z" stroke="#98A2B3" stroke-width="1.5" stroke-linecap="round" stroke-linejoin="round"/>
</g>
<defs>
<clipPath id="clip0_1_9631">
<rect width="18" height="18" fill="white" transform="translate(0.166016)"/>
</clipPath>
</defs>
</svg>
