<svg width="19" height="18" viewBox="0 0 19 18" fill="none" xmlns="http://www.w3.org/2000/svg">
<g clip-path="url(#clip0_1_10923)">
<path d="M12.9082 15.75V14.25C12.9082 13.4544 12.5921 12.6913 12.0295 12.1287C11.4669 11.5661 10.7039 11.25 9.9082 11.25H3.9082C3.11255 11.25 2.34949 11.5661 1.78688 12.1287C1.22427 12.6913 0.908203 13.4544 0.908203 14.25V15.75M17.4082 15.75V14.25C17.4077 13.5853 17.1865 12.9396 16.7792 12.4142C16.372 11.8889 15.8018 11.5137 15.1582 11.3475M12.1582 2.3475C12.8035 2.51273 13.3755 2.88803 13.7839 3.41423C14.1924 3.94044 14.4141 4.58762 14.4141 5.25375C14.4141 5.91988 14.1924 6.56706 13.7839 7.09327C13.3755 7.61947 12.8035 7.99478 12.1582 8.16M9.9082 5.25C9.9082 6.90685 8.56506 8.25 6.9082 8.25C5.25135 8.25 3.9082 6.90685 3.9082 5.25C3.9082 3.59315 5.25135 2.25 6.9082 2.25C8.56506 2.25 9.9082 3.59315 9.9082 5.25Z" stroke="#98A2B3" stroke-width="1.5" stroke-linecap="round" stroke-linejoin="round"/>
</g>
<defs>
<clipPath id="clip0_1_10923">
<rect width="18" height="18" fill="white" transform="translate(0.158203)"/>
</clipPath>
</defs>
</svg>
