<svg width="19" height="18" viewBox="0 0 19 18" fill="none" xmlns="http://www.w3.org/2000/svg">
<path d="M12.6797 13.5L14.9297 11.25M14.9297 11.25L17.1797 13.5M14.9297 11.25V15.75M12.3047 2.46807C13.4041 2.91311 14.1797 3.99098 14.1797 5.25C14.1797 6.50902 13.4041 7.58689 12.3047 8.03193M9.67969 11.25H6.67969C5.28186 11.25 4.58295 11.25 4.03164 11.4784C3.29655 11.7828 2.71253 12.3669 2.40805 13.102C2.17969 13.6533 2.17969 14.3522 2.17969 15.75M10.8047 5.25C10.8047 6.90685 9.46154 8.25 7.80469 8.25C6.14783 8.25 4.80469 6.90685 4.80469 5.25C4.80469 3.59315 6.14783 2.25 7.80469 2.25C9.46154 2.25 10.8047 3.59315 10.8047 5.25Z" stroke="#98A2B3" stroke-width="1.5" stroke-linecap="round" stroke-linejoin="round"/>
</svg>
