<svg width="19" height="18" viewBox="0 0 19 18" fill="none" xmlns="http://www.w3.org/2000/svg">
<path d="M17.1602 15.75V14.25C17.1602 12.8521 16.2041 11.6775 14.9102 11.3445M12.2852 2.46807C13.3846 2.91311 14.1602 3.99098 14.1602 5.25C14.1602 6.50902 13.3846 7.58689 12.2852 8.03193M13.4102 15.75C13.4102 14.3522 13.4102 13.6533 13.1818 13.102C12.8773 12.3669 12.2933 11.7828 11.5582 11.4784C11.0069 11.25 10.308 11.25 8.91016 11.25H6.66016C5.26233 11.25 4.56342 11.25 4.01211 11.4784C3.27702 11.7828 2.693 12.3669 2.38852 13.102C2.16016 13.6533 2.16016 14.3522 2.16016 15.75M10.7852 5.25C10.7852 6.90685 9.44201 8.25 7.78516 8.25C6.1283 8.25 4.78516 6.90685 4.78516 5.25C4.78516 3.59315 6.1283 2.25 7.78516 2.25C9.44201 2.25 10.7852 3.59315 10.7852 5.25Z" stroke="#98A2B3" stroke-width="1.5" stroke-linecap="round" stroke-linejoin="round"/>
</svg>
