<svg width="19" height="18" viewBox="0 0 19 18" fill="none" xmlns="http://www.w3.org/2000/svg">
<path d="M14.1642 11.8777C15.2561 12.4262 16.1923 13.3065 16.8756 14.4072C17.0109 14.6252 17.0786 14.7342 17.102 14.8851C17.1495 15.1918 16.9398 15.5689 16.6541 15.6903C16.5136 15.75 16.3554 15.75 16.0392 15.75M12.6642 8.64918C13.7755 8.09692 14.5392 6.95015 14.5392 5.625C14.5392 4.29985 13.7755 3.15308 12.6642 2.60082M11.1642 5.625C11.1642 7.48896 9.65315 9 7.78918 9C5.92522 9 4.41418 7.48896 4.41418 5.625C4.41418 3.76104 5.92522 2.25 7.78918 2.25C9.65315 2.25 11.1642 3.76104 11.1642 5.625ZM2.58361 14.2038C3.77934 12.4084 5.66621 11.25 7.78918 11.25C9.91216 11.25 11.799 12.4084 12.9948 14.2038C13.2567 14.5971 13.3877 14.7937 13.3726 15.0449C13.3609 15.2405 13.2326 15.48 13.0764 15.5982C12.8756 15.75 12.5996 15.75 12.0474 15.75H3.53095C2.97881 15.75 2.70274 15.75 2.50201 15.5982C2.34572 15.48 2.2175 15.2405 2.20576 15.0449C2.19068 14.7937 2.32166 14.5971 2.58361 14.2038Z" stroke="#98A2B3" stroke-width="1.5" stroke-linecap="round" stroke-linejoin="round"/>
</svg>
