<svg width="19" height="18" viewBox="0 0 19 18" fill="none" xmlns="http://www.w3.org/2000/svg">
<path d="M14.9263 15.75V11.25M12.6763 13.5H17.1763M9.67627 11.25H6.67627C5.27845 11.25 4.57953 11.25 4.02822 11.4784C3.29314 11.7828 2.70911 12.3669 2.40463 13.102C2.17627 13.6533 2.17627 14.3522 2.17627 15.75M12.3013 2.46807C13.4007 2.91311 14.1763 3.99098 14.1763 5.25C14.1763 6.50902 13.4007 7.58689 12.3013 8.03193M10.8013 5.25C10.8013 6.90685 9.45812 8.25 7.80127 8.25C6.14442 8.25 4.80127 6.90685 4.80127 5.25C4.80127 3.59315 6.14442 2.25 7.80127 2.25C9.45812 2.25 10.8013 3.59315 10.8013 5.25Z" stroke="#98A2B3" stroke-width="1.5" stroke-linecap="round" stroke-linejoin="round"/>
</svg>
