<svg width="19" height="18" viewBox="0 0 19 18" fill="none" xmlns="http://www.w3.org/2000/svg">
<path d="M14.8906 7.5V3M12.6406 5.25H17.1406M12.6406 15.75V14.85C12.6406 13.5899 12.6406 12.9598 12.3954 12.4785C12.1797 12.0552 11.8355 11.711 11.4121 11.4952C10.9308 11.25 10.3007 11.25 9.04063 11.25H5.74063C4.48051 11.25 3.85045 11.25 3.36915 11.4952C2.94578 11.711 2.60158 12.0552 2.38586 12.4785C2.14062 12.9598 2.14062 13.5899 2.14062 14.85V15.75M10.0156 5.625C10.0156 7.07475 8.84037 8.25 7.39063 8.25C5.94088 8.25 4.76563 7.07475 4.76563 5.625C4.76563 4.17525 5.94088 3 7.39063 3C8.84037 3 10.0156 4.17525 10.0156 5.625Z" stroke="#98A2B3" stroke-width="1.5" stroke-linecap="round" stroke-linejoin="round"/>
</svg>
