<svg width="19" height="18" viewBox="0 0 19 18" fill="none" xmlns="http://www.w3.org/2000/svg">
<path d="M9.60878 11.25C7.23122 11.25 5.11687 12.398 3.77077 14.1795C3.48105 14.5629 3.33619 14.7546 3.34093 15.0137C3.34459 15.2139 3.4703 15.4664 3.6278 15.59C3.83167 15.75 4.11418 15.75 4.6792 15.75H14.5384C15.1034 15.75 15.3859 15.75 15.5898 15.59C15.7473 15.4664 15.873 15.2139 15.8766 15.0137C15.8814 14.7546 15.7365 14.5629 15.4468 14.1795C14.1007 12.398 11.9863 11.25 9.60878 11.25Z" stroke="#98A2B3" stroke-width="1.5" stroke-linecap="round" stroke-linejoin="round"/>
<path d="M9.60878 9C11.4727 9 12.9838 7.48896 12.9838 5.625C12.9838 3.76104 11.4727 2.25 9.60878 2.25C7.74481 2.25 6.23378 3.76104 6.23378 5.625C6.23378 7.48896 7.74481 9 9.60878 9Z" stroke="#98A2B3" stroke-width="1.5" stroke-linecap="round" stroke-linejoin="round"/>
</svg>
