<svg width="19" height="18" viewBox="0 0 19 18" fill="none" xmlns="http://www.w3.org/2000/svg">
<g clip-path="url(#clip0_1_9639)">
<path d="M12.1738 13.5H16.6738M11.7988 2.46807C12.8983 2.91311 13.6738 3.99098 13.6738 5.25C13.6738 6.50902 12.8983 7.58689 11.7988 8.03193M9.17383 11.25H6.17383C4.776 11.25 4.07709 11.25 3.52578 11.4784C2.79069 11.7828 2.20667 12.3669 1.90219 13.102C1.67383 13.6533 1.67383 14.3522 1.67383 15.75M10.2988 5.25C10.2988 6.90685 8.95568 8.25 7.29883 8.25C5.64197 8.25 4.29883 6.90685 4.29883 5.25C4.29883 3.59315 5.64197 2.25 7.29883 2.25C8.95568 2.25 10.2988 3.59315 10.2988 5.25Z" stroke="#98A2B3" stroke-width="1.5" stroke-linecap="round" stroke-linejoin="round"/>
</g>
<defs>
<clipPath id="clip0_1_9639">
<rect width="18" height="18" fill="white" transform="translate(0.173828)"/>
</clipPath>
</defs>
</svg>
