<svg width="19" height="18" viewBox="0 0 19 18" fill="none" xmlns="http://www.w3.org/2000/svg">
<g clip-path="url(#clip0_1_9595)">
<path d="M4.10587 14.5788C4.56212 13.5039 5.62734 12.75 6.86865 12.75H11.3687C12.61 12.75 13.6752 13.5039 14.1314 14.5788M12.1187 7.125C12.1187 8.78185 10.7755 10.125 9.11865 10.125C7.4618 10.125 6.11865 8.78185 6.11865 7.125C6.11865 5.46815 7.4618 4.125 9.11865 4.125C10.7755 4.125 12.1187 5.46815 12.1187 7.125ZM16.6187 9C16.6187 13.1421 13.2608 16.5 9.11865 16.5C4.97652 16.5 1.61865 13.1421 1.61865 9C1.61865 4.85786 4.97652 1.5 9.11865 1.5C13.2608 1.5 16.6187 4.85786 16.6187 9Z" stroke="#98A2B3" stroke-width="1.5" stroke-linecap="round" stroke-linejoin="round"/>
</g>
<defs>
<clipPath id="clip0_1_9595">
<rect width="18" height="18" fill="white" transform="translate(0.118652)"/>
</clipPath>
</defs>
</svg>
