<svg width="19" height="18" viewBox="0 0 19 18" fill="none" xmlns="http://www.w3.org/2000/svg">
<g clip-path="url(#clip0_1_9647)">
<path d="M12.5566 12L16.3066 15.75M16.3066 12L12.5566 15.75M11.8066 2.46807C12.9061 2.91311 13.6816 3.99098 13.6816 5.25C13.6816 6.50902 12.9061 7.58689 11.8066 8.03193M9.18164 11.25H6.18164C4.78382 11.25 4.0849 11.25 3.53359 11.4784C2.79851 11.7828 2.21448 12.3669 1.91 13.102C1.68164 13.6533 1.68164 14.3522 1.68164 15.75M10.3066 5.25C10.3066 6.90685 8.9635 8.25 7.30664 8.25C5.64979 8.25 4.30664 6.90685 4.30664 5.25C4.30664 3.59315 5.64979 2.25 7.30664 2.25C8.9635 2.25 10.3066 3.59315 10.3066 5.25Z" stroke="#98A2B3" stroke-width="1.5" stroke-linecap="round" stroke-linejoin="round"/>
</g>
<defs>
<clipPath id="clip0_1_9647">
<rect width="18" height="18" fill="white" transform="translate(0.181641)"/>
</clipPath>
</defs>
</svg>
