<svg width="19" height="18" viewBox="0 0 19 18" fill="none" xmlns="http://www.w3.org/2000/svg">
<g clip-path="url(#clip0_1_10641)">
<path d="M12.6128 15.75V14.25C12.6128 13.4544 12.2967 12.6913 11.7341 12.1287C11.1715 11.5661 10.4084 11.25 9.61279 11.25H4.36279C3.56714 11.25 2.80408 11.5661 2.24147 12.1287C1.67886 12.6913 1.36279 13.4544 1.36279 14.25V15.75M13.3628 8.25L14.8628 9.75L17.8628 6.75M9.98779 5.25C9.98779 6.90685 8.64465 8.25 6.98779 8.25C5.33094 8.25 3.98779 6.90685 3.98779 5.25C3.98779 3.59315 5.33094 2.25 6.98779 2.25C8.64465 2.25 9.98779 3.59315 9.98779 5.25Z" stroke="#98A2B3" stroke-width="1.5" stroke-linecap="round" stroke-linejoin="round"/>
</g>
<defs>
<clipPath id="clip0_1_10641">
<rect width="18" height="18" fill="white" transform="translate(0.612793)"/>
</clipPath>
</defs>
</svg>
