<svg width="19" height="18" viewBox="0 0 19 18" fill="none" xmlns="http://www.w3.org/2000/svg">
<g clip-path="url(#clip0_1_9623)">
<path d="M12.1504 4.5L14.4004 2.25M14.4004 2.25L16.6504 4.5M14.4004 2.25V6.75M12.1504 15.75V14.85C12.1504 13.5899 12.1504 12.9598 11.9052 12.4785C11.6894 12.0552 11.3452 11.711 10.9219 11.4952C10.4406 11.25 9.81051 11.25 8.55039 11.25H5.25039C3.99027 11.25 3.36021 11.25 2.87891 11.4952C2.45555 11.711 2.11134 12.0552 1.89563 12.4785C1.65039 12.9598 1.65039 13.5899 1.65039 14.85V15.75M9.52539 5.625C9.52539 7.07475 8.35014 8.25 6.90039 8.25C5.45064 8.25 4.27539 7.07475 4.27539 5.625C4.27539 4.17525 5.45064 3 6.90039 3C8.35014 3 9.52539 4.17525 9.52539 5.625Z" stroke="#98A2B3" stroke-width="1.5" stroke-linecap="round" stroke-linejoin="round"/>
</g>
<defs>
<clipPath id="clip0_1_9623">
<rect width="18" height="18" fill="white" transform="translate(0.150391)"/>
</clipPath>
</defs>
</svg>
