<svg width="19" height="18" viewBox="0 0 19 18" fill="none" xmlns="http://www.w3.org/2000/svg">
<g clip-path="url(#clip0_1_9635)">
<path d="M8.41992 11.25H6.16992C4.7721 11.25 4.07319 11.25 3.52187 11.4784C2.78679 11.7828 2.20277 12.3669 1.89828 13.102C1.66992 13.6533 1.66992 14.3522 1.66992 15.75M11.7949 2.46807C12.8944 2.91311 13.6699 3.99098 13.6699 5.25M9.16983 16.125L10.6886 15.8213C10.8211 15.7948 10.8873 15.7815 10.949 15.7573C11.0038 15.7358 11.0559 15.7079 11.1042 15.6743C11.1586 15.6363 11.2063 15.5886 11.3018 15.4931L16.295 10.5C16.7092 10.0858 16.7092 9.4142 16.2949 8.99998C15.8807 8.58577 15.2091 8.58578 14.7949 9L9.80181 13.9931C9.70633 14.0886 9.65859 14.1363 9.62065 14.1907C9.58698 14.239 9.5591 14.2911 9.53761 14.3459C9.51339 14.4076 9.50015 14.4738 9.47366 14.6062L9.16983 16.125ZM10.2949 5.25C10.2949 6.90685 8.95178 8.25 7.29492 8.25C5.63807 8.25 4.29492 6.90685 4.29492 5.25C4.29492 3.59315 5.63807 2.25 7.29492 2.25C8.95178 2.25 10.2949 3.59315 10.2949 5.25Z" stroke="#98A2B3" stroke-width="1.5" stroke-linecap="round" stroke-linejoin="round"/>
</g>
<defs>
<clipPath id="clip0_1_9635">
<rect width="18" height="18" fill="white" transform="translate(0.169922)"/>
</clipPath>
</defs>
</svg>
