<svg width="19" height="18" viewBox="0 0 19 18" fill="none" xmlns="http://www.w3.org/2000/svg">
<g clip-path="url(#clip0_1_9643)">
<path d="M14.4277 15.75L16.6777 13.5M16.6777 13.5L14.4277 11.25M16.6777 13.5H12.1777M11.8027 2.46807C12.9022 2.91311 13.6777 3.99098 13.6777 5.25C13.6777 6.50902 12.9022 7.58689 11.8027 8.03193M9.17773 11.25H6.17773C4.77991 11.25 4.081 11.25 3.52968 11.4784C2.7946 11.7828 2.21058 12.3669 1.9061 13.102C1.67773 13.6533 1.67773 14.3522 1.67773 15.75M10.3027 5.25C10.3027 6.90685 8.95959 8.25 7.30273 8.25C5.64588 8.25 4.30273 6.90685 4.30273 5.25C4.30273 3.59315 5.64588 2.25 7.30273 2.25C8.95959 2.25 10.3027 3.59315 10.3027 5.25Z" stroke="#98A2B3" stroke-width="1.5" stroke-linecap="round" stroke-linejoin="round"/>
</g>
<defs>
<clipPath id="clip0_1_9643">
<rect width="18" height="18" fill="white" transform="translate(0.177734)"/>
</clipPath>
</defs>
</svg>
