<svg width="19" height="18" viewBox="0 0 19 18" fill="none" xmlns="http://www.w3.org/2000/svg">
<path d="M14.894 6.75L17.144 4.5M17.144 4.5L14.894 2.25M17.144 4.5L12.644 4.5M12.644 15.75V14.85C12.644 13.5899 12.644 12.9598 12.3988 12.4785C12.1831 12.0552 11.8389 11.711 11.4155 11.4952C10.9342 11.25 10.3042 11.25 9.04404 11.25H5.74404C4.48393 11.25 3.85387 11.25 3.37256 11.4952C2.9492 11.711 2.60499 12.0552 2.38928 12.4785C2.14404 12.9598 2.14404 13.5899 2.14404 14.85V15.75M10.019 5.625C10.019 7.07475 8.84379 8.25 7.39404 8.25C5.9443 8.25 4.76904 7.07475 4.76904 5.625C4.76904 4.17525 5.9443 3 7.39404 3C8.84379 3 10.019 4.17525 10.019 5.625Z" stroke="#98A2B3" stroke-width="1.5" stroke-linecap="round" stroke-linejoin="round"/>
</svg>
