<svg width="19" height="18" viewBox="0 0 19 18" fill="none" xmlns="http://www.w3.org/2000/svg">
<g clip-path="url(#clip0_1_9589)">
<path d="M12.1621 2.60082C13.2734 3.15308 14.0371 4.29985 14.0371 5.625C14.0371 6.95015 13.2734 8.09692 12.1621 8.64918M13.6621 12.5748C14.7957 13.0878 15.8165 13.9237 16.6621 15M1.66211 15C3.12198 13.1419 5.10399 12 7.28711 12C9.47023 12 11.4522 13.1419 12.9121 15M10.6621 5.625C10.6621 7.48896 9.15107 9 7.28711 9C5.42315 9 3.91211 7.48896 3.91211 5.625C3.91211 3.76104 5.42315 2.25 7.28711 2.25C9.15107 2.25 10.6621 3.76104 10.6621 5.625Z" stroke="#98A2B3" stroke-width="1.5" stroke-linecap="round" stroke-linejoin="round"/>
</g>
<defs>
<clipPath id="clip0_1_9589">
<rect width="18" height="18" fill="white" transform="translate(0.162109)"/>
</clipPath>
</defs>
</svg>
