<svg width="19" height="18" viewBox="0 0 19 18" fill="none" xmlns="http://www.w3.org/2000/svg">
<path d="M14.8779 6.75L12.6279 4.5M12.6279 4.5L14.8779 2.25M12.6279 4.5L17.1279 4.5M12.6279 15.75V14.85C12.6279 13.5899 12.6279 12.9598 12.3827 12.4785C12.167 12.0552 11.8228 11.711 11.3994 11.4952C10.9181 11.25 10.288 11.25 9.02793 11.25H5.72793C4.46781 11.25 3.83775 11.25 3.35645 11.4952C2.93309 11.711 2.58888 12.0552 2.37317 12.4785C2.12793 12.9598 2.12793 13.5899 2.12793 14.85V15.75M10.0029 5.625C10.0029 7.07475 8.82768 8.25 7.37793 8.25C5.92818 8.25 4.75293 7.07475 4.75293 5.625C4.75293 4.17525 5.92818 3 7.37793 3C8.82768 3 10.0029 4.17525 10.0029 5.625Z" stroke="#98A2B3" stroke-width="1.5" stroke-linecap="round" stroke-linejoin="round"/>
</svg>
