<svg width="19" height="18" viewBox="0 0 19 18" fill="none" xmlns="http://www.w3.org/2000/svg">
<path d="M12.668 13.5L14.918 15.75M14.918 15.75L17.168 13.5M14.918 15.75V11.25M12.293 2.46807C13.3924 2.91311 14.168 3.99098 14.168 5.25C14.168 6.50902 13.3924 7.58689 12.293 8.03193M9.66797 11.25H6.66797C5.27014 11.25 4.57123 11.25 4.01992 11.4784C3.28483 11.7828 2.70081 12.3669 2.39633 13.102C2.16797 13.6533 2.16797 14.3522 2.16797 15.75M10.793 5.25C10.793 6.90685 9.44982 8.25 7.79297 8.25C6.13611 8.25 4.79297 6.90685 4.79297 5.25C4.79297 3.59315 6.13611 2.25 7.79297 2.25C9.44982 2.25 10.793 3.59315 10.793 5.25Z" stroke="#98A2B3" stroke-width="1.5" stroke-linecap="round" stroke-linejoin="round"/>
</svg>
