<svg width="19" height="18" viewBox="0 0 19 18" fill="none" xmlns="http://www.w3.org/2000/svg">
<g clip-path="url(#clip0_1_10699)">
<path d="M12.1313 15.75V14.25C12.1313 13.4544 11.8153 12.6913 11.2527 12.1287C10.6901 11.5661 9.927 11.25 9.13135 11.25H3.88135C3.0857 11.25 2.32264 11.5661 1.76003 12.1287C1.19742 12.6913 0.881348 13.4544 0.881348 14.25V15.75M17.3813 8.25H12.8813M9.50635 5.25C9.50635 6.90685 8.1632 8.25 6.50635 8.25C4.84949 8.25 3.50635 6.90685 3.50635 5.25C3.50635 3.59315 4.84949 2.25 6.50635 2.25C8.1632 2.25 9.50635 3.59315 9.50635 5.25Z" stroke="#98A2B3" stroke-width="1.5" stroke-linecap="round" stroke-linejoin="round"/>
</g>
<defs>
<clipPath id="clip0_1_10699">
<rect width="18" height="18" fill="white" transform="translate(0.130859)"/>
</clipPath>
</defs>
</svg>
