<svg width="19" height="18" viewBox="0 0 19 18" fill="none" xmlns="http://www.w3.org/2000/svg">
<g clip-path="url(#clip0_1_9599)">
<path d="M12.123 5.25L14.373 7.5M14.373 7.5L16.623 5.25M14.373 7.5V3M12.123 15.75V14.85C12.123 13.5899 12.123 12.9598 11.8778 12.4785C11.6621 12.0552 11.3179 11.711 10.8945 11.4952C10.4132 11.25 9.78317 11.25 8.52305 11.25H5.22305C3.96293 11.25 3.33287 11.25 2.85157 11.4952C2.4282 11.711 2.084 12.0552 1.86828 12.4785C1.62305 12.9598 1.62305 13.5899 1.62305 14.85V15.75M9.49805 5.625C9.49805 7.07475 8.32279 8.25 6.87305 8.25C5.4233 8.25 4.24805 7.07475 4.24805 5.625C4.24805 4.17525 5.4233 3 6.87305 3C8.32279 3 9.49805 4.17525 9.49805 5.625Z" stroke="#98A2B3" stroke-width="1.5" stroke-linecap="round" stroke-linejoin="round"/>
</g>
<defs>
<clipPath id="clip0_1_9599">
<rect width="18" height="18" fill="white" transform="translate(0.122559)"/>
</clipPath>
</defs>
</svg>
