<svg width="19" height="18" viewBox="0 0 19 18" fill="none" xmlns="http://www.w3.org/2000/svg">
<g clip-path="url(#clip0_1_9619)">
<path d="M3.1465 16.3631C3.59843 16.5 4.20885 16.5 5.24648 16.5H13.0465C14.0841 16.5 14.6945 16.5 15.1465 16.3631M3.1465 16.3631C3.0496 16.3337 2.95998 16.2981 2.87501 16.2548C2.45164 16.0391 2.10743 15.6948 1.89172 15.2715C1.64648 14.7902 1.64648 14.1601 1.64648 12.9V5.1C1.64648 3.83988 1.64648 3.20982 1.89172 2.72852C2.10743 2.30516 2.45164 1.96095 2.87501 1.74524C3.35631 1.5 3.98637 1.5 5.24648 1.5H13.0465C14.3066 1.5 14.9367 1.5 15.418 1.74524C15.8413 1.96095 16.1855 2.30516 16.4013 2.72852C16.6465 3.20982 16.6465 3.83988 16.6465 5.1V12.9C16.6465 14.1601 16.6465 14.7902 16.4013 15.2715C16.1855 15.6948 15.8413 16.0391 15.418 16.2548C15.333 16.2981 15.2434 16.3337 15.1465 16.3631M3.1465 16.3631C3.14675 15.7561 3.15039 15.4349 3.20413 15.1647C3.44085 13.9747 4.37114 13.0444 5.56121 12.8076C5.85101 12.75 6.1995 12.75 6.89648 12.75H11.3965C12.0935 12.75 12.442 12.75 12.7318 12.8076C13.9218 13.0444 14.8521 13.9747 15.0888 15.1647C15.1426 15.4349 15.1462 15.7561 15.1465 16.3631M12.1465 7.125C12.1465 8.78185 10.8033 10.125 9.14648 10.125C7.48963 10.125 6.14648 8.78185 6.14648 7.125C6.14648 5.46815 7.48963 4.125 9.14648 4.125C10.8033 4.125 12.1465 5.46815 12.1465 7.125Z" stroke="#98A2B3" stroke-width="1.5" stroke-linecap="round" stroke-linejoin="round"/>
</g>
<defs>
<clipPath id="clip0_1_9619">
<rect width="18" height="18" fill="white" transform="translate(0.146484)"/>
</clipPath>
</defs>
</svg>
