<svg width="19" height="18" viewBox="0 0 19 18" fill="none" xmlns="http://www.w3.org/2000/svg">
<path d="M12.6167 15.75V14.85C12.6167 13.5899 12.6167 12.9598 12.3715 12.4785C12.1557 12.0552 11.8115 11.711 11.3882 11.4952C10.9069 11.25 10.2768 11.25 9.0167 11.25H5.7167C4.45658 11.25 3.82652 11.25 3.34522 11.4952C2.92186 11.711 2.57765 12.0552 2.36193 12.4785C2.1167 12.9598 2.1167 13.5899 2.1167 14.85V15.75M12.6167 4.5L14.1167 6L17.1167 3M9.9917 5.625C9.9917 7.07475 8.81645 8.25 7.3667 8.25C5.91695 8.25 4.7417 7.07475 4.7417 5.625C4.7417 4.17525 5.91695 3 7.3667 3C8.81645 3 9.9917 4.17525 9.9917 5.625Z" stroke="#98A2B3" stroke-width="1.5" stroke-linecap="round" stroke-linejoin="round"/>
</svg>
