<svg width="19" height="18" viewBox="0 0 19 18" fill="none" xmlns="http://www.w3.org/2000/svg">
<path d="M12.6484 13.5L14.8984 11.25M14.8984 11.25L17.1484 13.5M14.8984 11.25V15.75M9.64844 11.625H6.27344C5.22677 11.625 4.70343 11.625 4.27758 11.7542C3.31878 12.045 2.56847 12.7953 2.27762 13.7541C2.14844 14.18 2.14844 14.7033 2.14844 15.75M11.5234 5.625C11.5234 7.48896 10.0124 9 8.14844 9C6.28448 9 4.77344 7.48896 4.77344 5.625C4.77344 3.76104 6.28448 2.25 8.14844 2.25C10.0124 2.25 11.5234 3.76104 11.5234 5.625Z" stroke="#98A2B3" stroke-width="1.5" stroke-linecap="round" stroke-linejoin="round"/>
</svg>
