<svg width="19" height="18" viewBox="0 0 19 18" fill="none" xmlns="http://www.w3.org/2000/svg">
<g clip-path="url(#clip0_1_9609)">
<path d="M12.1348 5.25H16.6348M12.1348 15.75V14.85C12.1348 13.5899 12.1348 12.9598 11.8895 12.4785C11.6738 12.0552 11.3296 11.711 10.9062 11.4952C10.4249 11.25 9.79488 11.25 8.53477 11.25H5.23477C3.97465 11.25 3.34459 11.25 2.86329 11.4952C2.43992 11.711 2.09572 12.0552 1.88 12.4785C1.63477 12.9598 1.63477 13.5899 1.63477 14.85V15.75M9.50977 5.625C9.50977 7.07475 8.33451 8.25 6.88477 8.25C5.43502 8.25 4.25977 7.07475 4.25977 5.625C4.25977 4.17525 5.43502 3 6.88477 3C8.33451 3 9.50977 4.17525 9.50977 5.625Z" stroke="#98A2B3" stroke-width="1.5" stroke-linecap="round" stroke-linejoin="round"/>
</g>
<defs>
<clipPath id="clip0_1_9609">
<rect width="18" height="18" fill="white" transform="translate(0.134277)"/>
</clipPath>
</defs>
</svg>
