<svg width="19" height="18" viewBox="0 0 19 18" fill="none" xmlns="http://www.w3.org/2000/svg">
<path d="M9.62109 11.625H6.2461C5.19942 11.625 4.67608 11.625 4.25024 11.7542C3.29144 12.045 2.54112 12.7953 2.25027 13.7541C2.12109 14.18 2.12109 14.7033 2.12109 15.75M12.6211 13.5L14.8711 15.75M14.8711 15.75L17.1211 13.5M14.8711 15.75V11.25M11.4961 5.625C11.4961 7.48896 9.98506 9 8.12109 9C6.25713 9 4.74609 7.48896 4.74609 5.625C4.74609 3.76104 6.25713 2.25 8.12109 2.25C9.98506 2.25 11.4961 3.76104 11.4961 5.625Z" stroke="#98A2B3" stroke-width="1.5" stroke-linecap="round" stroke-linejoin="round"/>
</svg>
