<svg width="19" height="18" viewBox="0 0 19 18" fill="none" xmlns="http://www.w3.org/2000/svg">
<g clip-path="url(#clip0_1_10811)">
<path d="M12.6523 15.75V14.25C12.6523 13.4544 12.3363 12.6913 11.7737 12.1287C11.2111 11.5661 10.448 11.25 9.65234 11.25H4.40234C3.60669 11.25 2.84363 11.5661 2.28102 12.1287C1.71841 12.6913 1.40234 13.4544 1.40234 14.25V15.75M14.1523 6L17.9023 9.75M17.9023 6L14.1523 9.75M10.0273 5.25C10.0273 6.90685 8.6842 8.25 7.02734 8.25C5.37049 8.25 4.02734 6.90685 4.02734 5.25C4.02734 3.59315 5.37049 2.25 7.02734 2.25C8.6842 2.25 10.0273 3.59315 10.0273 5.25Z" stroke="#98A2B3" stroke-width="1.5" stroke-linecap="round" stroke-linejoin="round"/>
</g>
<defs>
<clipPath id="clip0_1_10811">
<rect width="18" height="18" fill="white" transform="translate(0.652344)"/>
</clipPath>
</defs>
</svg>
