<svg width="19" height="18" viewBox="0 0 19 18" fill="none" xmlns="http://www.w3.org/2000/svg">
<path d="M7.375 11.625H6.25C5.20333 11.625 4.67999 11.625 4.25414 11.7542C3.29534 12.045 2.54503 12.7953 2.25418 13.7541C2.125 14.18 2.125 14.7033 2.125 15.75M11.5 5.625C11.5 7.48896 9.98896 9 8.125 9C6.26104 9 4.75 7.48896 4.75 5.625C4.75 3.76104 6.26104 2.25 8.125 2.25C9.98896 2.25 11.5 3.76104 11.5 5.625ZM8.875 15.75L11.201 15.0854C11.3124 15.0536 11.3681 15.0377 11.42 15.0138C11.4662 14.9927 11.51 14.9669 11.5509 14.9368C11.597 14.903 11.638 14.862 11.7199 14.7801L16.5625 9.93753C17.0803 9.41975 17.0803 8.58025 16.5625 8.06248C16.0447 7.54472 15.2053 7.54473 14.6875 8.0625L9.84488 12.9051C9.76296 12.987 9.72201 13.028 9.68818 13.0741C9.65815 13.115 9.63234 13.1588 9.61116 13.205C9.58731 13.2569 9.5714 13.3126 9.53958 13.424L8.875 15.75Z" stroke="#98A2B3" stroke-width="1.5" stroke-linecap="round" stroke-linejoin="round"/>
</svg>
