<svg width="19" height="18" viewBox="0 0 19 18" fill="none" xmlns="http://www.w3.org/2000/svg">
<path d="M14.9219 15.75L12.6719 13.5M12.6719 13.5L14.9219 11.25M12.6719 13.5H17.1719M12.2969 2.46807C13.3963 2.91311 14.1719 3.99098 14.1719 5.25C14.1719 6.50902 13.3963 7.58689 12.2969 8.03193M9.67188 11.25H6.67188C5.27405 11.25 4.57514 11.25 4.02382 11.4784C3.28874 11.7828 2.70472 12.3669 2.40024 13.102C2.17188 13.6533 2.17188 14.3522 2.17188 15.75M10.7969 5.25C10.7969 6.90685 9.45373 8.25 7.79688 8.25C6.14002 8.25 4.79688 6.90685 4.79688 5.25C4.79688 3.59315 6.14002 2.25 7.79688 2.25C9.45373 2.25 10.7969 3.59315 10.7969 5.25Z" stroke="#98A2B3" stroke-width="1.5" stroke-linecap="round" stroke-linejoin="round"/>
</svg>
