<svg width="19" height="18" viewBox="0 0 19 18" fill="none" xmlns="http://www.w3.org/2000/svg">
<g clip-path="url(#clip0_1_9625)">
<path d="M12.5293 12L16.2793 15.75M16.2793 12L12.5293 15.75M9.1543 11.625H5.7793C4.73263 11.625 4.20929 11.625 3.78344 11.7542C2.82464 12.045 2.07433 12.7953 1.78348 13.7541C1.6543 14.18 1.6543 14.7033 1.6543 15.75M11.0293 5.625C11.0293 7.48896 9.51826 9 7.6543 9C5.79034 9 4.2793 7.48896 4.2793 5.625C4.2793 3.76104 5.79034 2.25 7.6543 2.25C9.51826 2.25 11.0293 3.76104 11.0293 5.625Z" stroke="#98A2B3" stroke-width="1.5" stroke-linecap="round" stroke-linejoin="round"/>
</g>
<defs>
<clipPath id="clip0_1_9625">
<rect width="18" height="18" fill="white" transform="translate(0.154297)"/>
</clipPath>
</defs>
</svg>
