<svg width="19" height="18" viewBox="0 0 19 18" fill="none" xmlns="http://www.w3.org/2000/svg">
<path d="M13.0308 3L16.7808 6.75M16.7808 3L13.0308 6.75M12.6558 15.75V14.85C12.6558 13.5899 12.6558 12.9598 12.4105 12.4785C12.1948 12.0552 11.8506 11.711 11.4272 11.4952C10.9459 11.25 10.3159 11.25 9.05576 11.25H5.75576C4.49564 11.25 3.86558 11.25 3.38428 11.4952C2.96092 11.711 2.61671 12.0552 2.401 12.4785C2.15576 12.9598 2.15576 13.5899 2.15576 14.85V15.75M10.0308 5.625C10.0308 7.07475 8.85551 8.25 7.40576 8.25C5.95602 8.25 4.78076 7.07475 4.78076 5.625C4.78076 4.17525 5.95602 3 7.40576 3C8.85551 3 10.0308 4.17525 10.0308 5.625Z" stroke="#98A2B3" stroke-width="1.5" stroke-linecap="round" stroke-linejoin="round"/>
</svg>
