<svg width="19" height="18" viewBox="0 0 19 18" fill="none" xmlns="http://www.w3.org/2000/svg">
<path d="M15.1069 15.75C15.1069 14.7033 15.1069 14.18 14.9778 13.7541C14.6869 12.7953 13.9366 12.045 12.9778 11.7542C12.5519 11.625 12.0286 11.625 10.9819 11.625H7.23194C6.18526 11.625 5.66192 11.625 5.23608 11.7542C4.27727 12.045 3.52696 12.7953 3.23611 13.7541C3.10693 14.18 3.10693 14.7033 3.10693 15.75M12.4819 5.625C12.4819 7.48896 10.9709 9 9.10693 9C7.24297 9 5.73193 7.48896 5.73193 5.625C5.73193 3.76104 7.24297 2.25 9.10693 2.25C10.9709 2.25 12.4819 3.76104 12.4819 5.625Z" stroke="#98A2B3" stroke-width="1.5" stroke-linecap="round" stroke-linejoin="round"/>
</svg>
