<svg width="19" height="18" viewBox="0 0 19 18" fill="none" xmlns="http://www.w3.org/2000/svg">
<g clip-path="url(#clip0_1_9615)">
<path d="M14.3921 15.75L16.6421 13.5M16.6421 13.5L14.3921 11.25M16.6421 13.5H12.1421M9.14209 11.625H5.76709C4.72042 11.625 4.19708 11.625 3.77123 11.7542C2.81243 12.045 2.06212 12.7953 1.77127 13.7541C1.64209 14.18 1.64209 14.7033 1.64209 15.75M11.0171 5.625C11.0171 7.48896 9.50605 9 7.64209 9C5.77813 9 4.26709 7.48896 4.26709 5.625C4.26709 3.76104 5.77813 2.25 7.64209 2.25C9.50605 2.25 11.0171 3.76104 11.0171 5.625Z" stroke="#98A2B3" stroke-width="1.5" stroke-linecap="round" stroke-linejoin="round"/>
</g>
<defs>
<clipPath id="clip0_1_9615">
<rect width="18" height="18" fill="white" transform="translate(0.141602)"/>
</clipPath>
</defs>
</svg>
