<svg width="19" height="18" viewBox="0 0 19 18" fill="none" xmlns="http://www.w3.org/2000/svg">
<g clip-path="url(#clip0_1_10755)">
<path d="M12.6362 15.75V14.25C12.6362 13.4544 12.3202 12.6913 11.7576 12.1287C11.1949 11.5661 10.4319 11.25 9.63623 11.25H4.38623C3.59058 11.25 2.82752 11.5661 2.26491 12.1287C1.7023 12.6913 1.38623 13.4544 1.38623 14.25V15.75M15.6362 6V10.5M17.8862 8.25H13.3862M10.0112 5.25C10.0112 6.90685 8.66809 8.25 7.01123 8.25C5.35438 8.25 4.01123 6.90685 4.01123 5.25C4.01123 3.59315 5.35438 2.25 7.01123 2.25C8.66809 2.25 10.0112 3.59315 10.0112 5.25Z" stroke="#98A2B3" stroke-width="1.5" stroke-linecap="round" stroke-linejoin="round"/>
</g>
<defs>
<clipPath id="clip0_1_10755">
<rect width="18" height="18" fill="white" transform="translate(0.636719)"/>
</clipPath>
</defs>
</svg>
