<svg width="19" height="18" viewBox="0 0 19 18" fill="none" xmlns="http://www.w3.org/2000/svg">
<g clip-path="url(#clip0_1_9603)">
<path d="M14.3765 15.75L12.1265 13.5M12.1265 13.5L14.3765 11.25M12.1265 13.5H16.6265M9.12647 11.625H5.75147C4.70479 11.625 4.18146 11.625 3.75561 11.7542C2.79681 12.045 2.0465 12.7953 1.75564 13.7541C1.62646 14.18 1.62646 14.7033 1.62646 15.75M11.0015 5.625C11.0015 7.48896 9.49043 9 7.62647 9C5.7625 9 4.25147 7.48896 4.25147 5.625C4.25147 3.76104 5.7625 2.25 7.62647 2.25C9.49043 2.25 11.0015 3.76104 11.0015 5.625Z" stroke="#98A2B3" stroke-width="1.5" stroke-linecap="round" stroke-linejoin="round"/>
</g>
<defs>
<clipPath id="clip0_1_9603">
<rect width="18" height="18" fill="white" transform="translate(0.126465)"/>
</clipPath>
</defs>
</svg>
