<svg width="19" height="18" viewBox="0 0 19 18" fill="none" xmlns="http://www.w3.org/2000/svg">
<path d="M15.6131 15.75C16.6184 13.7166 17.1836 11.4247 17.1836 9C17.1836 6.57533 16.6184 4.28337 15.6131 2.25M3.75404 2.25C2.74882 4.28337 2.18359 6.57533 2.18359 9C2.18359 11.4247 2.74882 13.7166 3.75404 15.75M13.0951 6.46875H13.0278C12.5378 6.46875 12.0722 6.68401 11.7533 7.05804L7.72213 11.7857C7.40321 12.1597 6.93762 12.375 6.44757 12.375H6.38032M7.21972 6.46875H8.26529C8.64004 6.46875 8.96938 6.71848 9.07234 7.0807L10.4032 11.763C10.5061 12.1253 10.8355 12.375 11.2102 12.375H12.2558" stroke="#98A2B3" stroke-width="1.5" stroke-linecap="round" stroke-linejoin="round"/>
</svg>
