<svg width="19" height="18" viewBox="0 0 19 18" fill="none" xmlns="http://www.w3.org/2000/svg">
<g clip-path="url(#clip0_1_10985)">
<path d="M8.6825 3.75H11.1875C11.5853 3.75 11.9669 3.90804 12.2482 4.18934C12.5295 4.47064 12.6875 4.85218 12.6875 5.25V7.755L13.4375 8.505L17.9375 5.25V12.75M1.4375 0.75L17.9375 17.25M12.6875 12V12.75C12.6875 13.1478 12.5295 13.5294 12.2482 13.8107C11.9669 14.092 11.5853 14.25 11.1875 14.25H2.9375C2.53968 14.25 2.15814 14.092 1.87684 13.8107C1.59554 13.5294 1.4375 13.1478 1.4375 12.75V5.25C1.4375 4.85218 1.59554 4.47064 1.87684 4.18934C2.15814 3.90804 2.53968 3.75 2.9375 3.75H4.4375L12.6875 12Z" stroke="#98A2B3" stroke-width="1.5" stroke-linecap="round" stroke-linejoin="round"/>
</g>
<defs>
<clipPath id="clip0_1_10985">
<rect width="18" height="18" fill="white" transform="translate(0.6875)"/>
</clipPath>
</defs>
</svg>
