<svg width="19" height="18" viewBox="0 0 19 18" fill="none" xmlns="http://www.w3.org/2000/svg">
<g clip-path="url(#clip0_1_9839)">
<path d="M16.6895 6.69853C16.6895 6.24417 16.6895 6.01699 16.5996 5.91179C16.5216 5.82051 16.4047 5.77207 16.285 5.78149C16.1471 5.79234 15.9865 5.95298 15.6652 6.27426L12.9395 9L15.6652 11.7257C15.9865 12.047 16.1471 12.2077 16.285 12.2185C16.4047 12.2279 16.5216 12.1795 16.5996 12.0882C16.6895 11.983 16.6895 11.7558 16.6895 11.3015V6.69853Z" stroke="#98A2B3" stroke-width="1.5" stroke-linecap="round" stroke-linejoin="round"/>
<path d="M1.68945 7.35C1.68945 6.08988 1.68945 5.45982 1.93469 4.97852C2.1504 4.55516 2.49461 4.21095 2.91797 3.99524C3.39928 3.75 4.02934 3.75 5.28945 3.75H9.33945C10.5996 3.75 11.2296 3.75 11.7109 3.99524C12.1343 4.21095 12.4785 4.55516 12.6942 4.97852C12.9395 5.45982 12.9395 6.08988 12.9395 7.35V10.65C12.9395 11.9101 12.9395 12.5402 12.6942 13.0215C12.4785 13.4448 12.1343 13.7891 11.7109 14.0048C11.2296 14.25 10.5996 14.25 9.33945 14.25H5.28945C4.02934 14.25 3.39928 14.25 2.91797 14.0048C2.49461 13.7891 2.1504 13.4448 1.93469 13.0215C1.68945 12.5402 1.68945 11.9101 1.68945 10.65V7.35Z" stroke="#98A2B3" stroke-width="1.5" stroke-linecap="round" stroke-linejoin="round"/>
</g>
<defs>
<clipPath id="clip0_1_9839">
<rect width="18" height="18" fill="white" transform="translate(0.189453)"/>
</clipPath>
</defs>
</svg>
