<svg width="19" height="18" viewBox="0 0 19 18" fill="none" xmlns="http://www.w3.org/2000/svg">
<path d="M4.44189 3.75C3.19925 3.75 2.19189 4.75736 2.19189 6V12C2.19189 13.2426 3.19925 14.25 4.44189 14.25H11.1919C12.2064 14.25 13.0641 13.5786 13.3448 12.6559M13.4419 9L16.1676 6.27426C16.4889 5.95298 16.6496 5.79234 16.7875 5.78149C16.9071 5.77207 17.0241 5.82051 17.102 5.91179C17.1919 6.01699 17.1919 6.24417 17.1919 6.69853V11.3015C17.1919 11.7558 17.1919 11.983 17.102 12.0882C17.0241 12.1795 16.9071 12.2279 16.7875 12.2185C16.6496 12.2077 16.4889 12.047 16.1676 11.7257L13.4419 9ZM13.4419 9V7.35C13.4419 6.08988 13.4419 5.45982 13.1967 4.97852C12.9809 4.55516 12.6367 4.21095 12.2134 3.99524C11.7321 3.75 11.102 3.75 9.84189 3.75H7.81689M2.19189 1.5L17.1919 16.5" stroke="#98A2B3" stroke-width="1.5" stroke-linecap="round" stroke-linejoin="round"/>
</svg>
