<svg width="19" height="18" viewBox="0 0 19 18" fill="none" xmlns="http://www.w3.org/2000/svg">
<g clip-path="url(#clip0_1_9255)">
<path d="M9.19334 1.5V5.25M9.19334 1.5C8.6584 1.5 8.13653 1.55601 7.63329 1.66247M9.19334 1.5C9.72829 1.5 10.2502 1.55601 10.7534 1.66247M9.19334 5.25C7.12227 5.25 5.44336 6.92895 5.44336 9.00002M9.19334 5.25C11.2644 5.25 12.9434 6.92895 12.9434 9.00002M9.19334 12.75V16.5M9.19334 12.75C11.2644 12.75 12.9434 11.0711 12.9434 9.00002M9.19334 12.75C7.12227 12.75 5.44336 11.0711 5.44336 9.00002M9.19334 16.5C9.72749 16.5 10.2486 16.4442 10.7511 16.338M9.19334 16.5C8.65721 16.5 8.13422 16.4437 7.62995 16.3368M3.89004 3.6967L6.54169 6.34835M11.845 11.6517L14.4966 14.3033M1.69336 9.00002H5.44336M1.69336 9.00002C1.69336 9.535 1.74936 10.0569 1.85584 10.5602M1.69336 9.00002C1.69336 8.46425 1.74952 7.94158 1.85631 7.43762M12.9434 9.00002H16.6934M16.6934 9.00002C16.6934 8.46503 16.6373 7.94311 16.5308 7.43984M16.6934 9.00002C16.6934 9.53479 16.6374 10.0565 16.531 10.5596M3.89004 14.3033L6.54169 11.6517M11.845 6.34835L14.4966 3.6967M13.2783 2.70906C14.1591 3.28214 14.912 4.03517 15.4849 4.91602M15.4829 13.0872C14.9098 13.9672 14.1571 14.7195 13.2767 15.292M5.10864 15.2911C4.22914 14.7189 3.47709 13.9673 2.90442 13.0881M2.90214 4.9154C3.47494 4.03496 4.22756 3.28225 5.10792 2.70933" stroke="#98A2B3" stroke-width="1.5" stroke-linecap="round" stroke-linejoin="round"/>
</g>
<defs>
<clipPath id="clip0_1_9255">
<rect width="18" height="18" fill="white" transform="translate(0.193359)"/>
</clipPath>
</defs>
</svg>
