<svg width="19" height="18" viewBox="0 0 19 18" fill="none" xmlns="http://www.w3.org/2000/svg">
<g clip-path="url(#clip0_1_9843)">
<path d="M4.69775 12L13.6978 12M4.69775 12C6.35461 12 7.69775 10.6569 7.69775 9C7.69775 7.34315 6.35461 6 4.69775 6C3.0409 6 1.69775 7.34315 1.69775 9C1.69775 10.6569 3.0409 12 4.69775 12ZM13.6978 12C15.3546 12 16.6978 10.6569 16.6978 9C16.6978 7.34315 15.3546 6 13.6978 6C12.0409 6 10.6978 7.34315 10.6978 9C10.6978 10.6569 12.0409 12 13.6978 12Z" stroke="#98A2B3" stroke-width="1.5" stroke-linecap="round" stroke-linejoin="round"/>
</g>
<defs>
<clipPath id="clip0_1_9843">
<rect width="18" height="18" fill="white" transform="translate(0.197754)"/>
</clipPath>
</defs>
</svg>
