<svg width="19" height="18" viewBox="0 0 19 18" fill="none" xmlns="http://www.w3.org/2000/svg">
<g clip-path="url(#clip0_1_11095)">
<path d="M4.82031 12C6.68427 12 8.19531 10.489 8.19531 8.625C8.19531 6.76104 6.68427 5.25 4.82031 5.25C2.95635 5.25 1.44531 6.76104 1.44531 8.625C1.44531 10.489 2.95635 12 4.82031 12ZM4.82031 12H14.5703M14.5703 12C16.4343 12 17.9453 10.489 17.9453 8.625C17.9453 6.76104 16.4343 5.25 14.5703 5.25C12.7064 5.25 11.1953 6.76104 11.1953 8.625C11.1953 10.489 12.7064 12 14.5703 12Z" stroke="#98A2B3" stroke-width="1.5" stroke-linecap="round" stroke-linejoin="round"/>
</g>
<defs>
<clipPath id="clip0_1_11095">
<rect width="18" height="18" fill="white" transform="translate(0.695312)"/>
</clipPath>
</defs>
</svg>
