<svg width="19" height="18" viewBox="0 0 19 18" fill="none" xmlns="http://www.w3.org/2000/svg">
<g clip-path="url(#clip0_1_9849)">
<path d="M11.4595 8.99995H16.7095M7.43521 3.27421L5.06094 5.64847C4.93123 5.77819 4.86637 5.84304 4.79069 5.88943C4.72358 5.93055 4.65042 5.96085 4.5739 5.97922C4.48758 5.99995 4.39586 5.99995 4.21242 5.99995H2.90947C2.48943 5.99995 2.27941 5.99995 2.11898 6.08169C1.97786 6.1536 1.86312 6.26833 1.79122 6.40945C1.70947 6.56989 1.70947 6.77991 1.70947 7.19995V10.7999C1.70947 11.22 1.70947 11.43 1.79122 11.5904C1.86312 11.7316 1.97786 11.8463 2.11898 11.9182C2.27941 11.9999 2.48943 11.9999 2.90947 11.9999H4.21242C4.39586 11.9999 4.48758 11.9999 4.5739 12.0207C4.65042 12.039 4.72358 12.0693 4.79069 12.1105C4.86637 12.1568 4.93123 12.2217 5.06094 12.3514L7.43521 14.7257C7.75649 15.047 7.91713 15.2076 8.05505 15.2185C8.17472 15.2279 8.29167 15.1794 8.36963 15.0882C8.45947 14.983 8.45947 14.7558 8.45947 14.3014V3.69847C8.45947 3.24411 8.45947 3.01693 8.36963 2.91173C8.29167 2.82045 8.17472 2.77201 8.05505 2.78143C7.91713 2.79229 7.75649 2.95293 7.43521 3.27421Z" stroke="#98A2B3" stroke-width="1.5" stroke-linecap="round" stroke-linejoin="round"/>
</g>
<defs>
<clipPath id="clip0_1_9849">
<rect width="18" height="18" fill="white" transform="translate(0.209473)"/>
</clipPath>
</defs>
</svg>
