<svg width="19" height="18" viewBox="0 0 19 18" fill="none" xmlns="http://www.w3.org/2000/svg">
<g clip-path="url(#clip0_1_9845)">
<path d="M15.0165 3.74995C16.0795 5.22762 16.7056 7.04067 16.7056 8.99995C16.7056 10.9592 16.0795 12.7723 15.0165 14.2499M12.0146 5.99995C12.6077 6.85032 12.9556 7.88451 12.9556 8.99995C12.9556 10.1154 12.6077 11.1496 12.0146 11.9999M7.4313 4.02421L5.05704 6.39847C4.92732 6.52819 4.86247 6.59304 4.78678 6.63943C4.71968 6.68055 4.64652 6.71085 4.56999 6.72922C4.48367 6.74995 4.39195 6.74995 4.20851 6.74995H2.90557C2.48553 6.74995 2.27551 6.74995 2.11507 6.83169C1.97395 6.9036 1.85922 7.01833 1.78731 7.15945C1.70557 7.31989 1.70557 7.52991 1.70557 7.94995V10.0499C1.70557 10.47 1.70557 10.68 1.78731 10.8404C1.85922 10.9816 1.97395 11.0963 2.11507 11.1682C2.27551 11.2499 2.48553 11.2499 2.90557 11.2499H4.20851C4.39195 11.2499 4.48367 11.2499 4.56999 11.2707C4.64652 11.289 4.71968 11.3193 4.78678 11.3605C4.86247 11.4068 4.92732 11.4717 5.05704 11.6014L7.4313 13.9757C7.75259 14.297 7.91323 14.4576 8.05114 14.4685C8.17081 14.4779 8.28776 14.4294 8.36572 14.3382C8.45557 14.233 8.45557 14.0058 8.45557 13.5514V4.44847C8.45557 3.99411 8.45557 3.76693 8.36572 3.66173C8.28776 3.57045 8.17081 3.52201 8.05114 3.53143C7.91323 3.54229 7.75259 3.70293 7.4313 4.02421Z" stroke="#98A2B3" stroke-width="1.5" stroke-linecap="round" stroke-linejoin="round"/>
</g>
<defs>
<clipPath id="clip0_1_9845">
<rect width="18" height="18" fill="white" transform="translate(0.205566)"/>
</clipPath>
</defs>
</svg>
