<svg width="19" height="18" viewBox="0 0 19 18" fill="none" xmlns="http://www.w3.org/2000/svg">
<g clip-path="url(#clip0_1_9853)">
<path d="M16.7134 6.74995L12.2134 11.2499M12.2134 6.74995L16.7134 11.2499M7.43912 3.27421L5.06485 5.64847C4.93514 5.77819 4.87028 5.84304 4.79459 5.88943C4.72749 5.93055 4.65433 5.96085 4.5778 5.97922C4.49149 5.99995 4.39977 5.99995 4.21632 5.99995H2.91338C2.49334 5.99995 2.28332 5.99995 2.12289 6.08169C1.98176 6.1536 1.86703 6.26833 1.79512 6.40945C1.71338 6.56989 1.71338 6.77991 1.71338 7.19995V10.7999C1.71338 11.22 1.71338 11.43 1.79512 11.5904C1.86703 11.7316 1.98176 11.8463 2.12289 11.9182C2.28332 11.9999 2.49334 11.9999 2.91338 11.9999H4.21632C4.39977 11.9999 4.49149 11.9999 4.5778 12.0207C4.65433 12.039 4.72749 12.0693 4.79459 12.1105C4.87028 12.1568 4.93514 12.2217 5.06485 12.3514L7.43912 14.7257C7.7604 15.047 7.92104 15.2076 8.05896 15.2185C8.17863 15.2279 8.29557 15.1794 8.37353 15.0882C8.46338 14.983 8.46338 14.7558 8.46338 14.3014V3.69847C8.46338 3.24411 8.46338 3.01693 8.37353 2.91173C8.29557 2.82045 8.17863 2.77201 8.05896 2.78143C7.92104 2.79229 7.7604 2.95293 7.43912 3.27421Z" stroke="#98A2B3" stroke-width="1.5" stroke-linecap="round" stroke-linejoin="round"/>
</g>
<defs>
<clipPath id="clip0_1_9853">
<rect width="18" height="18" fill="white" transform="translate(0.213379)"/>
</clipPath>
</defs>
</svg>
