<svg width="19" height="18" viewBox="0 0 19 18" fill="none" xmlns="http://www.w3.org/2000/svg">
<path d="M14.5869 11.6249V6.37495M11.9619 8.99995H17.2119M7.93765 3.27421L5.56339 5.64847C5.43367 5.77819 5.36882 5.84304 5.29313 5.88943C5.22602 5.93055 5.15287 5.96085 5.07634 5.97922C4.99002 5.99995 4.8983 5.99995 4.71486 5.99995H3.41191C2.99187 5.99995 2.78186 5.99995 2.62142 6.08169C2.4803 6.1536 2.36556 6.26833 2.29366 6.40945C2.21191 6.56989 2.21191 6.77991 2.21191 7.19995V10.7999C2.21191 11.22 2.21191 11.43 2.29366 11.5904C2.36556 11.7316 2.4803 11.8463 2.62142 11.9182C2.78186 11.9999 2.99187 11.9999 3.41191 11.9999H4.71486C4.8983 11.9999 4.99002 11.9999 5.07634 12.0207C5.15287 12.039 5.22602 12.0693 5.29313 12.1105C5.36882 12.1568 5.43367 12.2217 5.56339 12.3514L7.93765 14.7257C8.25893 15.047 8.41957 15.2076 8.55749 15.2185C8.67716 15.2279 8.79411 15.1794 8.87207 15.0882C8.96191 14.983 8.96191 14.7558 8.96191 14.3014V3.69847C8.96191 3.24411 8.96191 3.01693 8.87207 2.91173C8.79411 2.82045 8.67716 2.77201 8.55749 2.78143C8.41957 2.79229 8.25893 2.95293 7.93765 3.27421Z" stroke="#98A2B3" stroke-width="1.5" stroke-linecap="round" stroke-linejoin="round"/>
</svg>
