<svg width="19" height="18" viewBox="0 0 19 18" fill="none" xmlns="http://www.w3.org/2000/svg">
<path d="M14.3914 5.99995C14.9845 6.85032 15.3324 7.88451 15.3324 8.99995C15.3324 10.1154 14.9845 11.1496 14.3914 11.9999M9.80826 3.27421L7.43399 5.64847C7.30428 5.77819 7.23942 5.84304 7.16373 5.88943C7.09663 5.93055 7.02347 5.96085 6.94694 5.97922C6.86063 5.99995 6.76891 5.99995 6.58546 5.99995H5.28252C4.86248 5.99995 4.65246 5.99995 4.49203 6.08169C4.35091 6.1536 4.23617 6.26833 4.16426 6.40945C4.08252 6.56989 4.08252 6.77991 4.08252 7.19995V10.7999C4.08252 11.22 4.08252 11.43 4.16426 11.5904C4.23617 11.7316 4.35091 11.8463 4.49203 11.9182C4.65246 11.9999 4.86248 11.9999 5.28252 11.9999H6.58546C6.76891 11.9999 6.86063 11.9999 6.94694 12.0207C7.02347 12.039 7.09663 12.0693 7.16373 12.1105C7.23942 12.1568 7.30428 12.2217 7.43399 12.3514L9.80826 14.7257C10.1295 15.047 10.2902 15.2076 10.4281 15.2185C10.5478 15.2279 10.6647 15.1794 10.7427 15.0882C10.8325 14.983 10.8325 14.7558 10.8325 14.3014V3.69847C10.8325 3.24411 10.8325 3.01693 10.7427 2.91173C10.6647 2.82045 10.5478 2.77201 10.4281 2.78143C10.2902 2.79229 10.1295 2.95293 9.80826 3.27421Z" stroke="#98A2B3" stroke-width="1.5" stroke-linecap="round" stroke-linejoin="round"/>
</svg>
