<svg width="19" height="18" viewBox="0 0 19 18" fill="none" xmlns="http://www.w3.org/2000/svg">
<g clip-path="url(#clip0_1_9077)">
<path d="M16.7173 6.375H1.71729M1.71729 9.375H4.37729C4.78244 9.375 4.98501 9.375 5.18089 9.40992C5.35475 9.44091 5.52436 9.49226 5.68622 9.56292C5.86857 9.64252 6.03711 9.75489 6.37421 9.97962L6.81036 10.2704C7.14746 10.4951 7.31601 10.6075 7.49836 10.6871C7.66021 10.7577 7.82982 10.8091 8.00368 10.8401C8.19956 10.875 8.40214 10.875 8.80728 10.875H9.62729C10.0324 10.875 10.235 10.875 10.4309 10.8401C10.6048 10.8091 10.7744 10.7577 10.9362 10.6871C11.1186 10.6075 11.2871 10.4951 11.6242 10.2704L12.0604 9.97962C12.3975 9.75489 12.566 9.64252 12.7484 9.56292C12.9102 9.49226 13.0798 9.44091 13.2537 9.40992C13.4496 9.375 13.6521 9.375 14.0573 9.375H16.7173M1.71729 5.4L1.71729 12.6C1.71729 13.4401 1.71729 13.8601 1.88078 14.181C2.02459 14.4632 2.25406 14.6927 2.5363 14.8365C2.85717 15 3.27721 15 4.11729 15L14.3173 15C15.1574 15 15.5774 15 15.8983 14.8365C16.1805 14.6927 16.41 14.4632 16.5538 14.181C16.7173 13.8601 16.7173 13.4401 16.7173 12.6V5.4C16.7173 4.55992 16.7173 4.13988 16.5538 3.81902C16.41 3.53677 16.1805 3.3073 15.8983 3.16349C15.5774 3 15.1574 3 14.3173 3L4.11729 3C3.27721 3 2.85717 3 2.5363 3.16349C2.25406 3.3073 2.02459 3.53677 1.88078 3.81901C1.71729 4.13988 1.71729 4.55992 1.71729 5.4Z" stroke="#98A2B3" stroke-width="1.5" stroke-linecap="round" stroke-linejoin="round"/>
</g>
<defs>
<clipPath id="clip0_1_9077">
<rect width="18" height="18" fill="white" transform="translate(0.217285)"/>
</clipPath>
</defs>
</svg>
