<svg width="19" height="18" viewBox="0 0 19 18" fill="none" xmlns="http://www.w3.org/2000/svg">
<path d="M15.7236 7.125V5.4C15.7236 4.55992 15.7236 4.13988 15.5601 3.81902C15.4163 3.53677 15.1869 3.3073 14.9046 3.16349C14.5838 3 14.1637 3 13.3236 3H4.62363C3.78355 3 3.36352 3 3.04265 3.16349C2.7604 3.3073 2.53093 3.53677 2.38712 3.81901C2.22363 4.13988 2.22363 4.55992 2.22363 5.4V12.6C2.22363 13.4401 2.22363 13.8601 2.38712 14.181C2.53093 14.4632 2.7604 14.6927 3.04265 14.8365C3.36351 15 3.78355 15 4.62363 15L13.3236 15C14.1637 15 14.5838 15 14.9046 14.8365C15.1869 14.6927 15.4163 14.4632 15.5601 14.181C15.7236 13.8601 15.7236 13.4401 15.7236 12.6V10.875M11.9736 9C11.9736 8.65151 11.9736 8.47726 12.0025 8.33237C12.1208 7.73733 12.586 7.27218 13.181 7.15382C13.3259 7.125 13.5001 7.125 13.8486 7.125H15.3486C15.6971 7.125 15.8714 7.125 16.0163 7.15382C16.6113 7.27218 17.0765 7.73733 17.1948 8.33237C17.2236 8.47726 17.2236 8.65151 17.2236 9C17.2236 9.34849 17.2236 9.52274 17.1948 9.66764C17.0765 10.2627 16.6113 10.7278 16.0163 10.8462C15.8714 10.875 15.6971 10.875 15.3486 10.875H13.8486C13.5001 10.875 13.3259 10.875 13.181 10.8462C12.586 10.7278 12.1208 10.2627 12.0025 9.66764C11.9736 9.52274 11.9736 9.34849 11.9736 9Z" stroke="#98A2B3" stroke-width="1.5" stroke-linecap="round" stroke-linejoin="round"/>
</svg>
