<svg width="19" height="18" viewBox="0 0 19 18" fill="none" xmlns="http://www.w3.org/2000/svg">
<path d="M12.5962 10.5H12.6037M2.47119 3.75V14.25C2.47119 15.0784 3.14276 15.75 3.97119 15.75H14.4712C15.2996 15.75 15.9712 15.0784 15.9712 14.25V6.75C15.9712 5.92157 15.2996 5.25 14.4712 5.25L3.97119 5.25C3.14276 5.25 2.47119 4.57843 2.47119 3.75ZM2.47119 3.75C2.47119 2.92157 3.14276 2.25 3.97119 2.25H12.9712M12.9712 10.5C12.9712 10.7071 12.8033 10.875 12.5962 10.875C12.3891 10.875 12.2212 10.7071 12.2212 10.5C12.2212 10.2929 12.3891 10.125 12.5962 10.125C12.8033 10.125 12.9712 10.2929 12.9712 10.5Z" stroke="#98A2B3" stroke-width="1.5" stroke-linecap="round" stroke-linejoin="round"/>
</svg>
