<svg width="19" height="18" viewBox="0 0 19 18" fill="none" xmlns="http://www.w3.org/2000/svg">
<path d="M12.7192 5.99999V3.37548C12.7192 2.75168 12.7192 2.43978 12.5878 2.2481C12.473 2.08063 12.2952 1.96687 12.0951 1.9328C11.866 1.89382 11.5828 2.02452 11.0164 2.28593L4.3635 5.35649C3.85837 5.58963 3.6058 5.70619 3.42082 5.88698C3.25728 6.04681 3.13245 6.24191 3.05587 6.45737C2.96924 6.70108 2.96924 6.97925 2.96924 7.53559V11.25M13.0942 10.875H13.1017M2.96924 8.39999L2.96924 13.35C2.96924 14.1901 2.96924 14.6101 3.13273 14.931C3.27654 15.2132 3.50601 15.4427 3.78825 15.5865C4.10912 15.75 4.52916 15.75 5.36924 15.75H14.0692C14.9093 15.75 15.3294 15.75 15.6502 15.5865C15.9325 15.4427 16.1619 15.2132 16.3058 14.931C16.4692 14.6101 16.4692 14.1901 16.4692 13.35V8.39999C16.4692 7.55992 16.4692 7.13988 16.3058 6.81901C16.1619 6.53677 15.9325 6.30729 15.6502 6.16348C15.3294 5.99999 14.9093 5.99999 14.0692 5.99999L5.36924 5.99999C4.52916 5.99999 4.10912 5.99999 3.78825 6.16348C3.50601 6.30729 3.27654 6.53676 3.13273 6.81901C2.96924 7.13988 2.96924 7.55991 2.96924 8.39999ZM13.4692 10.875C13.4692 11.0821 13.3013 11.25 13.0942 11.25C12.8871 11.25 12.7192 11.0821 12.7192 10.875C12.7192 10.6679 12.8871 10.5 13.0942 10.5C13.3013 10.5 13.4692 10.6679 13.4692 10.875Z" stroke="#98A2B3" stroke-width="1.5" stroke-linecap="round" stroke-linejoin="round"/>
</svg>
