<svg width="19" height="18" viewBox="0 0 19 18" fill="none" xmlns="http://www.w3.org/2000/svg">
<path d="M14.4747 7.5L3.97474 7.5M14.4747 7.5L15.8729 9.83019C16.1862 10.3524 16.3429 10.6135 16.4242 10.8946C16.4963 11.1437 16.5248 11.4033 16.5085 11.6621C16.49 11.9542 16.3937 12.243 16.2011 12.8208L16.0453 13.2884C15.7502 14.1736 15.6027 14.6162 15.329 14.9434C15.0874 15.2324 14.7771 15.456 14.4265 15.5939C14.0296 15.75 13.5631 15.75 12.63 15.75L5.81947 15.75C4.88642 15.75 4.41989 15.75 4.02293 15.5939C3.67239 15.456 3.36208 15.2323 3.12044 14.9434C2.8468 14.6162 2.69927 14.1736 2.40421 13.2884L2.24834 12.8208C2.05575 12.243 1.95945 11.9541 1.941 11.6621C1.92465 11.4033 1.95315 11.1437 2.02525 10.8946C2.10662 10.6135 2.26328 10.3524 2.57662 9.83019L3.97474 7.5M14.4747 7.5L14.7877 6.40467C14.9361 5.88538 15.0102 5.62573 14.952 5.42031C14.9009 5.24036 14.7845 5.08599 14.6255 4.98747C14.444 4.875 14.1739 4.875 13.6339 4.875L4.81561 4.875C4.27554 4.875 4.00551 4.875 3.824 4.98747C3.665 5.08599 3.54856 5.24036 3.49751 5.42031C3.43923 5.62573 3.51342 5.88538 3.66178 6.40467L3.97474 7.5M9.22474 4.875H6.57295C6.18223 4.875 5.80751 4.71697 5.53123 4.43566C5.25495 4.15436 5.09974 3.77283 5.09974 3.375C5.09974 2.97718 5.25495 2.59564 5.53123 2.31434C5.80751 2.03304 6.18223 1.875 6.57295 1.875C8.63545 1.875 9.22474 4.875 9.22474 4.875ZM9.22474 4.875H11.8765C12.2672 4.875 12.642 4.71697 12.9182 4.43566C13.1945 4.15436 13.3497 3.77283 13.3497 3.375C13.3497 2.97718 13.1945 2.59564 12.9182 2.31434C12.642 2.03304 12.2672 1.875 11.8765 1.875C9.81402 1.875 9.22474 4.875 9.22474 4.875Z" stroke="#98A2B3" stroke-width="1.5" stroke-linecap="round" stroke-linejoin="round"/>
</svg>
