<svg width="19" height="18" viewBox="0 0 19 18" fill="none" xmlns="http://www.w3.org/2000/svg">
<path d="M5.479 12.75L5.84314 14.5707C5.98059 15.2579 6.04931 15.6016 6.22874 15.8586C6.38696 16.0852 6.60473 16.2638 6.85802 16.3745C7.14525 16.5 7.49568 16.5 8.19653 16.5H10.2615C10.9623 16.5 11.3128 16.5 11.6 16.3745C11.8533 16.2638 12.0711 16.0852 12.2293 15.8586C12.4087 15.6016 12.4774 15.2579 12.6149 14.5707L12.979 12.75M5.479 5.25L5.84314 3.42932C5.98059 2.74207 6.04931 2.39845 6.22874 2.14142C6.38696 1.91476 6.60473 1.73623 6.85802 1.62553C7.14525 1.5 7.49568 1.5 8.19653 1.5H10.2615C10.9623 1.5 11.3128 1.5 11.6 1.62553C11.8533 1.73623 12.0711 1.91476 12.2293 2.14142C12.4087 2.39845 12.4774 2.74207 12.6149 3.42932L12.979 5.25M9.229 6.75V9L10.354 10.125M14.479 9C14.479 11.8995 12.1285 14.25 9.229 14.25C6.32951 14.25 3.979 11.8995 3.979 9C3.979 6.10051 6.32951 3.75 9.229 3.75C12.1285 3.75 14.479 6.10051 14.479 9Z" stroke="#98A2B3" stroke-width="1.5" stroke-linecap="round" stroke-linejoin="round"/>
</svg>
