<svg width="19" height="18" viewBox="0 0 19 18" fill="none" xmlns="http://www.w3.org/2000/svg">
<path d="M9.72705 6.75001V9.00001L10.8521 10.125M13.1096 13.0125L12.8471 15.885C12.8133 16.259 12.6404 16.6067 12.3627 16.8594C12.085 17.1122 11.7226 17.2515 11.3471 17.25H8.09955C7.72405 17.2515 7.36163 17.1122 7.0839 16.8594C6.80618 16.6067 6.63334 16.259 6.59955 15.885L6.33705 13.0125M6.34455 4.98751L6.60705 2.11501C6.64073 1.74232 6.8125 1.39568 7.08864 1.14313C7.36478 0.890578 7.72534 0.750365 8.09955 0.750012H11.3621C11.7376 0.748489 12.1 0.887861 12.3777 1.14059C12.6554 1.39332 12.8283 1.74103 12.8621 2.11501L13.1246 4.98751M14.9771 9.00001C14.9771 11.8995 12.6265 14.25 9.72705 14.25C6.82756 14.25 4.47705 11.8995 4.47705 9.00001C4.47705 6.10052 6.82756 3.75001 9.72705 3.75001C12.6265 3.75001 14.9771 6.10052 14.9771 9.00001Z" stroke="#98A2B3" stroke-width="1.5" stroke-linecap="round" stroke-linejoin="round"/>
</svg>
