<svg width="19" height="18" viewBox="0 0 19 18" fill="none" xmlns="http://www.w3.org/2000/svg">
<path d="M13.4805 13.875L13.2278 14.7593C13.0495 15.3833 12.9604 15.6953 12.7784 15.9268C12.6178 16.1312 12.4068 16.2904 12.1662 16.3886C11.8935 16.5 11.5691 16.5 10.9201 16.5H8.54079C7.89187 16.5 7.56741 16.5 7.29476 16.3886C7.05411 16.2904 6.84313 16.1312 6.68252 15.9268C6.50054 15.6953 6.41141 15.3833 6.23313 14.7593L5.98047 13.875M13.4805 4.125L13.2278 3.24067C13.0495 2.61672 12.9604 2.30474 12.7784 2.07317C12.6178 1.86878 12.4068 1.70964 12.1662 1.61136C11.8935 1.5 11.5691 1.5 10.9201 1.5H8.54079C7.89187 1.5 7.56741 1.5 7.29476 1.61136C7.05411 1.70964 6.84313 1.86878 6.68252 2.07317C6.50054 2.30474 6.41141 2.61672 6.23313 3.24067L5.98047 4.125M9.73047 6.75V9L10.8555 10.125M7.25547 13.875H12.2055C13.0455 13.875 13.4656 13.875 13.7865 13.7115C14.0687 13.5677 14.2982 13.3382 14.442 13.056C14.6055 12.7351 14.6055 12.3151 14.6055 11.475V6.525C14.6055 5.68492 14.6055 5.26488 14.442 4.94401C14.2982 4.66177 14.0687 4.4323 13.7865 4.28849C13.4656 4.125 13.0455 4.125 12.2055 4.125H7.25547C6.41539 4.125 5.99535 4.125 5.67448 4.28849C5.39224 4.4323 5.16277 4.66177 5.01896 4.94401C4.85547 5.26488 4.85547 5.68492 4.85547 6.525V11.475C4.85547 12.3151 4.85547 12.7351 5.01896 13.056C5.16277 13.3382 5.39224 13.5677 5.67448 13.7115C5.99535 13.875 6.41539 13.875 7.25547 13.875Z" stroke="#98A2B3" stroke-width="1.5" stroke-linecap="round" stroke-linejoin="round"/>
</svg>
