<svg width="19" height="18" viewBox="0 0 19 18" fill="none" xmlns="http://www.w3.org/2000/svg">
<g clip-path="url(#clip0_1_10589)">
<path d="M1.73242 4.5C2.18242 4.875 2.63242 5.25 3.60742 5.25C5.48242 5.25 5.48242 3.75 7.35742 3.75C8.33242 3.75 8.78242 4.125 9.23242 4.5C9.68242 4.875 10.1324 5.25 11.1074 5.25C12.9824 5.25 12.9824 3.75 14.8574 3.75C15.8324 3.75 16.2824 4.125 16.7324 4.5M1.73242 13.5C2.18242 13.875 2.63242 14.25 3.60742 14.25C5.48242 14.25 5.48242 12.75 7.35742 12.75C8.33242 12.75 8.78242 13.125 9.23242 13.5C9.68242 13.875 10.1324 14.25 11.1074 14.25C12.9824 14.25 12.9824 12.75 14.8574 12.75C15.8324 12.75 16.2824 13.125 16.7324 13.5M1.73242 9C2.18242 9.375 2.63242 9.75 3.60742 9.75C5.48242 9.75 5.48242 8.25 7.35742 8.25C8.33242 8.25 8.78242 8.625 9.23242 9C9.68242 9.375 10.1324 9.75 11.1074 9.75C12.9824 9.75 12.9824 8.25 14.8574 8.25C15.8324 8.25 16.2824 8.625 16.7324 9" stroke="#98A2B3" stroke-width="1.5" stroke-linecap="round" stroke-linejoin="round"/>
</g>
<defs>
<clipPath id="clip0_1_10589">
<rect width="18" height="18" fill="white" transform="translate(0.232422)"/>
</clipPath>
</defs>
</svg>
