<svg width="19" height="18" viewBox="0 0 19 18" fill="none" xmlns="http://www.w3.org/2000/svg">
<path d="M9.73535 13.5C13.0491 13.5 15.7354 10.8137 15.7354 7.5C15.7354 4.18629 13.0491 1.5 9.73535 1.5C6.42164 1.5 3.73535 4.18629 3.73535 7.5C3.73535 10.8137 6.42164 13.5 9.73535 13.5ZM9.73535 13.5V16.5M9.73535 16.5H5.98535M9.73535 16.5H13.4854M11.9854 7.5C11.9854 8.74264 10.978 9.75 9.73535 9.75C8.49271 9.75 7.48535 8.74264 7.48535 7.5C7.48535 6.25736 8.49271 5.25 9.73535 5.25C10.978 5.25 11.9854 6.25736 11.9854 7.5Z" stroke="#98A2B3" stroke-width="1.5" stroke-linecap="round" stroke-linejoin="round"/>
</svg>
