<svg width="19" height="18" viewBox="0 0 19 18" fill="none" xmlns="http://www.w3.org/2000/svg">
<g clip-path="url(#clip0_1_9861)">
<path d="M12.2266 7.50002C13.2529 7.81975 14.2145 8.33933 15.0527 9.03751M17.6776 6.37498C15.4858 4.44296 12.6644 3.37697 9.74262 3.37697C9.28886 3.37697 8.83752 3.40268 8.39059 3.45335M7.14002 11.7075C7.90142 11.1666 8.81227 10.876 9.74627 10.876C10.6803 10.876 11.5911 11.1666 12.3525 11.7075M9.74268 14.625H9.75018M1.6377 6.52557C2.6379 5.60902 3.79397 4.85981 5.06156 4.32229M4.29163 9.18223C5.33968 8.25899 6.62397 7.59762 8.04216 7.30045M12.5164 11.8313C11.7521 11.2322 10.7891 10.875 9.74259 10.875C8.68029 10.875 7.70397 11.2431 6.9342 11.8587M2.99268 2.25L16.4927 15.75" stroke="#98A2B3" stroke-width="1.5" stroke-linecap="round" stroke-linejoin="round"/>
</g>
<defs>
<clipPath id="clip0_1_9861">
<rect width="18" height="18" fill="white" transform="translate(0.743164)"/>
</clipPath>
</defs>
</svg>
