<svg width="19" height="18" viewBox="0 0 19 18" fill="none" xmlns="http://www.w3.org/2000/svg">
<g clip-path="url(#clip0_1_10869)">
<path d="M0.995117 0.75L17.4951 17.25M12.7851 8.295C13.3994 8.59481 13.9739 8.97022 14.4951 9.4125M3.99512 9.4125C5.10668 8.48312 6.44452 7.86466 7.87262 7.62M8.27762 3.7875C9.88443 3.65803 11.5009 3.85362 13.0304 4.36262C14.56 4.87161 15.9713 5.68356 17.1801 6.75M1.31012 6.75C2.35049 5.83039 3.54339 5.09942 4.83512 4.59M6.64262 12.0825C7.40402 11.5416 8.31487 11.2509 9.24887 11.2509C10.1829 11.2509 11.0937 11.5416 11.8551 12.0825M9.24512 15H9.25262" stroke="#98A2B3" stroke-width="1.5" stroke-linecap="round" stroke-linejoin="round"/>
</g>
<defs>
<clipPath id="clip0_1_10869">
<rect width="18" height="18" fill="white" transform="translate(0.245117)"/>
</clipPath>
</defs>
</svg>
