<svg width="19" height="18" viewBox="0 0 19 18" fill="none" xmlns="http://www.w3.org/2000/svg">
<path d="M15.999 13.5C15.999 13.5 15.1062 13.1479 14.499 12.9765C10.6588 11.893 7.83924 15.107 3.99902 14.0235C3.39183 13.8521 2.49902 13.5 2.49902 13.5M15.999 9C15.999 9 15.1062 8.64786 14.499 8.47655C10.6588 7.39305 7.83924 10.607 3.99902 9.52346C3.39183 9.35214 2.49902 9 2.49902 9M15.999 4.5C15.999 4.5 15.1062 4.14786 14.499 3.97655C10.6588 2.89304 7.83924 6.10696 3.99902 5.02345C3.39183 4.85214 2.49902 4.5 2.49902 4.5" stroke="#98A2B3" stroke-width="1.5" stroke-linecap="round" stroke-linejoin="round"/>
</svg>
