<svg width="19" height="18" viewBox="0 0 19 18" fill="none" xmlns="http://www.w3.org/2000/svg">
<path d="M7.93957 3.44249C8.1138 3.26722 8.32863 3.13772 8.56497 3.06549C8.80131 2.99327 9.05184 2.98055 9.29428 3.02848C9.53672 3.07641 9.76356 3.1835 9.95464 3.34022C10.1457 3.49695 10.2951 3.69845 10.3895 3.92683C10.484 4.15521 10.5205 4.40338 10.4959 4.64928C10.4713 4.89519 10.3864 5.13121 10.2486 5.33636C10.1108 5.54151 9.92442 5.70943 9.70609 5.82521C9.48776 5.94099 9.2442 6.00102 8.99707 5.99999H2.24707M10.1896 14.5575C10.3638 14.7328 10.5786 14.8623 10.815 14.9345C11.0513 15.0067 11.3018 15.0194 11.5443 14.9715C11.7867 14.9236 12.0136 14.8165 12.2046 14.6598C12.3957 14.503 12.5451 14.3015 12.6395 14.0731C12.734 13.8448 12.7705 13.5966 12.7459 13.3507C12.7213 13.1048 12.6364 12.8688 12.4986 12.6636C12.3608 12.4585 12.1744 12.2905 11.9561 12.1748C11.7378 12.059 11.4942 11.999 11.2471 12H2.24707M14.0446 5.79749C14.2627 5.5799 14.5311 5.41942 14.826 5.33025C15.1209 5.24107 15.4333 5.22594 15.7354 5.2862C16.0376 5.34646 16.3202 5.48025 16.5584 5.67574C16.7965 5.87123 16.9828 6.12239 17.1008 6.40701C17.2188 6.69162 17.2648 7.00093 17.2348 7.30757C17.2048 7.61421 17.0997 7.90873 16.9288 8.16509C16.7579 8.42144 16.5264 8.63173 16.2549 8.77735C15.9834 8.92297 15.6802 8.99944 15.3721 8.99999H2.24707" stroke="#98A2B3" stroke-width="1.5" stroke-linecap="round" stroke-linejoin="round"/>
</svg>
