<svg width="19" height="18" viewBox="0 0 19 18" fill="none" xmlns="http://www.w3.org/2000/svg">
<path d="M7.88294 3.5C8.1576 3.19313 8.55675 3 9.00099 3C9.82942 3 10.501 3.67157 10.501 4.5C10.501 5.32843 9.82942 6 9.00099 6H2.25099M10.1329 14.5C10.4076 14.8069 10.8067 15 11.251 15C12.0794 15 12.751 14.3284 12.751 13.5C12.751 12.6716 12.0794 12 11.251 12H2.25099M13.3239 5.25C13.7359 4.78969 14.3346 4.5 15.001 4.5C16.2436 4.5 17.251 5.50736 17.251 6.75C17.251 7.99264 16.2436 9 15.001 9H2.25098" stroke="#98A2B3" stroke-width="1.5" stroke-linecap="round" stroke-linejoin="round"/>
</svg>
