<svg width="19" height="18" viewBox="0 0 19 18" fill="none" xmlns="http://www.w3.org/2000/svg">
<path d="M12.8259 4.875C13.2379 4.41469 13.8366 4.125 14.5029 4.125C15.7456 4.125 16.7529 5.13236 16.7529 6.375C16.7529 7.61764 15.7456 8.625 14.5029 8.625H10.0029M5.32585 3C5.73784 2.53969 6.33656 2.25 7.00293 2.25C8.24557 2.25 9.25293 3.25736 9.25293 4.5C9.25293 5.74264 8.24557 6.75 7.00293 6.75H1.75293M8.32585 15C8.73784 15.4603 9.33656 15.75 10.0029 15.75C11.2456 15.75 12.2529 14.7426 12.2529 13.5C12.2529 12.2574 11.2456 11.25 10.0029 11.25H1.75293" stroke="#98A2B3" stroke-width="1.5" stroke-linecap="round" stroke-linejoin="round"/>
</svg>
