<svg width="19" height="18" viewBox="0 0 19 18" fill="none" xmlns="http://www.w3.org/2000/svg">
<path d="M7.5166 6.75L12.0166 11.25M12.0166 6.75L7.5166 11.25M6.6166 15.75H12.9166C14.1767 15.75 14.8068 15.75 15.2881 15.5048C15.7114 15.2891 16.0557 14.9448 16.2714 14.5215C16.5166 14.0402 16.5166 13.4101 16.5166 12.15V5.85C16.5166 4.58988 16.5166 3.95982 16.2714 3.47852C16.0557 3.05516 15.7114 2.71095 15.2881 2.49524C14.8068 2.25 14.1767 2.25 12.9166 2.25H6.6166C5.35648 2.25 4.72642 2.25 4.24512 2.49524C3.82176 2.71095 3.47755 3.05516 3.26184 3.47852C3.0166 3.95982 3.0166 4.58988 3.0166 5.85V12.15C3.0166 13.4101 3.0166 14.0402 3.26184 14.5215C3.47755 14.9448 3.82176 15.2891 4.24512 15.5048C4.72642 15.75 5.35648 15.75 6.6166 15.75Z" stroke="#98A2B3" stroke-width="1.5" stroke-linecap="round" stroke-linejoin="round"/>
</svg>
