<svg width="19" height="18" viewBox="0 0 19 18" fill="none" xmlns="http://www.w3.org/2000/svg">
<g clip-path="url(#clip0_1_10703)">
<path d="M17.1779 4.815C17.0888 4.45906 16.9074 4.13293 16.6519 3.86955C16.3964 3.60618 16.076 3.41489 15.7229 3.315C14.4329 3 9.27289 3 9.27289 3C9.27289 3 4.11289 3 2.82289 3.345C2.46983 3.44489 2.14937 3.63618 1.8939 3.89955C1.63843 4.16293 1.45698 4.48906 1.36789 4.845C1.1318 6.15417 1.01632 7.48223 1.02289 8.8125C1.01447 10.1528 1.12997 11.491 1.36789 12.81C1.46611 13.1549 1.65162 13.4686 1.9065 13.7209C2.16138 13.9731 2.47701 14.1554 2.82289 14.25C4.11289 14.595 9.27289 14.595 9.27289 14.595C9.27289 14.595 14.4329 14.595 15.7229 14.25C16.076 14.1501 16.3964 13.9588 16.6519 13.6954C16.9074 13.4321 17.0888 13.1059 17.1779 12.75C17.4122 11.4507 17.5276 10.1328 17.5229 8.8125C17.5313 7.47222 17.4158 6.13402 17.1779 4.815Z" stroke="#98A2B3" stroke-width="1.5" stroke-linecap="round" stroke-linejoin="round"/>
<path d="M7.58539 11.265L11.8979 8.8125L7.58539 6.36V11.265Z" stroke="#98A2B3" stroke-width="1.5" stroke-linecap="round" stroke-linejoin="round"/>
</g>
<defs>
<clipPath id="clip0_1_10703">
<rect width="18" height="18" fill="white" transform="translate(0.272461)"/>
</clipPath>
</defs>
</svg>
