<svg width="19" height="18" viewBox="0 0 19 18" fill="none" xmlns="http://www.w3.org/2000/svg">
<g clip-path="url(#clip0_1_9863)">
<path d="M16.9565 5.39991C16.8755 5.07635 16.7106 4.77988 16.4783 4.54046C16.2461 4.30104 15.9548 4.12715 15.6338 4.03635C14.4612 3.75 9.77051 3.75 9.77051 3.75C9.77051 3.75 5.07984 3.75 3.90718 4.06362C3.58623 4.15442 3.29492 4.32832 3.06268 4.56773C2.83045 4.80715 2.66551 5.10362 2.58452 5.42719C2.3699 6.61728 2.26492 7.82455 2.2709 9.03382C2.26325 10.2522 2.36823 11.4687 2.58452 12.6677C2.6738 12.9812 2.84244 13.2664 3.07414 13.4957C3.30583 13.725 3.59275 13.8907 3.90718 13.9767C5.07984 14.2904 9.77051 14.2904 9.77051 14.2904C9.77051 14.2904 14.4612 14.2904 15.6338 13.9767C15.9548 13.8859 16.2461 13.712 16.4783 13.4726C16.7106 13.2332 16.8755 12.9367 16.9565 12.6132C17.1695 11.432 17.2744 10.234 17.2701 9.03382C17.2778 7.81544 17.1728 6.59896 16.9565 5.39991Z" stroke="#98A2B3" stroke-width="1.5" stroke-linecap="round" stroke-linejoin="round"/>
<path d="M8.08301 7.099C8.08301 6.74104 8.08301 6.56205 8.15782 6.46213C8.22301 6.37506 8.32279 6.32058 8.43129 6.31283C8.5558 6.30394 8.70635 6.40072 9.00746 6.59429L11.9646 8.49529C12.2259 8.66327 12.3565 8.74725 12.4016 8.85404C12.4411 8.94735 12.4411 9.05265 12.4016 9.14596C12.3565 9.25275 12.2259 9.33674 11.9646 9.50471L9.00746 11.4057C8.70635 11.5993 8.5558 11.6961 8.43129 11.6872C8.32279 11.6794 8.22301 11.6249 8.15782 11.5379C8.08301 11.4379 8.08301 11.259 8.08301 10.901V7.099Z" stroke="#98A2B3" stroke-width="1.5" stroke-linecap="round" stroke-linejoin="round"/>
</g>
<defs>
<clipPath id="clip0_1_9863">
<rect width="18" height="18" fill="white" transform="translate(0.770508)"/>
</clipPath>
</defs>
</svg>
