<svg width="19" height="18" viewBox="0 0 19 18" fill="none" xmlns="http://www.w3.org/2000/svg">
<path d="M6.28418 6L3.35427 9.51589C3.09267 9.82982 2.96186 9.98678 2.95986 10.1193C2.95813 10.2346 3.00948 10.3442 3.09912 10.4167C3.20224 10.5 3.40656 10.5 3.8152 10.5H9.28418L8.53418 16.5L12.2842 12M12.0217 7.5H14.7532C15.1618 7.5 15.3661 7.5 15.4692 7.58333C15.5589 7.65577 15.6102 7.76541 15.6085 7.88065C15.6065 8.01322 15.4757 8.17018 15.2141 8.48411L14.1969 9.70478M8.21375 3.68449L10.0342 1.5L9.58437 5.09828M16.0342 15.75L2.53418 2.25" stroke="#98A2B3" stroke-width="1.5" stroke-linecap="round" stroke-linejoin="round"/>
</svg>
