<svg width="19" height="18" viewBox="0 0 19 18" fill="none" xmlns="http://www.w3.org/2000/svg">
<path d="M3.03613 5.85C3.03613 4.58988 3.03613 3.95982 3.28137 3.47852C3.49708 3.05516 3.84129 2.71095 4.26465 2.49524C4.74596 2.25 5.37602 2.25 6.63613 2.25H12.9361C14.1963 2.25 14.8263 2.25 15.3076 2.49524C15.731 2.71095 16.0752 3.05516 16.2909 3.47852C16.5361 3.95982 16.5361 4.58988 16.5361 5.85V12.15C16.5361 13.4101 16.5361 14.0402 16.2909 14.5215C16.0752 14.9448 15.731 15.2891 15.3076 15.5048C14.8263 15.75 14.1963 15.75 12.9361 15.75H6.63613C5.37601 15.75 4.74596 15.75 4.26465 15.5048C3.84129 15.2891 3.49708 14.9448 3.28137 14.5215C3.03613 14.0402 3.03613 13.4101 3.03613 12.15V5.85Z" stroke="#98A2B3" stroke-width="1.5" stroke-linecap="round" stroke-linejoin="round"/>
<path d="M9.78613 4.5L6.36133 9.17018C6.13556 9.47806 6.02267 9.632 6.02631 9.76062C6.02948 9.87257 6.08252 9.97724 6.17093 10.046C6.27249 10.125 6.46339 10.125 6.84518 10.125H9.78613V13.5L13.2109 8.82982C13.4367 8.52194 13.5496 8.368 13.546 8.23938C13.5428 8.12743 13.4897 8.02276 13.4013 7.954C13.2998 7.875 13.1089 7.875 12.7271 7.875H9.78613V4.5Z" stroke="#98A2B3" stroke-width="1.5" stroke-linecap="round" stroke-linejoin="round"/>
</svg>
