<svg width="19" height="18" viewBox="0 0 19 18" fill="none" xmlns="http://www.w3.org/2000/svg">
<g clip-path="url(#clip0_1_9267)">
<path d="M9.77832 4.125L6.29951 9.18508C6.09009 9.4897 5.98538 9.64201 5.99167 9.76861C5.99715 9.87887 6.05093 9.98111 6.13869 10.0481C6.23945 10.125 6.42428 10.125 6.79394 10.125H9.77832V13.875L13.2571 8.81492C13.4666 8.5103 13.5713 8.358 13.565 8.23139C13.5595 8.12113 13.5057 8.01889 13.418 7.95191C13.3172 7.875 13.1324 7.875 12.7627 7.875H9.77832V4.125Z" stroke="#98A2B3" stroke-width="1.5" stroke-linecap="round" stroke-linejoin="round"/>
<path d="M9.77832 16.5C13.9205 16.5 17.2783 13.1421 17.2783 9C17.2783 4.85786 13.9205 1.5 9.77832 1.5C5.63618 1.5 2.27832 4.85786 2.27832 9C2.27832 13.1421 5.63618 16.5 9.77832 16.5Z" stroke="#98A2B3" stroke-width="1.5" stroke-linecap="round" stroke-linejoin="round"/>
</g>
<defs>
<clipPath id="clip0_1_9267">
<rect width="18" height="18" fill="white" transform="translate(0.77832)"/>
</clipPath>
</defs>
</svg>
